<?xml version="1.0" encoding="UTF-8"?>
<svg id="Layer_1" data-name="Layer 1" xmlns="http://www.w3.org/2000/svg" viewBox="0 0 368.53 279.62">
  <defs>
    <style>
      .cls-1 {
        fill: #baad6a;
      }

      .cls-2 {
        fill: #231f20;
      }

      .cls-3 {
        fill: #58595b;
      }
    </style>
  </defs>
  <path class="cls-1" d="M175.31,93.27h0v10.12c1.42-1.3,3.13-2.68,5.1-4.02v-6.1h-.01c-.07-1.33-1.18-2.39-2.53-2.39s-2.47,1.06-2.54,2.39m6.98,0h0v4.89c1.55-.95,3.26-1.85,5.09-2.66v-2.23c-.08-1.33-1.19-2.39-2.55-2.39s-2.47,1.06-2.54,2.39m6.98,0h0v1.45c1.6-.61,3.28-1.16,5.06-1.6-.15-1.26-1.21-2.24-2.52-2.24s-2.46,1.06-2.54,2.39m24.05-.15c1.78,.44,3.46,.99,5.06,1.6v-1.45h0c-.08-1.33-1.19-2.39-2.54-2.39s-2.37,.98-2.52,2.24m-21.73-13.26l-.58,.59v.84l.37,.38h4.64l.43-.43v-.79l-.59-.59h-4.26Zm-48.25,.14c-.22,.01-.42,.02-.67,.05-.29,0-.59,.01-.89,.02,.19,2.36,.8,4.84,1.79,7.18,.09,.21,.19,.42,.28,.63,1.12,2.49,2.47,4.52,3.79,5.76v-14.42c-1.39,.38-2.84,.65-4.29,.77m86.22,13.64c1.31-1.24,2.66-3.27,3.79-5.76,.09-.2,.19-.41,.28-.63,.98-2.34,1.6-4.82,1.79-7.18-.3-.01-.6-.02-.89-.02-.25-.04-.45-.04-.67-.05-1.45-.12-2.9-.39-4.29-.77v14.42Zm-84.42-31c-2.4,1.07-5.22,4.62-6.69,8.44l-.03,.07c-.06,.15-.12,.29-.16,.45-.27,.75-.49,1.45-.65,2.07l-.02,.08c-.33,1.3-.47,2.49-.41,3.38l.15,.04c.95,.18,2.55,.49,5.21,.32,.17-.01,.33-.02,.49-.05h.08c1.53-.13,3.07-.43,4.51-.88v-14.68c-.85,.12-1.69,.37-2.49,.76m84.42,13.92c1.44,.45,2.98,.75,4.51,.87h.08c.16,.04,.32,.04,.49,.06,2.66,.17,4.26-.14,5.21-.32l.15-.04c.06-.89-.08-2.09-.41-3.38l-.02-.08c-.16-.62-.38-1.32-.64-2.07-.04-.16-.1-.3-.16-.45l-.03-.07c-1.47-3.82-4.28-7.36-6.69-8.44-.8-.39-1.65-.64-2.49-.76v14.68Zm-43.41-12.57l8.15-1.53,3.53-5.65-11.69,7.18Zm-11.17-9.59l-4.95,6,9.86-3.67v-3l-4.91,.67Zm-35.14-12.18l-.1,.02c-.2,.03-.39,.08-.6,.12-3.23,.76-5.02,1.71-6.09,2.27l-.17,.1c.25,1.09,.85,2.46,1.71,3.88l.05,.09c.41,.68,.93,1.43,1.52,2.23,.11,.18,.22,.32,.35,.48l.07,.07c3.13,4.02,7.77,7.22,11.03,7.63,0,0,.02,0,.03,0v-17.42l-.66-.04c-.53-.04-1.07-.05-1.61-.05-1.83,0-3.71,.21-5.53,.61m90.39-.56l-.66,.04v17.42s.02,0,.02,0c3.26-.41,7.91-3.62,11.04-7.63l.07-.07c.13-.16,.24-.3,.35-.48,.59-.8,1.11-1.55,1.52-2.23l.05-.09c.86-1.42,1.46-2.79,1.71-3.88l-.17-.1c-1.07-.56-2.86-1.51-6.09-2.27-.2-.05-.4-.09-.6-.12l-.1-.02c-1.82-.4-3.7-.61-5.53-.61-.54,0-1.08,.02-1.61,.05m-47.93,37.21h3.64v5.25h2.14v.94h-5.77v-.94h2.17v-4.32h-2.17v-.93Zm7.26,2.75v-1.52l1.23-1.23h5.91l1.23,1.23v3.73l-1.23,1.23h-6.06l-1.03-1.03v-.75h1.43v.39l.42,.42h4.35l.65-.66v-1.31l-.5,.5h-5.4l-1.01-1.01Zm9.89-2.75h7.64v.84l-3.48,3.45v1.91h-1.46v-2.19l2.99-2.96h-5.68v-1.04Zm9.1,0h3.64v5.25h2.14v.94h-5.77v-.94h2.17v-4.32h-2.17v-.93Zm-41.91,5.55l-.02-7.56c0-.07,.02-.15,.03-.22l1.87-7.98c.05-.21,.03-.43-.06-.62l-1.63-3.62c.25-.99,.47-2.01,.63-3.07l-3.7-7.31,16.9-10.02,12.48,6.13-9.8,4.58v.77l17.29-6.04,8.82,2.37-6.25,3.17c-.17,.08-.32,.21-.42,.37l-.79,1.27c-.33,.36-.57,.76-.75,1.2l-4.16,6.69c-.15,.23-.38,.39-.65,.44l-6.97,1.28c-.22,.04-.41,.15-.56,.32l-2.44,2.81c-.04,.07-.09,.13-.13,.2l-.99,1.95c-.06,.11-.13,.21-.22,.29l-7.97,7.06c-.11,.09-.19,.21-.25,.34l-2.58,5.86c-4.59,0-6.25,0-7.46,0-.15-.17-.24-.39-.24-.63m11.16-41.26l-15.09,8.78-3.9-7.7v62.12c0,1.02,.6,1.95,1.53,2.37l12.94,5.91,18.15-3.94c0-2.47-.12-2.32-.46-2.69l-4.23-4.36s13.75-2.06,26.91,6.54l3.22-1.47c.92-.42,1.52-1.35,1.52-2.37v-8.38c-4.15-1.63-9.01-2.74-14.56-2.74-18.91,0-29.89,12.77-31.71,15.98-1.1-3.16,.44-7.06-.3-10.15-.24-.98-1.42-1.54-1.81-2.69-.58-1.72,.06-3.17-.6-4.17-1.18-1.83-2.27-6.42-2.27-6.42h51.25V44.39l-7.89,5.48h-.06s-9.69-2.57-9.69-2.57l-.98-.24-4.09,1.91-15.08-7.54-2.8,1.73Zm34.02-10.76v3.78h10.19V106.37c0,2.45-1.44,4.7-3.67,5.72l-29.79,13.6-29.79-13.6c-2.23-1.02-3.68-3.26-3.68-5.72V36.18h10.19v-3.78h-13.97V106.37c0,3.93,2.31,7.52,5.88,9.15l31.36,14.31,31.36-14.31c3.57-1.63,5.88-5.23,5.88-9.15V32.4h-13.97Zm-38.85,.96h4.62l.54,.54v1.01l-.54,.54h-4.62v-2.09Zm-1.46-.98v6.18h1.46v-2.14h5.45l1.18-1.18v-1.68l-1.18-1.18h-6.91Zm10.05,0v6.18h6.95v-.98h-5.49v-1.63h5.07v-.97h-5.07v-1.64h5.48v-.97h-6.94Zm12.09,0v4.46l-.69,.69h-2.83v1.04h3.69l1.29-1.29v-4.89h-1.46Zm7.54,.76l1.66,2.9h-3.33l1.67-2.9Zm-1-.76l-3.61,6.18h1.51l.86-1.51h4.48l.86,1.51h1.64l-3.61-6.18h-2.13Zm-48.9-4.24h7.72v-3.78h-7.72v3.78Zm66.92,0h7.58v-3.78h-7.58v3.78Zm-51.49-1.43h4.66l.51,.51v.87l-.41,.41h-4.76v-1.79Zm0-2.5h4.71l.41,.41v.74l-.42,.41h-4.7v-1.56Zm-1.46-.93v6.18h7.1l.99-1v-1.34l-.86-.86,.82-.81v-1.2l-.98-.98h-7.07Zm10.06,0v.93h1.92v4.31h-1.92v.94h5.31v-.94h-1.93v-4.31h1.93v-.93h-5.31Zm9.06,.95h4.59l.53,.53v.76l-.61,.62h-4.51v-1.91Zm-1.46-.95v6.18h1.46v-2.33h4.04l1.18,2.33h1.56l-1.34-2.61,1.13-1.13v-1.34l-1.11-1.11h-6.93Zm11.88,.95h4.59l.53,.53v.76l-.61,.62h-4.51v-1.91Zm-1.46-.95v6.18h1.46v-2.33h4.04l1.18,2.33h1.56l-1.34-2.61,1.13-1.13v-1.34l-1.11-1.11h-6.93Zm14.11,.76l1.66,2.9h-3.33l1.67-2.9Zm-1-.76l-3.61,6.18h1.51l.86-1.51h4.48l.86,1.51h1.64l-3.61-6.18h-2.13Zm-69.52,6.23c-.03,.28-.08,.56-.1,.85-.32,3.15-.16,6.33,.48,9.21,.36-.1,.72-.2,1.07-.29,.31-.05,.56-.11,.82-.18,2.61-.56,5.32-.77,7.88-.6l.58,.06v-15.7c-2.93-1.4-5.82-2.29-7.77-2.4-1.37,1.9-2.45,5.17-2.95,9.06m92.65-6.66v15.7l.58-.06c2.55-.16,5.27,.04,7.88,.6,.26,.07,.51,.13,.82,.18,.34,.09,.7,.2,1.07,.29,.63-2.88,.8-6.06,.48-9.21-.03-.29-.07-.57-.1-.85-.5-3.88-1.58-7.16-2.95-9.06-1.95,.11-4.84,1-7.77,2.4m-57.3-6.51h.02s-.03,0-.03,0h.01Zm32.36-.07l.02,.05h.05s-.25,.01-.25,.01l.06-.03v-.03s.04,.01,.04,.01l.07-.03Zm-9.53-4.6c-.14,.14-.29,.28-.45,.42,.93,.69,1.85,1.49,2.8,2.44,.23,.22,.42,.41,.62,.64,.36,.38,.71,.78,1.04,1.18h-3.94c-2.16-2.09-4.57-3.69-6.86-4.51-2.17,.89-4.55,2.52-6.57,4.51h-3.93c.35-.42,.71-.83,1.07-1.21,.15-.2,.35-.38,.53-.58l.08-.08c.85-.85,1.79-1.66,2.78-2.41-.07-.06-.14-.12-.2-.18l-.21-.19c-2.1-1.75-4.48-3.04-6.74-3.65-1.94,1.03-3.98,2.77-5.64,4.77l-.08,.1c-.12,.13-.23,.28-.35,.44-.75,.96-1.4,1.97-1.94,3h-15.82v3.78h74.5v-3.78h-15.94c-.53-1.02-1.17-2.03-1.91-2.98-.13-.13-.23-.27-.33-.39l-.13-.17c-1.73-2.09-3.79-3.78-5.81-4.78-2.15,.64-4.54,1.98-6.56,3.65m-14.24-6.54c-.19,.19-.39,.4-.58,.62-.27,.28-.54,.58-.81,.91,1.51,.76,2.94,1.71,4.25,2.8,.16,.14,.33,.28,.5,.44l.1,.08c.16,.15,.32,.3,.47,.46l.1,.1c.74-.61,1.75-1.15,3.04-1.6l.33-.1,.58,.1c1.12,.37,2.24,.88,3.36,1.53,.12-.21,.33-.4,.46-.5,.19-.18,.39-.34,.58-.5,1.31-1.1,2.71-2.05,4.19-2.8-.24-.28-.5-.57-.79-.87-.18-.21-.36-.4-.56-.6-2.33-2.36-5.16-4.24-7.78-5.2-2.45,.99-5.15,2.85-7.44,5.13"/>
  <g>
    <path class="cls-2" d="M111.34,150h23.24l3.44,3.44v4.37l-2.77,2.77,2.93,2.93v4.94l-3.54,3.54h-23.3v-21.99Zm21.42,9.09l1.91-1.91v-2.77l-1.75-1.75h-18.23v6.44h18.07Zm.29,10.2l1.78-1.79v-3.35l-2.42-2.42h-17.72v7.56h18.36Z"/>
    <path class="cls-2" d="M144.22,169.57h6.95v-17.18h-6.95v-2.39h17.27v2.39h-6.98v17.18h6.98v2.42h-17.27v-2.42Z"/>
    <path class="cls-2" d="M168.81,150h22.66l3.92,3.92v4.53l-3.95,3.95,4.65,9.59h-3.6l-4.3-8.99h-16.03v8.99h-3.35v-21.99Zm20.46,10.3l2.77-2.77v-2.68l-2.3-2.3h-17.59v7.75h17.12Z"/>
    <path class="cls-2" d="M203.41,150h22.66l3.92,3.92v4.53l-3.95,3.95,4.65,9.59h-3.6l-4.3-8.99h-16.03v8.99h-3.35v-21.99Zm20.46,10.3l2.77-2.77v-2.68l-2.29-2.3h-17.59v7.75h17.12Z"/>
    <path class="cls-2" d="M247.92,150h4.65l13.26,21.99h-3.7l-3.67-6.18h-16.57l-3.67,6.18h-3.57l13.26-21.99Zm-4.43,13.17h13.39l-6.69-11.28-6.69,11.28Z"/>
  </g>
  <g>
    <polygon class="cls-1" points="352.33 209.43 352.33 209.43 341.44 209.43 343.29 213.67 352.33 213.67 352.33 209.43"/>
    <polygon class="cls-1" points="315.84 209.2 313.93 213.86 315.65 213.86 323.76 233.8 326.55 233.8 316.56 209.2 315.84 209.2"/>
    <polygon class="cls-1" points="109.5 209.55 100.93 209.55 100.93 209.55 100.93 213.79 109.5 213.79 109.5 209.55"/>
    <polygon class="cls-1" points="232.46 209.55 205.1 209.55 205.1 209.55 205.1 213.79 232.46 213.79 232.46 209.55"/>
    <polygon class="cls-1" points="283.06 209.43 283.06 213.67 291.2 213.67 293.04 209.43 283.06 209.43"/>
    <polygon class="cls-1" points="333.93 258.39 336.66 258.39 333.56 250.79 298.84 250.79 297.11 255.03 332.56 255.03 333.93 258.39"/>
    <rect class="cls-1" x="257.6" y="209.55" width="8.57" height="4.24"/>
    <polygon class="cls-1" points="266.17 275.38 266.17 279.62 303.97 279.62 303.97 275.38 266.17 275.38 266.17 275.38"/>
    <polygon class="cls-1" points="80.37 246.95 79.75 247.58 78.88 247.58 33.71 247.58 33.71 251.81 78.88 251.81 92.66 238.03 92.66 234.67 80.37 246.95"/>
    <polygon class="cls-1" points="0 275.38 0 275.38 0 279.62 46.19 279.62 46.19 275.38 0 275.38"/>
    <polygon class="cls-1" points="100.93 275.38 100.93 275.38 100.93 279.62 188.59 279.62 188.59 275.38 100.93 275.38"/>
    <rect class="cls-1" x="134.64" y="209.55" width="33.68" height="4.24"/>
    <polygon class="cls-1" points="242.85 274.76 242.23 275.38 241.35 275.38 199.5 275.38 199.5 279.62 241.35 279.62 255.48 265.48 255.48 262.12 242.85 274.76"/>
    <polygon class="cls-1" points="368.53 275.38 328.78 275.38 328.78 279.62 368.53 279.62 368.53 275.38 368.53 275.38"/>
    <polygon class="cls-1" points="188.47 219.54 170.44 219.54 170.44 219.54 170.44 223.78 188.47 223.78 188.47 219.54"/>
    <polygon class="cls-1" points="8.57 209.55 0 209.55 0 209.55 0 213.79 8.57 213.79 8.57 209.55"/>
    <rect class="cls-1" x="134.64" y="242.41" width="42.92" height="4.24"/>
    <polygon class="cls-1" points="33.71 209.66 33.71 213.9 67.04 213.9 69.52 216.44 69.52 213.12 66.15 209.66 33.71 209.66"/>
  </g>
  <path class="cls-2" d="M71.64,227.08l-4.71,4.83H31.59v-24.36h35.45l4.59,4.71v14.82ZM0,193.99v13.44H10.69v52.39H0v13.44H46.19v-13.44h-14.59v-14.36h47.28l13.79-13.79v-24.01l-13.67-13.67H0Z"/>
  <path class="cls-2" d="M170.44,259.82h-37.91v-19.53h45.04v-14.02h-45.04v-18.84h37.91v10h18.04v-23.44H100.93v13.44h10.69v52.39h-10.69v13.44h87.66v-23.55h-18.15v10.11Z"/>
  <path class="cls-2" d="M266.17,193.99h-61.07v13.44h29.47v44.69l-6.09,6.09h-28.99v15.05h41.86l14.13-14.13v-51.7h10.69v-13.44Z"/>
  <path class="cls-2" d="M361.18,259.93l-22.98-52.62h14.13v-13.33h-69.28v13.33h13.21l-22.86,52.62h-7.24v13.33h37.8v-12.75h-11.37l4.82-11.83h37.57l4.82,11.83h-11.03v12.75h39.75v-13.33h-7.35Zm-58.59-24.01l11.83-28.84h3.56l11.72,28.84h-27.11Z"/>
  <g>
    <path class="cls-3" d="M7.17,199.92v1.31h13.14v64.58H6.53v1.31H39.38v-1.31H21.62v-26.07h51.52l9.85-10.21v-19.55l-9.81-10.05H7.17Zm74.51,29.08l-9.1,9.43H21.62v-37.19h51.01l9.05,9.27v18.49Z"/>
    <polygon class="cls-3" points="179.1 265.81 122.42 265.81 122.42 233.52 171.58 233.52 171.58 232.21 122.42 232.21 122.42 201.23 178.95 201.23 178.95 211.07 180.26 211.07 180.26 199.92 108.18 199.92 108.18 201.23 121.11 201.23 121.11 265.81 107.56 265.81 107.56 267.12 180.41 267.12 180.41 256.06 179.1 256.06 179.1 265.81"/>
    <polygon class="cls-3" points="211.77 201.23 244.38 201.23 244.38 255.14 235.14 265.81 205.46 265.81 205.46 267.12 235.74 267.12 245.7 255.63 245.7 201.23 260.06 201.23 260.06 199.92 211.77 199.92 211.77 201.23"/>
    <path class="cls-3" d="M354.08,265.81l-28.59-64.58h21.3v-1.31h-58.32v1.31h19.71l-27.99,64.58h-7.4s0,1.32,0,1.32l24.72-.04v-1.31s-15.89,.03-15.89,.03l9.92-22.88h50.98l10.13,22.88h-17.5v1.31h26.6v-1.31h-7.67Zm-61.97-24.19l17.5-40.39h14.45l17.88,40.39h-49.83Z"/>
  </g>
</svg>