<?xml version="1.0" encoding="utf-8"?>
<!-- Generator: Adobe Illustrator 23.0.6, SVG Export Plug-In . SVG Version: 6.00 Build 0)  -->
<svg version="1.1" id="Livello_1" xmlns="http://www.w3.org/2000/svg" xmlns:xlink="http://www.w3.org/1999/xlink" x="0px" y="0px"
	 viewBox="0 0 1550 400" style="enable-background:new 0 0 1550 400;" xml:space="preserve">
<style type="text/css">
	.st0{fill:#1A83C5;}
	.st1{fill:#F8AD1B;}
	.st2{fill:none;stroke:#1A83C5;stroke-miterlimit:10;}
	.st3{fill:none;stroke:#1A83C5;stroke-width:3;stroke-miterlimit:10;}
	.st4{fill:none;stroke:#1A83C5;stroke-width:2;stroke-miterlimit:10;}
	.st5{fill:#F8AD23;}
	.st6{fill:url(#SVGID_1_);}
	.st7{fill:#676766;}
</style>
<g>
	<path class="st0" d="M482.63,264.97v-3.86c-9.34,6.65-20.07,9.98-32.2,9.98c-15.56,0-28.85-5.5-39.85-16.5
		c-11-11-16.5-24.28-16.5-39.85c0-15.56,5.5-28.84,16.5-39.85c11-11,24.28-16.5,39.85-16.5c12.13,0,22.86,3.33,32.2,9.98v-5.96
		h20.13v102.56c0,15.03-5.31,27.85-15.94,38.48s-23.4,15.94-38.32,15.94v-20.13c9.44,0,17.49-3.33,24.15-9.98
		C479.3,282.62,482.63,274.52,482.63,264.97z M482.63,231.48v-33.49c-1.72-3.22-3.92-6.17-6.6-8.85
		c-7.08-7.08-15.62-10.63-25.6-10.63c-9.98,0-18.52,3.54-25.6,10.63s-10.63,15.62-10.63,25.6c0,9.98,3.54,18.52,10.63,25.6
		s15.62,10.63,25.6,10.63c9.98,0,18.51-3.54,25.6-10.63C478.71,237.65,480.91,234.7,482.63,231.48z"/>
	<path class="st0" d="M627.53,182.54l-14.65,14.65l-49.27,49.27c5.26,3.01,11.11,4.51,17.55,4.51c11.05,0,20.55-4.61,28.5-13.85
		l15.78,12.4c-11.81,14.38-26.56,21.57-44.27,21.57c-15.56,0-28.85-5.5-39.85-16.5c-11-11-16.5-24.28-16.5-39.85
		c0-15.56,5.5-28.84,16.5-39.85c11-11,24.28-16.5,39.85-16.5c15.56,0,28.87,5.47,39.93,16.42
		C623.45,177.28,625.6,179.85,627.53,182.54z M598.71,183.02c-5.26-3-11.11-4.51-17.55-4.51c-9.98,0-18.52,3.54-25.6,10.63
		s-10.63,15.62-10.63,25.6c0,6.44,1.5,12.29,4.51,17.55L598.71,183.02z"/>
	<path class="st0" d="M739.66,174.89c11,11,16.5,24.29,16.5,39.85c0,15.56-5.5,28.85-16.5,39.85c-11,11-24.29,16.5-39.85,16.5
		c-15.56,0-28.85-5.5-39.85-16.5c-11-11-16.5-24.28-16.5-39.85c0-15.56,5.5-28.84,16.5-39.85c11-11,24.28-16.5,39.85-16.5
		C715.38,158.39,728.66,163.89,739.66,174.89z M699.82,178.51c-9.98,0-18.52,3.54-25.6,10.63s-10.63,15.62-10.63,25.6
		c0,9.98,3.54,18.52,10.63,25.6s15.62,10.63,25.6,10.63c9.98,0,18.51-3.54,25.6-10.63s10.63-15.62,10.63-25.6
		c0-9.98-3.54-18.51-10.63-25.6S709.8,178.51,699.82,178.51z"/>
	<path class="st1" d="M858.88,261.1c-9.34,6.65-20.07,9.98-32.2,9.98c-15.56,0-28.85-5.5-39.85-16.5c-11-11-16.5-24.28-16.5-39.85
		c0-15.56,5.5-28.84,16.5-39.85c11-11,24.28-16.5,39.85-16.5c12.13,0,22.86,3.33,32.2,9.98v-34.13h20.13v132.83h-20.13V261.1z
		 M858.88,231.48v-33.49c-1.72-3.22-3.92-6.17-6.6-8.85c-7.08-7.08-15.62-10.63-25.6-10.63c-9.98,0-18.51,3.54-25.6,10.63
		s-10.63,15.62-10.63,25.6c0,9.98,3.54,18.52,10.63,25.6s15.62,10.63,25.6,10.63c9.98,0,18.52-3.54,25.6-10.63
		C854.96,237.65,857.16,234.7,858.88,231.48z"/>
	<path class="st1" d="M989.45,261.1c-9.34,6.65-20.07,9.98-32.2,9.98c-15.56,0-28.85-5.5-39.85-16.5c-11-11-16.5-24.28-16.5-39.85
		c0-15.56,5.5-28.84,16.5-39.85c11-11,24.28-16.5,39.85-16.5c12.13,0,22.86,3.33,32.2,9.98v-5.96h20.13v104.65h-20.13V261.1z
		 M989.45,231.48v-33.49c-1.72-3.22-3.92-6.17-6.6-8.85c-7.08-7.08-15.62-10.63-25.6-10.63c-9.98,0-18.52,3.54-25.6,10.63
		s-10.63,15.62-10.63,25.6c0,9.98,3.54,18.52,10.63,25.6s15.62,10.63,25.6,10.63c9.98,0,18.51-3.54,25.6-10.63
		C985.53,237.65,987.73,234.7,989.45,231.48z"/>
	<path class="st1" d="M1039.68,134.24h20.13v28.17h16.1v20.13h-16.1v84.53h-20.13V134.24z"/>
	<path class="st1" d="M1170.9,261.1c-9.34,6.65-20.07,9.98-32.2,9.98c-15.56,0-28.85-5.5-39.85-16.5c-11-11-16.5-24.28-16.5-39.85
		c0-15.56,5.5-28.84,16.5-39.85c11-11,24.28-16.5,39.85-16.5c12.13,0,22.86,3.33,32.2,9.98v-5.96h20.13v104.65h-20.13V261.1z
		 M1170.9,231.48v-33.49c-1.72-3.22-3.92-6.17-6.6-8.85c-7.08-7.08-15.62-10.63-25.6-10.63c-9.98,0-18.52,3.54-25.6,10.63
		s-10.63,15.62-10.63,25.6c0,9.98,3.54,18.52,10.63,25.6s15.62,10.63,25.6,10.63c9.98,0,18.51-3.54,25.6-10.63
		C1166.98,237.65,1169.18,234.7,1170.9,231.48z"/>
	<path class="st1" d="M1245.76,134.24v132.83h-20.13V134.24H1245.76z"/>
	<path class="st1" d="M1360.88,261.1c-9.34,6.65-20.07,9.98-32.2,9.98c-15.56,0-28.85-5.5-39.85-16.5c-11-11-16.5-24.28-16.5-39.85
		c0-15.56,5.5-28.84,16.5-39.85c11-11,24.28-16.5,39.85-16.5c12.13,0,22.86,3.33,32.2,9.98v-5.96H1381v104.65h-20.13V261.1z
		 M1360.88,231.48v-33.49c-1.72-3.22-3.92-6.17-6.6-8.85c-7.08-7.08-15.62-10.63-25.6-10.63c-9.98,0-18.52,3.54-25.6,10.63
		s-10.63,15.62-10.63,25.6c0,9.98,3.54,18.52,10.63,25.6s15.62,10.63,25.6,10.63c9.98,0,18.51-3.54,25.6-10.63
		C1356.96,237.65,1359.16,234.7,1360.88,231.48z"/>
	<path class="st1" d="M1431.23,267.06h-20.13V134.24h20.13v34.13c9.34-6.65,20.07-9.98,32.2-9.98c15.56,0,28.84,5.5,39.85,16.5
		c11,11,16.5,24.29,16.5,39.85c0,15.56-5.5,28.85-16.5,39.85c-11,11-24.29,16.5-39.85,16.5c-12.13,0-22.86-3.33-32.2-9.98V267.06z
		 M1437.83,240.34c7.08,7.08,15.62,10.63,25.6,10.63c9.98,0,18.52-3.54,25.6-10.63s10.63-15.62,10.63-25.6
		c0-9.98-3.54-18.51-10.63-25.6s-15.62-10.63-25.6-10.63c-9.98,0-18.51,3.54-25.6,10.63c-2.68,2.68-4.89,5.63-6.6,8.85v33.49
		C1432.95,234.7,1435.15,237.65,1437.83,240.34z"/>
</g>
<path class="st0" d="M122.66,259c3.38,6.94,10.4,7.32,12.95,0.71c3.23-8.39-3.39-19.16-9.99-16.23c-0.22,0.1-0.49,0.26-0.7,0.37
	C120.01,247.42,120.64,254.86,122.66,259L122.66,259z"/>
<path class="st0" d="M213.91,144.5c5.68,9.52,20.87,7.87,23.9-2.6c2.59-8.95-6.49-18.08-17.76-14.11
	C211.85,131.57,210.76,139.22,213.91,144.5L213.91,144.5z"/>
<path class="st0" d="M150.61,170.7c3.03,6.97,14.47,4.33,17.49-4.04c2.59-7.19-3.45-12.72-10.61-9.7c-0.27,0.12-0.62,0.29-0.89,0.42
	C150.11,161.13,149.19,167.43,150.61,170.7L150.61,170.7z"/>
<path class="st0" d="M92.33,270.04c3.16,3.69,6.89,2.25,7.12-2.75c0.28-6.07-4.77-11.85-8.06-9.22c-0.44,0.35-0.72,0.8-0.95,1.17
	C88.62,263.04,90.45,267.84,92.33,270.04L92.33,270.04z"/>
<path class="st0" d="M116.31,132.55c1.86,6.97,11.85,5.09,16.7-3.15c4.68-7.93,1.05-15.65-6.36-13.53c-1.09,0.31-2,0.81-2.74,1.22
	C117.03,121.6,115.32,128.84,116.31,132.55L116.31,132.55z"/>
<path class="st0" d="M205.42,232.82c4.39,7.34,14.64,6.26,16.88-1.78c2.07-7.42-4.41-15.19-12.74-12.06
	C204.33,221.29,202.39,227.76,205.42,232.82L205.42,232.82z"/>
<path class="st0" d="M220.8,188.86c3.35,5.55,11.72,4.42,13.37-1.8c1.46-5.53-3.82-11.32-10.15-8.81
	C220.01,180.11,218.51,185.06,220.8,188.86L220.8,188.86z"/>
<path class="st0" d="M277.52,107.63c4.23,7.89,15.72,9.38,18.08,2.35c2-5.96-4.85-14.09-13.43-13.23
	C275.28,98.16,275.66,104.17,277.52,107.63L277.52,107.63z"/>
<path class="st0" d="M237.37,67.83c4.12,6.73,14.66,9.19,16.34,3.82c1.38-4.42-5.38-11.72-12.83-11.95
	C234.92,60.08,235.56,64.89,237.37,67.83L237.37,67.83z"/>
<path class="st0" d="M280.7,185.93c4.46,9.14,16.26,9.41,19.13,0.42c2.5-7.81-4.63-17.54-13.86-15.28
	C280.18,172.87,277.72,179.81,280.7,185.93L280.7,185.93z"/>
<path class="st0" d="M236.99,117.82c3.04,4.51,10.68,3.67,11.36-1.24c0.51-3.71-3.85-7.37-8.83-5.91
	C236.3,111.8,235.14,115.07,236.99,117.82L236.99,117.82z"/>
<path class="st0" d="M329.76,141.96c3.89,7.15,11.5,10.03,12.72,4.81c1.19-5.06-5.08-14.24-11.18-14.43
	C326.66,132.87,327.89,138.52,329.76,141.96L329.76,141.96z"/>
<path class="st0" d="M80.82,172.48c0.14,4.5,2.74,6.03,4.96,2.91c2.86-4,2.4-11.65-0.69-11.54c-0.21,0.01-0.49,0.09-0.69,0.16
	C81.79,165.34,80.73,169.77,80.82,172.48L80.82,172.48z"/>
<polygon class="st0" points="214.23,231.6 212.33,230.99 227.14,184.72 224.25,135.03 293.99,186.04 292.81,187.65 226.49,139.14 
	229.16,184.97 "/>
<path class="st0" d="M292.33,188.84l0.07-2.04c1.35-37.31-7.14-80.59-7.23-81.03l-0.52-2.64l2.12,1.66
	c0.43,0.33,42.6,33.33,49.96,38.25l-1.11,1.66c-6.56-4.39-39.26-29.89-47.99-36.71c1.77,9.76,7.69,45.07,6.84,76.81
	c6.28-4.72,29.03-22.54,42.88-42.5l1.64,1.14c-16.3,23.49-44.72,44-45.01,44.2L292.33,188.84z"/>
<rect x="240.45" y="109.63" transform="matrix(0.9773 -0.2119 0.2119 0.9773 -17.4389 58.4975)" class="st0" width="47.61" height="2"/>
<path class="st0" d="M85.18,171.28l-1.69-1.07c8.18-12.93,40.83-44.56,42.21-45.9l0.93-0.9l0.63,1.13c0.11,0.2,11.35,20,33.07,38.81
	l-1.31,1.51c-19.03-16.49-30.13-33.75-32.84-38.23C120.74,131.94,92.49,159.73,85.18,171.28z"/>
<path class="st0" d="M98.83,213.82C91.57,201.5,83.7,172.24,83.37,171l1.93-0.52c0.08,0.3,8.13,30.24,15.25,42.33L98.83,213.82z"/>
<path class="st0" d="M94.01,264.92c-2.99-31.7,5.17-48.52,5.51-49.22l1.79,0.89c-0.08,0.17-8.24,17.08-5.31,48.15L94.01,264.92z"/>
<path class="st0" d="M101.48,219.19l-0.25-2.97c-0.03-0.41-3.11-41.62,22.84-89.82l1.76,0.95c-21.61,40.14-22.88,75.31-22.72,85.65
	c17.82-25.87,53.01-47.1,53.38-47.32l1.03,1.72c-0.37,0.22-37.54,22.66-54.44,49.28L101.48,219.19z"/>
<path class="st0" d="M287.16,106.61l-45.6-41.85l2.41-0.11c1.37-0.06,34.03-1.02,78.44,38.27l-1.33,1.5
	c-0.33-0.29-0.66-0.58-0.99-0.87l0.06,0.83L287.16,106.61z M246.68,66.75l41.2,37.81l30.96-2.09
	C283.24,71.8,255.15,67.37,246.68,66.75z"/>
<polygon class="st0" points="226.15,137.71 224.59,136.46 241.2,115.88 243.01,69.66 245.01,69.73 243.18,116.62 "/>
<path class="st0" d="M78.79,227.63c-1.14,4.95,0.84,10.94,3.52,10.69c3.15-0.29,4.76-9.12,1.58-13.58
	C81.46,222.01,79.44,224.78,78.79,227.63L78.79,227.63z"/>
<path class="st0" d="M94.16,265.34c-9.38-15.42-12.85-34.05-13.26-36.36c-0.07-0.21-0.07-0.43-0.03-0.62l1.14-5.06l0.7,4.34
	c1.34-0.56,5.38-2.88,17.09-12.29l0.92-0.74l0.58,1.03c11.18,19.95,24.26,41.53,28.18,45.25c-0.09-0.62-0.3-1.65-0.8-3.32
	c-3.72-12.44,26.14-84.68,27.41-87.75l1.85,0.77c-10.69,25.77-30.15,77-27.34,86.41c1.25,4.19,1.26,5.78,0.03,6.3
	c-1.17,0.49-2.76,1.17-17.32-23.03c-5.8-9.63-11.39-19.48-13.16-22.62c-10.78,8.61-15.14,11.29-17.08,11.97
	c0.87,4.52,4.45,20.92,12.81,34.68L94.16,265.34z"/>
<ellipse transform="matrix(0.6711 -0.7414 0.7414 0.6711 -188.988 208.0532)" class="st0" cx="139.97" cy="317.01" rx="4.69" ry="7.33"/>
<ellipse transform="matrix(0.6012 -0.7991 0.7991 0.6012 -169.6778 262.0695)" class="st0" cx="177.71" cy="301.02" rx="9.3" ry="10.79"/>
<ellipse transform="matrix(0.321 -0.9471 0.9471 0.321 -189.7026 417.1997)" class="st0" cx="196.12" cy="340.91" rx="6.33" ry="10.13"/>
<path class="st0" d="M197.23,339.36c-7.43-14.59-18.39-35.01-20.7-39.32c-32.34,14.42-35.79,17.61-35.81,17.64l-1.48-1.35
	c0.3-0.32,3.86-3.6,37.33-18.49l0.85-0.38l0.44,0.82c0.13,0.24,12.84,23.84,21.16,40.17L197.23,339.36z"/>
<path class="st0" d="M195.78,341.9c-40.92-5.7-55.85-22.73-56.46-23.46l1.52-1.3c0.15,0.17,15.13,17.19,55.22,22.77L195.78,341.9z"
	/>
<ellipse transform="matrix(0.0659 -0.9978 0.9978 0.0659 -119.0257 301.0939)" class="st0" cx="101.31" cy="214.12" rx="10.85" ry="5.98"/>
<path class="st0" d="M216.1,343.6c-4.88,0-9.79-0.25-14.61-0.74l0.2-1.99c4.75,0.48,9.6,0.73,14.41,0.73
	c13.48,0,26.82-1.9,39.63-5.65l0.56,1.92C243.3,341.67,229.78,343.6,216.1,343.6z"/>
<ellipse transform="matrix(0.7789 -0.6271 0.6271 0.7789 6.3632 224.8318)" class="st0" cx="322.08" cy="103.39" rx="4.69" ry="7.33"/>
<ellipse transform="matrix(0.9924 -0.1232 0.1232 0.9924 -39.2991 34.1115)" class="st0" cx="256.06" cy="334.7" rx="8.92" ry="6.63"/>
<path class="st0" d="M255.73,335.64c-59.86-21.38-78.6-35.5-79.37-36.09l1.22-1.59c0.19,0.14,19.35,14.56,78.82,35.8L255.73,335.64z
	"/>
<rect x="230.11" y="182.34" transform="matrix(0.9987 -0.0503 0.0503 0.9987 -8.8935 13.3116)" class="st0" width="59.81" height="2"/>
<ellipse transform="matrix(0.9272 -0.3745 0.3745 0.9272 -86.5769 143.9802)" class="st0" cx="327.21" cy="294.77" rx="10" ry="7.57"/>
<path class="st0" d="M269.73,273.89c7.91,5.02,18.81-1.91,16.91-10.74c-1.59-7.37-11.08-10.87-18.25-4.21
	C262.87,265.16,265.85,271.43,269.73,273.89"/>
<path class="st0" d="M331.02,256.13c7.63,3.84,16.18-4.05,13.46-12.41c-2.29-7.03-11.07-9.32-16.56-1.94
	C323.82,248.54,327.27,254.24,331.02,256.13"/>
<path class="st0" d="M328.78,295.88l-57.78-30.66l71.64-23.43L328.78,295.88z M276.1,265.65l51.38,27.26l12.33-48.1L276.1,265.65z"
	/>
<g>
	<path class="st5" d="M358.38,82.07c5,2.57,9.51,5.85,12.94,9.85c0.15,0.19,0.29,0.38,0.44,0.57c2.81-0.84,5.76-1.3,8.76-1.34
		c-1.18-1.56-2.46-3.02-3.85-4.35c-4.81-4.41-10.43-7.53-16.24-9.55c-5.82-2.01-11.77-3.17-17.71-3.79
		c-5.95-0.54-11.89-0.65-17.78-0.28c5.86,0.73,11.66,1.63,17.3,3.09C347.87,77.68,353.36,79.53,358.38,82.07z"/>
	<path class="st5" d="M362.14,148.31c-3.7,5.03-7.78,9.85-12.06,14.49c-15.47,16.59-33.5,31-52.46,43.94
		c-9.51,6.44-19.24,12.59-29.25,18.29c-9.97,5.75-20.16,11.15-30.54,16.16c-10.35,5.07-20.87,9.77-31.56,14.05
		c-10.66,4.35-21.49,8.22-32.44,11.68c-21.87,6.87-44.36,12.07-66.91,13.67c-11.24,0.73-22.55,0.54-33.21-1.68
		c-5.32-1.09-10.45-2.77-15.03-5.2c-4.6-2.4-8.56-5.69-11.4-9.81c-2.79-4.15-4.56-9.09-4.86-14.43c-0.4-5.33,0.4-10.9,1.85-16.37
		c1.47-5.48,3.67-10.85,6.26-16.06c2.53-5.25,5.54-10.3,8.67-15.3c-4.01,4.33-7.72,8.96-11.15,13.84
		c-3.37,4.92-6.39,10.15-8.76,15.79C36.93,237,35.3,243.11,35,249.56c-0.38,6.43,1.14,13.2,4.31,19.17
		c3.25,5.96,8.23,10.85,13.73,14.43c5.52,3.62,11.54,6.05,17.6,7.85c6.07,1.82,12.24,2.89,18.4,3.6c6.15,0.67,12.31,0.98,18.43,0.91
		c6.12-0.03,12.21-0.39,18.26-0.94c6.05-0.56,12.06-1.4,18.02-2.39c11.94-1.95,23.69-4.74,35.28-8.01
		c11.58-3.29,22.95-7.2,34.17-11.5c11.18-4.37,22.17-9.2,32.97-14.42c10.76-5.29,21.35-10.94,31.67-17.06
		c10.29-6.17,20.4-12.68,30.13-19.75c9.73-7.08,19.19-14.55,28.13-22.69c4.47-4.06,8.86-8.23,13.07-12.59
		c4.21-4.36,8.27-8.9,12.15-13.6c3.89-4.7,7.53-9.64,10.91-14.79c0.85-1.29,1.68-2.6,2.49-3.93
		C370.16,152.96,365.88,151.07,362.14,148.31z"/>
</g>
<linearGradient id="SVGID_1_" gradientUnits="userSpaceOnUse" x1="355.2449" y1="122.8007" x2="406.5732" y2="122.8007">
	<stop  offset="0" style="stop-color:#F39223"/>
	<stop  offset="1" style="stop-color:#FECA35"/>
</linearGradient>
<path class="st6" d="M362.57,140.75c4.79,4.9,11.21,7.64,18.06,7.71c6.85,0.07,13.33-2.53,18.23-7.32
	c4.9-4.79,7.64-11.21,7.71-18.06c0.07-6.85-2.53-13.33-7.32-18.23c-4.79-4.9-11.21-7.64-18.06-7.71c-0.09,0-0.19,0-0.28,0
	c-6.75,0-13.11,2.59-17.94,7.32c-4.9,4.79-7.64,11.21-7.71,18.07C355.17,129.38,357.77,135.85,362.57,140.75z"/>
<g>
	<path class="st7" d="M802.96,332.06c-2.88,3.1-6.2,4.65-9.94,4.65c-2.18,0-4.19-0.48-6.05-1.43s-3.46-2.2-4.81-3.75
		c-1.35-1.55-2.42-3.32-3.2-5.31c-0.78-1.99-1.17-4.05-1.17-6.16c0-2.21,0.38-4.3,1.15-6.28c0.77-1.98,1.82-3.73,3.17-5.24
		c1.35-1.52,2.96-2.72,4.83-3.61c1.87-0.89,3.89-1.33,6.07-1.33c3.16,0,5.76,0.66,7.8,1.98c2.04,1.32,3.6,3.04,4.67,5.15l-3.17,2.21
		c-0.98-1.9-2.29-3.31-3.91-4.23c-1.63-0.92-3.45-1.38-5.47-1.38c-1.66,0-3.16,0.36-4.51,1.08c-1.35,0.72-2.5,1.67-3.45,2.85
		c-0.95,1.18-1.69,2.55-2.21,4.09c-0.52,1.55-0.78,3.15-0.78,4.81c0,1.75,0.29,3.4,0.87,4.95c0.58,1.55,1.38,2.91,2.39,4.09
		c1.01,1.18,2.21,2.11,3.59,2.78c1.38,0.67,2.88,1.01,4.51,1.01c3.56,0,6.76-1.72,9.61-5.15v-4.51h-7.04v-3.13h10.53v16.28h-3.5
		V332.06z"/>
	<path class="st7" d="M838.7,332.79v3.68h-22.17v-32.66h21.76v3.68h-17.62v10.58h15.32v3.45h-15.32v11.27H838.7z"/>
	<path class="st7" d="M860.74,336.7c-2.3,0-4.39-0.47-6.28-1.4c-1.89-0.93-3.5-2.18-4.85-3.73c-1.35-1.55-2.39-3.32-3.13-5.31
		c-0.74-1.99-1.1-4.03-1.1-6.12c0-2.18,0.39-4.26,1.17-6.26c0.78-1.99,1.86-3.76,3.24-5.29c1.38-1.53,3.01-2.75,4.9-3.66
		c1.89-0.9,3.93-1.36,6.14-1.36c2.3,0,4.39,0.48,6.26,1.45c1.87,0.97,3.48,2.23,4.83,3.79c1.35,1.56,2.39,3.33,3.13,5.31
		c0.74,1.98,1.1,4,1.1,6.05c0,2.18-0.39,4.26-1.17,6.26c-0.78,1.99-1.86,3.75-3.22,5.27s-2.99,2.73-4.88,3.63
		C864.99,336.25,862.95,336.7,860.74,336.7z M849.56,320.14c0,1.66,0.27,3.26,0.8,4.81c0.54,1.55,1.29,2.92,2.28,4.12
		c0.98,1.2,2.16,2.15,3.54,2.85c1.38,0.71,2.91,1.06,4.6,1.06c1.75,0,3.31-0.38,4.69-1.13c1.38-0.75,2.55-1.73,3.52-2.94
		s1.7-2.58,2.21-4.12s0.76-3.08,0.76-4.65c0-1.66-0.27-3.26-0.8-4.81c-0.54-1.55-1.3-2.91-2.3-4.09c-1-1.18-2.18-2.12-3.54-2.83
		c-1.37-0.71-2.88-1.06-4.53-1.06c-1.75,0-3.31,0.37-4.69,1.1c-1.38,0.74-2.55,1.7-3.52,2.9c-0.97,1.2-1.71,2.56-2.23,4.09
		C849.82,316.99,849.56,318.55,849.56,320.14z"/>
	<path class="st7" d="M908.72,332.06c-2.88,3.1-6.2,4.65-9.94,4.65c-2.18,0-4.19-0.48-6.05-1.43s-3.46-2.2-4.81-3.75
		c-1.35-1.55-2.42-3.32-3.2-5.31c-0.78-1.99-1.17-4.05-1.17-6.16c0-2.21,0.38-4.3,1.15-6.28c0.77-1.98,1.82-3.73,3.17-5.24
		c1.35-1.52,2.96-2.72,4.83-3.61c1.87-0.89,3.89-1.33,6.07-1.33c3.16,0,5.76,0.66,7.8,1.98c2.04,1.32,3.6,3.04,4.67,5.15l-3.17,2.21
		c-0.98-1.9-2.29-3.31-3.91-4.23c-1.63-0.92-3.45-1.38-5.47-1.38c-1.66,0-3.16,0.36-4.51,1.08c-1.35,0.72-2.5,1.67-3.45,2.85
		c-0.95,1.18-1.69,2.55-2.21,4.09c-0.52,1.55-0.78,3.15-0.78,4.81c0,1.75,0.29,3.4,0.87,4.95c0.58,1.55,1.38,2.91,2.39,4.09
		c1.01,1.18,2.21,2.11,3.59,2.78c1.38,0.67,2.88,1.01,4.51,1.01c3.56,0,6.76-1.72,9.61-5.15v-4.51h-7.04v-3.13h10.53v16.28h-3.5
		V332.06z"/>
	<path class="st7" d="M922.28,336.47v-32.66h13.98c1.44,0,2.77,0.3,3.98,0.9c1.21,0.6,2.25,1.4,3.13,2.39
		c0.87,1,1.56,2.12,2.05,3.36c0.49,1.24,0.74,2.51,0.74,3.79c0,1.13-0.16,2.23-0.48,3.29s-0.78,2.02-1.38,2.88s-1.32,1.59-2.16,2.21
		c-0.84,0.61-1.79,1.06-2.83,1.33l7.91,12.51h-4.69l-7.45-11.73h-8.65v11.73H922.28z M926.42,321.06h9.89
		c0.86,0,1.63-0.18,2.32-0.55c0.69-0.37,1.28-0.87,1.77-1.5c0.49-0.63,0.87-1.36,1.15-2.18c0.28-0.83,0.41-1.69,0.41-2.58
		c0-0.92-0.16-1.79-0.48-2.6c-0.32-0.81-0.75-1.53-1.29-2.16c-0.54-0.63-1.17-1.12-1.89-1.47c-0.72-0.35-1.48-0.53-2.28-0.53h-9.61
		V321.06z"/>
	<path class="st7" d="M966.21,303.81h3.5l13.34,32.66h-4.42l-3.86-9.57h-13.71l-3.82,9.57h-4.42L966.21,303.81z M973.85,323.69
		l-5.89-15.09l-6.07,15.09H973.85z"/>
	<path class="st7" d="M991.19,336.47v-32.66h13.62c1.44,0,2.77,0.3,3.98,0.9c1.21,0.6,2.25,1.4,3.13,2.39
		c0.87,1,1.56,2.12,2.05,3.36c0.49,1.24,0.74,2.51,0.74,3.79c0,1.35-0.23,2.65-0.69,3.91c-0.46,1.26-1.11,2.38-1.96,3.36
		c-0.84,0.98-1.86,1.76-3.04,2.35c-1.18,0.58-2.49,0.87-3.93,0.87h-9.75v11.73H991.19z M995.33,321.06h9.52
		c0.86,0,1.63-0.18,2.32-0.53c0.69-0.35,1.28-0.84,1.77-1.47c0.49-0.63,0.87-1.36,1.15-2.18c0.28-0.83,0.41-1.7,0.41-2.62
		c0-0.95-0.16-1.84-0.48-2.67c-0.32-0.83-0.75-1.55-1.29-2.16c-0.54-0.61-1.17-1.09-1.89-1.43c-0.72-0.34-1.48-0.51-2.28-0.51h-9.25
		V321.06z"/>
	<path class="st7" d="M1049.89,303.81v32.66h-4.14v-14.86h-17.99v14.86h-4.14v-32.66h4.14v14.12h17.99v-14.12H1049.89z"/>
	<path class="st7" d="M1061.48,336.47v-32.66h4.14v32.66H1061.48z"/>
	<path class="st7" d="M1075.09,319.91c0-1.96,0.35-3.92,1.04-5.87c0.69-1.95,1.7-3.7,3.04-5.24c1.33-1.55,2.97-2.8,4.9-3.75
		c1.93-0.95,4.12-1.43,6.58-1.43c2.91,0,5.41,0.66,7.5,1.98c2.09,1.32,3.63,3.04,4.65,5.15l-3.27,2.12
		c-0.49-1.04-1.08-1.92-1.77-2.62c-0.69-0.71-1.44-1.27-2.25-1.7c-0.81-0.43-1.65-0.74-2.51-0.92c-0.86-0.18-1.7-0.28-2.53-0.28
		c-1.81,0-3.41,0.38-4.81,1.13c-1.4,0.75-2.57,1.73-3.52,2.94c-0.95,1.21-1.66,2.58-2.14,4.09c-0.48,1.52-0.71,3.04-0.71,4.58
		c0,1.72,0.28,3.35,0.85,4.9s1.36,2.92,2.37,4.12c1.01,1.2,2.21,2.15,3.59,2.85c1.38,0.71,2.88,1.06,4.51,1.06
		c0.86,0,1.74-0.11,2.65-0.32c0.9-0.21,1.77-0.56,2.6-1.04s1.6-1.07,2.32-1.79c0.72-0.72,1.31-1.59,1.77-2.6l3.45,1.89
		c-0.52,1.23-1.25,2.31-2.18,3.24c-0.94,0.94-1.99,1.72-3.17,2.37c-1.18,0.64-2.43,1.14-3.75,1.47c-1.32,0.34-2.61,0.51-3.86,0.51
		c-2.24,0-4.29-0.49-6.16-1.47c-1.87-0.98-3.49-2.26-4.85-3.84c-1.37-1.58-2.42-3.37-3.17-5.38
		C1075.47,324.05,1075.09,322,1075.09,319.91z"/>
	<path class="st7" d="M1121.83,303.81h3.5l13.34,32.66h-4.42l-3.86-9.57h-13.71l-3.82,9.57h-4.42L1121.83,303.81z M1129.47,323.69
		l-5.89-15.09l-6.07,15.09H1129.47z"/>
	<path class="st7" d="M1146.81,336.47v-32.66h4.14v28.98h18.22v3.68H1146.81z"/>
	<path class="st7" d="M1191.47,336.47v-32.66h4.14v32.66H1191.47z"/>
	<path class="st7" d="M1211.35,311.54v24.93h-4.14v-32.66h3.22l20.24,25.44v-25.39h4.14v32.61h-3.5L1211.35,311.54z"/>
	<path class="st7" d="M1250.54,311.54v24.93h-4.14v-32.66h3.22l20.24,25.44v-25.39h4.14v32.61h-3.5L1250.54,311.54z"/>
	<path class="st7" d="M1298.84,336.7c-2.3,0-4.39-0.47-6.28-1.4c-1.89-0.93-3.5-2.18-4.85-3.73c-1.35-1.55-2.39-3.32-3.13-5.31
		c-0.74-1.99-1.1-4.03-1.1-6.12c0-2.18,0.39-4.26,1.17-6.26c0.78-1.99,1.86-3.76,3.24-5.29c1.38-1.53,3.01-2.75,4.9-3.66
		c1.89-0.9,3.93-1.36,6.14-1.36c2.3,0,4.39,0.48,6.26,1.45c1.87,0.97,3.48,2.23,4.83,3.79c1.35,1.56,2.39,3.33,3.13,5.31
		c0.74,1.98,1.1,4,1.1,6.05c0,2.18-0.39,4.26-1.17,6.26c-0.78,1.99-1.86,3.75-3.22,5.27s-2.99,2.73-4.88,3.63
		C1303.09,336.25,1301.04,336.7,1298.84,336.7z M1287.66,320.14c0,1.66,0.27,3.26,0.8,4.81c0.54,1.55,1.29,2.92,2.28,4.12
		c0.98,1.2,2.16,2.15,3.54,2.85c1.38,0.71,2.91,1.06,4.6,1.06c1.75,0,3.31-0.38,4.69-1.13c1.38-0.75,2.55-1.73,3.52-2.94
		s1.7-2.58,2.21-4.12s0.76-3.08,0.76-4.65c0-1.66-0.27-3.26-0.8-4.81c-0.54-1.55-1.3-2.91-2.3-4.09c-1-1.18-2.18-2.12-3.54-2.83
		c-1.37-0.71-2.88-1.06-4.53-1.06c-1.75,0-3.31,0.37-4.69,1.1c-1.38,0.74-2.55,1.7-3.52,2.9c-0.97,1.2-1.71,2.56-2.23,4.09
		C1287.92,316.99,1287.66,318.55,1287.66,320.14z"/>
	<path class="st7" d="M1323.45,303.81l10.81,27.46l10.76-27.46h4.37l-13.34,32.66h-3.59l-13.39-32.66H1323.45z"/>
	<path class="st7" d="M1364.85,303.81h3.5l13.34,32.66h-4.42l-3.86-9.57h-13.71l-3.82,9.57h-4.42L1364.85,303.81z M1372.48,323.69
		l-5.89-15.09l-6.07,15.09H1372.48z"/>
	<path class="st7" d="M1410.29,307.49h-11.27v28.98h-4.14v-28.98h-11.27v-3.68h26.68V307.49z"/>
	<path class="st7" d="M1431.04,336.7c-2.3,0-4.39-0.47-6.28-1.4c-1.89-0.93-3.5-2.18-4.85-3.73c-1.35-1.55-2.39-3.32-3.13-5.31
		c-0.74-1.99-1.1-4.03-1.1-6.12c0-2.18,0.39-4.26,1.17-6.26c0.78-1.99,1.86-3.76,3.24-5.29c1.38-1.53,3.01-2.75,4.9-3.66
		c1.89-0.9,3.93-1.36,6.14-1.36c2.3,0,4.39,0.48,6.26,1.45c1.87,0.97,3.48,2.23,4.83,3.79c1.35,1.56,2.39,3.33,3.13,5.31
		c0.74,1.98,1.1,4,1.1,6.05c0,2.18-0.39,4.26-1.17,6.26c-0.78,1.99-1.86,3.75-3.22,5.27s-2.99,2.73-4.88,3.63
		C1435.3,336.25,1433.25,336.7,1431.04,336.7z M1419.86,320.14c0,1.66,0.27,3.26,0.8,4.81c0.54,1.55,1.29,2.92,2.28,4.12
		c0.98,1.2,2.16,2.15,3.54,2.85c1.38,0.71,2.91,1.06,4.6,1.06c1.75,0,3.31-0.38,4.69-1.13c1.38-0.75,2.55-1.73,3.52-2.94
		s1.7-2.58,2.21-4.12s0.76-3.08,0.76-4.65c0-1.66-0.27-3.26-0.8-4.81c-0.54-1.55-1.3-2.91-2.3-4.09c-1-1.18-2.18-2.12-3.54-2.83
		c-1.37-0.71-2.88-1.06-4.53-1.06c-1.75,0-3.31,0.37-4.69,1.1c-1.38,0.74-2.55,1.7-3.52,2.9c-0.97,1.2-1.71,2.56-2.23,4.09
		C1420.12,316.99,1419.86,318.55,1419.86,320.14z"/>
	<path class="st7" d="M1455.97,336.47v-32.66h13.98c1.44,0,2.77,0.3,3.98,0.9c1.21,0.6,2.25,1.4,3.13,2.39
		c0.87,1,1.56,2.12,2.05,3.36c0.49,1.24,0.74,2.51,0.74,3.79c0,1.13-0.16,2.23-0.48,3.29s-0.78,2.02-1.38,2.88s-1.32,1.59-2.16,2.21
		c-0.84,0.61-1.79,1.06-2.83,1.33l7.91,12.51h-4.69l-7.45-11.73h-8.65v11.73H1455.97z M1460.11,321.06h9.89
		c0.86,0,1.63-0.18,2.32-0.55c0.69-0.37,1.28-0.87,1.77-1.5c0.49-0.63,0.87-1.36,1.15-2.18c0.28-0.83,0.41-1.69,0.41-2.58
		c0-0.92-0.16-1.79-0.48-2.6c-0.32-0.81-0.75-1.53-1.29-2.16c-0.54-0.63-1.17-1.12-1.89-1.47c-0.72-0.35-1.48-0.53-2.28-0.53h-9.61
		V321.06z"/>
	<path class="st7" d="M1509.15,310.67c-0.37-0.43-0.86-0.84-1.47-1.24c-0.61-0.4-1.3-0.76-2.07-1.08s-1.6-0.58-2.51-0.78
		c-0.9-0.2-1.85-0.3-2.83-0.3c-2.55,0-4.41,0.48-5.59,1.43c-1.18,0.95-1.77,2.25-1.77,3.91c0,0.89,0.17,1.63,0.51,2.21
		c0.34,0.58,0.87,1.08,1.59,1.5c0.72,0.41,1.62,0.78,2.69,1.08c1.07,0.31,2.35,0.63,3.82,0.97c1.69,0.37,3.21,0.79,4.58,1.27
		c1.36,0.48,2.53,1.07,3.5,1.77c0.97,0.71,1.7,1.56,2.21,2.58s0.76,2.25,0.76,3.73c0,1.56-0.31,2.92-0.92,4.07s-1.45,2.1-2.51,2.85
		c-1.06,0.75-2.31,1.3-3.75,1.66c-1.44,0.35-3.01,0.53-4.69,0.53c-2.51,0-4.9-0.39-7.15-1.17s-4.3-1.92-6.14-3.43l1.98-3.5
		c0.49,0.52,1.13,1.04,1.91,1.56c0.78,0.52,1.67,0.99,2.67,1.4c1,0.41,2.07,0.75,3.22,1.01c1.15,0.26,2.35,0.39,3.61,0.39
		c2.33,0,4.14-0.41,5.43-1.24s1.93-2.07,1.93-3.73c0-0.92-0.21-1.69-0.62-2.32s-1.02-1.17-1.82-1.63c-0.8-0.46-1.79-0.87-2.97-1.22
		s-2.52-0.71-4.02-1.08c-1.66-0.4-3.11-0.83-4.37-1.29c-1.26-0.46-2.31-1.01-3.15-1.66c-0.84-0.64-1.48-1.43-1.91-2.35
		c-0.43-0.92-0.64-2.02-0.64-3.31c0-1.56,0.29-2.94,0.87-4.14c0.58-1.2,1.4-2.21,2.44-3.04c1.04-0.83,2.28-1.45,3.73-1.86
		s3-0.62,4.69-0.62c2.21,0,4.2,0.34,5.98,1.01c1.78,0.67,3.36,1.58,4.74,2.71L1509.15,310.67z"/>
</g>
</svg>
