<?xml version="1.0" encoding="UTF-8" standalone="no"?>
<!-- Created with Inkscape (http://www.inkscape.org/) -->

<svg
   width="72.901436mm"
   height="38.907997mm"
   viewBox="0 0 72.901436 38.907997"
   version="1.1"
   id="svg44"
   inkscape:version="0.92.5 (2060ec1f9f, 2020-04-08)"
   sodipodi:docname="gis3w.svg"
   xmlns:inkscape="http://www.inkscape.org/namespaces/inkscape"
   xmlns:sodipodi="http://sodipodi.sourceforge.net/DTD/sodipodi-0.dtd"
   xmlns="http://www.w3.org/2000/svg"
   xmlns:svg="http://www.w3.org/2000/svg"
   xmlns:rdf="http://www.w3.org/1999/02/22-rdf-syntax-ns#"
   xmlns:cc="http://creativecommons.org/ns#"
   xmlns:dc="http://purl.org/dc/elements/1.1/">
  <defs
     id="defs38" />
  <sodipodi:namedview
     id="base"
     pagecolor="#ffffff"
     bordercolor="#666666"
     borderopacity="1.0"
     inkscape:pageopacity="0.0"
     inkscape:pageshadow="2"
     inkscape:zoom="0.35"
     inkscape:cx="-290"
     inkscape:cy="560"
     inkscape:document-units="mm"
     inkscape:current-layer="layer1"
     showgrid="false"
     inkscape:window-width="1848"
     inkscape:window-height="1016"
     inkscape:window-x="72"
     inkscape:window-y="27"
     inkscape:window-maximized="1"
     inkscape:showpageshadow="2"
     inkscape:pagecheckerboard="0"
     inkscape:deskcolor="#d1d1d1" />
  <metadata
     id="metadata41">
    <rdf:RDF>
      <cc:Work
         rdf:about="">
        <dc:format>image/svg+xml</dc:format>
        <dc:type
           rdf:resource="http://purl.org/dc/dcmitype/StillImage" />
        <dc:title />
      </cc:Work>
    </rdf:RDF>
  </metadata>
  <g
     inkscape:label="Livello 1"
     inkscape:groupmode="layer"
     id="layer1"
     transform="translate(-14.954044,-227.65314)">
    <line
       style="fill:none;stroke:#000000;stroke-width:1.61721;stroke-linecap:round;stroke-linejoin:round"
       x1="33.972836"
       y1="232.76517"
       x2="33.972836"
       y2="249.96201"
       id="line282"
       inkscape:export-filename="line282.svg"
       inkscape:export-xdpi="150"
       inkscape:export-ydpi="150" />
    <circle
       style="fill:none;stroke:#000000;stroke-width:1.5875;stroke-linecap:round;stroke-linejoin:round"
       cx="23.829769"
       cy="238.93973"
       r="6.1391268"
       id="circle284" />
    <g
       id="g286"
       transform="matrix(0.26458333,0,0,0.26458333,14.954042,227.65314)">
      <path
         inkscape:connector-curvature="0"
         d="M 53.758,83.783 V 40.812 c 0,-1.696 1.343,-3.071 3,-3.071 v 0 c 1.657,0 2.955,5.646 2.955,5.646 l 0.046,40.396 c 0,1.693 -1.343,3.07 -3,3.07 v 0 c -1.658,0.001 -3.001,-1.376 -3.001,-3.07 z"
         id="path288" />
    </g>
    <path
       inkscape:connector-curvature="0"
       style="fill:none;stroke:#000000;stroke-width:1.5875;stroke-linecap:round;stroke-linejoin:round"
       d="m 29.976823,249.96122 c -1.51051,-1.46447 -3.5687,-2.36723 -5.83883,-2.36723 -4.63497,0 -8.3902,3.75709 -8.3902,8.39232 0,4.63471 3.75523,8.39179 8.3902,8.39179 2.27013,0 4.32832,-0.90276 5.83883,-2.36723"
       id="path290" />
    <path
       inkscape:connector-curvature="0"
       style="fill:none;stroke:#95ad36;stroke-width:2.64583"
       d="m 38.395063,252.78988 c 0.2929,3.40439 1.85738,6.70295 4.641061,9.11913 5.684033,4.93474 14.291731,4.32673 19.226201,-1.35784 4.9337,-5.68378 4.32542,-14.29227 -1.35863,-19.22595 -2.78448,-2.41723 -6.2693,-3.50123 -9.68164,-3.31285"
       id="path292" />
    <g
       id="g294"
       transform="matrix(0.26458333,0,0,0.26458333,14.954042,227.65314)">
      <polygon
         style="fill:#95ad36"
         points="133.172,50.325 126.611,42.777 163.836,10.409 113.076,10.409 113.076,0.408 190.58,0.408 "
         id="polygon296" />
    </g>
    <g
       id="g298"
       transform="matrix(0.26458333,0,0,0.26458333,14.954042,227.65314)">
      <path
         style="stroke:#000000;stroke-width:2"
         inkscape:connector-curvature="0"
         d="m 119.278,27.49 c 0.129,0.268 0.25,0.36 0.38,0.545 0,0 1.888,2.584 3.931,1.021 2.124,-1.625 -0.782,-4.562 -0.782,-4.562 z m 7.518,34.491 c -0.133,-0.338 -0.275,-0.685 -0.438,-1.051 -4.2,-9.493 -14.647,-11.38 -22.321,-12.536 -7.642,-1.152 -11.161,-6.815 -11.161,-6.815 0,0 -0.024,-0.007 -0.064,-0.019 -1.052,-1.967 -1.629,-4.214 -1.629,-6.586 0,-7.6 6.951,-13.836 15.285,-13.836 5.102,0 9.728,2.395 12.515,6.02 l 3.694,-2.853 c -3.58,-4.453 -9.411,-7.239 -16.209,-7.239 -11.316,0 -20.055,7.688 -20.055,17.996 0,3.297 1.08,6.542 2.998,9.314 0.058,0.084 0.122,0.172 0.186,0.258 1.806,2.514 4.305,4.622 7.341,5.984 -0.008,0.004 1.056,0.42 1.698,0.621 5.196,1.84 15.607,3.078 19.846,6.111 0.982,0.88 1.855,1.855 2.576,2.925 0.601,0.962 1.125,2.016 1.576,3.077 0.52,1.428 0.81,2.948 0.81,4.535 0,8.414 -7.841,15.104 -16.976,15.104 -9.23,0 -16.975,-6.689 -16.975,-15.104 0,-0.114 0.01,-0.227 0.014,-0.342 h -0.035 c 0.004,-0.143 0.005,-0.287 0.02,-0.432 0,0 0.298,-3.127 -2.213,-3.359 -2.51,-0.232 -2.487,3.113 -2.487,3.113 -0.019,0.229 -0.01,0.449 -0.019,0.676 l 0.058,0.002 h -0.069 c -0.01,0.266 -0.029,0.525 -0.029,0.796 0,10.854 10.023,18.722 21.736,18.722 11.713,0 21.746,-7.867 21.746,-18.722 -0.001,-2.239 -0.539,-4.381 -1.419,-6.36 z"
         id="path300" />
    </g>
    <path
       inkscape:connector-curvature="0"
       d="m 84.873885,227.65314 -5.0374,11.32443 -3.78143,-9.10537 c 0,0 -0.23495,-0.93027 -1.0369,-0.93027 -0.80195,0 -1.10834,1.09828 -1.10834,1.09828 l -3.67665,8.9371 -3.65442,-8.92228 -2.11984,1.81663 5.8068,13.16884 4.75219,-11.47048 4.75272,11.47048 8.08487,-17.38736 z"
       id="path302"
       style="fill:#95ad36;stroke-width:0.264583" />
  </g>
</svg>
