<?xml version="1.0" encoding="utf-8"?>
<!-- Generator: Adobe Illustrator 26.0.1, SVG Export Plug-In . SVG Version: 6.00 Build 0)  -->
<svg version="1.1" id="Layer_1" xmlns="http://www.w3.org/2000/svg" xmlns:xlink="http://www.w3.org/1999/xlink" x="0px" y="0px"
	 viewBox="0 0 1789 704" style="enable-background:new 0 0 1789 704;" xml:space="preserve">
<style type="text/css">
	.st0{fill:#153131;}
	.st1{fill:#CA4286;}
	.st2{fill:#ECE8E3;}
</style>
<g>
	<path class="st0" d="M336.99,80.83L65.82,352l271.17,271.17L608.16,352L336.99,80.83z M104.08,352l232.91-232.91L570.04,352
		L336.99,584.91L104.08,352z"/>
	<polygon class="st1" points="569.98,352 336.93,584.91 104.01,352 336.93,119.09 	"/>
	<g>
		<g>
			
				<rect x="234.1" y="338.48" transform="matrix(0.7071 -0.7071 0.7071 0.7071 -150.1991 341.3854)" class="st0" width="205.77" height="27.03"/>
		</g>
	</g>
	<g>
		<g>
			<path class="st0" d="M743.82,462.23c7.11,8.34,15.27,14.35,24.47,18.03c9.2,3.68,20.06,5.52,32.57,5.52
				c15.46,0,28.52-4.25,39.2-12.74c10.67-8.51,16.01-21.67,16.01-39.52v-23.19c-7.12,9.33-15.77,16.75-25.95,22.27
				c-10.18,5.52-21.04,8.28-32.57,8.28c-15.46,0-29.14-3.65-41.04-10.95c-11.9-7.3-21.23-17.83-27.97-31.58
				c-6.75-13.75-10.12-30-10.12-48.74c0-18.49,3.37-34.62,10.12-48.38c6.75-13.75,16.07-24.27,27.97-31.58
				c11.9-7.3,25.58-10.96,41.04-10.96c11.53,0,22.39,2.64,32.57,7.91c10.18,5.28,18.83,12.7,25.95,22.27v-25.76h33.12v170.77
				c0,28.21-8.41,48.46-25.21,60.73c-16.81,12.27-37.85,18.4-63.12,18.4c-15.46,0-28.89-1.97-40.3-5.89
				c-11.41-3.93-22.27-10.8-32.57-20.61L743.82,462.23z M856.07,312.68c-4.66-7.53-11.59-13.87-20.79-19.02
				c-9.2-5.15-18.71-7.72-28.52-7.72c-16.44,0-29.51,5.91-39.2,17.71c-9.7,11.81-14.54,27.13-14.54,45.96
				c0,19.09,4.84,34.54,14.54,46.34c9.69,11.81,22.76,17.71,39.2,17.71c9.57,0,19.01-2.63,28.34-7.91
				c9.32-5.27,16.31-11.68,20.98-19.22V312.68z"/>
			<path class="st0" d="M942.93,227.23c-4.17-4.05-6.26-9.02-6.26-14.91s2.15-10.92,6.44-15.09c4.29-4.17,9.26-6.26,14.91-6.26
				c5.89,0,10.92,2.09,15.09,6.26c4.17,4.17,6.26,9.2,6.26,15.09s-2.09,10.86-6.26,14.91c-4.17,4.05-9.2,6.07-15.09,6.07
				S947.1,231.28,942.93,227.23z M941.82,263.11h33.12v177.77h-33.12V263.11z"/>
			<path class="st0" d="M1027.94,394.51c6.38,7.12,15.09,13.13,26.13,18.03c11.04,4.91,22.2,7.36,33.49,7.36
				c12.27,0,21.71-2.44,28.34-7.31c6.62-4.88,9.94-11.54,9.94-19.98c0-8.44-3.68-14.84-11.04-19.19
				c-7.36-4.35-18.03-8.24-32.02-11.67c-13.74-3.1-24.97-6.26-33.68-9.48c-8.71-3.22-16.19-8.23-22.45-15.03
				c-6.26-6.8-9.38-15.92-9.38-27.37c0-9.3,2.7-17.83,8.1-25.58c5.39-7.75,13.19-13.95,23.37-18.6c10.18-4.65,22.27-6.98,36.25-6.98
				c27.24,0,49.81,8.12,67.72,24.35l-14.72,23.12c-5.4-6.38-12.76-11.59-22.08-15.64c-9.33-4.05-19.51-6.07-30.55-6.07
				c-11.29,0-20.19,2.13-26.68,6.4c-6.5,4.27-9.75,10.04-9.75,17.31c0,7.03,3.43,12.36,10.31,15.99
				c6.87,3.64,17.17,7.09,30.92,10.35c14.23,3.2,25.82,6.53,34.78,9.97c8.95,3.45,16.68,8.93,23.19,16.44
				c6.5,7.51,9.75,17.54,9.75,30.09c0,16-6.32,29.11-18.95,39.32c-12.64,10.22-30.24,15.33-52.82,15.33
				c-14.97,0-28.83-2.27-41.59-6.8c-12.76-4.53-23.55-11.22-32.39-20.07L1027.94,394.51z"/>
			<path class="st0" d="M1259.81,364.33l-26.87,27.24v49.32h-33.12V195.39h33.12v157.89l85.75-90.17h41.59l-76.55,80.6l77.29,97.16
				h-41.96L1259.81,364.33z"/>
			<path class="st0" d="M1413.84,433.13c-13.62-8.36-24.11-19.67-31.47-33.93c-7.36-14.26-11.04-29.99-11.04-47.2
				c0-17.21,3.68-32.88,11.04-47.02c7.36-14.14,17.85-25.38,31.47-33.74c13.62-8.36,29.38-12.54,47.29-12.54
				c17.91,0,33.68,4.18,47.29,12.54c13.62,8.36,24.11,19.6,31.47,33.74s11.04,29.81,11.04,47.02c0,17.21-3.68,32.95-11.04,47.2
				c-7.36,14.26-17.85,25.57-31.47,33.93c-13.62,8.36-29.39,12.54-47.29,12.54C1443.22,445.66,1427.45,441.48,1413.84,433.13z
				 M1490.94,409.27c8.34-6.11,14.66-14.19,18.95-24.25c4.29-10.05,6.44-21.06,6.44-33.03c0-11.71-2.15-22.65-6.44-32.84
				c-4.3-10.18-10.62-18.26-18.95-24.25c-8.34-5.98-18.28-8.98-29.81-8.98c-11.29,0-21.11,3.06-29.44,9.17
				c-8.34,6.11-14.72,14.19-19.14,24.25c-4.42,10.06-6.62,20.94-6.62,32.65c0,11.96,2.21,22.97,6.62,33.03
				c4.42,10.06,10.79,18.14,19.14,24.25c8.34,6.11,18.16,9.16,29.44,9.16C1472.66,418.43,1482.6,415.37,1490.94,409.27z"/>
			<path class="st0" d="M1593.25,394.51c6.38,7.12,15.09,13.13,26.13,18.03c11.04,4.91,22.2,7.36,33.49,7.36
				c12.27,0,21.71-2.44,28.34-7.31c6.62-4.88,9.94-11.54,9.94-19.98c0-8.44-3.68-14.84-11.04-19.19
				c-7.36-4.35-18.03-8.24-32.02-11.67c-13.74-3.1-24.97-6.26-33.68-9.48c-8.71-3.22-16.19-8.23-22.45-15.03s-9.38-15.92-9.38-27.37
				c0-9.3,2.7-17.83,8.1-25.58c5.39-7.75,13.19-13.95,23.37-18.6c10.18-4.65,22.27-6.98,36.25-6.98c27.24,0,49.81,8.12,67.72,24.35
				l-14.72,23.12c-5.4-6.38-12.76-11.59-22.08-15.64c-9.33-4.05-19.51-6.07-30.55-6.07c-11.29,0-20.19,2.13-26.68,6.4
				c-6.5,4.27-9.75,10.04-9.75,17.31c0,7.03,3.43,12.36,10.31,15.99c6.87,3.64,17.17,7.09,30.92,10.35
				c14.23,3.2,25.82,6.53,34.78,9.97c8.95,3.45,16.68,8.93,23.19,16.44c6.5,7.51,9.75,17.54,9.75,30.09c0,16-6.32,29.11-18.95,39.32
				c-12.64,10.22-30.24,15.33-52.82,15.33c-14.97,0-28.83-2.27-41.59-6.8c-12.76-4.53-23.55-11.22-32.39-20.07L1593.25,394.51z"/>
		</g>
	</g>
	<polyline class="st1" points="1199.81,388.19 1318.69,263.12 1360.28,263.12 1199.81,432.11 	"/>
</g>
</svg>
