<?xml version="1.0" encoding="utf-8"?>
<!-- Generator: Adobe Illustrator 24.1.1, SVG Export Plug-In . SVG Version: 6.00 Build 0)  -->
<svg version="1.1" id="Layer_1" xmlns="http://www.w3.org/2000/svg" xmlns:xlink="http://www.w3.org/1999/xlink" x="0px" y="0px"
	 viewBox="0 0 1080 1080" style="enable-background:new 0 0 1080 1080;" xml:space="preserve">
<style type="text/css">
	.st0{fill:#D92128;}
	.st1{fill:#FFFFFF;}
	.st2{fill:#12141C;}
</style>
<g>
	<path class="st0" d="M1080.19,540.08c0,298.25-241.86,539.97-540.04,539.97c-298.28,0-540.09-241.72-540.09-539.97
		C0.05,241.76,241.86,0,540.14,0C838.33,0,1080.19,241.76,1080.19,540.08"/>
	<path class="st1" d="M316.05,690.66c0,12.54-10.19,22.64-22.7,22.64c-12.52,0-22.64-10.1-22.64-22.64v-126.5
		c0-12.51,10.12-22.61,22.64-22.61c12.51,0,22.7,10.1,22.7,22.61V690.66z"/>
	<path class="st1" d="M632.41,690.66c0,12.54-10.12,22.64-22.68,22.64c-12.49,0-22.65-10.1-22.65-22.64v-126.5
		c0-12.51,10.16-22.61,22.65-22.61c12.56,0,22.68,10.1,22.68,22.61V690.66z"/>
	<path class="st1" d="M704.39,615.99l51.08-61.37c8.01-9.59,6.66-23.92-2.89-31.92c-9.6-7.97-23.97-6.7-31.96,2.89l-62.92,75.71
		c-7.21,8.62-6.94,20.96,0.24,29.21v0.11l61.87,74.61c8.06,9.55,22.35,10.86,31.99,2.92c9.6-8.08,10.87-22.41,2.8-32.03
		L704.39,615.99z"/>
	<path class="st1" d="M453.9,669.25c-29.74,0-53.86-24.13-53.86-53.85c0-29.76,24.12-53.85,53.86-53.85
		c29.76,0,53.89,24.09,53.89,53.85C507.79,645.13,483.66,669.25,453.9,669.25 M453.9,517.46c-54.04,0-97.92,43.68-97.97,97.7v0.17
		v138.59c0,12.54,10.17,22.68,22.7,22.68c12.47,0,22.66-10.14,22.66-22.68v-55.91c15.17,9.72,33.22,15.29,52.61,15.29
		c54.08,0,97.94-43.78,97.94-97.9C551.84,561.28,507.98,517.46,453.9,517.46"/>
	<path class="st1" d="M977.04,615.4c0,54.12-43.87,97.9-97.96,97.9s-97.96-43.78-97.96-97.9c0-54.12,43.87-97.94,97.96-97.94
		S977.04,561.28,977.04,615.4"/>
	<path class="st0" d="M932.93,615.4c0,29.72-24.09,53.85-53.85,53.85c-29.69,0-53.85-24.13-53.85-53.85
		c0-29.76,24.16-53.85,53.85-53.85C908.84,561.55,932.93,585.64,932.93,615.4"/>
	<path class="st2" d="M260.18,747.57c0,16.05-13.02,29.04-29.07,29.04s-29.07-12.99-29.07-29.04c0-16.09,13.02-29.07,29.07-29.07
		S260.18,731.49,260.18,747.57"/>
</g>
</svg>
