<svg id="Layer_1" data-name="Layer 1" xmlns="http://www.w3.org/2000/svg" xmlns:xlink="http://www.w3.org/1999/xlink" viewBox="0 0 425.2 154.44"><defs><style>.cls-1{fill:url(#linear-gradient);}.cls-2{fill:#6d6e71;}</style><linearGradient id="linear-gradient" x1="85.04" y1="350.25" x2="510.24" y2="350.25" gradientUnits="userSpaceOnUse"><stop offset="0" stop-color="#f7941d"/><stop offset="0.11" stop-color="#d69a25"/><stop offset="0.34" stop-color="#83a838"/><stop offset="0.53" stop-color="#39b54a"/><stop offset="0.73" stop-color="#1eb297"/><stop offset="0.91" stop-color="#08afd6"/><stop offset="1" stop-color="#00aeef"/></linearGradient></defs><path class="cls-1" d="M433,273a77.1,77.1,0,0,0-62.08,31.48,85.26,85.26,0,0,1,9.5,21.07,58,58,0,1,1-5.57,24.67v0a77.06,77.06,0,0,0-9.52-37.1h0a77.2,77.2,0,0,0-135.54.28C216.94,291.23,191.85,273,162.26,273a77.22,77.22,0,0,0,0,154.44c27.34,0,48.08-14.55,61.17-33a85.59,85.59,0,0,1-8.58-19.51,58,58,0,1,1,5.57-24.68s0,.08,0,.12c0,1.45.14,4.56.15,4.66.08,1.28.44,4.66.49,5.09.16,1.23.35,2.47.56,3.69l.21,1.05a77.71,77.71,0,0,0,3.11,11.32c.2.55,2.44,6,2.77,6.69s1.5,3,1.64,3.31a77.16,77.16,0,0,0,136,1.19A77.21,77.21,0,1,0,433,273ZM297.64,408.4a58.16,58.16,0,1,1,58.15-58.15A58.22,58.22,0,0,1,297.64,408.4Z" transform="translate(-85.04 -273.03)"/><path class="cls-2" d="M328.79,378.36q-.26-2.44-.36-4.8c-.07-1.57-.14-2.93-.2-4.09a45.5,45.5,0,0,0-.77-5.52,18.29,18.29,0,0,0-1.79-5.06,13.71,13.71,0,0,0-3.17-4,12.32,12.32,0,0,0-4.91-2.5v-.21a17,17,0,0,0,8.85-7.16,22,22,0,0,0,2.71-11.14,20.65,20.65,0,0,0-1.48-7.82,19,19,0,0,0-4.3-6.39,20.33,20.33,0,0,0-6.75-4.35,23.6,23.6,0,0,0-8.84-1.58H268.42v73h16.05V358.22h16q6,0,8.69,2.66c1.77,1.77,2.93,4.57,3.48,8.38.41,2.94.71,6,.92,9.21a28.39,28.39,0,0,0,1.63,8.28h16.05a10.71,10.71,0,0,1-1.68-3.74A31.25,31.25,0,0,1,328.79,378.36Zm-18.45-34q-2.76,2.44-8.28,2.45H284.47V326.22h17.59q5.52,0,8.28,2.41t2.76,7.71Q313.1,341.86,310.34,344.32Z" transform="translate(-85.04 -273.03)"/><polygon class="cls-2" points="332.38 64.85 362.75 113.72 378.8 113.72 378.8 40.72 363.77 40.72 363.77 89.69 363.57 89.69 333.1 40.72 317.15 40.72 317.15 113.72 332.18 113.72 332.18 64.85 332.38 64.85"/><rect class="cls-2" x="69.2" y="60.86" width="16.05" height="52.86"/><rect class="cls-2" x="69.2" y="40.72" width="16.05" height="11.96"/></svg>