<?xml version="1.0" encoding="UTF-8"?>
<svg xmlns="http://www.w3.org/2000/svg" xmlns:xlink="http://www.w3.org/1999/xlink" viewBox="0 0 1189.51 212.6">
  <defs>
    <style>
      .cls-1 {
        fill: #d8643f;
      }

      .cls-2 {
        fill: #5588a3;
      }

      .cls-3 {
        isolation: isolate;
      }

      .cls-4 {
        fill: url(#linear-gradient);
        mix-blend-mode: overlay;
      }
    </style>
    <linearGradient id="linear-gradient" x1="565.85" y1="-32.42" x2="689.07" y2="311.18" gradientUnits="userSpaceOnUse">
      <stop offset="0" stop-color="#fff"/>
      <stop offset="1" stop-color="#000"/>
    </linearGradient>
  </defs>
  <g class="cls-3">
    <g id="Layer_2" data-name="Layer 2">
      <g id="Layer_1-2" data-name="Layer 1">
        <g>
          <g>
            <path class="cls-1" d="M752.04,6.12h7.39V60.15h-7.39V6.12Z"/>
            <path class="cls-1" d="M770.43,20.76h6.29v5.59c1.86-2.3,3.84-3.96,5.92-4.96,2.09-1.01,4.4-1.51,6.95-1.51,5.59,0,9.37,1.95,11.33,5.85,1.08,2.13,1.62,5.19,1.62,9.16v25.27h-6.73v-24.83c0-2.4-.36-4.34-1.07-5.81-1.18-2.45-3.31-3.68-6.4-3.68-1.57,0-2.86,.16-3.86,.48-1.82,.54-3.41,1.62-4.78,3.23-1.1,1.3-1.82,2.65-2.15,4.03-.33,1.39-.5,3.36-.5,5.94v20.63h-6.62V20.76Z"/>
            <path class="cls-1" d="M812.32,20.76h6.29v5.59c1.86-2.3,3.84-3.96,5.92-4.96,2.09-1.01,4.4-1.51,6.95-1.51,5.59,0,9.37,1.95,11.33,5.85,1.08,2.13,1.62,5.19,1.62,9.16v25.27h-6.73v-24.83c0-2.4-.36-4.34-1.07-5.81-1.18-2.45-3.31-3.68-6.4-3.68-1.57,0-2.86,.16-3.86,.48-1.82,.54-3.41,1.62-4.78,3.23-1.1,1.3-1.82,2.65-2.15,4.03-.33,1.39-.5,3.36-.5,5.94v20.63h-6.62V20.76Z"/>
            <path class="cls-1" d="M882.75,24.69c3.48,3.38,5.22,8.35,5.22,14.92s-1.53,11.59-4.6,15.73c-3.07,4.14-7.83,6.21-14.28,6.21-5.38,0-9.65-1.83-12.82-5.49-3.17-3.66-4.75-8.58-4.75-14.76,0-6.61,1.67-11.88,5.01-15.8,3.33-3.92,7.81-5.88,13.44-5.88,5.04,0,9.3,1.69,12.78,5.07Zm-4.11,26.18c1.61-3.32,2.42-7.01,2.42-11.07,0-3.68-.58-6.66-1.75-8.97-1.84-3.62-5.02-5.44-9.53-5.44-4,0-6.91,1.54-8.73,4.63-1.82,3.09-2.73,6.81-2.73,11.17s.91,7.68,2.73,10.47c1.82,2.79,4.7,4.19,8.66,4.19,4.34,0,7.31-1.66,8.93-4.98Z"/>
            <path class="cls-1" d="M899.36,20.76l10.52,32.07,10.96-32.07h7.25l-14.83,39.39h-7.06l-14.53-39.39h7.68Z"/>
            <path class="cls-1" d="M954.88,36.31c1.52-.19,2.54-.83,3.05-1.91,.3-.59,.44-1.44,.44-2.55,0-2.26-.8-3.91-2.4-4.93-1.6-1.02-3.9-1.53-6.88-1.53-3.45,0-5.9,.94-7.34,2.81-.81,1.04-1.33,2.58-1.58,4.62h-6.18c.12-4.87,1.7-8.25,4.72-10.16,3.02-1.91,6.53-2.86,10.52-2.86,4.63,0,8.39,.89,11.28,2.65,2.87,1.77,4.3,4.51,4.3,8.24v22.69c0,.69,.14,1.24,.42,1.66,.28,.41,.88,.62,1.78,.62,.3,0,.62-.02,.99-.06,.37-.03,.76-.09,1.18-.16v4.89c-1.03,.3-1.81,.48-2.35,.55-.54,.07-1.27,.11-2.2,.11-2.28,0-3.94-.81-4.97-2.43-.54-.86-.92-2.07-1.14-3.64-1.35,1.76-3.29,3.3-5.81,4.6-2.52,1.3-5.31,1.95-8.35,1.95-3.65,0-6.64-1.11-8.96-3.32-2.31-2.22-3.47-4.99-3.47-8.32,0-3.65,1.14-6.48,3.42-8.49,2.28-2.01,5.27-3.25,8.98-3.71l10.56-1.32Zm-13.94,17.89c1.4,1.1,3.05,1.65,4.96,1.65,2.33,0,4.59-.54,6.77-1.61,3.68-1.79,5.52-4.71,5.52-8.78v-5.32c-.81,.51-1.85,.94-3.12,1.29-1.27,.34-2.52,.59-3.74,.74l-4,.51c-2.4,.32-4.2,.82-5.41,1.51-2.05,1.15-3.07,2.99-3.07,5.5,0,1.91,.7,3.41,2.1,4.52Z"/>
            <path class="cls-1" d="M976.98,9.76h6.7v11h6.29v5.4h-6.29v25.71c0,1.37,.46,2.29,1.4,2.76,.52,.27,1.37,.4,2.58,.4,.32,0,.66,0,1.03-.02,.37-.01,.79-.06,1.28-.12v5.26c-.76,.22-1.55,.38-2.37,.48-.82,.1-1.71,.15-2.67,.15-3.09,0-5.19-.79-6.29-2.37-1.1-1.58-1.66-3.63-1.66-6.16V26.16h-5.33v-5.4h5.33V9.76Z"/>
            <path class="cls-1" d="M996.59,6.12h6.73v7.5h-6.73V6.12Zm0,14.82h6.73V60.15h-6.73V20.94Z"/>
            <path class="cls-1" d="M1041.86,24.69c3.48,3.38,5.22,8.35,5.22,14.92s-1.53,11.59-4.6,15.73c-3.07,4.14-7.83,6.21-14.28,6.21-5.38,0-9.65-1.83-12.82-5.49-3.17-3.66-4.75-8.58-4.75-14.76,0-6.61,1.67-11.88,5.01-15.8,3.33-3.92,7.81-5.88,13.44-5.88,5.04,0,9.3,1.69,12.78,5.07Zm-4.11,26.18c1.61-3.32,2.42-7.01,2.42-11.07,0-3.68-.58-6.66-1.75-8.97-1.84-3.62-5.02-5.44-9.53-5.44-4,0-6.91,1.54-8.73,4.63-1.82,3.09-2.73,6.81-2.73,11.17s.91,7.68,2.73,10.47c1.82,2.79,4.7,4.19,8.66,4.19,4.34,0,7.31-1.66,8.93-4.98Z"/>
            <path class="cls-1" d="M1055.21,20.76h6.29v5.59c1.86-2.3,3.84-3.96,5.92-4.96,2.09-1.01,4.4-1.51,6.95-1.51,5.59,0,9.36,1.95,11.33,5.85,1.08,2.13,1.62,5.19,1.62,9.16v25.27h-6.73v-24.83c0-2.4-.36-4.34-1.07-5.81-1.18-2.45-3.31-3.68-6.4-3.68-1.57,0-2.86,.16-3.86,.48-1.82,.54-3.41,1.62-4.78,3.23-1.1,1.3-1.82,2.65-2.15,4.03-.33,1.39-.5,3.36-.5,5.94v20.63h-6.62V20.76Z"/>
            <path class="cls-1" d="M1124.05,23.48c-.77-1.79-1.16-3.52-1.16-5.19,0-3.48,1.17-6.37,3.52-8.66,2.35-2.29,5.49-3.44,9.42-3.44s6.66,1.07,8.76,3.2c2.1,2.13,3.16,4.68,3.16,7.65,0,3.46-1.09,6.48-3.26,9.08-1.27,1.52-3.39,3.27-6.37,5.26l9.81,11.78c.65-1.96,1.1-3.42,1.35-4.39,.25-.97,.51-2.33,.78-4.06h6.29c-.41,3.46-1.24,6.77-2.49,9.95-1.24,3.18-1.86,4.45-1.86,3.84l9.57,11.66h-8.51l-5.06-6.18c-2,2.18-3.84,3.78-5.49,4.78-2.91,1.77-6.26,2.65-10.04,2.65-5.6,0-9.66-1.51-12.2-4.54-2.54-3.03-3.81-6.44-3.81-10.24,0-4.1,1.24-7.52,3.7-10.26,1.52-1.67,4.34-3.75,8.47-6.26-2.28-2.62-3.8-4.83-4.58-6.62Zm15.9,30.23c1.95-1.25,3.45-2.65,4.5-4.19l-12.17-14.89c-3.44,2.31-5.68,4.07-6.73,5.29-1.61,1.84-2.42,4.08-2.42,6.73,0,2.87,1.04,5.08,3.13,6.62,2.09,1.54,4.31,2.32,6.68,2.32,2.71,0,5.04-.62,6.99-1.87Zm-.52-30.62c1.43-1.67,2.15-3.51,2.15-5.54,0-1.59-.52-2.96-1.57-4.11-1.05-1.15-2.46-1.72-4.24-1.72-2.7,0-4.58,.91-5.63,2.72-.53,.93-.8,1.95-.8,3.05,0,1.49,.41,2.92,1.23,4.29,.82,1.37,2.19,3.14,4.11,5.32,2.3-1.64,3.89-2.97,4.76-4Z"/>
            <path class="cls-1" d="M789.66,81.45v6.44h-18.21v47.59h-7.39v-47.59h-18.21v-6.44h43.8Z"/>
            <path class="cls-1" d="M792.93,96.08h6.29v6.8c.51-1.32,1.78-2.94,3.79-4.84,2.01-1.9,4.33-2.85,6.95-2.85,.13,0,.33,.01,.63,.03,.29,.02,.79,.07,1.51,.15v6.99c-.39-.07-.75-.12-1.09-.15-.33-.02-.69-.03-1.08-.03-3.34,0-5.9,1.07-7.69,3.22-1.79,2.15-2.68,4.62-2.68,7.41v22.66h-6.62v-39.39Z"/>
            <path class="cls-1" d="M838.94,111.63c1.52-.19,2.54-.83,3.05-1.91,.3-.59,.44-1.44,.44-2.55,0-2.26-.8-3.91-2.4-4.93-1.6-1.02-3.9-1.53-6.88-1.53-3.45,0-5.9,.94-7.34,2.81-.81,1.04-1.33,2.58-1.58,4.62h-6.18c.12-4.87,1.7-8.25,4.72-10.16,3.02-1.91,6.53-2.86,10.52-2.86,4.63,0,8.39,.89,11.28,2.65,2.87,1.77,4.3,4.51,4.3,8.24v22.69c0,.69,.14,1.24,.42,1.66,.28,.41,.88,.62,1.78,.62,.3,0,.62-.02,.99-.06,.37-.03,.76-.09,1.18-.16v4.89c-1.03,.3-1.81,.48-2.35,.55-.54,.07-1.27,.11-2.2,.11-2.28,0-3.94-.81-4.97-2.43-.54-.86-.92-2.07-1.14-3.64-1.35,1.76-3.29,3.3-5.81,4.6-2.52,1.3-5.31,1.95-8.35,1.95-3.65,0-6.64-1.11-8.96-3.32-2.31-2.22-3.47-4.99-3.47-8.32,0-3.65,1.14-6.48,3.42-8.49,2.28-2.01,5.27-3.25,8.98-3.71l10.56-1.32Zm-13.94,17.89c1.4,1.1,3.05,1.65,4.96,1.65,2.33,0,4.59-.54,6.77-1.61,3.68-1.79,5.52-4.71,5.52-8.78v-5.32c-.81,.51-1.85,.94-3.12,1.29-1.27,.34-2.52,.59-3.74,.74l-4,.51c-2.4,.32-4.2,.82-5.41,1.51-2.05,1.15-3.07,2.99-3.07,5.5,0,1.91,.7,3.41,2.1,4.52Z"/>
            <path class="cls-1" d="M859.72,81.45h6.73v7.5h-6.73v-7.5Zm0,14.82h6.73v39.21h-6.73v-39.21Z"/>
            <path class="cls-1" d="M876.46,96.08h6.29v5.59c1.86-2.3,3.84-3.96,5.92-4.96,2.09-1.01,4.4-1.51,6.95-1.51,5.59,0,9.37,1.95,11.33,5.85,1.08,2.13,1.62,5.19,1.62,9.16v25.27h-6.73v-24.83c0-2.4-.36-4.34-1.07-5.81-1.18-2.45-3.31-3.68-6.4-3.68-1.57,0-2.86,.16-3.86,.48-1.82,.54-3.41,1.62-4.78,3.23-1.1,1.3-1.82,2.65-2.15,4.03-.33,1.39-.5,3.36-.5,5.94v20.63h-6.62v-39.39Z"/>
            <path class="cls-1" d="M918.35,81.45h6.73v7.5h-6.73v-7.5Zm0,14.82h6.73v39.21h-6.73v-39.21Z"/>
            <path class="cls-1" d="M935.09,96.08h6.29v5.59c1.86-2.3,3.84-3.96,5.92-4.96,2.09-1.01,4.4-1.51,6.95-1.51,5.59,0,9.37,1.95,11.33,5.85,1.08,2.13,1.62,5.19,1.62,9.16v25.27h-6.73v-24.83c0-2.4-.36-4.34-1.07-5.81-1.18-2.45-3.31-3.68-6.4-3.68-1.57,0-2.86,.16-3.86,.48-1.82,.54-3.41,1.62-4.78,3.23-1.1,1.3-1.82,2.65-2.15,4.03-.33,1.39-.5,3.36-.5,5.94v20.63h-6.62v-39.39Z"/>
            <path class="cls-1" d="M998.87,97.67c1.25,.86,2.52,2.11,3.81,3.75v-4.96h6.11v35.82c0,5-.73,8.95-2.2,11.84-2.74,5.35-7.9,8.02-15.51,8.02-4.23,0-7.78-.95-10.67-2.85-2.88-1.9-4.5-4.87-4.84-8.92h6.73c.32,1.77,.95,3.13,1.9,4.08,1.49,1.47,3.83,2.21,7.02,2.21,5.05,0,8.35-1.79,9.91-5.37,.93-2.11,1.35-5.87,1.28-11.29-1.32,2.01-2.91,3.51-4.76,4.49-1.86,.98-4.31,1.47-7.37,1.47-4.25,0-7.97-1.51-11.15-4.54-3.19-3.03-4.78-8.04-4.78-15.02,0-6.6,1.61-11.75,4.82-15.45,3.21-3.7,7.09-5.55,11.63-5.55,3.08,0,5.77,.76,8.06,2.28Zm.81,7.09c-2-2.35-4.55-3.53-7.65-3.53-4.63,0-7.8,2.18-9.51,6.55-.9,2.33-1.35,5.38-1.35,9.16,0,4.44,.9,7.81,2.69,10.13,1.79,2.32,4.2,3.47,7.23,3.47,4.73,0,8.06-2.15,9.99-6.44,1.07-2.43,1.61-5.26,1.61-8.5,0-4.88-1-8.49-3-10.85Z"/>
            <path class="cls-1" d="M1041.38,81.45h24.18c4.78,0,8.64,1.35,11.58,4.06,2.94,2.71,4.41,6.52,4.41,11.42,0,4.22-1.31,7.89-3.93,11.01-2.62,3.13-6.64,4.69-12.04,4.69h-16.87v22.84h-7.32v-54.03Zm28.39,7.43c-1.61-.76-3.81-1.14-6.61-1.14h-14.46v18.72h14.46c3.26,0,5.91-.7,7.94-2.1,2.03-1.4,3.05-3.86,3.05-7.39,0-3.97-1.46-6.67-4.38-8.09Z"/>
            <path class="cls-1" d="M1111.15,111.63c1.52-.19,2.54-.83,3.05-1.91,.3-.59,.44-1.44,.44-2.55,0-2.26-.8-3.91-2.4-4.93-1.6-1.02-3.9-1.53-6.88-1.53-3.45,0-5.9,.94-7.34,2.81-.81,1.04-1.33,2.58-1.58,4.62h-6.18c.12-4.87,1.7-8.25,4.72-10.16,3.02-1.91,6.53-2.86,10.52-2.86,4.63,0,8.39,.89,11.28,2.65,2.87,1.77,4.3,4.51,4.3,8.24v22.69c0,.69,.14,1.24,.42,1.66,.28,.41,.88,.62,1.78,.62,.3,0,.62-.02,.99-.06,.37-.03,.76-.09,1.18-.16v4.89c-1.03,.3-1.81,.48-2.35,.55-.54,.07-1.27,.11-2.2,.11-2.28,0-3.94-.81-4.97-2.43-.54-.86-.92-2.07-1.14-3.64-1.35,1.76-3.29,3.3-5.81,4.6-2.52,1.3-5.31,1.95-8.35,1.95-3.65,0-6.64-1.11-8.96-3.32-2.32-2.22-3.47-4.99-3.47-8.32,0-3.65,1.14-6.48,3.42-8.49,2.28-2.01,5.27-3.25,8.98-3.71l10.56-1.32Zm-13.94,17.89c1.4,1.1,3.05,1.65,4.96,1.65,2.33,0,4.59-.54,6.77-1.61,3.68-1.79,5.52-4.71,5.52-8.78v-5.32c-.81,.51-1.85,.94-3.12,1.29-1.27,.34-2.52,.59-3.74,.74l-4,.51c-2.4,.32-4.2,.82-5.41,1.51-2.05,1.15-3.07,2.99-3.07,5.5,0,1.91,.7,3.41,2.1,4.52Z"/>
            <path class="cls-1" d="M1132.12,96.08h6.29v6.8c.51-1.32,1.78-2.94,3.79-4.84,2.01-1.9,4.33-2.85,6.95-2.85,.13,0,.33,.01,.63,.03,.29,.02,.79,.07,1.51,.15v6.99c-.39-.07-.75-.12-1.09-.15-.33-.02-.69-.03-1.08-.03-3.34,0-5.9,1.07-7.69,3.22-1.79,2.15-2.68,4.62-2.68,7.41v22.66h-6.62v-39.39Z"/>
            <path class="cls-1" d="M1156.86,81.45h6.36v31.37l16.98-16.73h8.46l-15.14,14.64,15.99,24.75h-8.46l-12.39-20.05-5.44,5.26v14.79h-6.36v-54.03Z"/>
            <path class="cls-1" d="M751.08,156.77h24.18c4.78,0,8.64,1.35,11.58,4.06,2.94,2.71,4.41,6.52,4.41,11.42,0,4.22-1.31,7.89-3.93,11.01-2.62,3.13-6.64,4.69-12.04,4.69h-16.87v22.84h-7.32v-54.03Zm28.39,7.43c-1.61-.76-3.81-1.14-6.61-1.14h-14.46v18.72h14.46c3.26,0,5.91-.7,7.94-2.1,2.03-1.4,3.05-3.86,3.05-7.39,0-3.97-1.46-6.67-4.38-8.09Z"/>
            <path class="cls-1" d="M799.92,171.41h6.29v6.8c.51-1.32,1.78-2.94,3.79-4.84,2.01-1.9,4.33-2.85,6.95-2.85,.13,0,.33,.01,.63,.03,.29,.02,.79,.07,1.51,.15v6.99c-.39-.07-.75-.12-1.09-.15-.33-.02-.69-.03-1.08-.03-3.34,0-5.9,1.07-7.69,3.22-1.79,2.15-2.68,4.62-2.68,7.41v22.66h-6.62v-39.39Z"/>
            <path class="cls-1" d="M824.82,156.77h6.73v7.5h-6.73v-7.5Zm0,14.82h6.73v39.21h-6.73v-39.21Z"/>
            <path class="cls-1" d="M838.61,205.57l23.39-28.24h-21.66v-5.92h30.56v5.4l-23.24,28.06h23.94v5.92h-32.99v-5.22Z"/>
            <path class="cls-1" d="M879.4,171.41h6.29v6.8c.51-1.32,1.78-2.94,3.79-4.84,2.01-1.9,4.33-2.85,6.95-2.85,.12,0,.33,.01,.63,.03,.29,.02,.8,.07,1.51,.15v6.99c-.39-.07-.75-.12-1.09-.15-.33-.02-.69-.03-1.08-.03-3.34,0-5.9,1.07-7.69,3.22-1.79,2.15-2.68,4.62-2.68,7.41v22.66h-6.62v-39.39Z"/>
            <path class="cls-1" d="M928.63,172.49c2.61,1.31,4.59,3.01,5.96,5.1,1.32,1.99,2.19,4.3,2.63,6.95,.39,1.81,.58,4.71,.58,8.68h-28.65c.12,4.01,1.06,7.22,2.81,9.65,1.75,2.42,4.46,3.63,8.14,3.63,3.43,0,6.17-1.15,8.21-3.44,1.14-1.33,1.95-2.87,2.43-4.62h6.51c-.17,1.45-.74,3.06-1.71,4.84-.97,1.78-2.05,3.23-3.24,4.36-2,1.96-4.47,3.28-7.41,3.97-1.58,.39-3.37,.59-5.37,.59-4.87,0-9-1.78-12.39-5.35-3.39-3.57-5.08-8.56-5.08-14.99s1.71-11.46,5.12-15.41c3.41-3.95,7.87-5.92,13.38-5.92,2.78,0,5.47,.66,8.08,1.96Zm2.37,15.47c-.27-2.87-.89-5.16-1.86-6.88-1.8-3.19-4.8-4.78-9.01-4.78-3.01,0-5.54,1.1-7.58,3.29-2.04,2.2-3.12,4.98-3.25,8.37h21.7Z"/>
            <path class="cls-1" d="M946.19,171.41h6.29v5.59c1.86-2.3,3.84-3.96,5.92-4.96,2.09-1.01,4.4-1.51,6.95-1.51,5.59,0,9.37,1.95,11.33,5.85,1.08,2.13,1.62,5.19,1.62,9.16v25.27h-6.73v-24.83c0-2.4-.36-4.34-1.07-5.81-1.18-2.45-3.31-3.68-6.4-3.68-1.57,0-2.86,.16-3.86,.48-1.82,.54-3.41,1.62-4.78,3.23-1.1,1.3-1.82,2.65-2.15,4.03-.33,1.39-.5,3.36-.5,5.94v20.63h-6.62v-39.39Z"/>
          </g>
          <polygon class="cls-1" points="618.1 4.65 721.93 108.6 617.91 212.43 548.13 212.38 652.1 108.51 548.25 4.51 618.1 4.65"/>
          <path class="cls-2" d="M0,0H56.69V212.6H0V0ZM164.41,46.77H83.63V0h218.26V46.77h-80.79V212.6h-56.69V46.77Zm355.19,34.3c0,23.06-6.99,38.93-20.97,47.62-13.98,8.7-35.62,13.04-64.92,13.04h-49.61v70.87h-56.69V0h106.3c29.29,0,50.93,4.63,64.92,13.89,13.99,9.26,20.97,24.66,20.97,46.21v20.97Zm-56.69-18.42c0-6.62-2.03-11.77-6.09-15.45-4.06-3.68-11.2-5.53-21.4-5.53h-51.31v58.4h51.31c10.2,0,17.34-1.84,21.4-5.53,4.06-3.68,6.09-8.73,6.09-15.17v-16.72Z"/>
          <polygon class="cls-4" points="618.1 4.65 721.93 108.6 617.91 212.43 548.13 212.38 652.1 108.51 548.25 4.51 618.1 4.65"/>
        </g>
      </g>
    </g>
  </g>
</svg>