<?xml version="1.0" encoding="UTF-8"?>
<svg id="Ebene_2" data-name="Ebene 2" xmlns="http://www.w3.org/2000/svg" viewBox="0 0 700 201.88">
  <defs>
    <style>
      .cls-1 {
        fill: #fff;
      }

      .cls-2 {
        fill: #08519f;
      }

      .cls-3 {
        fill: #d2ab67;
      }

      .cls-4 {
        fill: #fedc00;
      }

      .cls-5 {
        fill: #ed1c24;
      }

      .cls-6 {
        fill: #231f20;
      }
    </style>
  </defs>
  <g id="Layer_1" data-name="Layer 1">
    <g>
      <path class="cls-6" d="m167.5,159.68l-7.99-10.06h-.06v10.06h-2.56v-16.49c0-2.15-1.21-1.98-2.95-2.18v-.5l5.51-.68v8.88l8.08-8.88h1.95l-7.85,8.62,8.97,11.24h-3.1Z"/>
      <path class="cls-6" d="m178.63,160c-4.22,0-6.17-3.21-6.17-7.11s1.59-7.26,6.11-7.26c4.28,0,6.19,3.31,6.19,7.23s-1.71,7.13-6.13,7.13m-.03-13.21c-3.42,0-3.63,3.54-3.63,6.1,0,2.39.62,5.96,3.69,5.96,3.28,0,3.6-3.48,3.6-5.96s-.47-6.1-3.66-6.1"/>
      <path class="cls-6" d="m191.16,160c-1.3,0-2.56-.18-3.81-.59v-1.86c1.24.65,2.48,1.3,3.92,1.3,1.68,0,3.07-.59,3.07-2.51,0-3.01-6.93-2.95-6.93-6.84,0-2.92,2.18-3.87,4.81-3.87,1.12,0,2.18.24,3.28.5v1.77c-1.15-.6-2.24-1.12-3.57-1.12-1.24,0-2.45.44-2.45,1.88,0,2.95,6.93,2.48,6.93,7.11,0,3.12-2.48,4.21-5.25,4.21"/>
      <path class="cls-6" d="m204.85,160c-4.22,0-6.17-3.21-6.17-7.11s1.59-7.26,6.11-7.26c4.28,0,6.19,3.31,6.19,7.23s-1.71,7.13-6.14,7.13m-.03-13.21c-3.42,0-3.63,3.54-3.63,6.1,0,2.39.62,5.96,3.69,5.96,3.28,0,3.6-3.48,3.6-5.96s-.47-6.1-3.66-6.1"/>
      <path class="cls-6" d="m220.25,160h-1.36l-4.49-10.8c-.7-1.74-.94-2.5-3.01-2.74v-.5h4.07l4.54,10.83,3.92-10.83h1.59l-5.28,14.04Z"/>
      <path class="cls-6" d="m234.71,159.68v-1.89c-1.15,1.36-2.33,2.21-4.19,2.21-2.06,0-3.54-1.38-3.54-3.48,0-3.89,4.84-4.3,7.73-4.4v-1.15c0-1.92.06-4.19-2.48-4.19-1.71,0-2.36,1.04-2.45,2.6h-2.62c.18-2.83,2.65-3.74,5.16-3.74,3.45,0,4.66,1.51,4.66,4.81v9.23h-2.27Zm0-6.63c-2,.03-5.22.47-5.22,3.1,0,1.33.82,2.42,2.24,2.42,1.89,0,2.98-2.13,2.98-3.78v-1.74Z"/>
      <path class="cls-6" d="m247.31,147.91c-2.66,0-3.27,2.5-3.27,4.69v7.08h-2.27v-10.8c0-1.56-.88-1.92-2.24-2.03v-.5l4.52-.71v3.51h.06c.62-2.01,1.56-3.51,3.92-3.51.09,0,.18,0,.26.03v2.45c-.32-.08-.65-.2-.97-.2"/>
      <path class="cls-6" d="m251.17,159.68v-10.88c0-1.5-.95-1.83-2.21-1.95v-.5l4.48-.71v14.04h-2.27Zm1.03-16.87c-.91,0-1.68-.71-1.68-1.65s.77-1.65,1.68-1.65,1.65.77,1.65,1.65-.74,1.65-1.65,1.65"/>
      <path class="cls-6" d="m260.58,160c-1.3,0-2.56-.18-3.81-.59v-1.86c1.24.65,2.48,1.3,3.92,1.3,1.68,0,3.07-.59,3.07-2.51,0-3.01-6.93-2.95-6.93-6.84,0-2.92,2.18-3.87,4.81-3.87,1.12,0,2.18.24,3.28.5v1.77c-1.15-.6-2.24-1.12-3.57-1.12-1.24,0-2.45.44-2.45,1.88,0,2.95,6.93,2.48,6.93,7.11,0,3.12-2.48,4.21-5.25,4.21"/>
      <path class="cls-6" d="m276.13,149.39c0-1.59-.86-2.6-2.51-2.6-2.45,0-3.07,2.62-3.07,4.6,0,3.69,1.98,7.46,6.11,7.46.53,0,1.09-.08,1.62-.18v.86c-1,.33-2.09.47-3.15.47-4.96,0-7.08-2.89-7.08-7.61,0-3.81,1.65-6.76,5.81-6.76,2.18,0,5.01,1.18,5.01,3.75h-2.74Z"/>
      <path class="cls-6" d="m289.85,159.68v-8.82c0-1.5.12-3.78-1.98-3.78-1.59,0-3.19,2.77-3.6,4.07-.24.68-.38,1.42-.38,2.15v6.37h-2.27v-17.56c0-1.53-1-1.88-2.3-1.94v-.5l4.58-.65v10.59h.06c.86-1.83,2.36-3.98,4.63-3.98,3.1,0,3.54,2.45,3.54,4.98v9.06h-2.27Z"/>
      <rect class="cls-6" x="296.07" y="151.51" width="8.85" height="1.86"/>
      <path class="cls-6" d="m312.56,159.68h-3.18v-16.49c0-1.56-.06-2.19-1.65-2.6-.5-.14-.8-.18-1.3-.26v-.5h6.26c7.32,0,10.83,2.03,10.83,9.94s-3.69,9.91-10.95,9.91m1.39-18.7c-1.86,0-2.01.41-2.01,2.21v13.16c0,1.33-.06,2.19,1.56,2.19,5.6,0,7.11-3.72,7.11-8.76,0-4.69-1.15-8.79-6.67-8.79"/>
      <path class="cls-6" d="m328.61,151.22v.62c0,3.42,2.51,7.02,6.17,7.02.71,0,1.42-.18,2.09-.35v.98c-.97.38-2.62.53-3.66.53-4.72,0-6.87-3.12-6.87-7.61,0-4.1,1.51-6.76,5.93-6.76,3.15,0,4.96,2.01,4.96,5.13v.45h-8.61Zm6.05-1.27c0-1.65-1-3.16-2.77-3.16-2.09,0-3.07,1.5-3.24,3.42h6.02v-.27Z"/>
      <path class="cls-6" d="m349.59,159.68v-3.25h-.06c-.68,1.89-2.33,3.57-4.42,3.57-3.51,0-4.04-2.62-4.04-5.54v-5.67c0-1.5-.95-1.83-2.21-1.94v-.5l4.48-.71v9.21c0,1.68.36,3.71,2.48,3.71s3.78-3.8,3.78-5.54v-4.22c0-1.5-.91-1.83-2.21-1.94v-.5l4.48-.71v14.04h-2.27Z"/>
      <path class="cls-6" d="m361.45,160c-3.45,0-4.22-.85-4.22-4.16v-8.88h-2.27v-1h2.27v-2.51l2.24-1.97v4.48h3.66v1h-3.62v9.74c0,1.71.97,2.15,2.5,2.15.38,0,.74-.06,1.12-.12v1.09c-.56.12-1.12.18-1.68.18"/>
      <path class="cls-6" d="m368.79,160c-1.3,0-2.56-.18-3.8-.59v-1.86c1.24.65,2.48,1.3,3.92,1.3,1.68,0,3.07-.59,3.07-2.51,0-3.01-6.93-2.95-6.93-6.84,0-2.92,2.18-3.87,4.81-3.87,1.12,0,2.19.24,3.28.5v1.77c-1.15-.6-2.24-1.12-3.57-1.12-1.24,0-2.45.44-2.45,1.88,0,2.95,6.93,2.48,6.93,7.11,0,3.12-2.48,4.21-5.25,4.21"/>
      <path class="cls-6" d="m384.34,149.39c0-1.59-.85-2.6-2.51-2.6-2.45,0-3.07,2.62-3.07,4.6,0,3.69,1.98,7.46,6.11,7.46.53,0,1.09-.08,1.62-.18v.86c-1,.33-2.09.47-3.16.47-4.95,0-7.08-2.89-7.08-7.61,0-3.81,1.65-6.76,5.81-6.76,2.18,0,5.01,1.18,5.01,3.75h-2.74Z"/>
      <path class="cls-6" d="m398.06,159.68v-8.82c0-1.5.12-3.78-1.98-3.78-1.59,0-3.18,2.77-3.6,4.07-.24.68-.38,1.42-.38,2.15v6.37h-2.27v-17.56c0-1.53-1.01-1.88-2.3-1.94v-.5l4.58-.65v10.59h.06c.85-1.83,2.36-3.98,4.63-3.98,3.1,0,3.54,2.45,3.54,4.98v9.06h-2.27Z"/>
      <path class="cls-6" d="m406.2,151.22v.62c0,3.42,2.51,7.02,6.16,7.02.71,0,1.42-.18,2.1-.35v.98c-.97.38-2.62.53-3.66.53-4.71,0-6.87-3.12-6.87-7.61,0-4.1,1.51-6.76,5.93-6.76,3.15,0,4.95,2.01,4.95,5.13v.45h-8.61Zm6.05-1.27c0-1.65-1-3.16-2.77-3.16-2.1,0-3.07,1.5-3.25,3.42h6.02v-.27Z"/>
      <path class="cls-6" d="m443.76,160h-1.65l-5.37-17.61h-.06l-5.04,17.61h-2.13l-3.39-16.75c-.47-2.3-.74-2.45-3.01-2.92v-.5h4.89l3.28,16.17h.06l4.63-16.17h2.48l4.69,15.43h.06l3.22-15.43h1.56l-4.22,20.18Z"/>
      <path class="cls-6" d="m451.22,159.68v-10.88c0-1.5-.94-1.83-2.21-1.95v-.5l4.48-.71v14.04h-2.27Zm1.03-16.87c-.91,0-1.68-.71-1.68-1.65s.76-1.65,1.68-1.65,1.65.77,1.65,1.65-.74,1.65-1.65,1.65"/>
      <path class="cls-6" d="m463.76,147.91c-2.66,0-3.27,2.5-3.27,4.69v7.08h-2.27v-10.8c0-1.56-.89-1.92-2.24-2.03v-.5l4.51-.71v3.51h.06c.62-2.01,1.56-3.51,3.93-3.51.08,0,.18,0,.26.03v2.45c-.33-.08-.65-.2-.97-.2"/>
      <path class="cls-6" d="m472.41,160c-3.46,0-4.22-.85-4.22-4.16v-8.88h-2.27v-1h2.27v-2.51l2.24-1.97v4.48h3.66v1h-3.62v9.74c0,1.71.97,2.15,2.5,2.15.38,0,.74-.06,1.12-.12v1.09c-.56.12-1.12.18-1.68.18"/>
      <path class="cls-6" d="m479.75,160c-1.3,0-2.57-.18-3.81-.59v-1.86c1.24.65,2.48,1.3,3.93,1.3,1.68,0,3.07-.59,3.07-2.51,0-3.01-6.93-2.95-6.93-6.84,0-2.92,2.18-3.87,4.8-3.87,1.12,0,2.19.24,3.28.5v1.77c-1.15-.6-2.24-1.12-3.57-1.12-1.24,0-2.44.44-2.44,1.88,0,2.95,6.93,2.48,6.93,7.11,0,3.12-2.48,4.21-5.25,4.21"/>
      <path class="cls-6" d="m495.3,149.39c0-1.59-.86-2.6-2.51-2.6-2.45,0-3.06,2.62-3.06,4.6,0,3.69,1.97,7.46,6.11,7.46.53,0,1.09-.08,1.62-.18v.86c-1,.33-2.09.47-3.15.47-4.96,0-7.08-2.89-7.08-7.61,0-3.81,1.65-6.76,5.81-6.76,2.18,0,5.01,1.18,5.01,3.75h-2.74Z"/>
      <path class="cls-6" d="m509.01,159.68v-8.82c0-1.5.12-3.78-1.97-3.78-1.59,0-3.19,2.77-3.6,4.07-.24.68-.38,1.42-.38,2.15v6.37h-2.27v-17.56c0-1.53-1-1.88-2.3-1.94v-.5l4.58-.65v10.59h.06c.86-1.83,2.36-3.98,4.63-3.98,3.1,0,3.54,2.45,3.54,4.98v9.06h-2.27Z"/>
      <path class="cls-6" d="m522.73,159.68v-1.89c-1.15,1.36-2.33,2.21-4.19,2.21-2.07,0-3.54-1.38-3.54-3.48,0-3.89,4.84-4.3,7.73-4.4v-1.15c0-1.92.06-4.19-2.48-4.19-1.71,0-2.36,1.04-2.45,2.6h-2.62c.18-2.83,2.66-3.74,5.16-3.74,3.45,0,4.66,1.51,4.66,4.81v9.23h-2.27Zm0-6.63c-2,.03-5.22.47-5.22,3.1,0,1.33.82,2.42,2.24,2.42,1.89,0,2.98-2.13,2.98-3.78v-1.74Z"/>
      <path class="cls-6" d="m536.66,142.19c-.06-1.24-.5-2.01-1.86-2.01-1.95,0-1.74,2.77-1.74,4.1v1.68h3.98v1h-3.98v12.72h-2.27v-12.72h-2.33v-1h2.33c0-3.24-.18-6.93,4.22-6.93,2.03,0,3.98.91,4.13,3.16h-2.48Z"/>
      <path class="cls-6" d="m544.5,160c-3.45,0-4.22-.85-4.22-4.16v-8.88h-2.27v-1h2.27v-2.51l2.24-1.97v4.48h3.66v1h-3.63v9.74c0,1.71.97,2.15,2.51,2.15.38,0,.74-.06,1.12-.12v1.09c-.56.12-1.12.18-1.68.18"/>
      <path class="cls-6" d="m551.85,160c-1.3,0-2.56-.18-3.81-.59v-1.86c1.24.65,2.48,1.3,3.93,1.3,1.68,0,3.07-.59,3.07-2.51,0-3.01-6.93-2.95-6.93-6.84,0-2.92,2.18-3.87,4.81-3.87,1.12,0,2.18.24,3.28.5v1.77c-1.15-.6-2.25-1.12-3.57-1.12-1.24,0-2.44.44-2.44,1.88,0,2.95,6.93,2.48,6.93,7.11,0,3.12-2.48,4.21-5.25,4.21"/>
      <path class="cls-6" d="m565.63,160h-1.35l-4.49-10.8c-.7-1.74-.94-2.5-3.01-2.74v-.5h4.07l4.54,10.83,3.93-10.83h1.59l-5.28,14.04Z"/>
      <path class="cls-6" d="m574.51,151.22v.62c0,3.42,2.51,7.02,6.17,7.02.71,0,1.42-.18,2.09-.35v.98c-.97.38-2.62.53-3.66.53-4.72,0-6.88-3.12-6.88-7.61,0-4.1,1.51-6.76,5.93-6.76,3.16,0,4.96,2.01,4.96,5.13v.45h-8.61Zm6.05-1.27c0-1.65-1-3.16-2.77-3.16-2.09,0-3.07,1.5-3.24,3.42h6.02v-.27Z"/>
      <path class="cls-6" d="m592.15,147.91c-2.66,0-3.27,2.5-3.27,4.69v7.08h-2.27v-10.8c0-1.56-.88-1.92-2.24-2.03v-.5l4.51-.71v3.51h.06c.62-2.01,1.56-3.51,3.92-3.51.09,0,.18,0,.26.03v2.45c-.32-.08-.65-.2-.97-.2"/>
      <path class="cls-6" d="m596.93,151.22v.62c0,3.42,2.5,7.02,6.17,7.02.71,0,1.42-.18,2.09-.35v.98c-.97.38-2.62.53-3.66.53-4.72,0-6.87-3.12-6.87-7.61,0-4.1,1.51-6.76,5.93-6.76,3.16,0,4.96,2.01,4.96,5.13v.45h-8.62Zm6.05-1.27c0-1.65-1.01-3.16-2.77-3.16-2.1,0-3.07,1.5-3.25,3.42h6.02v-.27Z"/>
      <path class="cls-6" d="m609.14,159.68v-10.88c0-1.5-.95-1.83-2.21-1.95v-.5l4.48-.71v14.04h-2.27Zm1.03-16.87c-.91,0-1.68-.71-1.68-1.65s.76-1.65,1.68-1.65,1.65.77,1.65,1.65-.74,1.65-1.65,1.65"/>
      <path class="cls-6" d="m624.95,159.68v-9.53c0-1.62,0-3.07-2.06-3.07-2.19,0-4.16,3.66-4.16,5.57v7.02h-2.27v-10.89c0-1.5-.94-1.83-2.24-1.94v-.5l4.52-.71v3.93h.06c.8-2.07,2.6-3.93,4.93-3.93,2.54,0,3.51,1.06,3.51,3.54v10.5h-2.27Z"/>
      <path class="cls-6" d="m632.1,159.68v-10.88c0-1.5-.95-1.83-2.21-1.95v-.5l4.48-.71v14.04h-2.27Zm1.03-16.87c-.91,0-1.68-.71-1.68-1.65s.77-1.65,1.68-1.65,1.65.77,1.65,1.65-.74,1.65-1.65,1.65"/>
      <path class="cls-6" d="m649.5,148.44v11.62c0,3.95-1.77,5.63-5.78,5.63-2.42,0-5.34-.59-5.43-3.54h2.72c.29,1.8,1.36,2.39,3.16,2.39,2.89,0,3.07-2.66,3.07-4.87v-2.18h-.06c-.85,1.42-2,2.18-3.68,2.18-3.95,0-5.46-3.48-5.46-6.93,0-3.66,1.33-7.11,5.54-7.11,1.59,0,2.86.83,3.6,2.21h.06v-1.89h4.48v.5c-1.29.12-2.21.47-2.21,1.98m-2.27,3.75c0-2.24-.53-5.4-3.39-5.4s-3.31,4.01-3.31,6.16c0,2.36.56,5.58,3.54,5.58,2.33,0,3.16-3.04,3.16-4.9v-1.45Z"/>
      <path class="cls-6" d="m663.28,159.68v-3.25h-.06c-.68,1.89-2.33,3.57-4.42,3.57-3.51,0-4.05-2.62-4.05-5.54v-5.67c0-1.5-.95-1.83-2.21-1.94v-.5l4.48-.71v9.21c0,1.68.36,3.71,2.48,3.71s3.78-3.8,3.78-5.54v-4.22c0-1.5-.91-1.83-2.21-1.94v-.5l4.48-.71v14.04h-2.27Z"/>
      <path class="cls-6" d="m679.06,159.68v-9.53c0-1.62,0-3.07-2.06-3.07-2.18,0-4.16,3.66-4.16,5.57v7.02h-2.27v-10.89c0-1.5-.94-1.83-2.24-1.94v-.5l4.52-.71v3.93h.06c.8-2.07,2.6-3.93,4.93-3.93,2.54,0,3.51,1.06,3.51,3.54v10.5h-2.27Z"/>
      <path class="cls-6" d="m696.5,148.44v11.62c0,3.95-1.77,5.63-5.78,5.63-2.42,0-5.34-.59-5.43-3.54h2.72c.29,1.8,1.36,2.39,3.16,2.39,2.89,0,3.07-2.66,3.07-4.87v-2.18h-.06c-.85,1.42-2,2.18-3.68,2.18-3.95,0-5.46-3.48-5.46-6.93,0-3.66,1.33-7.11,5.55-7.11,1.59,0,2.86.83,3.59,2.21h.06v-1.89h4.48v.5c-1.3.12-2.21.47-2.21,1.98m-2.27,3.75c0-2.24-.53-5.4-3.39-5.4s-3.3,4.01-3.3,6.16c0,2.36.56,5.58,3.54,5.58,2.33,0,3.16-3.04,3.16-4.9v-1.45Z"/>
      <path class="cls-6" d="m163.31,196.19c-6.37,0-7.73-4.84-7.73-10.24s1.33-10.26,7.73-10.26,7.67,4.96,7.67,10.26-1.3,10.24-7.67,10.24m0-19.35c-4.75,0-4.84,5.66-4.84,9.11s.12,9.09,4.84,9.09,4.78-5.69,4.78-9.09-.09-9.11-4.78-9.11"/>
      <path class="cls-6" d="m183.29,195.87v-1.95h-.06c-.77,1.42-2.09,2.27-3.72,2.27-4.01,0-5.49-3.69-5.49-7.17s1.36-7.19,5.34-7.19c1.62,0,3.13.88,3.87,2.33h.06v-5.31c0-1.74-.38-2.48-2.24-2.48v-.5l4.51-.65v20.65h-2.27Zm0-7.46c0-2.13-.68-5.43-3.39-5.43s-3.36,3.92-3.36,6.04.5,6.02,3.25,6.02,3.51-3.27,3.51-5.45v-1.18Z"/>
      <path class="cls-6" d="m196.98,195.87v-1.89c-1.15,1.36-2.33,2.21-4.19,2.21-2.07,0-3.54-1.39-3.54-3.48,0-3.89,4.84-4.3,7.73-4.4v-1.15c0-1.92.06-4.19-2.48-4.19-1.71,0-2.36,1.04-2.45,2.6h-2.62c.18-2.83,2.66-3.75,5.16-3.75,3.45,0,4.66,1.51,4.66,4.81v9.23h-2.27Zm0-6.64c-2,.03-5.22.47-5.22,3.1,0,1.33.82,2.42,2.24,2.42,1.89,0,2.98-2.12,2.98-3.78v-1.74Z"/>
      <path class="cls-6" d="m224.65,195.87h-11.45v-16.75c0-2.13-1.06-2.33-2.98-2.6v-.5h13.93l.15,3.6h-.92c-.35-1.89-.53-2.45-2.71-2.45h-3.1c-1.68,0-1.8.35-1.8,1.94v5.81h3.75c2.01,0,2.57-.56,2.89-2.44h.68v6.1h-.68c-.36-2.04-.68-2.51-2.89-2.51h-3.75v6.93c0,1.95.68,1.71,2.42,1.71h3.19c2.18,0,2.21-.97,2.56-2.86h.91l-.21,4.01Z"/>
      <path class="cls-6" d="m236.68,195.87l-5.75-7.19h-.06v7.19h-2.27v-17.55c0-1.56-.98-1.85-2.3-1.95v-.5l4.57-.65v12.72l5.55-5.78h2.01l-5.46,5.69,6.46,8.02h-2.74Z"/>
      <path class="cls-6" d="m247.51,196.19c-4.22,0-6.16-3.22-6.16-7.11s1.59-7.26,6.11-7.26c4.28,0,6.19,3.31,6.19,7.23s-1.71,7.14-6.14,7.14m-.03-13.22c-3.42,0-3.63,3.54-3.63,6.11,0,2.39.62,5.95,3.69,5.95,3.28,0,3.6-3.47,3.6-5.95s-.47-6.11-3.66-6.11"/>
      <path class="cls-6" d="m266.45,195.87v-9.52c0-1.63,0-3.07-2.06-3.07-2.18,0-4.16,3.66-4.16,5.57v7.02h-2.27v-10.88c0-1.5-.94-1.83-2.24-1.95v-.5l4.51-.71v3.92h.06c.8-2.06,2.6-3.92,4.93-3.92,2.54,0,3.51,1.06,3.51,3.54v10.5h-2.27Z"/>
      <path class="cls-6" d="m278.66,196.19c-4.22,0-6.16-3.22-6.16-7.11s1.59-7.26,6.11-7.26c4.28,0,6.19,3.31,6.19,7.23s-1.71,7.14-6.14,7.14m-.03-13.22c-3.42,0-3.63,3.54-3.63,6.11,0,2.39.62,5.95,3.69,5.95,3.28,0,3.6-3.47,3.6-5.95s-.47-6.11-3.66-6.11"/>
      <path class="cls-6" d="m304.83,195.87v-8.88c0-1.62.2-3.71-2-3.71-1.48,0-2.78,2.15-3.19,3.33-.23.68-.38,1.42-.38,2.12v7.14h-2.27v-9.52c0-1.51.03-3.07-1.95-3.07-2.24,0-3.63,3.75-3.63,5.57v7.02h-2.27v-10.88c0-1.5-.94-1.83-2.24-1.95v-.5l4.51-.71v3.54h.06c.59-1.74,2.33-3.54,4.25-3.54,2.48,0,3.51,1.12,3.51,3.54h.06c.8-1.83,2.13-3.54,4.31-3.54,3.04,0,3.51,1.71,3.51,4.34v9.7h-2.27Z"/>
      <path class="cls-6" d="m311.86,195.87v-10.88c0-1.5-.95-1.83-2.21-1.95v-.5l4.48-.71v14.04h-2.27Zm1.03-16.87c-.91,0-1.68-.71-1.68-1.65s.77-1.65,1.68-1.65,1.65.77,1.65,1.65-.74,1.65-1.65,1.65"/>
      <path class="cls-6" d="m326.87,195.87l-5.75-7.19h-.06v7.19h-2.27v-17.55c0-1.56-.98-1.85-2.3-1.95v-.5l4.57-.65v12.72l5.55-5.78h2.01l-5.46,5.69,6.46,8.02h-2.74Z"/>
      <path class="cls-6" d="m333.54,187.4v.62c0,3.42,2.51,7.02,6.17,7.02.71,0,1.42-.18,2.09-.35v.97c-.97.38-2.62.53-3.66.53-4.72,0-6.87-3.12-6.87-7.61,0-4.1,1.51-6.76,5.93-6.76,3.15,0,4.96,2,4.96,5.13v.45h-8.61Zm6.05-1.27c0-1.66-1-3.16-2.77-3.16-2.09,0-3.07,1.5-3.24,3.42h6.02v-.26Z"/>
      <path class="cls-6" d="m361.98,196.19c-6.75,0-8.76-5.07-8.76-11.03,0-5.61,1.83-9.47,8.02-9.47,2.89,0,6.52,1,6.75,4.42h-2.89c-.26-2.15-1.83-3.09-3.92-3.09-4.48,0-5.07,4.4-5.07,7.9,0,4.81,1.47,9.94,7.23,9.94.8,0,1.51-.06,2.27-.27v-6.28c0-2.47-.65-2.62-2.97-2.98v-.5h5.55v10.5c-2.04.51-4.1.86-6.2.86"/>
      <path class="cls-6" d="m371.39,201.88c-2.18,0-4.19-1.06-4.19-3.45h2.51c0,1.41.44,2.3,2.01,2.3s1.54-2.48,1.54-3.57v-12.18c0-1.5-.95-1.83-2.21-1.95v-.5l4.49-.71v14.51c0,2.89-.68,5.54-4.13,5.54m2.86-22.89c-.91,0-1.68-.74-1.68-1.65s.76-1.65,1.68-1.65,1.68.74,1.68,1.65-.74,1.65-1.68,1.65"/>
      <path class="cls-6" d="m381.13,187.4v.62c0,3.42,2.5,7.02,6.17,7.02.71,0,1.42-.18,2.09-.35v.97c-.97.38-2.62.53-3.66.53-4.72,0-6.87-3.12-6.87-7.61,0-4.1,1.51-6.76,5.93-6.76,3.16,0,4.96,2,4.96,5.13v.45h-8.61Zm6.05-1.27c0-1.66-1.01-3.16-2.77-3.16-2.09,0-3.07,1.5-3.24,3.42h6.02v-.26Z"/>
      <path class="cls-6" d="m398.77,184.1c-2.66,0-3.27,2.51-3.27,4.69v7.08h-2.27v-10.8c0-1.57-.89-1.92-2.25-2.03v-.5l4.52-.71v3.51h.06c.61-2.01,1.56-3.51,3.92-3.51.09,0,.18,0,.27.03v2.44c-.33-.08-.65-.2-.98-.2"/>
      <path class="cls-6" d="m418.56,195.87v-8.88c0-1.62.21-3.71-2-3.71-1.48,0-2.77,2.15-3.19,3.33-.24.68-.38,1.42-.38,2.12v7.14h-2.27v-9.52c0-1.51.03-3.07-1.95-3.07-2.24,0-3.63,3.75-3.63,5.57v7.02h-2.27v-10.88c0-1.5-.94-1.83-2.24-1.95v-.5l4.51-.71v3.54h.06c.59-1.74,2.33-3.54,4.25-3.54,2.48,0,3.51,1.12,3.51,3.54h.06c.8-1.83,2.13-3.54,4.31-3.54,3.04,0,3.51,1.71,3.51,4.34v9.7h-2.27Z"/>
      <path class="cls-6" d="m432.07,195.87v-1.89c-1.15,1.36-2.33,2.21-4.19,2.21-2.07,0-3.54-1.39-3.54-3.48,0-3.89,4.84-4.3,7.73-4.4v-1.15c0-1.92.06-4.19-2.48-4.19-1.71,0-2.36,1.04-2.45,2.6h-2.62c.18-2.83,2.66-3.75,5.16-3.75,3.45,0,4.66,1.51,4.66,4.81v9.23h-2.27Zm0-6.64c-2,.03-5.22.47-5.22,3.1,0,1.33.82,2.42,2.24,2.42,1.89,0,2.98-2.12,2.98-3.78v-1.74Z"/>
      <path class="cls-6" d="m447.95,195.87v-9.52c0-1.63,0-3.07-2.07-3.07-2.19,0-4.16,3.66-4.16,5.57v7.02h-2.27v-10.88c0-1.5-.94-1.83-2.24-1.95v-.5l4.51-.71v3.92h.06c.8-2.06,2.6-3.92,4.93-3.92,2.54,0,3.51,1.06,3.51,3.54v10.5h-2.27Z"/>
      <path class="cls-6" d="m460.16,196.19c-4.22,0-6.16-3.22-6.16-7.11s1.59-7.26,6.1-7.26c4.28,0,6.19,3.31,6.19,7.23s-1.71,7.14-6.13,7.14m-.03-13.22c-3.42,0-3.63,3.54-3.63,6.11,0,2.39.62,5.95,3.69,5.95,3.28,0,3.6-3.47,3.6-5.95s-.47-6.11-3.66-6.11"/>
      <rect class="cls-6" x="469.39" y="187.7" width="8.85" height="1.86"/>
      <path class="cls-6" d="m493.35,195.87l-7.99-10.06h-.06v10.06h-2.56v-16.49c0-2.15-1.21-1.98-2.95-2.18v-.5l5.51-.68v8.88l8.08-8.88h1.95l-7.85,8.62,8.97,11.23h-3.1Z"/>
      <path class="cls-6" d="m504.47,196.19c-4.22,0-6.17-3.22-6.17-7.11s1.6-7.26,6.11-7.26c4.28,0,6.2,3.31,6.2,7.23s-1.71,7.14-6.14,7.14m-.03-13.22c-3.42,0-3.63,3.54-3.63,6.11,0,2.39.62,5.95,3.69,5.95,3.28,0,3.6-3.47,3.6-5.95s-.47-6.11-3.66-6.11"/>
      <path class="cls-6" d="m517.01,196.19c-1.3,0-2.56-.18-3.8-.59v-1.86c1.24.65,2.48,1.3,3.92,1.3,1.68,0,3.07-.58,3.07-2.5,0-3.01-6.93-2.95-6.93-6.84,0-2.92,2.18-3.86,4.81-3.86,1.12,0,2.18.24,3.28.5v1.77c-1.15-.59-2.25-1.12-3.57-1.12-1.24,0-2.45.44-2.45,1.89,0,2.95,6.93,2.48,6.93,7.11,0,3.12-2.48,4.21-5.25,4.21"/>
      <path class="cls-6" d="m530.7,196.19c-4.22,0-6.16-3.22-6.16-7.11s1.59-7.26,6.11-7.26c4.28,0,6.19,3.31,6.19,7.23s-1.71,7.14-6.14,7.14m-.03-13.22c-3.42,0-3.63,3.54-3.63,6.11,0,2.39.62,5.95,3.69,5.95,3.27,0,3.6-3.47,3.6-5.95s-.47-6.11-3.66-6.11"/>
      <path class="cls-6" d="m546.1,196.19h-1.36l-4.48-10.8c-.71-1.74-.94-2.5-3.01-2.74v-.5h4.07l4.55,10.82,3.92-10.82h1.59l-5.28,14.04Z"/>
      <path class="cls-6" d="m560.55,195.87v-1.89c-1.15,1.36-2.33,2.21-4.19,2.21-2.07,0-3.54-1.39-3.54-3.48,0-3.89,4.84-4.3,7.73-4.4v-1.15c0-1.92.06-4.19-2.48-4.19-1.71,0-2.36,1.04-2.45,2.6h-2.62c.18-2.83,2.66-3.75,5.16-3.75,3.45,0,4.66,1.51,4.66,4.81v9.23h-2.27Zm0-6.64c-2,.03-5.22.47-5.22,3.1,0,1.33.82,2.42,2.24,2.42,1.89,0,2.98-2.12,2.98-3.78v-1.74Z"/>
      <path class="cls-6" d="m573.15,184.1c-2.65,0-3.27,2.51-3.27,4.69v7.08h-2.27v-10.8c0-1.57-.88-1.92-2.24-2.03v-.5l4.51-.71v3.51h.06c.62-2.01,1.56-3.51,3.92-3.51.09,0,.18,0,.26.03v2.44c-.32-.08-.65-.2-.97-.2"/>
      <path class="cls-6" d="m577.93,187.4v.62c0,3.42,2.51,7.02,6.17,7.02.71,0,1.42-.18,2.09-.35v.97c-.97.38-2.62.53-3.66.53-4.72,0-6.88-3.12-6.88-7.61,0-4.1,1.51-6.76,5.93-6.76,3.16,0,4.96,2,4.96,5.13v.45h-8.62Zm6.05-1.27c0-1.66-1.01-3.16-2.77-3.16-2.1,0-3.07,1.5-3.24,3.42h6.02v-.26Z"/>
      <polygon class="cls-6" points="194.75 116.53 176.94 85.27 166.26 98.1 166.26 116.53 156.63 116.53 156.63 53.12 166.26 53.12 166.26 85.01 192.18 53.12 203.93 53.12 183.36 77.97 206.06 116.53 194.75 116.53"/>
      <path class="cls-6" d="m253.89,110.57c-4,4.01-9.8,5.97-16.39,5.97h-22.27v-63.41h22.27c6.59,0,12.39,1.96,16.39,5.97,6.85,6.86,6.41,16.12,6.41,25.3s.44,19.32-6.41,26.18m-6.6-44.53c-2.67-2.94-6.23-4.28-10.77-4.28h-11.66v46.14h11.66c4.54,0,8.1-1.34,10.77-4.28,3.3-3.65,3.39-10.51,3.39-19.24s-.09-14.7-3.39-18.35"/>
      <polygon class="cls-6" points="325.41 116.53 317.04 116.53 304.12 72.09 291.29 116.53 282.92 116.53 266.36 53.12 276.51 53.12 287.56 98.46 300.29 53.12 308.04 53.12 320.77 98.46 331.82 53.12 341.97 53.12 325.41 116.53"/>
      <polygon class="cls-6" points="371.71 116.53 364.24 116.53 343.39 53.12 353.37 53.12 367.97 99.26 382.59 53.12 392.74 53.12 371.71 116.53"/>
      <rect class="cls-6" x="399.15" y="87.59" width="26.01" height="8.46"/>
      <path class="cls-6" d="m476.63,110.3c-4.36,4.37-9.98,6.77-16.74,6.77s-12.29-2.4-16.66-6.77c-6.23-6.23-6.15-13.27-6.15-25.47s-.08-19.24,6.15-25.48c4.36-4.36,9.89-6.77,16.66-6.77s12.38,2.4,16.74,6.77c6.23,6.24,6.06,13.27,6.06,25.48s.18,19.23-6.06,25.47m-7.3-45.16c-2.23-2.4-5.69-3.92-9.44-3.92s-7.21,1.51-9.44,3.92c-3.11,3.38-3.74,6.95-3.74,19.69s.63,16.3,3.74,19.68c2.23,2.4,5.71,3.92,9.44,3.92s7.21-1.51,9.44-3.92c3.12-3.38,3.74-6.95,3.74-19.68s-.62-16.3-3.74-19.69"/>
      <polygon class="cls-6" points="496.94 116.53 496.94 53.12 537.46 53.12 537.46 61.76 506.55 61.76 506.55 80.29 532.92 80.29 532.92 88.84 506.55 88.84 506.55 107.9 537.46 107.9 537.46 116.53 496.94 116.53"/>
      <path class="cls-6" d="m588.58,109.86c-4.81,5.08-10.78,7.21-17.46,7.21s-12.29-2.4-16.65-6.77c-6.24-6.24-6.15-13.28-6.15-25.47s-.09-19.24,6.15-25.48c4.35-4.36,9.88-6.77,16.65-6.77,13.45,0,21.28,8.82,23.07,19.68h-9.71c-1.6-6.94-6.24-11.04-13.36-11.04-3.74,0-7.12,1.51-9.35,3.92-3.12,3.38-3.83,6.95-3.83,19.68s.71,16.38,3.83,19.77c2.23,2.4,5.61,3.83,9.35,3.83,4.18,0,7.84-1.6,10.33-4.46,2.31-2.67,3.21-5.87,3.21-9.97v-3.56h-13.54v-8.19h23.16v9.71c0,8.19-1.51,13.45-5.7,17.91"/>
      <path class="cls-6" d="m613.78,117.07c-6.51,0-11.04-1.78-15.41-6.15l6.42-6.32c2.23,2.23,4.37,3.83,9,3.83,7.13,0,11.49-4.36,11.49-12.65v-42.66h9.62v43.37c0,13.18-9.44,20.57-21.11,20.57"/>
      <polygon class="cls-6" points="688.68 116.53 670.87 85.27 660.18 98.1 660.18 116.53 650.56 116.53 650.56 53.12 660.18 53.12 660.18 85.01 686.1 53.12 697.85 53.12 677.28 77.97 700 116.53 688.68 116.53"/>
      <polygon class="cls-4" points="117.57 .08 105.93 11.71 43.76 73.89 56.09 73.89 129.9 .08 117.57 .08"/>
      <polygon class="cls-3" points="142.97 11.63 126.77 27.84 80.79 73.81 72.58 82.03 84.92 82.03 84.93 82.03 93.13 73.81 93.14 73.81 139.1 27.84 139.11 27.84 155.3 11.63 142.97 11.63"/>
      <polygon class="cls-2" points="114.42 27.84 49.38 92.88 61.73 92.88 126.77 27.84 114.42 27.84"/>
      <polygon class="cls-2" points="166.95 0 155.32 11.63 139.11 27.84 93.14 73.81 105.48 73.81 119.63 59.65 128.35 50.94 151.45 27.84 167.65 11.63 179.29 0 166.95 0"/>
      <polygon class="cls-6" points="119.36 59.92 119.36 107.85 31.93 107.85 31.93 73.37 77.38 27.92 65.04 27.92 31.93 61.02 31.93 20.44 84.86 20.44 93.58 11.73 93.54 11.73 31.93 11.73 23.22 11.73 23.22 69.74 0 92.96 12.35 92.96 23.19 82.1 23.22 116.58 128.08 116.59 128.08 51.21 119.36 59.92"/>
      <polygon class="cls-5" points="93.59 11.71 93.58 11.73 23.19 82.1 35.55 82.1 105.93 11.71 93.59 11.71"/>
      <polyline class="cls-1" points="73.4 70.4 75.48 71.45 77.11 69.81 76.75 72.1 78.81 73.15 76.52 73.52 76.16 75.8 75.11 73.75 72.82 74.1 74.47 72.46 73.4 70.4"/>
      <polyline class="cls-1" points="79.6 64.2 81.67 65.24 83.31 63.62 82.94 65.9 85.02 66.95 82.72 67.31 82.36 69.6 81.31 67.54 79.03 67.9 80.66 66.26 79.6 64.2"/>
      <polyline class="cls-1" points="85.81 58 87.88 59.05 89.51 57.41 89.15 59.7 91.21 60.75 88.93 61.11 88.57 63.4 87.5 61.34 85.23 61.7 86.86 60.05 85.81 58"/>
      <polyline class="cls-1" points="92.01 51.79 94.07 52.84 95.71 51.21 95.35 53.5 97.41 54.55 95.12 54.92 94.76 57.21 93.71 55.13 91.43 55.49 93.06 53.87 92.01 51.79"/>
      <polyline class="cls-1" points="98.2 45.59 100.28 46.65 101.92 45.01 101.56 47.29 103.62 48.34 101.33 48.71 100.96 51 99.91 48.94 97.62 49.3 99.26 47.66 98.2 45.59"/>
      <polyline class="cls-1" points="104.41 39.4 106.47 40.44 108.12 38.81 107.74 41.1 109.82 42.15 107.53 42.51 107.16 44.8 106.11 42.73 103.83 43.1 105.46 41.45 104.41 39.4"/>
    </g>
  </g>
</svg>