<svg xmlns="http://www.w3.org/2000/svg" xmlns:xlink="http://www.w3.org/1999/xlink" viewBox="0 0 307.52 84.26"><defs><style>.cls-1{fill:url(#linear-gradient);}</style><linearGradient id="linear-gradient" y1="42.13" x2="307.52" y2="42.13" gradientUnits="userSpaceOnUse"><stop offset="0" stop-color="#00d2ff"/><stop offset="1" stop-color="#2cb3ff"/></linearGradient></defs><title>Ресурс 1</title><g id="Слой_2" data-name="Слой 2"><g id="Layer_1" data-name="Layer 1"><path class="cls-1" d="M4.26,59.62H1.32A1.32,1.32,0,0,1,0,58.31v-57A1.32,1.32,0,0,1,1.32,0H276.77a1.32,1.32,0,0,1,1.32,1.32V4.26a1.32,1.32,0,0,1-1.32,1.32H6.11a.53.53,0,0,0-.53.53v52.2A1.32,1.32,0,0,1,4.26,59.62ZM301.94,26v52.2a.52.52,0,0,1-.52.52H30.75A1.32,1.32,0,0,0,29.43,80v3a1.32,1.32,0,0,0,1.32,1.31H306.2A1.32,1.32,0,0,0,307.52,83V26a1.32,1.32,0,0,0-1.32-1.32h-2.94A1.32,1.32,0,0,0,301.94,26ZM138.73,53.59l-9.41-26.48a3.73,3.73,0,0,0-3.52-2.48h-6a3.73,3.73,0,0,0-3.73,3.72V57.73a1.9,1.9,0,0,0,1.9,1.9h2.94a1.9,1.9,0,0,0,1.9-1.9V42.84h0v-12a.53.53,0,0,1,1-.18l9.42,26.51a3.75,3.75,0,0,0,3.53,2.49h6a3.74,3.74,0,0,0,3.74-3.74v-13h0V26.53a1.9,1.9,0,0,0-1.9-1.9h-2.94a1.91,1.91,0,0,0-1.91,1.9V53.41A.53.53,0,0,1,138.73,53.59Zm-37.88-16a16,16,0,0,0-.87-5.22A12.88,12.88,0,0,0,97.47,28c-4.93-5.58-18.74-5.58-23.68,0a12.71,12.71,0,0,0-2.51,4.31,16,16,0,0,0-.87,5.22h0v9.12h0a16,16,0,0,0,.87,5.22,12.92,12.92,0,0,0,2.51,4.32c4.93,5.58,18.74,5.58,23.68,0A12.76,12.76,0,0,0,100,51.91a16,16,0,0,0,.87-5.22h0V37.57Zm-6.65,8a13.39,13.39,0,0,1-.42,3.33h0c-1.81,7-14.47,7-16.32,0a13.18,13.18,0,0,1-.41-3.06V38.73a13.41,13.41,0,0,1,.42-3.34h0c1.81-7.05,14.47-7,16.32,0a13.19,13.19,0,0,1,.41,3.07ZM162,31.19h9.14a1.06,1.06,0,0,1,1.06,1.05V57.73a1.89,1.89,0,0,0,1.89,1.9h2.77a1.9,1.9,0,0,0,1.9-1.9V32.24a1,1,0,0,1,1.05-1.05H189a1.9,1.9,0,0,0,1.9-1.9V26.52a1.9,1.9,0,0,0-1.9-1.89H162a1.9,1.9,0,0,0-1.9,1.89v2.77A1.9,1.9,0,0,0,162,31.19Zm108.2,20.13a1,1,0,0,1,.34-1.66,13.07,13.07,0,0,0,7.79-13.32c-.65-6.47-7-11.71-13.51-11.71H250.89a1.9,1.9,0,0,0-1.9,1.89V57.73a1.9,1.9,0,0,0,1.9,1.9h2.94a1.9,1.9,0,0,0,1.9-1.9V51.81a1.06,1.06,0,0,1,1.06-1.06h2.59a4.35,4.35,0,0,1,3.19,1.4l5.89,6.42a3.26,3.26,0,0,0,2.41,1.06h3.95a1.32,1.32,0,0,0,1-2.21ZM265.14,44h-8.35a1.05,1.05,0,0,1-1.06-1V32.42a1.05,1.05,0,0,1,1.05-1.06l8.53,0A6.32,6.32,0,0,1,271.5,39,6.43,6.43,0,0,1,265.14,44Zm-214-18.33-12.83,14a.69.69,0,0,1-1.19-.47V26.52a1.9,1.9,0,0,0-1.9-1.89H32.28a1.89,1.89,0,0,0-1.89,1.89V57.73a1.9,1.9,0,0,0,1.89,1.9h2.95a1.9,1.9,0,0,0,1.89-1.9V50.89a3.68,3.68,0,0,1,.54-1.37,3.82,3.82,0,0,1,5.69.07l7.8,8.91a3.29,3.29,0,0,0,2.47,1.12h3.9a1.32,1.32,0,0,0,1-2.21L45.1,42.84a1.06,1.06,0,0,1,0-1.43L58.5,26.82a1.32,1.32,0,0,0-1-2.21H53.58A3.35,3.35,0,0,0,51.15,25.67Zm180.74-1h-2.84a1.89,1.89,0,0,0-1.89,1.89s0,19,0,19a13.17,13.17,0,0,1-.42,3.31h0c-1.82,7-14.48,7-16.33,0a13.18,13.18,0,0,1-.41-3.06V26.52a1.9,1.9,0,0,0-1.9-1.89h-2.85a1.9,1.9,0,0,0-1.9,1.89V46.63a16.33,16.33,0,0,0,.87,5.28,12.78,12.78,0,0,0,2.52,4.32c4.94,5.58,18.74,5.58,23.67,0a13,13,0,0,0,2.52-4.32,16.33,16.33,0,0,0,.87-5.28V26.52A1.9,1.9,0,0,0,231.89,24.63Z"/></g></g></svg>