<?xml version="1.0" encoding="UTF-8" standalone="no"?>
<!-- Created with Inkscape (http://www.inkscape.org/) -->

<svg
   version="1.1"
   id="svg2"
   width="377.33334"
   height="272"
   viewBox="0 0 377.33334 272"
   sodipodi:docname="logo-latlon_gmbh-bonn.svg"
   inkscape:version="1.2.2 (b0a84865, 2022-12-01)"
   xmlns:inkscape="http://www.inkscape.org/namespaces/inkscape"
   xmlns:sodipodi="http://sodipodi.sourceforge.net/DTD/sodipodi-0.dtd"
   xmlns="http://www.w3.org/2000/svg"
   xmlns:svg="http://www.w3.org/2000/svg">
  <defs
     id="defs6" />
  <sodipodi:namedview
     id="namedview4"
     pagecolor="#ffffff"
     bordercolor="#000000"
     borderopacity="0.25"
     inkscape:showpageshadow="2"
     inkscape:pageopacity="0.0"
     inkscape:pagecheckerboard="0"
     inkscape:deskcolor="#d1d1d1"
     showgrid="false"
     inkscape:zoom="3.2796268"
     inkscape:cx="143.6139"
     inkscape:cy="189.80818"
     inkscape:window-width="1683"
     inkscape:window-height="855"
     inkscape:window-x="0"
     inkscape:window-y="121"
     inkscape:window-maximized="0"
     inkscape:current-layer="g10">
    <inkscape:page
       x="0"
       y="0"
       id="page8"
       width="377.33334"
       height="272" />
  </sodipodi:namedview>
  <g
     id="g10"
     inkscape:groupmode="layer"
     inkscape:label="Page 1"
     transform="matrix(1.3333333,0,0,-1.3333333,0,272)">
    <g
       id="g12"
       transform="scale(0.1)">
      <path
         d="m 252.77,1266.53 v 458.2 h 79.304 v -458.2 H 252.77"
         style="fill:#0b0c0b;fill-opacity:1;fill-rule:evenodd;stroke:none"
         id="path14" />
      <path
         d="m 680.762,1266.53 1.258,47.84 -3.778,-6.3 -5.031,-6.29 -10.074,-11.33 -12.586,-10.07 -6.293,-3.78 -6.293,-3.78 -13.848,-6.29 -7.554,-2.52 -7.551,-1.26 -8.813,-2.51 h -8.812 l -17.621,-1.26 -18.883,1.26 h -8.813 l -8.812,2.51 -8.813,1.26 -8.812,2.52 -8.809,2.52 -7.554,2.52 -16.364,7.55 -7.551,5.04 -6.292,3.77 -15.106,11.33 -6.297,6.29 -6.293,6.3 -6.297,6.29 -6.293,6.3 -10.07,15.1 -5.035,7.55 -3.777,7.56 -3.774,7.55 -3.781,7.55 -2.516,8.82 -2.515,8.81 -5.036,16.36 -2.515,18.88 v 18.88 8.82 10.07 l 1.258,8.81 1.257,8.81 2.516,8.81 2.52,8.81 2.515,7.55 2.516,8.82 3.781,7.55 3.774,7.56 3.777,7.55 2.516,3.77 2.519,3.78 10.07,13.85 5.036,6.29 6.296,7.55 6.293,6.3 7.555,5.03 13.844,11.33 15.105,8.81 7.555,3.78 7.551,3.78 7.554,2.52 8.809,2.51 7.555,2.52 8.808,2.52 18.887,2.52 h 17.621 16.367 l 8.809,-1.26 7.555,-2.52 15.105,-3.78 6.293,-2.51 7.551,-3.78 12.59,-7.56 12.589,-8.81 12.586,-11.33 6.293,-6.29 5.036,-6.3 -1.258,45.32 h 78.047 v -346.17 z m -203.926,176.24 v -11.34 l 1.258,-10.07 2.519,-10.07 2.516,-8.81 5.035,-8.81 5.035,-8.81 6.293,-8.81 6.297,-7.55 7.551,-6.3 8.812,-6.29 8.813,-5.04 8.812,-3.78 8.809,-2.52 10.074,-2.51 11.328,-1.26 10.071,-1.26 10.07,1.26 10.07,1.26 8.813,2.51 10.07,2.52 7.551,5.04 8.812,5.03 7.551,5.04 7.555,7.55 7.554,7.55 5.032,7.56 5.039,7.55 5.035,8.81 2.516,8.82 2.515,8.81 1.262,10.07 v 10.07 10.07 l -1.262,11.33 -2.515,8.81 -3.778,10.07 -3.773,8.81 -5.039,8.81 -6.293,7.56 -6.293,7.55 -7.555,7.55 -8.812,5.04 -7.551,5.03 -10.07,5.04 -8.813,2.51 -10.07,2.52 -10.067,1.26 -11.332,1.26 -10.07,-1.26 -10.07,-1.26 -8.813,-2.52 -8.808,-2.51 -8.813,-3.78 -8.812,-5.04 -7.555,-6.29 -7.551,-6.29 -7.555,-7.56 -5.035,-7.55 -5.035,-8.81 -5.035,-7.55 -2.516,-10.08 -2.519,-8.8 -1.258,-10.08 v -10.06"
         style="fill:#0b0c0b;fill-opacity:1;fill-rule:evenodd;stroke:none"
         id="path16" />
      <path
         d="m 903.57,1266.53 v 274.42 h -52.871 v 71.75 h 52.871 v 112.03 h 80.563 V 1612.7 h 54.137 v -71.75 H 984.133 V 1266.53 H 903.57"
         style="fill:#0b0c0b;fill-opacity:1;fill-rule:evenodd;stroke:none"
         id="path18" />
      <path
         d="m 1194.35,1266.53 v 458.2 h 79.31 v -458.2 h -79.31"
         style="fill:#0b0c0b;fill-opacity:1;fill-rule:evenodd;stroke:none"
         id="path20" />
      <path
         d="m 1500.24,1543.47 h -11.33 l -8.81,-1.26 -10.07,-2.52 -8.81,-2.52 -7.55,-5.03 -8.81,-5.03 -6.3,-5.04 -7.55,-7.55 -6.3,-7.56 -5.03,-7.55 -5.04,-8.81 -3.77,-8.81 -1.26,-5.04 -1.26,-5.04 -2.52,-10.06 -1.26,-10.08 v -11.32 -11.33 l 1.26,-10.07 2.52,-10.08 2.52,-10.06 3.77,-8.82 5.04,-8.81 5.03,-7.55 6.3,-7.55 7.55,-6.3 7.56,-6.29 3.77,-2.52 5.04,-2.51 7.55,-3.79 10.07,-2.51 8.81,-2.52 11.33,-1.26 10.07,-1.26 11.33,1.26 10.07,1.26 10.07,2.52 8.81,2.51 8.81,3.79 7.56,5.03 7.55,6.29 7.56,6.3 6.28,7.55 5.04,8.81 5.04,8.81 3.77,8.81 1.26,5.04 1.26,5.04 2.52,11.32 1.26,10.07 v 12.59 10.07 l -1.26,11.33 -2.52,8.81 -3.78,10.07 -3.77,8.82 -5.04,7.55 -5.03,7.55 -7.55,7.55 -6.3,6.3 -5.03,3.77 -3.78,2.52 -7.55,5.04 -8.81,3.77 -10.08,2.52 -10.07,2.52 -10.06,1.26 z M 1321.49,1441.5 v 18.89 l 1.26,8.81 1.26,8.81 2.52,7.55 2.52,8.82 1.25,3.77 1.27,5.03 2.51,7.56 3.78,7.55 3.77,8.82 5.04,7.55 3.78,7.55 6.29,6.29 5.04,7.56 12.58,13.84 13.85,12.59 13.84,11.33 7.56,3.78 7.55,5.03 15.11,7.55 16.36,5.04 8.81,2.52 7.56,2.52 8.81,1.26 8.81,1.25 h 18.88 8.82 10.06 l 8.82,-1.25 8.81,-1.26 8.81,-2.52 8.81,-1.26 8.81,-3.78 7.56,-2.52 16.36,-7.55 7.55,-3.77 7.55,-5.04 7.56,-5.03 6.29,-6.3 7.56,-5.03 6.29,-7.56 12.59,-12.58 11.33,-15.11 5.03,-6.3 3.78,-7.55 7.55,-16.36 2.52,-7.55 3.77,-8.82 1.26,-7.55 2.52,-8.81 1.26,-8.81 1.26,-8.81 v -8.82 l 1.26,-10.06 -1.26,-8.82 v -10.07 l -1.26,-8.81 -1.26,-10.07 -1.26,-8.81 -2.52,-8.81 -6.29,-16.37 -7.55,-16.36 -3.78,-7.56 -5.03,-7.55 -5.04,-7.55 -5.04,-7.55 -12.58,-13.85 -13.85,-12.59 -13.84,-10.07 -7.56,-5.03 -7.55,-5.04 -7.55,-3.78 -8.82,-3.77 -7.55,-2.52 -8.81,-2.52 -8.81,-2.52 -8.81,-1.25 -8.82,-2.52 h -8.81 l -18.88,-1.26 -18.88,1.26 h -8.81 l -8.82,2.52 -17.62,3.77 -8.81,2.52 -7.55,2.52 -8.81,3.77 -7.56,3.78 -7.55,5.04 -7.55,5.03 -6.3,5.03 -7.55,5.04 -6.29,6.3 -7.56,6.29 -6.29,7.55 -5.03,6.3 -11.33,15.1 -8.82,15.11 -3.77,7.55 -3.78,7.55 -2.51,8.82 -2.52,8.81 -2.52,7.55 -2.52,8.81 -2.52,18.88 v 18.88"
         style="fill:#f36717;fill-opacity:1;fill-rule:evenodd;stroke:none"
         id="path22" />
      <path
         d="m 1825.02,1612.7 v -39.02 l 5.03,5.03 5.04,6.3 8.8,8.81 11.34,8.81 5.03,2.52 6.29,3.78 11.33,5.03 6.3,1.26 6.29,1.26 13.85,2.52 6.29,1.26 h 7.56 l 8.81,-1.26 h 8.81 l 17.62,-2.52 7.55,-2.52 7.56,-2.51 7.55,-2.52 7.56,-3.78 6.29,-3.78 6.29,-3.77 6.29,-5.04 6.3,-5.04 5.04,-5.03 6.29,-6.29 5.03,-6.3 5.04,-6.29 5.03,-10.07 5.04,-11.33 3.78,-10.07 3.77,-12.59 2.52,-12.59 1.26,-16.36 1.26,-18.89 v -21.39 -183.79 h -80.57 v 153.58 l -1.25,16.36 v 16.36 l -1.26,13.85 -2.52,12.59 -2.52,11.33 -2.51,10.07 -2.52,7.55 -3.78,7.55 -5.04,6.3 -5.03,5.04 -6.29,3.77 -6.3,3.78 -7.55,2.51 -7.55,2.52 -8.82,1.26 h -8.81 -10.07 l -8.81,-1.26 -8.81,-2.52 -7.55,-2.51 -6.3,-5.04 -6.29,-3.78 -5.03,-6.29 -5.04,-6.29 -2.52,-3.78 -2.52,-3.78 -2.51,-10.07 -3.78,-10.07 -2.52,-11.33 -1.26,-12.58 -1.26,-13.85 -1.25,-16.37 v -16.36 -148.54 h -78.05 v 346.17 h 78.05"
         style="fill:#0b0c0b;fill-opacity:1;fill-rule:evenodd;stroke:none"
         id="path24" />
      <path
         d="M 51.3594,1213.66 1025.68,919.102 1064.7,319.91 106.75,477.262 51.3594,1213.66"
         style="fill:#aeabab;fill-opacity:1;fill-rule:evenodd;stroke:none"
         id="path26" />
      <path
         d="m 53.8789,1221.21 -6.2969,-15.1 974.318,-294.559 6.29,15.105 -974.3111,294.554"
         style="fill:#aeabab;fill-opacity:1;fill-rule:evenodd;stroke:none"
         id="path28" />
      <path
         d="m 1033.23,919.102 -16.37,-1.258 39.03,-599.192 16.36,1.258 -39.02,599.192"
         style="fill:#aeabab;fill-opacity:1;fill-rule:evenodd;stroke:none"
         id="path30" />
      <path
         d="m 1028.19,926.656 5.04,-1.258 v -6.296 l -16.37,-1.258 5.04,-6.293 6.29,15.105"
         style="fill:#aeabab;fill-opacity:1;fill-rule:evenodd;stroke:none"
         id="path32" />
      <path
         d="m 1062.18,312.359 3.78,15.106 -957.952,157.348 -3.778,-15.106 957.95,-157.348"
         style="fill:#aeabab;fill-opacity:1;fill-rule:evenodd;stroke:none"
         id="path34" />
      <path
         d="m 1072.25,319.91 v -8.812 l -10.07,1.261 3.78,15.106 -10.07,-8.813 16.36,1.258"
         style="fill:#aeabab;fill-opacity:1;fill-rule:evenodd;stroke:none"
         id="path36" />
      <path
         d="M 99.1953,477.262 H 114.301 L 58.9141,1213.66 H 43.8086 L 99.1953,477.262"
         style="fill:#aeabab;fill-opacity:1;fill-rule:evenodd;stroke:none"
         id="path38" />
      <path
         d="m 104.23,469.707 -5.0347,1.258 v 6.297 h 15.1057 l -6.293,7.551 -3.778,-15.106"
         style="fill:#aeabab;fill-opacity:1;fill-rule:evenodd;stroke:none"
         id="path40" />
      <path
         d="m 43.8086,1213.66 -1.2578,11.33 11.3281,-3.78 -6.2969,-15.1 11.3321,7.55 H 43.8086"
         style="fill:#aeabab;fill-opacity:1;fill-rule:evenodd;stroke:none"
         id="path42" />
      <path
         d="M 3.52344,1087.78 H 904.828 v -15.1 H 3.52344 v 15.1"
         style="fill:#0b0c0b;fill-opacity:1;fill-rule:evenodd;stroke:none"
         id="path44" />
      <path
         d="m 179.758,2033.14 h 15.105 V 593.07 h -15.105 v 1440.07"
         style="fill:#0b0c0b;fill-opacity:1;fill-rule:evenodd;stroke:none"
         id="path46" />
      <path
         d="m 2101.95,1689.49 h 15.1 V 984.559 h -15.1 v 704.931"
         style="fill:#0b0c0b;fill-opacity:1;fill-rule:evenodd;stroke:none"
         id="path48" />
      <path
         d="M 386.203,406.766 H 1599.69 V 391.66 H 386.203 v 15.106"
         style="fill:#0b0c0b;fill-opacity:1;fill-rule:evenodd;stroke:none"
         id="path50" />
      <path
         d="M 3.52344,1877.05 H 1903.06 v -15.1 H 3.52344 v 15.1"
         style="fill:#0b0c0b;fill-opacity:1;fill-rule:evenodd;stroke:none"
         id="path52" />
      <path
         d="m 1102.46,2038.18 h 15.11 v -762.84 h -15.11 v 762.84"
         style="fill:#0b0c0b;fill-opacity:1;fill-rule:evenodd;stroke:none"
         id="path54" />
      <path
         d="m 1101.2,1188.48 h 15.11 V 980.781 h -15.11 v 207.699"
         style="fill:#f36717;fill-opacity:1;fill-rule:evenodd;stroke:none"
         id="path56" />
      <path
         d="m 989.168,1087.78 h 230.362 v -15.1 H 989.168 v 15.1"
         style="fill:#f36717;fill-opacity:1;fill-rule:evenodd;stroke:none"
         id="path58" />
      <path
         d="m 179.758,507.473 h 15.105 V 299.77 h -15.105 v 207.703"
         style="fill:#f36717;fill-opacity:1;fill-rule:evenodd;stroke:none"
         id="path60" />
      <path
         d="M 67.7227,406.766 H 298.086 V 391.66 H 67.7227 v 15.106"
         style="fill:#f36717;fill-opacity:1;fill-rule:evenodd;stroke:none"
         id="path62" />
      <path
         d="m 1101.2,882.598 h 15.11 V 1.43359 H 1101.2 V 882.598"
         style="fill:#0b0c0b;fill-opacity:1;fill-rule:evenodd;stroke:none"
         id="path64" />
      <path
         d="m 1317.72,1087.78 h 983.12 v -15.1 h -983.12 v 15.1"
         style="fill:#0b0c0b;fill-opacity:1;fill-rule:evenodd;stroke:none"
         id="path66" />
      <path
         d="m 2101.95,1976.5 h 15.1 v -207.71 h -15.1 v 207.71"
         style="fill:#f36717;fill-opacity:1;fill-rule:evenodd;stroke:none"
         id="path68" />
      <path
         d="m 1989.92,1875.79 h 230.36 v -15.11 h -230.36 v 15.11"
         style="fill:#f36717;fill-opacity:1;fill-rule:evenodd;stroke:none"
         id="path70" />
      <g
         id="g72"
         transform="scale(10)">
        <text
           xml:space="preserve"
           transform="matrix(1,0,0,-1,118.381,70.0734)"
           style="font-variant:normal;font-weight:normal;font-size:17.9997px;font-family:Arial;-inkscape-font-specification:Arial;writing-mode:lr-tb;fill:#231f20;fill-opacity:1;fill-rule:nonzero;stroke:none"
           id="text78"><tspan
             x="0 5.9939003 16.001734 26.009567 41.003315 51.01115 61.018982 70.018829 80.026665 90.0345 100.04234 110.05016"
             y="0"
             sodipodi:role="line"
             id="tspan74">raumbezogene</tspan><tspan
             x="0 3.9959333 14.003767 19.007683 29.015516 35.009415 50.003166 60.011002 65.014915 69.010849 79.018684 89.02652 98.026367 107.02621 116.02607 125.02592 130.02983 140.03766 155.03142"
             y="20.108601"
             sodipodi:role="line"
             id="tspan76">informationssysteme</tspan></text>
      </g>
    </g>
  </g>
</svg>
