<?xml version="1.0" encoding="UTF-8" standalone="no"?>
<svg
   id="logo"
   viewBox="0 0 781.43756 143.73587"
   version="1.1"
   width="781.43756"
   height="143.73587"
   xmlns="http://www.w3.org/2000/svg"
   xmlns:svg="http://www.w3.org/2000/svg">
  <defs
     id="defs4457">
    <style
       id="style4455">.cls-1{fill:#00a884;}</style>
  </defs>
  <g
     id="g4473"
     transform="matrix(1.1218847,0,0,1.1218847,-54.501159,-63.285516)">
    <g
       id="g4467">
      <path
         class="cls-1"
         d="m 476.89,95.27 h 18.22 v 7.4 c 4.46,-5.98 9.97,-8.73 17.08,-8.73 6.65,0 11.2,2.66 15,8.73 4.84,-5.98 10.44,-8.83 17.84,-8.83 11.86,0 18.7,6.46 18.7,17.46 v 34.36 H 543.99 V 118.7 c 0,-6.17 -1.9,-9.02 -6.74,-9.02 -4.84,0 -7.12,2.94 -7.12,9.21 v 26.77 h -19.65 v -26.29 c 0,-6.74 -1.9,-9.68 -7.02,-9.68 -4.46,0 -6.83,3.04 -6.83,8.92 v 27.05 h -19.74 v -50.4 z"
         id="path4459" />
      <path
         class="cls-1"
         d="m 605.88,140.83 c -5.13,4.56 -10.92,6.64 -18.32,6.64 -11.48,0 -17.84,-5.88 -17.84,-16.04 0,-11.2 7.02,-14.33 21.92,-16.23 9.68,-1.23 13.86,-0.76 13.86,-5.41 0,-2.94 -2.37,-4.18 -7.21,-4.18 -4.18,0 -6.36,1.61 -6.74,5.03 H 572 c 0.19,-11.3 9.3,-17.18 26.96,-17.18 9.21,0 16.23,1.99 19.65,4.27 5.32,3.61 6.45,7.4 6.45,14.14 v 28.1 c 0,1.8 0.76,3.32 2.18,4.27 v 1.42 h -20.12 l -1.23,-4.84 z m -15.76,-9.97 c 0,2.85 1.99,4.56 5.69,4.56 6.74,0 9.59,-3.04 9.59,-9.68 0,-0.85 0,-1.71 -0.1,-2.56 -9.3,3.51 -15.19,2.85 -15.19,7.69 z"
         id="path4461" />
      <path
         class="cls-1"
         d="m 633.88,95.27 h 17.75 v 6.45 c 3.99,-5.41 9.11,-7.78 16.33,-7.78 12.81,0 21.92,10.44 21.92,26.67 0,16.23 -8.83,26.77 -22.31,26.77 -6.17,0 -10.72,-1.99 -14.24,-6.45 v 24.96 H 633.87 V 95.27 Z m 27.91,13.67 c -5.98,0 -8.45,3.7 -8.45,11.67 0,7.97 2.75,11.39 8.26,11.39 5.51,0 8.26,-3.8 8.26,-11.39 0,-7.59 -2.56,-11.67 -8.07,-11.67 z"
         id="path4463" />
      <path
         class="cls-1"
         d="m 712.19,129.82 c 0,4.27 2.18,6.36 6.55,6.36 4.37,0 6.55,-1.52 6.55,-4.18 0,-3.61 -2.85,-3.99 -8.45,-5.22 -15.57,-3.32 -22.78,-6.07 -22.78,-16.71 0,-10.64 8.45,-16.61 24.77,-16.61 15.09,0 23.35,5.41 24.58,15.85 h -18.03 c -0.28,-2.94 -2.75,-4.94 -6.36,-4.94 -3.61,0 -5.41,1.33 -5.41,3.51 0,3.61 3.32,3.61 9.59,5.03 15,3.42 21.92,6.17 21.92,17.08 0,11.48 -9.02,17.46 -26.67,17.46 -16.33,0 -24.87,-5.88 -25.72,-17.65 h 19.46 z"
         id="path4465" />
    </g>
    <polygon
       class="cls-1"
       points="112.64,77.77 112.64,56.41 176.7,56.41 176.7,184.53 112.64,184.53 112.64,163.18 155.34,163.18 155.34,77.77 "
       id="polygon4469" />
    <path
       class="cls-1"
       d="m 78.08,120.47 c 0,19.09 15.47,34.55 34.55,34.55 v -69.1 c -19.09,0 -34.55,15.47 -34.55,34.55 z"
       id="path4471" />
  </g>
  <g
     id="g4493"
     transform="matrix(1.1218847,0,0,1.1218847,-54.501159,-63.285516)">
    <g
       id="g4487">
      <path
         d="m 258.56,114.07 c 0,-8.83 -1.61,-13 -9.11,-13 -7.97,0 -12.72,5.13 -12.72,14.24 v 29.33 h -8.45 v -30.56 c 0,-8.83 -1.61,-13 -9.11,-13 -7.88,0 -12.72,5.22 -12.72,14.24 v 29.33 H 198.1 V 95.01 h 7.97 v 7.02 c 3.7,-5.6 8.64,-8.26 15.47,-8.26 6.26,0 10.44,2.47 13.57,7.78 4.27,-5.32 9.21,-7.78 15.95,-7.78 6.74,0 11.39,2.47 13.86,6.74 1.9,3.42 1.99,7.59 1.99,12.91 v 31.23 h -8.35 v -30.56 z"
         id="path4475" />
      <path
         d="m 318.35,128.59 c -1.8,11.01 -10.06,17.65 -21.74,17.65 -13.67,0 -22.31,-9.78 -22.31,-25.91 0,-17.18 8.64,-26.96 22.31,-26.96 13.67,0 22.4,9.02 22.4,25.15 0,1.23 0,2.47 -0.09,3.7 h -35.88 c 0.19,10.54 5.51,16.42 14.33,16.42 6.83,0 11.39,-3.61 12.72,-10.06 h 8.26 z m -8.07,-13.29 c -0.09,-9.4 -4.94,-14.52 -13.38,-14.52 -8.44,0 -13.1,5.03 -13.86,14.52 z"
         id="path4477" />
      <path
         d="m 325.76,94.99 h 8.07 v 8.92 c 2.66,-6.74 7.21,-9.97 13.76,-9.97 0.76,0 1.42,0 2.18,0.09 v 8.83 c -0.66,-0.09 -1.33,-0.09 -1.99,-0.09 -8.92,0 -13.67,4.94 -13.67,14.24 v 27.62 h -8.35 z"
         id="path4479" />
      <path
         d="m 374.35,146.24 c -13.29,0 -22.31,-10.44 -22.31,-26.58 0,-16.14 8.92,-26.29 22.4,-26.29 7.5,0 11.96,3.23 15.66,7.88 v -6.26 h 8.07 v 48.6 c 0,15.09 -6.65,21.73 -23.16,21.73 -13.38,0 -20.98,-5.6 -20.98,-14.52 v -0.38 h 8.16 v 0.19 c 0,5.13 4.37,7.69 13.1,7.69 10.73,0 14.81,-3.89 14.81,-12.91 v -6.83 c -3.89,5.13 -9.11,7.69 -15.76,7.69 z m -13.57,-26.39 c 0,12.05 5.6,18.89 14.71,18.89 10.16,0 14.9,-5.98 14.9,-18.6 0,-12.62 -5.13,-19.27 -15,-19.27 -9.3,0 -14.62,6.64 -14.62,18.98 z"
         id="path4481" />
      <path
         d="m 408.05,76.39 h 8.35 v 9.49 h -8.35 z m 0,18.6 h 8.35 v 49.64 h -8.35 z"
         id="path4483" />
      <path
         d="m 459.3,114.07 c 0,-8.83 -1.99,-12.91 -9.97,-12.91 -9.21,0 -14.71,5.41 -14.71,15.19 v 28.29 h -8.35 V 95 h 7.97 v 7.21 c 3.8,-5.69 9.02,-8.45 15.95,-8.45 7.5,0 12.62,2.28 15.38,6.74 2.09,3.23 2.18,7.12 2.18,11.96 v 32.18 h -8.45 v -30.56 z"
         id="path4485" />
    </g>
    <polygon
       points="112.64,77.77 112.64,56.41 48.58,56.41 48.58,184.53 112.64,184.53 112.64,163.18 69.93,163.18 69.93,77.77 "
       id="polygon4489" />
    <path
       d="m 147.19,120.47 c 0,19.09 -15.47,34.55 -34.55,34.55 v -69.1 c 19.09,0 34.55,15.47 34.55,34.55 z"
       id="path4491" />
  </g>
</svg>
