<?xml version="1.0" encoding="UTF-8" standalone="no"?>
<!-- Created with Inkscape (http://www.inkscape.org/) -->

<svg
   version="1.1"
   width="500.00003"
   height="354.55301"
   id="svg2"
   xml:space="preserve"
   sodipodi:docname="OGG-logo2012_mettekst_nomargin.svg"
   inkscape:version="1.1.2 (0a00cf5339, 2022-02-04)"
   xmlns:inkscape="http://www.inkscape.org/namespaces/inkscape"
   xmlns:sodipodi="http://sodipodi.sourceforge.net/DTD/sodipodi-0.dtd"
   xmlns="http://www.w3.org/2000/svg"
   xmlns:svg="http://www.w3.org/2000/svg"
   xmlns:rdf="http://www.w3.org/1999/02/22-rdf-syntax-ns#"
   xmlns:cc="http://creativecommons.org/ns#"
   xmlns:dc="http://purl.org/dc/elements/1.1/"><sodipodi:namedview
     id="namedview32"
     pagecolor="#ffffff"
     bordercolor="#000000"
     borderopacity="0.25"
     inkscape:pageshadow="2"
     inkscape:pageopacity="0.0"
     inkscape:pagecheckerboard="0"
     showgrid="false"
     units="px"
     width="132.29167mm"
     inkscape:zoom="1.746"
     inkscape:cx="245.4181"
     inkscape:cy="250"
     inkscape:window-width="2502"
     inkscape:window-height="1376"
     inkscape:window-x="58"
     inkscape:window-y="27"
     inkscape:window-maximized="1"
     inkscape:current-layer="svg2" /><metadata
     id="metadata8"><rdf:RDF><cc:Work
         rdf:about=""><dc:format>image/svg+xml</dc:format><dc:type
           rdf:resource="http://purl.org/dc/dcmitype/StillImage" /></cc:Work></rdf:RDF></metadata><defs
     id="defs6"><clipPath
       id="clipPath356"><path
         d="m 12321.9,735.398 c -60.1,63.094 -97,148.414 -97,242.215 0,96.947 39.4,184.797 103.1,248.497 63.7,63.69 151.5,103.1 248.5,103.1 114.9,0 217.2,-55.47 281.4,-141.09 l 6.6,-8.79 6.6,8.79 c 64.2,85.62 166.5,141.09 281.4,141.09 97,0 184.9,-39.41 248.5,-103.1 63.7,-63.7 103.1,-151.55 103.1,-248.497 0,-91.238 -34.9,-174.457 -92.1,-237.004 -27.7,13.188 -56.6,25.387 -86.7,36.504 56.1,48.703 91.7,120.528 91.7,200.492 v 44.945 h -213.9 c -12.3,12.91 -29.1,20.21 -47.1,20.21 -36,0 -65.2,-29.26 -65.2,-65.155 0,-35.984 29.2,-65.242 65.2,-65.242 18,0 34.8,7.289 47.1,20.254 h 118.1 c -14.8,-56.57 -56.3,-100.82 -109.5,-120.051 -55.7,14.36 -114.1,25.293 -174.8,32.383 -37.2,32.203 -60.7,79.727 -60.7,132.656 0,96.695 78.7,175.395 175.4,175.395 65.5,0 125,-35.89 155.3,-93.76 l 4,-7.6 h 96.2 l -7.1,19.18 c -38.6,102.95 -138.3,172.11 -248.4,172.11 -146.3,0 -265.3,-119.01 -265.3,-265.325 0,-44.695 11.1,-86.859 30.7,-123.859 -14.8,0.461 -29.7,0.692 -44.7,0.692 -20.7,0 -41.1,-0.442 -61.5,-1.309 19.8,37.144 31.1,79.531 31.1,124.476 0,146.315 -119,265.325 -265.4,265.325 -146.3,0 -265.3,-119.01 -265.3,-265.325 0,-82.351 37.7,-156.066 96.7,-204.785 -29.8,-11.433 -58.6,-23.933 -86,-37.422 m 202,74.782 c -71.2,22.422 -122.8,88.984 -122.8,167.425 0,96.695 78.7,175.395 175.4,175.395 96.8,0 175.5,-78.7 175.5,-175.395 0,-54.261 -24.8,-102.839 -63.5,-135.054 -57.1,-7.496 -112.2,-18.406 -164.6,-32.371 m 52.6,232.58 c -35.9,0 -65.1,-29.26 -65.1,-65.19 0,-35.949 29.2,-65.207 65.1,-65.207 36,0 65.2,29.258 65.2,65.207 0,35.93 -29.2,65.19 -65.2,65.19"
         id="path358" /></clipPath><clipPath
       id="clipPath368"><path
         d="m 12314.2,731.598 c -60.4,64.382 -97.5,150.906 -97.5,246.015 0,198.417 161.4,359.847 359.8,359.847 117.7,0 222.3,-56.79 288,-144.39 65.7,87.6 170.4,144.39 288,144.39 198.5,0 359.9,-161.43 359.9,-359.847 0,-92.508 -35.1,-176.929 -92.7,-240.726 -2.6,1.25 -5.1,2.492 -7.7,3.722 57.2,62.547 92.1,145.766 92.1,237.004 0,96.947 -39.4,184.797 -103.1,248.497 -63.6,63.69 -151.5,103.1 -248.5,103.1 -114.9,0 -217.2,-55.47 -281.4,-141.09 l -6.6,-8.79 -6.6,8.79 c -64.2,85.62 -166.5,141.09 -281.4,141.09 -97,0 -184.8,-39.41 -248.5,-103.1 -63.7,-63.7 -103.1,-151.55 -103.1,-248.497 0,-93.801 36.9,-179.121 97,-242.215 -2.5,-1.257 -5.1,-2.527 -7.7,-3.8"
         id="path370" /></clipPath><clipPath
       id="clipPath380"><path
         d="m 12407.9,772.82 c -59,48.719 -96.7,122.434 -96.7,204.785 0,146.315 119,265.325 265.3,265.325 146.4,0 265.4,-119.01 265.4,-265.325 0,-44.945 -11.3,-87.332 -31.1,-124.476 -41.6,-1.774 -82.5,-5.34 -122.3,-10.578 38.7,32.215 63.5,80.793 63.5,135.054 0,96.695 -78.7,175.395 -175.5,175.395 -96.7,0 -175.4,-78.7 -175.4,-175.395 0,-78.441 51.6,-145.003 122.8,-167.425 -40.3,-10.707 -79,-23.219 -116,-37.36"
         id="path382" /></clipPath><clipPath
       id="clipPath396"><path
         d="m 12576.5,912.363 c -35.9,0 -65.1,29.258 -65.1,65.207 0,35.93 29.2,65.19 65.1,65.19 36,0 65.2,-29.26 65.2,-65.19 0,-35.949 -29.2,-65.207 -65.2,-65.207"
         id="path398" /></clipPath><clipPath
       id="clipPath412"><path
         d="m 13325.3,777.113 c -36.3,13.434 -74.2,25.297 -113.6,35.453 53.2,19.231 94.7,63.481 109.5,120.051 h -118.1 c -12.3,-12.965 -29.1,-20.254 -47.1,-20.254 -36,0 -65.2,29.258 -65.2,65.242 0,35.895 29.2,65.155 65.2,65.155 18,0 34.8,-7.3 47.1,-20.21 h 213.9 v -44.945 c 0,-79.964 -35.6,-151.789 -91.7,-200.492 m -288.4,67.836 c -39.1,4.567 -79.2,7.539 -119.9,8.797 -19.6,37 -30.7,79.164 -30.7,123.859 0,146.315 119,265.325 265.3,265.325 110.1,0 209.8,-69.16 248.4,-172.11 l 7.1,-19.18 h -96.2 l -4,7.6 c -30.3,57.87 -89.8,93.76 -155.3,93.76 -96.7,0 -175.4,-78.7 -175.4,-175.395 0,-52.929 23.5,-100.453 60.7,-132.656"
         id="path414" /></clipPath></defs><g
     transform="matrix(1.5820917,0,0,-1.5820917,-67.343556,491.47013)"
     id="g10"><path
       d="m 66.667546,275.15767 c -6.761836,0 -12.310604,5.49223 -12.310604,13.00366 0,6.01121 5.548768,11.50172 12.310604,11.50172 6.761148,0 12.310603,-5.49051 12.310603,-11.50172 0,-7.51143 -5.549455,-13.00366 -12.310603,-13.00366 z m 0,35.48812 c -12.542082,0 -24.101546,-9.2488 -24.101546,-22.42603 0,-14.10349 10.114747,-24.04312 24.101546,-24.04312 13.986799,0 24.101542,9.93963 24.101542,24.04312 0,13.17723 -11.559976,22.42603 -24.101542,22.42603"
       id="path18"
       style="fill:#241d10;fill-opacity:1;fill-rule:nonzero;stroke:none" /><path
       d="m 107.35834,300.06861 h 1.90784 c 4.39155,0 8.14796,-0.0584 8.14796,-5.54894 0,-5.31695 -4.04511,-5.31695 -8.14796,-5.31695 h -1.90784 z m 0,-19.99784 h 6.41539 c 9.88395,0 15.43272,4.50755 15.43272,14.79603 0,9.99806 -6.47451,14.33376 -15.83742,14.33376 H 96.029152 v -43.57868 h 11.329188 v 14.44889"
       id="path20"
       style="fill:#241d10;fill-opacity:1;fill-rule:nonzero;stroke:none" /><path
       d="m 159.02998,275.2161 h -13.46644 v 7.51143 h 12.7703 v 9.59593 h -12.7703 v 7.28116 h 13.46644 v 9.59594 h -24.79426 v -43.57868 h 24.79426 v 9.59422"
       id="path22"
       style="fill:#241d10;fill-opacity:1;fill-rule:nonzero;stroke:none" /><path
       d="m 177.35386,292.32346 h 0.1141 l 20.74915,-26.70158 h 11.32644 v 43.57868 h -11.32644 v -26.64488 h -0.11514 l -20.74811,26.64488 h -11.32918 v -43.57868 h 11.32918 v 26.70158"
       id="path24"
       style="fill:#241d10;fill-opacity:1;fill-rule:nonzero;stroke:none" /><path
       d="m 253.12566,281.05374 h 9.24881 c -0.46399,-5.02825 -4.22228,-7.57158 -9.13367,-7.57158 -7.45643,0 -11.50171,6.87732 -11.50171,13.6395 0,6.64704 3.87171,13.75463 11.32814,13.75463 4.56598,0 7.86029,-2.77361 9.42066,-6.93575 l 10.75075,4.50927 c -3.7583,8.14898 -10.69233,12.19598 -19.65243,12.19598 -14.04332,0 -23.63926,-9.30723 -23.63926,-23.46742 0,-13.69621 9.53751,-23.00173 23.2337,-23.00173 7.2846,0 13.69965,2.60177 17.97692,8.55455 3.87171,5.43208 4.3357,10.86417 4.44912,17.2225 h -22.48103 v -8.89995"
       id="path26"
       style="fill:#241d10;fill-opacity:1;fill-rule:nonzero;stroke:none" /><path
       d="m 305.60602,275.2161 h -13.46593 v 7.51143 h 12.77167 v 9.59593 h -12.77167 v 7.28116 h 13.46593 v 9.59594 h -24.79409 v -43.57868 h 24.79409 v 9.59422"
       id="path28"
       style="fill:#241d10;fill-opacity:1;fill-rule:nonzero;stroke:none" /><path
       d="m 334.50381,275.15767 c -6.76046,0 -12.3094,5.49223 -12.3094,13.00366 0,6.01121 5.54894,11.50172 12.3094,11.50172 6.76218,0 12.31112,-5.49051 12.31112,-11.50172 0,-7.51143 -5.54894,-13.00366 -12.31112,-13.00366 z m 0,35.48812 c -12.5414,0 -24.09982,-9.2488 -24.09982,-22.42603 0,-14.10349 10.11491,-24.04312 24.09982,-24.04312 13.98834,0 24.09982,9.93963 24.09982,24.04312 0,13.17723 -11.55843,22.42603 -24.09982,22.42603"
       id="path30"
       style="fill:#241d10;fill-opacity:1;fill-rule:nonzero;stroke:none" /><path
       d="M 265.24603,217.58549 H 251.7801 v 7.51315 h 12.76995 v 9.59421 H 251.7801 v 7.28288 h 13.46593 v 9.59422 h -24.79408 v -43.57868 h 24.79408 v 9.59422"
       id="path32"
       style="fill:#241d10;fill-opacity:1;fill-rule:nonzero;stroke:none" /><path
       d="m 138.01086,215.10058 c 3.87206,5.43208 4.3345,10.86588 4.4486,17.22422 h -22.47965 v -8.90167 h 9.24675 c -0.46312,-5.02824 -4.22091,-7.57158 -9.13264,-7.57158 -7.45593,0 -11.50103,6.87903 -11.50103,13.6395 0,6.64704 3.8712,13.75635 11.3285,13.75635 4.56666,0 7.86062,-2.77361 9.41927,-6.93575 l 10.75126,4.50927 c -3.75726,8.14726 -10.69215,12.19426 -19.65242,12.19426 -14.04299,0 -23.638239,-9.30551 -23.638239,-23.46571 0,-13.69792 9.538199,-23.00344 23.234229,-23.00344 7.28339,0 13.69947,2.60177 17.97537,8.55455"
       id="path34"
       style="fill:#241d10;fill-opacity:1;fill-rule:nonzero;stroke:none" /><path
       d="m 161.09077,232.03438 h -1.0962 v 10.86589 h 1.0962 c 3.70005,0 7.86063,-0.69426 7.86063,-5.4338 0,-4.73783 -4.16058,-5.43209 -7.86063,-5.43209 z m 19.65295,6.12635 c 0,9.30551 -6.53414,13.40922 -15.14522,13.40922 h -16.93175 v -43.57868 h 11.32782 v 16.76024 h 0.1141 l 10.69214,-16.76024 h 14.10159 l -13.69552,17.85834 c 6.18255,1.0981 9.53683,6.29991 9.53683,12.31112"
       id="path36"
       style="fill:#241d10;fill-opacity:1;fill-rule:nonzero;stroke:none" /><path
       d="m 222.18462,230.53244 c 0,-7.51315 -5.54894,-13.00366 -12.3094,-13.00366 -6.76219,0 -12.31113,5.49051 -12.31113,13.00366 0,6.00949 5.54894,11.50172 12.31113,11.50172 6.76046,0 12.3094,-5.49223 12.3094,-11.50172 z m -36.41233,0.0584 c 0,-14.10349 10.11629,-24.04484 24.10292,-24.04484 13.98664,0 24.0981,9.94135 24.0981,24.04484 0,13.17551 -11.5567,22.42431 -24.0981,22.42431 -12.54311,0 -24.10292,-9.2488 -24.10292,-22.42431"
       id="path38"
       style="fill:#241d10;fill-opacity:1;fill-rule:nonzero;stroke:none" /><path
       d="m 286.43305,231.57211 h -1.90579 V 242.438 h 1.90579 c 4.39413,0 8.14898,-0.0584 8.14898,-5.54722 0,-5.31867 -4.04528,-5.31867 -8.14898,-5.31867 z m 4.1037,19.99784 h -17.33764 v -43.57868 h 11.32815 v 14.44889 h 6.41333 c 9.88464,0 15.43187,4.50755 15.43187,14.79603 0,9.99806 -6.47176,14.33376 -15.83571,14.33376"
       id="path40"
       style="fill:#241d10;fill-opacity:1;fill-rule:nonzero;stroke:none" /><path
       d="m 201.03196,120.59332 c -3.70158,0 -6.71234,-3.01248 -6.71234,-6.71406 0,-3.7033 3.01077,-6.71406 6.71234,-6.71406 1.86111,0 3.59332,0.74925 4.8564,2.0845 H 218.062 c -2.06731,-7.88778 -9.16288,-13.447033 -17.47855,-13.447033 -9.96592,0 -18.07488,8.109463 -18.07488,18.076593 0,9.96541 8.10895,18.07315 18.07488,18.07315 6.745,0 12.87477,-3.70159 16.00239,-9.66296 l 0.41244,-0.7819 h 9.9087 l -0.74067,1.97624 c -3.96967,10.60468 -14.24955,17.73117 -25.58286,17.73117 -15.07288,0 -27.3345,-12.263 -27.3345,-27.3357 0,-15.074423 12.26162,-27.337423 27.3345,-27.337423 15.07442,0 27.33913,12.263 27.33913,27.337423 v 4.62956 h -22.03422 c -1.26308,1.33353 -2.99528,2.0845 -4.8564,2.0845"
       id="path42"
       style="fill:#f58113;fill-opacity:1;fill-rule:nonzero;stroke:none" /><path
       d="m 170.96064,147.48394 c -9.96594,0 -18.07488,8.10774 -18.07488,18.07487 0,9.96712 8.10894,18.07486 18.07488,18.07486 9.96574,0 18.07468,-8.10774 18.07468,-18.07486 0,-9.96713 -8.10894,-18.07487 -18.07468,-18.07487 z m 0,45.41057 c -15.07287,0 -27.33589,-12.263 -27.33589,-27.3357 0,-15.07442 12.26301,-27.33742 27.33589,-27.33742 15.07407,0 27.33552,12.263 27.33552,27.33742 0,15.0727 -12.26145,27.3357 -27.33552,27.3357"
       id="path44"
       style="fill:#edcb04;fill-opacity:1;fill-rule:nonzero;stroke:none" /><path
       d="m 170.96064,172.27287 c -3.70211,0 -6.71286,-3.01248 -6.71286,-6.7175 0,-3.69987 3.01076,-6.71234 6.71286,-6.71234 3.70278,0 6.71268,3.01247 6.71268,6.71234 0,3.70502 -3.0099,6.7175 -6.71268,6.7175"
       id="path46"
       style="fill:#edcb04;fill-opacity:1;fill-rule:nonzero;stroke:none" /><path
       d="m 230.65667,172.27287 c -3.70159,0 -6.71407,-3.01248 -6.71407,-6.71406 0,-3.70331 3.01248,-6.71578 6.71407,-6.71578 1.85939,0 3.58988,0.75097 4.8564,2.0845 h 12.17364 c -2.07075,-7.88606 -9.16461,-13.44359 -17.47856,-13.44359 -9.96541,0 -18.07487,8.10774 -18.07487,18.07487 0,9.96712 8.10946,18.07486 18.07487,18.07486 6.74328,0 12.87478,-3.7033 16.00068,-9.66295 l 0.41243,-0.78363 h 9.91041 l -0.74066,1.97625 c -3.96795,10.60467 -14.24954,17.73117 -25.58286,17.73117 -15.07269,0 -27.33398,-12.263 -27.33398,-27.3357 0,-15.07442 12.26129,-27.33742 27.33398,-27.33742 15.07443,0 27.3357,12.263 27.3357,27.33742 v 4.62784 h -22.03078 c -1.26652,1.33353 -2.99701,2.08622 -4.85639,2.08622"
       id="path48"
       style="fill:#f5970f;fill-opacity:1;fill-rule:nonzero;stroke:none" /></g></svg>
