<?xml version="1.0" encoding="utf-8"?>
<!-- Generator: Adobe Illustrator 22.1.0, SVG Export Plug-In . SVG Version: 6.00 Build 0)  -->
<svg version="1.1" id="Layer_1" xmlns="http://www.w3.org/2000/svg" xmlns:xlink="http://www.w3.org/1999/xlink" x="0px" y="0px"
	 viewBox="0 0 289.601 76.535" enable-background="new 0 0 289.601 76.535" xml:space="preserve">
<rect x="106.533" y="-106.533" transform="matrix(6.123234e-17 -1 1 6.123234e-17 106.5327 183.0682)" width="76.535" height="289.601"/>
<g>
	<path fill="#FFFFFF" d="M5.669,25.699l4.176-4.176l14.614,14.969L19.99,40.96L9.845,30.816l-4.176,4.176V25.699z M81.139,56.918
		c-0.664-0.056-2.011-1.045-2.6-1.323c-1.346-0.638-2.666-1.329-4.019-1.945c-2.783-1.266-5.529-2.916-8.42-3.899
		c-1.225-0.416-3.537-2.501-3.595-2.633c1.016-2.153,1.213-4.918,5.477-6.52c0.248,0.051,0.495,0.112,0.742,0.18
		c-0.024,0.051-0.047,0.108-0.07,0.169c-0.625,1.742-1.308,3.465-1.953,5.2c-0.242,0.648-0.543,1.246-1.151,1.736
		c0.41,0.286,0.847,0.315,1.218,0.503c0.733,0.374,1.429,0.206,2.086-0.175c0.806-0.468,1.642-0.925,1.781-2.072
		c0.168-1.387,0.504-2.743,1.088-4.01c0.637,0.407,1.281,0.9,1.938,1.495c0.196,0.178,0.395,0.368,0.594,0.566
		c-0.049,1.149-0.049,2.898-0.259,3.459c-0.371,0.987-1.101,1.502-2.14,1.564c-0.495,0.031-0.996,0.019-1.494-0.003
		c-0.321-0.012-0.637-0.046-1.083,0.079c1.684,0.527,3.191,1.164,4.73,1.716c0.689,0.246,1.398,0.437,2.148,0.405
		c1.03-0.043,1.594-0.504,1.807-1.513c0.038-0.18,0.038-0.368,0.088-0.544c0.075-0.278,0.082-1.228-0.099-1.452
		c-0.942-2.429-1.511-3.049-1.777-3.781l0.349-0.349l4.73,4.731c-0.013,0.464,0.001,1.117-0.012,1.184
		c-0.068,0.383-0.128,0.767-0.265,1.132c-0.183,0.488-0.544,0.744-1.059,0.774c-0.245,0.016-0.492,0.009-0.739-0.002
		c-0.16-0.005-3.714,0.166-1.227,0.386c0.832,0.26,2.202,0.469,2.964,0.741c0.341,0.122,0.758-0.023,1.129-0.038
		c0.509-0.021,0.788-0.249,0.894-0.749c0.028-0.134,0.014-0.275,0.102-0.394c0.205-0.278,0.3-0.656,0.249-0.999l0.699,0.7
		c0-0.001-0.001-0.002-0.002-0.002c-0.16,0.206-0.387,2.965-0.404,3.136C83.478,55.495,82.256,57.01,81.139,56.918 M86.425,48.43
		l-9.9-9.901l-2.955,2.955l-3.59-3.591l6.544-6.544l9.9,9.901V48.43z M86.425,55.118v7.614c-0.509-0.858-1.09-1.713-1.481-2.382
		C84.132,59.349,85.807,56.933,86.425,55.118 M86.425,36.011l-9.9-9.9l-9.164,9.163l-5.257-5.257l14.421-14.42l9.9,9.901V36.011z
		 M66.45,39.602c-1.099,0.172-4.24,0.9-4.417,1.225c-0.845,1.532-1.726,3.042-2.591,4.561c-0.438,0.77-0.402,0.713-1.376,0.532
		c-0.676-0.126-1.348-0.274-2.023-0.402c-0.397-0.075-0.792-0.075-1.191-0.083c-0.423-0.011-1.012,0.059-1.037,0.517
		c-0.054,0.979-0.37,3.056,4.332,4.41c1.396,0.402,10.177,4.419,11.731,6.016c0.59,0.605,7.661,6.665,9.905,10.094
		c0.908,1.388,1.759,2.804,2.2,4.393h-6.195c-0.311-0.967-0.841-1.835-1.444-2.661c-1.758-2.394-3.975-4.307-6.389-6.012
		c-1.284-0.904-2.67-1.651-3.905-2.631c-1.314-1.043-2.654-2.056-4.005-3.046c-3.673-2.698-7.465-5.229-11.188-7.86
		c-1.552-1.099-2.251-2.71-2.356-4.579c-0.044-0.808,0.339-1.117,1.179-1.04c0.758,0.071,1.508,0.188,2.235,0.42
		c1.301,0.416,2.629,0.689,4.002,0.697c0.672,0.004,1.314-0.157,1.867-0.518c1.288-0.836,2.999-3.931,8.361-3.543
		c-1.273-0.444-6.207-0.48-6.774-0.277L46.505,28.949l-6.688,6.836c0.667,0.228,1.376,0.482,2.132,0.754
		c0.957,1.192,3.008,4.262,3.775,5.557c-0.038,0.061-0.047,0.075-0.084,0.135c-0.94-0.06-1.681-0.423-2.274-1.081
		c-0.135-0.151-0.263-0.316-0.384-0.497c-0.406-0.61-0.74-1.279-1.186-1.836c-0.622-0.78-1.194-1.591-1.784-2.39
		c-0.2-0.272-0.458-0.417-0.758-0.526c-0.932-0.34-1.87-0.668-2.793-1.03c-1.277-0.499-2.577-0.355-3.879-0.181
		c-1.024,0.137-2.017,1.183-1.724,2.467c0.119,0.517,0.457,3.105,0.721,3.955c0.531,1.715,1.156,3.401,1.739,5.103
		c0.407,1.187,0.956,2.323,1.668,3.355c1.919,2.78,4.112,5.346,6.687,7.539c3.014,2.569,6.113,5.035,9.15,7.577
		c1.769,1.481,3.528,2.985,5.004,4.775c0.365,0.443,0.703,0.898,0.913,1.407H50.62c-0.08-0.196-0.173-0.389-0.281-0.57
		c-0.372-0.636-0.828-1.211-1.324-1.755c-1.842-2.022-3.924-3.789-5.984-5.578c-2.777-2.407-5.561-4.801-7.9-7.661
		c-1.464-1.79-2.842-3.62-3.752-5.772c-0.949-2.238-1.775-4.525-2.687-6.776c-0.149-0.366-0.204-0.754-0.229-1.15
		c-0.058-0.941-0.145-1.88-0.233-2.82c-0.097-1.055,0.038-2.08,0.467-3.033c0.711-0.415,1.586-0.748,2.682-0.938L46.52,19.671
		L66.45,39.602z M63.15,70.867c-0.033-0.078-0.068-0.154-0.104-0.229c-0.262-0.548-0.617-1.032-0.996-1.505
		c-1.346-1.673-3.042-2.966-4.701-4.287c-3.628-2.893-7.307-5.72-10.945-8.599c-1.378-1.087-2.812-2.113-4.031-3.388
		c-1.269-1.328-2.452-2.73-3.62-4.151c-0.916-1.111-1.543-2.326-1.961-3.709c-0.423-1.401-0.236-2.694,0.272-3.983
		c0.342-0.864,0.989-1.137,1.889-0.868c0.75,0.227,1.498,0.466,2.238,0.723c0.757,0.262,1.5,0.557,2.251,0.837
		c-0.225,0.105-0.429,0.104-0.632,0.105c-1.33,0.009-1.594,0.235-2.004,1.5c-0.204,0.631-0.062,1.186,0.194,1.739
		c0.24,0.517,0.516,1.014,0.803,1.502c1.008,1.711,3.141,4.088,4.71,5.305c5.227,4.054,10.679,7.811,15.937,11.827
		c1.585,1.21,3.176,2.411,4.552,3.866c0.942,0.997,1.855,2.016,2.32,3.318H63.15z M57.494,39.938
		c0.012,0.003,0.02,0.006,0.033,0.009c-0.009,0-0.016-0.001-0.025-0.001L57.494,39.938z M55.677,40.061
		c-0.041,0.217-0.078,0.445-0.175,0.546c-0.595,0.621-1.34,0.997-2.161,1.217c-1.665,0.443-3.217-0.014-4.914-0.625
		c1.414-0.14,3.724-0.361,5.037-1.45C54.18,39.867,54.917,39.973,55.677,40.061 M51.483,39.381
		c-0.899,0.043-3.374,1.613-4.326,1.536c1.038,0.684,2.035,1.358,2.94,2.188c-0.496-0.06-0.959-0.269-1.431-0.296
		c-0.714-0.041-1.135-0.468-1.559-0.937c-0.105-0.119-0.195-0.246-0.299-0.365c-0.831-0.947-2.005-3.425-3.015-4.487l2.741-2.804
		l5.162,5.162C51.626,39.378,51.561,39.377,51.483,39.381 M18.133,44.134c0.158,0.296-0.068,0.382-0.185,0.489
		c-1.345,1.213-2.521,2.208-3.579,3.31l-0.315-0.314c1.164-0.984,2.261-2.046,3.414-3.04C17.669,44.405,17.839,44.157,18.133,44.134
		 M14.259,49.348c0.048,0.077,0.095,0.152,0.143,0.227c-0.745,1.197-1.488,2.396-2.234,3.592c-1.93,3.094-4.043,6.046-6.498,8.742
		V59.17c2.112-1.789,3.964-3.838,5.668-6.03C12.316,51.879,13.286,50.612,14.259,49.348 M5.669,65.702
		c0.977-1.221,1.894-2.485,2.715-3.821c2.179-3.542,4.093-7.228,5.952-10.942c0.689-1.378,1.439-2.717,2.338-3.97
		c0.054,0.037,0.107,0.074,0.16,0.113c-0.263,0.541-0.554,1.072-0.784,1.626c-1.295,3.139-2.644,6.256-3.74,9.475
		c-0.6,1.756-1.277,3.486-2.067,5.165c-0.214,0.46-0.348,0.928-0.419,1.421c-0.061,0.416-0.115,0.83-0.18,1.244
		c-0.292,1.816-0.898,3.478-2.08,4.856H5.669V65.702z M14.424,64.117c-0.211-1.717-0.412-3.398,0.04-5.137
		c0.535-2.073,0.656-4.243,1.298-6.3c0.691-2.218,1.268-4.478,2.219-6.61c0.421-0.942,0.886-1.863,1.512-2.72
		c0.214,0.352-0.02,0.604-0.119,0.85c-0.894,2.192-1.43,4.482-1.845,6.802c-0.417,2.337-0.302,4.708-0.358,7.067
		c-0.005,0.156,0.023,0.316,0.061,0.467c0.278,1.117,0.551,2.235,0.85,3.347c0.509,1.893,1.243,3.718,1.703,5.625
		c0.276,1.143,0.473,2.287,0.034,3.359h-6.001c0.527-0.825,0.778-1.75,0.831-2.748C14.723,66.779,14.587,65.445,14.424,64.117
		 M26.07,70.077c-0.12-0.973-0.496-1.859-0.936-2.715c-0.822-1.606-1.707-3.18-2.497-4.8c-1.472-3.016-2.706-6.084-3.02-9.502
		c-0.3-3.277,0.059-6.427,0.96-9.554c0.233-0.808,0.53-1.595,0.842-2.373c0.299-0.173,0.593-0.322,0.884-0.439
		c-0.089,0.267-0.161,0.542-0.215,0.828c-0.169,0.901-0.285,1.812-0.44,2.716c-0.273,1.587-0.369,3.19-0.125,4.778
		c0.476,3.124,1.426,6.101,2.822,8.943c1.382,2.814,3.199,5.34,5.013,7.873c0.805,1.128,1.656,2.23,2.259,3.489
		c0.236,0.492,0.41,0.995,0.403,1.544h-5.983C26.087,70.607,26.102,70.339,26.07,70.077 M38.288,70.867
		c-0.036-0.23-0.103-0.455-0.195-0.672c-0.219-0.504-0.506-0.972-0.823-1.423c-1.314-1.876-2.935-3.493-4.429-5.217
		c-1.888-2.181-3.75-4.385-5.174-6.912c-1.207-2.148-2.126-4.427-2.904-6.758c-0.39-1.162-0.83-2.316-0.998-3.542
		c-0.275-1.999-0.122-3.985,0.064-5.973h0.001c0.797,0.002,1.284-0.62,1.852-1.452c-0.061,1.252,0.077,2.498,0.118,3.746
		c0.041,1.287,0.374,2.473,0.843,3.649c0.649,1.625,1.245,3.273,1.919,4.889c0.626,1.495,1.333,2.955,2.267,4.293
		c1.793,2.573,3.902,4.869,6.131,7.061c1.833,1.802,3.733,3.54,5.45,5.461c0.631,0.704,1.24,1.429,1.671,2.274
		c0.095,0.185,0.184,0.374,0.249,0.575H38.288z M5.669,40.23l4.176-4.177l7.391,7.391c-0.073,0.046-0.144,0.097-0.216,0.142
		c-0.913,0.565-2.6,2.02-3.755,3.244L9.845,43.41l-4.176,4.177V40.23z M5.669,52.825l4.176-4.176l2.122,2.122
		c-0.72,0.862-1.403,1.685-2.348,2.404c-0.949,0.724-1.746,1.552-2.436,2.52c-0.496,0.695-1.003,1.382-1.514,2.068V52.825z
		 M5.669,5.669h80.755v14.588l-9.9-9.9l-17.041,17.04L46.52,14.433L27.078,33.873L9.845,16.284l-4.176,4.177V5.669z"/>
	<g>
		<rect x="90.331" y="5.669" fill="#FFFFFF" width="193.601" height="65.197"/>
		<g>
			<path fill="#010101" d="M125.536,19.648c-0.07-0.002-0.141-0.002-0.209-0.002c-4.064,0-7.525,1.3-10.018,3.765
				c-2.725,2.696-4.166,6.739-4.166,11.693c0,4.951,1.441,8.993,4.168,11.69c2.534,2.508,6.09,3.814,10.225,3.762
				c9.061-0.099,14.448-5.875,14.409-15.451C139.984,25.522,134.597,19.748,125.536,19.648 M125.552,47.133h-0.134
				c-2.94,0-5.255-0.819-6.886-2.435c-2.02-2.001-3.002-5.141-3.002-9.594c0-4.455,0.982-7.593,3.002-9.596
				c1.654-1.641,4.023-2.475,7.021-2.435c6.733,0.058,10.006,3.992,10.006,12.032C135.558,43.139,132.286,47.075,125.552,47.133"/>
			<path fill="#010101" d="M159.529,28.854c-3.105-0.058-5.394,1.001-6.859,3.097l-1.635-0.515v-2.307h-4.157v30.269h4.157V47.929
				l1.635-0.515c1.466,2.096,3.767,3.138,6.855,3.097c5.954-0.045,9.648-4.194,9.648-10.828
				C169.173,33.049,165.478,28.9,159.529,28.854 M158.359,47.819c-0.052,0.002-0.103,0.002-0.155,0.002
				c-2.123,0-3.82-0.614-5.05-1.827c-1.406-1.387-2.119-3.51-2.119-6.311c0-2.789,0.715-4.91,2.129-6.301
				c1.247-1.23,3.039-1.865,5.195-1.834c4.17,0.058,6.659,3.099,6.659,8.135C165.017,44.718,162.528,47.761,158.359,47.819"/>
			<path fill="#010101" d="M188.877,32.795c-3.988-0.465-8.112-0.945-8.112-4.93c0-3.514,2.367-5.296,7.035-5.296
				c3.506,0,5.886,1.422,6.653,3.934l4.259-0.55c-1.12-3.727-5.468-6.318-10.924-6.396c-3.688-0.045-6.965,1.067-8.987,3.06
				c-1.435,1.418-2.195,3.233-2.195,5.249c0,6.541,4.957,7.142,10.204,7.779c4.374,0.531,8.9,1.081,8.9,5.873
				c0,2.216-1.011,5.935-7.771,5.935c-3.301,0-6.973-1.313-7.841-4.935l-4.23,0.55c0.794,3.75,4.31,7.49,12.071,7.49
				c8.805,0,11.928-4.873,11.928-9.04C199.867,34.073,194.281,33.424,188.877,32.795"/>
			<rect x="206.798" y="34.947" fill="#010101" width="12.768" height="3.655"/>
			<rect x="226.863" y="19.969" fill="#010101" width="4.157" height="30.267"/>
			<polygon fill="#010101" points="259.11,42.294 257.454,42.78 242.832,19.969 238.268,19.969 238.268,50.236 242.425,50.236 
				242.425,28.094 244.079,27.608 258.701,50.236 263.268,50.236 263.268,19.969 259.11,19.969 			"/>
		</g>
	</g>
</g>
</svg>
