<?xml version="1.0" encoding="UTF-8" standalone="no"?>
<!-- Created with Inkscape (http://www.inkscape.org/) -->

<svg
   inkscape:output_extension="org.inkscape.output.svg.inkscape"
   sodipodi:docname="oslandia_logo.svg"
   version="1.0"
   inkscape:version="0.92.3 (2405546, 2018-03-11)"
   sodipodi:version="0.32"
   id="svg3295"
   height="328.18912"
   width="349.8884"
   inkscape:export-filename="/home/sbe/logo_v2.png"
   inkscape:export-xdpi="90"
   inkscape:export-ydpi="90"
   xmlns:inkscape="http://www.inkscape.org/namespaces/inkscape"
   xmlns:sodipodi="http://sodipodi.sourceforge.net/DTD/sodipodi-0.dtd"
   xmlns="http://www.w3.org/2000/svg"
   xmlns:svg="http://www.w3.org/2000/svg"
   xmlns:rdf="http://www.w3.org/1999/02/22-rdf-syntax-ns#"
   xmlns:cc="http://creativecommons.org/ns#"
   xmlns:dc="http://purl.org/dc/elements/1.1/">
  <sodipodi:namedview
     id="base"
     pagecolor="#ffffff"
     bordercolor="#666666"
     borderopacity="1.0"
     inkscape:pageopacity="0.0"
     inkscape:pageshadow="2"
     inkscape:zoom="1.0094915"
     inkscape:cx="39.404841"
     inkscape:cy="284.77781"
     inkscape:document-units="px"
     showgrid="false"
     showborder="true"
     inkscape:showpageshadow="false"
     units="mm"
     inkscape:window-width="1920"
     inkscape:window-height="1171"
     inkscape:window-x="1920"
     inkscape:window-y="0"
     inkscape:window-maximized="1"
     inkscape:current-layer="layer1"
     showguides="false"
     inkscape:guide-bbox="true"
     inkscape:snap-nodes="true"
     inkscape:snap-bbox="false"
     inkscape:snap-global="true"
     inkscape:pagecheckerboard="0"
     inkscape:deskcolor="#d1d1d1">
    <inkscape:grid
       enabled="true"
       visible="true"
       type="axonomgrid"
       id="grid2374"
       units="mm"
       empspacing="5"
       gridanglex="20"
       gridanglez="20" />
    <sodipodi:guide
       position="-713.57197,1167.107"
       orientation="0.63712333,0.77076187"
       id="guide8772"
       inkscape:locked="false" />
    <sodipodi:guide
       position="1368.0363,1064.6786"
       orientation="0.36765914,-0.92996062"
       id="guide8774"
       inkscape:locked="false" />
    <sodipodi:guide
       position="190.54991,-1769.9098"
       orientation="-0.98521175,-0.17134118"
       id="guide8776"
       inkscape:locked="false" />
    <sodipodi:guide
       position="190.54991,-1769.9098"
       orientation="-0.9894163,0.14510474"
       id="guide8780"
       inkscape:locked="false" />
    <sodipodi:guide
       position="-713.57197,1167.107"
       orientation="0.84505621,0.53467748"
       id="guide8782"
       inkscape:locked="false" />
    <sodipodi:guide
       position="1368.0363,1064.6786"
       orientation="0.66979889,-0.74254255"
       id="guide8784"
       inkscape:locked="false" />
    <sodipodi:guide
       position="-713.57197,1167.107"
       orientation="0.31476187,0.94917067"
       id="guide8786"
       inkscape:locked="false" />
    <sodipodi:guide
       position="190.54991,-1769.9098"
       orientation="-0.99798792,-0.063404337"
       id="guide8788"
       inkscape:locked="false" />
    <sodipodi:guide
       position="-713.57197,1167.107"
       orientation="0.42759454,0.90397064"
       id="guide8790"
       inkscape:locked="false"
       inkscape:label=""
       inkscape:color="rgb(255,140,0)" />
    <sodipodi:guide
       position="1368.0363,1064.6786"
       orientation="0.23990613,-0.97079609"
       id="guide8792"
       inkscape:locked="false"
       inkscape:label=""
       inkscape:color="rgb(255,142,0)" />
  </sodipodi:namedview>
  <defs
     id="defs3297" />
  <metadata
     id="metadata3300">
    <rdf:RDF>
      <cc:Work
         rdf:about="">
        <dc:format>image/svg+xml</dc:format>
        <dc:type
           rdf:resource="http://purl.org/dc/dcmitype/StillImage" />
        <dc:title />
      </cc:Work>
    </rdf:RDF>
  </metadata>
  <g
     transform="translate(-79.177063,-6666.6542)"
     id="layer1"
     inkscape:groupmode="layer"
     inkscape:label="Calque 1">
    <path
       inkscape:connector-curvature="0"
       style="display:inline;overflow:visible;visibility:visible;fill:#3a74ac;fill-opacity:1;fill-rule:nonzero;stroke:none;stroke-width:2.5821px;stroke-linecap:butt;stroke-linejoin:miter;stroke-miterlimit:4;stroke-dashoffset:0;stroke-opacity:1;marker:none;marker-start:none;marker-mid:none;marker-end:none;enable-background:accumulate"
       d="m 205.61576,6666.6542 c -69.5122,0 -125.935495,46.455 -125.935495,103.676 0,57.223 56.255495,108.545 125.935485,103.677 33.83391,-2.363 49.15091,-32.282 61.26272,-13.133 9.7426,15.404 38.4699,76.526 80.8408,76.526 44.8465,0 81.3462,-37.652 81.3462,-84.103 0,-46.451 -27.1505,-89.981 -81.3462,-84.229 -20.7548,3.504 -25.5247,18.12 -28.6737,-12.25 -7.3357,-42.241 -43.9176,-90.164 -113.42981,-90.164 z m -1.2633,14.648 c 53.592,0 97.13581,36.598 97.13581,81.704 0,45.105 -43.54321,81.704 -97.13581,81.704 -53.5917,0 -97.0091,-36.6 -97.0091,-81.704 0,-45.104 43.418,-81.704 97.0091,-81.704 z m 10.9892,17.048 c -41.2586,0 -74.778,24.048 -74.778,53.669 0,29.622 33.5194,53.67 74.778,53.67 41.2591,0 74.77851,-24.048 74.77851,-53.67 0,-29.621 -33.51941,-53.669 -74.77851,-53.669 z m 18.6948,19.574 c 25.1142,0 45.47301,14.656 45.47301,32.833 0,18.176 -20.35882,32.959 -45.47301,32.959 -25.1143,0 -45.4731,-14.783 -45.4731,-32.959 0,-18.177 20.3588,-32.833 45.4731,-32.833 z m 117.85081,65.792 c 30.9446,0 55.9574,29.566 55.9574,65.919 0,36.353 -25.0124,65.792 -55.9574,65.792 -30.9435,0 -56.0832,-29.438 -56.0832,-65.792 4e-4,-36.354 25.1403,-65.919 56.0832,-65.919 z m 0.7584,14.649 c -20.181,0 -36.5048,16.888 -36.5048,37.758 0,20.869 16.3238,37.884 36.5048,37.884 20.1807,0 36.5048,-17.015 36.5048,-37.884 0,-20.87 -16.3245,-37.759 -36.5048,-37.758 z m 0.7576,11.447 c 9.4181,0 17.0522,8.213 17.0522,18.311 0,10.098 -7.6337,18.311 -17.0522,18.311 -9.418,0 -17.0525,-8.213 -17.0525,-18.311 8e-4,-10.098 7.6351,-18.311 17.0525,-18.311 z"
       id="path3612-2-5-1-5-2-8-1-7-4-9-9-0-0-6-8-0-2-7-5"
       sodipodi:nodetypes="csssssccccsssccsssccsssccsssccsssccsssc"
       inkscape:export-filename="oslandia.svg"
       inkscape:export-xdpi="24.863716"
       inkscape:export-ydpi="24.863716" />
    <g
       id="g19563">
      <path
         inkscape:export-ydpi="24.863716"
         inkscape:export-xdpi="24.863716"
         inkscape:export-filename="/home/sbe/projects/oslandia-api/oslapi/static/img/oslandia_logo_medium.png"
         d="m 98.953615,6956.0702 c -10.72283,0 -19.77655,8.75 -19.77655,19.119 0,10.875 8.80082,19.574 19.77655,19.574 10.823975,0 19.725945,-8.75 19.725945,-19.321 0,-10.672 -8.90197,-19.372 -19.725945,-19.372 z m 0,3.44 c 8.699645,0 15.932495,7.232 15.932495,15.983 0,8.649 -7.23285,15.831 -15.932495,15.831 -8.80082,0 -15.98309,-7.182 -15.98309,-16.034 0,-8.548 7.33401,-15.78 15.98309,-15.78 z"
         style="font-style:normal;font-variant:normal;font-weight:normal;font-stretch:normal;font-size:medium;line-height:0%;font-family:'Yikes!';-inkscape-font-specification:'Yikes!';text-align:center;text-anchor:middle;fill:#3a74ac;fill-opacity:1;stroke:none;stroke-width:2.5821px;stroke-linecap:butt;stroke-linejoin:miter;stroke-opacity:1"
         id="path1588-2-6-1-6"
         inkscape:connector-curvature="0" />
      <path
         inkscape:export-ydpi="24.863716"
         inkscape:export-xdpi="24.863716"
         inkscape:export-filename="/home/sbe/projects/oslandia-api/oslapi/static/img/oslandia_logo_medium.png"
         inkscape:connector-curvature="0"
         id="path13755-6"
         d="m 147.73242,6956.1191 c -2.50334,-0.082 -5.06198,0.6247 -7.05469,2.2989 -1.9927,1.6741 -3.30078,4.3457 -3.30078,7.6367 0,3.3213 1.51325,5.8376 3.55274,7.3691 2.03948,1.5315 4.46095,2.2881 6.70312,3.0371 2.24218,0.7491 4.30378,1.4882 5.63086,2.5 1.32708,1.0119 2.07031,2.098 2.07031,4.4746 0,4.6859 -3.87166,7.4221 -7.83203,7.6524 -1.98018,0.1151 -3.86707,-0.4359 -5.24218,-1.6621 -1.37512,-1.2262 -2.37305,-3.1618 -2.37305,-6.3477 a 1.870187,1.870187 0 1 0 -3.74024,0 c 0,4.0162 1.40282,7.1591 3.625,9.1407 2.22219,1.9815 5.13105,2.7672 7.94727,2.6035 5.63244,-0.3275 11.35352,-4.6136 11.35352,-11.3868 0,-3.3533 -1.50139,-5.8921 -3.54102,-7.4472 -2.03963,-1.5551 -4.46612,-2.3256 -6.71289,-3.0762 -2.24677,-0.7506 -4.31536,-1.4838 -5.64258,-2.4805 -1.32722,-0.9966 -2.05859,-2.0457 -2.05859,-4.3769 0,-2.362 0.79838,-3.7935 1.96484,-4.7735 1.16646,-0.9799 2.82041,-1.4797 4.5293,-1.4238 1.70888,0.056 3.41974,0.6748 4.63086,1.7188 1.21112,1.0439 1.98437,2.4424 1.98437,4.4785 a 1.870187,1.870187 0 1 0 3.74024,0 c 0,-3.0654 -1.33516,-5.6314 -3.28321,-7.3106 -1.94804,-1.6791 -4.44783,-2.543 -6.95117,-2.625 z"
         style="color:#000000;font-style:normal;font-variant:normal;font-weight:normal;font-stretch:normal;font-size:medium;line-height:normal;font-family:sans-serif;font-variant-ligatures:normal;font-variant-position:normal;font-variant-caps:normal;font-variant-numeric:normal;font-variant-alternates:normal;font-feature-settings:normal;text-indent:0;text-align:start;text-decoration:none;text-decoration-line:none;text-decoration-style:solid;text-decoration-color:#000000;letter-spacing:normal;word-spacing:normal;text-transform:none;writing-mode:lr-tb;direction:ltr;text-orientation:mixed;dominant-baseline:auto;baseline-shift:baseline;text-anchor:start;white-space:normal;shape-padding:0;clip-rule:nonzero;display:inline;overflow:visible;visibility:visible;opacity:1;isolation:auto;mix-blend-mode:normal;color-interpolation:sRGB;color-interpolation-filters:linearRGB;solid-color:#000000;solid-opacity:1;vector-effect:none;fill:#3a74ac;fill-opacity:1;fill-rule:nonzero;stroke:none;stroke-width:3.74;stroke-linecap:round;stroke-linejoin:round;stroke-miterlimit:4;stroke-dasharray:none;stroke-dashoffset:0;stroke-opacity:1;color-rendering:auto;image-rendering:auto;shape-rendering:auto;text-rendering:auto;enable-background:accumulate" />
      <path
         inkscape:export-filename="/home/sbe/projects/oslandia-api/oslapi/static/img/oslandia_logo_medium.png"
         inkscape:export-ydpi="24.863716"
         inkscape:export-xdpi="24.863716"
         id="path1592-4-4-8-40"
         d="m 179.87452,6956.7282 c -1.03681,0 -1.8711,0.892 -1.8711,2 v 1.934 7.839 25.604 h 8.5586 6.07226 2.77735 c 1.0032,0 1.81054,-0.755 1.81054,-1.693 0,-0.939 -0.80734,-1.696 -1.81054,-1.696 h -2.77735 -6.07226 -4.81641 v -22.215 -7.839 -1.934 c 0,-1.108 -0.83428,-2 -1.87109,-2 z"
         style="font-style:normal;font-variant:normal;font-weight:normal;font-stretch:normal;font-size:medium;line-height:0%;font-family:'Yikes!';-inkscape-font-specification:'Yikes!';text-align:center;text-anchor:middle;fill:#1c1c1c;fill-opacity:1;stroke:none;stroke-width:2.5821px;stroke-linecap:butt;stroke-linejoin:miter;stroke-opacity:1"
         inkscape:connector-curvature="0" />
      <path
         inkscape:export-ydpi="24.863716"
         inkscape:export-xdpi="24.863716"
         inkscape:export-filename="/home/sbe/projects/oslandia-api/oslapi/static/img/oslandia_logo_medium.png"
         d="m 318.38037,6994.1062 h 10.0653 c 5.6143,0 9.5595,-0.86 12.8472,-2.782 5.6649,-3.338 8.6491,-8.801 8.6491,-15.781 0,-7.03 -2.9336,-12.594 -8.4974,-15.882 -3.5405,-2.124 -7.4857,-2.933 -14.2634,-2.933 h -8.8008 z m 3.7429,-3.389 v -30.6 h 5.2097 c 5.6649,0 9.2054,0.708 12.0379,2.427 4.2992,2.58 6.7776,7.284 6.7776,12.847 0,4.907 -1.922,9.206 -5.3614,11.988 -2.9842,2.377 -6.8282,3.338 -13.4541,3.338 z"
         style="font-style:normal;font-variant:normal;font-weight:normal;font-stretch:normal;font-size:medium;line-height:0%;font-family:'Yikes!';-inkscape-font-specification:'Yikes!';text-align:center;text-anchor:middle;fill:#1c1c1c;fill-opacity:1;stroke:none;stroke-width:2.5821px;stroke-linecap:butt;stroke-linejoin:miter;stroke-opacity:1"
         id="path1598-4-3-35-0"
         inkscape:connector-curvature="0" />
      <path
         inkscape:export-filename="/home/sbe/projects/oslandia-api/oslapi/static/img/oslandia_logo_medium.png"
         inkscape:export-ydpi="24.863716"
         inkscape:export-xdpi="24.863716"
         id="path1600-0-60-0-4"
         d="m 371.91747,6956.7282 c -1.0368,0 -1.8711,0.892 -1.8711,2 v 2.207 7.566 13.831 9.144 0.629 c 0,1.108 0.8343,2 1.8711,2 1.0368,0 1.8711,-0.892 1.8711,-2 v -0.629 -9.144 -13.831 -7.566 -2.207 c 0,-1.108 -0.8343,-2 -1.8711,-2 z"
         style="font-style:normal;font-variant:normal;font-weight:normal;font-stretch:normal;font-size:medium;line-height:0%;font-family:'Yikes!';-inkscape-font-specification:'Yikes!';text-align:center;text-anchor:middle;fill:#1c1c1c;fill-opacity:1;stroke:none;stroke-width:2.5821px;stroke-linecap:butt;stroke-linejoin:miter;stroke-opacity:1"
         inkscape:connector-curvature="0" />
      <path
         inkscape:export-filename="/home/sbe/projects/oslandia-api/oslapi/static/img/oslandia_logo_medium.png"
         inkscape:export-ydpi="24.863716"
         inkscape:export-xdpi="24.863716"
         id="path13730-1-6"
         d="m 410.29267,6956.7532 a 1.870187,1.870187 0 0 0 -1.7247,1.062 l -16.1093,33.612 a 1.8703432,1.8703432 0 1 0 3.373,1.617 l 3.4844,-7.27 h 21.9941 l 3.5176,7.276 a 1.8702725,1.8702725 0 0 0 3.3672,-1.629 l -16.2559,-33.611 a 1.870187,1.870187 0 0 0 -1.6464,-1.057 z m -0.029,6.18 9.2363,19.097 h -18.3887 z"
         style="color:#000000;font-style:normal;font-variant:normal;font-weight:normal;font-stretch:normal;font-size:medium;line-height:normal;font-family:sans-serif;font-variant-ligatures:normal;font-variant-position:normal;font-variant-caps:normal;font-variant-numeric:normal;font-variant-alternates:normal;font-feature-settings:normal;text-indent:0;text-align:start;text-decoration:none;text-decoration-line:none;text-decoration-style:solid;text-decoration-color:#000000;letter-spacing:normal;word-spacing:normal;text-transform:none;writing-mode:lr-tb;direction:ltr;text-orientation:mixed;dominant-baseline:auto;baseline-shift:baseline;text-anchor:start;white-space:normal;shape-padding:0;clip-rule:nonzero;display:inline;overflow:visible;visibility:visible;opacity:1;isolation:auto;mix-blend-mode:normal;color-interpolation:sRGB;color-interpolation-filters:linearRGB;solid-color:#000000;solid-opacity:1;vector-effect:none;fill:#1c1c1c;fill-opacity:1;fill-rule:nonzero;stroke:none;stroke-width:3.74;stroke-linecap:round;stroke-linejoin:round;stroke-miterlimit:4;stroke-dasharray:none;stroke-dashoffset:0;stroke-opacity:1;color-rendering:auto;image-rendering:auto;shape-rendering:auto;text-rendering:auto;enable-background:accumulate"
         inkscape:connector-curvature="0" />
      <path
         inkscape:export-filename="/home/sbe/projects/oslandia-api/oslapi/static/img/oslandia_logo_medium.png"
         inkscape:export-ydpi="24.863716"
         inkscape:export-xdpi="24.863716"
         id="path13730-6"
         d="m 230.23975,6956.7282 a 1.870187,1.870187 0 0 0 -1.72461,1.063 l -16.10937,33.611 a 1.8703432,1.8703432 0 1 0 3.37304,1.617 l 3.48438,-7.269 h 21.99414 l 3.51758,7.275 a 1.8702635,1.8702635 0 0 0 3.36718,-1.629 l -16.25586,-33.611 a 1.870187,1.870187 0 0 0 -1.64648,-1.057 z m -0.0293,6.18 9.23633,19.097 h -18.38867 z"
         style="color:#000000;font-style:normal;font-variant:normal;font-weight:normal;font-stretch:normal;font-size:medium;line-height:normal;font-family:sans-serif;font-variant-ligatures:normal;font-variant-position:normal;font-variant-caps:normal;font-variant-numeric:normal;font-variant-alternates:normal;font-feature-settings:normal;text-indent:0;text-align:start;text-decoration:none;text-decoration-line:none;text-decoration-style:solid;text-decoration-color:#000000;letter-spacing:normal;word-spacing:normal;text-transform:none;writing-mode:lr-tb;direction:ltr;text-orientation:mixed;dominant-baseline:auto;baseline-shift:baseline;text-anchor:start;white-space:normal;shape-padding:0;clip-rule:nonzero;display:inline;overflow:visible;visibility:visible;opacity:1;isolation:auto;mix-blend-mode:normal;color-interpolation:sRGB;color-interpolation-filters:linearRGB;solid-color:#000000;solid-opacity:1;vector-effect:none;fill:#1c1c1c;fill-opacity:1;fill-rule:nonzero;stroke:none;stroke-width:3.74;stroke-linecap:round;stroke-linejoin:round;stroke-miterlimit:4;stroke-dasharray:none;stroke-dashoffset:0;stroke-opacity:1;color-rendering:auto;image-rendering:auto;shape-rendering:auto;text-rendering:auto;enable-background:accumulate"
         inkscape:connector-curvature="0" />
      <path
         inkscape:export-filename="/home/sbe/projects/oslandia-api/oslapi/static/img/oslandia_logo_medium.png"
         inkscape:export-ydpi="24.863716"
         inkscape:export-xdpi="24.863716"
         inkscape:connector-curvature="0"
         id="path13751-98"
         d="m 268.65187,6956.7282 a 1.870187,1.870187 0 0 0 -1.875,1.869 v 33.487 a 1.870187,1.870187 0 1 0 3.7402,0 v -28.102 l 23.2051,29.389 a 1.870187,1.870187 0 0 0 3.3379,-1.16 v -33.559 a 1.870187,1.870187 0 1 0 -3.7402,0 v 28.174 l -23.2051,-29.387 a 1.870187,1.870187 0 0 0 -1.4629,-0.711 z"
         style="color:#000000;font-style:normal;font-variant:normal;font-weight:normal;font-stretch:normal;font-size:medium;line-height:normal;font-family:sans-serif;font-variant-ligatures:normal;font-variant-position:normal;font-variant-caps:normal;font-variant-numeric:normal;font-variant-alternates:normal;font-feature-settings:normal;text-indent:0;text-align:start;text-decoration:none;text-decoration-line:none;text-decoration-style:solid;text-decoration-color:#000000;letter-spacing:normal;word-spacing:normal;text-transform:none;writing-mode:lr-tb;direction:ltr;text-orientation:mixed;dominant-baseline:auto;baseline-shift:baseline;text-anchor:start;white-space:normal;shape-padding:0;clip-rule:nonzero;display:inline;overflow:visible;visibility:visible;opacity:1;isolation:auto;mix-blend-mode:normal;color-interpolation:sRGB;color-interpolation-filters:linearRGB;solid-color:#000000;solid-opacity:1;vector-effect:none;fill:#1c1c1c;fill-opacity:1;fill-rule:nonzero;stroke:none;stroke-width:3.74;stroke-linecap:round;stroke-linejoin:round;stroke-miterlimit:4;stroke-dasharray:none;stroke-dashoffset:0;stroke-opacity:1;color-rendering:auto;image-rendering:auto;shape-rendering:auto;text-rendering:auto;enable-background:accumulate" />
    </g>
  </g>
</svg>
