<?xml version="1.0" encoding="UTF-8" standalone="no"?>
<!DOCTYPE svg PUBLIC "-//W3C//DTD SVG 1.1//EN" "http://www.w3.org/Graphics/SVG/1.1/DTD/svg11.dtd">
<svg xmlns="http://www.w3.org/2000/svg" version="1.1" viewBox="0 0 2478 664">
<g stroke-width="2.00" fill="none" stroke-linecap="butt">
<path stroke="#add8d4" vector-effect="non-scaling-stroke" d="
  M 53.72 144.79
  L 203.50 231.43
  A 0.32 0.32 -72.5 0 0 203.98 231.18
  Q 204.25 227.25 204.25 219.75
  Q 204.30 138.53 204.19 57.79
  A 0.42 0.42 -15.0 0 0 203.56 57.43
  L 53.72 144.03
  A 0.44 0.44 0.0 0 0 53.72 144.79"
/>
<path stroke="#add8d4" vector-effect="non-scaling-stroke" d="
  M 255.62 81.10
  Q 235.33 69.41 214.51 57.37
  Q 213.81 56.96 213.81 57.78
  L 213.75 235.76
  Q 213.75 237.43 215.20 238.27
  L 286.55 279.41
  A 0.30 0.30 15.9 0 0 287.00 279.16
  L 287.06 190.40
  A 1.42 1.41 -15.2 0 1 287.76 189.18
  L 364.46 144.93
  A 0.34 0.34 48.2 0 0 364.49 144.36
  Q 362.19 142.61 359.75 141.20
  Q 307.71 111.10 255.62 81.10"
/>
<path stroke="#a19eaa" vector-effect="non-scaling-stroke" d="
  M 226.59 255.89
  Q 137.64 204.53 48.75 153.07
  A 0.33 0.32 18.4 0 0 48.26 153.31
  Q 48.00 155.97 48.00 161.00
  Q 48.00 246.00 48.00 331.80
  A 2.37 2.36 -75.1 0 0 49.18 333.85
  L 368.92 518.50
  Q 370.00 519.12 370.00 517.88
  L 369.94 339.25
  A 0.96 0.94 -75.6 0 0 369.46 338.42
  Q 297.84 297.01 226.59 255.89"
/>
<path stroke="#a19eaa" vector-effect="non-scaling-stroke" d="
  M 297.23 285.55
  L 369.09 327.09
  Q 370.00 327.62 370.00 326.57
  L 369.94 153.41
  Q 369.94 152.77 369.38 153.09
  L 297.62 194.57
  A 1.73 1.73 -15.0 0 0 296.75 196.07
  L 296.75 284.72
  A 0.97 0.96 15.3 0 0 297.23 285.55"
/>
<path stroke="#a3a1a0" vector-effect="non-scaling-stroke" d="
  M 1033.79 337.00
  Q 1033.33 337.55 1033.29 338.25"
/>
<path stroke="#afafaf" vector-effect="non-scaling-stroke" d="
  M 1033.29 338.25
  Q 1045.54 339.18 1057.70 337.85"
/>
<path stroke="#838484" vector-effect="non-scaling-stroke" d="
  M 1057.70 337.85
  L 1073.42 302.87
  A 0.85 0.73 9.6 0 1 1074.15 302.43
  L 1084.99 302.21"
/>
<path stroke="#a3a1a0" vector-effect="non-scaling-stroke" d="
  M 1084.99 302.21
  Q 1111.24 302.81 1137.46 302.37"
/>
<path stroke="#838484" vector-effect="non-scaling-stroke" d="
  M 1137.46 302.37
  L 1152.69 337.79"
/>
<path stroke="#afafaf" vector-effect="non-scaling-stroke" d="
  M 1152.69 337.79
  Q 1157.07 338.29 1170.75 338.50
  Q 1174.34 338.56 1176.02 337.78"
/>
<path stroke="#838484" vector-effect="non-scaling-stroke" d="
  M 1176.02 337.78
  Q 1177.25 338.87 1176.72 337.66
  Q 1142.79 260.68 1108.16 184.01
  Q 1107.51 182.56 1107.25 181.02
  Q 1107.16 180.44 1106.91 180.97
  L 1033.79 337.00"
/>
<path stroke="#333333" vector-effect="non-scaling-stroke" d="
  M 1176.02 337.78
  L 1152.69 337.79"
/>
<path stroke="#272625" vector-effect="non-scaling-stroke" d="
  M 1137.46 302.37
  Q 1111.25 300.94 1084.99 302.21"
/>
<path stroke="#333333" vector-effect="non-scaling-stroke" d="
  M 1057.70 337.85
  L 1036.25 337.54"
/>
<path stroke="#272625" vector-effect="non-scaling-stroke" d="
  M 1036.25 337.54
  Q 1034.86 337.77 1033.79 337.00"
/>
<path stroke="#525150" vector-effect="non-scaling-stroke" d="
  M 1036.25 337.54
  L 1033.29 338.25"
/>
<path stroke="#afafaf" vector-effect="non-scaling-stroke" d="
  M 1768.54 337.50
  Q 1768.21 337.80 1768.24 338.08
  A 0.81 0.46 0.4 0 0 1769.00 338.52
  Q 1780.91 338.99 1792.79 337.78"
/>
<path stroke="#838484" vector-effect="non-scaling-stroke" d="
  M 1792.79 337.78
  L 1808.73 302.23"
/>
<path stroke="#a3a1a0" vector-effect="non-scaling-stroke" d="
  M 1808.73 302.23
  Q 1840.62 302.88 1872.46 302.27"
/>
<path stroke="#838484" vector-effect="non-scaling-stroke" d="
  M 1872.46 302.27
  L 1887.79 337.90"
/>
<path stroke="#afafaf" vector-effect="non-scaling-stroke" d="
  M 1887.79 337.90
  Q 1899.75 339.03 1911.78 338.33
  A 0.56 0.31 2.9 0 0 1912.24 338.10
  Q 1912.32 337.90 1912.04 337.75"
/>
<path stroke="#838484" vector-effect="non-scaling-stroke" d="
  M 1912.04 337.75
  L 1842.16 181.35
  Q 1841.95 180.88 1841.73 181.35
  L 1768.54 337.50"
/>
<path stroke="#333333" vector-effect="non-scaling-stroke" d="
  M 1912.04 337.75
  L 1887.79 337.90"
/>
<path stroke="#272625" vector-effect="non-scaling-stroke" d="
  M 1872.46 302.27
  Q 1840.60 300.99 1808.73 302.23"
/>
<path stroke="#333333" vector-effect="non-scaling-stroke" d="
  M 1792.79 337.78
  L 1768.54 337.50"
/>
<path stroke="#afafaf" vector-effect="non-scaling-stroke" d="
  M 584.77 337.82
  Q 595.12 339.10 607.18 338.14"
/>
<path stroke="#838484" vector-effect="non-scaling-stroke" d="
  M 607.18 338.14
  L 607.49 278.30
  A 0.87 0.87 2.2 0 1 608.42 277.44
  Q 618.48 278.04 627.43 277.10
  Q 637.00 276.10 645.23 271.85
  Q 653.70 267.48 659.34 260.42
  Q 668.09 249.44 668.26 234.25
  Q 668.35 225.56 665.75 218.50
  Q 657.12 195.12 631.97 190.90
  Q 623.43 189.47 614.75 189.46
  Q 600.03 189.45 585.31 189.56
  A 0.51 0.50 -90.0 0 0 584.81 190.07
  L 584.77 337.82"
/>
<path stroke="#333333" vector-effect="non-scaling-stroke" d="
  M 607.18 338.14
  Q 595.83 337.25 584.77 337.82"
/>
<path stroke="#afafaf" vector-effect="non-scaling-stroke" d="
  M 826.51 338.09
  Q 859.14 339.07 892.19 338.30"
/>
<path stroke="#838484" vector-effect="non-scaling-stroke" d="
  M 892.19 338.30
  Q 893.15 327.84 892.77 317.50
  A 0.53 0.53 88.9 0 0 892.24 316.99
  L 849.82 316.44
  A 0.52 0.50 0.6 0 1 849.31 315.94
  L 849.19 190.06
  A 0.50 0.50 0.0 0 0 848.69 189.56
  L 827.05 189.50
  A 0.55 0.55 90.0 0 0 826.50 190.05
  L 826.51 338.09"
/>
<path stroke="#333333" vector-effect="non-scaling-stroke" d="
  M 892.19 338.30
  Q 891.93 337.70 891.31 337.69
  Q 877.00 337.54 865.83 337.74
  Q 858.34 337.87 846.17 337.70
  Q 836.36 337.57 826.51 338.09"
/>
<path stroke="#cdc9cb" vector-effect="non-scaling-stroke" d="
  M 1308.27 211.00
  Q 1327.75 211.74 1341.31 211.31
  Q 1342.04 211.29 1342.21 211.75"
/>
<path stroke="#838484" vector-effect="non-scaling-stroke" d="
  M 1342.21 211.75
  L 1342.23 338.05"
/>
<path stroke="#afafaf" vector-effect="non-scaling-stroke" d="
  M 1342.23 338.05
  Q 1353.15 339.18 1364.03 338.03"
/>
<path stroke="#838484" vector-effect="non-scaling-stroke" d="
  M 1364.03 338.03
  Q 1364.90 338.77 1364.80 337.43
  Q 1364.75 336.77 1364.75 336.59
  Q 1364.64 273.85 1364.90 210.92"
/>
<path stroke="#cdc9cb" vector-effect="non-scaling-stroke" d="
  M 1364.90 210.92
  L 1398.57 211.00"
/>
<path stroke="#838484" vector-effect="non-scaling-stroke" d="
  M 1398.57 211.00
  Q 1399.32 201.20 1398.98 190.04
  A 0.56 0.55 88.9 0 0 1398.43 189.50
  L 1308.82 189.56
  A 0.51 0.51 0.0 0 0 1308.31 190.07
  L 1308.27 211.00"
/>
<path stroke="#514e4f" vector-effect="non-scaling-stroke" d="
  M 1398.57 211.00
  Q 1381.62 210.21 1364.90 210.92"
/>
<path stroke="#333333" vector-effect="non-scaling-stroke" d="
  M 1364.03 338.03
  Q 1353.11 336.76 1342.23 338.05"
/>
<path stroke="#514e4f" vector-effect="non-scaling-stroke" d="
  M 1342.21 211.75
  Q 1342.18 210.10 1340.95 210.29
  Q 1339.63 210.49 1339.52 210.48
  Q 1323.91 210.15 1308.27 211.00"
/>
<path stroke="#afafaf" vector-effect="non-scaling-stroke" d="
  M 1555.50 338.09
  Q 1573.65 338.90 1591.75 338.12"
/>
<path stroke="#838484" vector-effect="non-scaling-stroke" d="
  M 1591.75 338.12
  L 1636.21 338.25
  A 1.04 1.04 90.0 0 0 1637.25 337.21
  L 1637.25 317.26
  A 0.52 0.51 0.0 0 0 1636.73 316.75
  L 1578.73 316.56
  A 0.55 0.55 -89.9 0 1 1578.18 316.01
  L 1578.13 270.04"
/>
<path stroke="#cdc9cb" vector-effect="non-scaling-stroke" d="
  M 1578.13 270.04
  Q 1593.52 270.75 1608.50 269.96"
/>
<path stroke="#838484" vector-effect="non-scaling-stroke" d="
  M 1608.50 269.96
  L 1634.85 270.00
  A 0.65 0.65 0.0 0 0 1635.50 269.35
  L 1635.44 249.30
  A 0.50 0.49 0.0 0 0 1634.94 248.81
  L 1578.80 248.50
  A 0.81 0.80 0.4 0 1 1578.00 247.70
  L 1578.06 211.65
  A 0.90 0.90 -0.0 0 1 1578.96 210.75
  L 1636.56 210.81
  A 0.52 0.51 0.6 0 0 1637.08 210.31
  L 1637.24 190.11
  A 0.62 0.61 0.0 0 0 1636.62 189.50
  L 1556.00 189.50
  A 0.50 0.50 0.0 0 0 1555.50 190.00
  L 1555.50 338.09"
/>
<path stroke="#514e4f" vector-effect="non-scaling-stroke" d="
  M 1608.50 269.96
  Q 1599.40 269.13 1590.28 269.57
  Q 1589.07 269.63 1584.22 269.51
  Q 1581.18 269.44 1578.13 270.04"
/>
<path stroke="#333333" vector-effect="non-scaling-stroke" d="
  M 1591.75 338.12
  Q 1573.62 337.07 1555.50 338.09"
/>
<path stroke="#838484" vector-effect="non-scaling-stroke" d="
  M 2033.71 190.05
  Q 2033.23 234.65 2033.64 277.74
  Q 2033.78 292.10 2034.79 297.69
  Q 2038.66 318.98 2056.19 331.15
  Q 2064.36 336.83 2074.32 339.29
  Q 2092.06 343.67 2109.11 337.34
  Q 2118.73 333.77 2126.13 327.12
  Q 2143.50 311.52 2143.50 286.50
  Q 2143.50 238.38 2143.50 190.06
  A 0.56 0.56 90.0 0 0 2142.94 189.50
  L 2121.78 189.50
  A 0.78 0.78 89.6 0 0 2121.00 190.29
  Q 2121.18 236.13 2120.97 281.00
  Q 2120.93 288.02 2119.63 294.92
  Q 2117.29 307.23 2107.00 314.22
  Q 2099.01 319.63 2089.95 320.00
  Q 2081.32 320.36 2073.13 316.02
  Q 2061.58 309.91 2058.03 297.37
  Q 2056.53 292.08 2056.42 277.50
  Q 2056.09 234.28 2056.25 190.27
  A 0.76 0.76 -89.6 0 0 2055.49 189.50
  L 2034.20 189.56
  A 0.49 0.49 0.0 0 0 2033.71 190.05"
/>
<path stroke="#a3a1a0" vector-effect="non-scaling-stroke" d="
  M 1684.38 465.47
  Q 1690.09 465.89 1695.77 465.02"
/>
<path stroke="#838484" vector-effect="non-scaling-stroke" d="
  M 1695.77 465.02
  L 1695.87 461.74
  Q 1695.89 461.20 1696.36 461.60
  L 1699.25 464.04"
/>
<path stroke="#afafaf" vector-effect="non-scaling-stroke" d="
  M 1699.25 464.04
  Q 1702.26 466.57 1707.75 466.50
  Q 1712.39 466.44 1714.71 464.91"
/>
<path stroke="#838484" vector-effect="non-scaling-stroke" d="
  M 1714.71 464.91
  Q 1723.19 460.66 1724.90 451.08
  Q 1725.99 444.91 1724.19 440.06
  Q 1719.53 427.56 1705.51 428.20
  Q 1700.04 428.44 1696.72 432.38
  Q 1695.76 433.52 1695.75 432.02
  L 1695.58 406.93
  A 0.53 0.52 89.4 0 0 1695.06 406.41
  L 1684.86 406.28
  A 0.62 0.60 -89.5 0 0 1684.25 406.90
  L 1684.38 465.47"
/>
<path stroke="#333333" vector-effect="non-scaling-stroke" d="
  M 1714.71 464.91
  Q 1706.78 467.01 1699.25 464.04"
/>
<path stroke="#272625" vector-effect="non-scaling-stroke" d="
  M 1695.77 465.02
  Q 1693.74 464.60 1688.50 464.75
  Q 1685.80 464.83 1684.38 465.47"
/>
<path stroke="#a3a1a0" vector-effect="non-scaling-stroke" d="
  M 1875.45 465.18
  Q 1881.06 466.34 1886.54 464.71"
/>
<path stroke="#838484" vector-effect="non-scaling-stroke" d="
  M 1886.54 464.71
  L 1890.67 434.24
  Q 1890.74 433.70 1890.96 434.21
  L 1903.88 464.73
  A 0.91 0.62 74.4 0 0 1904.55 465.30
  L 1908.01 465.35
  A 0.92 0.62 -73.7 0 0 1908.70 464.78
  L 1921.80 433.71
  Q 1922.00 433.25 1922.07 433.75
  L 1926.57 465.33"
/>
<path stroke="#a3a1a0" vector-effect="non-scaling-stroke" d="
  M 1926.57 465.33
  Q 1933.07 465.56 1937.90 465.50
  Q 1938.33 465.50 1938.54 465.34
  Q 1938.98 465.00 1938.46 464.50"
/>
<path stroke="#838484" vector-effect="non-scaling-stroke" d="
  M 1938.46 464.50
  L 1930.12 411.76
  A 0.65 0.61 -5.0 0 0 1929.46 411.24
  L 1920.05 411.56
  A 0.77 0.77 10.2 0 0 1919.37 412.03
  L 1906.78 442.55
  Q 1906.36 443.58 1905.93 442.55
  L 1893.13 411.77
  A 0.77 0.74 78.0 0 0 1892.44 411.30
  L 1883.14 411.25
  A 0.63 0.61 -84.9 0 0 1882.54 411.77
  Q 1878.20 437.85 1874.25 463.75
  Q 1873.93 465.82 1875.45 465.18"
/>
<path stroke="#272625" vector-effect="non-scaling-stroke" d="
  M 1938.46 464.50
  L 1926.57 465.33"
/>
<path stroke="#272625" vector-effect="non-scaling-stroke" d="
  M 1886.54 464.71
  Q 1880.87 464.35 1875.45 465.18"
/>
<path stroke="#a3a1a0" vector-effect="non-scaling-stroke" d="
  M 1980.64 464.92
  Q 1995.01 465.79 2009.19 465.44
  Q 2009.49 465.44 2009.62 465.29
  Q 2009.80 465.07 2009.71 464.75"
/>
<path stroke="#838484" vector-effect="non-scaling-stroke" d="
  M 2009.71 464.75
  L 2009.60 455.18
  A 0.54 0.50 -0.5 0 0 2009.06 454.69
  L 1993.78 454.75
  A 0.78 0.78 0.0 0 1 1993.00 453.97
  L 1993.00 412.02
  A 0.72 0.70 90.0 0 0 1992.30 411.30
  L 1981.34 411.30
  A 0.85 0.83 90.0 0 0 1980.51 412.15
  L 1980.64 464.92"
/>
<path stroke="#272625" vector-effect="non-scaling-stroke" d="
  M 2009.71 464.75
  L 1980.64 464.92"
/>
<path stroke="#a3a1a0" vector-effect="non-scaling-stroke" d="
  M 2055.00 465.21
  Q 2059.50 465.89 2064.00 465.21"
/>
<path stroke="#838484" vector-effect="non-scaling-stroke" d="
  M 2064.00 465.21
  Q 2064.97 466.04 2065.00 465.00
  Q 2065.72 442.85 2065.01 412.00
  A 0.56 0.52 90.0 0 0 2064.50 411.45
  L 2053.43 411.40
  A 0.54 0.49 -89.5 0 0 2052.93 411.94
  L 2052.81 464.69
  A 0.55 0.49 89.5 0 0 2053.31 465.24
  L 2055.00 465.21"
/>
<path stroke="#272625" vector-effect="non-scaling-stroke" d="
  M 2064.00 465.21
  Q 2059.52 464.00 2055.00 465.21"
/>
<path stroke="#a3a1a0" vector-effect="non-scaling-stroke" d="
  M 2119.47 464.83
  Q 2125.48 465.88 2131.42 465.31"
/>
<path stroke="#838484" vector-effect="non-scaling-stroke" d="
  M 2131.42 465.31
  L 2131.74 422.40
  A 0.56 0.51 89.5 0 1 2132.24 421.84
  L 2142.98 421.58
  A 0.54 0.49 -1.2 0 0 2143.50 421.09
  L 2143.50 411.77
  A 0.52 0.52 0.0 0 0 2142.98 411.25
  L 2108.27 411.25
  A 0.52 0.52 0.0 0 0 2107.75 411.77
  L 2107.75 420.85
  A 0.98 0.95 -0.3 0 0 2108.74 421.80
  L 2118.82 421.68
  A 0.51 0.49 89.4 0 1 2119.32 422.19
  L 2119.47 464.83"
/>
<path stroke="#272625" vector-effect="non-scaling-stroke" d="
  M 2131.42 465.31
  Q 2130.66 464.77 2130.17 464.57
  Q 2129.93 464.48 2128.81 464.54
  Q 2124.22 464.81 2119.47 464.83"
/>
<path stroke="#838484" vector-effect="non-scaling-stroke" d="
  M 1784.97 429.12
  Q 1779.52 438.35 1774.96 448.05
  Q 1774.74 448.53 1774.49 448.06
  L 1764.50 429.14"
/>
<path stroke="#cdc9cb" vector-effect="non-scaling-stroke" d="
  M 1764.50 429.14
  Q 1759.40 429.39 1754.46 428.81
  Q 1754.07 428.76 1753.55 428.89
  Q 1753.09 429.00 1752.61 429.01
  Q 1752.38 429.01 1751.93 428.84
  Q 1751.19 428.55 1751.33 429.60"
/>
<path stroke="#838484" vector-effect="non-scaling-stroke" d="
  M 1751.33 429.60
  L 1767.65 459.78
  A 2.04 2.03 -44.9 0 1 1767.64 461.72
  L 1756.09 482.87
  A 0.58 0.56 -75.6 0 0 1756.58 483.73
  L 1768.06 483.59
  A 0.89 0.81 -74.7 0 0 1768.80 483.12
  L 1797.11 429.94"
/>
<path stroke="#cdc9cb" vector-effect="non-scaling-stroke" d="
  M 1797.11 429.94
  Q 1798.44 427.99 1795.58 428.63
  Q 1790.68 429.72 1784.97 429.12"
/>
<path stroke="#514e4f" vector-effect="non-scaling-stroke" d="
  M 1797.11 429.94
  L 1784.97 429.12"
/>
<path stroke="#514e4f" vector-effect="non-scaling-stroke" d="
  M 1764.50 429.14
  L 1751.33 429.60"
/>
<path stroke="#a4d4ad" vector-effect="non-scaling-stroke" d="
  M 1963.44 510.25
  L 1958.74 518.44
  A 3.38 3.33 6.1 0 1 1956.79 519.99
  Q 1931.68 527.76 1928.29 553.46
  A 0.89 0.85 -86.2 0 0 1929.14 554.47
  L 1937.06 554.35
  A 0.64 0.58 -84.7 0 0 1937.64 553.82
  Q 1940.32 537.46 1955.32 530.58
  Q 1959.22 528.78 1963.16 528.52
  A 0.90 0.89 88.3 0 0 1964.00 527.62
  L 1964.00 510.40
  Q 1964.00 509.27 1963.44 510.25"
/>
<path stroke="#c1d4eb" vector-effect="non-scaling-stroke" d="
  M 2399.26 530.57
  Q 2388.64 521.41 2373.75 521.60
  Q 2350.54 521.89 2335.32 537.71
  Q 2330.63 542.58 2328.19 547.56
  Q 2325.32 553.45 2325.06 559.56
  Q 2324.44 574.09 2336.69 582.81
  Q 2342.74 587.13 2348.00 588.25
  Q 2375.89 594.22 2396.58 575.33
  Q 2409.13 563.88 2408.23 546.39
  A 0.43 0.43 2.2 0 1 2408.72 545.94
  Q 2423.22 547.69 2431.25 536.52
  Q 2434.15 532.50 2433.82 528.03
  Q 2433.52 523.81 2430.60 520.73
  Q 2427.50 517.45 2422.75 517.25
  Q 2407.71 516.62 2400.38 530.36
  A 0.73 0.73 -55.5 0 1 2399.26 530.57"
/>
<path stroke="#859c9f" vector-effect="non-scaling-stroke" d="
  M 1969.64 528.28
  Q 1990.33 532.72 1995.10 553.53
  A 0.94 0.94 -6.6 0 0 1996.02 554.26
  L 2012.71 554.31
  Q 2014.29 554.32 2012.91 553.55
  L 2004.59 548.90
  A 1.75 1.71 6.8 0 1 2003.80 547.92
  Q 1995.95 522.61 1969.57 518.76
  A 0.49 0.46 4.9 0 0 1969.01 519.20
  L 1968.75 527.22
  A 1.11 1.03 7.2 0 0 1969.64 528.28"
/>
<path stroke="#a4d4ad" vector-effect="non-scaling-stroke" d="
  M 2032.90 577.35
  Q 2038.56 581.74 2044.94 580.94
  Q 2056.40 579.50 2059.81 569.29
  Q 2060.75 566.48 2060.75 561.58
  Q 2060.75 557.68 2060.75 553.77
  Q 2060.75 546.69 2059.79 543.83
  Q 2058.06 538.69 2053.44 535.56
  Q 2044.76 529.70 2035.00 534.75
  Q 2026.62 539.09 2026.24 548.96
  Q 2026.09 552.95 2026.09 553.04
  Q 2025.90 555.94 2026.00 558.85
  Q 2026.20 565.05 2026.44 566.65
  Q 2027.43 573.11 2032.90 577.35"
/>
<path stroke="#a4d4ad" vector-effect="non-scaling-stroke" d="
  M 2071.39 555.62
  Q 2075.98 559.15 2081.45 561.14
  Q 2085.29 562.53 2086.81 564.19
  Q 2088.47 565.99 2087.92 568.33
  Q 2087.49 570.19 2085.86 571.67
  Q 2083.13 574.15 2079.25 573.50
  Q 2075.20 572.82 2070.68 570.25
  A 0.69 0.65 37.7 0 0 2069.89 570.33
  Q 2067.55 572.55 2066.90 575.70
  A 0.77 0.77 23.5 0 0 2067.21 576.48
  Q 2072.33 580.26 2078.75 580.79
  Q 2083.59 581.20 2087.74 579.37
  Q 2091.99 577.49 2094.13 573.84
  Q 2096.44 569.92 2095.75 565.00
  Q 2095.19 561.01 2092.52 558.27
  Q 2090.90 556.61 2086.39 554.63
  Q 2080.15 551.89 2078.56 550.94
  Q 2074.78 548.66 2075.29 544.82
  Q 2075.58 542.65 2077.12 541.20
  Q 2078.89 539.53 2081.25 539.75
  Q 2086.48 540.24 2091.14 543.41
  A 0.59 0.59 -54.2 0 0 2091.94 543.28
  Q 2094.09 540.56 2094.88 537.73
  A 0.74 0.72 25.9 0 0 2094.60 536.95
  Q 2088.13 532.11 2080.56 532.57
  Q 2074.42 532.94 2070.82 536.52
  Q 2066.70 540.60 2067.13 547.51
  Q 2067.45 552.59 2071.39 555.62"
/>
<path stroke="#859c9f" vector-effect="non-scaling-stroke" d="
  M 2128.91 561.42
  Q 2128.61 561.95 2128.68 562.76
  Q 2129.25 570.15 2122.51 572.66
  Q 2118.74 574.06 2115.75 572.50
  Q 2109.73 569.34 2110.01 561.99
  Q 2110.25 555.75 2110.25 549.50
  Q 2110.25 545.01 2113.55 542.35
  Q 2116.56 539.93 2120.42 540.16
  Q 2124.83 540.42 2128.47 544.10
  A 0.85 0.78 45.0 0 0 2129.62 544.15
  L 2132.64 541.12
  Q 2134.62 539.14 2132.18 537.23
  Q 2122.66 529.78 2112.60 534.02
  Q 2109.26 535.43 2106.98 537.79
  Q 2104.49 540.37 2103.29 543.68
  Q 2102.25 546.54 2102.25 553.45
  Q 2102.25 557.46 2102.25 561.47
  Q 2102.25 566.84 2103.12 569.41
  Q 2104.59 573.80 2108.19 576.81
  Q 2113.95 581.64 2121.03 580.90
  Q 2125.68 580.41 2129.41 577.81
  Q 2133.34 575.07 2135.26 570.61
  Q 2136.55 567.62 2136.74 563.08
  Q 2136.90 559.18 2136.51 555.32
  A 1.94 1.94 89.5 0 0 2134.75 553.59
  Q 2126.68 552.89 2119.55 553.52
  A 0.65 0.65 2.9 0 0 2118.96 554.05
  Q 2118.43 556.94 2118.98 560.07
  A 0.83 0.82 -4.9 0 0 2119.80 560.75
  L 2128.51 560.75
  A 0.45 0.45 14.4 0 1 2128.91 561.42"
/>
<path stroke="#859c9f" vector-effect="non-scaling-stroke" d="
  M 2257.13 539.82
  A 0.41 0.37 -2.2 0 1 2257.56 540.18
  Q 2257.98 549.45 2257.64 558.72
  Q 2257.41 565.20 2257.40 565.28
  Q 2256.80 568.94 2253.92 571.18
  Q 2251.78 572.85 2248.19 573.27
  Q 2245.26 573.62 2241.96 573.46
  A 0.86 0.84 7.2 0 0 2241.09 574.12
  Q 2240.40 577.13 2241.05 579.98
  A 1.24 1.24 85.0 0 0 2242.19 580.94
  Q 2246.15 581.16 2249.61 580.81
  Q 2253.58 580.40 2256.62 578.72
  Q 2263.28 575.05 2264.96 567.93
  Q 2265.50 565.64 2265.50 555.04
  Q 2265.50 544.61 2265.50 533.76
  A 1.26 1.26 0.0 0 0 2264.24 532.50
  L 2252.94 532.50
  A 0.94 0.94 0.0 0 0 2252.00 533.44
  L 2252.00 538.94
  A 1.06 0.95 89.0 0 0 2252.99 540.00
  L 2257.13 539.82"
/>
<path stroke="#859c9f" vector-effect="non-scaling-stroke" d="
  M 2281.56 563.38
  Q 2295.72 565.05 2300.62 553.04
  Q 2301.71 550.34 2301.66 547.82
  Q 2301.59 544.96 2300.50 542.50
  Q 2295.93 532.25 2284.25 532.43
  Q 2280.00 532.50 2274.50 532.50
  A 0.79 0.79 -89.3 0 0 2273.71 533.27
  Q 2273.18 557.21 2273.74 580.01
  A 0.77 0.73 -80.3 0 0 2274.20 580.70
  Q 2275.18 581.10 2276.24 581.11
  Q 2277.68 581.13 2278.75 581.18
  Q 2281.33 581.29 2281.13 578.62
  Q 2281.00 576.94 2280.99 576.88
  Q 2280.96 570.35 2281.05 563.82
  A 0.46 0.45 4.0 0 1 2281.56 563.38"
/>
<path stroke="#859c9f" vector-effect="non-scaling-stroke" d="
  M 1963.13 549.65
  L 1952.67 542.77
  Q 1952.21 542.47 1952.50 542.92
  L 1959.25 553.71"
/>
<path stroke="#a4d4ad" vector-effect="non-scaling-stroke" d="
  M 1959.25 553.71
  L 1943.60 556.39
  Q 1941.18 556.80 1943.60 557.19
  L 1958.38 559.58
  A 0.63 0.63 -68.4 0 1 1958.80 560.55
  L 1952.74 569.76
  Q 1951.48 571.69 1953.38 570.38
  L 1962.58 564.04
  A 0.50 0.50 67.3 0 1 1963.35 564.36
  Q 1965.01 572.65 1966.03 579.97
  Q 1966.07 580.21 1966.16 580.38
  Q 1966.60 581.21 1966.72 580.25
  Q 1967.80 571.94 1969.54 563.75"
/>
<path stroke="#859c9f" vector-effect="non-scaling-stroke" d="
  M 1969.54 563.75
  L 1979.96 570.79
  Q 1981.38 571.75 1980.44 570.32
  L 1973.63 559.92"
/>
<path stroke="#a4d4ad" vector-effect="non-scaling-stroke" d="
  M 1973.63 559.92
  L 1989.02 557.25
  Q 1991.83 556.76 1989.04 556.32
  L 1974.53 554.00
  A 0.80 0.80 -68.7 0 1 1973.99 552.76
  L 1980.36 543.31
  Q 1981.42 541.73 1979.82 542.80
  L 1969.99 549.42
  A 0.34 0.34 68.3 0 1 1969.47 549.19
  L 1966.58 533.25
  Q 1966.50 532.79 1966.41 533.24
  L 1963.13 549.65"
/>
<path stroke="#2a714d" vector-effect="non-scaling-stroke" d="
  M 1973.63 559.92
  Q 1969.60 553.45 1963.13 549.65"
/>
<path stroke="#2a714d" vector-effect="non-scaling-stroke" d="
  M 1969.54 563.75
  Q 1963.13 560.04 1959.25 553.71"
/>
<path stroke="#afafaf" vector-effect="non-scaling-stroke" d="
  M 1872.00 538.04
  Q 1871.48 537.86 1870.98 537.91
  A 0.63 0.54 89.2 0 0 1870.48 538.51
  Q 1869.89 558.00 1870.48 577.50
  A 0.50 0.46 -2.9 0 0 1871.01 577.94
  L 1875.70 577.68
  A 0.69 0.68 -81.9 0 0 1876.32 577.21
  Q 1876.97 575.33 1878.50 577.54"
/>
<path stroke="#cdc9cb" vector-effect="non-scaling-stroke" d="
  M 1878.50 577.54
  Q 1881.32 579.35 1884.25 577.71"
/>
<path stroke="#afafaf" vector-effect="non-scaling-stroke" d="
  M 1884.25 577.71
  Q 1887.40 575.92 1887.50 571.50
  Q 1887.77 559.98 1887.64 556.25
  Q 1887.35 547.12 1878.66 549.78
  A 1.77 1.37 -73.7 0 0 1877.89 550.34
  Q 1876.01 552.75 1876.50 548.75
  Q 1876.90 545.42 1876.21 538.25"
/>
<path stroke="#e3e5e2" vector-effect="non-scaling-stroke" d="
  M 1876.21 538.25
  Q 1874.25 537.25 1872.00 538.04"
/>
<path stroke="#929492" vector-effect="non-scaling-stroke" d="
  M 1876.21 538.25
  Q 1874.09 538.64 1872.00 538.04"
/>
<path stroke="#7c797a" vector-effect="non-scaling-stroke" d="
  M 1884.25 577.71
  L 1878.50 577.54"
/>
<path stroke="#cdc9cb" vector-effect="non-scaling-stroke" d="
  M 1692.75 578.21
  Q 1695.39 578.73 1697.75 577.54"
/>
<path stroke="#afafaf" vector-effect="non-scaling-stroke" d="
  M 1697.75 577.54
  Q 1701.36 576.15 1702.54 572.51
  Q 1704.28 567.18 1703.20 561.66
  Q 1702.57 558.44 1700.00 556.75
  Q 1698.27 555.61 1696.07 554.74
  Q 1692.78 553.42 1692.09 552.90
  Q 1689.23 550.70 1690.55 546.99
  Q 1691.26 544.99 1692.85 544.32
  Q 1695.23 543.33 1696.72 546.42
  Q 1697.37 547.75 1697.53 549.60
  A 0.52 0.52 81.4 0 0 1698.16 550.07
  Q 1700.25 549.63 1702.21 550.04
  A 1.03 1.03 -82.1 0 0 1703.46 549.09
  Q 1703.82 543.25 1700.44 540.29
  Q 1697.31 537.54 1692.54 537.83
  Q 1686.66 538.18 1684.75 544.75
  Q 1681.27 556.72 1692.94 560.31
  Q 1696.97 561.56 1697.32 565.05
  Q 1697.51 567.01 1697.24 568.95
  Q 1696.85 571.79 1693.90 571.83
  Q 1692.00 571.86 1691.02 570.76
  Q 1689.99 569.59 1690.00 567.47
  A 1.20 1.16 -90.0 0 0 1688.83 566.26
  L 1685.18 566.27
  A 1.58 1.51 87.2 0 0 1683.68 568.00
  Q 1684.51 577.07 1692.75 578.21"
/>
<path stroke="#7c797a" vector-effect="non-scaling-stroke" d="
  M 1697.75 577.54
  L 1692.75 578.21"
/>
<path stroke="#afafaf" vector-effect="non-scaling-stroke" d="
  M 1849.79 538.50
  L 1849.75 550.52
  Q 1849.75 551.57 1849.06 550.78
  Q 1848.23 549.84 1846.74 549.55
  Q 1840.35 548.34 1839.06 553.01
  Q 1838.77 554.03 1838.58 560.02
  Q 1838.41 565.48 1838.76 570.92
  Q 1839.01 574.82 1840.65 576.59
  Q 1843.37 579.55 1847.98 577.64
  A 1.60 1.19 -80.7 0 0 1848.65 576.99
  Q 1849.39 575.65 1849.91 577.23
  A 0.82 0.77 -7.6 0 0 1850.65 577.76
  L 1855.19 577.89
  A 0.50 0.48 2.3 0 0 1855.71 577.43
  Q 1856.41 557.82 1855.75 538.19"
/>
<path stroke="#e3e5e2" vector-effect="non-scaling-stroke" d="
  M 1855.75 538.19
  Q 1853.70 537.67 1852.00 537.91
  Q 1851.57 537.97 1851.02 537.85
  Q 1850.02 537.62 1849.79 538.50"
/>
<path stroke="#929492" vector-effect="non-scaling-stroke" d="
  M 1855.75 538.19
  L 1849.79 538.50"
/>
<path stroke="#cdc9cb" vector-effect="non-scaling-stroke" d="
  M 1809.54 576.50
  Q 1812.65 578.79 1816.46 577.75"
/>
<path stroke="#afafaf" vector-effect="non-scaling-stroke" d="
  M 1816.46 577.75
  L 1816.37 572.69
  A 0.61 0.51 3.0 0 0 1815.81 572.17
  Q 1814.75 572.08 1813.90 571.54
  A 0.98 0.93 -75.0 0 1 1813.47 570.75
  L 1813.28 555.00
  A 0.73 0.71 9.1 0 1 1814.24 554.33
  Q 1816.78 555.15 1816.63 552.68
  Q 1816.58 551.87 1816.68 550.82
  Q 1816.86 548.92 1814.83 549.48
  A 1.42 1.28 81.6 0 1 1813.20 548.13
  L 1812.91 541.42
  A 0.60 0.52 -0.4 0 0 1812.32 540.92
  L 1807.56 540.81
  A 0.53 0.48 -88.2 0 0 1807.07 541.32
  L 1806.74 548.93
  A 0.50 0.47 3.9 0 1 1806.19 549.38
  Q 1802.72 549.08 1799.64 550.69
  Q 1799.29 550.87 1798.88 551.36
  Q 1797.93 552.48 1797.74 550.38
  A 0.97 0.97 -2.6 0 0 1796.77 549.50
  L 1792.27 549.50
  A 0.52 0.52 0.0 0 0 1791.75 550.02
  L 1791.75 577.38
  A 0.43 0.39 0.8 0 0 1792.17 577.77
  L 1797.01 577.92
  A 0.48 0.43 1.9 0 0 1797.51 577.50
  Q 1797.73 570.16 1797.93 562.83
  Q 1798.03 559.28 1798.88 557.84
  Q 1800.47 555.18 1804.20 555.62
  A 0.85 0.85 -68.6 0 0 1804.97 555.28
  Q 1807.30 552.03 1807.10 557.75
  Q 1806.82 565.51 1807.25 573.25
  Q 1807.34 574.80 1809.54 576.50"
/>
<path stroke="#7c797a" vector-effect="non-scaling-stroke" d="
  M 1816.46 577.75
  L 1809.54 576.50"
/>
<path stroke="#859c9f" vector-effect="non-scaling-stroke" d="
  M 2149.98 577.00
  Q 2154.31 580.19 2160.00 580.25
  Q 2166.03 580.32 2170.07 580.09
  A 0.68 0.68 -84.8 0 0 2170.69 579.57
  Q 2171.40 576.50 2170.69 573.43
  A 0.69 0.68 -5.1 0 0 2170.06 572.91
  Q 2165.16 572.61 2160.25 572.69
  Q 2153.30 572.80 2151.46 566.11
  A 1.27 1.27 -7.6 0 1 2152.69 564.50
  L 2172.39 564.50
  Q 2174.21 564.50 2174.52 562.71
  Q 2175.16 559.09 2174.55 555.36
  Q 2173.92 551.57 2171.94 548.61
  Q 2168.32 543.20 2162.07 542.14
  Q 2156.40 541.18 2151.29 544.02
  Q 2143.19 548.52 2143.44 559.50
  Q 2143.50 562.12 2143.58 564.75
  Q 2143.83 572.48 2149.98 577.00"
/>
<path stroke="#859c9f" vector-effect="non-scaling-stroke" d="
  M 2211.76 556.31
  A 14.29 14.29 0.0 0 0 2197.47 542.02
  L 2195.23 542.02
  A 14.29 14.29 0.0 0 0 2180.94 556.31
  L 2180.94 566.45
  A 14.29 14.29 0.0 0 0 2195.23 580.74
  L 2197.47 580.74
  A 14.29 14.29 0.0 0 0 2211.76 566.45
  L 2211.76 556.31"
/>
<path stroke="#afafaf" vector-effect="non-scaling-stroke" d="
  M 1820.12 550.91
  Q 1816.79 559.15 1817.53 568.07
  Q 1817.92 572.78 1819.48 575.14
  Q 1821.91 578.83 1826.94 578.44
  Q 1834.52 577.84 1834.74 570.00
  A 0.49 0.48 -88.9 0 0 1834.26 569.49
  L 1829.50 569.52
  A 1.26 1.24 89.1 0 0 1828.26 570.82
  Q 1828.31 572.21 1825.66 571.53
  A 2.00 1.61 7.3 0 1 1824.16 569.96
  L 1823.97 566.00"
/>
<path stroke="#cdc9cb" vector-effect="non-scaling-stroke" d="
  M 1823.97 566.00
  Q 1828.96 566.81 1834.57 566.08"
/>
<path stroke="#afafaf" vector-effect="non-scaling-stroke" d="
  M 1834.57 566.08
  Q 1835.44 561.85 1834.75 556.50
  Q 1834.25 552.61 1831.21 550.50"
/>
<path stroke="#e3e5e2" vector-effect="non-scaling-stroke" d="
  M 1831.21 550.50
  Q 1830.32 548.52 1827.94 548.94
  Q 1826.82 549.13 1825.30 548.95
  Q 1823.59 548.76 1822.73 549.10
  Q 1821.37 549.65 1820.12 550.91"
/>
<path stroke="#929492" vector-effect="non-scaling-stroke" d="
  M 1831.21 550.50
  Q 1826.06 548.22 1820.12 550.91"
/>
<path stroke="#7c797a" vector-effect="non-scaling-stroke" d="
  M 1834.57 566.08
  Q 1829.29 564.63 1823.97 566.00"
/>
<path stroke="#cdc9cb" vector-effect="non-scaling-stroke" d="
  M 1736.75 577.54
  Q 1739.84 579.33 1742.75 577.54"
/>
<path stroke="#afafaf" vector-effect="non-scaling-stroke" d="
  M 1742.75 577.54
  Q 1745.32 576.05 1745.50 572.50
  Q 1745.99 562.75 1745.48 555.64
  Q 1745.24 552.22 1743.84 550.78
  Q 1741.84 548.73 1738.25 549.25
  Q 1736.42 549.52 1735.33 550.63
  A 0.41 0.40 49.4 0 1 1734.72 550.58
  L 1734.26 549.95
  A 1.01 1.01 71.2 0 0 1733.43 549.54
  L 1729.06 549.54
  A 0.53 0.51 -90.0 0 0 1728.55 550.07
  L 1728.49 588.75
  A 0.57 0.50 90.0 0 0 1728.99 589.32
  L 1734.01 589.32
  A 0.57 0.49 90.0 0 0 1734.50 588.75
  Q 1734.51 582.87 1734.73 577.01
  Q 1734.78 575.66 1735.47 576.75
  Q 1735.91 577.44 1736.75 577.54"
/>
<path stroke="#7c797a" vector-effect="non-scaling-stroke" d="
  M 1742.75 577.54
  L 1736.75 577.54"
/>
<path stroke="#cdc9cb" vector-effect="non-scaling-stroke" d="
  M 1758.50 577.54
  Q 1761.50 579.29 1764.50 577.54"
/>
<path stroke="#afafaf" vector-effect="non-scaling-stroke" d="
  M 1764.50 577.54
  Q 1767.10 575.41 1767.08 572.15
  Q 1767.07 570.00 1767.08 569.84
  Q 1767.36 565.06 1767.00 556.50
  Q 1766.62 547.55 1758.17 549.56
  A 1.23 1.03 -78.6 0 0 1757.46 550.13
  Q 1756.46 551.88 1755.83 550.03
  A 0.74 0.69 80.2 0 0 1755.18 549.54
  L 1750.30 549.50
  A 0.55 0.54 89.5 0 0 1749.76 550.06
  L 1749.93 588.31
  A 0.74 0.71 -80.5 0 0 1750.40 589.00
  Q 1752.47 589.73 1755.40 589.04
  A 0.71 0.70 -6.4 0 0 1755.94 588.37
  Q 1756.05 582.84 1756.10 577.00
  Q 1756.11 576.02 1756.69 576.37
  Q 1756.83 576.46 1757.10 576.84
  Q 1757.59 577.52 1758.50 577.54"
/>
<path stroke="#7c797a" vector-effect="non-scaling-stroke" d="
  M 1764.50 577.54
  L 1758.50 577.54"
/>
<path stroke="#afafaf" vector-effect="non-scaling-stroke" d="
  M 1787.9685 557.1450
  A 7.93 7.93 0.0 0 0 1780.0247 549.2289
  L 1778.7047 549.2312
  A 7.93 7.93 0.0 0 0 1770.7885 557.1750
  L 1770.8115 570.3150
  A 7.93 7.93 0.0 0 0 1778.7553 578.2311
  L 1780.0753 578.2288
  A 7.93 7.93 0.0 0 0 1787.9915 570.2850
  L 1787.9685 557.1450"
/>
<path stroke="#afafaf" vector-effect="non-scaling-stroke" d="
  M 1898.49 564.57
  L 1895.31 549.90
  A 0.64 0.61 -6.7 0 0 1894.68 549.43
  L 1889.27 549.50
  A 0.55 0.54 -7.9 0 0 1888.74 550.19
  Q 1892.47 562.82 1896.00 575.25
  Q 1896.68 577.63 1895.10 580.77
  Q 1895.03 580.90 1894.63 581.89
  Q 1894.06 583.30 1892.52 583.26
  A 1.61 1.60 -85.7 0 0 1890.89 584.67
  Q 1890.57 587.16 1891.08 588.74
  A 0.72 0.71 -7.4 0 0 1891.74 589.24
  Q 1896.06 589.34 1898.42 586.93
  Q 1899.85 585.48 1901.05 581.03
  Q 1905.13 565.82 1908.46 550.43
  A 0.54 0.54 -75.8 0 0 1908.08 549.79
  Q 1905.46 549.07 1902.80 549.69
  A 0.82 0.77 -89.6 0 0 1902.21 550.31
  L 1899.06 564.58
  Q 1898.77 565.87 1898.49 564.57"
/>
<path stroke="#cdc9cb" vector-effect="non-scaling-stroke" d="
  M 1710.00 577.54
  Q 1713.11 579.17 1716.25 577.54"
/>
<path stroke="#afafaf" vector-effect="non-scaling-stroke" d="
  M 1716.25 577.54
  Q 1717.85 574.89 1718.43 577.66
  Q 1718.63 578.63 1719.25 577.96"
/>
<path stroke="#e3e5e2" vector-effect="non-scaling-stroke" d="
  M 1719.25 577.96
  L 1723.75 577.96"
/>
<path stroke="#afafaf" vector-effect="non-scaling-stroke" d="
  M 1723.75 577.96
  Q 1724.25 577.56 1724.25 576.50
  Q 1724.25 563.63 1724.25 550.41
  A 0.82 0.74 89.7 0 0 1723.50 549.59
  L 1718.74 549.66
  A 0.60 0.51 -89.9 0 0 1718.24 550.25
  Q 1718.04 559.66 1717.78 569.06
  Q 1717.74 570.44 1717.05 571.23
  Q 1715.67 572.78 1714.33 571.40
  Q 1713.52 570.56 1713.40 568.84
  Q 1712.75 559.59 1712.93 550.31
  A 0.61 0.49 -89.0 0 0 1712.45 549.69
  L 1707.69 549.65
  A 0.75 0.67 -89.6 0 0 1707.02 550.39
  Q 1706.82 562.63 1707.25 573.75
  Q 1707.32 575.64 1710.00 577.54"
/>
<path stroke="#929492" vector-effect="non-scaling-stroke" d="
  M 1723.75 577.96
  Q 1721.45 577.07 1719.25 577.96"
/>
<path stroke="#7c797a" vector-effect="non-scaling-stroke" d="
  M 1716.25 577.54
  L 1710.00 577.54"
/>
<path stroke="#e28b90" vector-effect="non-scaling-stroke" d="
  M 2236.49 558.69
  A 6.92 6.92 0.0 0 0 2229.57 551.77
  A 6.92 6.92 0.0 0 0 2222.65 558.69
  A 6.92 6.92 0.0 0 0 2229.57 565.61
  A 6.92 6.92 0.0 0 0 2236.49 558.69"
/>
<path stroke="#859c9f" vector-effect="non-scaling-stroke" d="
  M 1919.47 559.52
  L 1927.91 564.30
  A 2.90 2.46 9.6 0 1 1929.20 565.83
  Q 1937.07 591.12 1963.32 594.69
  A 0.60 0.60 3.8 0 0 1964.00 594.10
  L 1964.00 585.75
  A 0.63 0.62 5.7 0 0 1963.49 585.14
  Q 1941.86 581.03 1937.71 559.65
  A 0.81 0.81 84.3 0 0 1936.92 559.00
  L 1919.62 559.00
  Q 1918.55 559.00 1919.47 559.52"
/>
<path stroke="#a4d4ad" vector-effect="non-scaling-stroke" d="
  M 1995.08 559.75
  Q 1990.57 581.42 1969.56 585.23
  A 0.64 0.59 -4.7 0 0 1969.03 585.81
  L 1968.78 603.31
  Q 1968.76 604.31 1969.29 603.43
  L 1974.78 594.24
  A 1.43 1.14 2.1 0 1 1975.55 593.67
  Q 2000.18 586.49 2004.60 560.39
  A 0.97 0.97 5.0 0 0 2003.64 559.25
  L 1995.70 559.25
  A 0.64 0.63 -83.8 0 0 1995.08 559.75"
/>
<path stroke="#333333" vector-effect="non-scaling-stroke" d="
  M 1083.46 281.22
  Q 1105.68 281.84 1127.79 280.77"
/>
<path stroke="#838484" vector-effect="non-scaling-stroke" d="
  M 1127.79 280.77
  L 1106.36 231.23
  Q 1106.08 230.58 1105.79 231.22
  Q 1095.60 253.40 1085.69 275.44
  Q 1083.75 279.75 1083.46 281.22"
/>
<path stroke="#afafaf" vector-effect="non-scaling-stroke" d="
  M 1127.79 280.77
  L 1084.82 280.56
  A 1.19 0.26 -40.5 0 0 1084.05 280.97
  Q 1083.84 281.14 1083.46 281.22"
/>
<path stroke="#333333" vector-effect="non-scaling-stroke" d="
  M 1818.64 280.15
  Q 1818.35 280.43 1818.50 280.83
  A 0.87 0.66 -6.4 0 0 1819.24 281.27
  Q 1827.54 281.68 1835.84 281.48
  Q 1838.87 281.40 1847.65 281.64
  Q 1855.29 281.85 1862.91 280.52"
/>
<path stroke="#838484" vector-effect="non-scaling-stroke" d="
  M 1862.91 280.52
  L 1841.35 230.91
  Q 1841.14 230.43 1840.93 230.90
  L 1818.64 280.15"
/>
<path stroke="#afafaf" vector-effect="non-scaling-stroke" d="
  M 1862.91 280.52
  L 1818.64 280.15"
/>
<path stroke="#838484" vector-effect="non-scaling-stroke" d="
  M 607.44 211.36
  L 607.56 256.44
  A 0.48 0.47 -1.7 0 0 608.07 256.91
  Q 613.65 256.61 619.25 256.68
  Q 627.45 256.77 634.49 253.31
  Q 639.58 250.81 642.46 246.91
  Q 645.71 242.51 646.25 237.00
  Q 647.93 219.93 634.49 213.70
  Q 629.58 211.42 621.56 210.77
  Q 615.19 210.24 608.21 210.56
  A 0.80 0.80 -1.1 0 0 607.44 211.36"
/>
<path stroke="#838484" vector-effect="non-scaling-stroke" d="
  M 1713.32 447.15
  A 9.09 9.09 0.0 0 0 1704.23 438.06
  A 9.09 9.09 0.0 0 0 1695.14 447.15
  A 9.09 9.09 0.0 0 0 1704.23 456.24
  A 9.09 9.09 0.0 0 0 1713.32 447.15"
/>
<path stroke="#c1d4eb" vector-effect="non-scaling-stroke" d="
  M 2425.1063 527.4425
  A 9.37 5.10 -27.3 0 0 2414.4409 527.2081
  A 9.37 5.10 -27.3 0 0 2408.4537 536.0375
  A 9.37 5.10 -27.3 0 0 2419.1191 536.2719
  A 9.37 5.10 -27.3 0 0 2425.1063 527.4425"
/>
<path stroke="#c1d4eb" vector-effect="non-scaling-stroke" d="
  M 2398.9720 544.6477
  A 34.09 24.51 -18.9 0 0 2358.7808 532.5014
  A 34.09 24.51 -18.9 0 0 2334.4680 566.7323
  A 34.09 24.51 -18.9 0 0 2374.6592 578.8786
  A 34.09 24.51 -18.9 0 0 2398.9720 544.6477"
/>
<path stroke="#a4d4ad" vector-effect="non-scaling-stroke" d="
  M 2052.66 549.12
  A 8.73 8.73 0.0 0 0 2043.93 540.39
  L 2042.91 540.39
  A 8.73 8.73 0.0 0 0 2034.18 549.12
  L 2034.18 564.36
  A 8.73 8.73 0.0 0 0 2042.91 573.09
  L 2043.93 573.09
  A 8.73 8.73 0.0 0 0 2052.66 564.36
  L 2052.66 549.12"
/>
<path stroke="#859c9f" vector-effect="non-scaling-stroke" d="
  M 2291.31 541.94
  Q 2288.27 539.86 2284.04 540.38
  Q 2283.39 540.46 2282.49 540.29
  Q 2280.88 539.98 2281.06 541.43
  Q 2281.24 542.92 2281.23 543.10
  Q 2281.13 549.08 2281.41 555.06
  A 0.60 0.58 -88.9 0 0 2281.93 555.62
  Q 2284.84 555.95 2287.75 555.47
  Q 2292.46 554.70 2293.90 550.77
  Q 2294.76 548.42 2294.18 546.05
  Q 2293.53 543.46 2291.31 541.94"
/>
<path stroke="#afafaf" vector-effect="non-scaling-stroke" d="
  M 1881.39 557.87
  A 2.31 2.31 0.0 0 0 1879.08 555.56
  L 1878.90 555.56
  A 2.31 2.31 0.0 0 0 1876.59 557.87
  L 1876.59 569.35
  A 2.31 2.31 0.0 0 0 1878.90 571.66
  L 1879.08 571.66
  A 2.31 2.31 0.0 0 0 1881.39 569.35
  L 1881.39 557.87"
/>
<path stroke="#afafaf" vector-effect="non-scaling-stroke" d="
  M 1849.6498 557.8475
  A 2.30 2.30 0.0 0 0 1847.3378 555.5596
  L 1847.1378 555.5606
  A 2.30 2.30 0.0 0 0 1844.8499 557.8726
  L 1844.9102 569.3925
  A 2.30 2.30 0.0 0 0 1847.2222 571.6804
  L 1847.4222 571.6794
  A 2.30 2.30 0.0 0 0 1849.7101 569.3674
  L 1849.6498 557.8475"
/>
<path stroke="#859c9f" vector-effect="non-scaling-stroke" d="
  M 2162.79 550.34
  Q 2160.72 548.97 2158.26 549.32
  Q 2152.22 550.17 2151.40 556.98
  A 0.47 0.46 -86.7 0 0 2151.86 557.50
  L 2166.18 557.44
  A 0.52 0.51 0.0 0 0 2166.70 556.93
  Q 2166.65 552.90 2162.79 550.34"
/>
<path stroke="#859c9f" vector-effect="non-scaling-stroke" d="
  M 2203.9420 556.8135
  A 7.16 7.16 0.0 0 0 2196.8322 549.6037
  L 2195.8522 549.5969
  A 7.16 7.16 0.0 0 0 2188.6424 556.7067
  L 2188.5780 565.9265
  A 7.16 7.16 0.0 0 0 2195.6878 573.1363
  L 2196.6678 573.1431
  A 7.16 7.16 0.0 0 0 2203.8776 566.0333
  L 2203.9420 556.8135"
/>
<path stroke="#859c9f" vector-effect="non-scaling-stroke" d="
  M 1968.33 556.70
  A 1.97 1.97 0.0 0 0 1966.36 554.73
  A 1.97 1.97 0.0 0 0 1964.39 556.70
  A 1.97 1.97 0.0 0 0 1966.36 558.67
  A 1.97 1.97 0.0 0 0 1968.33 556.70"
/>
<path stroke="#afafaf" vector-effect="non-scaling-stroke" d="
  M 1739.45 557.90
  A 2.32 2.32 0.0 0 0 1737.13 555.58
  L 1736.93 555.58
  A 2.32 2.32 0.0 0 0 1734.61 557.90
  L 1734.61 569.42
  A 2.32 2.32 0.0 0 0 1736.93 571.74
  L 1737.13 571.74
  A 2.32 2.32 0.0 0 0 1739.45 569.42
  L 1739.45 557.90"
/>
<path stroke="#afafaf" vector-effect="non-scaling-stroke" d="
  M 1760.9200 557.9042
  A 2.31 2.31 0.0 0 0 1758.6141 555.5902
  L 1758.4141 555.5898
  A 2.31 2.31 0.0 0 0 1756.1000 557.8958
  L 1756.0800 569.3958
  A 2.31 2.31 0.0 0 0 1758.3859 571.7098
  L 1758.5859 571.7102
  A 2.31 2.31 0.0 0 0 1760.9000 569.4042
  L 1760.9200 557.9042"
/>
<path stroke="#afafaf" vector-effect="non-scaling-stroke" d="
  M 1781.7400 557.9682
  A 2.24 2.24 0.0 0 0 1779.5078 555.7204
  L 1779.3278 555.7197
  A 2.24 2.24 0.0 0 0 1777.0800 557.9519
  L 1777.0400 569.4118
  A 2.24 2.24 0.0 0 0 1779.2722 571.6596
  L 1779.4522 571.6603
  A 2.24 2.24 0.0 0 0 1781.7000 569.4281
  L 1781.7400 557.9682"
/>
<path stroke="#afafaf" vector-effect="non-scaling-stroke" d="
  M 1824.44 556.94
  Q 1822.31 562.66 1828.08 561.19
  A 0.81 0.78 -1.4 0 0 1828.68 560.58
  Q 1829.19 558.14 1827.81 556.16
  A 1.24 1.18 76.1 0 0 1827.01 555.65
  Q 1825.04 555.33 1824.44 556.94"
/>
</g>
<path fill="#ffffff" d="
  M 0.00 0.00
  L 1536.13 0.00
  L 2048.13 0.00
  L 2478.00 0.00
  L 2478.00 664.00
  L 1453.88 664.00
  L 941.88 664.00
  L 0.00 664.00
  L 0.00 0.00
  Z
  M 53.72 144.79
  L 203.50 231.43
  A 0.32 0.32 -72.5 0 0 203.98 231.18
  Q 204.25 227.25 204.25 219.75
  Q 204.30 138.53 204.19 57.79
  A 0.42 0.42 -15.0 0 0 203.56 57.43
  L 53.72 144.03
  A 0.44 0.44 0.0 0 0 53.72 144.79
  Z
  M 255.62 81.10
  Q 235.33 69.41 214.51 57.37
  Q 213.81 56.96 213.81 57.78
  L 213.75 235.76
  Q 213.75 237.43 215.20 238.27
  L 286.55 279.41
  A 0.30 0.30 15.9 0 0 287.00 279.16
  L 287.06 190.40
  A 1.42 1.41 -15.2 0 1 287.76 189.18
  L 364.46 144.93
  A 0.34 0.34 48.2 0 0 364.49 144.36
  Q 362.19 142.61 359.75 141.20
  Q 307.71 111.10 255.62 81.10
  Z
  M 226.59 255.89
  Q 137.64 204.53 48.75 153.07
  A 0.33 0.32 18.4 0 0 48.26 153.31
  Q 48.00 155.97 48.00 161.00
  Q 48.00 246.00 48.00 331.80
  A 2.37 2.36 -75.1 0 0 49.18 333.85
  L 368.92 518.50
  Q 370.00 519.12 370.00 517.88
  L 369.94 339.25
  A 0.96 0.94 -75.6 0 0 369.46 338.42
  Q 297.84 297.01 226.59 255.89
  Z
  M 297.23 285.55
  L 369.09 327.09
  Q 370.00 327.62 370.00 326.57
  L 369.94 153.41
  Q 369.94 152.77 369.38 153.09
  L 297.62 194.57
  A 1.73 1.73 -15.0 0 0 296.75 196.07
  L 296.75 284.72
  A 0.97 0.96 15.3 0 0 297.23 285.55
  Z
  M 1033.79 337.00
  Q 1033.33 337.55 1033.29 338.25
  Q 1045.54 339.18 1057.70 337.85
  L 1073.42 302.87
  A 0.85 0.73 9.6 0 1 1074.15 302.43
  L 1084.99 302.21
  Q 1111.24 302.81 1137.46 302.37
  L 1152.69 337.79
  Q 1157.07 338.29 1170.75 338.50
  Q 1174.34 338.56 1176.02 337.78
  Q 1177.25 338.87 1176.72 337.66
  Q 1142.79 260.68 1108.16 184.01
  Q 1107.51 182.56 1107.25 181.02
  Q 1107.16 180.44 1106.91 180.97
  L 1033.79 337.00
  Z
  M 1768.54 337.50
  Q 1768.21 337.80 1768.24 338.08
  A 0.81 0.46 0.4 0 0 1769.00 338.52
  Q 1780.91 338.99 1792.79 337.78
  L 1808.73 302.23
  Q 1840.62 302.88 1872.46 302.27
  L 1887.79 337.90
  Q 1899.75 339.03 1911.78 338.33
  A 0.56 0.31 2.9 0 0 1912.24 338.10
  Q 1912.32 337.90 1912.04 337.75
  L 1842.16 181.35
  Q 1841.95 180.88 1841.73 181.35
  L 1768.54 337.50
  Z
  M 584.77 337.82
  Q 595.12 339.10 607.18 338.14
  L 607.49 278.30
  A 0.87 0.87 2.2 0 1 608.42 277.44
  Q 618.48 278.04 627.43 277.10
  Q 637.00 276.10 645.23 271.85
  Q 653.70 267.48 659.34 260.42
  Q 668.09 249.44 668.26 234.25
  Q 668.35 225.56 665.75 218.50
  Q 657.12 195.12 631.97 190.90
  Q 623.43 189.47 614.75 189.46
  Q 600.03 189.45 585.31 189.56
  A 0.51 0.50 -90.0 0 0 584.81 190.07
  L 584.77 337.82
  Z
  M 826.51 338.09
  Q 859.14 339.07 892.19 338.30
  Q 893.15 327.84 892.77 317.50
  A 0.53 0.53 88.9 0 0 892.24 316.99
  L 849.82 316.44
  A 0.52 0.50 0.6 0 1 849.31 315.94
  L 849.19 190.06
  A 0.50 0.50 0.0 0 0 848.69 189.56
  L 827.05 189.50
  A 0.55 0.55 90.0 0 0 826.50 190.05
  L 826.51 338.09
  Z
  M 1308.27 211.00
  Q 1327.75 211.74 1341.31 211.31
  Q 1342.04 211.29 1342.21 211.75
  L 1342.23 338.05
  Q 1353.15 339.18 1364.03 338.03
  Q 1364.90 338.77 1364.80 337.43
  Q 1364.75 336.77 1364.75 336.59
  Q 1364.64 273.85 1364.90 210.92
  L 1398.57 211.00
  Q 1399.32 201.20 1398.98 190.04
  A 0.56 0.55 88.9 0 0 1398.43 189.50
  L 1308.82 189.56
  A 0.51 0.51 0.0 0 0 1308.31 190.07
  L 1308.27 211.00
  Z
  M 1555.50 338.09
  Q 1573.65 338.90 1591.75 338.12
  L 1636.21 338.25
  A 1.04 1.04 90.0 0 0 1637.25 337.21
  L 1637.25 317.26
  A 0.52 0.51 0.0 0 0 1636.73 316.75
  L 1578.73 316.56
  A 0.55 0.55 -89.9 0 1 1578.18 316.01
  L 1578.13 270.04
  Q 1593.52 270.75 1608.50 269.96
  L 1634.85 270.00
  A 0.65 0.65 0.0 0 0 1635.50 269.35
  L 1635.44 249.30
  A 0.50 0.49 0.0 0 0 1634.94 248.81
  L 1578.80 248.50
  A 0.81 0.80 0.4 0 1 1578.00 247.70
  L 1578.06 211.65
  A 0.90 0.90 -0.0 0 1 1578.96 210.75
  L 1636.56 210.81
  A 0.52 0.51 0.6 0 0 1637.08 210.31
  L 1637.24 190.11
  A 0.62 0.61 0.0 0 0 1636.62 189.50
  L 1556.00 189.50
  A 0.50 0.50 0.0 0 0 1555.50 190.00
  L 1555.50 338.09
  Z
  M 2033.71 190.05
  Q 2033.23 234.65 2033.64 277.74
  Q 2033.78 292.10 2034.79 297.69
  Q 2038.66 318.98 2056.19 331.15
  Q 2064.36 336.83 2074.32 339.29
  Q 2092.06 343.67 2109.11 337.34
  Q 2118.73 333.77 2126.13 327.12
  Q 2143.50 311.52 2143.50 286.50
  Q 2143.50 238.38 2143.50 190.06
  A 0.56 0.56 90.0 0 0 2142.94 189.50
  L 2121.78 189.50
  A 0.78 0.78 89.6 0 0 2121.00 190.29
  Q 2121.18 236.13 2120.97 281.00
  Q 2120.93 288.02 2119.63 294.92
  Q 2117.29 307.23 2107.00 314.22
  Q 2099.01 319.63 2089.95 320.00
  Q 2081.32 320.36 2073.13 316.02
  Q 2061.58 309.91 2058.03 297.37
  Q 2056.53 292.08 2056.42 277.50
  Q 2056.09 234.28 2056.25 190.27
  A 0.76 0.76 -89.6 0 0 2055.49 189.50
  L 2034.20 189.56
  A 0.49 0.49 0.0 0 0 2033.71 190.05
  Z
  M 1684.38 465.47
  Q 1690.09 465.89 1695.77 465.02
  L 1695.87 461.74
  Q 1695.89 461.20 1696.36 461.60
  L 1699.25 464.04
  Q 1702.26 466.57 1707.75 466.50
  Q 1712.39 466.44 1714.71 464.91
  Q 1723.19 460.66 1724.90 451.08
  Q 1725.99 444.91 1724.19 440.06
  Q 1719.53 427.56 1705.51 428.20
  Q 1700.04 428.44 1696.72 432.38
  Q 1695.76 433.52 1695.75 432.02
  L 1695.58 406.93
  A 0.53 0.52 89.4 0 0 1695.06 406.41
  L 1684.86 406.28
  A 0.62 0.60 -89.5 0 0 1684.25 406.90
  L 1684.38 465.47
  Z
  M 1875.45 465.18
  Q 1881.06 466.34 1886.54 464.71
  L 1890.67 434.24
  Q 1890.74 433.70 1890.96 434.21
  L 1903.88 464.73
  A 0.91 0.62 74.4 0 0 1904.55 465.30
  L 1908.01 465.35
  A 0.92 0.62 -73.7 0 0 1908.70 464.78
  L 1921.80 433.71
  Q 1922.00 433.25 1922.07 433.75
  L 1926.57 465.33
  Q 1933.07 465.56 1937.90 465.50
  Q 1938.33 465.50 1938.54 465.34
  Q 1938.98 465.00 1938.46 464.50
  L 1930.12 411.76
  A 0.65 0.61 -5.0 0 0 1929.46 411.24
  L 1920.05 411.56
  A 0.77 0.77 10.2 0 0 1919.37 412.03
  L 1906.78 442.55
  Q 1906.36 443.58 1905.93 442.55
  L 1893.13 411.77
  A 0.77 0.74 78.0 0 0 1892.44 411.30
  L 1883.14 411.25
  A 0.63 0.61 -84.9 0 0 1882.54 411.77
  Q 1878.20 437.85 1874.25 463.75
  Q 1873.93 465.82 1875.45 465.18
  Z
  M 1980.64 464.92
  Q 1995.01 465.79 2009.19 465.44
  Q 2009.49 465.44 2009.62 465.29
  Q 2009.80 465.07 2009.71 464.75
  L 2009.60 455.18
  A 0.54 0.50 -0.5 0 0 2009.06 454.69
  L 1993.78 454.75
  A 0.78 0.78 0.0 0 1 1993.00 453.97
  L 1993.00 412.02
  A 0.72 0.70 90.0 0 0 1992.30 411.30
  L 1981.34 411.30
  A 0.85 0.83 90.0 0 0 1980.51 412.15
  L 1980.64 464.92
  Z
  M 2055.00 465.21
  Q 2059.50 465.89 2064.00 465.21
  Q 2064.97 466.04 2065.00 465.00
  Q 2065.72 442.85 2065.01 412.00
  A 0.56 0.52 90.0 0 0 2064.50 411.45
  L 2053.43 411.40
  A 0.54 0.49 -89.5 0 0 2052.93 411.94
  L 2052.81 464.69
  A 0.55 0.49 89.5 0 0 2053.31 465.24
  L 2055.00 465.21
  Z
  M 2119.47 464.83
  Q 2125.48 465.88 2131.42 465.31
  L 2131.74 422.40
  A 0.56 0.51 89.5 0 1 2132.24 421.84
  L 2142.98 421.58
  A 0.54 0.49 -1.2 0 0 2143.50 421.09
  L 2143.50 411.77
  A 0.52 0.52 0.0 0 0 2142.98 411.25
  L 2108.27 411.25
  A 0.52 0.52 0.0 0 0 2107.75 411.77
  L 2107.75 420.85
  A 0.98 0.95 -0.3 0 0 2108.74 421.80
  L 2118.82 421.68
  A 0.51 0.49 89.4 0 1 2119.32 422.19
  L 2119.47 464.83
  Z
  M 1784.97 429.12
  Q 1779.52 438.35 1774.96 448.05
  Q 1774.74 448.53 1774.49 448.06
  L 1764.50 429.14
  Q 1759.40 429.39 1754.46 428.81
  Q 1754.07 428.76 1753.55 428.89
  Q 1753.09 429.00 1752.61 429.01
  Q 1752.38 429.01 1751.93 428.84
  Q 1751.19 428.55 1751.33 429.60
  L 1767.65 459.78
  A 2.04 2.03 -44.9 0 1 1767.64 461.72
  L 1756.09 482.87
  A 0.58 0.56 -75.6 0 0 1756.58 483.73
  L 1768.06 483.59
  A 0.89 0.81 -74.7 0 0 1768.80 483.12
  L 1797.11 429.94
  Q 1798.44 427.99 1795.58 428.63
  Q 1790.68 429.72 1784.97 429.12
  Z
  M 1963.44 510.25
  L 1958.74 518.44
  A 3.38 3.33 6.1 0 1 1956.79 519.99
  Q 1931.68 527.76 1928.29 553.46
  A 0.89 0.85 -86.2 0 0 1929.14 554.47
  L 1937.06 554.35
  A 0.64 0.58 -84.7 0 0 1937.64 553.82
  Q 1940.32 537.46 1955.32 530.58
  Q 1959.22 528.78 1963.16 528.52
  A 0.90 0.89 88.3 0 0 1964.00 527.62
  L 1964.00 510.40
  Q 1964.00 509.27 1963.44 510.25
  Z
  M 2399.26 530.57
  Q 2388.64 521.41 2373.75 521.60
  Q 2350.54 521.89 2335.32 537.71
  Q 2330.63 542.58 2328.19 547.56
  Q 2325.32 553.45 2325.06 559.56
  Q 2324.44 574.09 2336.69 582.81
  Q 2342.74 587.13 2348.00 588.25
  Q 2375.89 594.22 2396.58 575.33
  Q 2409.13 563.88 2408.23 546.39
  A 0.43 0.43 2.2 0 1 2408.72 545.94
  Q 2423.22 547.69 2431.25 536.52
  Q 2434.15 532.50 2433.82 528.03
  Q 2433.52 523.81 2430.60 520.73
  Q 2427.50 517.45 2422.75 517.25
  Q 2407.71 516.62 2400.38 530.36
  A 0.73 0.73 -55.5 0 1 2399.26 530.57
  Z
  M 1969.64 528.28
  Q 1990.33 532.72 1995.10 553.53
  A 0.94 0.94 -6.6 0 0 1996.02 554.26
  L 2012.71 554.31
  Q 2014.29 554.32 2012.91 553.55
  L 2004.59 548.90
  A 1.75 1.71 6.8 0 1 2003.80 547.92
  Q 1995.95 522.61 1969.57 518.76
  A 0.49 0.46 4.9 0 0 1969.01 519.20
  L 1968.75 527.22
  A 1.11 1.03 7.2 0 0 1969.64 528.28
  Z
  M 2032.90 577.35
  Q 2038.56 581.74 2044.94 580.94
  Q 2056.40 579.50 2059.81 569.29
  Q 2060.75 566.48 2060.75 561.58
  Q 2060.75 557.68 2060.75 553.77
  Q 2060.75 546.69 2059.79 543.83
  Q 2058.06 538.69 2053.44 535.56
  Q 2044.76 529.70 2035.00 534.75
  Q 2026.62 539.09 2026.24 548.96
  Q 2026.09 552.95 2026.09 553.04
  Q 2025.90 555.94 2026.00 558.85
  Q 2026.20 565.05 2026.44 566.65
  Q 2027.43 573.11 2032.90 577.35
  Z
  M 2071.39 555.62
  Q 2075.98 559.15 2081.45 561.14
  Q 2085.29 562.53 2086.81 564.19
  Q 2088.47 565.99 2087.92 568.33
  Q 2087.49 570.19 2085.86 571.67
  Q 2083.13 574.15 2079.25 573.50
  Q 2075.20 572.82 2070.68 570.25
  A 0.69 0.65 37.7 0 0 2069.89 570.33
  Q 2067.55 572.55 2066.90 575.70
  A 0.77 0.77 23.5 0 0 2067.21 576.48
  Q 2072.33 580.26 2078.75 580.79
  Q 2083.59 581.20 2087.74 579.37
  Q 2091.99 577.49 2094.13 573.84
  Q 2096.44 569.92 2095.75 565.00
  Q 2095.19 561.01 2092.52 558.27
  Q 2090.90 556.61 2086.39 554.63
  Q 2080.15 551.89 2078.56 550.94
  Q 2074.78 548.66 2075.29 544.82
  Q 2075.58 542.65 2077.12 541.20
  Q 2078.89 539.53 2081.25 539.75
  Q 2086.48 540.24 2091.14 543.41
  A 0.59 0.59 -54.2 0 0 2091.94 543.28
  Q 2094.09 540.56 2094.88 537.73
  A 0.74 0.72 25.9 0 0 2094.60 536.95
  Q 2088.13 532.11 2080.56 532.57
  Q 2074.42 532.94 2070.82 536.52
  Q 2066.70 540.60 2067.13 547.51
  Q 2067.45 552.59 2071.39 555.62
  Z
  M 2128.91 561.42
  Q 2128.61 561.95 2128.68 562.76
  Q 2129.25 570.15 2122.51 572.66
  Q 2118.74 574.06 2115.75 572.50
  Q 2109.73 569.34 2110.01 561.99
  Q 2110.25 555.75 2110.25 549.50
  Q 2110.25 545.01 2113.55 542.35
  Q 2116.56 539.93 2120.42 540.16
  Q 2124.83 540.42 2128.47 544.10
  A 0.85 0.78 45.0 0 0 2129.62 544.15
  L 2132.64 541.12
  Q 2134.62 539.14 2132.18 537.23
  Q 2122.66 529.78 2112.60 534.02
  Q 2109.26 535.43 2106.98 537.79
  Q 2104.49 540.37 2103.29 543.68
  Q 2102.25 546.54 2102.25 553.45
  Q 2102.25 557.46 2102.25 561.47
  Q 2102.25 566.84 2103.12 569.41
  Q 2104.59 573.80 2108.19 576.81
  Q 2113.95 581.64 2121.03 580.90
  Q 2125.68 580.41 2129.41 577.81
  Q 2133.34 575.07 2135.26 570.61
  Q 2136.55 567.62 2136.74 563.08
  Q 2136.90 559.18 2136.51 555.32
  A 1.94 1.94 89.5 0 0 2134.75 553.59
  Q 2126.68 552.89 2119.55 553.52
  A 0.65 0.65 2.9 0 0 2118.96 554.05
  Q 2118.43 556.94 2118.98 560.07
  A 0.83 0.82 -4.9 0 0 2119.80 560.75
  L 2128.51 560.75
  A 0.45 0.45 14.4 0 1 2128.91 561.42
  Z
  M 2257.13 539.82
  A 0.41 0.37 -2.2 0 1 2257.56 540.18
  Q 2257.98 549.45 2257.64 558.72
  Q 2257.41 565.20 2257.40 565.28
  Q 2256.80 568.94 2253.92 571.18
  Q 2251.78 572.85 2248.19 573.27
  Q 2245.26 573.62 2241.96 573.46
  A 0.86 0.84 7.2 0 0 2241.09 574.12
  Q 2240.40 577.13 2241.05 579.98
  A 1.24 1.24 85.0 0 0 2242.19 580.94
  Q 2246.15 581.16 2249.61 580.81
  Q 2253.58 580.40 2256.62 578.72
  Q 2263.28 575.05 2264.96 567.93
  Q 2265.50 565.64 2265.50 555.04
  Q 2265.50 544.61 2265.50 533.76
  A 1.26 1.26 0.0 0 0 2264.24 532.50
  L 2252.94 532.50
  A 0.94 0.94 0.0 0 0 2252.00 533.44
  L 2252.00 538.94
  A 1.06 0.95 89.0 0 0 2252.99 540.00
  L 2257.13 539.82
  Z
  M 2281.56 563.38
  Q 2295.72 565.05 2300.62 553.04
  Q 2301.71 550.34 2301.66 547.82
  Q 2301.59 544.96 2300.50 542.50
  Q 2295.93 532.25 2284.25 532.43
  Q 2280.00 532.50 2274.50 532.50
  A 0.79 0.79 -89.3 0 0 2273.71 533.27
  Q 2273.18 557.21 2273.74 580.01
  A 0.77 0.73 -80.3 0 0 2274.20 580.70
  Q 2275.18 581.10 2276.24 581.11
  Q 2277.68 581.13 2278.75 581.18
  Q 2281.33 581.29 2281.13 578.62
  Q 2281.00 576.94 2280.99 576.88
  Q 2280.96 570.35 2281.05 563.82
  A 0.46 0.45 4.0 0 1 2281.56 563.38
  Z
  M 1963.13 549.65
  L 1952.67 542.77
  Q 1952.21 542.47 1952.50 542.92
  L 1959.25 553.71
  L 1943.60 556.39
  Q 1941.18 556.80 1943.60 557.19
  L 1958.38 559.58
  A 0.63 0.63 -68.4 0 1 1958.80 560.55
  L 1952.74 569.76
  Q 1951.48 571.69 1953.38 570.38
  L 1962.58 564.04
  A 0.50 0.50 67.3 0 1 1963.35 564.36
  Q 1965.01 572.65 1966.03 579.97
  Q 1966.07 580.21 1966.16 580.38
  Q 1966.60 581.21 1966.72 580.25
  Q 1967.80 571.94 1969.54 563.75
  L 1979.96 570.79
  Q 1981.38 571.75 1980.44 570.32
  L 1973.63 559.92
  L 1989.02 557.25
  Q 1991.83 556.76 1989.04 556.32
  L 1974.53 554.00
  A 0.80 0.80 -68.7 0 1 1973.99 552.76
  L 1980.36 543.31
  Q 1981.42 541.73 1979.82 542.80
  L 1969.99 549.42
  A 0.34 0.34 68.3 0 1 1969.47 549.19
  L 1966.58 533.25
  Q 1966.50 532.79 1966.41 533.24
  L 1963.13 549.65
  Z
  M 1872.00 538.04
  Q 1871.48 537.86 1870.98 537.91
  A 0.63 0.54 89.2 0 0 1870.48 538.51
  Q 1869.89 558.00 1870.48 577.50
  A 0.50 0.46 -2.9 0 0 1871.01 577.94
  L 1875.70 577.68
  A 0.69 0.68 -81.9 0 0 1876.32 577.21
  Q 1876.97 575.33 1878.50 577.54
  Q 1881.32 579.35 1884.25 577.71
  Q 1887.40 575.92 1887.50 571.50
  Q 1887.77 559.98 1887.64 556.25
  Q 1887.35 547.12 1878.66 549.78
  A 1.77 1.37 -73.7 0 0 1877.89 550.34
  Q 1876.01 552.75 1876.50 548.75
  Q 1876.90 545.42 1876.21 538.25
  Q 1874.25 537.25 1872.00 538.04
  Z
  M 1692.75 578.21
  Q 1695.39 578.73 1697.75 577.54
  Q 1701.36 576.15 1702.54 572.51
  Q 1704.28 567.18 1703.20 561.66
  Q 1702.57 558.44 1700.00 556.75
  Q 1698.27 555.61 1696.07 554.74
  Q 1692.78 553.42 1692.09 552.90
  Q 1689.23 550.70 1690.55 546.99
  Q 1691.26 544.99 1692.85 544.32
  Q 1695.23 543.33 1696.72 546.42
  Q 1697.37 547.75 1697.53 549.60
  A 0.52 0.52 81.4 0 0 1698.16 550.07
  Q 1700.25 549.63 1702.21 550.04
  A 1.03 1.03 -82.1 0 0 1703.46 549.09
  Q 1703.82 543.25 1700.44 540.29
  Q 1697.31 537.54 1692.54 537.83
  Q 1686.66 538.18 1684.75 544.75
  Q 1681.27 556.72 1692.94 560.31
  Q 1696.97 561.56 1697.32 565.05
  Q 1697.51 567.01 1697.24 568.95
  Q 1696.85 571.79 1693.90 571.83
  Q 1692.00 571.86 1691.02 570.76
  Q 1689.99 569.59 1690.00 567.47
  A 1.20 1.16 -90.0 0 0 1688.83 566.26
  L 1685.18 566.27
  A 1.58 1.51 87.2 0 0 1683.68 568.00
  Q 1684.51 577.07 1692.75 578.21
  Z
  M 1849.79 538.50
  L 1849.75 550.52
  Q 1849.75 551.57 1849.06 550.78
  Q 1848.23 549.84 1846.74 549.55
  Q 1840.35 548.34 1839.06 553.01
  Q 1838.77 554.03 1838.58 560.02
  Q 1838.41 565.48 1838.76 570.92
  Q 1839.01 574.82 1840.65 576.59
  Q 1843.37 579.55 1847.98 577.64
  A 1.60 1.19 -80.7 0 0 1848.65 576.99
  Q 1849.39 575.65 1849.91 577.23
  A 0.82 0.77 -7.6 0 0 1850.65 577.76
  L 1855.19 577.89
  A 0.50 0.48 2.3 0 0 1855.71 577.43
  Q 1856.41 557.82 1855.75 538.19
  Q 1853.70 537.67 1852.00 537.91
  Q 1851.57 537.97 1851.02 537.85
  Q 1850.02 537.62 1849.79 538.50
  Z
  M 1809.54 576.50
  Q 1812.65 578.79 1816.46 577.75
  L 1816.37 572.69
  A 0.61 0.51 3.0 0 0 1815.81 572.17
  Q 1814.75 572.08 1813.90 571.54
  A 0.98 0.93 -75.0 0 1 1813.47 570.75
  L 1813.28 555.00
  A 0.73 0.71 9.1 0 1 1814.24 554.33
  Q 1816.78 555.15 1816.63 552.68
  Q 1816.58 551.87 1816.68 550.82
  Q 1816.86 548.92 1814.83 549.48
  A 1.42 1.28 81.6 0 1 1813.20 548.13
  L 1812.91 541.42
  A 0.60 0.52 -0.4 0 0 1812.32 540.92
  L 1807.56 540.81
  A 0.53 0.48 -88.2 0 0 1807.07 541.32
  L 1806.74 548.93
  A 0.50 0.47 3.9 0 1 1806.19 549.38
  Q 1802.72 549.08 1799.64 550.69
  Q 1799.29 550.87 1798.88 551.36
  Q 1797.93 552.48 1797.74 550.38
  A 0.97 0.97 -2.6 0 0 1796.77 549.50
  L 1792.27 549.50
  A 0.52 0.52 0.0 0 0 1791.75 550.02
  L 1791.75 577.38
  A 0.43 0.39 0.8 0 0 1792.17 577.77
  L 1797.01 577.92
  A 0.48 0.43 1.9 0 0 1797.51 577.50
  Q 1797.73 570.16 1797.93 562.83
  Q 1798.03 559.28 1798.88 557.84
  Q 1800.47 555.18 1804.20 555.62
  A 0.85 0.85 -68.6 0 0 1804.97 555.28
  Q 1807.30 552.03 1807.10 557.75
  Q 1806.82 565.51 1807.25 573.25
  Q 1807.34 574.80 1809.54 576.50
  Z
  M 2149.98 577.00
  Q 2154.31 580.19 2160.00 580.25
  Q 2166.03 580.32 2170.07 580.09
  A 0.68 0.68 -84.8 0 0 2170.69 579.57
  Q 2171.40 576.50 2170.69 573.43
  A 0.69 0.68 -5.1 0 0 2170.06 572.91
  Q 2165.16 572.61 2160.25 572.69
  Q 2153.30 572.80 2151.46 566.11
  A 1.27 1.27 -7.6 0 1 2152.69 564.50
  L 2172.39 564.50
  Q 2174.21 564.50 2174.52 562.71
  Q 2175.16 559.09 2174.55 555.36
  Q 2173.92 551.57 2171.94 548.61
  Q 2168.32 543.20 2162.07 542.14
  Q 2156.40 541.18 2151.29 544.02
  Q 2143.19 548.52 2143.44 559.50
  Q 2143.50 562.12 2143.58 564.75
  Q 2143.83 572.48 2149.98 577.00
  Z
  M 2211.76 556.31
  A 14.29 14.29 0.0 0 0 2197.47 542.02
  L 2195.23 542.02
  A 14.29 14.29 0.0 0 0 2180.94 556.31
  L 2180.94 566.45
  A 14.29 14.29 0.0 0 0 2195.23 580.74
  L 2197.47 580.74
  A 14.29 14.29 0.0 0 0 2211.76 566.45
  L 2211.76 556.31
  Z
  M 1820.12 550.91
  Q 1816.79 559.15 1817.53 568.07
  Q 1817.92 572.78 1819.48 575.14
  Q 1821.91 578.83 1826.94 578.44
  Q 1834.52 577.84 1834.74 570.00
  A 0.49 0.48 -88.9 0 0 1834.26 569.49
  L 1829.50 569.52
  A 1.26 1.24 89.1 0 0 1828.26 570.82
  Q 1828.31 572.21 1825.66 571.53
  A 2.00 1.61 7.3 0 1 1824.16 569.96
  L 1823.97 566.00
  Q 1828.96 566.81 1834.57 566.08
  Q 1835.44 561.85 1834.75 556.50
  Q 1834.25 552.61 1831.21 550.50
  Q 1830.32 548.52 1827.94 548.94
  Q 1826.82 549.13 1825.30 548.95
  Q 1823.59 548.76 1822.73 549.10
  Q 1821.37 549.65 1820.12 550.91
  Z
  M 1736.75 577.54
  Q 1739.84 579.33 1742.75 577.54
  Q 1745.32 576.05 1745.50 572.50
  Q 1745.99 562.75 1745.48 555.64
  Q 1745.24 552.22 1743.84 550.78
  Q 1741.84 548.73 1738.25 549.25
  Q 1736.42 549.52 1735.33 550.63
  A 0.41 0.40 49.4 0 1 1734.72 550.58
  L 1734.26 549.95
  A 1.01 1.01 71.2 0 0 1733.43 549.54
  L 1729.06 549.54
  A 0.53 0.51 -90.0 0 0 1728.55 550.07
  L 1728.49 588.75
  A 0.57 0.50 90.0 0 0 1728.99 589.32
  L 1734.01 589.32
  A 0.57 0.49 90.0 0 0 1734.50 588.75
  Q 1734.51 582.87 1734.73 577.01
  Q 1734.78 575.66 1735.47 576.75
  Q 1735.91 577.44 1736.75 577.54
  Z
  M 1758.50 577.54
  Q 1761.50 579.29 1764.50 577.54
  Q 1767.10 575.41 1767.08 572.15
  Q 1767.07 570.00 1767.08 569.84
  Q 1767.36 565.06 1767.00 556.50
  Q 1766.62 547.55 1758.17 549.56
  A 1.23 1.03 -78.6 0 0 1757.46 550.13
  Q 1756.46 551.88 1755.83 550.03
  A 0.74 0.69 80.2 0 0 1755.18 549.54
  L 1750.30 549.50
  A 0.55 0.54 89.5 0 0 1749.76 550.06
  L 1749.93 588.31
  A 0.74 0.71 -80.5 0 0 1750.40 589.00
  Q 1752.47 589.73 1755.40 589.04
  A 0.71 0.70 -6.4 0 0 1755.94 588.37
  Q 1756.05 582.84 1756.10 577.00
  Q 1756.11 576.02 1756.69 576.37
  Q 1756.83 576.46 1757.10 576.84
  Q 1757.59 577.52 1758.50 577.54
  Z
  M 1787.9685 557.1450
  A 7.93 7.93 0.0 0 0 1780.0247 549.2289
  L 1778.7047 549.2312
  A 7.93 7.93 0.0 0 0 1770.7885 557.1750
  L 1770.8115 570.3150
  A 7.93 7.93 0.0 0 0 1778.7553 578.2311
  L 1780.0753 578.2288
  A 7.93 7.93 0.0 0 0 1787.9915 570.2850
  L 1787.9685 557.1450
  Z
  M 1898.49 564.57
  L 1895.31 549.90
  A 0.64 0.61 -6.7 0 0 1894.68 549.43
  L 1889.27 549.50
  A 0.55 0.54 -7.9 0 0 1888.74 550.19
  Q 1892.47 562.82 1896.00 575.25
  Q 1896.68 577.63 1895.10 580.77
  Q 1895.03 580.90 1894.63 581.89
  Q 1894.06 583.30 1892.52 583.26
  A 1.61 1.60 -85.7 0 0 1890.89 584.67
  Q 1890.57 587.16 1891.08 588.74
  A 0.72 0.71 -7.4 0 0 1891.74 589.24
  Q 1896.06 589.34 1898.42 586.93
  Q 1899.85 585.48 1901.05 581.03
  Q 1905.13 565.82 1908.46 550.43
  A 0.54 0.54 -75.8 0 0 1908.08 549.79
  Q 1905.46 549.07 1902.80 549.69
  A 0.82 0.77 -89.6 0 0 1902.21 550.31
  L 1899.06 564.58
  Q 1898.77 565.87 1898.49 564.57
  Z
  M 1710.00 577.54
  Q 1713.11 579.17 1716.25 577.54
  Q 1717.85 574.89 1718.43 577.66
  Q 1718.63 578.63 1719.25 577.96
  L 1723.75 577.96
  Q 1724.25 577.56 1724.25 576.50
  Q 1724.25 563.63 1724.25 550.41
  A 0.82 0.74 89.7 0 0 1723.50 549.59
  L 1718.74 549.66
  A 0.60 0.51 -89.9 0 0 1718.24 550.25
  Q 1718.04 559.66 1717.78 569.06
  Q 1717.74 570.44 1717.05 571.23
  Q 1715.67 572.78 1714.33 571.40
  Q 1713.52 570.56 1713.40 568.84
  Q 1712.75 559.59 1712.93 550.31
  A 0.61 0.49 -89.0 0 0 1712.45 549.69
  L 1707.69 549.65
  A 0.75 0.67 -89.6 0 0 1707.02 550.39
  Q 1706.82 562.63 1707.25 573.75
  Q 1707.32 575.64 1710.00 577.54
  Z
  M 2236.49 558.69
  A 6.92 6.92 0.0 0 0 2229.57 551.77
  A 6.92 6.92 0.0 0 0 2222.65 558.69
  A 6.92 6.92 0.0 0 0 2229.57 565.61
  A 6.92 6.92 0.0 0 0 2236.49 558.69
  Z
  M 1919.47 559.52
  L 1927.91 564.30
  A 2.90 2.46 9.6 0 1 1929.20 565.83
  Q 1937.07 591.12 1963.32 594.69
  A 0.60 0.60 3.8 0 0 1964.00 594.10
  L 1964.00 585.75
  A 0.63 0.62 5.7 0 0 1963.49 585.14
  Q 1941.86 581.03 1937.71 559.65
  A 0.81 0.81 84.3 0 0 1936.92 559.00
  L 1919.62 559.00
  Q 1918.55 559.00 1919.47 559.52
  Z
  M 1995.08 559.75
  Q 1990.57 581.42 1969.56 585.23
  A 0.64 0.59 -4.7 0 0 1969.03 585.81
  L 1968.78 603.31
  Q 1968.76 604.31 1969.29 603.43
  L 1974.78 594.24
  A 1.43 1.14 2.1 0 1 1975.55 593.67
  Q 2000.18 586.49 2004.60 560.39
  A 0.97 0.97 5.0 0 0 2003.64 559.25
  L 1995.70 559.25
  A 0.64 0.63 -83.8 0 0 1995.08 559.75
  Z"
/>
<path fill="#5bb1a8" d="
  M 53.72 144.79
  A 0.44 0.44 -0.0 0 1 53.72 144.03
  L 203.56 57.43
  A 0.42 0.42 -15.0 0 1 204.19 57.79
  Q 204.30 138.53 204.25 219.75
  Q 204.25 227.25 203.98 231.18
  A 0.32 0.32 -72.5 0 1 203.50 231.43
  L 53.72 144.79
  Z"
/>
<path fill="#5bb1a8" d="
  M 255.62 81.10
  Q 307.71 111.10 359.75 141.20
  Q 362.19 142.61 364.49 144.36
  A 0.34 0.34 48.2 0 1 364.46 144.93
  L 287.76 189.18
  A 1.42 1.41 -15.2 0 0 287.06 190.40
  L 287.00 279.16
  A 0.30 0.30 15.9 0 1 286.55 279.41
  L 215.20 238.27
  Q 213.75 237.43 213.75 235.76
  L 213.81 57.78
  Q 213.81 56.96 214.51 57.37
  Q 235.33 69.41 255.62 81.10
  Z"
/>
<path fill="#423c54" d="
  M 226.59 255.89
  Q 297.84 297.01 369.46 338.42
  A 0.96 0.94 -75.6 0 1 369.94 339.25
  L 370.00 517.88
  Q 370.00 519.12 368.92 518.50
  L 49.18 333.85
  A 2.37 2.36 -75.1 0 1 48.00 331.80
  Q 48.00 246.00 48.00 161.00
  Q 48.00 155.97 48.26 153.31
  A 0.33 0.32 18.4 0 1 48.75 153.07
  Q 137.64 204.53 226.59 255.89
  Z"
/>
<path fill="#423c54" d="
  M 297.23 285.55
  A 0.97 0.96 15.3 0 1 296.75 284.72
  L 296.75 196.07
  A 1.73 1.73 -15.0 0 1 297.62 194.57
  L 369.38 153.09
  Q 369.94 152.77 369.94 153.41
  L 370.00 326.57
  Q 370.00 327.62 369.09 327.09
  L 297.23 285.55
  Z"
/>
<path fill="#070808" d="
  M 1176.02 337.78
  L 1152.69 337.79
  L 1137.46 302.37
  Q 1111.25 300.94 1084.99 302.21
  L 1074.15 302.43
  A 0.85 0.73 9.6 0 0 1073.42 302.87
  L 1057.70 337.85
  L 1036.25 337.54
  Q 1034.86 337.77 1033.79 337.00
  L 1106.91 180.97
  Q 1107.16 180.44 1107.25 181.02
  Q 1107.51 182.56 1108.16 184.01
  Q 1142.79 260.68 1176.72 337.66
  Q 1177.25 338.87 1176.02 337.78
  Z
  M 1083.46 281.22
  Q 1105.68 281.84 1127.79 280.77
  L 1106.36 231.23
  Q 1106.08 230.58 1105.79 231.22
  Q 1095.60 253.40 1085.69 275.44
  Q 1083.75 279.75 1083.46 281.22
  Z"
/>
<path fill="#070808" d="
  M 1912.04 337.75
  L 1887.79 337.90
  L 1872.46 302.27
  Q 1840.60 300.99 1808.73 302.23
  L 1792.79 337.78
  L 1768.54 337.50
  L 1841.73 181.35
  Q 1841.95 180.88 1842.16 181.35
  L 1912.04 337.75
  Z
  M 1818.64 280.15
  Q 1818.35 280.43 1818.50 280.83
  A 0.87 0.66 -6.4 0 0 1819.24 281.27
  Q 1827.54 281.68 1835.84 281.48
  Q 1838.87 281.40 1847.65 281.64
  Q 1855.29 281.85 1862.91 280.52
  L 1841.35 230.91
  Q 1841.14 230.43 1840.93 230.90
  L 1818.64 280.15
  Z"
/>
<path fill="#070808" d="
  M 607.18 338.14
  Q 595.83 337.25 584.77 337.82
  L 584.81 190.07
  A 0.51 0.50 -90.0 0 1 585.31 189.56
  Q 600.03 189.45 614.75 189.46
  Q 623.43 189.47 631.97 190.90
  Q 657.12 195.12 665.75 218.50
  Q 668.35 225.56 668.26 234.25
  Q 668.09 249.44 659.34 260.42
  Q 653.70 267.48 645.23 271.85
  Q 637.00 276.10 627.43 277.10
  Q 618.48 278.04 608.42 277.44
  A 0.87 0.87 2.2 0 0 607.49 278.30
  L 607.18 338.14
  Z
  M 607.44 211.36
  L 607.56 256.44
  A 0.48 0.47 -1.7 0 0 608.07 256.91
  Q 613.65 256.61 619.25 256.68
  Q 627.45 256.77 634.49 253.31
  Q 639.58 250.81 642.46 246.91
  Q 645.71 242.51 646.25 237.00
  Q 647.93 219.93 634.49 213.70
  Q 629.58 211.42 621.56 210.77
  Q 615.19 210.24 608.21 210.56
  A 0.80 0.80 -1.1 0 0 607.44 211.36
  Z"
/>
<path fill="#070808" d="
  M 892.19 338.30
  Q 891.93 337.70 891.31 337.69
  Q 877.00 337.54 865.83 337.74
  Q 858.34 337.87 846.17 337.70
  Q 836.36 337.57 826.51 338.09
  L 826.50 190.05
  A 0.55 0.55 89.9 0 1 827.05 189.50
  L 848.69 189.56
  A 0.50 0.50 0.0 0 1 849.19 190.06
  L 849.31 315.94
  A 0.52 0.50 0.6 0 0 849.82 316.44
  L 892.24 316.99
  A 0.53 0.53 88.9 0 1 892.77 317.50
  Q 893.15 327.84 892.19 338.30
  Z"
/>
<path fill="#070808" d="
  M 1398.57 211.00
  Q 1381.62 210.21 1364.90 210.92
  Q 1364.64 273.85 1364.75 336.59
  Q 1364.75 336.77 1364.80 337.43
  Q 1364.90 338.77 1364.03 338.03
  Q 1353.11 336.76 1342.23 338.05
  L 1342.21 211.75
  Q 1342.18 210.10 1340.95 210.29
  Q 1339.63 210.49 1339.52 210.48
  Q 1323.91 210.15 1308.27 211.00
  L 1308.31 190.07
  A 0.51 0.51 0.0 0 1 1308.82 189.56
  L 1398.43 189.50
  A 0.56 0.55 88.9 0 1 1398.98 190.04
  Q 1399.32 201.20 1398.57 211.00
  Z"
/>
<path fill="#070808" d="
  M 1608.50 269.96
  Q 1599.40 269.13 1590.28 269.57
  Q 1589.07 269.63 1584.22 269.51
  Q 1581.18 269.44 1578.13 270.04
  L 1578.18 316.01
  A 0.55 0.55 -90.0 0 0 1578.73 316.56
  L 1636.73 316.75
  A 0.52 0.51 -0.0 0 1 1637.25 317.26
  L 1637.25 337.21
  A 1.04 1.04 -90.0 0 1 1636.21 338.25
  L 1591.75 338.12
  Q 1573.62 337.07 1555.50 338.09
  L 1555.50 190.00
  A 0.50 0.50 0.0 0 1 1556.00 189.50
  L 1636.62 189.50
  A 0.62 0.61 -0.0 0 1 1637.24 190.11
  L 1637.08 210.31
  A 0.52 0.51 0.6 0 1 1636.56 210.81
  L 1578.96 210.75
  A 0.90 0.90 0.1 0 0 1578.06 211.65
  L 1578.00 247.70
  A 0.81 0.80 0.4 0 0 1578.80 248.50
  L 1634.94 248.81
  A 0.50 0.49 0.0 0 1 1635.44 249.30
  L 1635.50 269.35
  A 0.65 0.65 0.0 0 1 1634.85 270.00
  L 1608.50 269.96
  Z"
/>
<path fill="#070808" d="
  M 2033.71 190.05
  A 0.49 0.49 0.0 0 1 2034.20 189.56
  L 2055.49 189.50
  A 0.76 0.76 -89.6 0 1 2056.25 190.27
  Q 2056.09 234.28 2056.42 277.50
  Q 2056.53 292.08 2058.03 297.37
  Q 2061.58 309.91 2073.13 316.02
  Q 2081.32 320.36 2089.95 320.00
  Q 2099.01 319.63 2107.00 314.22
  Q 2117.29 307.23 2119.63 294.92
  Q 2120.93 288.02 2120.97 281.00
  Q 2121.18 236.13 2121.00 190.29
  A 0.78 0.78 89.6 0 1 2121.78 189.50
  L 2142.94 189.50
  A 0.56 0.56 -89.8 0 1 2143.50 190.06
  Q 2143.50 238.38 2143.50 286.50
  Q 2143.50 311.52 2126.13 327.12
  Q 2118.73 333.77 2109.11 337.34
  Q 2092.06 343.67 2074.32 339.29
  Q 2064.36 336.83 2056.19 331.15
  Q 2038.66 318.98 2034.79 297.69
  Q 2033.78 292.10 2033.64 277.74
  Q 2033.23 234.65 2033.71 190.05
  Z"
/>
<path fill="#9a9396" d="
  M 1342.21 211.75
  Q 1342.04 211.29 1341.31 211.31
  Q 1327.75 211.74 1308.27 211.00
  Q 1323.91 210.15 1339.52 210.48
  Q 1339.63 210.49 1340.95 210.29
  Q 1342.18 210.10 1342.21 211.75
  Z"
/>
<path fill="#ffffff" d="
  M 607.44 211.36
  A 0.80 0.80 -1.1 0 1 608.21 210.56
  Q 615.19 210.24 621.56 210.77
  Q 629.58 211.42 634.49 213.70
  Q 647.93 219.93 646.25 237.00
  Q 645.71 242.51 642.46 246.91
  Q 639.58 250.81 634.49 253.31
  Q 627.45 256.77 619.25 256.68
  Q 613.65 256.61 608.07 256.91
  A 0.48 0.47 -1.7 0 1 607.56 256.44
  L 607.44 211.36
  Z"
/>
<path fill="#9a9396" d="
  M 1398.57 211.00
  L 1364.90 210.92
  Q 1381.62 210.21 1398.57 211.00
  Z"
/>
<path fill="#ffffff" d="
  M 1862.91 280.52
  L 1818.64 280.15
  L 1840.93 230.90
  Q 1841.14 230.43 1841.35 230.91
  L 1862.91 280.52
  Z"
/>
<path fill="#ffffff" d="
  M 1127.79 280.77
  L 1084.82 280.56
  A 1.19 0.26 -40.5 0 0 1084.05 280.97
  Q 1083.84 281.14 1083.46 281.22
  Q 1083.75 279.75 1085.69 275.44
  Q 1095.60 253.40 1105.79 231.22
  Q 1106.08 230.58 1106.36 231.23
  L 1127.79 280.77
  Z"
/>
<path fill="#9a9396" d="
  M 1608.50 269.96
  Q 1593.52 270.75 1578.13 270.04
  Q 1581.18 269.44 1584.22 269.51
  Q 1589.07 269.63 1590.28 269.57
  Q 1599.40 269.13 1608.50 269.96
  Z"
/>
<path fill="#5e5e5e" d="
  M 1818.64 280.15
  L 1862.91 280.52
  Q 1855.29 281.85 1847.65 281.64
  Q 1838.87 281.40 1835.84 281.48
  Q 1827.54 281.68 1819.24 281.27
  A 0.87 0.66 -6.4 0 1 1818.50 280.83
  Q 1818.35 280.43 1818.64 280.15
  Z"
/>
<path fill="#5e5e5e" d="
  M 1127.79 280.77
  Q 1105.68 281.84 1083.46 281.22
  Q 1083.84 281.14 1084.05 280.97
  A 1.19 0.26 -40.5 0 1 1084.82 280.56
  L 1127.79 280.77
  Z"
/>
<path fill="#464341" d="
  M 1872.46 302.27
  Q 1840.62 302.88 1808.73 302.23
  Q 1840.60 300.99 1872.46 302.27
  Z"
/>
<path fill="#464341" d="
  M 1137.46 302.37
  Q 1111.24 302.81 1084.99 302.21
  Q 1111.25 300.94 1137.46 302.37
  Z"
/>
<path fill="#464341" d="
  M 1033.79 337.00
  Q 1034.86 337.77 1036.25 337.54
  L 1033.29 338.25
  Q 1033.33 337.55 1033.79 337.00
  Z"
/>
<path fill="#5e5e5e" d="
  M 607.18 338.14
  Q 595.12 339.10 584.77 337.82
  Q 595.83 337.25 607.18 338.14
  Z"
/>
<path fill="#5e5e5e" d="
  M 892.19 338.30
  Q 859.14 339.07 826.51 338.09
  Q 836.36 337.57 846.17 337.70
  Q 858.34 337.87 865.83 337.74
  Q 877.00 337.54 891.31 337.69
  Q 891.93 337.70 892.19 338.30
  Z"
/>
<path fill="#5e5e5e" d="
  M 1036.25 337.54
  L 1057.70 337.85
  Q 1045.54 339.18 1033.29 338.25
  L 1036.25 337.54
  Z"
/>
<path fill="#5e5e5e" d="
  M 1152.69 337.79
  L 1176.02 337.78
  Q 1174.34 338.56 1170.75 338.50
  Q 1157.07 338.29 1152.69 337.79
  Z"
/>
<path fill="#5e5e5e" d="
  M 1364.03 338.03
  Q 1353.15 339.18 1342.23 338.05
  Q 1353.11 336.76 1364.03 338.03
  Z"
/>
<path fill="#5e5e5e" d="
  M 1591.75 338.12
  Q 1573.65 338.90 1555.50 338.09
  Q 1573.62 337.07 1591.75 338.12
  Z"
/>
<path fill="#5e5e5e" d="
  M 1768.54 337.50
  L 1792.79 337.78
  Q 1780.91 338.99 1769.00 338.52
  A 0.81 0.46 0.4 0 1 1768.24 338.08
  Q 1768.21 337.80 1768.54 337.50
  Z"
/>
<path fill="#5e5e5e" d="
  M 1912.04 337.75
  Q 1912.32 337.90 1912.24 338.10
  A 0.56 0.31 2.9 0 1 1911.78 338.33
  Q 1899.75 339.03 1887.79 337.90
  L 1912.04 337.75
  Z"
/>
<path fill="#070808" d="
  M 1714.71 464.91
  Q 1706.78 467.01 1699.25 464.04
  L 1696.36 461.60
  Q 1695.89 461.20 1695.87 461.74
  L 1695.77 465.02
  Q 1693.74 464.60 1688.50 464.75
  Q 1685.80 464.83 1684.38 465.47
  L 1684.25 406.90
  A 0.62 0.60 -89.5 0 1 1684.86 406.28
  L 1695.06 406.41
  A 0.53 0.52 89.4 0 1 1695.58 406.93
  L 1695.75 432.02
  Q 1695.76 433.52 1696.72 432.38
  Q 1700.04 428.44 1705.51 428.20
  Q 1719.53 427.56 1724.19 440.06
  Q 1725.99 444.91 1724.90 451.08
  Q 1723.19 460.66 1714.71 464.91
  Z
  M 1713.32 447.15
  A 9.09 9.09 0.0 0 0 1704.23 438.06
  A 9.09 9.09 0.0 0 0 1695.14 447.15
  A 9.09 9.09 0.0 0 0 1704.23 456.24
  A 9.09 9.09 0.0 0 0 1713.32 447.15
  Z"
/>
<path fill="#070808" d="
  M 1938.46 464.50
  L 1926.57 465.33
  L 1922.07 433.75
  Q 1922.00 433.25 1921.80 433.71
  L 1908.70 464.78
  A 0.92 0.62 -73.7 0 1 1908.01 465.35
  L 1904.55 465.30
  A 0.91 0.62 74.4 0 1 1903.88 464.73
  L 1890.96 434.21
  Q 1890.74 433.70 1890.67 434.24
  L 1886.54 464.71
  Q 1880.87 464.35 1875.45 465.18
  Q 1873.93 465.82 1874.25 463.75
  Q 1878.20 437.85 1882.54 411.77
  A 0.63 0.61 -84.9 0 1 1883.14 411.25
  L 1892.44 411.30
  A 0.77 0.74 78.0 0 1 1893.13 411.77
  L 1905.93 442.55
  Q 1906.36 443.58 1906.78 442.55
  L 1919.37 412.03
  A 0.77 0.77 10.2 0 1 1920.05 411.56
  L 1929.46 411.24
  A 0.65 0.61 -5.0 0 1 1930.12 411.76
  L 1938.46 464.50
  Z"
/>
<path fill="#070808" d="
  M 2009.71 464.75
  L 1980.64 464.92
  L 1980.51 412.15
  A 0.85 0.83 -90.0 0 1 1981.34 411.30
  L 1992.30 411.30
  A 0.72 0.70 -90.0 0 1 1993.00 412.02
  L 1993.00 453.97
  A 0.78 0.78 0.0 0 0 1993.78 454.75
  L 2009.06 454.69
  A 0.54 0.50 -0.5 0 1 2009.60 455.18
  L 2009.71 464.75
  Z"
/>
<path fill="#070808" d="
  M 2064.00 465.21
  Q 2059.52 464.00 2055.00 465.21
  L 2053.31 465.24
  A 0.55 0.49 89.5 0 1 2052.81 464.69
  L 2052.93 411.94
  A 0.54 0.49 -89.5 0 1 2053.43 411.40
  L 2064.50 411.45
  A 0.56 0.52 90.0 0 1 2065.01 412.00
  Q 2065.72 442.85 2065.00 465.00
  Q 2064.97 466.04 2064.00 465.21
  Z"
/>
<path fill="#070808" d="
  M 2131.42 465.31
  Q 2130.66 464.77 2130.17 464.57
  Q 2129.93 464.48 2128.81 464.54
  Q 2124.22 464.81 2119.47 464.83
  L 2119.32 422.19
  A 0.51 0.49 89.4 0 0 2118.82 421.68
  L 2108.74 421.80
  A 0.98 0.95 -0.3 0 1 2107.75 420.85
  L 2107.75 411.77
  A 0.52 0.52 0.0 0 1 2108.27 411.25
  L 2142.98 411.25
  A 0.52 0.52 0.0 0 1 2143.50 411.77
  L 2143.50 421.09
  A 0.54 0.49 -1.2 0 1 2142.98 421.58
  L 2132.24 421.84
  A 0.56 0.51 89.5 0 0 2131.74 422.40
  L 2131.42 465.31
  Z"
/>
<path fill="#9a9396" d="
  M 1797.11 429.94
  L 1784.97 429.12
  Q 1790.68 429.72 1795.58 428.63
  Q 1798.44 427.99 1797.11 429.94
  Z"
/>
<path fill="#9a9396" d="
  M 1764.50 429.14
  L 1751.33 429.60
  Q 1751.19 428.55 1751.93 428.84
  Q 1752.38 429.01 1752.61 429.01
  Q 1753.09 429.00 1753.55 428.89
  Q 1754.07 428.76 1754.46 428.81
  Q 1759.40 429.39 1764.50 429.14
  Z"
/>
<path fill="#070808" d="
  M 1764.50 429.14
  L 1774.49 448.06
  Q 1774.74 448.53 1774.96 448.05
  Q 1779.52 438.35 1784.97 429.12
  L 1797.11 429.94
  L 1768.80 483.12
  A 0.89 0.81 -74.7 0 1 1768.06 483.59
  L 1756.58 483.73
  A 0.58 0.56 -75.6 0 1 1756.09 482.87
  L 1767.64 461.72
  A 2.04 2.03 -44.9 0 0 1767.65 459.78
  L 1751.33 429.60
  L 1764.50 429.14
  Z"
/>
<circle fill="#ffffff" cx="1704.23" cy="447.15" r="9.09"/>
<path fill="#5e5e5e" d="
  M 1699.25 464.04
  Q 1706.78 467.01 1714.71 464.91
  Q 1712.39 466.44 1707.75 466.50
  Q 1702.26 466.57 1699.25 464.04
  Z"
/>
<path fill="#464341" d="
  M 1695.77 465.02
  Q 1690.09 465.89 1684.38 465.47
  Q 1685.80 464.83 1688.50 464.75
  Q 1693.74 464.60 1695.77 465.02
  Z"
/>
<path fill="#464341" d="
  M 1886.54 464.71
  Q 1881.06 466.34 1875.45 465.18
  Q 1880.87 464.35 1886.54 464.71
  Z"
/>
<path fill="#464341" d="
  M 1938.46 464.50
  Q 1938.98 465.00 1938.54 465.34
  Q 1938.33 465.50 1937.90 465.50
  Q 1933.07 465.56 1926.57 465.33
  L 1938.46 464.50
  Z"
/>
<path fill="#464341" d="
  M 2009.71 464.75
  Q 2009.80 465.07 2009.62 465.29
  Q 2009.49 465.44 2009.19 465.44
  Q 1995.01 465.79 1980.64 464.92
  L 2009.71 464.75
  Z"
/>
<path fill="#464341" d="
  M 2064.00 465.21
  Q 2059.50 465.89 2055.00 465.21
  Q 2059.52 464.00 2064.00 465.21
  Z"
/>
<path fill="#464341" d="
  M 2131.42 465.31
  Q 2125.48 465.88 2119.47 464.83
  Q 2124.22 464.81 2128.81 464.54
  Q 2129.93 464.48 2130.17 464.57
  Q 2130.66 464.77 2131.42 465.31
  Z"
/>
<path fill="#49a85a" d="
  M 1963.44 510.25
  Q 1964.00 509.27 1964.00 510.40
  L 1964.00 527.62
  A 0.90 0.89 88.3 0 1 1963.16 528.52
  Q 1959.22 528.78 1955.32 530.58
  Q 1940.32 537.46 1937.64 553.82
  A 0.64 0.58 -84.7 0 1 1937.06 554.35
  L 1929.14 554.47
  A 0.89 0.85 -86.2 0 1 1928.29 553.46
  Q 1931.68 527.76 1956.79 519.99
  A 3.38 3.33 6.1 0 0 1958.74 518.44
  L 1963.44 510.25
  Z"
/>
<path fill="#83a8d7" d="
  M 2399.26 530.57
  A 0.73 0.73 -55.5 0 0 2400.38 530.36
  Q 2407.71 516.62 2422.75 517.25
  Q 2427.50 517.45 2430.60 520.73
  Q 2433.52 523.81 2433.82 528.03
  Q 2434.15 532.50 2431.25 536.52
  Q 2423.22 547.69 2408.72 545.94
  A 0.43 0.43 2.2 0 0 2408.23 546.39
  Q 2409.13 563.88 2396.58 575.33
  Q 2375.89 594.22 2348.00 588.25
  Q 2342.74 587.13 2336.69 582.81
  Q 2324.44 574.09 2325.06 559.56
  Q 2325.32 553.45 2328.19 547.56
  Q 2330.63 542.58 2335.32 537.71
  Q 2350.54 521.89 2373.75 521.60
  Q 2388.64 521.41 2399.26 530.57
  Z
  M 2425.1063 527.4425
  A 9.37 5.10 -27.3 0 0 2414.4409 527.2081
  A 9.37 5.10 -27.3 0 0 2408.4537 536.0375
  A 9.37 5.10 -27.3 0 0 2419.1191 536.2719
  A 9.37 5.10 -27.3 0 0 2425.1063 527.4425
  Z
  M 2398.9720 544.6477
  A 34.09 24.51 -18.9 0 0 2358.7808 532.5014
  A 34.09 24.51 -18.9 0 0 2334.4680 566.7323
  A 34.09 24.51 -18.9 0 0 2374.6592 578.8786
  A 34.09 24.51 -18.9 0 0 2398.9720 544.6477
  Z"
/>
<path fill="#0b393f" d="
  M 1969.64 528.28
  A 1.11 1.03 7.2 0 1 1968.75 527.22
  L 1969.01 519.20
  A 0.49 0.46 4.9 0 1 1969.57 518.76
  Q 1995.95 522.61 2003.80 547.92
  A 1.75 1.71 6.8 0 0 2004.59 548.90
  L 2012.91 553.55
  Q 2014.29 554.32 2012.71 554.31
  L 1996.02 554.26
  A 0.94 0.94 -6.6 0 1 1995.10 553.53
  Q 1990.33 532.72 1969.64 528.28
  Z"
/>
<ellipse fill="#ffffff" cx="0.00" cy="0.00" transform="translate(2416.78,531.74) rotate(-27.3)" rx="9.37" ry="5.10"/>
<ellipse fill="#ffffff" cx="0.00" cy="0.00" transform="translate(2366.72,555.69) rotate(-18.9)" rx="34.09" ry="24.51"/>
<path fill="#49a85a" d="
  M 2032.90 577.35
  Q 2027.43 573.11 2026.44 566.65
  Q 2026.20 565.05 2026.00 558.85
  Q 2025.90 555.94 2026.09 553.04
  Q 2026.09 552.95 2026.24 548.96
  Q 2026.62 539.09 2035.00 534.75
  Q 2044.76 529.70 2053.44 535.56
  Q 2058.06 538.69 2059.79 543.83
  Q 2060.75 546.69 2060.75 553.77
  Q 2060.75 557.68 2060.75 561.58
  Q 2060.75 566.48 2059.81 569.29
  Q 2056.40 579.50 2044.94 580.94
  Q 2038.56 581.74 2032.90 577.35
  Z
  M 2052.66 549.12
  A 8.73 8.73 0.0 0 0 2043.93 540.39
  L 2042.91 540.39
  A 8.73 8.73 0.0 0 0 2034.18 549.12
  L 2034.18 564.36
  A 8.73 8.73 0.0 0 0 2042.91 573.09
  L 2043.93 573.09
  A 8.73 8.73 0.0 0 0 2052.66 564.36
  L 2052.66 549.12
  Z"
/>
<path fill="#49a85a" d="
  M 2071.39 555.62
  Q 2067.45 552.59 2067.13 547.51
  Q 2066.70 540.60 2070.82 536.52
  Q 2074.42 532.94 2080.56 532.57
  Q 2088.13 532.11 2094.60 536.95
  A 0.74 0.72 25.9 0 1 2094.88 537.73
  Q 2094.09 540.56 2091.94 543.28
  A 0.59 0.59 -54.2 0 1 2091.14 543.41
  Q 2086.48 540.24 2081.25 539.75
  Q 2078.89 539.53 2077.12 541.20
  Q 2075.58 542.65 2075.29 544.82
  Q 2074.78 548.66 2078.56 550.94
  Q 2080.15 551.89 2086.39 554.63
  Q 2090.90 556.61 2092.52 558.27
  Q 2095.19 561.01 2095.75 565.00
  Q 2096.44 569.92 2094.13 573.84
  Q 2091.99 577.49 2087.74 579.37
  Q 2083.59 581.20 2078.75 580.79
  Q 2072.33 580.26 2067.21 576.48
  A 0.77 0.77 23.5 0 1 2066.90 575.70
  Q 2067.55 572.55 2069.89 570.33
  A 0.69 0.65 37.7 0 1 2070.68 570.25
  Q 2075.20 572.82 2079.25 573.50
  Q 2083.13 574.15 2085.86 571.67
  Q 2087.49 570.19 2087.92 568.33
  Q 2088.47 565.99 2086.81 564.19
  Q 2085.29 562.53 2081.45 561.14
  Q 2075.98 559.15 2071.39 555.62
  Z"
/>
<path fill="#0b393f" d="
  M 2128.91 561.42
  A 0.45 0.45 14.4 0 0 2128.51 560.75
  L 2119.80 560.75
  A 0.83 0.82 -4.9 0 1 2118.98 560.07
  Q 2118.43 556.94 2118.96 554.05
  A 0.65 0.65 2.9 0 1 2119.55 553.52
  Q 2126.68 552.89 2134.75 553.59
  A 1.94 1.94 89.5 0 1 2136.51 555.32
  Q 2136.90 559.18 2136.74 563.08
  Q 2136.55 567.62 2135.26 570.61
  Q 2133.34 575.07 2129.41 577.81
  Q 2125.68 580.41 2121.03 580.90
  Q 2113.95 581.64 2108.19 576.81
  Q 2104.59 573.80 2103.12 569.41
  Q 2102.25 566.84 2102.25 561.47
  Q 2102.25 557.46 2102.25 553.45
  Q 2102.25 546.54 2103.29 543.68
  Q 2104.49 540.37 2106.98 537.79
  Q 2109.26 535.43 2112.60 534.02
  Q 2122.66 529.78 2132.18 537.23
  Q 2134.62 539.14 2132.64 541.12
  L 2129.62 544.15
  A 0.85 0.78 45.0 0 1 2128.47 544.10
  Q 2124.83 540.42 2120.42 540.16
  Q 2116.56 539.93 2113.55 542.35
  Q 2110.25 545.01 2110.25 549.50
  Q 2110.25 555.75 2110.01 561.99
  Q 2109.73 569.34 2115.75 572.50
  Q 2118.74 574.06 2122.51 572.66
  Q 2129.25 570.15 2128.68 562.76
  Q 2128.61 561.95 2128.91 561.42
  Z"
/>
<path fill="#0b393f" d="
  M 2257.13 539.82
  L 2252.99 540.00
  A 1.06 0.95 89.0 0 1 2252.00 538.94
  L 2252.00 533.44
  A 0.94 0.94 0.0 0 1 2252.94 532.50
  L 2264.24 532.50
  A 1.26 1.26 -0.0 0 1 2265.50 533.76
  Q 2265.50 544.61 2265.50 555.04
  Q 2265.50 565.64 2264.96 567.93
  Q 2263.28 575.05 2256.62 578.72
  Q 2253.58 580.40 2249.61 580.81
  Q 2246.15 581.16 2242.19 580.94
  A 1.24 1.24 85.0 0 1 2241.05 579.98
  Q 2240.40 577.13 2241.09 574.12
  A 0.86 0.84 7.2 0 1 2241.96 573.46
  Q 2245.26 573.62 2248.19 573.27
  Q 2251.78 572.85 2253.92 571.18
  Q 2256.80 568.94 2257.40 565.28
  Q 2257.41 565.20 2257.64 558.72
  Q 2257.98 549.45 2257.56 540.18
  A 0.41 0.37 -2.2 0 0 2257.13 539.82
  Z"
/>
<path fill="#0b393f" d="
  M 2281.05 563.82
  Q 2280.96 570.35 2280.99 576.88
  Q 2281.00 576.94 2281.13 578.62
  Q 2281.33 581.29 2278.75 581.18
  Q 2277.68 581.13 2276.24 581.11
  Q 2275.18 581.10 2274.20 580.70
  A 0.77 0.73 -80.3 0 1 2273.74 580.01
  Q 2273.18 557.21 2273.71 533.27
  A 0.79 0.79 -89.3 0 1 2274.50 532.50
  Q 2280.00 532.50 2284.25 532.43
  Q 2295.93 532.25 2300.50 542.50
  Q 2301.59 544.96 2301.66 547.82
  Q 2301.71 550.34 2300.62 553.04
  Q 2295.72 565.05 2281.56 563.38
  A 0.46 0.45 4.0 0 0 2281.05 563.82
  Z
  M 2291.31 541.94
  Q 2288.27 539.86 2284.04 540.38
  Q 2283.39 540.46 2282.49 540.29
  Q 2280.88 539.98 2281.06 541.43
  Q 2281.24 542.92 2281.23 543.10
  Q 2281.13 549.08 2281.41 555.06
  A 0.60 0.58 -88.9 0 0 2281.93 555.62
  Q 2284.84 555.95 2287.75 555.47
  Q 2292.46 554.70 2293.90 550.77
  Q 2294.76 548.42 2294.18 546.05
  Q 2293.53 543.46 2291.31 541.94
  Z"
/>
<path fill="#49a85a" d="
  M 1973.63 559.92
  Q 1969.60 553.45 1963.13 549.65
  L 1966.41 533.24
  Q 1966.50 532.79 1966.58 533.25
  L 1969.47 549.19
  A 0.34 0.34 68.3 0 0 1969.99 549.42
  L 1979.82 542.80
  Q 1981.42 541.73 1980.36 543.31
  L 1973.99 552.76
  A 0.80 0.80 -68.7 0 0 1974.53 554.00
  L 1989.04 556.32
  Q 1991.83 556.76 1989.02 557.25
  L 1973.63 559.92
  Z"
/>
<path fill="#c6cac5" d="
  M 1876.21 538.25
  Q 1874.09 538.64 1872.00 538.04
  Q 1874.25 537.25 1876.21 538.25
  Z"
/>
<path fill="#5e5e5e" d="
  M 1697.75 577.54
  L 1692.75 578.21
  Q 1684.51 577.07 1683.68 568.00
  A 1.58 1.51 87.2 0 1 1685.18 566.27
  L 1688.83 566.26
  A 1.20 1.16 -90.0 0 1 1690.00 567.47
  Q 1689.99 569.59 1691.02 570.76
  Q 1692.00 571.86 1693.90 571.83
  Q 1696.85 571.79 1697.24 568.95
  Q 1697.51 567.01 1697.32 565.05
  Q 1696.97 561.56 1692.94 560.31
  Q 1681.27 556.72 1684.75 544.75
  Q 1686.66 538.18 1692.54 537.83
  Q 1697.31 537.54 1700.44 540.29
  Q 1703.82 543.25 1703.46 549.09
  A 1.03 1.03 -82.1 0 1 1702.21 550.04
  Q 1700.25 549.63 1698.16 550.07
  A 0.52 0.52 81.4 0 1 1697.53 549.60
  Q 1697.37 547.75 1696.72 546.42
  Q 1695.23 543.33 1692.85 544.32
  Q 1691.26 544.99 1690.55 546.99
  Q 1689.23 550.70 1692.09 552.90
  Q 1692.78 553.42 1696.07 554.74
  Q 1698.27 555.61 1700.00 556.75
  Q 1702.57 558.44 1703.20 561.66
  Q 1704.28 567.18 1702.54 572.51
  Q 1701.36 576.15 1697.75 577.54
  Z"
/>
<path fill="#c6cac5" d="
  M 1855.75 538.19
  L 1849.79 538.50
  Q 1850.02 537.62 1851.02 537.85
  Q 1851.57 537.97 1852.00 537.91
  Q 1853.70 537.67 1855.75 538.19
  Z"
/>
<path fill="#5e5e5e" d="
  M 1872.00 538.04
  Q 1874.09 538.64 1876.21 538.25
  Q 1876.90 545.42 1876.50 548.75
  Q 1876.01 552.75 1877.89 550.34
  A 1.77 1.37 -73.7 0 1 1878.66 549.78
  Q 1887.35 547.12 1887.64 556.25
  Q 1887.77 559.98 1887.50 571.50
  Q 1887.40 575.92 1884.25 577.71
  L 1878.50 577.54
  Q 1876.97 575.33 1876.32 577.21
  A 0.69 0.68 -81.9 0 1 1875.70 577.68
  L 1871.01 577.94
  A 0.50 0.46 -2.9 0 1 1870.48 577.50
  Q 1869.89 558.00 1870.48 538.51
  A 0.63 0.54 89.2 0 1 1870.98 537.91
  Q 1871.48 537.86 1872.00 538.04
  Z
  M 1881.39 557.87
  A 2.31 2.31 0.0 0 0 1879.08 555.56
  L 1878.90 555.56
  A 2.31 2.31 0.0 0 0 1876.59 557.87
  L 1876.59 569.35
  A 2.31 2.31 0.0 0 0 1878.90 571.66
  L 1879.08 571.66
  A 2.31 2.31 0.0 0 0 1881.39 569.35
  L 1881.39 557.87
  Z"
/>
<path fill="#5e5e5e" d="
  M 1855.75 538.19
  Q 1856.41 557.82 1855.71 577.43
  A 0.50 0.48 2.3 0 1 1855.19 577.89
  L 1850.65 577.76
  A 0.82 0.77 -7.6 0 1 1849.91 577.23
  Q 1849.39 575.65 1848.65 576.99
  A 1.60 1.19 -80.7 0 1 1847.98 577.64
  Q 1843.37 579.55 1840.65 576.59
  Q 1839.01 574.82 1838.76 570.92
  Q 1838.41 565.48 1838.58 560.02
  Q 1838.77 554.03 1839.06 553.01
  Q 1840.35 548.34 1846.74 549.55
  Q 1848.23 549.84 1849.06 550.78
  Q 1849.75 551.57 1849.75 550.52
  L 1849.79 538.50
  L 1855.75 538.19
  Z
  M 1849.6498 557.8475
  A 2.30 2.30 0.0 0 0 1847.3378 555.5596
  L 1847.1378 555.5606
  A 2.30 2.30 0.0 0 0 1844.8499 557.8726
  L 1844.9102 569.3925
  A 2.30 2.30 0.0 0 0 1847.2222 571.6804
  L 1847.4222 571.6794
  A 2.30 2.30 0.0 0 0 1849.7101 569.3674
  L 1849.6498 557.8475
  Z"
/>
<rect fill="#ffffff" x="2034.18" y="540.39" width="18.48" height="32.70" rx="8.73"/>
<path fill="#ffffff" d="
  M 2291.31 541.94
  Q 2293.53 543.46 2294.18 546.05
  Q 2294.76 548.42 2293.90 550.77
  Q 2292.46 554.70 2287.75 555.47
  Q 2284.84 555.95 2281.93 555.62
  A 0.60 0.58 -88.9 0 1 2281.41 555.06
  Q 2281.13 549.08 2281.23 543.10
  Q 2281.24 542.92 2281.06 541.43
  Q 2280.88 539.98 2282.49 540.29
  Q 2283.39 540.46 2284.04 540.38
  Q 2288.27 539.86 2291.31 541.94
  Z"
/>
<path fill="#5e5e5e" d="
  M 1816.46 577.75
  L 1809.54 576.50
  Q 1807.34 574.80 1807.25 573.25
  Q 1806.82 565.51 1807.10 557.75
  Q 1807.30 552.03 1804.97 555.28
  A 0.85 0.85 -68.6 0 1 1804.20 555.62
  Q 1800.47 555.18 1798.88 557.84
  Q 1798.03 559.28 1797.93 562.83
  Q 1797.73 570.16 1797.51 577.50
  A 0.48 0.43 1.9 0 1 1797.01 577.92
  L 1792.17 577.77
  A 0.43 0.39 0.8 0 1 1791.75 577.38
  L 1791.75 550.02
  A 0.52 0.52 0.0 0 1 1792.27 549.50
  L 1796.77 549.50
  A 0.97 0.97 -2.6 0 1 1797.74 550.38
  Q 1797.93 552.48 1798.88 551.36
  Q 1799.29 550.87 1799.64 550.69
  Q 1802.72 549.08 1806.19 549.38
  A 0.50 0.47 3.9 0 0 1806.74 548.93
  L 1807.07 541.32
  A 0.53 0.48 -88.2 0 1 1807.56 540.81
  L 1812.32 540.92
  A 0.60 0.52 -0.4 0 1 1812.91 541.42
  L 1813.20 548.13
  A 1.42 1.28 81.6 0 0 1814.83 549.48
  Q 1816.86 548.92 1816.68 550.82
  Q 1816.58 551.87 1816.63 552.68
  Q 1816.78 555.15 1814.24 554.33
  A 0.73 0.71 9.1 0 0 1813.28 555.00
  L 1813.47 570.75
  A 0.98 0.93 -75.0 0 0 1813.90 571.54
  Q 1814.75 572.08 1815.81 572.17
  A 0.61 0.51 3.0 0 1 1816.37 572.69
  L 1816.46 577.75
  Z"
/>
<path fill="#0b393f" d="
  M 2149.98 577.00
  Q 2143.83 572.48 2143.58 564.75
  Q 2143.50 562.12 2143.44 559.50
  Q 2143.19 548.52 2151.29 544.02
  Q 2156.40 541.18 2162.07 542.14
  Q 2168.32 543.20 2171.94 548.61
  Q 2173.92 551.57 2174.55 555.36
  Q 2175.16 559.09 2174.52 562.71
  Q 2174.21 564.50 2172.39 564.50
  L 2152.69 564.50
  A 1.27 1.27 -7.6 0 0 2151.46 566.11
  Q 2153.30 572.80 2160.25 572.69
  Q 2165.16 572.61 2170.06 572.91
  A 0.69 0.68 -5.1 0 1 2170.69 573.43
  Q 2171.40 576.50 2170.69 579.57
  A 0.68 0.68 -84.8 0 1 2170.07 580.09
  Q 2166.03 580.32 2160.00 580.25
  Q 2154.31 580.19 2149.98 577.00
  Z
  M 2162.79 550.34
  Q 2160.72 548.97 2158.26 549.32
  Q 2152.22 550.17 2151.40 556.98
  A 0.47 0.46 -86.7 0 0 2151.86 557.50
  L 2166.18 557.44
  A 0.52 0.51 0.0 0 0 2166.70 556.93
  Q 2166.65 552.90 2162.79 550.34
  Z"
/>
<path fill="#0b393f" d="
  M 2211.76 566.45
  A 14.29 14.29 0.0 0 1 2197.47 580.74
  L 2195.23 580.74
  A 14.29 14.29 0.0 0 1 2180.94 566.45
  L 2180.94 556.31
  A 14.29 14.29 0.0 0 1 2195.23 542.02
  L 2197.47 542.02
  A 14.29 14.29 0.0 0 1 2211.76 556.31
  L 2211.76 566.45
  Z
  M 2203.9420 556.8135
  A 7.16 7.16 0.0 0 0 2196.8322 549.6037
  L 2195.8522 549.5969
  A 7.16 7.16 0.0 0 0 2188.6424 556.7067
  L 2188.5780 565.9265
  A 7.16 7.16 0.0 0 0 2195.6878 573.1363
  L 2196.6678 573.1431
  A 7.16 7.16 0.0 0 0 2203.8776 566.0333
  L 2203.9420 556.8135
  Z"
/>
<path fill="#0b393f" d="
  M 1963.13 549.65
  Q 1969.60 553.45 1973.63 559.92
  L 1980.44 570.32
  Q 1981.38 571.75 1979.96 570.79
  L 1969.54 563.75
  Q 1963.13 560.04 1959.25 553.71
  L 1952.50 542.92
  Q 1952.21 542.47 1952.67 542.77
  L 1963.13 549.65
  Z
  M 1968.33 556.70
  A 1.97 1.97 0.0 0 0 1966.36 554.73
  A 1.97 1.97 0.0 0 0 1964.39 556.70
  A 1.97 1.97 0.0 0 0 1966.36 558.67
  A 1.97 1.97 0.0 0 0 1968.33 556.70
  Z"
/>
<path fill="#c6cac5" d="
  M 1831.21 550.50
  Q 1826.06 548.22 1820.12 550.91
  Q 1821.37 549.65 1822.73 549.10
  Q 1823.59 548.76 1825.30 548.95
  Q 1826.82 549.13 1827.94 548.94
  Q 1830.32 548.52 1831.21 550.50
  Z"
/>
<path fill="#5e5e5e" d="
  M 1742.75 577.54
  L 1736.75 577.54
  Q 1735.91 577.44 1735.47 576.75
  Q 1734.78 575.66 1734.73 577.01
  Q 1734.51 582.87 1734.50 588.75
  A 0.57 0.49 -90.0 0 1 1734.01 589.32
  L 1728.99 589.32
  A 0.57 0.50 -90.0 0 1 1728.49 588.75
  L 1728.55 550.07
  A 0.53 0.51 -90.0 0 1 1729.06 549.54
  L 1733.43 549.54
  A 1.01 1.01 71.2 0 1 1734.26 549.95
  L 1734.72 550.58
  A 0.41 0.40 49.4 0 0 1735.33 550.63
  Q 1736.42 549.52 1738.25 549.25
  Q 1741.84 548.73 1743.84 550.78
  Q 1745.24 552.22 1745.48 555.64
  Q 1745.99 562.75 1745.50 572.50
  Q 1745.32 576.05 1742.75 577.54
  Z
  M 1739.45 557.90
  A 2.32 2.32 0.0 0 0 1737.13 555.58
  L 1736.93 555.58
  A 2.32 2.32 0.0 0 0 1734.61 557.90
  L 1734.61 569.42
  A 2.32 2.32 0.0 0 0 1736.93 571.74
  L 1737.13 571.74
  A 2.32 2.32 0.0 0 0 1739.45 569.42
  L 1739.45 557.90
  Z"
/>
<path fill="#5e5e5e" d="
  M 1764.50 577.54
  L 1758.50 577.54
  Q 1757.59 577.52 1757.10 576.84
  Q 1756.83 576.46 1756.69 576.37
  Q 1756.11 576.02 1756.10 577.00
  Q 1756.05 582.84 1755.94 588.37
  A 0.71 0.70 -6.4 0 1 1755.40 589.04
  Q 1752.47 589.73 1750.40 589.00
  A 0.74 0.71 -80.5 0 1 1749.93 588.31
  L 1749.76 550.06
  A 0.55 0.54 89.5 0 1 1750.30 549.50
  L 1755.18 549.54
  A 0.74 0.69 80.2 0 1 1755.83 550.03
  Q 1756.46 551.88 1757.46 550.13
  A 1.23 1.03 -78.6 0 1 1758.17 549.56
  Q 1766.62 547.55 1767.00 556.50
  Q 1767.36 565.06 1767.08 569.84
  Q 1767.07 570.00 1767.08 572.15
  Q 1767.10 575.41 1764.50 577.54
  Z
  M 1760.9200 557.9042
  A 2.31 2.31 0.0 0 0 1758.6141 555.5902
  L 1758.4141 555.5898
  A 2.31 2.31 0.0 0 0 1756.1000 557.8958
  L 1756.0800 569.3958
  A 2.31 2.31 0.0 0 0 1758.3859 571.7098
  L 1758.5859 571.7102
  A 2.31 2.31 0.0 0 0 1760.9000 569.4042
  L 1760.9200 557.9042
  Z"
/>
<path fill="#5e5e5e" d="
  M 1787.9915 570.2850
  A 7.93 7.93 0.0 0 1 1780.0753 578.2288
  L 1778.7553 578.2311
  A 7.93 7.93 0.0 0 1 1770.8115 570.3150
  L 1770.7885 557.1750
  A 7.93 7.93 0.0 0 1 1778.7047 549.2312
  L 1780.0247 549.2289
  A 7.93 7.93 0.0 0 1 1787.9685 557.1450
  L 1787.9915 570.2850
  Z
  M 1781.7400 557.9682
  A 2.24 2.24 0.0 0 0 1779.5078 555.7204
  L 1779.3278 555.7197
  A 2.24 2.24 0.0 0 0 1777.0800 557.9519
  L 1777.0400 569.4118
  A 2.24 2.24 0.0 0 0 1779.2722 571.6596
  L 1779.4522 571.6603
  A 2.24 2.24 0.0 0 0 1781.7000 569.4281
  L 1781.7400 557.9682
  Z"
/>
<path fill="#5e5e5e" d="
  M 1831.21 550.50
  Q 1834.25 552.61 1834.75 556.50
  Q 1835.44 561.85 1834.57 566.08
  Q 1829.29 564.63 1823.97 566.00
  L 1824.16 569.96
  A 2.00 1.61 7.3 0 0 1825.66 571.53
  Q 1828.31 572.21 1828.26 570.82
  A 1.26 1.24 89.1 0 1 1829.50 569.52
  L 1834.26 569.49
  A 0.49 0.48 -88.9 0 1 1834.74 570.00
  Q 1834.52 577.84 1826.94 578.44
  Q 1821.91 578.83 1819.48 575.14
  Q 1817.92 572.78 1817.53 568.07
  Q 1816.79 559.15 1820.12 550.91
  Q 1826.06 548.22 1831.21 550.50
  Z
  M 1824.44 556.94
  Q 1822.31 562.66 1828.08 561.19
  A 0.81 0.78 -1.4 0 0 1828.68 560.58
  Q 1829.19 558.14 1827.81 556.16
  A 1.24 1.18 76.1 0 0 1827.01 555.65
  Q 1825.04 555.33 1824.44 556.94
  Z"
/>
<path fill="#5e5e5e" d="
  M 1898.49 564.57
  Q 1898.77 565.87 1899.06 564.58
  L 1902.21 550.31
  A 0.82 0.77 -89.6 0 1 1902.80 549.69
  Q 1905.46 549.07 1908.08 549.79
  A 0.54 0.54 -75.8 0 1 1908.46 550.43
  Q 1905.13 565.82 1901.05 581.03
  Q 1899.85 585.48 1898.42 586.93
  Q 1896.06 589.34 1891.74 589.24
  A 0.72 0.71 -7.4 0 1 1891.08 588.74
  Q 1890.57 587.16 1890.89 584.67
  A 1.61 1.60 -85.7 0 1 1892.52 583.26
  Q 1894.06 583.30 1894.63 581.89
  Q 1895.03 580.90 1895.10 580.77
  Q 1896.68 577.63 1896.00 575.25
  Q 1892.47 562.82 1888.74 550.19
  A 0.55 0.54 -7.9 0 1 1889.27 549.50
  L 1894.68 549.43
  A 0.64 0.61 -6.7 0 1 1895.31 549.90
  L 1898.49 564.57
  Z"
/>
<path fill="#ffffff" d="
  M 2162.79 550.34
  Q 2166.65 552.90 2166.70 556.93
  A 0.52 0.51 0.0 0 1 2166.18 557.44
  L 2151.86 557.50
  A 0.47 0.46 -86.7 0 1 2151.40 556.98
  Q 2152.22 550.17 2158.26 549.32
  Q 2160.72 548.97 2162.79 550.34
  Z"
/>
<path fill="#5e5e5e" d="
  M 1723.75 577.96
  Q 1721.45 577.07 1719.25 577.96
  Q 1718.63 578.63 1718.43 577.66
  Q 1717.85 574.89 1716.25 577.54
  L 1710.00 577.54
  Q 1707.32 575.64 1707.25 573.75
  Q 1706.82 562.63 1707.02 550.39
  A 0.75 0.67 -89.6 0 1 1707.69 549.65
  L 1712.45 549.69
  A 0.61 0.49 -89.0 0 1 1712.93 550.31
  Q 1712.75 559.59 1713.40 568.84
  Q 1713.52 570.56 1714.33 571.40
  Q 1715.67 572.78 1717.05 571.23
  Q 1717.74 570.44 1717.78 569.06
  Q 1718.04 559.66 1718.24 550.25
  A 0.60 0.51 -89.9 0 1 1718.74 549.66
  L 1723.50 549.59
  A 0.82 0.74 89.7 0 1 1724.25 550.41
  Q 1724.25 563.63 1724.25 576.50
  Q 1724.25 577.56 1723.75 577.96
  Z"
/>
<rect fill="#ffffff" x="-7.65" y="-11.77" transform="translate(2196.26,561.37) rotate(0.4)" width="15.30" height="23.54" rx="7.16"/>
<circle fill="#c51720" cx="2229.57" cy="558.69" r="6.92"/>
<path fill="#49a85a" d="
  M 1959.25 553.71
  Q 1963.13 560.04 1969.54 563.75
  Q 1967.80 571.94 1966.72 580.25
  Q 1966.60 581.21 1966.16 580.38
  Q 1966.07 580.21 1966.03 579.97
  Q 1965.01 572.65 1963.35 564.36
  A 0.50 0.50 67.3 0 0 1962.58 564.04
  L 1953.38 570.38
  Q 1951.48 571.69 1952.74 569.76
  L 1958.80 560.55
  A 0.63 0.63 -68.4 0 0 1958.38 559.58
  L 1943.60 557.19
  Q 1941.18 556.80 1943.60 556.39
  L 1959.25 553.71
  Z"
/>
<circle fill="#ffffff" cx="1966.36" cy="556.70" r="1.97"/>
<rect fill="#ffffff" x="1734.61" y="555.58" width="4.84" height="16.16" rx="2.32"/>
<rect fill="#ffffff" x="-2.41" y="-8.06" transform="translate(1758.50,563.65) rotate(0.1)" width="4.82" height="16.12" rx="2.31"/>
<rect fill="#ffffff" x="-2.40" y="-8.06" transform="translate(1847.28,563.62) rotate(-0.3)" width="4.80" height="16.12" rx="2.30"/>
<rect fill="#ffffff" x="1876.59" y="555.56" width="4.80" height="16.10" rx="2.31"/>
<rect fill="#ffffff" x="-2.33" y="-7.97" transform="translate(1779.39,563.69) rotate(0.2)" width="4.66" height="15.94" rx="2.24"/>
<path fill="#ffffff" d="
  M 1824.44 556.94
  Q 1825.04 555.33 1827.01 555.65
  A 1.24 1.18 76.1 0 1 1827.81 556.16
  Q 1829.19 558.14 1828.68 560.58
  A 0.81 0.78 -1.4 0 1 1828.08 561.19
  Q 1822.31 562.66 1824.44 556.94
  Z"
/>
<path fill="#0b393f" d="
  M 1919.47 559.52
  Q 1918.55 559.00 1919.62 559.00
  L 1936.92 559.00
  A 0.81 0.81 84.3 0 1 1937.71 559.65
  Q 1941.86 581.03 1963.49 585.14
  A 0.63 0.62 5.7 0 1 1964.00 585.75
  L 1964.00 594.10
  A 0.60 0.60 3.8 0 1 1963.32 594.69
  Q 1937.07 591.12 1929.20 565.83
  A 2.90 2.46 9.6 0 0 1927.91 564.30
  L 1919.47 559.52
  Z"
/>
<path fill="#49a85a" d="
  M 1995.08 559.75
  A 0.64 0.63 -83.8 0 1 1995.70 559.25
  L 2003.64 559.25
  A 0.97 0.97 5.0 0 1 2004.60 560.39
  Q 2000.18 586.49 1975.55 593.67
  A 1.43 1.14 2.1 0 0 1974.78 594.24
  L 1969.29 603.43
  Q 1968.76 604.31 1968.78 603.31
  L 1969.03 585.81
  A 0.64 0.59 -4.7 0 1 1969.56 585.23
  Q 1990.57 581.42 1995.08 559.75
  Z"
/>
<path fill="#9a9396" d="
  M 1834.57 566.08
  Q 1828.96 566.81 1823.97 566.00
  Q 1829.29 564.63 1834.57 566.08
  Z"
/>
<path fill="#9a9396" d="
  M 1809.54 576.50
  L 1816.46 577.75
  Q 1812.65 578.79 1809.54 576.50
  Z"
/>
<path fill="#9a9396" d="
  M 1742.75 577.54
  Q 1739.84 579.33 1736.75 577.54
  L 1742.75 577.54
  Z"
/>
<path fill="#9a9396" d="
  M 1884.25 577.71
  Q 1881.32 579.35 1878.50 577.54
  L 1884.25 577.71
  Z"
/>
<path fill="#9a9396" d="
  M 1697.75 577.54
  Q 1695.39 578.73 1692.75 578.21
  L 1697.75 577.54
  Z"
/>
<path fill="#9a9396" d="
  M 1710.00 577.54
  L 1716.25 577.54
  Q 1713.11 579.17 1710.00 577.54
  Z"
/>
<path fill="#c6cac5" d="
  M 1723.75 577.96
  L 1719.25 577.96
  Q 1721.45 577.07 1723.75 577.96
  Z"
/>
<path fill="#9a9396" d="
  M 1758.50 577.54
  L 1764.50 577.54
  Q 1761.50 579.29 1758.50 577.54
  Z"
/>
</svg>
