<?xml version="1.0" encoding="UTF-8" standalone="no"?>
<!DOCTYPE svg PUBLIC "-//W3C//DTD SVG 1.1//EN" "http://www.w3.org/Graphics/SVG/1.1/DTD/svg11.dtd">
<svg xmlns="http://www.w3.org/2000/svg" version="1.1" viewBox="0 0 746 1034">
<g stroke-width="2.00" fill="none" stroke-linecap="butt">
<path stroke="#80e1e0" vector-effect="non-scaling-stroke" d="
  M 189.78 140.30
  Q 192.71 142.60 195.22 144.05
  Q 276.35 190.93 357.55 237.66
  Q 358.86 238.41 360.06 238.92
  A 0.68 0.68 -78.6 0 0 361.00 238.29
  L 360.94 42.30
  A 1.03 1.03 75.0 0 0 359.40 41.41
  L 189.85 139.34
  A 0.58 0.58 -40.9 0 0 189.78 140.30"
/>
<path stroke="#80e1e0" vector-effect="non-scaling-stroke" d="
  M 389.13 256.15
  Q 421.56 275.06 453.54 293.10
  A 0.81 0.81 -75.4 0 0 454.75 292.39
  L 455.01 192.27
  A 1.80 1.78 -15.3 0 1 455.90 190.73
  L 542.20 140.68
  A 0.79 0.79 0.0 0 0 542.20 139.32
  Q 461.52 92.56 380.83 45.87
  Q 376.84 43.56 372.33 41.39
  A 0.93 0.93 -77.2 0 0 371.00 42.23
  L 371.00 244.04
  A 2.68 2.65 -74.9 0 0 372.31 246.34
  Q 380.60 251.18 389.13 256.15"
/>
<path stroke="#a49eb3" vector-effect="non-scaling-stroke" d="
  M 548.20 150.39
  Q 548.27 150.16 548.22 149.93
  A 0.46 0.37 -23.1 0 0 547.57 149.75
  L 466.07 196.78
  A 1.66 1.66 -15.2 0 0 465.25 198.21
  L 465.31 299.20
  A 0.87 0.84 15.3 0 0 465.75 299.94
  L 547.80 347.38
  Q 548.25 347.64 548.25 347.12
  Q 548.25 250.13 548.25 153.75
  Q 548.25 152.05 548.09 151.17
  Q 548.04 150.86 548.20 150.39"
/>
<path stroke="#a49eb3" vector-effect="non-scaling-stroke" d="
  M 255.26 190.79
  Q 219.85 170.34 184.56 149.69
  A 0.37 0.37 20.8 0 0 184.01 149.93
  Q 183.63 151.86 183.63 153.75
  Q 183.75 251.13 183.75 348.50
  Q 183.75 351.93 184.18 353.70
  A 1.21 1.10 10.1 0 0 184.75 354.44
  L 547.80 564.32
  Q 548.25 564.58 548.25 564.06
  L 548.25 361.20
  A 1.96 1.94 -75.1 0 0 547.28 359.51
  Q 401.12 275.01 255.26 190.79"
/>
<path stroke="#808080" vector-effect="non-scaling-stroke" d="
  M 280.40 661.76
  L 285.88 674.23
  A 0.94 0.87 82.0 0 0 286.55 674.78
  Q 290.78 675.49 294.95 674.55
  A 0.42 0.41 71.5 0 0 295.23 673.97
  L 269.21 615.46
  Q 269.00 614.99 268.78 615.45
  L 240.96 674.05
  A 0.37 0.35 -75.3 0 0 241.25 674.57
  L 248.82 675.00
  A 1.87 1.67 -74.9 0 0 250.49 673.91
  L 256.07 661.85
  A 1.05 1.04 12.4 0 1 257.02 661.25
  L 279.69 661.31
  A 0.79 0.76 -11.5 0 1 280.40 661.76"
/>
<path stroke="#808080" vector-effect="non-scaling-stroke" d="
  M 560.65 661.77
  L 565.95 673.65
  A 2.14 1.78 74.6 0 0 567.78 674.92
  L 575.26 674.60
  A 0.40 0.36 76.0 0 0 575.55 674.05
  L 549.36 615.37
  Q 549.09 614.76 548.80 615.36
  L 521.28 673.98
  A 0.40 0.39 -71.3 0 0 521.55 674.54
  Q 525.72 675.37 529.94 674.76
  A 0.92 0.91 -81.5 0 0 530.64 674.24
  L 536.29 661.72
  A 0.80 0.79 11.9 0 1 537.02 661.25
  L 559.94 661.31
  A 0.79 0.78 77.6 0 1 560.65 661.77"
/>
<path stroke="#808080" vector-effect="non-scaling-stroke" d="
  M 629.44 671.31
  Q 633.21 674.42 637.42 675.37
  Q 648.03 677.76 655.88 671.91
  Q 659.89 668.92 661.93 664.58
  Q 664.00 660.15 664.00 655.00
  Q 664.00 638.13 664.00 619.67
  A 1.89 1.72 -0.2 0 0 662.10 617.95
  L 656.40 617.98
  A 0.90 0.86 0.3 0 0 655.50 618.83
  Q 655.35 632.24 655.27 645.92
  Q 655.27 646.04 655.34 652.08
  Q 655.40 657.13 654.75 659.00
  Q 652.00 666.87 644.49 667.72
  Q 640.84 668.13 637.69 666.63
  Q 634.19 664.96 632.45 661.64
  Q 631.02 658.91 630.94 652.10
  Q 630.72 635.42 630.51 618.75
  A 0.56 0.50 88.9 0 0 630.00 618.20
  L 622.48 618.34
  A 0.54 0.49 89.5 0 0 622.00 618.88
  Q 622.00 634.14 622.00 649.52
  Q 622.00 649.59 621.93 652.49
  Q 621.77 658.57 624.06 664.23
  Q 625.67 668.21 629.44 671.31"
/>
<path stroke="#808080" vector-effect="non-scaling-stroke" d="
  M 77.31 651.85
  Q 83.73 652.22 88.50 650.75
  Q 95.20 648.68 98.04 642.94
  Q 100.61 637.78 99.73 631.80
  Q 98.79 625.41 93.44 621.56
  Q 88.68 618.14 81.54 618.19
  Q 78.03 618.21 77.97 618.21
  Q 73.35 618.12 68.74 618.24
  A 0.51 0.51 90.0 0 0 68.24 618.74
  Q 67.68 646.41 68.18 674.07
  A 0.67 0.66 -83.0 0 0 68.67 674.70
  Q 70.93 675.28 73.23 674.94
  Q 73.63 674.89 75.27 674.91
  Q 76.96 674.94 76.69 672.81
  Q 75.88 666.49 76.78 652.31
  A 0.50 0.49 3.5 0 1 77.31 651.85"
/>
<path stroke="#808080" vector-effect="non-scaling-stroke" d="
  M 168.81 665.95
  L 168.75 618.90
  A 1.02 0.95 -1.2 0 0 167.69 617.95
  L 160.87 618.23
  A 0.91 0.85 -1.4 0 0 160.00 619.08
  L 160.00 673.93
  A 0.84 0.81 -89.7 0 0 160.80 674.77
  L 184.81 674.83
  A 0.54 0.53 1.1 0 0 185.35 674.32
  L 185.57 667.43
  A 0.52 0.48 2.3 0 0 185.07 666.93
  L 169.32 666.46
  A 0.52 0.51 0.6 0 1 168.81 665.95"
/>
<path stroke="#808080" vector-effect="non-scaling-stroke" d="
  M 355.18 626.36
  Q 356.50 626.43 357.82 626.44
  A 0.50 0.49 0.0 0 1 358.32 626.93
  L 358.32 674.19
  A 0.54 0.49 -90.0 0 0 358.81 674.73
  L 366.33 674.78
  A 1.01 0.92 -89.7 0 0 367.26 673.77
  L 367.19 627.18
  A 0.57 0.54 -4.1 0 1 367.69 626.63
  Q 373.56 626.00 379.44 626.40
  A 0.52 0.47 2.3 0 0 380.00 625.94
  L 380.00 618.55
  A 0.56 0.48 0.0 0 0 379.44 618.07
  L 346.24 618.01
  A 0.56 0.56 3.4 0 0 345.68 618.50
  Q 345.15 622.23 345.73 625.94
  A 0.56 0.55 83.7 0 0 346.31 626.41
  Q 350.74 626.13 355.18 626.36"
/>
<path stroke="#808080" vector-effect="non-scaling-stroke" d="
  M 448.56 640.20
  L 448.50 626.75
  A 0.50 0.50 -45.0 0 1 449.00 626.25
  L 469.99 626.32
  A 0.89 0.89 2.8 0 0 470.89 625.51
  Q 471.25 621.43 470.56 618.54
  A 0.64 0.61 -6.2 0 0 469.94 618.07
  L 440.26 618.06
  A 0.51 0.50 -0.0 0 0 439.75 618.56
  L 439.75 674.20
  A 0.54 0.54 1.1 0 0 440.27 674.74
  Q 455.37 675.35 470.25 674.77
  A 0.58 0.53 -0.6 0 0 470.81 674.25
  L 470.96 667.26
  A 0.54 0.50 0.5 0 0 470.42 666.75
  L 449.40 666.75
  A 0.87 0.85 0.3 0 1 448.53 665.89
  L 448.67 649.44
  A 0.52 0.52 -90.0 0 1 449.19 648.92
  L 469.70 648.92
  A 0.51 0.49 0.6 0 0 470.21 648.44
  L 470.32 641.19
  A 0.52 0.49 0.0 0 0 469.80 640.70
  L 449.06 640.70
  A 0.50 0.50 45.0 0 1 448.56 640.20"
/>
<path stroke="#808080" vector-effect="non-scaling-stroke" d="
  M 234.50 755.30
  Q 242.74 759.74 247.91 754.42
  Q 251.36 750.86 251.61 745.67
  Q 251.89 739.86 247.35 736.19
  Q 244.38 733.79 241.05 733.66
  Q 237.29 733.50 234.19 736.11
  Q 233.80 736.44 233.79 735.94
  L 233.43 720.82
  A 0.53 0.49 89.4 0 0 232.94 720.30
  L 227.23 720.25
  A 0.98 0.97 -89.7 0 0 226.25 721.23
  L 226.31 755.93
  A 0.64 0.61 -84.5 0 0 226.80 756.55
  Q 227.86 756.78 228.94 756.80
  Q 231.46 756.85 231.56 756.84
  Q 232.97 756.71 233.80 755.49
  A 0.56 0.53 -58.9 0 1 234.50 755.30"
/>
<path stroke="#808080" vector-effect="non-scaling-stroke" d="
  M 372.19 737.84
  L 374.75 755.76
  A 0.92 0.85 -2.5 0 0 375.62 756.49
  L 380.88 756.70
  A 1.39 1.26 -3.0 0 0 382.32 755.25
  L 377.39 724.08
  A 0.68 0.67 87.2 0 0 376.78 723.52
  L 372.20 723.22
  A 1.54 1.50 12.8 0 0 370.69 724.14
  L 363.17 742.48
  Q 362.89 743.16 362.62 742.51
  L 354.87 724.15
  A 0.91 0.75 77.8 0 0 354.18 723.60
  L 348.89 723.26
  A 0.95 0.89 -83.3 0 0 347.95 724.06
  L 342.89 755.95
  A 0.43 0.43 -85.4 0 0 343.31 756.45
  L 349.81 756.50
  A 0.61 0.59 3.2 0 0 350.41 755.98
  L 352.63 738.05
  Q 352.78 736.87 353.25 737.94
  Q 356.90 746.18 360.28 753.96
  Q 361.01 755.65 361.59 756.27
  Q 363.32 758.13 364.80 754.77
  Q 368.51 746.38 371.82 737.80
  Q 372.09 737.10 372.19 737.84"
/>
<path stroke="#808080" vector-effect="non-scaling-stroke" d="
  M 416.06 749.43
  L 416.00 724.16
  A 0.91 0.91 0.1 0 0 415.09 723.25
  L 409.13 723.25
  A 0.88 0.88 0.0 0 0 408.25 724.13
  L 408.25 756.13
  A 0.43 0.42 0.0 0 0 408.68 756.55
  L 425.48 756.72
  A 0.77 0.72 -0.4 0 0 426.25 755.99
  L 426.20 750.57
  A 0.51 0.51 90.0 0 0 425.69 750.06
  L 416.57 749.94
  A 0.51 0.51 90.0 0 1 416.06 749.43"
/>
<path stroke="#808080" vector-effect="non-scaling-stroke" d="
  M 460.0283 723.6966
  A 0.42 0.42 0.0 0 0 459.6090 723.2759
  L 452.9290 723.2642
  A 0.42 0.42 0.0 0 0 452.5083 723.6835
  L 452.4517 756.1034
  A 0.42 0.42 0.0 0 0 452.8710 756.5241
  L 459.5510 756.5358
  A 0.42 0.42 0.0 0 0 459.9717 756.1165
  L 460.0283 723.6966"
/>
<path stroke="#808080" vector-effect="non-scaling-stroke" d="
  M 493.19 730.32
  L 493.25 755.84
  A 0.66 0.65 90.0 0 0 493.90 756.50
  L 500.58 756.50
  A 0.67 0.67 0.0 0 0 501.25 755.83
  L 501.25 730.45
  A 0.89 0.77 1.4 0 1 502.18 729.69
  L 507.31 729.89
  A 0.75 0.59 -80.3 0 0 507.94 729.32
  Q 508.64 726.60 508.23 724.53
  A 1.59 1.58 -5.5 0 0 506.67 723.25
  L 486.91 723.25
  A 0.66 0.66 -0.0 0 0 486.25 723.91
  L 486.25 729.06
  A 0.92 0.86 89.4 0 0 487.13 729.98
  L 492.70 729.86
  A 0.48 0.46 -0.6 0 1 493.19 730.32"
/>
<path stroke="#808080" vector-effect="non-scaling-stroke" d="
  M 281.71 745.75
  L 276.07 735.21
  A 1.34 1.28 75.8 0 0 274.94 734.50
  L 268.00 734.50
  A 0.31 0.30 -13.4 0 0 267.72 734.94
  L 277.28 752.94
  A 1.79 1.57 47.6 0 1 277.31 754.58
  L 270.55 766.53
  A 0.69 0.66 -69.2 0 0 270.97 767.53
  Q 274.99 768.38 278.07 767.69
  A 1.18 1.06 -80.5 0 0 278.80 767.11
  L 295.61 735.14
  A 0.34 0.30 -73.1 0 0 295.39 734.65
  L 288.93 734.33
  A 1.59 1.46 -74.6 0 0 287.50 735.23
  L 282.43 745.70
  Q 282.07 746.44 281.71 745.75"
/>
<path stroke="#d3d5d4" vector-effect="non-scaling-stroke" d="
  M 554.98 812.95
  A 0.95 0.95 0.0 0 0 554.03 812.00
  L 178.95 812.00
  A 0.95 0.95 0.0 0 0 178.00 812.95
  L 178.00 813.05
  A 0.95 0.95 0.0 0 0 178.95 814.00
  L 554.03 814.00
  A 0.95 0.95 0.0 0 0 554.98 813.05
  L 554.98 812.95"
/>
<path stroke="#d3d5d4" vector-effect="non-scaling-stroke" d="
  M 320.26 847.30
  Q 320.74 849.78 323.23 848.88
  A 0.86 0.85 83.6 0 0 323.77 848.20
  Q 324.22 844.64 321.00 843.50
  Q 318.53 842.63 316.70 843.91
  Q 315.19 844.97 314.77 847.23
  Q 313.83 852.28 319.24 854.08
  Q 321.20 854.73 320.69 856.74
  Q 319.53 861.25 317.70 857.21
  A 1.37 0.95 81.7 0 0 317.06 856.53
  Q 316.04 856.11 314.96 856.53
  A 0.73 0.69 77.3 0 0 314.53 857.25
  Q 314.97 862.47 319.81 862.00
  Q 321.43 861.84 322.43 860.86
  Q 323.57 859.74 323.79 858.14
  Q 324.04 856.30 323.79 854.36
  Q 323.48 851.91 321.00 851.25
  Q 317.21 850.24 318.14 847.29
  A 1.14 0.92 -87.4 0 1 318.76 846.59
  Q 319.25 846.43 319.75 846.60
  A 0.97 0.67 88.7 0 1 320.26 847.30"
/>
<path stroke="#d3d5d4" vector-effect="non-scaling-stroke" d="
  M 390.69 848.57
  Q 386.39 847.62 386.17 851.52
  Q 386.05 853.60 386.03 853.84
  Q 385.85 855.65 386.08 857.45
  Q 386.09 857.55 386.19 859.57
  Q 386.30 861.93 389.00 861.97
  Q 390.50 862.00 393.02 862.00
  A 1.53 1.51 89.4 0 0 394.53 860.44
  L 394.19 843.82
  A 0.56 0.45 87.1 0 0 393.69 843.26
  L 392.97 843.35
  Q 392.43 843.41 392.05 843.29
  Q 391.22 843.04 391.25 844.25
  Q 391.29 846.22 391.21 848.18
  A 0.44 0.42 7.0 0 1 390.69 848.57"
/>
<path stroke="#d3d5d4" vector-effect="non-scaling-stroke" d="
  M 400.92 861.74
  Q 402.57 862.17 404.02 861.87
  Q 404.50 861.77 404.97 861.92
  Q 406.71 862.45 407.88 861.51
  Q 408.74 860.83 408.87 859.15
  Q 409.15 855.71 409.00 852.25
  Q 408.86 849.04 406.49 848.36
  A 1.58 1.06 -39.8 0 0 405.55 848.46
  Q 403.06 849.52 403.77 846.25
  Q 404.55 842.66 401.30 843.21
  A 0.62 0.61 85.0 0 0 400.80 843.82
  L 400.81 861.60
  A 0.15 0.14 7.9 0 0 400.92 861.74"
/>
<path stroke="#d3d5d4" vector-effect="non-scaling-stroke" d="
  M 371.45 852.06
  Q 371.53 855.04 371.51 858.02
  Q 371.50 859.95 372.18 860.81
  Q 373.24 862.17 375.26 861.85
  A 0.85 0.81 3.6 0 0 375.94 861.28
  Q 376.29 860.15 375.69 859.06
  Q 374.49 856.93 374.50 856.25
  L 374.54 851.81
  A 0.70 0.62 -8.2 0 1 375.05 851.21
  Q 376.57 850.78 376.11 849.28
  A 1.54 0.85 21.4 0 0 375.50 848.55
  Q 373.99 847.52 374.38 845.49
  A 0.58 0.53 -76.2 0 0 374.02 844.84
  Q 370.83 843.91 371.40 847.25
  A 0.78 0.68 71.3 0 1 371.08 848.02
  Q 368.69 849.42 366.17 848.56
  A 1.43 1.40 -80.7 0 0 364.31 849.92
  L 364.33 861.18
  A 0.74 0.65 -81.8 0 0 364.78 861.86
  Q 368.24 863.07 367.50 859.25
  Q 367.20 857.71 367.59 854.46
  Q 367.77 852.94 368.46 852.27
  Q 369.42 851.34 370.95 851.49
  A 0.59 0.56 -87.8 0 1 371.45 852.06"
/>
<path stroke="#d3d5d4" vector-effect="non-scaling-stroke" d="
  M 327.07 861.68
  L 332.51 861.99
  A 0.98 0.93 -88.3 0 0 333.50 861.01
  L 333.45 849.30
  A 0.73 0.71 -81.4 0 0 332.97 848.63
  Q 330.14 847.65 330.19 850.75
  Q 330.25 853.98 330.25 857.20
  Q 330.25 857.86 330.04 858.25
  Q 329.59 859.11 328.87 858.59
  A 1.32 0.91 -82.5 0 1 328.44 857.75
  Q 327.96 853.48 328.25 851.00
  Q 328.64 847.59 325.78 848.62
  A 0.74 0.74 -10.3 0 0 325.30 849.31
  L 325.25 859.51
  Q 325.24 861.57 327.07 861.68"
/>
<path stroke="#d3d5d4" vector-effect="non-scaling-stroke" d="
  M 338.79 861.97
  Q 340.73 862.52 342.11 861.55
  Q 343.23 860.76 343.27 858.88
  Q 343.32 856.74 343.25 852.25
  Q 343.18 848.07 339.73 848.54
  Q 338.73 848.68 337.75 848.57
  Q 336.73 848.46 335.74 848.65
  A 0.66 0.63 87.9 0 0 335.21 849.25
  Q 334.65 857.25 335.25 865.25
  A 2.30 1.09 88.7 0 0 336.25 867.25
  Q 338.81 867.81 338.25 865.25
  Q 338.14 864.75 338.28 862.31
  A 0.40 0.38 10.2 0 1 338.79 861.97"
/>
<path stroke="#d3d5d4" vector-effect="non-scaling-stroke" d="
  M 348.98 861.76
  Q 353.13 862.75 353.19 858.75
  Q 353.25 855.12 353.07 851.51
  Q 352.90 848.17 350.07 848.52
  Q 348.70 848.68 347.91 848.62
  Q 346.79 848.54 345.69 848.63
  A 0.60 0.58 88.4 0 0 345.17 849.20
  Q 344.88 856.73 344.99 864.27
  Q 344.99 864.38 344.89 865.71
  Q 344.73 867.82 347.23 867.25
  A 0.88 0.85 -3.9 0 0 347.91 866.50
  L 348.30 862.27
  A 0.56 0.55 -81.2 0 1 348.98 861.76"
/>
<path stroke="#d3d5d4" vector-effect="non-scaling-stroke" d="
  M 362.9652 852.2972
  A 3.77 3.77 0.0 0 0 359.2018 848.5206
  L 358.5218 848.5194
  A 3.77 3.77 0.0 0 0 354.7452 852.2828
  L 354.7348 858.2228
  A 3.77 3.77 0.0 0 0 358.4982 861.9994
  L 359.1782 862.0006
  A 3.77 3.77 0.0 0 0 362.9548 858.2372
  L 362.9652 852.2972"
/>
<path stroke="#d3d5d4" vector-effect="non-scaling-stroke" d="
  M 380.04 856.67
  L 383.02 856.53
  A 1.55 1.29 -1.6 0 0 384.50 855.23
  Q 384.50 853.75 384.26 851.78
  Q 383.84 848.41 380.32 848.63
  Q 376.11 848.91 376.53 853.62
  Q 376.73 855.78 376.40 857.92
  Q 376.18 859.31 377.14 860.52
  Q 377.94 861.53 379.29 861.86
  Q 381.85 862.48 383.66 860.57
  Q 384.26 859.93 384.36 859.13
  Q 384.55 857.50 382.95 857.80
  Q 382.56 857.87 381.31 858.60
  Q 379.70 859.55 379.57 857.31
  A 0.62 0.51 86.9 0 1 380.04 856.67"
/>
<path stroke="#d3d5d4" vector-effect="non-scaling-stroke" d="
  M 413.68 853.50
  Q 413.54 852.27 413.03 849.89
  Q 412.61 847.93 409.82 848.68
  A 0.53 0.53 -15.1 0 0 409.45 849.32
  L 412.64 860.93
  Q 413.27 863.21 411.06 864.00
  Q 409.52 864.55 410.36 866.72
  A 0.75 0.74 78.7 0 0 411.07 867.20
  Q 414.35 867.14 415.25 863.50
  Q 416.95 856.62 418.63 849.74
  A 0.83 0.72 -66.1 0 0 418.38 848.92
  Q 417.31 848.09 416.02 848.60
  A 1.03 0.87 88.5 0 0 415.45 849.31
  L 414.49 853.55
  Q 413.95 855.92 413.68 853.50"
/>
<path stroke="#bcd4ed" vector-effect="non-scaling-stroke" d="
  M 514.62 897.94
  Q 508.29 892.83 501.75 891.75
  Q 479.64 888.10 464.47 903.59
  Q 461.06 907.07 459.31 910.52
  Q 457.29 914.50 456.67 918.90
  Q 455.77 925.36 458.57 931.26
  Q 463.10 940.81 474.00 943.50
  Q 495.16 948.72 511.95 933.95
  Q 522.34 924.81 521.71 910.93
  A 0.44 0.43 1.8 0 1 522.19 910.49
  Q 532.16 911.48 538.19 904.80
  Q 541.21 901.45 541.64 897.37
  Q 542.21 891.80 537.78 889.22
  Q 533.42 886.68 527.45 888.12
  Q 519.50 890.03 515.24 897.81
  A 0.42 0.41 -56.3 0 1 514.62 897.94"
/>
<path stroke="#80d6a8" vector-effect="non-scaling-stroke" d="
  M 197.74 917.63
  A 0.77 0.71 5.7 0 0 198.51 917.05
  Q 200.68 904.97 212.95 902.53
  A 0.66 0.59 -6.6 0 0 213.47 901.94
  L 213.30 892.75
  Q 213.29 892.19 212.99 892.68
  Q 212.61 893.29 212.25 893.91
  Q 212.15 894.07 211.42 895.65
  Q 210.56 897.50 208.60 898.12
  Q 207.13 898.59 207.06 898.62
  Q 195.48 903.45 193.17 916.43
  A 0.98 0.92 5.4 0 0 194.12 917.51
  L 197.74 917.63"
/>
<path stroke="#809da0" vector-effect="non-scaling-stroke" d="
  M 236.67 913.96
  Q 232.13 899.63 217.31 897.14
  A 0.53 0.44 6.0 0 0 216.70 897.55
  L 216.60 902.06
  A 0.70 0.55 7.3 0 0 217.18 902.65
  Q 228.56 904.92 231.48 917.24
  A 0.68 0.66 82.6 0 0 232.12 917.75
  L 241.45 917.69
  Q 243.05 917.68 241.61 916.93
  L 237.25 914.68
  A 1.27 1.06 -89.0 0 1 236.67 913.96"
/>
<path stroke="#80d6a8" vector-effect="non-scaling-stroke" d="
  M 269.1441 914.4517
  A 9.19 9.19 0.0 0 0 260.0024 905.2137
  L 258.6624 905.2067
  A 9.19 9.19 0.0 0 0 249.4244 914.3484
  L 249.3759 923.6083
  A 9.19 9.19 0.0 0 0 258.5176 932.8463
  L 259.8576 932.8533
  A 9.19 9.19 0.0 0 0 269.0956 923.7116
  L 269.1441 914.4517"
/>
<path stroke="#808080" vector-effect="non-scaling-stroke" d="
  M 308.56 922.82
  Q 308.74 924.56 307.40 926.35
  Q 306.27 927.85 304.50 928.34
  Q 301.40 929.20 299.35 927.01
  Q 297.96 925.52 297.62 922.59
  Q 297.26 919.44 297.54 916.30
  Q 297.87 912.73 299.47 911.00
  Q 301.90 908.37 305.95 910.12
  Q 306.02 910.15 307.37 911.12
  Q 308.89 912.21 310.58 909.35
  A 1.27 1.27 -54.6 0 0 310.31 907.74
  Q 306.04 904.17 300.97 905.31
  Q 297.05 906.19 295.06 909.20
  Q 293.14 912.10 293.00 916.50
  Q 292.77 923.71 293.25 925.25
  Q 295.36 932.04 301.41 932.81
  Q 305.55 933.34 308.73 931.17
  Q 312.22 928.79 312.75 924.00
  Q 313.04 921.38 312.52 918.05
  A 0.78 0.77 -87.2 0 0 311.96 917.42
  Q 308.87 916.57 305.67 917.10
  Q 305.22 917.17 304.71 917.03
  Q 302.60 916.42 302.44 918.13
  Q 302.30 919.68 302.51 920.37
  Q 302.96 921.87 306.32 921.17
  Q 308.35 920.75 308.56 922.82"
/>
<path stroke="#809092" vector-effect="non-scaling-stroke" d="
  M 385.34 928.42
  Q 386.67 926.53 386.73 924.00
  Q 386.95 915.62 387.01 906.00
  A 0.99 0.97 90.0 0 0 386.04 905.01
  L 379.80 905.05
  A 0.63 0.52 0.9 0 0 379.17 905.55
  L 379.02 908.38
  A 1.06 0.92 -5.7 0 0 380.31 909.29
  Q 382.75 908.76 382.58 910.71
  Q 382.50 911.71 382.50 911.80
  Q 382.51 915.90 382.73 919.99
  Q 383.24 929.77 373.42 928.74
  A 0.52 0.46 2.8 0 0 372.85 929.20
  L 372.93 932.71
  A 0.59 0.45 -3.3 0 0 373.56 933.14
  Q 374.85 933.03 377.50 933.00
  Q 380.08 932.98 382.14 931.55
  Q 384.10 930.19 385.34 928.42"
/>
<path stroke="#809da0" vector-effect="non-scaling-stroke" d="
  M 396.31 923.10
  Q 404.54 923.51 407.11 916.90
  Q 408.35 913.71 407.04 910.73
  Q 405.62 907.51 402.44 905.91
  Q 400.61 905.00 397.39 905.00
  Q 394.80 905.00 392.17 905.00
  A 0.67 0.67 0.0 0 0 391.50 905.67
  L 391.56 932.20
  A 0.86 0.82 -76.9 0 0 392.00 932.95
  Q 393.64 933.80 395.26 932.95
  A 0.90 0.81 77.5 0 0 395.69 932.18
  L 395.81 923.56
  A 0.47 0.46 1.8 0 1 396.31 923.10"
/>
<path stroke="#80d6a8" vector-effect="non-scaling-stroke" d="
  M 275.72 918.51
  Q 278.75 920.53 282.08 921.99
  Q 283.79 922.75 284.41 923.67
  Q 285.52 925.31 284.49 926.86
  Q 283.50 928.35 281.37 928.64
  Q 278.70 929.00 276.21 927.52
  Q 273.88 926.15 272.99 929.82
  A 0.88 0.88 23.3 0 0 273.37 930.77
  Q 278.04 933.76 282.72 932.66
  Q 287.18 931.61 288.87 927.61
  Q 290.56 923.62 287.33 920.09
  Q 286.14 918.78 283.61 917.69
  Q 280.22 916.23 279.56 915.69
  Q 275.76 912.57 278.49 910.32
  Q 280.11 908.98 282.30 909.38
  Q 284.19 909.73 286.21 910.92
  A 0.87 0.86 -54.6 0 0 287.30 910.73
  Q 288.94 908.77 288.50 907.74
  Q 288.27 907.18 286.46 906.33
  Q 284.31 905.31 281.50 905.25
  Q 273.30 905.08 272.99 913.00
  Q 272.85 916.59 275.72 918.51"
/>
<path stroke="#809da0" vector-effect="non-scaling-stroke" d="
  M 213.25 915.04
  Q 210.30 913.12 207.45 911.05
  Q 206.97 910.70 206.85 910.87
  A 0.64 0.19 56.7 0 0 207.02 911.44
  L 210.75 917.46"
/>
<path stroke="#80d6a8" vector-effect="non-scaling-stroke" d="
  M 210.75 917.46
  Q 206.38 918.28 201.96 918.73
  Q 201.73 918.75 201.56 918.85
  Q 200.91 919.22 202.02 919.32
  Q 206.16 919.69 210.20 920.69
  A 0.44 0.43 17.8 0 1 210.51 921.27
  Q 209.60 923.59 207.91 925.45
  Q 207.67 925.71 207.55 925.98
  Q 206.76 927.76 208.49 926.25
  Q 210.12 924.83 212.29 923.47
  A 0.80 0.80 -20.7 0 1 213.51 924.02
  L 214.75 932.01
  Q 215.01 933.70 215.25 932.01
  Q 215.71 928.68 216.19 924.96
  Q 216.21 924.82 216.16 924.04
  Q 216.12 923.37 216.75 923.21"
/>
<path stroke="#809da0" vector-effect="non-scaling-stroke" d="
  M 216.75 923.21
  Q 219.93 924.97 222.91 927.05
  Q 223.34 927.35 223.22 926.93
  Q 223.19 926.82 223.11 926.72
  Q 220.81 923.97 219.21 920.75"
/>
<path stroke="#80d6a8" vector-effect="non-scaling-stroke" d="
  M 219.21 920.75
  L 227.57 919.31
  Q 229.65 918.96 227.57 918.67
  L 220.60 917.69
  Q 218.46 917.39 219.81 915.56
  L 222.70 911.67
  Q 223.73 910.28 222.31 911.31
  L 217.68 914.69
  A 0.75 0.74 -23.2 0 1 216.50 914.23
  Q 215.79 910.14 215.06 906.03
  Q 214.86 904.89 214.69 906.33
  Q 214.18 910.72 213.25 915.04"
/>
<path stroke="#007348" vector-effect="non-scaling-stroke" d="
  M 219.21 920.75
  Q 217.10 916.97 213.25 915.04"
/>
<path stroke="#007348" vector-effect="non-scaling-stroke" d="
  M 216.75 923.21
  Q 213.15 920.97 210.75 917.46"
/>
<path stroke="#809da0" vector-effect="non-scaling-stroke" d="
  M 320.19 930.56
  Q 323.73 933.22 328.85 932.84
  Q 329.03 932.83 330.65 932.88
  Q 333.12 932.97 332.25 929.16
  A 1.13 1.12 -5.3 0 0 331.19 928.29
  Q 329.19 928.23 326.78 928.23
  Q 324.40 928.24 323.37 927.55
  Q 321.83 926.52 321.39 924.33
  A 0.73 0.71 -5.9 0 1 322.10 923.48
  L 333.81 923.34
  A 0.68 0.66 -81.9 0 0 334.45 922.84
  Q 335.56 918.75 333.81 915.44
  Q 331.38 910.81 326.76 910.45
  Q 322.52 910.11 319.52 913.02
  Q 317.18 915.28 316.76 918.71
  Q 316.37 921.94 316.78 924.80
  Q 317.28 928.38 320.19 930.56"
/>
<path stroke="#809da0" vector-effect="non-scaling-stroke" d="
  M 356.11 918.82
  A 8.24 8.24 0.0 0 0 347.87 910.58
  L 346.53 910.58
  A 8.24 8.24 0.0 0 0 338.29 918.82
  L 338.29 924.66
  A 8.24 8.24 0.0 0 0 346.53 932.90
  L 347.87 932.90
  A 8.24 8.24 0.0 0 0 356.11 924.66
  L 356.11 918.82"
/>
<path stroke="#ed8087" vector-effect="non-scaling-stroke" d="
  M 370.24 920.20
  A 3.97 3.97 0.0 0 0 366.27 916.23
  A 3.97 3.97 0.0 0 0 362.30 920.20
  A 3.97 3.97 0.0 0 0 366.27 924.17
  A 3.97 3.97 0.0 0 0 370.24 920.20"
/>
<path stroke="#809da0" vector-effect="non-scaling-stroke" d="
  M 188.39 920.92
  Q 190.49 921.94 192.18 923.25
  Q 193.51 924.29 194.34 926.46
  Q 199.09 938.84 212.85 941.02
  A 0.65 0.60 -85.2 0 0 213.54 940.39
  L 213.65 936.48
  A 0.90 0.72 -83.1 0 0 213.12 935.62
  Q 200.85 932.30 198.53 921.30
  A 0.69 0.60 84.0 0 0 197.94 920.75
  L 188.46 920.59
  Q 187.68 920.57 188.39 920.92"
/>
<path stroke="#80d6a8" vector-effect="non-scaling-stroke" d="
  M 231.35 921.42
  Q 229.05 932.96 216.87 935.56
  A 0.47 0.46 -6.2 0 0 216.50 936.01
  L 216.50 944.68
  Q 216.50 947.06 217.32 944.82
  Q 217.96 943.08 219.25 941.61
  Q 220.21 940.51 222.30 939.71
  Q 234.02 935.24 236.75 922.25
  Q 237.18 920.21 235.35 920.35
  Q 234.45 920.42 233.62 920.40
  Q 232.71 920.38 231.88 920.72
  A 0.99 0.85 86.5 0 0 231.35 921.42"
/>
<path stroke="#808080" vector-effect="non-scaling-stroke" d="
  M 268.16 634.97
  L 260.22 652.53
  A 0.33 0.33 -77.8 0 0 260.52 653.00
  L 275.94 652.94
  A 0.34 0.33 -11.3 0 0 276.26 652.48
  L 268.71 634.97
  Q 268.44 634.35 268.16 634.97"
/>
<path stroke="#808080" vector-effect="non-scaling-stroke" d="
  M 548.63 634.80
  L 540.27 652.48
  A 0.33 0.32 -76.4 0 0 540.55 652.95
  L 555.92 653.00
  A 0.61 0.60 78.1 0 0 556.47 652.15
  L 549.06 634.81
  Q 548.85 634.33 548.63 634.80"
/>
<path stroke="#808080" vector-effect="non-scaling-stroke" d="
  M 88.56 628.69
  Q 84.38 625.89 77.84 626.35
  A 1.18 1.17 -2.1 0 0 76.75 627.52
  L 76.75 643.16
  A 0.55 0.55 2.2 0 0 77.26 643.71
  Q 81.52 643.96 84.92 643.11
  Q 90.15 641.81 91.24 636.55
  Q 92.35 631.22 88.56 628.69"
/>
<path stroke="#808080" vector-effect="non-scaling-stroke" d="
  M 244.13 745.47
  A 5.47 5.47 0.0 0 0 238.66 740.00
  A 5.47 5.47 0.0 0 0 233.19 745.47
  A 5.47 5.47 0.0 0 0 238.66 750.94
  A 5.47 5.47 0.0 0 0 244.13 745.47"
/>
<path stroke="#d3d5d4" vector-effect="non-scaling-stroke" d="
  M 390.2364 858.8100
  A 3.65 1.10 89.9 0 0 391.3300 855.1581
  A 3.65 1.10 89.9 0 0 390.2236 851.5100
  A 3.65 1.10 89.9 0 0 389.1300 855.1619
  A 3.65 1.10 89.9 0 0 390.2364 858.8100"
/>
<path stroke="#d3d5d4" vector-effect="non-scaling-stroke" d="
  M 404.9244 858.9199
  A 3.67 1.08 90.4 0 0 406.0300 855.2575
  A 3.67 1.08 90.4 0 0 404.9756 851.5801
  A 3.67 1.08 90.4 0 0 403.8700 855.2425
  A 3.67 1.08 90.4 0 0 404.9244 858.9199"
/>
<path stroke="#d3d5d4" vector-effect="non-scaling-stroke" d="
  M 339.2304 859.0099
  A 3.75 1.10 90.3 0 0 340.3500 855.2658
  A 3.75 1.10 90.3 0 0 339.2696 851.5101
  A 3.75 1.10 90.3 0 0 338.1500 855.2542
  A 3.75 1.10 90.3 0 0 339.2304 859.0099"
/>
<path stroke="#d3d5d4" vector-effect="non-scaling-stroke" d="
  M 350.19 852.73
  A 0.92 0.92 0.0 0 0 349.27 851.81
  L 349.17 851.81
  A 0.92 0.92 0.0 0 0 348.25 852.73
  L 348.25 857.83
  A 0.92 0.92 0.0 0 0 349.17 858.75
  L 349.27 858.75
  A 0.92 0.92 0.0 0 0 350.19 857.83
  L 350.19 852.73"
/>
<path stroke="#d3d5d4" vector-effect="non-scaling-stroke" d="
  M 358.7800 858.9700
  A 3.72 1.08 90.0 0 0 359.8600 855.2500
  A 3.72 1.08 90.0 0 0 358.7800 851.5300
  A 3.72 1.08 90.0 0 0 357.7000 855.2500
  A 3.72 1.08 90.0 0 0 358.7800 858.9700"
/>
<path stroke="#d3d5d4" vector-effect="non-scaling-stroke" d="
  M 381.73 852.99
  A 1.08 1.08 0.0 0 0 380.65 851.91
  A 1.08 1.08 0.0 0 0 379.57 852.99
  A 1.08 1.08 0.0 0 0 380.65 854.07
  A 1.08 1.08 0.0 0 0 381.73 852.99"
/>
<path stroke="#bcd4ed" vector-effect="non-scaling-stroke" d="
  M 534.9553 895.7109
  A 7.33 3.99 -27.1 0 0 526.6124 895.4981
  A 7.33 3.99 -27.1 0 0 521.9047 902.3891
  A 7.33 3.99 -27.1 0 0 530.2476 902.6019
  A 7.33 3.99 -27.1 0 0 534.9553 895.7109"
/>
<path stroke="#bcd4ed" vector-effect="non-scaling-stroke" d="
  M 514.3468 909.1736
  A 26.76 19.28 -19.1 0 0 482.7512 899.7114
  A 26.76 19.28 -19.1 0 0 463.7732 926.6864
  A 26.76 19.28 -19.1 0 0 495.3688 936.1486
  A 26.76 19.28 -19.1 0 0 514.3468 909.1736"
/>
<path stroke="#80d6a8" vector-effect="non-scaling-stroke" d="
  M 264.67 914.68
  A 5.09 5.09 0.0 0 0 259.58 909.59
  L 258.94 909.59
  A 5.09 5.09 0.0 0 0 253.85 914.68
  L 253.85 923.36
  A 5.09 5.09 0.0 0 0 258.94 928.45
  L 259.58 928.45
  A 5.09 5.09 0.0 0 0 264.67 923.36
  L 264.67 914.68"
/>
<path stroke="#809da0" vector-effect="non-scaling-stroke" d="
  M 396.43 918.33
  Q 400.02 919.34 402.50 916.75
  Q 404.32 914.85 403.34 912.57
  Q 402.54 910.72 400.67 909.93
  Q 398.79 909.15 396.39 909.56
  A 0.83 0.79 84.6 0 0 395.74 910.38
  L 395.83 917.87
  A 0.40 0.39 -83.7 0 0 396.13 918.26
  Q 396.28 918.29 396.43 918.33"
/>
<path stroke="#809da0" vector-effect="non-scaling-stroke" d="
  M 327.78 915.50
  Q 324.33 913.67 321.75 917.25
  Q 320.15 919.47 322.85 919.47
  L 329.52 919.50
  A 0.72 0.71 82.7 0 0 330.20 918.60
  Q 329.64 916.49 327.78 915.50"
/>
<path stroke="#809da0" vector-effect="non-scaling-stroke" d="
  M 351.4593 918.9553
  A 4.05 4.05 0.0 0 0 347.4519 914.8631
  L 346.9320 914.8577
  A 4.05 4.05 0.0 0 0 342.8398 918.8650
  L 342.7807 924.5047
  A 4.05 4.05 0.0 0 0 346.7881 928.5969
  L 347.3080 928.6023
  A 4.05 4.05 0.0 0 0 351.4002 924.5950
  L 351.4593 918.9553"
/>
<path stroke="#809da0" vector-effect="non-scaling-stroke" d="
  M 216.03 919.03
  A 1.09 1.09 0.0 0 0 214.94 917.94
  A 1.09 1.09 0.0 0 0 213.85 919.03
  A 1.09 1.09 0.0 0 0 214.94 920.12
  A 1.09 1.09 0.0 0 0 216.03 919.03"
/>
</g>
<path fill="#ffffff" d="
  M 0.00 0.00
  L 746.00 0.00
  L 746.00 1034.00
  L 0.00 1034.00
  L 0.00 0.00
  Z
  M 189.78 140.30
  Q 192.71 142.60 195.22 144.05
  Q 276.35 190.93 357.55 237.66
  Q 358.86 238.41 360.06 238.92
  A 0.68 0.68 -78.6 0 0 361.00 238.29
  L 360.94 42.30
  A 1.03 1.03 75.0 0 0 359.40 41.41
  L 189.85 139.34
  A 0.58 0.58 -40.9 0 0 189.78 140.30
  Z
  M 389.13 256.15
  Q 421.56 275.06 453.54 293.10
  A 0.81 0.81 -75.4 0 0 454.75 292.39
  L 455.01 192.27
  A 1.80 1.78 -15.3 0 1 455.90 190.73
  L 542.20 140.68
  A 0.79 0.79 0.0 0 0 542.20 139.32
  Q 461.52 92.56 380.83 45.87
  Q 376.84 43.56 372.33 41.39
  A 0.93 0.93 -77.2 0 0 371.00 42.23
  L 371.00 244.04
  A 2.68 2.65 -74.9 0 0 372.31 246.34
  Q 380.60 251.18 389.13 256.15
  Z
  M 548.20 150.39
  Q 548.27 150.16 548.22 149.93
  A 0.46 0.37 -23.1 0 0 547.57 149.75
  L 466.07 196.78
  A 1.66 1.66 -15.2 0 0 465.25 198.21
  L 465.31 299.20
  A 0.87 0.84 15.3 0 0 465.75 299.94
  L 547.80 347.38
  Q 548.25 347.64 548.25 347.12
  Q 548.25 250.13 548.25 153.75
  Q 548.25 152.05 548.09 151.17
  Q 548.04 150.86 548.20 150.39
  Z
  M 255.26 190.79
  Q 219.85 170.34 184.56 149.69
  A 0.37 0.37 20.8 0 0 184.01 149.93
  Q 183.63 151.86 183.63 153.75
  Q 183.75 251.13 183.75 348.50
  Q 183.75 351.93 184.18 353.70
  A 1.21 1.10 10.1 0 0 184.75 354.44
  L 547.80 564.32
  Q 548.25 564.58 548.25 564.06
  L 548.25 361.20
  A 1.96 1.94 -75.1 0 0 547.28 359.51
  Q 401.12 275.01 255.26 190.79
  Z
  M 280.40 661.76
  L 285.88 674.23
  A 0.94 0.87 82.0 0 0 286.55 674.78
  Q 290.78 675.49 294.95 674.55
  A 0.42 0.41 71.5 0 0 295.23 673.97
  L 269.21 615.46
  Q 269.00 614.99 268.78 615.45
  L 240.96 674.05
  A 0.37 0.35 -75.3 0 0 241.25 674.57
  L 248.82 675.00
  A 1.87 1.67 -74.9 0 0 250.49 673.91
  L 256.07 661.85
  A 1.05 1.04 12.4 0 1 257.02 661.25
  L 279.69 661.31
  A 0.79 0.76 -11.5 0 1 280.40 661.76
  Z
  M 560.65 661.77
  L 565.95 673.65
  A 2.14 1.78 74.6 0 0 567.78 674.92
  L 575.26 674.60
  A 0.40 0.36 76.0 0 0 575.55 674.05
  L 549.36 615.37
  Q 549.09 614.76 548.80 615.36
  L 521.28 673.98
  A 0.40 0.39 -71.3 0 0 521.55 674.54
  Q 525.72 675.37 529.94 674.76
  A 0.92 0.91 -81.5 0 0 530.64 674.24
  L 536.29 661.72
  A 0.80 0.79 11.9 0 1 537.02 661.25
  L 559.94 661.31
  A 0.79 0.78 77.6 0 1 560.65 661.77
  Z
  M 629.44 671.31
  Q 633.21 674.42 637.42 675.37
  Q 648.03 677.76 655.88 671.91
  Q 659.89 668.92 661.93 664.58
  Q 664.00 660.15 664.00 655.00
  Q 664.00 638.13 664.00 619.67
  A 1.89 1.72 -0.2 0 0 662.10 617.95
  L 656.40 617.98
  A 0.90 0.86 0.3 0 0 655.50 618.83
  Q 655.35 632.24 655.27 645.92
  Q 655.27 646.04 655.34 652.08
  Q 655.40 657.13 654.75 659.00
  Q 652.00 666.87 644.49 667.72
  Q 640.84 668.13 637.69 666.63
  Q 634.19 664.96 632.45 661.64
  Q 631.02 658.91 630.94 652.10
  Q 630.72 635.42 630.51 618.75
  A 0.56 0.50 88.9 0 0 630.00 618.20
  L 622.48 618.34
  A 0.54 0.49 89.5 0 0 622.00 618.88
  Q 622.00 634.14 622.00 649.52
  Q 622.00 649.59 621.93 652.49
  Q 621.77 658.57 624.06 664.23
  Q 625.67 668.21 629.44 671.31
  Z
  M 77.31 651.85
  Q 83.73 652.22 88.50 650.75
  Q 95.20 648.68 98.04 642.94
  Q 100.61 637.78 99.73 631.80
  Q 98.79 625.41 93.44 621.56
  Q 88.68 618.14 81.54 618.19
  Q 78.03 618.21 77.97 618.21
  Q 73.35 618.12 68.74 618.24
  A 0.51 0.51 90.0 0 0 68.24 618.74
  Q 67.68 646.41 68.18 674.07
  A 0.67 0.66 -83.0 0 0 68.67 674.70
  Q 70.93 675.28 73.23 674.94
  Q 73.63 674.89 75.27 674.91
  Q 76.96 674.94 76.69 672.81
  Q 75.88 666.49 76.78 652.31
  A 0.50 0.49 3.5 0 1 77.31 651.85
  Z
  M 168.81 665.95
  L 168.75 618.90
  A 1.02 0.95 -1.2 0 0 167.69 617.95
  L 160.87 618.23
  A 0.91 0.85 -1.4 0 0 160.00 619.08
  L 160.00 673.93
  A 0.84 0.81 -89.7 0 0 160.80 674.77
  L 184.81 674.83
  A 0.54 0.53 1.1 0 0 185.35 674.32
  L 185.57 667.43
  A 0.52 0.48 2.3 0 0 185.07 666.93
  L 169.32 666.46
  A 0.52 0.51 0.6 0 1 168.81 665.95
  Z
  M 355.18 626.36
  Q 356.50 626.43 357.82 626.44
  A 0.50 0.49 0.0 0 1 358.32 626.93
  L 358.32 674.19
  A 0.54 0.49 -90.0 0 0 358.81 674.73
  L 366.33 674.78
  A 1.01 0.92 -89.7 0 0 367.26 673.77
  L 367.19 627.18
  A 0.57 0.54 -4.1 0 1 367.69 626.63
  Q 373.56 626.00 379.44 626.40
  A 0.52 0.47 2.3 0 0 380.00 625.94
  L 380.00 618.55
  A 0.56 0.48 0.0 0 0 379.44 618.07
  L 346.24 618.01
  A 0.56 0.56 3.4 0 0 345.68 618.50
  Q 345.15 622.23 345.73 625.94
  A 0.56 0.55 83.7 0 0 346.31 626.41
  Q 350.74 626.13 355.18 626.36
  Z
  M 448.56 640.20
  L 448.50 626.75
  A 0.50 0.50 -45.0 0 1 449.00 626.25
  L 469.99 626.32
  A 0.89 0.89 2.8 0 0 470.89 625.51
  Q 471.25 621.43 470.56 618.54
  A 0.64 0.61 -6.2 0 0 469.94 618.07
  L 440.26 618.06
  A 0.51 0.50 -0.0 0 0 439.75 618.56
  L 439.75 674.20
  A 0.54 0.54 1.1 0 0 440.27 674.74
  Q 455.37 675.35 470.25 674.77
  A 0.58 0.53 -0.6 0 0 470.81 674.25
  L 470.96 667.26
  A 0.54 0.50 0.5 0 0 470.42 666.75
  L 449.40 666.75
  A 0.87 0.85 0.3 0 1 448.53 665.89
  L 448.67 649.44
  A 0.52 0.52 -90.0 0 1 449.19 648.92
  L 469.70 648.92
  A 0.51 0.49 0.6 0 0 470.21 648.44
  L 470.32 641.19
  A 0.52 0.49 0.0 0 0 469.80 640.70
  L 449.06 640.70
  A 0.50 0.50 45.0 0 1 448.56 640.20
  Z
  M 234.50 755.30
  Q 242.74 759.74 247.91 754.42
  Q 251.36 750.86 251.61 745.67
  Q 251.89 739.86 247.35 736.19
  Q 244.38 733.79 241.05 733.66
  Q 237.29 733.50 234.19 736.11
  Q 233.80 736.44 233.79 735.94
  L 233.43 720.82
  A 0.53 0.49 89.4 0 0 232.94 720.30
  L 227.23 720.25
  A 0.98 0.97 -89.7 0 0 226.25 721.23
  L 226.31 755.93
  A 0.64 0.61 -84.5 0 0 226.80 756.55
  Q 227.86 756.78 228.94 756.80
  Q 231.46 756.85 231.56 756.84
  Q 232.97 756.71 233.80 755.49
  A 0.56 0.53 -58.9 0 1 234.50 755.30
  Z
  M 372.19 737.84
  L 374.75 755.76
  A 0.92 0.85 -2.5 0 0 375.62 756.49
  L 380.88 756.70
  A 1.39 1.26 -3.0 0 0 382.32 755.25
  L 377.39 724.08
  A 0.68 0.67 87.2 0 0 376.78 723.52
  L 372.20 723.22
  A 1.54 1.50 12.8 0 0 370.69 724.14
  L 363.17 742.48
  Q 362.89 743.16 362.62 742.51
  L 354.87 724.15
  A 0.91 0.75 77.8 0 0 354.18 723.60
  L 348.89 723.26
  A 0.95 0.89 -83.3 0 0 347.95 724.06
  L 342.89 755.95
  A 0.43 0.43 -85.4 0 0 343.31 756.45
  L 349.81 756.50
  A 0.61 0.59 3.2 0 0 350.41 755.98
  L 352.63 738.05
  Q 352.78 736.87 353.25 737.94
  Q 356.90 746.18 360.28 753.96
  Q 361.01 755.65 361.59 756.27
  Q 363.32 758.13 364.80 754.77
  Q 368.51 746.38 371.82 737.80
  Q 372.09 737.10 372.19 737.84
  Z
  M 416.06 749.43
  L 416.00 724.16
  A 0.91 0.91 0.1 0 0 415.09 723.25
  L 409.13 723.25
  A 0.88 0.88 0.0 0 0 408.25 724.13
  L 408.25 756.13
  A 0.43 0.42 0.0 0 0 408.68 756.55
  L 425.48 756.72
  A 0.77 0.72 -0.4 0 0 426.25 755.99
  L 426.20 750.57
  A 0.51 0.51 90.0 0 0 425.69 750.06
  L 416.57 749.94
  A 0.51 0.51 90.0 0 1 416.06 749.43
  Z
  M 460.0283 723.6966
  A 0.42 0.42 0.0 0 0 459.6090 723.2759
  L 452.9290 723.2642
  A 0.42 0.42 0.0 0 0 452.5083 723.6835
  L 452.4517 756.1034
  A 0.42 0.42 0.0 0 0 452.8710 756.5241
  L 459.5510 756.5358
  A 0.42 0.42 0.0 0 0 459.9717 756.1165
  L 460.0283 723.6966
  Z
  M 493.19 730.32
  L 493.25 755.84
  A 0.66 0.65 90.0 0 0 493.90 756.50
  L 500.58 756.50
  A 0.67 0.67 0.0 0 0 501.25 755.83
  L 501.25 730.45
  A 0.89 0.77 1.4 0 1 502.18 729.69
  L 507.31 729.89
  A 0.75 0.59 -80.3 0 0 507.94 729.32
  Q 508.64 726.60 508.23 724.53
  A 1.59 1.58 -5.5 0 0 506.67 723.25
  L 486.91 723.25
  A 0.66 0.66 -0.0 0 0 486.25 723.91
  L 486.25 729.06
  A 0.92 0.86 89.4 0 0 487.13 729.98
  L 492.70 729.86
  A 0.48 0.46 -0.6 0 1 493.19 730.32
  Z
  M 281.71 745.75
  L 276.07 735.21
  A 1.34 1.28 75.8 0 0 274.94 734.50
  L 268.00 734.50
  A 0.31 0.30 -13.4 0 0 267.72 734.94
  L 277.28 752.94
  A 1.79 1.57 47.6 0 1 277.31 754.58
  L 270.55 766.53
  A 0.69 0.66 -69.2 0 0 270.97 767.53
  Q 274.99 768.38 278.07 767.69
  A 1.18 1.06 -80.5 0 0 278.80 767.11
  L 295.61 735.14
  A 0.34 0.30 -73.1 0 0 295.39 734.65
  L 288.93 734.33
  A 1.59 1.46 -74.6 0 0 287.50 735.23
  L 282.43 745.70
  Q 282.07 746.44 281.71 745.75
  Z
  M 554.98 812.95
  A 0.95 0.95 0.0 0 0 554.03 812.00
  L 178.95 812.00
  A 0.95 0.95 0.0 0 0 178.00 812.95
  L 178.00 813.05
  A 0.95 0.95 0.0 0 0 178.95 814.00
  L 554.03 814.00
  A 0.95 0.95 0.0 0 0 554.98 813.05
  L 554.98 812.95
  Z
  M 320.26 847.30
  Q 320.74 849.78 323.23 848.88
  A 0.86 0.85 83.6 0 0 323.77 848.20
  Q 324.22 844.64 321.00 843.50
  Q 318.53 842.63 316.70 843.91
  Q 315.19 844.97 314.77 847.23
  Q 313.83 852.28 319.24 854.08
  Q 321.20 854.73 320.69 856.74
  Q 319.53 861.25 317.70 857.21
  A 1.37 0.95 81.7 0 0 317.06 856.53
  Q 316.04 856.11 314.96 856.53
  A 0.73 0.69 77.3 0 0 314.53 857.25
  Q 314.97 862.47 319.81 862.00
  Q 321.43 861.84 322.43 860.86
  Q 323.57 859.74 323.79 858.14
  Q 324.04 856.30 323.79 854.36
  Q 323.48 851.91 321.00 851.25
  Q 317.21 850.24 318.14 847.29
  A 1.14 0.92 -87.4 0 1 318.76 846.59
  Q 319.25 846.43 319.75 846.60
  A 0.97 0.67 88.7 0 1 320.26 847.30
  Z
  M 390.69 848.57
  Q 386.39 847.62 386.17 851.52
  Q 386.05 853.60 386.03 853.84
  Q 385.85 855.65 386.08 857.45
  Q 386.09 857.55 386.19 859.57
  Q 386.30 861.93 389.00 861.97
  Q 390.50 862.00 393.02 862.00
  A 1.53 1.51 89.4 0 0 394.53 860.44
  L 394.19 843.82
  A 0.56 0.45 87.1 0 0 393.69 843.26
  L 392.97 843.35
  Q 392.43 843.41 392.05 843.29
  Q 391.22 843.04 391.25 844.25
  Q 391.29 846.22 391.21 848.18
  A 0.44 0.42 7.0 0 1 390.69 848.57
  Z
  M 400.92 861.74
  Q 402.57 862.17 404.02 861.87
  Q 404.50 861.77 404.97 861.92
  Q 406.71 862.45 407.88 861.51
  Q 408.74 860.83 408.87 859.15
  Q 409.15 855.71 409.00 852.25
  Q 408.86 849.04 406.49 848.36
  A 1.58 1.06 -39.8 0 0 405.55 848.46
  Q 403.06 849.52 403.77 846.25
  Q 404.55 842.66 401.30 843.21
  A 0.62 0.61 85.0 0 0 400.80 843.82
  L 400.81 861.60
  A 0.15 0.14 7.9 0 0 400.92 861.74
  Z
  M 371.45 852.06
  Q 371.53 855.04 371.51 858.02
  Q 371.50 859.95 372.18 860.81
  Q 373.24 862.17 375.26 861.85
  A 0.85 0.81 3.6 0 0 375.94 861.28
  Q 376.29 860.15 375.69 859.06
  Q 374.49 856.93 374.50 856.25
  L 374.54 851.81
  A 0.70 0.62 -8.2 0 1 375.05 851.21
  Q 376.57 850.78 376.11 849.28
  A 1.54 0.85 21.4 0 0 375.50 848.55
  Q 373.99 847.52 374.38 845.49
  A 0.58 0.53 -76.2 0 0 374.02 844.84
  Q 370.83 843.91 371.40 847.25
  A 0.78 0.68 71.3 0 1 371.08 848.02
  Q 368.69 849.42 366.17 848.56
  A 1.43 1.40 -80.7 0 0 364.31 849.92
  L 364.33 861.18
  A 0.74 0.65 -81.8 0 0 364.78 861.86
  Q 368.24 863.07 367.50 859.25
  Q 367.20 857.71 367.59 854.46
  Q 367.77 852.94 368.46 852.27
  Q 369.42 851.34 370.95 851.49
  A 0.59 0.56 -87.8 0 1 371.45 852.06
  Z
  M 327.07 861.68
  L 332.51 861.99
  A 0.98 0.93 -88.3 0 0 333.50 861.01
  L 333.45 849.30
  A 0.73 0.71 -81.4 0 0 332.97 848.63
  Q 330.14 847.65 330.19 850.75
  Q 330.25 853.98 330.25 857.20
  Q 330.25 857.86 330.04 858.25
  Q 329.59 859.11 328.87 858.59
  A 1.32 0.91 -82.5 0 1 328.44 857.75
  Q 327.96 853.48 328.25 851.00
  Q 328.64 847.59 325.78 848.62
  A 0.74 0.74 -10.3 0 0 325.30 849.31
  L 325.25 859.51
  Q 325.24 861.57 327.07 861.68
  Z
  M 338.79 861.97
  Q 340.73 862.52 342.11 861.55
  Q 343.23 860.76 343.27 858.88
  Q 343.32 856.74 343.25 852.25
  Q 343.18 848.07 339.73 848.54
  Q 338.73 848.68 337.75 848.57
  Q 336.73 848.46 335.74 848.65
  A 0.66 0.63 87.9 0 0 335.21 849.25
  Q 334.65 857.25 335.25 865.25
  A 2.30 1.09 88.7 0 0 336.25 867.25
  Q 338.81 867.81 338.25 865.25
  Q 338.14 864.75 338.28 862.31
  A 0.40 0.38 10.2 0 1 338.79 861.97
  Z
  M 348.98 861.76
  Q 353.13 862.75 353.19 858.75
  Q 353.25 855.12 353.07 851.51
  Q 352.90 848.17 350.07 848.52
  Q 348.70 848.68 347.91 848.62
  Q 346.79 848.54 345.69 848.63
  A 0.60 0.58 88.4 0 0 345.17 849.20
  Q 344.88 856.73 344.99 864.27
  Q 344.99 864.38 344.89 865.71
  Q 344.73 867.82 347.23 867.25
  A 0.88 0.85 -3.9 0 0 347.91 866.50
  L 348.30 862.27
  A 0.56 0.55 -81.2 0 1 348.98 861.76
  Z
  M 362.9652 852.2972
  A 3.77 3.77 0.0 0 0 359.2018 848.5206
  L 358.5218 848.5194
  A 3.77 3.77 0.0 0 0 354.7452 852.2828
  L 354.7348 858.2228
  A 3.77 3.77 0.0 0 0 358.4982 861.9994
  L 359.1782 862.0006
  A 3.77 3.77 0.0 0 0 362.9548 858.2372
  L 362.9652 852.2972
  Z
  M 380.04 856.67
  L 383.02 856.53
  A 1.55 1.29 -1.6 0 0 384.50 855.23
  Q 384.50 853.75 384.26 851.78
  Q 383.84 848.41 380.32 848.63
  Q 376.11 848.91 376.53 853.62
  Q 376.73 855.78 376.40 857.92
  Q 376.18 859.31 377.14 860.52
  Q 377.94 861.53 379.29 861.86
  Q 381.85 862.48 383.66 860.57
  Q 384.26 859.93 384.36 859.13
  Q 384.55 857.50 382.95 857.80
  Q 382.56 857.87 381.31 858.60
  Q 379.70 859.55 379.57 857.31
  A 0.62 0.51 86.9 0 1 380.04 856.67
  Z
  M 413.68 853.50
  Q 413.54 852.27 413.03 849.89
  Q 412.61 847.93 409.82 848.68
  A 0.53 0.53 -15.1 0 0 409.45 849.32
  L 412.64 860.93
  Q 413.27 863.21 411.06 864.00
  Q 409.52 864.55 410.36 866.72
  A 0.75 0.74 78.7 0 0 411.07 867.20
  Q 414.35 867.14 415.25 863.50
  Q 416.95 856.62 418.63 849.74
  A 0.83 0.72 -66.1 0 0 418.38 848.92
  Q 417.31 848.09 416.02 848.60
  A 1.03 0.87 88.5 0 0 415.45 849.31
  L 414.49 853.55
  Q 413.95 855.92 413.68 853.50
  Z
  M 514.62 897.94
  Q 508.29 892.83 501.75 891.75
  Q 479.64 888.10 464.47 903.59
  Q 461.06 907.07 459.31 910.52
  Q 457.29 914.50 456.67 918.90
  Q 455.77 925.36 458.57 931.26
  Q 463.10 940.81 474.00 943.50
  Q 495.16 948.72 511.95 933.95
  Q 522.34 924.81 521.71 910.93
  A 0.44 0.43 1.8 0 1 522.19 910.49
  Q 532.16 911.48 538.19 904.80
  Q 541.21 901.45 541.64 897.37
  Q 542.21 891.80 537.78 889.22
  Q 533.42 886.68 527.45 888.12
  Q 519.50 890.03 515.24 897.81
  A 0.42 0.41 -56.3 0 1 514.62 897.94
  Z
  M 197.74 917.63
  A 0.77 0.71 5.7 0 0 198.51 917.05
  Q 200.68 904.97 212.95 902.53
  A 0.66 0.59 -6.6 0 0 213.47 901.94
  L 213.30 892.75
  Q 213.29 892.19 212.99 892.68
  Q 212.61 893.29 212.25 893.91
  Q 212.15 894.07 211.42 895.65
  Q 210.56 897.50 208.60 898.12
  Q 207.13 898.59 207.06 898.62
  Q 195.48 903.45 193.17 916.43
  A 0.98 0.92 5.4 0 0 194.12 917.51
  L 197.74 917.63
  Z
  M 236.67 913.96
  Q 232.13 899.63 217.31 897.14
  A 0.53 0.44 6.0 0 0 216.70 897.55
  L 216.60 902.06
  A 0.70 0.55 7.3 0 0 217.18 902.65
  Q 228.56 904.92 231.48 917.24
  A 0.68 0.66 82.6 0 0 232.12 917.75
  L 241.45 917.69
  Q 243.05 917.68 241.61 916.93
  L 237.25 914.68
  A 1.27 1.06 -89.0 0 1 236.67 913.96
  Z
  M 269.1441 914.4517
  A 9.19 9.19 0.0 0 0 260.0024 905.2137
  L 258.6624 905.2067
  A 9.19 9.19 0.0 0 0 249.4244 914.3484
  L 249.3759 923.6083
  A 9.19 9.19 0.0 0 0 258.5176 932.8463
  L 259.8576 932.8533
  A 9.19 9.19 0.0 0 0 269.0956 923.7116
  L 269.1441 914.4517
  Z
  M 308.56 922.82
  Q 308.74 924.56 307.40 926.35
  Q 306.27 927.85 304.50 928.34
  Q 301.40 929.20 299.35 927.01
  Q 297.96 925.52 297.62 922.59
  Q 297.26 919.44 297.54 916.30
  Q 297.87 912.73 299.47 911.00
  Q 301.90 908.37 305.95 910.12
  Q 306.02 910.15 307.37 911.12
  Q 308.89 912.21 310.58 909.35
  A 1.27 1.27 -54.6 0 0 310.31 907.74
  Q 306.04 904.17 300.97 905.31
  Q 297.05 906.19 295.06 909.20
  Q 293.14 912.10 293.00 916.50
  Q 292.77 923.71 293.25 925.25
  Q 295.36 932.04 301.41 932.81
  Q 305.55 933.34 308.73 931.17
  Q 312.22 928.79 312.75 924.00
  Q 313.04 921.38 312.52 918.05
  A 0.78 0.77 -87.2 0 0 311.96 917.42
  Q 308.87 916.57 305.67 917.10
  Q 305.22 917.17 304.71 917.03
  Q 302.60 916.42 302.44 918.13
  Q 302.30 919.68 302.51 920.37
  Q 302.96 921.87 306.32 921.17
  Q 308.35 920.75 308.56 922.82
  Z
  M 385.34 928.42
  Q 386.67 926.53 386.73 924.00
  Q 386.95 915.62 387.01 906.00
  A 0.99 0.97 90.0 0 0 386.04 905.01
  L 379.80 905.05
  A 0.63 0.52 0.9 0 0 379.17 905.55
  L 379.02 908.38
  A 1.06 0.92 -5.7 0 0 380.31 909.29
  Q 382.75 908.76 382.58 910.71
  Q 382.50 911.71 382.50 911.80
  Q 382.51 915.90 382.73 919.99
  Q 383.24 929.77 373.42 928.74
  A 0.52 0.46 2.8 0 0 372.85 929.20
  L 372.93 932.71
  A 0.59 0.45 -3.3 0 0 373.56 933.14
  Q 374.85 933.03 377.50 933.00
  Q 380.08 932.98 382.14 931.55
  Q 384.10 930.19 385.34 928.42
  Z
  M 396.31 923.10
  Q 404.54 923.51 407.11 916.90
  Q 408.35 913.71 407.04 910.73
  Q 405.62 907.51 402.44 905.91
  Q 400.61 905.00 397.39 905.00
  Q 394.80 905.00 392.17 905.00
  A 0.67 0.67 0.0 0 0 391.50 905.67
  L 391.56 932.20
  A 0.86 0.82 -76.9 0 0 392.00 932.95
  Q 393.64 933.80 395.26 932.95
  A 0.90 0.81 77.5 0 0 395.69 932.18
  L 395.81 923.56
  A 0.47 0.46 1.8 0 1 396.31 923.10
  Z
  M 275.72 918.51
  Q 278.75 920.53 282.08 921.99
  Q 283.79 922.75 284.41 923.67
  Q 285.52 925.31 284.49 926.86
  Q 283.50 928.35 281.37 928.64
  Q 278.70 929.00 276.21 927.52
  Q 273.88 926.15 272.99 929.82
  A 0.88 0.88 23.3 0 0 273.37 930.77
  Q 278.04 933.76 282.72 932.66
  Q 287.18 931.61 288.87 927.61
  Q 290.56 923.62 287.33 920.09
  Q 286.14 918.78 283.61 917.69
  Q 280.22 916.23 279.56 915.69
  Q 275.76 912.57 278.49 910.32
  Q 280.11 908.98 282.30 909.38
  Q 284.19 909.73 286.21 910.92
  A 0.87 0.86 -54.6 0 0 287.30 910.73
  Q 288.94 908.77 288.50 907.74
  Q 288.27 907.18 286.46 906.33
  Q 284.31 905.31 281.50 905.25
  Q 273.30 905.08 272.99 913.00
  Q 272.85 916.59 275.72 918.51
  Z
  M 213.25 915.04
  Q 210.30 913.12 207.45 911.05
  Q 206.97 910.70 206.85 910.87
  A 0.64 0.19 56.7 0 0 207.02 911.44
  L 210.75 917.46
  Q 206.38 918.28 201.96 918.73
  Q 201.73 918.75 201.56 918.85
  Q 200.91 919.22 202.02 919.32
  Q 206.16 919.69 210.20 920.69
  A 0.44 0.43 17.8 0 1 210.51 921.27
  Q 209.60 923.59 207.91 925.45
  Q 207.67 925.71 207.55 925.98
  Q 206.76 927.76 208.49 926.25
  Q 210.12 924.83 212.29 923.47
  A 0.80 0.80 -20.7 0 1 213.51 924.02
  L 214.75 932.01
  Q 215.01 933.70 215.25 932.01
  Q 215.71 928.68 216.19 924.96
  Q 216.21 924.82 216.16 924.04
  Q 216.12 923.37 216.75 923.21
  Q 219.93 924.97 222.91 927.05
  Q 223.34 927.35 223.22 926.93
  Q 223.19 926.82 223.11 926.72
  Q 220.81 923.97 219.21 920.75
  L 227.57 919.31
  Q 229.65 918.96 227.57 918.67
  L 220.60 917.69
  Q 218.46 917.39 219.81 915.56
  L 222.70 911.67
  Q 223.73 910.28 222.31 911.31
  L 217.68 914.69
  A 0.75 0.74 -23.2 0 1 216.50 914.23
  Q 215.79 910.14 215.06 906.03
  Q 214.86 904.89 214.69 906.33
  Q 214.18 910.72 213.25 915.04
  Z
  M 320.19 930.56
  Q 323.73 933.22 328.85 932.84
  Q 329.03 932.83 330.65 932.88
  Q 333.12 932.97 332.25 929.16
  A 1.13 1.12 -5.3 0 0 331.19 928.29
  Q 329.19 928.23 326.78 928.23
  Q 324.40 928.24 323.37 927.55
  Q 321.83 926.52 321.39 924.33
  A 0.73 0.71 -5.9 0 1 322.10 923.48
  L 333.81 923.34
  A 0.68 0.66 -81.9 0 0 334.45 922.84
  Q 335.56 918.75 333.81 915.44
  Q 331.38 910.81 326.76 910.45
  Q 322.52 910.11 319.52 913.02
  Q 317.18 915.28 316.76 918.71
  Q 316.37 921.94 316.78 924.80
  Q 317.28 928.38 320.19 930.56
  Z
  M 356.11 918.82
  A 8.24 8.24 0.0 0 0 347.87 910.58
  L 346.53 910.58
  A 8.24 8.24 0.0 0 0 338.29 918.82
  L 338.29 924.66
  A 8.24 8.24 0.0 0 0 346.53 932.90
  L 347.87 932.90
  A 8.24 8.24 0.0 0 0 356.11 924.66
  L 356.11 918.82
  Z
  M 370.24 920.20
  A 3.97 3.97 0.0 0 0 366.27 916.23
  A 3.97 3.97 0.0 0 0 362.30 920.20
  A 3.97 3.97 0.0 0 0 366.27 924.17
  A 3.97 3.97 0.0 0 0 370.24 920.20
  Z
  M 188.39 920.92
  Q 190.49 921.94 192.18 923.25
  Q 193.51 924.29 194.34 926.46
  Q 199.09 938.84 212.85 941.02
  A 0.65 0.60 -85.2 0 0 213.54 940.39
  L 213.65 936.48
  A 0.90 0.72 -83.1 0 0 213.12 935.62
  Q 200.85 932.30 198.53 921.30
  A 0.69 0.60 84.0 0 0 197.94 920.75
  L 188.46 920.59
  Q 187.68 920.57 188.39 920.92
  Z
  M 231.35 921.42
  Q 229.05 932.96 216.87 935.56
  A 0.47 0.46 -6.2 0 0 216.50 936.01
  L 216.50 944.68
  Q 216.50 947.06 217.32 944.82
  Q 217.96 943.08 219.25 941.61
  Q 220.21 940.51 222.30 939.71
  Q 234.02 935.24 236.75 922.25
  Q 237.18 920.21 235.35 920.35
  Q 234.45 920.42 233.62 920.40
  Q 232.71 920.38 231.88 920.72
  A 0.99 0.85 86.5 0 0 231.35 921.42
  Z"
/>
<path fill="#00c2c0" d="
  M 189.78 140.30
  A 0.58 0.58 -40.9 0 1 189.85 139.34
  L 359.40 41.41
  A 1.03 1.03 75.0 0 1 360.94 42.30
  L 361.00 238.29
  A 0.68 0.68 -78.6 0 1 360.06 238.92
  Q 358.86 238.41 357.55 237.66
  Q 276.35 190.93 195.22 144.05
  Q 192.71 142.60 189.78 140.30
  Z"
/>
<path fill="#00c2c0" d="
  M 389.13 256.15
  Q 380.60 251.18 372.31 246.34
  A 2.68 2.65 -74.9 0 1 371.00 244.04
  L 371.00 42.23
  A 0.93 0.93 -77.2 0 1 372.33 41.39
  Q 376.84 43.56 380.83 45.87
  Q 461.52 92.56 542.20 139.32
  A 0.79 0.79 -0.0 0 1 542.20 140.68
  L 455.90 190.73
  A 1.80 1.78 -15.3 0 0 455.01 192.27
  L 454.75 292.39
  A 0.81 0.81 -75.4 0 1 453.54 293.10
  Q 421.56 275.06 389.13 256.15
  Z"
/>
<path fill="#483c67" d="
  M 548.09 151.17
  Q 548.25 152.05 548.25 153.75
  Q 548.25 250.13 548.25 347.12
  Q 548.25 347.64 547.80 347.38
  L 465.75 299.94
  A 0.87 0.84 15.3 0 1 465.31 299.20
  L 465.25 198.21
  A 1.66 1.66 -15.2 0 1 466.07 196.78
  L 547.57 149.75
  A 0.46 0.37 -23.1 0 1 548.22 149.93
  Q 548.27 150.16 548.20 150.39
  Q 548.04 150.86 548.09 151.17
  Z"
/>
<path fill="#483c67" d="
  M 255.26 190.79
  Q 401.12 275.01 547.28 359.51
  A 1.96 1.94 -75.1 0 1 548.25 361.20
  L 548.25 564.06
  Q 548.25 564.58 547.80 564.32
  L 184.75 354.44
  A 1.21 1.10 10.1 0 1 184.18 353.70
  Q 183.75 351.93 183.75 348.50
  Q 183.75 251.13 183.63 153.75
  Q 183.63 151.86 184.01 149.93
  A 0.37 0.37 20.8 0 1 184.56 149.69
  Q 219.85 170.34 255.26 190.79
  Z"
/>
<path fill="#000000" d="
  M 279.69 661.31
  L 257.02 661.25
  A 1.05 1.04 12.4 0 0 256.07 661.85
  L 250.49 673.91
  A 1.87 1.67 -74.9 0 1 248.82 675.00
  L 241.25 674.57
  A 0.37 0.35 -75.3 0 1 240.96 674.05
  L 268.78 615.45
  Q 269.00 614.99 269.21 615.46
  L 295.23 673.97
  A 0.42 0.41 71.5 0 1 294.95 674.55
  Q 290.78 675.49 286.55 674.78
  A 0.94 0.87 82.0 0 1 285.88 674.23
  L 280.40 661.76
  A 0.79 0.76 -11.5 0 0 279.69 661.31
  Z
  M 268.16 634.97
  L 260.22 652.53
  A 0.33 0.33 -77.8 0 0 260.52 653.00
  L 275.94 652.94
  A 0.34 0.33 -11.3 0 0 276.26 652.48
  L 268.71 634.97
  Q 268.44 634.35 268.16 634.97
  Z"
/>
<path fill="#000000" d="
  M 559.94 661.31
  L 537.02 661.25
  A 0.80 0.79 11.9 0 0 536.29 661.72
  L 530.64 674.24
  A 0.92 0.91 -81.5 0 1 529.94 674.76
  Q 525.72 675.37 521.55 674.54
  A 0.40 0.39 -71.3 0 1 521.28 673.98
  L 548.80 615.36
  Q 549.09 614.76 549.36 615.37
  L 575.55 674.05
  A 0.40 0.36 76.0 0 1 575.26 674.60
  L 567.78 674.92
  A 2.14 1.78 74.6 0 1 565.95 673.65
  L 560.65 661.77
  A 0.79 0.78 77.6 0 0 559.94 661.31
  Z
  M 548.63 634.80
  L 540.27 652.48
  A 0.33 0.32 -76.4 0 0 540.55 652.95
  L 555.92 653.00
  A 0.61 0.60 78.1 0 0 556.47 652.15
  L 549.06 634.81
  Q 548.85 634.33 548.63 634.80
  Z"
/>
<path fill="#000000" d="
  M 629.44 671.31
  Q 625.67 668.21 624.06 664.23
  Q 621.77 658.57 621.93 652.49
  Q 622.00 649.59 622.00 649.52
  Q 622.00 634.14 622.00 618.88
  A 0.54 0.49 89.5 0 1 622.48 618.34
  L 630.00 618.20
  A 0.56 0.50 88.9 0 1 630.51 618.75
  Q 630.72 635.42 630.94 652.10
  Q 631.02 658.91 632.45 661.64
  Q 634.19 664.96 637.69 666.63
  Q 640.84 668.13 644.49 667.72
  Q 652.00 666.87 654.75 659.00
  Q 655.40 657.13 655.34 652.08
  Q 655.27 646.04 655.27 645.92
  Q 655.35 632.24 655.50 618.83
  A 0.90 0.86 0.3 0 1 656.40 617.98
  L 662.10 617.95
  A 1.89 1.72 -0.2 0 1 664.00 619.67
  Q 664.00 638.13 664.00 655.00
  Q 664.00 660.15 661.93 664.58
  Q 659.89 668.92 655.88 671.91
  Q 648.03 677.76 637.42 675.37
  Q 633.21 674.42 629.44 671.31
  Z"
/>
<path fill="#000000" d="
  M 76.78 652.31
  Q 75.88 666.49 76.69 672.81
  Q 76.96 674.94 75.27 674.91
  Q 73.63 674.89 73.23 674.94
  Q 70.93 675.28 68.67 674.70
  A 0.67 0.66 -83.0 0 1 68.18 674.07
  Q 67.68 646.41 68.24 618.74
  A 0.51 0.51 89.7 0 1 68.74 618.24
  Q 73.35 618.12 77.97 618.21
  Q 78.03 618.21 81.54 618.19
  Q 88.68 618.14 93.44 621.56
  Q 98.79 625.41 99.73 631.80
  Q 100.61 637.78 98.04 642.94
  Q 95.20 648.68 88.50 650.75
  Q 83.73 652.22 77.31 651.85
  A 0.50 0.49 3.5 0 0 76.78 652.31
  Z
  M 88.56 628.69
  Q 84.38 625.89 77.84 626.35
  A 1.18 1.17 -2.1 0 0 76.75 627.52
  L 76.75 643.16
  A 0.55 0.55 2.2 0 0 77.26 643.71
  Q 81.52 643.96 84.92 643.11
  Q 90.15 641.81 91.24 636.55
  Q 92.35 631.22 88.56 628.69
  Z"
/>
<path fill="#000000" d="
  M 169.32 666.46
  L 185.07 666.93
  A 0.52 0.48 2.3 0 1 185.57 667.43
  L 185.35 674.32
  A 0.54 0.53 1.1 0 1 184.81 674.83
  L 160.80 674.77
  A 0.84 0.81 -89.7 0 1 160.00 673.93
  L 160.00 619.08
  A 0.91 0.85 -1.4 0 1 160.87 618.23
  L 167.69 617.95
  A 1.02 0.95 -1.2 0 1 168.75 618.90
  L 168.81 665.95
  A 0.52 0.51 0.6 0 0 169.32 666.46
  Z"
/>
<path fill="#000000" d="
  M 355.18 626.36
  Q 350.74 626.13 346.31 626.41
  A 0.56 0.55 83.7 0 1 345.73 625.94
  Q 345.15 622.23 345.68 618.50
  A 0.56 0.56 3.4 0 1 346.24 618.01
  L 379.44 618.07
  A 0.56 0.48 0.0 0 1 380.00 618.55
  L 380.00 625.94
  A 0.52 0.47 2.3 0 1 379.44 626.40
  Q 373.56 626.00 367.69 626.63
  A 0.57 0.54 -4.1 0 0 367.19 627.18
  L 367.26 673.77
  A 1.01 0.92 -89.7 0 1 366.33 674.78
  L 358.81 674.73
  A 0.54 0.49 90.0 0 1 358.32 674.19
  L 358.32 626.93
  A 0.50 0.49 -0.0 0 0 357.82 626.44
  Q 356.50 626.43 355.18 626.36
  Z"
/>
<path fill="#000000" d="
  M 449.06 640.70
  L 469.80 640.70
  A 0.52 0.49 0.0 0 1 470.32 641.19
  L 470.21 648.44
  A 0.51 0.49 0.6 0 1 469.70 648.92
  L 449.19 648.92
  A 0.52 0.52 90.0 0 0 448.67 649.44
  L 448.53 665.89
  A 0.87 0.85 0.3 0 0 449.40 666.75
  L 470.42 666.75
  A 0.54 0.50 0.5 0 1 470.96 667.26
  L 470.81 674.25
  A 0.58 0.53 -0.6 0 1 470.25 674.77
  Q 455.37 675.35 440.27 674.74
  A 0.54 0.54 1.1 0 1 439.75 674.20
  L 439.75 618.56
  A 0.51 0.50 -0.0 0 1 440.26 618.06
  L 469.94 618.07
  A 0.64 0.61 -6.2 0 1 470.56 618.54
  Q 471.25 621.43 470.89 625.51
  A 0.89 0.89 2.8 0 1 469.99 626.32
  L 449.00 626.25
  A 0.50 0.50 45.0 0 0 448.50 626.75
  L 448.56 640.20
  A 0.50 0.50 -45.0 0 0 449.06 640.70
  Z"
/>
<path fill="#ffffff" d="
  M 88.56 628.69
  Q 92.35 631.22 91.24 636.55
  Q 90.15 641.81 84.92 643.11
  Q 81.52 643.96 77.26 643.71
  A 0.55 0.55 2.2 0 1 76.75 643.16
  L 76.75 627.52
  A 1.18 1.17 -2.1 0 1 77.84 626.35
  Q 84.38 625.89 88.56 628.69
  Z"
/>
<path fill="#ffffff" d="
  M 548.63 634.80
  Q 548.85 634.33 549.06 634.81
  L 556.47 652.15
  A 0.61 0.60 78.1 0 1 555.92 653.00
  L 540.55 652.95
  A 0.33 0.32 -76.4 0 1 540.27 652.48
  L 548.63 634.80
  Z"
/>
<path fill="#ffffff" d="
  M 268.16 634.97
  Q 268.44 634.35 268.71 634.97
  L 276.26 652.48
  A 0.34 0.33 -11.3 0 1 275.94 652.94
  L 260.52 653.00
  A 0.33 0.33 -77.8 0 1 260.22 652.53
  L 268.16 634.97
  Z"
/>
<path fill="#000000" d="
  M 233.80 755.49
  Q 232.97 756.71 231.56 756.84
  Q 231.46 756.85 228.94 756.80
  Q 227.86 756.78 226.80 756.55
  A 0.64 0.61 -84.5 0 1 226.31 755.93
  L 226.25 721.23
  A 0.98 0.97 -89.7 0 1 227.23 720.25
  L 232.94 720.30
  A 0.53 0.49 89.4 0 1 233.43 720.82
  L 233.79 735.94
  Q 233.80 736.44 234.19 736.11
  Q 237.29 733.50 241.05 733.66
  Q 244.38 733.79 247.35 736.19
  Q 251.89 739.86 251.61 745.67
  Q 251.36 750.86 247.91 754.42
  Q 242.74 759.74 234.50 755.30
  A 0.56 0.53 -58.9 0 0 233.80 755.49
  Z
  M 244.13 745.47
  A 5.47 5.47 0.0 0 0 238.66 740.00
  A 5.47 5.47 0.0 0 0 233.19 745.47
  A 5.47 5.47 0.0 0 0 238.66 750.94
  A 5.47 5.47 0.0 0 0 244.13 745.47
  Z"
/>
<path fill="#000000" d="
  M 372.19 737.84
  Q 372.09 737.10 371.82 737.80
  Q 368.51 746.38 364.80 754.77
  Q 363.32 758.13 361.59 756.27
  Q 361.01 755.65 360.28 753.96
  Q 356.90 746.18 353.25 737.94
  Q 352.78 736.87 352.63 738.05
  L 350.41 755.98
  A 0.61 0.59 3.2 0 1 349.81 756.50
  L 343.31 756.45
  A 0.43 0.43 -85.4 0 1 342.89 755.95
  L 347.95 724.06
  A 0.95 0.89 -83.3 0 1 348.89 723.26
  L 354.18 723.60
  A 0.91 0.75 77.8 0 1 354.87 724.15
  L 362.62 742.51
  Q 362.89 743.16 363.17 742.48
  L 370.69 724.14
  A 1.54 1.50 12.8 0 1 372.20 723.22
  L 376.78 723.52
  A 0.68 0.67 87.2 0 1 377.39 724.08
  L 382.32 755.25
  A 1.39 1.26 -3.0 0 1 380.88 756.70
  L 375.62 756.49
  A 0.92 0.85 -2.5 0 1 374.75 755.76
  L 372.19 737.84
  Z"
/>
<path fill="#000000" d="
  M 416.57 749.94
  L 425.69 750.06
  A 0.51 0.51 90.0 0 1 426.20 750.57
  L 426.25 755.99
  A 0.77 0.72 -0.4 0 1 425.48 756.72
  L 408.68 756.55
  A 0.43 0.42 0.0 0 1 408.25 756.13
  L 408.25 724.13
  A 0.88 0.88 45.0 0 1 409.13 723.25
  L 415.09 723.25
  A 0.91 0.91 0.1 0 1 416.00 724.16
  L 416.06 749.43
  A 0.51 0.51 90.0 0 0 416.57 749.94
  Z"
/>
<rect fill="#000000" x="-3.76" y="-16.63" transform="translate(456.24,739.90) rotate(0.1)" width="7.52" height="33.26" rx="0.42"/>
<path fill="#000000" d="
  M 492.70 729.86
  L 487.13 729.98
  A 0.92 0.86 89.4 0 1 486.25 729.06
  L 486.25 723.91
  A 0.66 0.66 -0.1 0 1 486.91 723.25
  L 506.67 723.25
  A 1.59 1.58 -5.5 0 1 508.23 724.53
  Q 508.64 726.60 507.94 729.32
  A 0.75 0.59 -80.3 0 1 507.31 729.89
  L 502.18 729.69
  A 0.89 0.77 1.4 0 0 501.25 730.45
  L 501.25 755.83
  A 0.67 0.67 0.1 0 1 500.58 756.50
  L 493.90 756.50
  A 0.66 0.65 90.0 0 1 493.25 755.84
  L 493.19 730.32
  A 0.48 0.46 -0.6 0 0 492.70 729.86
  Z"
/>
<path fill="#000000" d="
  M 281.71 745.75
  Q 282.07 746.44 282.43 745.70
  L 287.50 735.23
  A 1.59 1.46 -74.6 0 1 288.93 734.33
  L 295.39 734.65
  A 0.34 0.30 -73.1 0 1 295.61 735.14
  L 278.80 767.11
  A 1.18 1.06 -80.5 0 1 278.07 767.69
  Q 274.99 768.38 270.97 767.53
  A 0.69 0.66 -69.2 0 1 270.55 766.53
  L 277.31 754.58
  A 1.79 1.57 47.6 0 0 277.28 752.94
  L 267.72 734.94
  A 0.31 0.30 -13.4 0 1 268.00 734.50
  L 274.94 734.50
  A 1.34 1.28 75.8 0 1 276.07 735.21
  L 281.71 745.75
  Z"
/>
<circle fill="#ffffff" cx="238.66" cy="745.47" r="5.47"/>
<rect fill="#a6aaa9" x="178.00" y="812.00" width="376.98" height="2.00" rx="0.95"/>
<path fill="#a6aaa9" d="
  M 319.75 846.60
  Q 319.25 846.43 318.76 846.59
  A 1.14 0.92 -87.4 0 0 318.14 847.29
  Q 317.21 850.24 321.00 851.25
  Q 323.48 851.91 323.79 854.36
  Q 324.04 856.30 323.79 858.14
  Q 323.57 859.74 322.43 860.86
  Q 321.43 861.84 319.81 862.00
  Q 314.97 862.47 314.53 857.25
  A 0.73 0.69 77.3 0 1 314.96 856.53
  Q 316.04 856.11 317.06 856.53
  A 1.37 0.95 81.7 0 1 317.70 857.21
  Q 319.53 861.25 320.69 856.74
  Q 321.20 854.73 319.24 854.08
  Q 313.83 852.28 314.77 847.23
  Q 315.19 844.97 316.70 843.91
  Q 318.53 842.63 321.00 843.50
  Q 324.22 844.64 323.77 848.20
  A 0.86 0.85 83.6 0 1 323.23 848.88
  Q 320.74 849.78 320.26 847.30
  A 0.97 0.67 88.7 0 0 319.75 846.60
  Z"
/>
<path fill="#a6aaa9" d="
  M 391.21 848.18
  Q 391.29 846.22 391.25 844.25
  Q 391.22 843.04 392.05 843.29
  Q 392.43 843.41 392.97 843.35
  L 393.69 843.26
  A 0.56 0.45 87.1 0 1 394.19 843.82
  L 394.53 860.44
  A 1.53 1.51 89.4 0 1 393.02 862.00
  Q 390.50 862.00 389.00 861.97
  Q 386.30 861.93 386.19 859.57
  Q 386.09 857.55 386.08 857.45
  Q 385.85 855.65 386.03 853.84
  Q 386.05 853.60 386.17 851.52
  Q 386.39 847.62 390.69 848.57
  A 0.44 0.42 7.0 0 0 391.21 848.18
  Z
  M 390.2364 858.8100
  A 3.65 1.10 89.9 0 0 391.3300 855.1581
  A 3.65 1.10 89.9 0 0 390.2236 851.5100
  A 3.65 1.10 89.9 0 0 389.1300 855.1619
  A 3.65 1.10 89.9 0 0 390.2364 858.8100
  Z"
/>
<path fill="#a6aaa9" d="
  M 400.92 861.74
  A 0.15 0.14 7.9 0 1 400.81 861.60
  L 400.80 843.82
  A 0.62 0.61 85.0 0 1 401.30 843.21
  Q 404.55 842.66 403.77 846.25
  Q 403.06 849.52 405.55 848.46
  A 1.58 1.06 -39.8 0 1 406.49 848.36
  Q 408.86 849.04 409.00 852.25
  Q 409.15 855.71 408.87 859.15
  Q 408.74 860.83 407.88 861.51
  Q 406.71 862.45 404.97 861.92
  Q 404.50 861.77 404.02 861.87
  Q 402.57 862.17 400.92 861.74
  Z
  M 404.9244 858.9199
  A 3.67 1.08 90.4 0 0 406.0300 855.2575
  A 3.67 1.08 90.4 0 0 404.9756 851.5801
  A 3.67 1.08 90.4 0 0 403.8700 855.2425
  A 3.67 1.08 90.4 0 0 404.9244 858.9199
  Z"
/>
<path fill="#a6aaa9" d="
  M 370.95 851.49
  Q 369.42 851.34 368.46 852.27
  Q 367.77 852.94 367.59 854.46
  Q 367.20 857.71 367.50 859.25
  Q 368.24 863.07 364.78 861.86
  A 0.74 0.65 -81.8 0 1 364.33 861.18
  L 364.31 849.92
  A 1.43 1.40 -80.7 0 1 366.17 848.56
  Q 368.69 849.42 371.08 848.02
  A 0.78 0.68 71.3 0 0 371.40 847.25
  Q 370.83 843.91 374.02 844.84
  A 0.58 0.53 -76.2 0 1 374.38 845.49
  Q 373.99 847.52 375.50 848.55
  A 1.54 0.85 21.4 0 1 376.11 849.28
  Q 376.57 850.78 375.05 851.21
  A 0.70 0.62 -8.2 0 0 374.54 851.81
  L 374.50 856.25
  Q 374.49 856.93 375.69 859.06
  Q 376.29 860.15 375.94 861.28
  A 0.85 0.81 3.6 0 1 375.26 861.85
  Q 373.24 862.17 372.18 860.81
  Q 371.50 859.95 371.51 858.02
  Q 371.53 855.04 371.45 852.06
  A 0.59 0.56 -87.8 0 0 370.95 851.49
  Z"
/>
<path fill="#a6aaa9" d="
  M 327.07 861.68
  Q 325.24 861.57 325.25 859.51
  L 325.30 849.31
  A 0.74 0.74 -10.3 0 1 325.78 848.62
  Q 328.64 847.59 328.25 851.00
  Q 327.96 853.48 328.44 857.75
  A 1.32 0.91 -82.5 0 0 328.87 858.59
  Q 329.59 859.11 330.04 858.25
  Q 330.25 857.86 330.25 857.20
  Q 330.25 853.98 330.19 850.75
  Q 330.14 847.65 332.97 848.63
  A 0.73 0.71 -81.4 0 1 333.45 849.30
  L 333.50 861.01
  A 0.98 0.93 -88.3 0 1 332.51 861.99
  L 327.07 861.68
  Z"
/>
<path fill="#a6aaa9" d="
  M 338.28 862.31
  Q 338.14 864.75 338.25 865.25
  Q 338.81 867.81 336.25 867.25
  A 2.30 1.09 88.7 0 1 335.25 865.25
  Q 334.65 857.25 335.21 849.25
  A 0.66 0.63 87.9 0 1 335.74 848.65
  Q 336.73 848.46 337.75 848.57
  Q 338.73 848.68 339.73 848.54
  Q 343.18 848.07 343.25 852.25
  Q 343.32 856.74 343.27 858.88
  Q 343.23 860.76 342.11 861.55
  Q 340.73 862.52 338.79 861.97
  A 0.40 0.38 10.2 0 0 338.28 862.31
  Z
  M 339.2304 859.0099
  A 3.75 1.10 90.3 0 0 340.3500 855.2658
  A 3.75 1.10 90.3 0 0 339.2696 851.5101
  A 3.75 1.10 90.3 0 0 338.1500 855.2542
  A 3.75 1.10 90.3 0 0 339.2304 859.0099
  Z"
/>
<path fill="#a6aaa9" d="
  M 348.98 861.76
  A 0.56 0.55 -81.2 0 0 348.30 862.27
  L 347.91 866.50
  A 0.88 0.85 -3.9 0 1 347.23 867.25
  Q 344.73 867.82 344.89 865.71
  Q 344.99 864.38 344.99 864.27
  Q 344.88 856.73 345.17 849.20
  A 0.60 0.58 88.4 0 1 345.69 848.63
  Q 346.79 848.54 347.91 848.62
  Q 348.70 848.68 350.07 848.52
  Q 352.90 848.17 353.07 851.51
  Q 353.25 855.12 353.19 858.75
  Q 353.13 862.75 348.98 861.76
  Z
  M 350.19 852.73
  A 0.92 0.92 0.0 0 0 349.27 851.81
  L 349.17 851.81
  A 0.92 0.92 0.0 0 0 348.25 852.73
  L 348.25 857.83
  A 0.92 0.92 0.0 0 0 349.17 858.75
  L 349.27 858.75
  A 0.92 0.92 0.0 0 0 350.19 857.83
  L 350.19 852.73
  Z"
/>
<path fill="#a6aaa9" d="
  M 362.9548 858.2372
  A 3.77 3.77 0.0 0 1 359.1782 862.0006
  L 358.4982 861.9994
  A 3.77 3.77 0.0 0 1 354.7348 858.2228
  L 354.7452 852.2828
  A 3.77 3.77 0.0 0 1 358.5218 848.5194
  L 359.2018 848.5206
  A 3.77 3.77 0.0 0 1 362.9652 852.2972
  L 362.9548 858.2372
  Z
  M 358.7800 858.9700
  A 3.72 1.08 90.0 0 0 359.8600 855.2500
  A 3.72 1.08 90.0 0 0 358.7800 851.5300
  A 3.72 1.08 90.0 0 0 357.7000 855.2500
  A 3.72 1.08 90.0 0 0 358.7800 858.9700
  Z"
/>
<path fill="#a6aaa9" d="
  M 379.57 857.31
  Q 379.70 859.55 381.31 858.60
  Q 382.56 857.87 382.95 857.80
  Q 384.55 857.50 384.36 859.13
  Q 384.26 859.93 383.66 860.57
  Q 381.85 862.48 379.29 861.86
  Q 377.94 861.53 377.14 860.52
  Q 376.18 859.31 376.40 857.92
  Q 376.73 855.78 376.53 853.62
  Q 376.11 848.91 380.32 848.63
  Q 383.84 848.41 384.26 851.78
  Q 384.50 853.75 384.50 855.23
  A 1.55 1.29 -1.6 0 1 383.02 856.53
  L 380.04 856.67
  A 0.62 0.51 86.9 0 0 379.57 857.31
  Z
  M 381.73 852.99
  A 1.08 1.08 0.0 0 0 380.65 851.91
  A 1.08 1.08 0.0 0 0 379.57 852.99
  A 1.08 1.08 0.0 0 0 380.65 854.07
  A 1.08 1.08 0.0 0 0 381.73 852.99
  Z"
/>
<path fill="#a6aaa9" d="
  M 413.68 853.50
  Q 413.95 855.92 414.49 853.55
  L 415.45 849.31
  A 1.03 0.87 88.5 0 1 416.02 848.60
  Q 417.31 848.09 418.38 848.92
  A 0.83 0.72 -66.1 0 1 418.63 849.74
  Q 416.95 856.62 415.25 863.50
  Q 414.35 867.14 411.07 867.20
  A 0.75 0.74 78.7 0 1 410.36 866.72
  Q 409.52 864.55 411.06 864.00
  Q 413.27 863.21 412.64 860.93
  L 409.45 849.32
  A 0.53 0.53 -15.1 0 1 409.82 848.68
  Q 412.61 847.93 413.03 849.89
  Q 413.54 852.27 413.68 853.50
  Z"
/>
<ellipse fill="#ffffff" cx="0.00" cy="0.00" transform="translate(339.25,855.26) rotate(90.3)" rx="3.75" ry="1.10"/>
<rect fill="#ffffff" x="348.25" y="851.81" width="1.94" height="6.94" rx="0.92"/>
<ellipse fill="#ffffff" cx="0.00" cy="0.00" transform="translate(358.78,855.25) rotate(90.0)" rx="3.72" ry="1.08"/>
<circle fill="#ffffff" cx="380.65" cy="852.99" r="1.08"/>
<ellipse fill="#ffffff" cx="0.00" cy="0.00" transform="translate(390.23,855.16) rotate(89.9)" rx="3.65" ry="1.10"/>
<ellipse fill="#ffffff" cx="0.00" cy="0.00" transform="translate(404.95,855.25) rotate(90.4)" rx="3.67" ry="1.08"/>
<path fill="#79a9db" d="
  M 515.24 897.81
  Q 519.50 890.03 527.45 888.12
  Q 533.42 886.68 537.78 889.22
  Q 542.21 891.80 541.64 897.37
  Q 541.21 901.45 538.19 904.80
  Q 532.16 911.48 522.19 910.49
  A 0.44 0.43 1.8 0 0 521.71 910.93
  Q 522.34 924.81 511.95 933.95
  Q 495.16 948.72 474.00 943.50
  Q 463.10 940.81 458.57 931.26
  Q 455.77 925.36 456.67 918.90
  Q 457.29 914.50 459.31 910.52
  Q 461.06 907.07 464.47 903.59
  Q 479.64 888.10 501.75 891.75
  Q 508.29 892.83 514.62 897.94
  A 0.42 0.41 -56.3 0 0 515.24 897.81
  Z
  M 534.9553 895.7109
  A 7.33 3.99 -27.1 0 0 526.6124 895.4981
  A 7.33 3.99 -27.1 0 0 521.9047 902.3891
  A 7.33 3.99 -27.1 0 0 530.2476 902.6019
  A 7.33 3.99 -27.1 0 0 534.9553 895.7109
  Z
  M 514.3468 909.1736
  A 26.76 19.28 -19.1 0 0 482.7512 899.7114
  A 26.76 19.28 -19.1 0 0 463.7732 926.6864
  A 26.76 19.28 -19.1 0 0 495.3688 936.1486
  A 26.76 19.28 -19.1 0 0 514.3468 909.1736
  Z"
/>
<path fill="#00ac50" d="
  M 197.74 917.63
  L 194.12 917.51
  A 0.98 0.92 5.4 0 1 193.17 916.43
  Q 195.48 903.45 207.06 898.62
  Q 207.13 898.59 208.60 898.12
  Q 210.56 897.50 211.42 895.65
  Q 212.15 894.07 212.25 893.91
  Q 212.61 893.29 212.99 892.68
  Q 213.29 892.19 213.30 892.75
  L 213.47 901.94
  A 0.66 0.59 -6.6 0 1 212.95 902.53
  Q 200.68 904.97 198.51 917.05
  A 0.77 0.71 5.7 0 1 197.74 917.63
  Z"
/>
<ellipse fill="#ffffff" cx="0.00" cy="0.00" transform="translate(528.43,899.05) rotate(-27.1)" rx="7.33" ry="3.99"/>
<path fill="#003a40" d="
  M 237.25 914.68
  L 241.61 916.93
  Q 243.05 917.68 241.45 917.69
  L 232.12 917.75
  A 0.68 0.66 82.6 0 1 231.48 917.24
  Q 228.56 904.92 217.18 902.65
  A 0.70 0.55 7.3 0 1 216.60 902.06
  L 216.70 897.55
  A 0.53 0.44 6.0 0 1 217.31 897.14
  Q 232.13 899.63 236.67 913.96
  A 1.27 1.06 -89.0 0 0 237.25 914.68
  Z"
/>
<ellipse fill="#ffffff" cx="0.00" cy="0.00" transform="translate(489.06,917.93) rotate(-19.1)" rx="26.76" ry="19.28"/>
<path fill="#00ac50" d="
  M 269.0956 923.7116
  A 9.19 9.19 0.0 0 1 259.8576 932.8533
  L 258.5176 932.8463
  A 9.19 9.19 0.0 0 1 249.3759 923.6083
  L 249.4244 914.3484
  A 9.19 9.19 0.0 0 1 258.6624 905.2067
  L 260.0024 905.2137
  A 9.19 9.19 0.0 0 1 269.1441 914.4517
  L 269.0956 923.7116
  Z
  M 264.67 914.68
  A 5.09 5.09 0.0 0 0 259.58 909.59
  L 258.94 909.59
  A 5.09 5.09 0.0 0 0 253.85 914.68
  L 253.85 923.36
  A 5.09 5.09 0.0 0 0 258.94 928.45
  L 259.58 928.45
  A 5.09 5.09 0.0 0 0 264.67 923.36
  L 264.67 914.68
  Z"
/>
<path fill="#000000" d="
  M 308.56 922.82
  Q 308.35 920.75 306.32 921.17
  Q 302.96 921.87 302.51 920.37
  Q 302.30 919.68 302.44 918.13
  Q 302.60 916.42 304.71 917.03
  Q 305.22 917.17 305.67 917.10
  Q 308.87 916.57 311.96 917.42
  A 0.78 0.77 -87.2 0 1 312.52 918.05
  Q 313.04 921.38 312.75 924.00
  Q 312.22 928.79 308.73 931.17
  Q 305.55 933.34 301.41 932.81
  Q 295.36 932.04 293.25 925.25
  Q 292.77 923.71 293.00 916.50
  Q 293.14 912.10 295.06 909.20
  Q 297.05 906.19 300.97 905.31
  Q 306.04 904.17 310.31 907.74
  A 1.27 1.27 -54.6 0 1 310.58 909.35
  Q 308.89 912.21 307.37 911.12
  Q 306.02 910.15 305.95 910.12
  Q 301.90 908.37 299.47 911.00
  Q 297.87 912.73 297.54 916.30
  Q 297.26 919.44 297.62 922.59
  Q 297.96 925.52 299.35 927.01
  Q 301.40 929.20 304.50 928.34
  Q 306.27 927.85 307.40 926.35
  Q 308.74 924.56 308.56 922.82
  Z"
/>
<path fill="#002125" fill-opacity="0.996" d="
  M 382.14 931.55
  Q 380.08 932.98 377.50 933.00
  Q 374.85 933.03 373.56 933.14
  A 0.59 0.45 -3.3 0 1 372.93 932.71
  L 372.85 929.20
  A 0.52 0.46 2.8 0 1 373.42 928.74
  Q 383.24 929.77 382.73 919.99
  Q 382.51 915.90 382.50 911.80
  Q 382.50 911.71 382.58 910.71
  Q 382.75 908.76 380.31 909.29
  A 1.06 0.92 -5.7 0 1 379.02 908.38
  L 379.17 905.55
  A 0.63 0.52 0.9 0 1 379.80 905.05
  L 386.04 905.01
  A 0.99 0.97 90.0 0 1 387.01 906.00
  Q 386.95 915.62 386.73 924.00
  Q 386.67 926.53 385.34 928.42
  Q 384.10 930.19 382.14 931.55
  Z"
/>
<path fill="#003a40" d="
  M 395.81 923.56
  L 395.69 932.18
  A 0.90 0.81 77.5 0 1 395.26 932.95
  Q 393.64 933.80 392.00 932.95
  A 0.86 0.82 -76.9 0 1 391.56 932.20
  L 391.50 905.67
  A 0.67 0.67 0.1 0 1 392.17 905.00
  Q 394.80 905.00 397.39 905.00
  Q 400.61 905.00 402.44 905.91
  Q 405.62 907.51 407.04 910.73
  Q 408.35 913.71 407.11 916.90
  Q 404.54 923.51 396.31 923.10
  A 0.47 0.46 1.8 0 0 395.81 923.56
  Z
  M 396.43 918.33
  Q 400.02 919.34 402.50 916.75
  Q 404.32 914.85 403.34 912.57
  Q 402.54 910.72 400.67 909.93
  Q 398.79 909.15 396.39 909.56
  A 0.83 0.79 84.6 0 0 395.74 910.38
  L 395.83 917.87
  A 0.40 0.39 -83.7 0 0 396.13 918.26
  Q 396.28 918.29 396.43 918.33
  Z"
/>
<path fill="#00ac50" d="
  M 275.72 918.51
  Q 272.85 916.59 272.99 913.00
  Q 273.30 905.08 281.50 905.25
  Q 284.31 905.31 286.46 906.33
  Q 288.27 907.18 288.50 907.74
  Q 288.94 908.77 287.30 910.73
  A 0.87 0.86 -54.6 0 1 286.21 910.92
  Q 284.19 909.73 282.30 909.38
  Q 280.11 908.98 278.49 910.32
  Q 275.76 912.57 279.56 915.69
  Q 280.22 916.23 283.61 917.69
  Q 286.14 918.78 287.33 920.09
  Q 290.56 923.62 288.87 927.61
  Q 287.18 931.61 282.72 932.66
  Q 278.04 933.76 273.37 930.77
  A 0.88 0.88 23.3 0 1 272.99 929.82
  Q 273.88 926.15 276.21 927.52
  Q 278.70 929.00 281.37 928.64
  Q 283.50 928.35 284.49 926.86
  Q 285.52 925.31 284.41 923.67
  Q 283.79 922.75 282.08 921.99
  Q 278.75 920.53 275.72 918.51
  Z"
/>
<path fill="#00ac50" d="
  M 219.21 920.75
  Q 217.10 916.97 213.25 915.04
  Q 214.18 910.72 214.69 906.33
  Q 214.86 904.89 215.06 906.03
  Q 215.79 910.14 216.50 914.23
  A 0.75 0.74 -23.2 0 0 217.68 914.69
  L 222.31 911.31
  Q 223.73 910.28 222.70 911.67
  L 219.81 915.56
  Q 218.46 917.39 220.60 917.69
  L 227.57 918.67
  Q 229.65 918.96 227.57 919.31
  L 219.21 920.75
  Z"
/>
<rect fill="#ffffff" x="253.85" y="909.59" width="10.82" height="18.86" rx="5.09"/>
<path fill="#ffffff" d="
  M 396.43 918.33
  Q 396.28 918.29 396.13 918.26
  A 0.40 0.39 -83.7 0 1 395.83 917.87
  L 395.74 910.38
  A 0.83 0.79 84.6 0 1 396.39 909.56
  Q 398.79 909.15 400.67 909.93
  Q 402.54 910.72 403.34 912.57
  Q 404.32 914.85 402.50 916.75
  Q 400.02 919.34 396.43 918.33
  Z"
/>
<path fill="#003a40" d="
  M 320.19 930.56
  Q 317.28 928.38 316.78 924.80
  Q 316.37 921.94 316.76 918.71
  Q 317.18 915.28 319.52 913.02
  Q 322.52 910.11 326.76 910.45
  Q 331.38 910.81 333.81 915.44
  Q 335.56 918.75 334.45 922.84
  A 0.68 0.66 -81.9 0 1 333.81 923.34
  L 322.10 923.48
  A 0.73 0.71 -5.9 0 0 321.39 924.33
  Q 321.83 926.52 323.37 927.55
  Q 324.40 928.24 326.78 928.23
  Q 329.19 928.23 331.19 928.29
  A 1.13 1.12 -5.3 0 1 332.25 929.16
  Q 333.12 932.97 330.65 932.88
  Q 329.03 932.83 328.85 932.84
  Q 323.73 933.22 320.19 930.56
  Z
  M 327.78 915.50
  Q 324.33 913.67 321.75 917.25
  Q 320.15 919.47 322.85 919.47
  L 329.52 919.50
  A 0.72 0.71 82.7 0 0 330.20 918.60
  Q 329.64 916.49 327.78 915.50
  Z"
/>
<path fill="#003a40" d="
  M 356.11 924.66
  A 8.24 8.24 0.0 0 1 347.87 932.90
  L 346.53 932.90
  A 8.24 8.24 0.0 0 1 338.29 924.66
  L 338.29 918.82
  A 8.24 8.24 0.0 0 1 346.53 910.58
  L 347.87 910.58
  A 8.24 8.24 0.0 0 1 356.11 918.82
  L 356.11 924.66
  Z
  M 351.4593 918.9553
  A 4.05 4.05 0.0 0 0 347.4519 914.8631
  L 346.9320 914.8577
  A 4.05 4.05 0.0 0 0 342.8398 918.8650
  L 342.7807 924.5047
  A 4.05 4.05 0.0 0 0 346.7881 928.5969
  L 347.3080 928.6023
  A 4.05 4.05 0.0 0 0 351.4002 924.5950
  L 351.4593 918.9553
  Z"
/>
<path fill="#003a40" d="
  M 213.25 915.04
  Q 217.10 916.97 219.21 920.75
  Q 220.81 923.97 223.11 926.72
  Q 223.19 926.82 223.22 926.93
  Q 223.34 927.35 222.91 927.05
  Q 219.93 924.97 216.75 923.21
  Q 213.15 920.97 210.75 917.46
  L 207.02 911.44
  A 0.64 0.19 56.7 0 1 206.85 910.87
  Q 206.97 910.70 207.45 911.05
  Q 210.30 913.12 213.25 915.04
  Z
  M 216.03 919.03
  A 1.09 1.09 0.0 0 0 214.94 917.94
  A 1.09 1.09 0.0 0 0 213.85 919.03
  A 1.09 1.09 0.0 0 0 214.94 920.12
  A 1.09 1.09 0.0 0 0 216.03 919.03
  Z"
/>
<path fill="#ffffff" d="
  M 327.78 915.50
  Q 329.64 916.49 330.20 918.60
  A 0.72 0.71 82.7 0 1 329.52 919.50
  L 322.85 919.47
  Q 320.15 919.47 321.75 917.25
  Q 324.33 913.67 327.78 915.50
  Z"
/>
<rect fill="#ffffff" x="-4.31" y="-6.87" transform="translate(347.12,921.73) rotate(0.6)" width="8.62" height="13.74" rx="4.05"/>
<circle fill="#da000f" cx="366.27" cy="920.20" r="3.97"/>
<path fill="#00ac50" d="
  M 210.75 917.46
  Q 213.15 920.97 216.75 923.21
  Q 216.12 923.37 216.16 924.04
  Q 216.21 924.82 216.19 924.96
  Q 215.71 928.68 215.25 932.01
  Q 215.01 933.70 214.75 932.01
  L 213.51 924.02
  A 0.80 0.80 -20.7 0 0 212.29 923.47
  Q 210.12 924.83 208.49 926.25
  Q 206.76 927.76 207.55 925.98
  Q 207.67 925.71 207.91 925.45
  Q 209.60 923.59 210.51 921.27
  A 0.44 0.43 17.8 0 0 210.20 920.69
  Q 206.16 919.69 202.02 919.32
  Q 200.91 919.22 201.56 918.85
  Q 201.73 918.75 201.96 918.73
  Q 206.38 918.28 210.75 917.46
  Z"
/>
<circle fill="#ffffff" cx="214.94" cy="919.03" r="1.09"/>
<path fill="#003a40" d="
  M 188.39 920.92
  Q 187.68 920.57 188.46 920.59
  L 197.94 920.75
  A 0.69 0.60 84.0 0 1 198.53 921.30
  Q 200.85 932.30 213.12 935.62
  A 0.90 0.72 -83.1 0 1 213.65 936.48
  L 213.54 940.39
  A 0.65 0.60 -85.2 0 1 212.85 941.02
  Q 199.09 938.84 194.34 926.46
  Q 193.51 924.29 192.18 923.25
  Q 190.49 921.94 188.39 920.92
  Z"
/>
<path fill="#00ac50" d="
  M 231.88 920.72
  Q 232.71 920.38 233.62 920.40
  Q 234.45 920.42 235.35 920.35
  Q 237.18 920.21 236.75 922.25
  Q 234.02 935.24 222.30 939.71
  Q 220.21 940.51 219.25 941.61
  Q 217.96 943.08 217.32 944.82
  Q 216.50 947.06 216.50 944.68
  L 216.50 936.01
  A 0.47 0.46 -6.2 0 1 216.87 935.56
  Q 229.05 932.96 231.35 921.42
  A 0.99 0.85 86.5 0 1 231.88 920.72
  Z"
/>
</svg>
