<?xml version="1.0" encoding="UTF-8" standalone="no"?>
<!-- Generator: Adobe Illustrator 26.4.1, SVG Export Plug-In . SVG Version: 6.00 Build 0)  -->

<svg
   version="1.1"
   id="Layer_1"
   x="0px"
   y="0px"
   viewBox="0 0 737.37878 154.28943"
   xml:space="preserve"
   sodipodi:docname="Procredit_Logo.svg"
   width="737.37878"
   height="154.28943"
   xmlns:inkscape="http://www.inkscape.org/namespaces/inkscape"
   xmlns:sodipodi="http://sodipodi.sourceforge.net/DTD/sodipodi-0.dtd"
   xmlns="http://www.w3.org/2000/svg"
   xmlns:svg="http://www.w3.org/2000/svg"><defs
   id="defs111" /><sodipodi:namedview
   id="namedview109"
   pagecolor="#ffffff"
   bordercolor="#000000"
   borderopacity="0.25"
   inkscape:showpageshadow="2"
   inkscape:pageopacity="0.0"
   inkscape:pagecheckerboard="0"
   inkscape:deskcolor="#d1d1d1"
   showgrid="false" />
<style
   type="text/css"
   id="style2">
	.st0{fill:none;}
	.st1{fill-rule:evenodd;clip-rule:evenodd;fill:#FFCF00;}
	.st2{fill-rule:evenodd;clip-rule:evenodd;fill:#004F90;}
	.st3{fill-rule:evenodd;clip-rule:evenodd;fill:#B20E77;}
	.st4{fill-rule:evenodd;clip-rule:evenodd;fill:#008059;}
	.st5{fill-rule:evenodd;clip-rule:evenodd;fill:#E76601;}
	.st6{fill-rule:evenodd;clip-rule:evenodd;fill:#CF0E14;}
	.st7{fill:#CF0E14;}
</style>
<g
   id="g106"
   inkscape:export-filename="Procredit_Logo.svg"
   inkscape:export-xdpi="96"
   inkscape:export-ydpi="96"
   transform="matrix(1.1803537,0,0,1.1724121,-11.390413,-17.246182)">
	<path
   class="st0"
   d="m 93.29,98.99 c 3.9,-3.38 8.15,-5.94 12.4,-7.64 -2.51,-6.19 -5.45,-12.58 -8.97,-19.38 -7.88,3.15 -15.52,8.21 -21.53,14.63 -0.49,0.52 -0.97,1.05 -1.44,1.57 5.6,4.96 11.11,9.49 16.46,13.7 0.97,-0.97 1.99,-1.94 3.08,-2.88 z"
   id="path4" />
	<path
   class="st0"
   d="m 368.16,92.85 c -4.01,0 -7.26,3 -8.76,9.52 0.25,0 1.75,0.25 3,0.25 4.26,0 7.01,-0.5 8.77,-2.25 0.75,-0.75 1.5,-2 1.5,-3.26 0,-2.51 -1.25,-4.26 -4.51,-4.26 z"
   id="path6" />
	<path
   class="st0"
   d="m 125.04,51.53 c -9.46,-6.33 -21.34,-7.35 -33.28,-3.77 0.35,0.67 0.7,1.34 1.06,2.03 2.04,4.03 3.9,7.93 5.63,11.75 14.24,-5.8 28.49,-5.18 37.56,2.91 -2.67,-5.25 -6.34,-9.71 -10.97,-12.92 z"
   id="path8" />
	<path
   class="st0"
   d="m 203.63,75.32 h -7.01 l -4.26,19.03 h 7.26 c 4.51,0 7.01,-1 8.76,-2.75 2.51,-2.5 3.76,-6.01 3.76,-9.52 0.01,-4.51 -2.5,-6.76 -8.51,-6.76 z"
   id="path10" />
	<path
   class="st0"
   d="m 264.24,93.1 c -6.76,0 -10.52,10.77 -10.52,18.53 0,4.26 2,6.01 5.51,6.01 6.76,0 10.52,-10.02 10.52,-18.53 0,-4.51 -2.26,-6.01 -5.51,-6.01 z"
   id="path12" />
	<path
   class="st0"
   d="m 79.49,123.81 c 0.26,-6.17 3.16,-13.09 8.33,-19.28 -5.73,-3.59 -11.66,-7.54 -17.72,-11.89 -6.94,9.24 -10.66,19.24 -10.89,28.25 5,1.2 10.2,2.07 15.5,2.56 1.62,0.15 3.21,0.27 4.78,0.36 z"
   id="path14" />
	<path
   class="st0"
   d="m 131.55,94.39 c 5.41,6.27 4.8,16.24 -0.53,25.55 10.66,-16.71 11.27,-35.41 0.37,-45.56 -6.96,-6.54 -18.02,-7.44 -29.23,-4.27 2.86,6.97 5.2,13.61 7.08,20.01 8.89,-2.55 17.38,-1.26 22.31,4.27 z"
   id="path16" />
	<path
   class="st0"
   d="m 42.5,42.48 c 7.18,-7.18 15.7,-12.34 24.72,-15.45 0,-0.01 -0.01,-0.01 -0.01,-0.02 -13.31,2.68 -25.05,9.25 -33.76,18.45 1.02,1.29 2.06,2.58 3.12,3.87 1.78,-2.39 3.76,-4.68 5.93,-6.85 z"
   id="path18" />
	<path
   class="st0"
   d="m 110.39,37.13 c -8.3,-3.22 -17.36,-4.35 -26.42,-3.43 1.1,1.84 2.19,3.73 3.3,5.71 7.77,-2.56 15.68,-3.39 23.12,-2.28 z"
   id="path20" />
	<path
   class="st0"
   d="m 40.36,114.42 c 4.94,2.26 10.3,4.19 15.93,5.71 -0.44,-9.55 2.8,-20.48 9.36,-30.75 C 61.35,86.18 56.99,82.78 52.6,79.15 45.21,90.7 41.12,103 40.36,114.42 Z"
   id="path22" />
	<path
   class="st0"
   d="M 84.43,50.53 C 74.67,55 65.19,62.48 57.3,72.55 c 4.02,4.11 8.03,7.98 12,11.62 1.61,-2.1 3.37,-4.15 5.26,-6.14 5.55,-5.77 11.71,-10.39 18.02,-13.76 -0.39,-0.71 -0.78,-1.4 -1.19,-2.12 -2.35,-4.12 -4.66,-7.97 -6.96,-11.62 z"
   id="path24" />
	<path
   class="st0"
   d="m 79.26,42.7 c -1.71,-2.48 -3.44,-4.86 -5.18,-7.16 -10.63,2.87 -20.85,8.58 -29.36,17.1 -0.99,0.99 -1.92,2 -2.83,3.03 3.15,3.68 6.45,7.36 9.86,11.04 7.52,-10.77 17.2,-18.93 27.51,-24.01 z"
   id="path26" />
	<path
   class="st0"
   d="m 47,74.41 c -0.92,-0.8 -1.84,-1.58 -2.76,-2.4 -2.97,-2.65 -5.86,-5.3 -8.67,-7.95 -7.05,11.09 -10.37,23.66 -9.9,35.89 -3.13,-13.4 -1.48,-27.89 4.84,-40.74 -1.47,-1.44 -2.92,-2.88 -4.34,-4.32 -5.46,8.78 -8.6,19.06 -8.6,30.14 0,5.56 0.82,10.94 2.31,16.06 5.02,4.75 11.52,9.08 19.03,12.67 C 37.33,101.33 39.97,87.42 47,74.41 Z"
   id="path28" />
	<path
   class="st0"
   d="m 539.45,97.11 c -3,3.51 -4.51,10.27 -4.51,15.03 0,3.76 1.25,5.26 3.76,5.26 3.25,0 6.76,-3.25 8.26,-6.51 l 3.76,-17.03 c -0.75,-0.25 -2,-0.5 -3.26,-0.5 -3,-0.01 -5.26,0.49 -8.01,3.75 z"
   id="path30" />
	<path
   class="st0"
   d="m 506.64,75.57 h -7.76 l -3.25,14.77 h 8.26 c 3.51,0 5.51,-0.5 7.01,-1.75 2,-1.75 3.51,-4.01 3.51,-7.01 0,-4.01 -2,-6.01 -7.77,-6.01 z"
   id="path32" />
	<path
   class="st0"
   d="m 502.39,97.86 h -8.26 l -3.76,17.28 h 9.02 c 3.25,0 5.76,-1 7.51,-2.26 2.5,-1.5 4.25,-5.01 4.25,-8.51 0,-4.26 -2.25,-6.51 -8.76,-6.51 z"
   id="path34" />
	<path
   class="st0"
   d="m 397.46,96.86 c -3,3.26 -4.76,10.02 -4.76,14.78 0,3.51 1.25,5.51 4.01,5.51 3,0 6.76,-2.5 9.01,-6.01 l 3.51,-16.03 c -1.5,-1 -3,-1.5 -5.51,-1.5 -2.25,-0.01 -4.75,1.24 -6.26,3.25 z"
   id="path36" />
	<path
   class="st1"
   d="m 40.36,114.42 c -0.14,2.14 -0.18,4.25 -0.09,6.32 -0.61,-2.26 -1.06,-4.6 -1.36,-6.99 -7.51,-3.58 -14.01,-7.92 -19.03,-12.67 1.64,5.61 4.11,10.89 7.28,15.72 8.54,4.81 18.17,7.81 29.99,9.53 -0.48,-1.98 -0.76,-4.06 -0.86,-6.2 -5.63,-1.52 -10.99,-3.45 -15.93,-5.71 z"
   id="path38" />
	<path
   class="st1"
   d="m 84.74,127.55 c 10.68,-0.76 20.28,-3.08 28.56,-6.97 -8.75,2.19 -18.25,3.53 -28.7,3.41 -0.08,1.22 -0.03,2.41 0.14,3.56 z"
   id="path40" />
	<path
   class="st1"
   d="m 79.49,123.81 c -1.57,-0.09 -3.16,-0.21 -4.77,-0.37 -5.31,-0.48 -10.5,-1.36 -15.5,-2.56 -0.05,1.98 0.06,3.92 0.35,5.78 1.68,0.22 3.39,0.41 5.16,0.58 5.18,0.48 10.18,0.65 14.99,0.53 -0.22,-1.27 -0.29,-2.6 -0.23,-3.96 z"
   id="path42" />
	<path
   class="st1"
   d="m 30.51,59.2 c 1.69,-3.43 3.71,-6.73 6.06,-9.87 -1.06,-1.29 -2.1,-2.58 -3.12,-3.87 -2.74,2.89 -5.18,6.04 -7.27,9.42 1.41,1.44 2.86,2.88 4.33,4.32 z"
   id="path44" />
	<path
   class="st1"
   d="m 47,74.41 c 1.4,-2.59 2.95,-5.14 4.7,-7.64 0.01,-0.02 0.03,-0.04 0.04,-0.06 -3.41,-3.67 -6.71,-7.36 -9.86,-11.04 -2.36,2.67 -4.47,5.48 -6.31,8.38 2.82,2.65 5.7,5.3 8.67,7.95 0.92,0.82 1.84,1.61 2.76,2.41 z"
   id="path46" />
	<path
   class="st1"
   d="m 57.3,72.55 c -0.99,1.26 -1.96,2.55 -2.9,3.9 -0.62,0.89 -1.22,1.8 -1.8,2.7 4.39,3.63 8.75,7.03 13.05,10.23 1.12,-1.76 2.33,-3.5 3.65,-5.2 -3.97,-3.65 -7.98,-7.52 -12,-11.63 z"
   id="path48" />
	<path
   class="st1"
   d="m 90.21,101.89 c -5.35,-4.21 -10.86,-8.75 -16.46,-13.7 -1.3,1.46 -2.51,2.95 -3.64,4.45 6.06,4.35 11.99,8.29 17.72,11.89 0.74,-0.9 1.54,-1.78 2.38,-2.64 z"
   id="path50" />
	<path
   class="st1"
   d="m 113.77,119.47 c -6.13,-4.43 -12.7,-9.2 -19.56,-14.47 -0.73,0.72 -1.41,1.45 -2.06,2.2 7.66,4.66 14.93,8.71 21.62,12.27 z"
   id="path52" />
	<path
   class="st1"
   d="m 67.36,26.98 c -0.05,0.01 -0.11,0.02 -0.16,0.03 0,0.01 0.01,0.01 0.01,0.02 0.05,-0.02 0.1,-0.04 0.15,-0.05 z"
   id="path54" />
	<path
   class="st1"
   d="m 109.24,90.13 c -1.88,-6.4 -4.22,-13.04 -7.08,-20.01 -1.82,0.51 -3.63,1.13 -5.44,1.86 3.52,6.8 6.45,13.19 8.97,19.38 1.19,-0.48 2.37,-0.89 3.55,-1.23 z"
   id="path56" />
	<path
   class="st1"
   d="m 91.76,47.76 c -2.45,0.73 -4.9,1.66 -7.33,2.78 2.3,3.65 4.61,7.5 6.96,11.63 0.41,0.72 0.79,1.41 1.19,2.12 1.95,-1.04 3.91,-1.95 5.87,-2.75 -1.73,-3.81 -3.59,-7.72 -5.63,-11.75 -0.36,-0.7 -0.71,-1.37 -1.06,-2.03 z"
   id="path58" />
	<path
   class="st1"
   d="m 87.26,39.41 c -1.11,-1.98 -2.2,-3.87 -3.3,-5.71 -3.31,0.34 -6.62,0.96 -9.89,1.84 1.75,2.3 3.47,4.68 5.18,7.16 2.64,-1.3 5.32,-2.4 8.01,-3.29 z"
   id="path60" />
	<path
   class="st1"
   d="m 114.88,118.52 c -0.76,-7.58 -2.14,-15.31 -4.25,-23.39 -1.02,0.28 -2.04,0.64 -3.06,1.04 2.87,7.54 5.19,14.86 7.31,22.35 z"
   id="path62" />
	<path
   class="st2"
   d="m 17.57,85.02 c 0,-11.09 3.14,-21.36 8.6,-30.14 2.1,-3.37 4.53,-6.53 7.27,-9.42 8.71,-9.2 20.44,-15.77 33.76,-18.45 0.05,-0.01 0.11,-0.02 0.16,-0.03 21.24,-7.27 45.3,-3.16 61.65,12.97 2.44,2.39 4.59,4.96 6.47,7.68 -11.7,-19.67 -33.5,-32.92 -58.37,-32.92 -37.3,0 -67.46,29.53 -67.46,65.88 0,36.19 30.16,65.72 67.46,65.72 7.3,0 14.29,-1.11 20.79,-3.17 -5.4,1.43 -11.11,2.06 -16.98,2.06 -22.65,0 -42.55,-11.36 -53.75,-28.38 -3.18,-4.83 -5.64,-10.11 -7.28,-15.72 -1.5,-5.13 -2.32,-10.51 -2.32,-16.08 z"
   id="path64" />
	<path
   class="st3"
   d="m 67.36,26.98 c -0.05,0.02 -0.1,0.03 -0.15,0.05 -9.02,3.11 -17.53,8.27 -24.72,15.45 -2.17,2.17 -4.14,4.46 -5.93,6.85 -2.35,3.14 -4.37,6.45 -6.06,9.87 -6.33,12.85 -7.98,27.35 -4.84,40.74 -0.47,-12.23 2.85,-24.8 9.9,-35.89 1.85,-2.91 3.95,-5.71 6.31,-8.38 0.91,-1.03 1.85,-2.04 2.83,-3.03 8.52,-8.52 18.74,-14.23 29.36,-17.1 3.27,-0.88 6.58,-1.5 9.89,-1.84 9.06,-0.93 18.12,0.21 26.42,3.43 5.86,0.87 11.42,2.94 16.4,6.3 13.18,8.73 19.53,24.61 18.26,41.91 0,0 -0.25,2.56 -0.57,4.77 2.32,-14.74 -0.46,-30.11 -9,-42.48 -1.88,-2.72 -4.03,-5.29 -6.47,-7.68 C 112.66,23.81 88.6,19.7 67.36,26.98 Z"
   id="path66" />
	<path
   class="st4"
   d="m 126.79,43.43 c -4.98,-3.36 -10.54,-5.43 -16.4,-6.3 -7.44,-1.11 -15.35,-0.29 -23.12,2.28 -2.69,0.89 -5.37,1.99 -8,3.29 -10.31,5.08 -19.99,13.24 -27.52,24.01 -0.01,0.02 -0.03,0.04 -0.04,0.06 -1.75,2.5 -3.3,5.05 -4.7,7.64 -7.03,13.01 -9.67,26.92 -8.09,39.34 0.3,2.39 0.75,4.73 1.36,6.99 -0.09,-2.07 -0.06,-4.18 0.09,-6.32 C 41.12,103 45.21,90.7 52.6,79.15 c 0.58,-0.91 1.18,-1.81 1.8,-2.7 0.94,-1.34 1.91,-2.64 2.9,-3.9 C 65.19,62.48 74.67,55 84.43,50.53 c 2.43,-1.11 4.89,-2.04 7.33,-2.78 11.94,-3.58 23.82,-2.56 33.28,3.77 4.63,3.21 8.3,7.67 10.97,12.91 0.1,0.09 0.21,0.17 0.3,0.26 7.01,6.44 9.49,16.36 7.87,27.22 0.1,-0.52 0.2,-1.15 0.3,-1.82 0.32,-2.2 0.57,-4.77 0.57,-4.77 1.26,-17.28 -5.09,-33.16 -18.26,-41.89 z"
   id="path68" />
	<path
   class="st5"
   d="m 128.85,123.12 c 0.18,-0.21 0.36,-0.43 0.54,-0.64 0.18,-0.29 0.36,-0.58 0.52,-0.87 -0.34,0.51 -0.69,1.01 -1.06,1.51 z"
   id="path70" />
	<path
   class="st5"
   d="m 136.31,64.7 c -0.1,-0.09 -0.2,-0.17 -0.3,-0.26 -9.07,-8.1 -23.32,-8.72 -37.56,-2.91 -1.96,0.8 -3.92,1.71 -5.87,2.75 -6.31,3.37 -12.46,7.98 -18.02,13.76 -1.9,1.99 -3.65,4.04 -5.26,6.14 -1.31,1.71 -2.53,3.45 -3.65,5.2 -6.56,10.27 -9.81,21.2 -9.36,30.75 0.1,2.15 0.39,4.22 0.86,6.2 1.21,5.06 3.65,9.51 7.41,12.98 0.63,0.63 1.27,1.11 2.06,1.59 -3.89,-3.84 -6.22,-8.74 -7.06,-14.23 -0.29,-1.87 -0.4,-3.8 -0.35,-5.78 0.24,-9 3.96,-19.01 10.89,-28.25 1.13,-1.51 2.34,-2.99 3.64,-4.45 0.47,-0.53 0.95,-1.05 1.44,-1.57 6,-6.42 13.64,-11.48 21.53,-14.63 1.81,-0.72 3.63,-1.34 5.44,-1.86 11.21,-3.17 22.26,-2.27 29.23,4.27 10.89,10.15 10.28,28.84 -0.37,45.56 -0.45,0.78 -0.93,1.55 -1.44,2.32 8.13,-9.59 13.1,-20.36 14.6,-30.34 1.63,-10.87 -0.84,-20.79 -7.86,-27.24 z"
   id="path72" />
	<path
   class="st6"
   d="m 131.55,94.39 c -4.93,-5.52 -13.42,-6.82 -22.3,-4.26 -1.18,0.34 -2.37,0.75 -3.55,1.23 -4.25,1.7 -8.5,4.26 -12.4,7.64 -1.09,0.93 -2.11,1.9 -3.08,2.89 -0.84,0.86 -1.64,1.74 -2.39,2.64 -5.17,6.2 -8.08,13.12 -8.33,19.28 -0.06,1.37 0.01,2.7 0.22,3.97 0.47,2.92 1.65,5.56 3.58,7.72 6.04,6.98 17.94,7.3 29.21,1.59 -9.52,4.29 -19.21,3.81 -24.45,-2.22 -1.84,-2.04 -2.92,-4.55 -3.32,-7.32 -0.16,-1.15 -0.21,-2.34 -0.14,-3.56 0.32,-5.44 2.95,-11.47 7.56,-16.79 0.65,-0.75 1.34,-1.48 2.06,-2.2 0.76,-0.75 1.56,-1.49 2.41,-2.2 3.44,-2.97 7.2,-5.18 10.95,-6.64 1.02,-0.4 2.04,-0.75 3.06,-1.04 7.81,-2.18 15.24,-0.97 19.49,3.87 4.94,5.54 4.51,14.32 -0.21,22.62 -0.17,0.29 -0.35,0.58 -0.52,0.87 -0.13,0.21 -0.25,0.43 -0.38,0.64 0.2,-0.28 0.38,-0.57 0.57,-0.86 0.51,-0.77 0.99,-1.54 1.44,-2.32 5.32,-9.32 5.93,-19.29 0.52,-25.55 z"
   id="path74" />
	<path
   class="st6"
   d="m 217.16,70.56 c -2.75,-1.75 -6.76,-2.75 -13.77,-2.75 h -14.53 l -11.77,54.59 h 9.26 l 4.51,-20.78 h 7.51 c 6.01,0 10.02,-0.75 14.52,-3.76 5.51,-3.26 9.27,-9.27 9.27,-17.53 0,-4.01 -1.75,-7.51 -5,-9.77 z m -8.77,21.04 c -1.75,1.75 -4.26,2.75 -8.76,2.75 h -7.26 l 4.26,-19.03 h 7.01 c 6.01,0 8.51,2.25 8.51,6.76 0,3.51 -1.25,7.01 -3.76,9.52 z"
   id="path76" />
	<path
   class="st6"
   d="m 245.45,87.34 c -3.26,0 -7.26,2.5 -10.52,6.51 0.5,-2.5 0.25,-5.01 -0.5,-6.76 l -7.01,2.76 c 0.75,2.5 0.75,5.01 -0.25,9.77 l -5.01,22.79 h 7.51 l 4.76,-22.04 c 3.01,-4.01 5.76,-6.01 8.26,-6.01 1,0 1.75,0.25 2.25,0.5 l 3.51,-7.01 c -0.99,-0.26 -1.74,-0.51 -3,-0.51 z"
   id="path78" />
	<path
   class="st6"
   d="m 265.49,87.34 c -11.52,0 -19.78,10.52 -19.78,23.79 0,7.76 4.51,12.27 12.02,12.27 13.02,0 20.03,-11.52 20.03,-24.04 0,-7.51 -4.26,-12.02 -12.27,-12.02 z m -6.26,30.3 c -3.51,0 -5.51,-1.75 -5.51,-6.01 0,-7.76 3.76,-18.53 10.52,-18.53 3.26,0 5.51,1.5 5.51,6.01 0,8.52 -3.76,18.53 -10.52,18.53 z"
   id="path80" />
	<path
   class="st6"
   d="m 314.82,74.07 c 3.51,0 6.51,0.75 9.02,3.01 l 5.26,-6.01 c -2.76,-2.5 -7.52,-4.26 -13.02,-4.26 -8.26,0 -16.53,3.76 -22.29,10.77 -5.76,7.01 -9.27,17.53 -9.27,26.3 0,12.27 7.01,19.53 19.03,19.53 6.01,0 11.52,-1.5 16.53,-4.76 l -3.25,-6.01 c -4.01,2.51 -7.01,3.51 -10.77,3.51 -7.26,0 -11.27,-4.01 -11.27,-11.77 0,-6.76 2.51,-17.78 7.26,-23.54 3.26,-4.27 7.76,-6.77 12.77,-6.77 z"
   id="path82" />
	<path
   class="st6"
   d="m 349.13,87.34 c -3.26,0 -7.26,2.5 -10.27,6.51 0.5,-2.5 0.25,-5.01 -0.5,-6.76 l -7.26,2.76 c 0.75,2.5 0.75,5.01 -0.25,9.77 l -5.01,22.79 h 7.51 l 5.01,-22.04 c 3,-4.01 5.51,-6.01 8.01,-6.01 1,0 1.75,0.25 2.5,0.5 l 3.26,-7.01 c -1,-0.26 -1.75,-0.51 -3,-0.51 z"
   id="path84" />
	<path
   class="st6"
   d="m 369.16,87.34 c -4.51,0 -8.26,1.5 -11.77,4.76 -4.76,4.51 -7.76,12.02 -7.76,18.78 0,8.01 5.01,12.52 12.27,12.52 6.01,0 10.02,-1.5 14.28,-5.01 l -2.25,-4.51 c -3.26,2.51 -6.26,3.76 -10.02,3.76 -3.76,0 -6.26,-2 -6.26,-6.26 0,-1.25 0.25,-3 0.5,-3.75 0.5,0 2.25,0.25 4.26,0.25 7.01,0 11.77,-1.5 14.78,-4.26 2,-1.75 3,-4.26 3,-7.01 -0.01,-6.26 -4.27,-9.27 -11.03,-9.27 z m 2.01,13.02 c -1.75,1.75 -4.51,2.25 -8.77,2.25 -1.25,0 -2.75,-0.25 -3,-0.25 1.5,-6.51 4.76,-9.52 8.76,-9.52 3.25,0 4.51,1.75 4.51,4.26 0,1.26 -0.75,2.51 -1.5,3.26 z"
   id="path86" />
	<path
   class="st6"
   d="m 411.74,84.09 c -0.5,1.25 -1,4.26 -1,4.76 -1.25,-0.75 -3.51,-1.25 -6.76,-1.25 -4.01,0 -8.27,1.75 -11.52,4.76 -5.01,4.76 -7.76,12.27 -7.76,19.03 0,7.76 3.26,11.77 10.27,11.77 4.01,0 7.51,-1.75 10.27,-5.01 0,2.25 0.5,3.75 1.25,5.01 l 6.51,-1.5 c -1,-1.75 -1.25,-3.76 0.5,-11.02 L 421.26,73.83 414,72.58 Z m -6.01,27.04 c -2.25,3.51 -6.01,6.01 -9.01,6.01 -2.76,0 -4.01,-2 -4.01,-5.51 0,-4.76 1.75,-11.52 4.76,-14.78 1.5,-2 4.01,-3.26 6.26,-3.26 2.51,0 4.01,0.5 5.51,1.5 z"
   id="path88" />
	<polygon
   class="st7"
   points="422,122.4 429.77,122.4 437.28,87.34 429.27,88.59 "
   id="polygon90" />
	<path
   class="st7"
   d="m 435.53,73.32 c -3.01,0 -5.26,2.25 -5.26,5.01 0,2.76 2.25,5.01 5.01,5.01 3.01,0 5.26,-2.25 5.26,-5.01 0,-2.76 -2.26,-5.01 -5.01,-5.01 z"
   id="path92" />
	<path
   class="st6"
   d="m 457.81,78.08 -8.01,1.75 c -1,2.5 -1.75,5.26 -2.26,8.26 h -4 l -1,5.51 h 3.76 l -4.26,19.53 c -0.25,1.5 -0.25,3.26 -0.25,4.51 0,3.51 2.5,5.76 7.26,5.76 2.26,0 4.76,-0.5 7.26,-1.5 v -4.51 c -1.25,0.5 -2.51,0.75 -3.51,0.75 -2.25,0 -3.25,-0.75 -3.25,-3.01 0,-0.75 0,-2 0.25,-3.26 l 4.01,-18.28 h 6.76 l 2.75,-5.51 h -8.26 c 0.75,-3.24 1.75,-7.25 2.75,-10 z"
   id="path94" />
	<path
   class="st6"
   d="m 524.68,79.58 c 0,-7.26 -5.26,-11.77 -15.78,-11.77 H 491.62 L 479.6,122.4 h 17.78 c 9.26,0 13.77,-1.25 17.78,-5.01 4.25,-3.76 6.26,-8.76 6.26,-12.77 0,-5.51 -3.01,-10.02 -9.01,-11.02 8.51,-2.25 12.27,-8.01 12.27,-14.02 z m -17.78,33.3 c -1.75,1.25 -4.26,2.26 -7.51,2.26 h -9.02 l 3.76,-17.28 h 8.26 c 6.51,0 8.76,2.25 8.76,6.51 0,3.51 -1.75,7.01 -4.25,8.51 z m 4,-24.29 c -1.5,1.25 -3.51,1.75 -7.01,1.75 h -8.26 l 3.25,-14.77 h 7.76 c 5.76,0 7.76,2 7.76,6.01 0.01,3.01 -1.5,5.26 -3.5,7.01 z"
   id="path96" />
	<path
   class="st6"
   d="m 534.44,92.85 c -4.51,4.51 -7.26,12.02 -7.26,19.53 0,7.26 3.51,11.02 9.02,11.02 4.51,0 8.01,-2 10.52,-5.26 0,2.25 0.75,4 2.5,5.51 l 6.26,-4.51 c -1.76,-1.75 -2,-3.51 -1.25,-7.76 l 3.01,-13.52 c 0.25,-2.5 1.25,-6.01 2,-8.02 -2.75,-1.75 -6.76,-2.5 -11.02,-2.5 -5.51,0 -10.02,1.75 -13.78,5.51 z m 12.52,18.03 c -1.5,3.26 -5.01,6.51 -8.26,6.51 -2.51,0 -3.76,-1.5 -3.76,-5.26 0,-4.76 1.5,-11.52 4.51,-15.03 2.75,-3.25 5.01,-3.76 8.01,-3.76 1.26,0 2.51,0.25 3.26,0.5 z"
   id="path98" />
	<path
   class="st6"
   d="m 587.78,87.34 c -4.76,0 -9.27,2.25 -12.52,6.26 0.5,-2.5 0,-5.01 -0.5,-6.51 l -7.01,2.75 c 0.76,2.5 0.5,5.01 -0.25,9.02 l -5.26,23.54 h 7.51 l 5.01,-22.29 c 3.51,-4.76 7.01,-6.26 9.52,-6.26 1.75,0 2.75,0.75 2.75,2.5 0,0.75 -0.25,2 -0.5,3.51 l -4.76,22.54 h 7.52 l 5.26,-24.54 c 0.25,-1 0.25,-2.5 0.25,-3.76 0,-4 -2.51,-6.76 -7.02,-6.76 z"
   id="path100" />
	<polygon
   class="st7"
   points="611.82,102.87 621.59,122.9 630.11,121.9 619.59,103.12 634.36,88.84 626.35,87.59 "
   id="polygon102" />
	<path
   class="st7"
   d="m 616.33,72.06 -7.76,2.76 c 0.5,2 0.25,5.51 -0.5,9.77 l -8.27,37.81 h 7.52 l 8.26,-38.06 c 1.25,-6.02 1.5,-10.27 0.75,-12.28 z"
   id="path104" />
</g>
</svg>
