<?xml version="1.0" encoding="utf-8"?>
<!-- Generator: Adobe Illustrator 26.4.1, SVG Export Plug-In . SVG Version: 6.00 Build 0)  -->
<svg version="1.1" id="Layer_1" xmlns="http://www.w3.org/2000/svg" xmlns:xlink="http://www.w3.org/1999/xlink" x="0px" y="0px"
	 viewBox="0 0 644 160" style="enable-background:new 0 0 644 160;" xml:space="preserve">
<style type="text/css">
	.st0{fill:none;}
	.st1{fill-rule:evenodd;clip-rule:evenodd;fill:#FFCF00;}
	.st2{fill-rule:evenodd;clip-rule:evenodd;fill:#004F90;}
	.st3{fill-rule:evenodd;clip-rule:evenodd;fill:#B20E77;}
	.st4{fill-rule:evenodd;clip-rule:evenodd;fill:#008059;}
	.st5{fill-rule:evenodd;clip-rule:evenodd;fill:#E76601;}
	.st6{fill-rule:evenodd;clip-rule:evenodd;fill:#CF0E14;}
	.st7{fill:#CF0E14;}
</style>
<g>
	<path class="st0" d="M93.29,98.99c3.9-3.38,8.15-5.94,12.4-7.64c-2.51-6.19-5.45-12.58-8.97-19.38
		c-7.88,3.15-15.52,8.21-21.53,14.63c-0.49,0.52-0.97,1.05-1.44,1.57c5.6,4.96,11.11,9.49,16.46,13.7
		C91.18,100.9,92.2,99.93,93.29,98.99z"/>
	<path class="st0" d="M368.16,92.85c-4.01,0-7.26,3-8.76,9.52c0.25,0,1.75,0.25,3,0.25c4.26,0,7.01-0.5,8.77-2.25
		c0.75-0.75,1.5-2,1.5-3.26C372.67,94.6,371.42,92.85,368.16,92.85z"/>
	<path class="st0" d="M125.04,51.53c-9.46-6.33-21.34-7.35-33.28-3.77c0.35,0.67,0.7,1.34,1.06,2.03c2.04,4.03,3.9,7.93,5.63,11.75
		c14.24-5.8,28.49-5.18,37.56,2.91C133.34,59.2,129.67,54.74,125.04,51.53z"/>
	<path class="st0" d="M203.63,75.32h-7.01l-4.26,19.03h7.26c4.51,0,7.01-1,8.76-2.75c2.51-2.5,3.76-6.01,3.76-9.52
		C212.15,77.57,209.64,75.32,203.63,75.32z"/>
	<path class="st0" d="M264.24,93.1c-6.76,0-10.52,10.77-10.52,18.53c0,4.26,2,6.01,5.51,6.01c6.76,0,10.52-10.02,10.52-18.53
		C269.75,94.6,267.49,93.1,264.24,93.1z"/>
	<path class="st0" d="M79.49,123.81c0.26-6.17,3.16-13.09,8.33-19.28c-5.73-3.59-11.66-7.54-17.72-11.89
		c-6.94,9.24-10.66,19.24-10.89,28.25c5,1.2,10.2,2.07,15.5,2.56C76.33,123.6,77.92,123.72,79.49,123.81z"/>
	<path class="st0" d="M131.55,94.39c5.41,6.27,4.8,16.24-0.53,25.55c10.66-16.71,11.27-35.41,0.37-45.56
		c-6.96-6.54-18.02-7.44-29.23-4.27c2.86,6.97,5.2,13.61,7.08,20.01C118.13,87.57,126.62,88.86,131.55,94.39z"/>
	<path class="st0" d="M42.5,42.48c7.18-7.18,15.7-12.34,24.72-15.45c0-0.01-0.01-0.01-0.01-0.02c-13.31,2.68-25.05,9.25-33.76,18.45
		c1.02,1.29,2.06,2.58,3.12,3.87C38.35,46.94,40.33,44.65,42.5,42.48z"/>
	<path class="st0" d="M110.39,37.13c-8.3-3.22-17.36-4.35-26.42-3.43c1.1,1.84,2.19,3.73,3.3,5.71
		C95.04,36.85,102.95,36.02,110.39,37.13z"/>
	<path class="st0" d="M40.36,114.42c4.94,2.26,10.3,4.19,15.93,5.71c-0.44-9.55,2.8-20.48,9.36-30.75c-4.3-3.2-8.66-6.6-13.05-10.23
		C45.21,90.7,41.12,103,40.36,114.42z"/>
	<path class="st0" d="M84.43,50.53C74.67,55,65.19,62.48,57.3,72.55c4.02,4.11,8.03,7.98,12,11.62c1.61-2.1,3.37-4.15,5.26-6.14
		c5.55-5.77,11.71-10.39,18.02-13.76c-0.39-0.71-0.78-1.4-1.19-2.12C89.04,58.03,86.73,54.18,84.43,50.53z"/>
	<path class="st0" d="M79.26,42.7c-1.71-2.48-3.44-4.86-5.18-7.16c-10.63,2.87-20.85,8.58-29.36,17.1c-0.99,0.99-1.92,2-2.83,3.03
		c3.15,3.68,6.45,7.36,9.86,11.04C59.27,55.94,68.95,47.78,79.26,42.7z"/>
	<path class="st0" d="M47,74.41c-0.92-0.8-1.84-1.58-2.76-2.4c-2.97-2.65-5.86-5.3-8.67-7.95c-7.05,11.09-10.37,23.66-9.9,35.89
		c-3.13-13.4-1.48-27.89,4.84-40.74c-1.47-1.44-2.92-2.88-4.34-4.32c-5.46,8.78-8.6,19.06-8.6,30.14c0,5.56,0.82,10.94,2.31,16.06
		c5.02,4.75,11.52,9.08,19.03,12.67C37.33,101.33,39.97,87.42,47,74.41z"/>
	<path class="st0" d="M539.45,97.11c-3,3.51-4.51,10.27-4.51,15.03c0,3.76,1.25,5.26,3.76,5.26c3.25,0,6.76-3.25,8.26-6.51
		l3.76-17.03c-0.75-0.25-2-0.5-3.26-0.5C544.46,93.35,542.2,93.85,539.45,97.11z"/>
	<path class="st0" d="M506.64,75.57h-7.76l-3.25,14.77h8.26c3.51,0,5.51-0.5,7.01-1.75c2-1.75,3.51-4.01,3.51-7.01
		C514.41,77.57,512.41,75.57,506.64,75.57z"/>
	<path class="st0" d="M502.39,97.86h-8.26l-3.76,17.28h9.02c3.25,0,5.76-1,7.51-2.26c2.5-1.5,4.25-5.01,4.25-8.51
		C511.15,100.11,508.9,97.86,502.39,97.86z"/>
	<path class="st0" d="M397.46,96.86c-3,3.26-4.76,10.02-4.76,14.78c0,3.51,1.25,5.51,4.01,5.51c3,0,6.76-2.5,9.01-6.01l3.51-16.03
		c-1.5-1-3-1.5-5.51-1.5C401.47,93.6,398.97,94.85,397.46,96.86z"/>
	<path class="st1" d="M40.36,114.42c-0.14,2.14-0.18,4.25-0.09,6.32c-0.61-2.26-1.06-4.6-1.36-6.99
		c-7.51-3.58-14.01-7.92-19.03-12.67c1.64,5.61,4.11,10.89,7.28,15.72c8.54,4.81,18.17,7.81,29.99,9.53
		c-0.48-1.98-0.76-4.06-0.86-6.2C50.66,118.61,45.3,116.68,40.36,114.42z"/>
	<path class="st1" d="M84.74,127.55c10.68-0.76,20.28-3.08,28.56-6.97c-8.75,2.19-18.25,3.53-28.7,3.41
		C84.52,125.21,84.57,126.4,84.74,127.55z"/>
	<path class="st1" d="M79.49,123.81c-1.57-0.09-3.16-0.21-4.77-0.37c-5.31-0.48-10.5-1.36-15.5-2.56c-0.05,1.98,0.06,3.92,0.35,5.78
		c1.68,0.22,3.39,0.41,5.16,0.58c5.18,0.48,10.18,0.65,14.99,0.53C79.5,126.5,79.43,125.17,79.49,123.81z"/>
	<path class="st1" d="M30.51,59.2c1.69-3.43,3.71-6.73,6.06-9.87c-1.06-1.29-2.1-2.58-3.12-3.87c-2.74,2.89-5.18,6.04-7.27,9.42
		C27.59,56.32,29.04,57.76,30.51,59.2z"/>
	<path class="st1" d="M47,74.41c1.4-2.59,2.95-5.14,4.7-7.64c0.01-0.02,0.03-0.04,0.04-0.06c-3.41-3.67-6.71-7.36-9.86-11.04
		c-2.36,2.67-4.47,5.48-6.31,8.38c2.82,2.65,5.7,5.3,8.67,7.95C45.16,72.82,46.08,73.61,47,74.41z"/>
	<path class="st1" d="M57.3,72.55c-0.99,1.26-1.96,2.55-2.9,3.9c-0.62,0.89-1.22,1.8-1.8,2.7c4.39,3.63,8.75,7.03,13.05,10.23
		c1.12-1.76,2.33-3.5,3.65-5.2C65.33,80.53,61.32,76.66,57.3,72.55z"/>
	<path class="st1" d="M90.21,101.89c-5.35-4.21-10.86-8.75-16.46-13.7c-1.3,1.46-2.51,2.95-3.64,4.45
		c6.06,4.35,11.99,8.29,17.72,11.89C88.57,103.63,89.37,102.75,90.21,101.89z"/>
	<path class="st1" d="M113.77,119.47c-6.13-4.43-12.7-9.2-19.56-14.47c-0.73,0.72-1.41,1.45-2.06,2.2
		C99.81,111.86,107.08,115.91,113.77,119.47z"/>
	<path class="st1" d="M67.36,26.98c-0.05,0.01-0.11,0.02-0.16,0.03c0,0.01,0.01,0.01,0.01,0.02C67.26,27.01,67.31,26.99,67.36,26.98
		z"/>
	<path class="st1" d="M109.24,90.13c-1.88-6.4-4.22-13.04-7.08-20.01c-1.82,0.51-3.63,1.13-5.44,1.86
		c3.52,6.8,6.45,13.19,8.97,19.38C106.88,90.88,108.06,90.47,109.24,90.13z"/>
	<path class="st1" d="M91.76,47.76c-2.45,0.73-4.9,1.66-7.33,2.78c2.3,3.65,4.61,7.5,6.96,11.63c0.41,0.72,0.79,1.41,1.19,2.12
		c1.95-1.04,3.91-1.95,5.87-2.75c-1.73-3.81-3.59-7.72-5.63-11.75C92.46,49.09,92.11,48.42,91.76,47.76z"/>
	<path class="st1" d="M87.26,39.41c-1.11-1.98-2.2-3.87-3.3-5.71c-3.31,0.34-6.62,0.96-9.89,1.84c1.75,2.3,3.47,4.68,5.18,7.16
		C81.89,41.4,84.57,40.3,87.26,39.41z"/>
	<path class="st1" d="M114.88,118.52c-0.76-7.58-2.14-15.31-4.25-23.39c-1.02,0.28-2.04,0.64-3.06,1.04
		C110.44,103.71,112.76,111.03,114.88,118.52z"/>
	<path class="st2" d="M17.57,85.02c0-11.09,3.14-21.36,8.6-30.14c2.1-3.37,4.53-6.53,7.27-9.42c8.71-9.2,20.44-15.77,33.76-18.45
		c0.05-0.01,0.11-0.02,0.16-0.03c21.24-7.27,45.3-3.16,61.65,12.97c2.44,2.39,4.59,4.96,6.47,7.68
		c-11.7-19.67-33.5-32.92-58.37-32.92c-37.3,0-67.46,29.53-67.46,65.88c0,36.19,30.16,65.72,67.46,65.72
		c7.3,0,14.29-1.11,20.79-3.17c-5.4,1.43-11.11,2.06-16.98,2.06c-22.65,0-42.55-11.36-53.75-28.38c-3.18-4.83-5.64-10.11-7.28-15.72
		C18.39,95.97,17.57,90.59,17.57,85.02z"/>
	<path class="st3" d="M67.36,26.98c-0.05,0.02-0.1,0.03-0.15,0.05c-9.02,3.11-17.53,8.27-24.72,15.45
		c-2.17,2.17-4.14,4.46-5.93,6.85c-2.35,3.14-4.37,6.45-6.06,9.87c-6.33,12.85-7.98,27.35-4.84,40.74
		c-0.47-12.23,2.85-24.8,9.9-35.89c1.85-2.91,3.95-5.71,6.31-8.38c0.91-1.03,1.85-2.04,2.83-3.03c8.52-8.52,18.74-14.23,29.36-17.1
		c3.27-0.88,6.58-1.5,9.89-1.84c9.06-0.93,18.12,0.21,26.42,3.43c5.86,0.87,11.42,2.94,16.4,6.3c13.18,8.73,19.53,24.61,18.26,41.91
		c0,0-0.25,2.56-0.57,4.77c2.32-14.74-0.46-30.11-9-42.48c-1.88-2.72-4.03-5.29-6.47-7.68C112.66,23.81,88.6,19.7,67.36,26.98z"/>
	<path class="st4" d="M126.79,43.43c-4.98-3.36-10.54-5.43-16.4-6.3c-7.44-1.11-15.35-0.29-23.12,2.28c-2.69,0.89-5.37,1.99-8,3.29
		c-10.31,5.08-19.99,13.24-27.52,24.01c-0.01,0.02-0.03,0.04-0.04,0.06c-1.75,2.5-3.3,5.05-4.7,7.64
		c-7.03,13.01-9.67,26.92-8.09,39.34c0.3,2.39,0.75,4.73,1.36,6.99c-0.09-2.07-0.06-4.18,0.09-6.32C41.12,103,45.21,90.7,52.6,79.15
		c0.58-0.91,1.18-1.81,1.8-2.7c0.94-1.34,1.91-2.64,2.9-3.9C65.19,62.48,74.67,55,84.43,50.53c2.43-1.11,4.89-2.04,7.33-2.78
		c11.94-3.58,23.82-2.56,33.28,3.77c4.63,3.21,8.3,7.67,10.97,12.91c0.1,0.09,0.21,0.17,0.3,0.26c7.01,6.44,9.49,16.36,7.87,27.22
		c0.1-0.52,0.2-1.15,0.3-1.82c0.32-2.2,0.57-4.77,0.57-4.77C146.31,68.04,139.96,52.16,126.79,43.43z"/>
	<path class="st5" d="M128.85,123.12c0.18-0.21,0.36-0.43,0.54-0.64c0.18-0.29,0.36-0.58,0.52-0.87
		C129.57,122.12,129.22,122.62,128.85,123.12z"/>
	<path class="st5" d="M136.31,64.7c-0.1-0.09-0.2-0.17-0.3-0.26c-9.07-8.1-23.32-8.72-37.56-2.91c-1.96,0.8-3.92,1.71-5.87,2.75
		c-6.31,3.37-12.46,7.98-18.02,13.76c-1.9,1.99-3.65,4.04-5.26,6.14c-1.31,1.71-2.53,3.45-3.65,5.2
		c-6.56,10.27-9.81,21.2-9.36,30.75c0.1,2.15,0.39,4.22,0.86,6.2c1.21,5.06,3.65,9.51,7.41,12.98c0.63,0.63,1.27,1.11,2.06,1.59
		c-3.89-3.84-6.22-8.74-7.06-14.23c-0.29-1.87-0.4-3.8-0.35-5.78c0.24-9,3.96-19.01,10.89-28.25c1.13-1.51,2.34-2.99,3.64-4.45
		c0.47-0.53,0.95-1.05,1.44-1.57c6-6.42,13.64-11.48,21.53-14.63c1.81-0.72,3.63-1.34,5.44-1.86c11.21-3.17,22.26-2.27,29.23,4.27
		c10.89,10.15,10.28,28.84-0.37,45.56c-0.45,0.78-0.93,1.55-1.44,2.32c8.13-9.59,13.1-20.36,14.6-30.34
		C145.8,81.07,143.33,71.15,136.31,64.7z"/>
	<path class="st6" d="M131.55,94.39c-4.93-5.52-13.42-6.82-22.3-4.26c-1.18,0.34-2.37,0.75-3.55,1.23c-4.25,1.7-8.5,4.26-12.4,7.64
		c-1.09,0.93-2.11,1.9-3.08,2.89c-0.84,0.86-1.64,1.74-2.39,2.64c-5.17,6.2-8.08,13.12-8.33,19.28c-0.06,1.37,0.01,2.7,0.22,3.97
		c0.47,2.92,1.65,5.56,3.58,7.72c6.04,6.98,17.94,7.3,29.21,1.59c-9.52,4.29-19.21,3.81-24.45-2.22c-1.84-2.04-2.92-4.55-3.32-7.32
		c-0.16-1.15-0.21-2.34-0.14-3.56c0.32-5.44,2.95-11.47,7.56-16.79c0.65-0.75,1.34-1.48,2.06-2.2c0.76-0.75,1.56-1.49,2.41-2.2
		c3.44-2.97,7.2-5.18,10.95-6.64c1.02-0.4,2.04-0.75,3.06-1.04c7.81-2.18,15.24-0.97,19.49,3.87c4.94,5.54,4.51,14.32-0.21,22.62
		c-0.17,0.29-0.35,0.58-0.52,0.87c-0.13,0.21-0.25,0.43-0.38,0.64c0.2-0.28,0.38-0.57,0.57-0.86c0.51-0.77,0.99-1.54,1.44-2.32
		C136.35,110.62,136.96,100.65,131.55,94.39z"/>
	<path class="st6" d="M217.16,70.56c-2.75-1.75-6.76-2.75-13.77-2.75h-14.53l-11.77,54.59h9.26l4.51-20.78h7.51
		c6.01,0,10.02-0.75,14.52-3.76c5.51-3.26,9.27-9.27,9.27-17.53C222.16,76.32,220.41,72.82,217.16,70.56z M208.39,91.6
		c-1.75,1.75-4.26,2.75-8.76,2.75h-7.26l4.26-19.03h7.01c6.01,0,8.51,2.25,8.51,6.76C212.15,85.59,210.9,89.09,208.39,91.6z"/>
	<path class="st6" d="M245.45,87.34c-3.26,0-7.26,2.5-10.52,6.51c0.5-2.5,0.25-5.01-0.5-6.76l-7.01,2.76
		c0.75,2.5,0.75,5.01-0.25,9.77l-5.01,22.79h7.51l4.76-22.04c3.01-4.01,5.76-6.01,8.26-6.01c1,0,1.75,0.25,2.25,0.5l3.51-7.01
		C247.46,87.59,246.71,87.34,245.45,87.34z"/>
	<path class="st6" d="M265.49,87.34c-11.52,0-19.78,10.52-19.78,23.79c0,7.76,4.51,12.27,12.02,12.27
		c13.02,0,20.03-11.52,20.03-24.04C277.76,91.85,273.5,87.34,265.49,87.34z M259.23,117.64c-3.51,0-5.51-1.75-5.51-6.01
		c0-7.76,3.76-18.53,10.52-18.53c3.26,0,5.51,1.5,5.51,6.01C269.75,107.63,265.99,117.64,259.23,117.64z"/>
	<path class="st6" d="M314.82,74.07c3.51,0,6.51,0.75,9.02,3.01l5.26-6.01c-2.76-2.5-7.52-4.26-13.02-4.26
		c-8.26,0-16.53,3.76-22.29,10.77c-5.76,7.01-9.27,17.53-9.27,26.3c0,12.27,7.01,19.53,19.03,19.53c6.01,0,11.52-1.5,16.53-4.76
		l-3.25-6.01c-4.01,2.51-7.01,3.51-10.77,3.51c-7.26,0-11.27-4.01-11.27-11.77c0-6.76,2.51-17.78,7.26-23.54
		C305.31,76.57,309.81,74.07,314.82,74.07z"/>
	<path class="st6" d="M349.13,87.34c-3.26,0-7.26,2.5-10.27,6.51c0.5-2.5,0.25-5.01-0.5-6.76l-7.26,2.76
		c0.75,2.5,0.75,5.01-0.25,9.77l-5.01,22.79h7.51l5.01-22.04c3-4.01,5.51-6.01,8.01-6.01c1,0,1.75,0.25,2.5,0.5l3.26-7.01
		C351.13,87.59,350.38,87.34,349.13,87.34z"/>
	<path class="st6" d="M369.16,87.34c-4.51,0-8.26,1.5-11.77,4.76c-4.76,4.51-7.76,12.02-7.76,18.78c0,8.01,5.01,12.52,12.27,12.52
		c6.01,0,10.02-1.5,14.28-5.01l-2.25-4.51c-3.26,2.51-6.26,3.76-10.02,3.76c-3.76,0-6.26-2-6.26-6.26c0-1.25,0.25-3,0.5-3.75
		c0.5,0,2.25,0.25,4.26,0.25c7.01,0,11.77-1.5,14.78-4.26c2-1.75,3-4.26,3-7.01C380.18,90.35,375.92,87.34,369.16,87.34z
		 M371.17,100.36c-1.75,1.75-4.51,2.25-8.77,2.25c-1.25,0-2.75-0.25-3-0.25c1.5-6.51,4.76-9.52,8.76-9.52
		c3.25,0,4.51,1.75,4.51,4.26C372.67,98.36,371.92,99.61,371.17,100.36z"/>
	<path class="st6" d="M411.74,84.09c-0.5,1.25-1,4.26-1,4.76c-1.25-0.75-3.51-1.25-6.76-1.25c-4.01,0-8.27,1.75-11.52,4.76
		c-5.01,4.76-7.76,12.27-7.76,19.03c0,7.76,3.26,11.77,10.27,11.77c4.01,0,7.51-1.75,10.27-5.01c0,2.25,0.5,3.75,1.25,5.01l6.51-1.5
		c-1-1.75-1.25-3.76,0.5-11.02l7.76-36.81l-7.26-1.25L411.74,84.09z M405.73,111.13c-2.25,3.51-6.01,6.01-9.01,6.01
		c-2.76,0-4.01-2-4.01-5.51c0-4.76,1.75-11.52,4.76-14.78c1.5-2,4.01-3.26,6.26-3.26c2.51,0,4.01,0.5,5.51,1.5L405.73,111.13z"/>
	<polygon class="st7" points="422,122.4 429.77,122.4 437.28,87.34 429.27,88.59 	"/>
	<path class="st7" d="M435.53,73.32c-3.01,0-5.26,2.25-5.26,5.01c0,2.76,2.25,5.01,5.01,5.01c3.01,0,5.26-2.25,5.26-5.01
		C440.54,75.57,438.28,73.32,435.53,73.32z"/>
	<path class="st6" d="M457.81,78.08l-8.01,1.75c-1,2.5-1.75,5.26-2.26,8.26h-4l-1,5.51h3.76l-4.26,19.53
		c-0.25,1.5-0.25,3.26-0.25,4.51c0,3.51,2.5,5.76,7.26,5.76c2.26,0,4.76-0.5,7.26-1.5v-4.51c-1.25,0.5-2.51,0.75-3.51,0.75
		c-2.25,0-3.25-0.75-3.25-3.01c0-0.75,0-2,0.25-3.26l4.01-18.28h6.76l2.75-5.51h-8.26C455.81,84.84,456.81,80.83,457.81,78.08z"/>
	<path class="st6" d="M524.68,79.58c0-7.26-5.26-11.77-15.78-11.77h-17.28L479.6,122.4h17.78c9.26,0,13.77-1.25,17.78-5.01
		c4.25-3.76,6.26-8.76,6.26-12.77c0-5.51-3.01-10.02-9.01-11.02C520.92,91.35,524.68,85.59,524.68,79.58z M506.9,112.88
		c-1.75,1.25-4.26,2.26-7.51,2.26h-9.02l3.76-17.28h8.26c6.51,0,8.76,2.25,8.76,6.51C511.15,107.88,509.4,111.38,506.9,112.88z
		 M510.9,88.59c-1.5,1.25-3.51,1.75-7.01,1.75h-8.26l3.25-14.77h7.76c5.76,0,7.76,2,7.76,6.01C514.41,84.59,512.9,86.84,510.9,88.59
		z"/>
	<path class="st6" d="M534.44,92.85c-4.51,4.51-7.26,12.02-7.26,19.53c0,7.26,3.51,11.02,9.02,11.02c4.51,0,8.01-2,10.52-5.26
		c0,2.25,0.75,4,2.5,5.51l6.26-4.51c-1.76-1.75-2-3.51-1.25-7.76l3.01-13.52c0.25-2.5,1.25-6.01,2-8.02
		c-2.75-1.75-6.76-2.5-11.02-2.5C542.71,87.34,538.2,89.09,534.44,92.85z M546.96,110.88c-1.5,3.26-5.01,6.51-8.26,6.51
		c-2.51,0-3.76-1.5-3.76-5.26c0-4.76,1.5-11.52,4.51-15.03c2.75-3.25,5.01-3.76,8.01-3.76c1.26,0,2.51,0.25,3.26,0.5L546.96,110.88z
		"/>
	<path class="st6" d="M587.78,87.34c-4.76,0-9.27,2.25-12.52,6.26c0.5-2.5,0-5.01-0.5-6.51l-7.01,2.75c0.76,2.5,0.5,5.01-0.25,9.02
		l-5.26,23.54h7.51l5.01-22.29c3.51-4.76,7.01-6.26,9.52-6.26c1.75,0,2.75,0.75,2.75,2.5c0,0.75-0.25,2-0.5,3.51l-4.76,22.54h7.52
		l5.26-24.54c0.25-1,0.25-2.5,0.25-3.76C594.8,90.1,592.29,87.34,587.78,87.34z"/>
	<polygon class="st7" points="634.36,88.84 626.35,87.59 611.82,102.87 621.59,122.9 630.11,121.9 619.59,103.12 	"/>
	<path class="st7" d="M616.33,72.06l-7.76,2.76c0.5,2,0.25,5.51-0.5,9.77l-8.27,37.81h7.52l8.26-38.06
		C616.83,78.32,617.08,74.07,616.33,72.06z"/>
</g>
</svg>
