<?xml version="1.0" encoding="utf-8"?>
<!-- Generator: Adobe Illustrator 27.1.1, SVG Export Plug-In . SVG Version: 6.00 Build 0)  -->
<svg version="1.1" id="Ebene_1" xmlns="http://www.w3.org/2000/svg" xmlns:xlink="http://www.w3.org/1999/xlink" x="0px" y="0px"
	 viewBox="0 0 352.78 89.67" style="enable-background:new 0 0 352.78 89.67;" xml:space="preserve">
<style type="text/css">
	.st0{fill:#80CC28;}
	.st1{fill:#FFFFFF;fill-opacity:0.9412;}
	.st2{fill:#FFFFFF;}
	.st3{fill:#4A6FAE;}
</style>
<path class="st0" d="M47.22,57.72c0,0-1.71,2.39-3.23,3.56c0,0,0.89,1.36,2.12,2c0.43,0.22,1.94,1.13,2.68,2.74
	c0.75,1.61,1.01,3.85,0.03,5.67s-2.4,2.88-3.71,3.24c-1.31,0.36-2.19,0.62-4.46-0.12c0,0-1.64,2.35-2.15,2.59
	c0,0,0.03,0.78,0.12,0.95c0,0,2.57,0.27,4.33,2.24c1.76,1.97,1.47,4.05,1.2,5.39h303.92V57.68L47.22,57.72z"/>
<g id="g5067_00000045601221594450271670000013149953419985756303_" transform="translate(0,69.842652)">
	<g id="text121_00000135667840211151361670000017763927032770245310_">
	</g>
	<g id="text123_00000075125537397239548960000005535455548032123823_">
	</g>
	<g id="text125_00000040538395113410985700000003618628996215595657_">
	</g>
	<g id="text127_00000075152168863321936820000016326535308366039978_">
	</g>
	<g id="text129_00000074428288864407157990000005297544018866226849_">
	</g>
	<g id="text131_00000134223313798077812960000000587669952638944925_">
	</g>
	<g id="text139_00000093154013177400216560000008199342186879555464_">
	</g>
	<g id="text141_00000121965126250804947510000016115660629802693774_">
	</g>
	<g id="text143_00000032608121924845192190000010024504425534930871_">
	</g>
	<g id="text145_00000129911681626590791250000015686149713728829087_">
	</g>
	<g id="flowRoot4237_00000130632683180542696910000012233111433533176229_">
	</g>
	
		<g id="g4327_00000021829801979671094650000003250989910412632475_" transform="matrix(2.9995243,0,0,2.9995243,-829.18629,-52.922392)">
		<g id="g151_00000057840669454669888810000015605355809733636798_" transform="translate(227.43718,-153.74849)">
			<g>
				<path id="path159_00000111890234763271599660000008893271274702546321_" class="st1" d="M128.89,172.21
					c0,0.99,0.78,1.77,1.75,1.77c0.97,0,1.74-0.79,1.74-1.77c0-1.02-0.76-1.8-1.74-1.8C129.65,170.41,128.89,171.19,128.89,172.21
					 M133.09,172.2c0,1.35-1.1,2.46-2.45,2.46c-1.38,0-2.47-1.07-2.47-2.44c0-1.37,1.1-2.48,2.47-2.48
					C131.99,169.74,133.09,170.84,133.09,172.2"/>
			</g>
			<g>
				<path id="path161_00000014600550655631690570000003516339358398956171_" class="st1" d="M134.92,171.98
					c0.66,0,0.98-0.25,0.98-0.77c0-0.48-0.33-0.72-1.01-0.72h-0.23v1.49H134.92z M134.65,174.56h-0.71v-4.74h0.8
					c0.72,0,1.02,0.07,1.32,0.3c0.32,0.25,0.52,0.67,0.52,1.11c0,0.86-0.62,1.41-1.59,1.41h-0.33L134.65,174.56L134.65,174.56z"/>
			</g>
		</g>
		<path id="polygon163_00000124854784790327432180000004678392031313027226_" class="st1" d="M364.7,16.08h2.6v0.67h-1.89v1.14h1.83
			v0.67h-1.83v1.58h1.89v0.67h-2.6L364.7,16.08z"/>
		<path id="polygon165_00000062162196458193145300000006414525030746558628_" class="st1" d="M368.9,17.5v3.31h-0.71v-5.05
			l3.43,3.61v-3.29h0.71v5.03L368.9,17.5z"/>
		<g id="g167_00000146487984032333056970000015333329881229481144_" transform="translate(227.43718,-153.74849)">
			<g>
				<path id="path175_00000170236406971165194640000007561876443517646209_" class="st1" d="M150.49,172.29
					c0,0.64-0.07,0.95-0.29,1.31c-0.39,0.63-1.18,1.04-1.99,1.04c-1.31,0-2.41-1.11-2.41-2.43c0-1.35,1.11-2.45,2.46-2.45
					c0.82,0,1.43,0.33,2.04,1.11l-0.25,0.19c-0.2-0.26-0.3-0.38-0.45-0.5c-0.36-0.32-0.87-0.5-1.36-0.5c-1.16,0-2.13,0.99-2.13,2.16
					c0,1.16,0.96,2.13,2.12,2.13c0.68,0,1.4-0.38,1.72-0.91c0.14-0.23,0.2-0.46,0.21-0.87h-1.65v-0.28L150.49,172.29L150.49,172.29z
					"/>
			</g>
		</g>
		<path id="rect177_00000031896829327403718590000005959468789630538139_" class="st1" d="M378.89,16.08h0.3v4.73h-0.3V16.08z"/>
		<g id="g179_00000132775125706031132350000018298014561723250062_" transform="translate(227.43718,-153.74849)">
			<g>
				<path id="path187_00000158735300862808322800000017719422555926556065_" class="st1" d="M155.12,170.62
					c-0.27-0.41-0.52-0.57-0.92-0.57c-0.5,0-0.88,0.39-0.88,0.9c0,0.38,0.19,0.59,0.83,0.9c0.61,0.29,0.73,0.36,0.94,0.49
					c0.33,0.22,0.49,0.53,0.49,0.92c0,0.75-0.67,1.38-1.47,1.38c-0.65,0-1.12-0.34-1.39-1.02l0.26-0.13
					c0.29,0.61,0.61,0.85,1.13,0.85c0.64,0,1.15-0.5,1.15-1.11c0-0.29-0.16-0.55-0.46-0.72c-0.11-0.06-0.27-0.14-0.47-0.25
					l-0.13-0.06l-0.13-0.07l-0.13-0.06c-0.73-0.36-0.93-0.61-0.93-1.15c0-0.66,0.52-1.16,1.21-1.16c0.49,0,0.9,0.24,1.14,0.67
					L155.12,170.62L155.12,170.62z"/>
			</g>
			<g>
				<path id="path189_00000002347497508931854400000003908719969049155713_" class="st1" d="M156.89,174.35
					c0,0.15-0.11,0.26-0.25,0.26c-0.14,0-0.26-0.12-0.26-0.26c0-0.14,0.11-0.26,0.26-0.26
					C156.78,174.09,156.89,174.21,156.89,174.35"/>
			</g>
			<g>
				<path id="path191_00000165200786890192076250000014062123777599088798_" class="st1" d="M160.12,172.35
					c-0.35-0.35-0.63-0.48-1.02-0.48c-0.66,0-1.19,0.56-1.19,1.26c0,0.7,0.53,1.25,1.19,1.25c0.4,0,0.73-0.17,1.04-0.52v0.38
					c-0.33,0.28-0.66,0.4-1.04,0.4c-0.84,0-1.48-0.65-1.48-1.5c0-0.88,0.64-1.54,1.48-1.54c0.39,0,0.68,0.11,1.01,0.37V172.35
					L160.12,172.35z"/>
			</g>
			<g>
				<path id="path193_00000152245041104220870560000010187005196885886396_" class="st1" d="M161.14,169.39v2.73
					c0.23-0.37,0.49-0.52,0.88-0.52c0.33,0,0.65,0.16,0.8,0.4c0.1,0.16,0.14,0.38,0.14,0.73v1.82h-0.28v-1.82
					c0-0.62-0.2-0.87-0.69-0.87c-0.56,0-0.85,0.4-0.85,1.19v1.5h-0.28v-5.17L161.14,169.39L161.14,169.39z"/>
			</g>
		</g>
	</g>
</g>
<g>
	<path class="st2" d="M215.8,77.99h-1.1V66.87h1.1v5.68c0.75-0.93,1.71-1.04,2.17-1.04c1.98,0,3.08,1.65,3.08,3.36
		c0,1.74-1.11,3.31-3.04,3.31c-1.02,0-1.74-0.46-2.21-1.07V77.99z M219.92,74.86c0-1.56-1.05-2.38-2.08-2.38
		c-1.02,0-2.11,0.84-2.11,2.36c0,1.3,0.82,2.35,2.12,2.35C219.14,77.2,219.92,76.13,219.92,74.86z"/>
	<path class="st2" d="M224.72,77.4l-2.91-5.74h1.25l2.24,4.53l2.06-4.53h1.22l-4.65,9.84h-1.22L224.72,77.4z"/>
</g>
<g id="text920_00000099649121992389227190000002263933207466423168_">
	<path id="path829_00000043415265081346219880000003235344565686195344_" class="st3" d="M89.35,27.5c0,1.67-0.17,3.26-0.52,4.79
		c-0.34,1.51-0.84,2.93-1.49,4.25c-0.64,1.32-1.42,2.54-2.34,3.66c-0.93,1.1-1.98,2.07-3.17,2.91l9.46,10.31h-5.72
		c-0.82,0-1.57-0.11-2.24-0.33c-0.65-0.22-1.25-0.64-1.8-1.24l-5.46-6.03c-0.88,0.24-1.78,0.42-2.71,0.54
		c-0.91,0.12-1.86,0.18-2.86,0.18c-2.82,0-5.39-0.47-7.73-1.42c-2.32-0.96-4.31-2.29-5.98-3.99c-1.65-1.7-2.93-3.71-3.84-6.03
		c-0.91-2.34-1.37-4.87-1.37-7.6s0.46-5.26,1.37-7.58c0.91-2.34,2.19-4.35,3.84-6.05c1.67-1.7,3.66-3.02,5.98-3.97
		c2.34-0.96,4.91-1.44,7.73-1.44s5.39,0.48,7.7,1.44c2.32,0.96,4.3,2.29,5.95,3.99c1.65,1.68,2.93,3.69,3.84,6.03
		C88.9,22.24,89.35,24.77,89.35,27.5L89.35,27.5z M82.24,27.5c0-2.04-0.27-3.87-0.82-5.49c-0.53-1.63-1.31-3.01-2.32-4.15
		c-1.01-1.13-2.25-2-3.71-2.6c-1.44-0.6-3.07-0.9-4.9-0.9s-3.46,0.3-4.92,0.9c-1.46,0.6-2.71,1.47-3.74,2.6
		c-1.01,1.13-1.8,2.52-2.34,4.15c-0.55,1.61-0.82,3.44-0.82,5.49s0.27,3.88,0.82,5.51c0.55,1.61,1.33,2.99,2.34,4.12
		c1.03,1.12,2.28,1.98,3.74,2.58c1.46,0.6,3.1,0.9,4.92,0.9c1.82,0,3.45-0.3,4.9-0.9c1.46-0.6,2.7-1.46,3.71-2.58
		c1.01-1.13,1.79-2.51,2.32-4.12C81.97,31.38,82.24,29.54,82.24,27.5L82.24,27.5z"/>
	<path id="path831_00000075155198091627992650000006725451545414506891_" class="st3" d="M119.35,8.87v5.51h-16.52v11.03h13.94v5.54
		h-13.94v15.18h-6.98V8.87H119.35z"/>
	<path id="path833_00000183930015733754395530000005485927730767936647_" class="st3" d="M132.23,19.69v26.44h-6.36V19.69H132.23z
		 M133.18,11.99c0,0.55-0.11,1.06-0.33,1.55c-0.22,0.48-0.52,0.9-0.9,1.26c-0.36,0.36-0.79,0.65-1.29,0.88
		c-0.5,0.21-1.03,0.31-1.6,0.31c-0.55,0-1.07-0.1-1.57-0.31c-0.48-0.22-0.9-0.52-1.26-0.88c-0.36-0.36-0.65-0.78-0.88-1.26
		c-0.21-0.48-0.31-1-0.31-1.55c0-0.57,0.1-1.1,0.31-1.6c0.22-0.5,0.52-0.93,0.88-1.29c0.36-0.36,0.78-0.64,1.26-0.85
		c0.5-0.22,1.02-0.33,1.57-0.33c0.57,0,1.1,0.11,1.6,0.33c0.5,0.21,0.93,0.49,1.29,0.85c0.38,0.36,0.68,0.79,0.9,1.29
		C133.07,10.89,133.18,11.42,133.18,11.99z"/>
	<path id="path835_00000160906166800498550920000016359774396319849603_" class="st3" d="M151.37,19.28c1.67,0,3.19,0.27,4.59,0.8
		c1.41,0.53,2.62,1.31,3.63,2.34c1.01,1.01,1.8,2.27,2.37,3.76c0.57,1.48,0.85,3.17,0.85,5.08c0,0.48-0.03,0.88-0.08,1.21
		c-0.03,0.31-0.11,0.56-0.23,0.75c-0.1,0.17-0.25,0.3-0.44,0.39c-0.19,0.07-0.43,0.1-0.72,0.1h-16.34c0.19,2.71,0.92,4.71,2.19,5.98
		s2.95,1.91,5.05,1.91c1.03,0,1.92-0.12,2.65-0.36c0.76-0.24,1.41-0.51,1.96-0.8c0.57-0.29,1.06-0.56,1.47-0.8
		c0.43-0.24,0.84-0.36,1.24-0.36c0.26,0,0.48,0.05,0.67,0.15c0.19,0.1,0.35,0.25,0.49,0.44l1.86,2.32c-0.7,0.82-1.49,1.52-2.37,2.09
		c-0.88,0.55-1.8,1-2.76,1.34c-0.94,0.33-1.92,0.56-2.91,0.7c-0.98,0.14-1.93,0.21-2.86,0.21c-1.84,0-3.55-0.3-5.13-0.9
		c-1.58-0.62-2.95-1.52-4.12-2.71c-1.17-1.2-2.09-2.68-2.76-4.43c-0.67-1.77-1-3.81-1-6.13c0-1.8,0.29-3.5,0.88-5.08
		c0.58-1.6,1.42-2.98,2.5-4.15c1.1-1.19,2.43-2.12,3.99-2.81C147.62,19.62,149.4,19.28,151.37,19.28z M151.5,23.84
		c-1.86,0-3.31,0.52-4.35,1.57c-1.05,1.05-1.72,2.53-2.01,4.46h11.96c0-0.82-0.11-1.6-0.33-2.32c-0.22-0.74-0.57-1.38-1.03-1.93
		c-0.46-0.55-1.05-0.98-1.75-1.29C153.27,24,152.45,23.84,151.5,23.84L151.5,23.84z"/>
	<path id="path837_00000105418422051656772690000012359979812742538114_" class="st3" d="M175.8,7.84v38.29h-6.36V7.84H175.8z"/>
	<path id="path839_00000042013198939917067420000018337305608674309018_" class="st3" d="M202.62,46.13c-0.82,0-1.37-0.39-1.62-1.16
		l-0.52-2.55c-0.55,0.62-1.13,1.18-1.73,1.67c-0.6,0.5-1.25,0.93-1.96,1.29c-0.69,0.36-1.43,0.64-2.24,0.82
		c-0.79,0.21-1.65,0.31-2.58,0.31c-1.44,0-2.77-0.3-3.97-0.9s-2.24-1.47-3.12-2.6c-0.86-1.15-1.53-2.57-2.01-4.25
		c-0.46-1.68-0.7-3.61-0.7-5.77c0-1.96,0.27-3.78,0.8-5.46c0.53-1.68,1.3-3.14,2.29-4.38c1-1.24,2.19-2.2,3.58-2.89
		c1.39-0.7,2.95-1.06,4.69-1.06c1.48,0,2.74,0.24,3.79,0.72c1.05,0.46,1.98,1.09,2.81,1.88V7.84h6.36v38.29H202.62z M194.14,41.46
		c1.32,0,2.45-0.27,3.38-0.82c0.93-0.55,1.8-1.33,2.63-2.34V26.44c-0.72-0.88-1.51-1.49-2.37-1.86c-0.84-0.36-1.75-0.54-2.73-0.54
		c-0.96,0-1.84,0.18-2.63,0.54c-0.77,0.36-1.43,0.91-1.98,1.65c-0.53,0.72-0.94,1.65-1.24,2.78c-0.29,1.12-0.44,2.44-0.44,3.97
		c0,1.55,0.12,2.86,0.36,3.94c0.26,1.06,0.62,1.94,1.08,2.63c0.46,0.67,1.03,1.16,1.7,1.47C192.57,41.32,193.32,41.46,194.14,41.46
		L194.14,41.46z"/>
	<path id="path841_00000128457273283908805040000008013125998160648100_" class="st3" d="M240.39,37.34c0.38,0,0.7,0.15,0.98,0.44
		l2.73,2.96c-1.51,1.87-3.38,3.31-5.59,4.3c-2.2,1-4.84,1.49-7.94,1.49c-2.77,0-5.26-0.47-7.47-1.42c-2.2-0.94-4.08-2.26-5.64-3.94
		c-1.56-1.68-2.77-3.69-3.61-6.03c-0.82-2.34-1.24-4.89-1.24-7.65c0-2.8,0.46-5.36,1.39-7.68c0.93-2.34,2.23-4.35,3.92-6.03
		c1.68-1.68,3.69-2.99,6.03-3.92c2.35-0.94,4.95-1.42,7.78-1.42c2.77,0,5.18,0.45,7.24,1.34c2.08,0.88,3.86,2.04,5.33,3.5
		l-2.32,3.22c-0.14,0.21-0.32,0.39-0.54,0.54c-0.21,0.15-0.5,0.23-0.88,0.23c-0.4,0-0.8-0.15-1.21-0.46c-0.41-0.31-0.94-0.64-1.57-1
		c-0.64-0.36-1.44-0.7-2.42-1c-0.96-0.31-2.19-0.46-3.68-0.46c-1.75,0-3.37,0.31-4.84,0.93c-1.46,0.6-2.72,1.47-3.79,2.6
		c-1.05,1.13-1.87,2.52-2.47,4.15c-0.58,1.61-0.88,3.44-0.88,5.46c0,2.1,0.29,3.96,0.88,5.59c0.6,1.63,1.41,3.01,2.42,4.12
		c1.01,1.12,2.21,1.98,3.58,2.58c1.37,0.58,2.85,0.88,4.43,0.88c0.94,0,1.8-0.05,2.55-0.15c0.77-0.1,1.48-0.27,2.11-0.49
		c0.65-0.22,1.26-0.51,1.83-0.85c0.58-0.36,1.16-0.8,1.73-1.31c0.17-0.15,0.35-0.27,0.54-0.36
		C239.96,37.39,240.17,37.34,240.39,37.34L240.39,37.34z"/>
	<path id="path843_00000152966261137311341220000002326614277959347129_" class="st3" d="M256.78,7.84v38.29h-6.36V7.84H256.78z"/>
	<path id="path845_00000099649257114142839910000007910752619664747940_" class="st3" d="M276.29,19.28c1.98,0,3.76,0.32,5.36,0.95
		c1.61,0.64,2.99,1.54,4.12,2.71c1.13,1.17,2.01,2.59,2.63,4.28c0.62,1.68,0.93,3.56,0.93,5.64c0,2.1-0.31,3.99-0.93,5.67
		c-0.62,1.68-1.49,3.12-2.63,4.3c-1.13,1.19-2.51,2.1-4.12,2.73c-1.6,0.64-3.38,0.95-5.36,0.95c-1.98,0-3.77-0.32-5.39-0.95
		c-1.61-0.64-3-1.55-4.15-2.73c-1.13-1.19-2.02-2.62-2.65-4.3c-0.62-1.68-0.93-3.57-0.93-5.67c0-2.08,0.31-3.96,0.93-5.64
		c0.64-1.68,1.52-3.11,2.65-4.28c1.15-1.17,2.53-2.07,4.15-2.71C272.51,19.6,274.31,19.28,276.29,19.28L276.29,19.28z M276.29,41.62
		c2.2,0,3.82-0.74,4.87-2.22c1.07-1.48,1.6-3.64,1.6-6.49s-0.53-5.02-1.6-6.52c-1.05-1.49-2.67-2.24-4.87-2.24
		c-2.23,0-3.88,0.76-4.95,2.27c-1.06,1.49-1.6,3.66-1.6,6.49c0,2.83,0.53,5,1.6,6.49C272.4,40.88,274.05,41.62,276.29,41.62z"/>
	<path id="path847_00000111897188758923277530000017051474360130363014_" class="st3" d="M301.15,19.69v16.8
		c0,1.61,0.37,2.87,1.11,3.76c0.76,0.88,1.88,1.31,3.38,1.31c1.1,0,2.13-0.24,3.09-0.72c0.96-0.5,1.87-1.18,2.73-2.04V19.69h6.36
		v26.44h-3.89c-0.82,0-1.37-0.39-1.62-1.16l-0.44-2.11c-0.55,0.55-1.12,1.06-1.7,1.52c-0.58,0.45-1.21,0.83-1.88,1.16
		c-0.65,0.31-1.37,0.55-2.14,0.72c-0.76,0.19-1.57,0.28-2.45,0.28c-1.44,0-2.72-0.24-3.84-0.72c-1.1-0.5-2.03-1.19-2.78-2.09
		c-0.76-0.89-1.33-1.95-1.73-3.17c-0.38-1.24-0.57-2.59-0.57-4.07v-16.8H301.15z"/>
	<path id="path849_00000064330806230770866740000004234614855474854278_" class="st3" d="M344.26,46.13c-0.82,0-1.37-0.39-1.62-1.16
		l-0.52-2.55c-0.55,0.62-1.13,1.18-1.73,1.67c-0.6,0.5-1.25,0.93-1.96,1.29c-0.69,0.36-1.43,0.64-2.24,0.82
		c-0.79,0.21-1.65,0.31-2.58,0.31c-1.44,0-2.77-0.3-3.97-0.9c-1.2-0.6-2.24-1.47-3.12-2.6c-0.86-1.15-1.53-2.57-2.01-4.25
		c-0.46-1.68-0.7-3.61-0.7-5.77c0-1.96,0.27-3.78,0.8-5.46c0.53-1.68,1.3-3.14,2.29-4.38c1-1.24,2.19-2.2,3.58-2.89
		c1.39-0.7,2.95-1.06,4.69-1.06c1.48,0,2.74,0.24,3.79,0.72c1.05,0.46,1.98,1.09,2.81,1.88V7.84h6.36v38.29H344.26z M335.78,41.46
		c1.32,0,2.45-0.27,3.38-0.82c0.93-0.55,1.8-1.33,2.63-2.34V26.44c-0.72-0.88-1.51-1.49-2.37-1.86c-0.84-0.36-1.75-0.54-2.73-0.54
		c-0.96,0-1.84,0.18-2.63,0.54c-0.77,0.36-1.43,0.91-1.98,1.65c-0.53,0.72-0.94,1.65-1.24,2.78c-0.29,1.12-0.44,2.44-0.44,3.97
		c0,1.55,0.12,2.86,0.36,3.94c0.26,1.06,0.62,1.94,1.08,2.63c0.46,0.67,1.03,1.16,1.7,1.47C334.21,41.32,334.95,41.46,335.78,41.46
		L335.78,41.46z"/>
</g>
<g id="g1069_00000033368504425721916770000013830230385127935876_" transform="translate(-199.36,-53.263789)">
	<path id="path922_00000119797252210024900970000013165096823583788678_" class="st3" d="M221.9,91.13c0-1.69-1.37-3.06-3.06-3.06
		c-1.69,0-3.06,1.37-3.06,3.06c0,1.69,1.37,3.06,3.06,3.06c0,0,0,0,0.01,0C220.53,94.19,221.9,92.82,221.9,91.13z"/>
	<path id="path924_00000102524661199413574210000001762220409968210327_" class="st3" d="M226.86,91.13c0,1.69,1.37,3.06,3.06,3.06
		c1.69,0,3.06-1.37,3.06-3.06c0-1.69-1.37-3.06-3.06-3.06C228.23,88.07,226.86,89.44,226.86,91.13L226.86,91.13z"/>
	<path id="path926_00000154398114017687348130000000172808355502070708_" class="st3" d="M201.9,102.49c0.91,2.27,2.15,4.4,3.7,6.3
		c4.64,5.5,11.46,8.69,18.66,8.73c6.6-0.03,12.93-2.65,17.62-7.29c2.54-2.67,4.45-5.89,5.56-9.4c0.14-0.43-0.1-0.89-0.54-1.03
		c-0.22-0.07-0.45-0.04-0.65,0.07c-6.62,3.72-15.01,1.37-18.73-5.25c-3.72-6.62-1.37-15.01,5.25-18.73
		c1.21-0.68,2.52-1.18,3.89-1.47c0.44-0.09,0.73-0.53,0.63-0.98c-0.05-0.22-0.18-0.41-0.38-0.53c-2.32-1.41-4.85-2.41-7.5-2.97
		c-0.77-3.43-1.93-5.45-2.98-7.22c-1.22-1.97-2.55-3.88-3.96-5.73c-0.49-0.91-1.25-1.65-2.17-2.11c-2.05-1.06-4.39-0.65-5.19,0.92
		s0.22,3.69,2.28,4.76c0.12,0.06,0.24,0.12,0.36,0.17l0,0c0.45,0.19,0.93,0.32,1.42,0.38c1.23,0.43,2.37,1.1,3.34,1.98
		c1.1,1.02,3.15,4.55,3.41,6.38c-0.51-0.03-1.03-0.05-1.54-0.05c-0.72,0-1.44,0.03-2.16,0.1c-2.05-2.69-3.82-4.57-5.47-5.94
		c-1.8-1.49-4.22-3.16-5.11-3.59l0,0c-0.81-0.49-1.73-0.74-2.67-0.73c-2.31,0-4.2,1.43-4.2,3.19c0,1.76,1.89,3.19,4.21,3.19
		c0.34,0,0.68-0.03,1.01-0.1l0,0H210c0.33-0.06,0.66-0.16,0.98-0.29c0.72-0.17,1.48-0.17,2.2,0c1.45,0.4,5.71,3.52,5.34,4.9
		c-2.35,0.59-4.6,1.52-6.68,2.78c-0.39,0.24-0.51,0.74-0.27,1.13c0.12,0.19,0.31,0.33,0.53,0.38c7.43,1.58,12.17,8.89,10.58,16.32
		c-1.58,7.43-8.89,12.17-16.32,10.58c-1.35-0.29-2.65-0.78-3.86-1.46c-0.4-0.22-0.9-0.08-1.12,0.31c-0.06,0.11-0.1,0.23-0.1,0.35
		C201.46,101.2,201.67,101.85,201.9,102.49z"/>
	<path id="path928_00000077323136675285918480000004184358239782765479_" class="st3" d="M237.78,135.55
		c-0.24-0.04-1.45-0.07-1.45-0.07c-1.98-0.24-2.57-4.9-2.72-6.58c1.16-0.9,2.18-1.96,3.04-3.14c-7.72,3.62-16.65,3.68-24.42,0.16
		c0.83,1.12,1.81,2.13,2.92,2.98c-0.15,1.68-0.74,6.34-2.72,6.58c0,0-1.22,0.03-1.45,0.07c-1.17,0.26-2.01,1.03-2.01,1.93
		c0,1.13,1.31,2.04,2.93,2.04c0,0,3.54,0.3,4.3-0.35c0.77-0.65,1.17-1.21,1.03-4.07c-0.14-2.86,2.44-3.64,2.52-3.77
		c1.46,0.47,3.01,4.01,4.62,4.01c1.61,0,3.17-3.54,4.62-4.01c0.08,0.13,2.68,0.91,2.53,3.77c-0.15,2.86,0.26,3.43,1.03,4.07
		c0.77,0.65,4.31,0.35,4.31,0.35c1.62,0,2.93-0.91,2.93-2.04C239.78,136.58,238.95,135.82,237.78,135.55L237.78,135.55z"/>
	<path id="path930_00000049182471379353393540000007590795566839708035_" class="st3" d="M243.84,120.08L243.84,120.08h-0.01
		c-0.04-0.03-0.09-0.06-0.14-0.08c-2.1-1.28-3.19-2.63-3.76-3.63c-9.2,6.99-21.92,7.04-31.18,0.12c-0.58,0.99-1.67,2.29-3.69,3.51
		c-0.05,0.02-0.09,0.05-0.14,0.08h-0.01l0,0c-1.04,0.66-1.35,2.04-0.69,3.09c0.66,1.04,2.04,1.35,3.09,0.69
		c0.47-0.3,0.82-0.77,0.96-1.31c0.2-0.6,0.44-1.43,0.79-2.25l0.6,0.35c4.09,2.57,9.79,4.29,14.6,4.29c5.12,0,10.7-1.8,14.92-4.64
		l0.37-0.32c0.36,0.84,0.68,1.69,0.94,2.57c0.32,1.19,1.54,1.9,2.74,1.59c1.19-0.32,1.9-1.54,1.59-2.74
		C244.66,120.84,244.31,120.37,243.84,120.08L243.84,120.08z"/>
</g>
</svg>
