<?xml version="1.0" encoding="UTF-8" standalone="no"?>
<!-- Created with Inkscape (http://www.inkscape.org/) -->

<svg
   version="1.1"
   id="svg10311"
   width="360.82703"
   height="69.815132"
   viewBox="0 0 360.82702 69.815133"
   xml:space="preserve"
   xmlns="http://www.w3.org/2000/svg"
   xmlns:svg="http://www.w3.org/2000/svg"><defs
     id="defs10315"><clipPath
       clipPathUnits="userSpaceOnUse"
       id="clipPath10595"><path
         d="M 0,0 H 1567 V 707 H 0 Z"
         id="path10593" /></clipPath><clipPath
       clipPathUnits="userSpaceOnUse"
       id="clipPath10601"><path
         d="M 0,707.324 V 472.168 h 214.125 v 235.156 z"
         id="path10599" /></clipPath></defs><g
     id="g10319"
     transform="matrix(1.3333333,0,0,-1.3333333,56.752961,88.664815)"><g
       id="g10321"
       transform="matrix(0.07406132,0,0,0.07406132,-42.564722,14.13726)"><path
         d="m 304.574,643.426 c 3.078,-1.953 6.676,-3.074 11.551,-3.074 6.453,0 11.777,3.3 11.777,10.726 0,10.274 -24,11.551 -24,25.274 0,8.406 7.348,13.648 16.578,13.648 2.547,0 6.668,-0.371 10.274,-1.719 l -0.828,-4.726 c -2.328,1.273 -6,1.949 -9.524,1.949 -5.402,0 -11.328,-2.25 -11.328,-9 0,-10.496 24.004,-10.578 24.004,-25.879 0,-10.57 -9.074,-14.777 -17.18,-14.777 -5.097,0 -9.07,1.054 -11.843,2.257 l 0.519,5.321"
         style="fill:#231f20;fill-opacity:1;fill-rule:nonzero;stroke:none"
         id="path10323" /><path
         d="m 373.727,669.902 c -2.551,1.121 -5.625,1.953 -8.176,1.953 -9.223,0 -14.399,-6.679 -14.399,-15.976 0,-8.703 5.25,-15.977 13.871,-15.977 3.004,0 5.778,0.676 8.629,1.731 l 0.45,-4.43 c -3.223,-1.125 -6.227,-1.355 -9.825,-1.355 -12.304,0 -18.3,9.375 -18.3,20.031 0,11.777 7.574,20.023 18.898,20.023 4.578,0 7.879,-1.05 9.227,-1.5 l -0.375,-4.5"
         style="fill:#231f20;fill-opacity:1;fill-rule:nonzero;stroke:none"
         id="path10325" /><path
         d="m 387.98,693.004 h 4.719 v -24.449 h 0.153 c 2.023,4.199 6.3,7.347 11.925,7.347 10.274,0 13.051,-6.824 13.051,-16.273 v -22.875 h -4.726 v 22.797 c 0,6.601 -1.274,12.304 -9.079,12.304 -8.398,0 -11.324,-7.949 -11.324,-14.628 v -20.473 h -4.719 v 56.25"
         style="fill:#231f20;fill-opacity:1;fill-rule:nonzero;stroke:none"
         id="path10327" /><path
         d="m 474.824,636.754 h -5.699 l -10.422,33.074 h -0.152 l -10.426,-33.074 h -5.703 L 430.129,675 h 5.176 l 10.047,-33.07 H 445.5 L 456.152,675 h 5.7 l 10.121,-33.07 h 0.152 L 482.699,675 h 4.723 l -12.598,-38.246"
         style="fill:#231f20;fill-opacity:1;fill-rule:nonzero;stroke:none"
         id="path10329" /><path
         d="m 525.371,637.953 c -3.297,-1.351 -7.574,-2.105 -11.094,-2.105 -12.675,0 -17.402,8.554 -17.402,20.031 0,11.699 6.445,20.023 16.125,20.023 10.801,0 15.223,-8.699 15.223,-18.972 v -2.399 h -26.172 c 0,-8.105 4.347,-14.629 12.597,-14.629 3.45,0 8.477,1.426 10.723,2.852 z m -2.324,20.625 c 0,6.676 -2.695,13.277 -9.746,13.277 -6.977,0 -11.25,-6.976 -11.25,-13.277 h 20.996"
         style="fill:#231f20;fill-opacity:1;fill-rule:nonzero;stroke:none"
         id="path10331" /><path
         d="m 547.797,685.207 h -4.719 v 6.297 h 4.719 z M 543.078,675 h 4.719 v -38.246 h -4.719 V 675"
         style="fill:#231f20;fill-opacity:1;fill-rule:nonzero;stroke:none"
         id="path10333" /><path
         d="m 562.051,640.727 23.023,30.226 H 562.949 V 675 h 27.598 v -4.047 l -23.024,-30.152 h 23.024 v -4.047 h -28.496 v 3.973"
         style="fill:#231f20;fill-opacity:1;fill-rule:nonzero;stroke:none"
         id="path10335" /><path
         d="m 630.371,637.953 c -3.301,-1.351 -7.578,-2.105 -11.098,-2.105 -12.675,0 -17.402,8.554 -17.402,20.031 0,11.699 6.449,20.023 16.129,20.023 10.801,0 15.223,-8.699 15.223,-18.972 v -2.399 h -26.176 c 0,-8.105 4.351,-14.629 12.601,-14.629 3.45,0 8.477,1.426 10.723,2.852 z m -2.324,20.625 c 0,6.676 -2.699,13.277 -9.75,13.277 -6.977,0 -11.25,-6.976 -11.25,-13.277 h 21"
         style="fill:#231f20;fill-opacity:1;fill-rule:nonzero;stroke:none"
         id="path10337" /><path
         d="m 648.078,666.457 c 0,4.195 0,5.77 -0.305,8.543 h 4.727 v -7.344 h 0.148 c 1.727,4.274 4.95,8.246 9.825,8.246 1.125,0 2.48,-0.222 3.3,-0.449 v -4.949 c -0.972,0.297 -2.246,0.449 -3.449,0.449 -7.5,0 -9.527,-8.398 -9.527,-15.301 v -18.898 h -4.719 v 29.703"
         style="fill:#231f20;fill-opacity:1;fill-rule:nonzero;stroke:none"
         id="path10339" /><path
         d="m 683.625,685.207 h -4.727 v 6.297 h 4.727 z M 678.898,675 h 4.727 v -38.246 h -4.727 V 675"
         style="fill:#231f20;fill-opacity:1;fill-rule:nonzero;stroke:none"
         id="path10341" /><path
         d="m 698.473,642.305 c 2.847,-1.426 6.297,-2.403 9.976,-2.403 4.5,0 8.477,2.477 8.477,6.825 0,9.074 -18.379,7.648 -18.379,18.75 0,7.578 6.152,10.425 12.449,10.425 2.027,0 6.074,-0.449 9.453,-1.722 l -0.453,-4.125 c -2.476,1.125 -5.851,1.8 -8.473,1.8 -4.878,0 -8.25,-1.503 -8.25,-6.378 0,-7.129 18.829,-6.223 18.829,-18.75 0,-8.098 -7.579,-10.879 -13.356,-10.879 -3.676,0 -7.348,0.457 -10.726,1.808 l 0.453,4.649"
         style="fill:#231f20;fill-opacity:1;fill-rule:nonzero;stroke:none"
         id="path10343" /><path
         d="m 761.32,669.902 c -2.55,1.121 -5.625,1.953 -8.175,1.953 -9.227,0 -14.403,-6.679 -14.403,-15.976 0,-8.703 5.254,-15.977 13.875,-15.977 3,0 5.774,0.676 8.625,1.731 l 0.449,-4.43 c -3.222,-1.125 -6.222,-1.355 -9.824,-1.355 -12.297,0 -18.301,9.375 -18.301,20.031 0,11.777 7.579,20.023 18.907,20.023 4.57,0 7.871,-1.05 9.218,-1.5 l -0.371,-4.5"
         style="fill:#231f20;fill-opacity:1;fill-rule:nonzero;stroke:none"
         id="path10345" /><path
         d="m 775.566,693.004 h 4.727 v -24.449 h 0.148 c 2.032,4.199 6.309,7.347 11.934,7.347 10.273,0 13.047,-6.824 13.047,-16.273 v -22.875 h -4.727 v 22.797 c 0,6.601 -1.269,12.304 -9.074,12.304 -8.406,0 -11.328,-7.949 -11.328,-14.628 v -20.473 h -4.727 v 56.25"
         style="fill:#231f20;fill-opacity:1;fill-rule:nonzero;stroke:none"
         id="path10347" /><path
         d="m 848.77,637.953 c -3.301,-1.351 -7.579,-2.105 -11.102,-2.105 -12.676,0 -17.402,8.554 -17.402,20.031 0,11.699 6.453,20.023 16.132,20.023 10.801,0 15.215,-8.699 15.215,-18.972 v -2.399 h -26.172 c 0,-8.105 4.356,-14.629 12.598,-14.629 3.457,0 8.477,1.426 10.731,2.852 z m -2.332,20.625 c 0,6.676 -2.696,13.277 -9.747,13.277 -6.972,0 -11.25,-6.976 -11.25,-13.277 h 20.997"
         style="fill:#231f20;fill-opacity:1;fill-rule:nonzero;stroke:none"
         id="path10349" /><path
         d="m 893.703,689.102 h 25.645 v -4.497 h -20.469 v -18.679 h 19.414 v -4.5 H 898.879 V 641.25 h 21.367 v -4.496 h -26.543 v 52.348"
         style="fill:#231f20;fill-opacity:1;fill-rule:nonzero;stroke:none"
         id="path10351" /><path
         d="m 941.242,685.207 h -4.726 v 6.297 h 4.726 z M 936.516,675 h 4.726 v -38.246 h -4.726 V 675"
         style="fill:#231f20;fill-opacity:1;fill-rule:nonzero;stroke:none"
         id="path10353" /><path
         d="m 989.316,636.754 h -4.726 v 6.074 h -0.145 c -2.558,-4.875 -6.445,-6.98 -11.933,-6.98 -10.489,0 -15.742,8.703 -15.742,20.031 0,11.621 4.492,20.023 15.742,20.023 7.5,0 11.25,-5.472 11.933,-7.347 h 0.145 v 24.449 h 4.726 z m -16.043,3.148 c 8.399,0 11.317,9.004 11.317,15.977 0,6.973 -2.918,15.976 -11.317,15.976 -9.003,0 -11.328,-8.554 -11.328,-15.976 0,-7.426 2.325,-15.977 11.328,-15.977"
         style="fill:#231f20;fill-opacity:1;fill-rule:nonzero;stroke:none"
         id="path10355" /><path
         d="m 1036.87,639.902 c 0,-10.648 -4.8,-19.351 -17.92,-19.351 -5.03,0 -9.6,1.426 -11.56,2.027 l 0.38,4.727 c 2.93,-1.504 7.12,-2.707 11.25,-2.707 12.15,0 13.2,8.855 13.2,19.656 h -0.15 c -2.55,-5.551 -6.75,-7.5 -11.63,-7.5 -12.23,0 -16.11,10.648 -16.11,19.125 0,11.621 4.49,20.023 15.74,20.023 5.1,0 8.4,-0.672 11.93,-5.25 h 0.14 V 675 h 4.73 z m -16.35,0.899 c 8.55,0 11.62,8.105 11.62,15.078 0,9.223 -2.69,15.976 -11.32,15.976 -8.99,0 -11.33,-8.554 -11.33,-15.976 0,-7.5 3,-15.078 11.03,-15.078"
         style="fill:#231f20;fill-opacity:1;fill-rule:nonzero;stroke:none"
         id="path10357" /><path
         d="m 1079.78,637.953 c -3.3,-1.351 -7.58,-2.105 -11.12,-2.105 -12.67,0 -17.39,8.554 -17.39,20.031 0,11.699 6.46,20.023 16.12,20.023 10.81,0 15.23,-8.699 15.23,-18.972 v -2.399 h -26.17 c 0,-8.105 4.34,-14.629 12.59,-14.629 3.45,0 8.48,1.426 10.74,2.852 z m -2.34,20.625 c 0,6.676 -2.7,13.277 -9.74,13.277 -6.99,0 -11.25,-6.976 -11.25,-13.277 h 20.99"
         style="fill:#231f20;fill-opacity:1;fill-rule:nonzero;stroke:none"
         id="path10359" /><path
         d="m 1097.47,666.008 c 0,2.918 0,5.922 -0.3,8.992 h 4.58 v -6.82 h 0.14 c 1.58,3.453 4.43,7.722 12.38,7.722 9.45,0 13.05,-6.304 13.05,-14.699 v -24.449 h -4.73 V 660 c 0,7.203 -2.54,11.855 -9.07,11.855 -8.63,0 -11.32,-7.578 -11.32,-13.957 v -21.144 h -4.73 v 29.254"
         style="fill:#231f20;fill-opacity:1;fill-rule:nonzero;stroke:none"
         id="path10361" /><path
         d="m 1159.94,675.902 c 12.38,0 17.85,-9.597 17.85,-20.023 0,-10.426 -5.47,-20.031 -17.85,-20.031 -12.37,0 -17.85,9.605 -17.85,20.031 0,10.426 5.48,20.023 17.85,20.023 z m 0,-36 c 8.26,0 12.68,7.129 12.68,15.977 0,8.848 -4.42,15.976 -12.68,15.976 -8.25,0 -12.67,-7.128 -12.67,-15.976 0,-8.848 4.42,-15.977 12.67,-15.977"
         style="fill:#231f20;fill-opacity:1;fill-rule:nonzero;stroke:none"
         id="path10363" /><path
         d="m 1189.64,642.305 c 2.85,-1.426 6.31,-2.403 9.98,-2.403 4.49,0 8.48,2.477 8.48,6.825 0,9.074 -18.38,7.648 -18.38,18.75 0,7.578 6.15,10.425 12.45,10.425 2.02,0 6.07,-0.449 9.44,-1.722 l -0.45,-4.125 c -2.47,1.125 -5.84,1.8 -8.47,1.8 -4.87,0 -8.24,-1.503 -8.24,-6.378 0,-7.129 18.82,-6.223 18.82,-18.75 0,-8.098 -7.57,-10.879 -13.36,-10.879 -3.67,0 -7.34,0.457 -10.72,1.808 l 0.45,4.649"
         style="fill:#231f20;fill-opacity:1;fill-rule:nonzero;stroke:none"
         id="path10365" /><path
         d="m 1224.66,642.305 c 2.85,-1.426 6.31,-2.403 9.98,-2.403 4.5,0 8.48,2.477 8.48,6.825 0,9.074 -18.38,7.648 -18.38,18.75 0,7.578 6.15,10.425 12.46,10.425 2.01,0 6.07,-0.449 9.44,-1.722 l -0.45,-4.125 c -2.47,1.125 -5.85,1.8 -8.48,1.8 -4.87,0 -8.25,-1.503 -8.25,-6.378 0,-7.129 18.83,-6.223 18.83,-18.75 0,-8.098 -7.58,-10.879 -13.35,-10.879 -3.68,0 -7.35,0.457 -10.73,1.808 l 0.45,4.649"
         style="fill:#231f20;fill-opacity:1;fill-rule:nonzero;stroke:none"
         id="path10367" /><path
         d="m 1288.27,637.953 c -3.3,-1.351 -7.57,-2.105 -11.11,-2.105 -12.68,0 -17.39,8.554 -17.39,20.031 0,11.699 6.45,20.023 16.12,20.023 10.8,0 15.22,-8.699 15.22,-18.972 v -2.399 h -26.17 c 0,-8.105 4.35,-14.629 12.6,-14.629 3.45,0 8.48,1.426 10.73,2.852 z m -2.33,20.625 c 0,6.676 -2.71,13.277 -9.75,13.277 -6.98,0 -11.25,-6.976 -11.25,-13.277 h 21"
         style="fill:#231f20;fill-opacity:1;fill-rule:nonzero;stroke:none"
         id="path10369" /><path
         d="m 1305.97,666.008 c 0,2.918 0,5.922 -0.29,8.992 h 4.57 v -6.82 h 0.15 c 1.56,3.453 4.42,7.722 12.37,7.722 9.45,0 13.05,-6.304 13.05,-14.699 v -24.449 h -4.73 V 660 c 0,7.203 -2.54,11.855 -9.07,11.855 -8.63,0 -11.32,-7.578 -11.32,-13.957 v -21.144 h -4.73 v 29.254"
         style="fill:#231f20;fill-opacity:1;fill-rule:nonzero;stroke:none"
         id="path10371" /><path
         d="m 1350.6,642.305 c 2.85,-1.426 6.29,-2.403 9.97,-2.403 4.5,0 8.47,2.477 8.47,6.825 0,9.074 -18.36,7.648 -18.36,18.75 0,7.578 6.14,10.425 12.44,10.425 2.03,0 6.07,-0.449 9.45,-1.722 l -0.45,-4.125 c -2.48,1.125 -5.85,1.8 -8.48,1.8 -4.87,0 -8.25,-1.503 -8.25,-6.378 0,-7.129 18.83,-6.223 18.83,-18.75 0,-8.098 -7.58,-10.879 -13.35,-10.879 -3.67,0 -7.35,0.457 -10.72,1.808 l 0.45,4.649"
         style="fill:#231f20;fill-opacity:1;fill-rule:nonzero;stroke:none"
         id="path10373" /><path
         d="m 1413.45,669.902 c -2.56,1.121 -5.63,1.953 -8.18,1.953 -9.22,0 -14.4,-6.679 -14.4,-15.976 0,-8.703 5.26,-15.977 13.87,-15.977 3.01,0 5.78,0.676 8.63,1.731 l 0.45,-4.43 c -3.22,-1.125 -6.23,-1.355 -9.82,-1.355 -12.31,0 -18.3,9.375 -18.3,20.031 0,11.777 7.57,20.023 18.89,20.023 4.58,0 7.88,-1.05 9.23,-1.5 l -0.37,-4.5"
         style="fill:#231f20;fill-opacity:1;fill-rule:nonzero;stroke:none"
         id="path10375" /><path
         d="m 1427.69,693.004 h 4.72 v -24.449 h 0.16 c 2.02,4.199 6.29,7.347 11.91,7.347 10.28,0 13.06,-6.824 13.06,-16.273 v -22.875 h -4.73 v 22.797 c 0,6.601 -1.28,12.304 -9.07,12.304 -8.4,0 -11.33,-7.949 -11.33,-14.628 v -20.473 h -4.72 v 56.25"
         style="fill:#231f20;fill-opacity:1;fill-rule:nonzero;stroke:none"
         id="path10377" /><path
         d="m 1497.22,642.898 h -0.16 c -2.09,-4.566 -7.42,-7.05 -12.15,-7.05 -10.87,0 -12.59,7.355 -12.59,10.8 0,12.829 13.65,13.43 23.55,13.43 h 0.9 v 1.953 c 0,6.524 -2.32,9.824 -8.7,9.824 -3.98,0 -7.73,-0.902 -11.25,-3.152 v 4.578 c 2.92,1.422 7.88,2.621 11.25,2.621 9.44,0 13.43,-4.269 13.43,-14.254 v -16.875 c 0,-3.07 0,-5.398 0.37,-8.019 h -4.65 z m -0.45,13.125 h -1.35 c -8.18,0 -17.93,-0.816 -17.93,-9.218 0,-5.028 3.6,-6.903 7.95,-6.903 11.1,0 11.33,9.68 11.33,13.801 v 2.32"
         style="fill:#231f20;fill-opacity:1;fill-rule:nonzero;stroke:none"
         id="path10379" /><path
         d="m 1521.82,670.953 h -7.73 V 675 h 7.73 v 2.777 c 0,8.024 0.3,16.129 10.13,16.129 1.5,0 3.51,-0.226 4.42,-0.754 l -0.3,-4.125 c -0.98,0.524 -2.41,0.825 -3.75,0.825 -6.45,0 -5.78,-6.969 -5.78,-11.551 V 675 h 8.63 v -4.047 h -8.63 v -34.199 h -4.72 v 34.199"
         style="fill:#231f20;fill-opacity:1;fill-rule:nonzero;stroke:none"
         id="path10381" /><path
         d="m 1565.92,670.953 h -8.7 v -24.75 c 0,-3.449 1.27,-6.301 5.1,-6.301 1.79,0 3,0.375 4.35,0.899 l 0.29,-3.899 c -1.12,-0.445 -3.44,-1.054 -5.77,-1.054 -8.4,0 -8.7,5.785 -8.7,12.754 v 22.351 h -7.5 V 675 h 7.5 v 9.227 l 4.73,1.652 V 675 h 8.7 v -4.047"
         style="fill:#231f20;fill-opacity:1;fill-rule:nonzero;stroke:none"
         id="path10383" /><path
         d="m 341.926,579.758 c -3.301,1.726 -8.024,2.25 -11.699,2.25 -13.575,0 -21.223,-9.602 -21.223,-22.574 0,-13.204 7.422,-22.579 21.223,-22.579 3.449,0 8.699,0.45 11.699,2.25 l 0.301,-4.496 c -2.852,-1.726 -8.7,-2.257 -12,-2.257 -16.5,0 -26.399,10.878 -26.399,27.082 0,15.898 10.195,27.07 26.399,27.07 3.074,0 9.3,-0.524 12,-1.945 l -0.301,-4.801"
         style="fill:#231f20;fill-opacity:1;fill-rule:nonzero;stroke:none"
         id="path10385" /><path
         d="m 376.273,572.406 c 12.379,0 17.852,-9.597 17.852,-20.023 0,-10.426 -5.473,-20.031 -17.852,-20.031 -12.375,0 -17.843,9.605 -17.843,20.031 0,10.426 5.468,20.023 17.843,20.023 z m 0,-36 c 8.25,0 12.676,7.129 12.676,15.977 0,8.847 -4.426,15.976 -12.676,15.976 -8.246,0 -12.675,-7.129 -12.675,-15.976 0,-8.848 4.429,-15.977 12.675,-15.977"
         style="fill:#231f20;fill-opacity:1;fill-rule:nonzero;stroke:none"
         id="path10387" /><path
         d="m 408.902,562.508 c 0,2.922 0,5.926 -0.297,8.996 h 4.571 v -6.82 h 0.148 c 1.578,3.449 4.43,7.722 12.379,7.722 9.449,0 13.047,-6.304 13.047,-14.699 v -24.449 h -4.727 v 23.246 c 0,7.203 -2.546,11.855 -9.07,11.855 -8.625,0 -11.328,-7.578 -11.328,-13.957 v -21.144 h -4.723 v 29.25"
         style="fill:#231f20;fill-opacity:1;fill-rule:nonzero;stroke:none"
         id="path10389" /><path
         d="m 459.68,567.457 h -7.727 v 4.047 h 7.727 v 2.777 c 0,8.024 0.297,16.129 10.121,16.129 1.5,0 3.523,-0.226 4.429,-0.754 l -0.304,-4.125 c -0.977,0.524 -2.403,0.824 -3.75,0.824 -6.449,0 -5.778,-6.972 -5.778,-11.55 v -3.301 h 8.629 v -4.047 h -8.629 v -34.199 h -4.718 v 34.199"
         style="fill:#231f20;fill-opacity:1;fill-rule:nonzero;stroke:none"
         id="path10391" /><path
         d="m 512.926,534.457 c -3.301,-1.352 -7.574,-2.105 -11.098,-2.105 -12.676,0 -17.402,8.554 -17.402,20.031 0,11.699 6.449,20.023 16.121,20.023 10.801,0 15.23,-8.699 15.23,-18.972 v -2.399 h -26.175 c 0,-8.105 4.347,-14.629 12.597,-14.629 3.449,0 8.477,1.426 10.727,2.852 z m -2.324,20.625 c 0,6.676 -2.7,13.277 -9.75,13.277 -6.973,0 -11.25,-6.976 -11.25,-13.277 z m -7.875,31.195 h 5.925 l -9.453,-10.793 h -3.445 l 6.973,10.793"
         style="fill:#231f20;fill-opacity:1;fill-rule:nonzero;stroke:none"
         id="path10393" /><path
         d="m 560.93,533.258 h -4.727 v 6.074 h -0.152 c -2.551,-4.875 -6.449,-6.98 -11.926,-6.98 -10.5,0 -15.75,8.703 -15.75,20.031 0,11.621 4.5,20.023 15.75,20.023 7.5,0 11.25,-5.472 11.926,-7.347 h 0.152 v 24.449 h 4.727 z m -16.055,3.148 c 8.398,0 11.328,9.004 11.328,15.977 0,6.972 -2.93,15.976 -11.328,15.976 -9,0 -11.324,-8.554 -11.324,-15.976 0,-7.426 2.324,-15.977 11.324,-15.977"
         style="fill:#231f20;fill-opacity:1;fill-rule:nonzero;stroke:none"
         id="path10395" /><path
         d="m 603.824,534.457 c -3.301,-1.352 -7.574,-2.105 -11.097,-2.105 -12.676,0 -17.403,8.554 -17.403,20.031 0,11.699 6.449,20.023 16.121,20.023 10.801,0 15.231,-8.699 15.231,-18.972 v -2.399 H 580.5 c 0,-8.105 4.348,-14.629 12.598,-14.629 3.449,0 8.476,1.426 10.726,2.852 z m -2.324,20.625 c 0,6.676 -2.699,13.277 -9.75,13.277 -6.973,0 -11.25,-6.976 -11.25,-13.277 z m -7.875,31.195 h 5.926 l -9.453,-10.793 h -3.446 l 6.973,10.793"
         style="fill:#231f20;fill-opacity:1;fill-rule:nonzero;stroke:none"
         id="path10397" /><path
         d="m 621.523,562.961 c 0,4.195 0,5.769 -0.296,8.543 h 4.722 v -7.344 h 0.156 c 1.719,4.274 4.946,8.246 9.825,8.246 1.121,0 2.468,-0.222 3.3,-0.449 v -4.949 c -0.976,0.297 -2.257,0.449 -3.453,0.449 -7.5,0 -9.527,-8.398 -9.527,-15.301 v -18.898 h -4.727 v 29.703"
         style="fill:#231f20;fill-opacity:1;fill-rule:nonzero;stroke:none"
         id="path10399" /><path
         d="m 674.328,539.402 h -0.156 c -2.102,-4.566 -7.422,-7.05 -12.149,-7.05 -10.875,0 -12.597,7.355 -12.597,10.8 0,12.828 13.652,13.43 23.547,13.43 h 0.906 v 1.953 c 0,6.524 -2.332,9.824 -8.703,9.824 -3.973,0 -7.723,-0.902 -11.25,-3.152 v 4.578 c 2.922,1.422 7.871,2.621 11.25,2.621 9.449,0 13.422,-4.273 13.422,-14.254 v -16.875 c 0,-3.07 0,-5.398 0.379,-8.019 h -4.649 z m -0.449,13.125 h -1.356 c -8.175,0 -17.921,-0.816 -17.921,-9.218 0,-5.028 3.597,-6.903 7.949,-6.903 11.097,0 11.328,9.68 11.328,13.801 v 2.32"
         style="fill:#231f20;fill-opacity:1;fill-rule:nonzero;stroke:none"
         id="path10401" /><path
         d="m 712.199,567.457 h -8.703 v -24.75 c 0,-3.449 1.281,-6.301 5.102,-6.301 1.804,0 3.004,0.375 4.351,0.899 l 0.297,-3.899 c -1.121,-0.445 -3.449,-1.054 -5.773,-1.054 -8.399,0 -8.703,5.781 -8.703,12.753 v 22.352 h -7.5 v 4.047 h 7.5 v 9.226 l 4.726,1.653 v -10.879 h 8.703 v -4.047"
         style="fill:#231f20;fill-opacity:1;fill-rule:nonzero;stroke:none"
         id="path10403" /><path
         d="m 731.25,581.711 h -4.727 v 6.297 h 4.727 z m -4.727,-10.207 h 4.727 v -38.246 h -4.727 v 38.246"
         style="fill:#231f20;fill-opacity:1;fill-rule:nonzero;stroke:none"
         id="path10405" /><path
         d="m 763.957,572.406 c 12.363,0 17.84,-9.597 17.84,-20.023 0,-10.426 -5.477,-20.031 -17.84,-20.031 -12.383,0 -17.852,9.605 -17.852,20.031 0,10.426 5.469,20.023 17.852,20.023 z m 0,-36 c 8.242,0 12.664,7.129 12.664,15.977 0,8.847 -4.422,15.976 -12.664,15.976 -8.262,0 -12.676,-7.129 -12.676,-15.976 0,-8.848 4.414,-15.977 12.676,-15.977"
         style="fill:#231f20;fill-opacity:1;fill-rule:nonzero;stroke:none"
         id="path10407" /><path
         d="m 796.574,562.508 c 0,2.922 0,5.926 -0.293,8.996 h 4.571 v -6.82 h 0.156 c 1.562,3.449 4.414,7.722 12.363,7.722 9.453,0 13.055,-6.304 13.055,-14.699 v -24.449 h -4.727 v 23.246 c 0,7.203 -2.547,11.855 -9.07,11.855 -8.633,0 -11.328,-7.578 -11.328,-13.957 v -21.144 h -4.727 v 29.25"
         style="fill:#231f20;fill-opacity:1;fill-rule:nonzero;stroke:none"
         id="path10409" /><path
         d="m 867.902,538.809 c 2.852,-1.426 6.297,-2.403 9.969,-2.403 4.504,0 8.477,2.477 8.477,6.824 0,9.075 -18.368,7.649 -18.368,18.75 0,7.579 6.141,10.426 12.442,10.426 2.031,0 6.074,-0.449 9.453,-1.722 l -0.449,-4.125 c -2.481,1.125 -5.852,1.8 -8.477,1.8 -4.875,0 -8.254,-1.504 -8.254,-6.379 0,-7.128 18.828,-6.222 18.828,-18.75 0,-8.097 -7.578,-10.878 -13.347,-10.878 -3.672,0 -7.356,0.457 -10.723,1.808 l 0.449,4.649"
         style="fill:#231f20;fill-opacity:1;fill-rule:nonzero;stroke:none"
         id="path10411" /><path
         d="m 935.695,542.258 c 0,-2.926 0,-5.926 0.301,-9 h -4.578 v 6.824 h -0.137 c -1.582,-3.449 -4.433,-7.73 -12.383,-7.73 -9.453,0 -13.046,6.304 -13.046,14.707 v 24.445 h 4.726 v -23.246 c 0,-7.203 2.539,-11.852 9.07,-11.852 8.625,0 11.321,7.578 11.321,13.949 v 21.149 h 4.726 v -29.246"
         style="fill:#231f20;fill-opacity:1;fill-rule:nonzero;stroke:none"
         id="path10413" /><path
         d="m 958.117,581.711 h -4.726 v 6.297 h 4.726 z m -4.726,-10.207 h 4.726 v -38.246 h -4.726 v 38.246"
         style="fill:#231f20;fill-opacity:1;fill-rule:nonzero;stroke:none"
         id="path10415" /><path
         d="m 972.969,538.809 c 2.851,-1.426 6.301,-2.403 9.972,-2.403 4.512,0 8.477,2.477 8.477,6.824 0,9.075 -18.371,7.649 -18.371,18.75 0,7.579 6.144,10.426 12.453,10.426 2.02,0 6.074,-0.449 9.453,-1.722 l -0.449,-4.125 c -2.481,1.125 -5.859,1.8 -8.477,1.8 -4.882,0 -8.261,-1.504 -8.261,-6.379 0,-7.128 18.828,-6.222 18.828,-18.75 0,-8.097 -7.578,-10.878 -13.34,-10.878 -3.684,0 -7.363,0.457 -10.734,1.808 l 0.449,4.649"
         style="fill:#231f20;fill-opacity:1;fill-rule:nonzero;stroke:none"
         id="path10417" /><path
         d="m 1008,538.809 c 2.85,-1.426 6.3,-2.403 9.97,-2.403 4.5,0 8.48,2.477 8.48,6.824 0,9.075 -18.37,7.649 -18.37,18.75 0,7.579 6.14,10.426 12.44,10.426 2.03,0 6.07,-0.449 9.45,-1.722 l -0.45,-4.125 c -2.48,1.125 -5.85,1.8 -8.47,1.8 -4.88,0 -8.26,-1.504 -8.26,-6.379 0,-7.128 18.83,-6.222 18.83,-18.75 0,-8.097 -7.58,-10.878 -13.35,-10.878 -3.67,0 -7.35,0.457 -10.72,1.808 l 0.45,4.649"
         style="fill:#231f20;fill-opacity:1;fill-rule:nonzero;stroke:none"
         id="path10419" /><path
         d="m 1071.59,534.457 c -3.3,-1.352 -7.57,-2.105 -11.09,-2.105 -12.68,0 -17.4,8.554 -17.4,20.031 0,11.699 6.44,20.023 16.12,20.023 10.8,0 15.23,-8.699 15.23,-18.972 v -2.399 h -26.18 c 0,-8.105 4.35,-14.629 12.6,-14.629 3.46,0 8.48,1.426 10.72,2.852 z m -2.32,20.625 c 0,6.676 -2.7,13.277 -9.75,13.277 -6.97,0 -11.25,-6.976 -11.25,-13.277 h 21"
         style="fill:#231f20;fill-opacity:1;fill-rule:nonzero;stroke:none"
         id="path10421" /><path
         d="m 341.926,476.25 c -3.301,1.727 -8.024,2.25 -11.699,2.25 -13.575,0 -21.223,-9.598 -21.223,-22.574 0,-13.203 7.422,-22.578 21.223,-22.578 3.449,0 8.699,0.453 11.699,2.254 l 0.301,-4.5 c -2.852,-1.727 -8.7,-2.254 -12,-2.254 -16.5,0 -26.399,10.879 -26.399,27.078 0,15.902 10.195,27.074 26.399,27.074 3.074,0 9.3,-0.523 12,-1.945 l -0.301,-4.805"
         style="fill:#231f20;fill-opacity:1;fill-rule:nonzero;stroke:none"
         id="path10423" /><path
         d="m 376.273,468.902 c 12.379,0 17.852,-9.601 17.852,-20.023 0,-10.426 -5.473,-20.031 -17.852,-20.031 -12.375,0 -17.843,9.605 -17.843,20.031 0,10.422 5.468,20.023 17.843,20.023 z m 0,-36.004 c 8.25,0 12.676,7.129 12.676,15.981 0,8.844 -4.426,15.973 -12.676,15.973 -8.246,0 -12.675,-7.129 -12.675,-15.973 0,-8.852 4.429,-15.981 12.675,-15.981"
         style="fill:#231f20;fill-opacity:1;fill-rule:nonzero;stroke:none"
         id="path10425" /><path
         d="m 408.902,459.004 c 0,2.922 0,5.922 -0.297,8.996 h 4.571 v -6.824 h 0.148 c 1.578,3.453 4.43,7.726 12.379,7.726 9.449,0 13.047,-6.304 13.047,-14.703 V 429.75 h -4.727 V 453 c 0,7.199 -2.546,11.852 -9.07,11.852 -8.625,0 -11.328,-7.579 -11.328,-13.954 V 429.75 h -4.723 v 29.254"
         style="fill:#231f20;fill-opacity:1;fill-rule:nonzero;stroke:none"
         id="path10427" /><path
         d="m 459.68,463.949 h -7.727 V 468 h 7.727 v 2.777 c 0,8.024 0.297,16.125 10.121,16.125 1.5,0 3.523,-0.222 4.429,-0.75 l -0.304,-4.125 c -0.977,0.524 -2.403,0.825 -3.75,0.825 -6.449,0 -5.778,-6.973 -5.778,-11.551 V 468 h 8.629 v -4.051 h -8.629 V 429.75 h -4.718 v 34.199"
         style="fill:#231f20;fill-opacity:1;fill-rule:nonzero;stroke:none"
         id="path10429" /><path
         d="m 512.926,430.953 c -3.301,-1.355 -7.574,-2.105 -11.098,-2.105 -12.676,0 -17.402,8.554 -17.402,20.031 0,11.699 6.449,20.023 16.121,20.023 10.801,0 15.23,-8.703 15.23,-18.976 v -2.399 h -26.175 c 0,-8.101 4.347,-14.629 12.597,-14.629 3.449,0 8.477,1.43 10.727,2.856 z m -2.324,20.625 c 0,6.676 -2.7,13.274 -9.75,13.274 -6.973,0 -11.25,-6.977 -11.25,-13.274 h 21"
         style="fill:#231f20;fill-opacity:1;fill-rule:nonzero;stroke:none"
         id="path10431" /><path
         d="m 560.93,429.75 h -4.727 v 6.074 h -0.152 c -2.551,-4.871 -6.449,-6.976 -11.926,-6.976 -10.5,0 -15.75,8.703 -15.75,20.031 0,11.621 4.5,20.023 15.75,20.023 7.5,0 11.25,-5.476 11.926,-7.351 h 0.152 V 486 h 4.727 z m -16.055,3.148 c 8.398,0 11.328,9.004 11.328,15.981 0,6.969 -2.93,15.973 -11.328,15.973 -9,0 -11.324,-8.551 -11.324,-15.973 0,-7.43 2.324,-15.981 11.324,-15.981"
         style="fill:#231f20;fill-opacity:1;fill-rule:nonzero;stroke:none"
         id="path10433" /><path
         d="m 603.824,430.953 c -3.301,-1.355 -7.574,-2.105 -11.097,-2.105 -12.676,0 -17.403,8.554 -17.403,20.031 0,11.699 6.449,20.023 16.121,20.023 10.801,0 15.231,-8.703 15.231,-18.976 v -2.399 H 580.5 c 0,-8.101 4.348,-14.629 12.598,-14.629 3.449,0 8.476,1.43 10.726,2.856 z m -2.324,20.625 c 0,6.676 -2.699,13.274 -9.75,13.274 -6.973,0 -11.25,-6.977 -11.25,-13.274 h 21"
         style="fill:#231f20;fill-opacity:1;fill-rule:nonzero;stroke:none"
         id="path10435" /><path
         d="m 621.523,459.453 c 0,4.199 0,5.77 -0.296,8.547 h 4.722 v -7.348 h 0.156 c 1.719,4.274 4.946,8.25 9.825,8.25 1.121,0 2.468,-0.226 3.3,-0.449 V 463.5 c -0.976,0.301 -2.257,0.449 -3.453,0.449 -7.5,0 -9.527,-8.398 -9.527,-15.297 V 429.75 h -4.727 v 29.703"
         style="fill:#231f20;fill-opacity:1;fill-rule:nonzero;stroke:none"
         id="path10437" /><path
         d="m 674.328,435.898 h -0.156 c -2.102,-4.57 -7.422,-7.05 -12.149,-7.05 -10.875,0 -12.597,7.355 -12.597,10.8 0,12.829 13.652,13.43 23.547,13.43 h 0.906 v 1.949 c 0,6.524 -2.332,9.825 -8.703,9.825 -3.973,0 -7.723,-0.903 -11.25,-3.153 v 4.578 c 2.922,1.422 7.871,2.625 11.25,2.625 9.449,0 13.422,-4.273 13.422,-14.254 v -16.875 c 0,-3.07 0,-5.398 0.379,-8.023 h -4.649 z m -0.449,13.125 h -1.356 c -8.175,0 -17.921,-0.82 -17.921,-9.218 0,-5.032 3.597,-6.907 7.949,-6.907 11.097,0 11.328,9.68 11.328,13.801 v 2.324"
         style="fill:#231f20;fill-opacity:1;fill-rule:nonzero;stroke:none"
         id="path10439" /><path
         d="m 692.172,433.727 23.023,30.222 H 693.078 V 468 h 27.598 v -4.051 l -23.028,-30.148 h 23.028 v -4.051 h -28.504 v 3.977"
         style="fill:#231f20;fill-opacity:1;fill-rule:nonzero;stroke:none"
         id="path10441" /><path
         d="m 739.57,478.203 h -4.715 v 6.301 h 4.715 z M 734.855,468 h 4.715 v -38.25 h -4.715 V 468"
         style="fill:#231f20;fill-opacity:1;fill-rule:nonzero;stroke:none"
         id="path10443" /><path
         d="m 772.277,468.902 c 12.371,0 17.852,-9.601 17.852,-20.023 0,-10.426 -5.481,-20.031 -17.852,-20.031 -12.382,0 -17.851,9.605 -17.851,20.031 0,10.422 5.469,20.023 17.851,20.023 z m 0,-36.004 c 8.243,0 12.676,7.129 12.676,15.981 0,8.844 -4.433,15.973 -12.676,15.973 -8.261,0 -12.675,-7.129 -12.675,-15.973 0,-8.852 4.414,-15.981 12.675,-15.981"
         style="fill:#231f20;fill-opacity:1;fill-rule:nonzero;stroke:none"
         id="path10445" /><path
         d="m 804.895,459.004 c 0,2.922 0,5.922 -0.293,8.996 h 4.57 v -6.824 h 0.156 c 1.563,3.453 4.414,7.726 12.363,7.726 9.454,0 13.055,-6.304 13.055,-14.703 V 429.75 H 830.02 V 453 c 0,7.199 -2.547,11.852 -9.071,11.852 -8.633,0 -11.328,-7.579 -11.328,-13.954 V 429.75 h -4.726 v 29.254"
         style="fill:#231f20;fill-opacity:1;fill-rule:nonzero;stroke:none"
         id="path10447" /><path
         d="m 878.098,430.953 c -3.301,-1.355 -7.578,-2.105 -11.094,-2.105 -12.676,0 -17.402,8.554 -17.402,20.031 0,11.699 6.445,20.023 16.121,20.023 10.8,0 15.226,-8.703 15.226,-18.976 v -2.399 h -26.172 c 0,-8.101 4.344,-14.629 12.598,-14.629 3.457,0 8.477,1.43 10.723,2.856 z m -2.325,20.625 c 0,6.676 -2.695,13.274 -9.746,13.274 -6.972,0 -11.25,-6.977 -11.25,-13.274 h 20.996"
         style="fill:#231f20;fill-opacity:1;fill-rule:nonzero;stroke:none"
         id="path10449" /><path
         d="m 921.594,436.426 c 3.086,-1.953 6.679,-3.078 11.562,-3.078 6.446,0 11.766,3.3 11.766,10.73 0,10.274 -23.992,11.547 -23.992,25.274 0,8.402 7.343,13.648 16.562,13.648 2.559,0 6.68,-0.371 10.281,-1.723 l -0.828,-4.726 c -2.324,1.277 -5.996,1.949 -9.523,1.949 -5.399,0 -11.317,-2.25 -11.317,-8.996 0,-10.5 23.993,-10.578 23.993,-25.879 0,-10.574 -9.071,-14.777 -17.176,-14.777 -5.098,0 -9.074,1.054 -11.848,2.254 l 0.52,5.324"
         style="fill:#231f20;fill-opacity:1;fill-rule:nonzero;stroke:none"
         id="path10451" /><path
         d="m 979.121,429.75 h -5.547 L 960.598,468 h 5.175 l 10.575,-33.074 h 0.148 L 987.598,468 h 4.953 l -13.43,-38.25"
         style="fill:#231f20;fill-opacity:1;fill-rule:nonzero;stroke:none"
         id="path10453" /><path
         d="m 1009.72,478.203 h -4.73 v 6.301 h 4.73 z M 1004.99,468 h 4.73 v -38.25 h -4.73 V 468"
         style="fill:#231f20;fill-opacity:1;fill-rule:nonzero;stroke:none"
         id="path10455" /><path
         d="m 1023.98,433.727 23.01,30.222 h -22.11 V 468 h 27.59 v -4.051 l -23.02,-30.148 h 23.02 v -4.051 h -28.49 v 3.977"
         style="fill:#231f20;fill-opacity:1;fill-rule:nonzero;stroke:none"
         id="path10457" /><path
         d="m 1063.12,433.727 23.02,30.222 h -22.12 V 468 h 27.59 v -4.051 l -23.02,-30.148 h 23.02 v -4.051 h -28.49 v 3.977"
         style="fill:#231f20;fill-opacity:1;fill-rule:nonzero;stroke:none"
         id="path10459" /><path
         d="m 1131.45,430.953 c -3.31,-1.355 -7.58,-2.105 -11.11,-2.105 -12.67,0 -17.4,8.554 -17.4,20.031 0,11.699 6.45,20.023 16.13,20.023 10.81,0 15.22,-8.703 15.22,-18.976 v -2.399 h -26.17 c 0,-8.101 4.35,-14.629 12.59,-14.629 3.46,0 8.48,1.43 10.74,2.856 z m -2.34,20.625 c 0,6.676 -2.69,13.274 -9.74,13.274 -6.98,0 -11.25,-6.977 -11.25,-13.274 h 20.99"
         style="fill:#231f20;fill-opacity:1;fill-rule:nonzero;stroke:none"
         id="path10461" /><path
         d="m 1149.14,459.453 c 0,4.199 0,5.77 -0.3,8.547 h 4.73 v -7.348 h 0.15 c 1.72,4.274 4.94,8.25 9.83,8.25 1.12,0 2.47,-0.226 3.3,-0.449 V 463.5 c -0.98,0.301 -2.25,0.449 -3.46,0.449 -7.5,0 -9.52,-8.398 -9.52,-15.297 V 429.75 h -4.73 v 29.703"
         style="fill:#231f20;fill-opacity:1;fill-rule:nonzero;stroke:none"
         id="path10463" /><path
         d="m 1201.95,435.898 h -0.16 c -2.09,-4.57 -7.42,-7.05 -12.15,-7.05 -10.87,0 -12.6,7.355 -12.6,10.8 0,12.829 13.66,13.43 23.56,13.43 h 0.9 v 1.949 c 0,6.524 -2.33,9.825 -8.71,9.825 -3.97,0 -7.72,-0.903 -11.25,-3.153 v 4.578 c 2.92,1.422 7.89,2.625 11.25,2.625 9.45,0 13.43,-4.273 13.43,-14.254 v -16.875 c 0,-3.07 0,-5.398 0.37,-8.023 h -4.64 z m -0.45,13.125 h -1.35 c -8.19,0 -17.93,-0.82 -17.93,-9.218 0,-5.032 3.6,-6.907 7.95,-6.907 11.1,0 11.33,9.68 11.33,13.801 v 2.324"
         style="fill:#231f20;fill-opacity:1;fill-rule:nonzero;stroke:none"
         id="path10465" /><path
         d="m 341.926,372.754 c -3.301,1.726 -8.024,2.246 -11.699,2.246 -13.575,0 -21.223,-9.59 -21.223,-22.57 0,-13.203 7.422,-22.578 21.223,-22.578 3.449,0 8.699,0.449 11.699,2.257 l 0.301,-4.511 c -2.852,-1.719 -8.7,-2.246 -12,-2.246 -16.5,0 -26.399,10.878 -26.399,27.078 0,15.902 10.195,27.074 26.399,27.074 3.074,0 9.3,-0.52 12,-1.945 l -0.301,-4.805"
         style="fill:#231f20;fill-opacity:1;fill-rule:nonzero;stroke:none"
         id="path10467" /><path
         d="m 376.273,365.41 c 12.379,0 17.852,-9.609 17.852,-20.027 0,-10.422 -5.473,-20.031 -17.852,-20.031 -12.375,0 -17.843,9.609 -17.843,20.031 0,10.418 5.468,20.027 17.843,20.027 z m 0,-36.008 c 8.25,0 12.676,7.121 12.676,15.981 0,8.844 -4.426,15.972 -12.676,15.972 -8.246,0 -12.675,-7.128 -12.675,-15.972 0,-8.86 4.429,-15.981 12.675,-15.981"
         style="fill:#231f20;fill-opacity:1;fill-rule:nonzero;stroke:none"
         id="path10469" /><path
         d="m 408.902,355.508 c 0,2.918 0,5.918 -0.297,9.004 h 4.571 v -6.836 h 0.148 c 1.578,3.457 4.43,7.734 12.379,7.734 9.449,0 13.047,-6.308 13.047,-14.707 V 326.25 h -4.727 v 23.262 c 0,7.187 -2.546,11.843 -9.07,11.843 -8.625,0 -11.328,-7.578 -11.328,-13.953 V 326.25 h -4.723 v 29.258"
         style="fill:#231f20;fill-opacity:1;fill-rule:nonzero;stroke:none"
         id="path10471" /><path
         d="m 459.68,360.449 h -7.727 v 4.063 h 7.727 v 2.773 c 0,8.016 0.297,16.121 10.121,16.121 1.5,0 3.523,-0.222 4.429,-0.75 l -0.304,-4.121 c -0.977,0.516 -2.403,0.82 -3.75,0.82 -6.449,0 -5.778,-6.972 -5.778,-11.554 v -3.289 h 8.629 v -4.063 h -8.629 V 326.25 h -4.718 v 34.199"
         style="fill:#231f20;fill-opacity:1;fill-rule:nonzero;stroke:none"
         id="path10473" /><path
         d="m 512.926,327.461 c -3.301,-1.359 -7.574,-2.109 -11.098,-2.109 -12.676,0 -17.402,8.554 -17.402,20.031 0,11.699 6.449,20.027 16.121,20.027 10.801,0 15.23,-8.711 15.23,-18.984 v -2.403 h -26.175 c 0,-8.097 4.347,-14.621 12.597,-14.621 3.449,0 8.477,1.43 10.727,2.856 z m -2.324,20.625 c 0,6.672 -2.7,13.269 -9.75,13.269 -6.973,0 -11.25,-6.98 -11.25,-13.269 h 21"
         style="fill:#231f20;fill-opacity:1;fill-rule:nonzero;stroke:none"
         id="path10475" /><path
         d="m 560.93,326.25 h -4.727 v 6.074 h -0.152 c -2.551,-4.863 -6.449,-6.972 -11.926,-6.972 -10.5,0 -15.75,8.699 -15.75,20.031 0,11.629 4.5,20.027 15.75,20.027 7.5,0 11.25,-5.48 11.926,-7.355 h 0.152 V 382.5 h 4.727 z m -16.055,3.152 c 8.398,0 11.328,8.996 11.328,15.981 0,6.969 -2.93,15.972 -11.328,15.972 -9,0 -11.324,-8.554 -11.324,-15.972 0,-7.434 2.324,-15.981 11.324,-15.981"
         style="fill:#231f20;fill-opacity:1;fill-rule:nonzero;stroke:none"
         id="path10477" /><path
         d="m 603.824,327.461 c -3.301,-1.359 -7.574,-2.109 -11.097,-2.109 -12.676,0 -17.403,8.554 -17.403,20.031 0,11.699 6.449,20.027 16.121,20.027 10.801,0 15.231,-8.711 15.231,-18.984 v -2.403 H 580.5 c 0,-8.097 4.348,-14.621 12.598,-14.621 3.449,0 8.476,1.43 10.726,2.856 z m -2.324,20.625 c 0,6.672 -2.699,13.269 -9.75,13.269 -6.973,0 -11.25,-6.98 -11.25,-13.269 h 21"
         style="fill:#231f20;fill-opacity:1;fill-rule:nonzero;stroke:none"
         id="path10479" /><path
         d="m 621.523,355.957 c 0,4.199 0,5.77 -0.296,8.555 h 4.722 v -7.364 h 0.156 c 1.719,4.278 4.946,8.262 9.825,8.262 1.121,0 2.468,-0.234 3.3,-0.449 V 360 c -0.976,0.301 -2.257,0.449 -3.453,0.449 -7.5,0 -9.527,-8.398 -9.527,-15.293 V 326.25 h -4.727 v 29.707"
         style="fill:#231f20;fill-opacity:1;fill-rule:nonzero;stroke:none"
         id="path10481" /><path
         d="m 674.328,332.402 h -0.156 c -2.102,-4.57 -7.422,-7.05 -12.149,-7.05 -10.875,0 -12.597,7.355 -12.597,10.8 0,12.832 13.652,13.43 23.547,13.43 h 0.906 v 1.941 c 0,6.532 -2.332,9.832 -8.703,9.832 -3.973,0 -7.723,-0.906 -11.25,-3.152 v 4.57 c 2.922,1.426 7.871,2.637 11.25,2.637 9.449,0 13.422,-4.277 13.422,-14.258 v -16.875 c 0,-3.066 0,-5.39 0.379,-8.027 h -4.649 z m -0.449,13.125 h -1.356 c -8.175,0 -17.921,-0.82 -17.921,-9.218 0,-5.032 3.597,-6.907 7.949,-6.907 11.097,0 11.328,9.68 11.328,13.801 v 2.324"
         style="fill:#231f20;fill-opacity:1;fill-rule:nonzero;stroke:none"
         id="path10483" /><path
         d="m 692.172,330.234 23.023,30.215 h -22.117 v 4.063 h 27.598 v -4.063 l -23.028,-30.148 h 23.028 v -4.051 h -28.504 v 3.984"
         style="fill:#231f20;fill-opacity:1;fill-rule:nonzero;stroke:none"
         id="path10485" /><path
         d="m 739.57,374.707 h -4.715 v 6.301 h 4.715 z m -4.715,-10.195 h 4.715 V 326.25 h -4.715 v 38.262"
         style="fill:#231f20;fill-opacity:1;fill-rule:nonzero;stroke:none"
         id="path10487" /><path
         d="m 787.199,335.254 c 0,-2.93 0,-5.918 0.293,-9.004 h -4.57 v 6.836 h -0.149 c -1.57,-3.457 -4.421,-7.734 -12.371,-7.734 -9.453,0 -13.058,6.308 -13.058,14.707 v 24.453 h 4.726 V 341.25 c 0,-7.199 2.551,-11.848 9.075,-11.848 8.632,0 11.328,7.578 11.328,13.957 v 21.153 h 4.726 v -29.258"
         style="fill:#231f20;fill-opacity:1;fill-rule:nonzero;stroke:none"
         id="path10489" /><path
         d="m 804.895,355.508 c 0,2.918 0,5.918 -0.293,9.004 h 4.57 v -6.836 h 0.156 c 1.563,3.457 4.414,7.734 12.363,7.734 9.454,0 13.055,-6.308 13.055,-14.707 V 326.25 h -4.726 v 23.262 c 0,7.187 -2.547,11.843 -9.071,11.843 -8.633,0 -11.328,-7.578 -11.328,-13.953 V 326.25 h -4.726 v 29.258"
         style="fill:#231f20;fill-opacity:1;fill-rule:nonzero;stroke:none"
         id="path10491" /><path
         d="m 876.223,331.805 c 2.851,-1.422 6.308,-2.403 9.98,-2.403 4.492,0 8.477,2.473 8.477,6.828 0,9.071 -18.379,7.657 -18.379,18.75 0,7.579 6.152,10.43 12.449,10.43 2.023,0 6.074,-0.449 9.445,-1.73 l -0.449,-4.129 c -2.473,1.133 -5.84,1.804 -8.476,1.804 -4.864,0 -8.243,-1.503 -8.243,-6.375 0,-7.128 18.828,-6.23 18.828,-18.75 0,-8.105 -7.578,-10.878 -13.359,-10.878 -3.672,0 -7.344,0.449 -10.723,1.796 l 0.45,4.657"
         style="fill:#231f20;fill-opacity:1;fill-rule:nonzero;stroke:none"
         id="path10493" /><path
         d="m 927.453,326.25 h -5.547 l -12.988,38.262 h 5.176 l 10.586,-33.086 h 0.144 l 11.106,33.086 h 4.941 L 927.453,326.25"
         style="fill:#231f20;fill-opacity:1;fill-rule:nonzero;stroke:none"
         id="path10495" /><path
         d="m 958.039,374.707 h -4.726 v 6.301 h 4.726 z m -4.726,-10.195 h 4.726 V 326.25 h -4.726 v 38.262"
         style="fill:#231f20;fill-opacity:1;fill-rule:nonzero;stroke:none"
         id="path10497" /><path
         d="m 972.297,330.234 23.027,30.215 h -22.129 v 4.063 h 27.595 v -4.063 l -23.024,-30.148 h 23.024 v -4.051 h -28.493 v 3.984"
         style="fill:#231f20;fill-opacity:1;fill-rule:nonzero;stroke:none"
         id="path10499" /><path
         d="m 1014.97,355.957 c 0,4.199 0,5.77 -0.3,8.555 h 4.72 v -7.364 h 0.15 c 1.73,4.278 4.95,8.262 9.83,8.262 1.13,0 2.48,-0.234 3.3,-0.449 V 360 c -0.98,0.301 -2.25,0.449 -3.45,0.449 -7.5,0 -9.52,-8.398 -9.52,-15.293 V 326.25 h -4.73 v 29.707"
         style="fill:#231f20;fill-opacity:1;fill-rule:nonzero;stroke:none"
         id="path10501" /><path
         d="m 1067.77,332.402 h -0.15 c -2.1,-4.57 -7.42,-7.05 -12.15,-7.05 -10.87,0 -12.61,7.355 -12.61,10.8 0,12.832 13.66,13.43 23.56,13.43 h 0.9 v 1.941 c 0,6.532 -2.33,9.832 -8.69,9.832 -3.99,0 -7.74,-0.906 -11.25,-3.152 v 4.57 c 2.91,1.426 7.87,2.637 11.25,2.637 9.44,0 13.41,-4.277 13.41,-14.258 v -16.875 c 0,-3.066 0,-5.39 0.37,-8.027 h -4.64 z m -0.45,13.125 h -1.35 c -8.18,0 -17.93,-0.82 -17.93,-9.218 0,-5.032 3.61,-6.907 7.95,-6.907 11.11,0 11.33,9.68 11.33,13.801 v 2.324"
         style="fill:#231f20;fill-opacity:1;fill-rule:nonzero;stroke:none"
         id="path10503" /><path
         d="m 333.75,162.004 c -3.301,1.422 -6.973,2.254 -10.648,2.254 -3.598,0 -8.247,-1.582 -8.247,-7.285 0,-9.063 22.95,-5.246 22.95,-22.793 0,-11.473 -9.078,-15.821 -19.649,-15.821 -5.703,0 -8.254,0.743 -13.429,2.012 l 0.976,9.453 c 3.598,-1.953 7.727,-3.222 11.848,-3.222 3.972,0 9.301,2.031 9.301,6.757 0,9.973 -22.95,5.84 -22.95,23.164 0,11.7 9.078,15.977 18.301,15.977 4.496,0 8.695,-0.598 12.524,-1.875 l -0.977,-8.621"
         style="fill:#231f20;fill-opacity:1;fill-rule:nonzero;stroke:none"
         id="path10505" /><path
         d="m 343.203,157.871 h 10.645 l 8.554,-28.574 h 0.149 l 7.801,28.574 h 11.699 l 8.398,-28.574 h 0.153 l 8.023,28.574 h 9.598 l -11.844,-38.613 h -11.852 l -8.402,29.472 h -0.148 l -8.25,-29.472 H 356.25 l -13.047,38.613"
         style="fill:#231f20;fill-opacity:1;fill-rule:nonzero;stroke:none"
         id="path10507" /><path
         d="m 415.578,174.531 h 10.047 v -9.609 h -10.047 z m 0,-16.66 h 10.047 v -38.613 h -10.047 v 38.613"
         style="fill:#231f20;fill-opacity:1;fill-rule:nonzero;stroke:none"
         id="path10509" /><path
         d="m 460.273,149.785 c -3.07,1.047 -5.32,1.641 -8.992,1.641 -2.707,0 -5.929,-0.977 -5.929,-4.278 0,-6.152 17.476,-2.246 17.476,-16.191 0,-9.004 -8.027,-12.598 -16.203,-12.598 -3.82,0 -7.723,0.664 -11.398,1.641 l 0.597,8.254 c 3.153,-1.574 6.453,-2.551 9.899,-2.551 2.554,0 6.601,0.977 6.601,4.727 0,7.578 -17.469,2.402 -17.469,16.347 0,8.321 7.274,12 15.145,12 4.727,0 7.805,-0.75 10.953,-1.425 l -0.68,-7.567"
         style="fill:#231f20;fill-opacity:1;fill-rule:nonzero;stroke:none"
         id="path10511" /><path
         d="m 494.699,149.785 c -3.074,1.047 -5.324,1.641 -8.996,1.641 -2.703,0 -5.926,-0.977 -5.926,-4.278 0,-6.152 17.473,-2.246 17.473,-16.191 0,-9.004 -8.027,-12.598 -16.199,-12.598 -3.824,0 -7.727,0.664 -11.403,1.641 l 0.602,8.254 c 3.148,-1.574 6.449,-2.551 9.898,-2.551 2.551,0 6.602,0.977 6.602,4.727 0,7.578 -17.473,2.402 -17.473,16.347 0,8.321 7.278,12 15.149,12 4.726,0 7.801,-0.75 10.949,-1.425 l -0.676,-7.567"
         style="fill:#231f20;fill-opacity:1;fill-rule:nonzero;stroke:none"
         id="path10513" /><path
         d="m 544.047,171.602 h 11.851 l 20.551,-52.344 h -11.625 l -4.5,11.992 h -21.222 l -4.579,-11.992 h -10.875 z m 5.777,-10.5 h -0.152 l -7.57,-21.598 h 15.3 l -7.578,21.598"
         style="fill:#231f20;fill-opacity:1;fill-rule:nonzero;stroke:none"
         id="path10515" /><path
         d="m 618.898,157.871 v -34.863 c 0,-10.508 -4.199,-20.41 -20.402,-20.41 -3.973,0 -8.551,0.605 -13.348,2.636 l 0.825,8.543 c 3.074,-1.648 8.101,-3.367 11.25,-3.367 11.097,0 11.625,8.32 11.625,15 h -0.153 c -1.875,-3.301 -6.371,-6.152 -11.996,-6.152 -11.402,0 -15.75,9.14 -15.75,19.492 0,9.297 4.797,20.027 16.348,20.027 5.101,0 9.074,-1.726 11.855,-6.148 h 0.145 v 5.242 z m -10.05,-18.887 c 0,6.594 -2.547,11.993 -8.399,11.993 -6.824,0 -9.004,-6.301 -9.004,-12.227 0,-5.254 2.774,-11.699 8.555,-11.699 6.301,0 8.848,5.476 8.848,11.933"
         style="fill:#231f20;fill-opacity:1;fill-rule:nonzero;stroke:none"
         id="path10517" /><path
         d="m 661.348,121.426 c -3.676,-2.024 -7.875,-3.067 -13.278,-3.067 -12.746,0 -20.175,7.344 -20.175,20.02 0,11.172 5.925,20.398 17.925,20.398 14.328,0 18.375,-9.82 18.375,-23.328 h -26.699 c 0.449,-6.222 4.801,-9.746 11.024,-9.746 4.878,0 9.078,1.797 12.828,3.906 z m -6.754,20.926 c -0.297,4.875 -2.547,9.074 -8.172,9.074 -5.625,0 -8.477,-3.899 -8.926,-9.074 h 17.098"
         style="fill:#231f20;fill-opacity:1;fill-rule:nonzero;stroke:none"
         id="path10519" /><path
         d="m 673.195,157.871 h 9.524 v -5.242 h 0.152 c 3.149,4.422 7.422,6.148 12.676,6.148 9.152,0 13.125,-6.453 13.125,-15.144 v -24.375 h -10.047 v 20.625 c 0,4.726 -0.078,11.094 -6.531,11.094 -7.274,0 -8.852,-7.872 -8.852,-12.825 v -18.894 h -10.047 v 38.613"
         style="fill:#231f20;fill-opacity:1;fill-rule:nonzero;stroke:none"
         id="path10521" /><path
         d="m 745.195,149.551 c -1.797,0.82 -3.75,1.426 -6.824,1.426 -6.223,0 -10.195,-4.942 -10.195,-12.227 0,-7.129 3.367,-12.598 10.418,-12.598 2.851,0 6.008,1.055 7.726,1.797 l 0.45,-8.32 c -2.922,-0.899 -5.918,-1.27 -10.051,-1.27 -12.676,0 -19.047,8.614 -19.047,20.391 0,11.172 6.598,20.027 18.676,20.027 4.054,0 6.972,-0.445 9.746,-1.277 l -0.899,-7.949"
         style="fill:#231f20;fill-opacity:1;fill-rule:nonzero;stroke:none"
         id="path10523" /><path
         d="m 770.617,129.676 h 0.156 l 9.297,28.195 h 10.196 l -14.473,-38.32 c -3.223,-8.555 -5.547,-16.953 -16.047,-16.953 -2.402,0 -4.805,0.379 -7.129,1.054 l 0.676,7.422 c 1.277,-0.449 2.703,-0.664 5.176,-0.664 4.051,0 6.523,2.774 6.523,6.895 l -14.765,40.566 h 11.093 l 9.297,-28.195"
         style="fill:#231f20;fill-opacity:1;fill-rule:nonzero;stroke:none"
         id="path10525" /><path
         d="m 823.039,150.527 h -7.422 v 7.344 h 7.422 v 5.41 c 0,7.715 4.356,13.125 12.305,13.125 2.558,0 5.398,-0.371 7.351,-0.828 l -0.828,-8.332 c -0.898,0.527 -2.168,1.356 -4.347,1.356 -3.368,0 -4.422,-2.918 -4.422,-5.926 v -4.805 h 8.769 v -7.344 h -8.769 v -31.269 h -10.059 v 31.269"
         style="fill:#231f20;fill-opacity:1;fill-rule:nonzero;stroke:none"
         id="path10527" /><path
         d="m 867.375,158.777 c 11.465,0 20.242,-7.722 20.242,-20.476 0,-11.094 -7.429,-19.942 -20.242,-19.942 -12.754,0 -20.176,8.848 -20.176,19.942 0,12.754 8.77,20.476 20.176,20.476 z m 0,-32.625 c 7.715,0 9.746,6.895 9.746,13.352 0,5.926 -3.144,11.473 -9.746,11.473 -6.535,0 -9.687,-5.704 -9.687,-11.473 0,-6.379 2.031,-13.352 9.687,-13.352"
         style="fill:#231f20;fill-opacity:1;fill-rule:nonzero;stroke:none"
         id="path10529" /><path
         d="m 896.848,157.871 h 8.925 v -8.769 h 0.145 c 0.461,3.605 4.582,9.675 10.578,9.675 0.977,0 2.031,0 3.074,-0.3 v -10.118 c -0.898,0.52 -2.703,0.821 -4.5,0.821 -8.175,0 -8.175,-10.196 -8.175,-15.754 v -14.168 h -10.047 v 38.613"
         style="fill:#231f20;fill-opacity:1;fill-rule:nonzero;stroke:none"
         id="path10531" /><path
         d="m 949.797,171.602 h 14.316 c 16.055,0 30.235,-5.399 30.235,-26.172 0,-20.782 -14.18,-26.172 -30.235,-26.172 H 949.797 Z M 960.293,127.5 h 5.852 c 8.769,0 17.246,6.523 17.246,17.93 0,11.398 -8.477,17.929 -17.246,17.929 h -5.852 V 127.5"
         style="fill:#231f20;fill-opacity:1;fill-rule:nonzero;stroke:none"
         id="path10533" /><path
         d="m 1035.15,121.426 c -3.69,-2.024 -7.88,-3.067 -13.28,-3.067 -12.76,0 -20.18,7.344 -20.18,20.02 0,11.172 5.92,20.398 17.93,20.398 14.32,0 18.37,-9.82 18.37,-23.328 h -26.7 c 0.45,-6.222 4.8,-9.746 11.03,-9.746 4.87,0 9.08,1.797 12.83,3.906 z m -6.76,20.926 c -0.29,4.875 -2.55,9.074 -8.18,9.074 -5.62,0 -8.47,-3.899 -8.92,-9.074 h 17.1"
         style="fill:#231f20;fill-opacity:1;fill-rule:nonzero;stroke:none"
         id="path10535" /><path
         d="m 1042.71,157.871 h 10.81 l 9.6,-28.125 h 0.15 l 9.3,28.125 h 10.05 l -14.25,-38.613 h -11.33 l -14.33,38.613"
         style="fill:#231f20;fill-opacity:1;fill-rule:nonzero;stroke:none"
         id="path10537" /><path
         d="m 1120.79,121.426 c -3.67,-2.024 -7.87,-3.067 -13.27,-3.067 -12.74,0 -20.18,7.344 -20.18,20.02 0,11.172 5.93,20.398 17.93,20.398 14.33,0 18.37,-9.82 18.37,-23.328 h -26.69 c 0.44,-6.222 4.8,-9.746 11.02,-9.746 4.87,0 9.07,1.797 12.82,3.906 z m -6.75,20.926 c -0.3,4.875 -2.54,9.074 -8.17,9.074 -5.62,0 -8.48,-3.899 -8.92,-9.074 h 17.09"
         style="fill:#231f20;fill-opacity:1;fill-rule:nonzero;stroke:none"
         id="path10539" /><path
         d="m 1132.86,175.508 h 10.06 v -56.25 h -10.06 v 56.25"
         style="fill:#231f20;fill-opacity:1;fill-rule:nonzero;stroke:none"
         id="path10541" /><path
         d="m 1172.32,158.777 c 11.48,0 20.25,-7.722 20.25,-20.476 0,-11.094 -7.42,-19.942 -20.25,-19.942 -12.75,0 -20.18,8.848 -20.18,19.942 0,12.754 8.78,20.476 20.18,20.476 z m 0,-32.625 c 7.73,0 9.75,6.895 9.75,13.352 0,5.926 -3.15,11.473 -9.75,11.473 -6.53,0 -9.67,-5.704 -9.67,-11.473 0,-6.379 2.02,-13.352 9.67,-13.352"
         style="fill:#231f20;fill-opacity:1;fill-rule:nonzero;stroke:none"
         id="path10543" /><path
         d="m 1201.57,157.871 h 9.59 v -5.469 h 0.16 c 2.25,3.75 6.07,6.375 11.99,6.375 11.86,0 16.21,-9.449 16.21,-20.105 0,-10.567 -4.35,-20.313 -16.42,-20.313 -4.28,0 -7.81,1.043 -11.33,5.313 h -0.16 v -20.176 h -10.04 z m 10.12,-19.199 c 0,-5.469 2.18,-12.52 8.85,-12.52 6.6,0 8.48,7.207 8.48,12.52 0,5.176 -1.8,12.305 -8.32,12.305 -6.45,0 -9.01,-6.895 -9.01,-12.305"
         style="fill:#231f20;fill-opacity:1;fill-rule:nonzero;stroke:none"
         id="path10545" /><path
         d="m 1248.37,157.871 h 9.38 v -5.391 h 0.14 c 3.16,4.727 7.73,6.297 11.48,6.297 5.4,0 9.22,-2.019 11.4,-6.824 2.33,4.649 7.35,6.824 12.07,6.824 9.52,0 12.23,-6.531 12.23,-15.144 v -24.375 h -10.06 v 23.027 c 0,3.594 0,8.692 -5.77,8.692 -6.67,0 -7.5,-7.95 -7.5,-12.969 v -18.75 h -10.05 v 23.027 c 0,3.594 0,8.692 -5.78,8.692 -6.67,0 -7.5,-7.95 -7.5,-12.969 v -18.75 h -10.04 v 38.613"
         style="fill:#231f20;fill-opacity:1;fill-rule:nonzero;stroke:none"
         id="path10547" /><path
         d="m 1347.3,121.426 c -3.69,-2.024 -7.89,-3.067 -13.28,-3.067 -12.76,0 -20.18,7.344 -20.18,20.02 0,11.172 5.92,20.398 17.93,20.398 14.32,0 18.37,-9.82 18.37,-23.328 h -26.7 c 0.45,-6.222 4.79,-9.746 11.02,-9.746 4.88,0 9.09,1.797 12.84,3.906 z m -6.76,20.926 c -0.29,4.875 -2.55,9.074 -8.18,9.074 -5.62,0 -8.47,-3.899 -8.92,-9.074 h 17.1"
         style="fill:#231f20;fill-opacity:1;fill-rule:nonzero;stroke:none"
         id="path10549" /><path
         d="m 1359.14,157.871 h 9.52 v -5.242 h 0.16 c 3.14,4.422 7.42,6.148 12.68,6.148 9.14,0 13.12,-6.453 13.12,-15.144 v -24.375 h -10.06 v 20.625 c 0,4.726 -0.07,11.094 -6.52,11.094 -7.27,0 -8.85,-7.872 -8.85,-12.825 v -18.894 h -10.05 v 38.613"
         style="fill:#231f20;fill-opacity:1;fill-rule:nonzero;stroke:none"
         id="path10551" /><path
         d="m 1409.39,150.527 h -7.43 v 7.344 h 7.43 v 7.734 l 10.06,3.223 v -10.957 h 8.92 v -7.344 h -8.92 v -18 c 0,-3.3 0.89,-6.375 4.72,-6.375 1.8,0 3.52,0.371 4.57,1.055 l 0.29,-7.949 c -2.08,-0.606 -4.41,-0.899 -7.42,-0.899 -7.87,0 -12.22,4.864 -12.22,12.52 v 19.648"
         style="fill:#231f20;fill-opacity:1;fill-rule:nonzero;stroke:none"
         id="path10553" /><path
         d="m 306.449,52.3633 c 3.903,1.7969 9.153,2.918 13.426,2.918 11.777,0 16.648,-4.8711 16.648,-16.2774 v -4.9414 c 0,-3.9062 0.079,-6.8359 0.153,-9.6875 0.074,-2.918 0.23,-5.625 0.453,-8.6133 h -8.852 c -0.375,2.0196 -0.375,4.5703 -0.449,5.7696 h -0.152 c -2.324,-4.2735 -7.352,-6.668 -11.922,-6.668 -6.828,0 -13.504,4.1211 -13.504,11.4648 0,5.7813 2.781,9.1602 6.598,11.0352 3.828,1.875 8.781,2.2461 12.98,2.2461 h 5.547 c 0,6.2226 -2.773,8.3203 -8.699,8.3203 -4.27,0 -8.547,-1.6406 -11.926,-4.1992 z M 318.223,22.207 c 3.078,0 5.48,1.3477 7.05,3.4571 1.653,2.1679 2.102,4.9414 2.102,7.9492 h -4.348 c -4.5,0 -11.175,-0.7617 -11.175,-6.6797 0,-3.3008 2.777,-4.7266 6.371,-4.7266"
         style="fill:#231f20;fill-opacity:1;fill-rule:nonzero;stroke:none"
         id="path10555" /><path
         d="m 347.551,54.375 h 9.523 v -5.2422 h 0.153 c 3.148,4.4219 7.421,6.1485 12.675,6.1485 9.153,0 13.125,-6.4532 13.125,-15.1446 V 15.7617 H 372.98 v 20.625 c 0,4.7266 -0.078,11.0938 -6.531,11.0938 -7.273,0 -8.851,-7.8711 -8.851,-12.8242 V 15.7617 H 347.551 V 54.375"
         style="fill:#231f20;fill-opacity:1;fill-rule:nonzero;stroke:none"
         id="path10557" /><path
         d="m 420.227,20.1055 h -0.149 c -3.004,-3.75 -7.129,-5.2422 -11.855,-5.2422 -11.844,0 -16.196,9.7461 -16.196,20.3125 0,10.6562 4.352,20.1055 16.196,20.1055 5.031,0 8.554,-1.7266 11.554,-5.3985 h 0.149 v 22.1289 h 10.051 v -56.25 h -9.75 z M 411,22.6563 c 6.676,0 8.855,7.0507 8.855,12.5195 0,5.4101 -2.55,12.3047 -9.003,12.3047 -6.524,0 -8.321,-7.1289 -8.321,-12.3047 0,-5.3125 1.875,-12.5195 8.469,-12.5195"
         style="fill:#231f20;fill-opacity:1;fill-rule:nonzero;stroke:none"
         id="path10559" /><path
         d="m 502.422,16.5039 c -3.824,-0.8984 -7.949,-1.6406 -11.922,-1.6406 -16.949,0 -28.723,8.4687 -28.723,26.1719 0,17.9218 10.95,27.9687 28.723,27.9687 3.449,0 8.027,-0.6719 11.848,-2.168 l -0.746,-8.8476 c -3.973,2.2461 -7.579,2.7734 -11.329,2.7734 -10.8,0 -17.546,-8.2617 -17.546,-18.9844 0,-10.6445 6.601,-18.6718 17.773,-18.6718 4.125,0 9.004,0.8984 11.473,2.1758 l 0.449,-8.7774"
         style="fill:#231f20;fill-opacity:1;fill-rule:nonzero;stroke:none"
         id="path10561" /><path
         d="m 528.078,55.2813 c 11.473,0 20.246,-7.7227 20.246,-20.4766 0,-11.0938 -7.426,-19.9414 -20.246,-19.9414 -12.754,0 -20.176,8.8476 -20.176,19.9414 0,12.7539 8.774,20.4766 20.176,20.4766 z m 0,-32.625 c 7.723,0 9.746,6.8945 9.746,13.3515 0,5.9258 -3.144,11.4727 -9.746,11.4727 -6.523,0 -9.68,-5.7032 -9.68,-11.4727 0,-6.3789 2.028,-13.3515 9.68,-13.3515"
         style="fill:#231f20;fill-opacity:1;fill-rule:nonzero;stroke:none"
         id="path10563" /><path
         d="m 575.023,55.2813 c 11.477,0 20.25,-7.7227 20.25,-20.4766 0,-11.0938 -7.421,-19.9414 -20.25,-19.9414 -12.746,0 -20.175,8.8476 -20.175,19.9414 0,12.7539 8.777,20.4766 20.175,20.4766 z m 0,-32.625 c 7.727,0 9.754,6.8945 9.754,13.3515 0,5.9258 -3.156,11.4727 -9.754,11.4727 -6.527,0 -9.671,-5.7032 -9.671,-11.4727 0,-6.3789 2.023,-13.3515 9.671,-13.3515"
         style="fill:#231f20;fill-opacity:1;fill-rule:nonzero;stroke:none"
         id="path10565" /><path
         d="m 604.277,54.375 h 9.602 v -5.4687 h 0.144 c 2.25,3.75 6.075,6.375 12.004,6.375 11.844,0 16.2,-9.4493 16.2,-20.1055 0,-10.5664 -4.356,-20.3125 -16.426,-20.3125 -4.278,0 -7.801,1.043 -11.328,5.3125 h -0.145 V 0 h -10.051 z m 10.121,-19.1992 c 0,-5.4688 2.176,-12.5195 8.856,-12.5195 6.594,0 8.469,7.207 8.469,12.5195 0,5.1758 -1.801,12.3047 -8.325,12.3047 -6.449,0 -9,-6.8946 -9,-12.3047"
         style="fill:#231f20;fill-opacity:1;fill-rule:nonzero;stroke:none"
         id="path10567" /><path
         d="m 682.199,17.9297 c -3.672,-2.0234 -7.879,-3.0664 -13.273,-3.0664 -12.754,0 -20.176,7.3437 -20.176,20.0195 0,11.1719 5.922,20.3985 17.922,20.3985 14.324,0 18.379,-9.8204 18.379,-23.3282 h -26.699 c 0.449,-6.2226 4.793,-9.7461 11.023,-9.7461 4.875,0 9.074,1.7969 12.824,3.9063 z m -6.75,20.9258 c -0.301,4.875 -2.547,9.0742 -8.172,9.0742 -5.625,0 -8.476,-3.8984 -8.925,-9.0742 h 17.097"
         style="fill:#231f20;fill-opacity:1;fill-rule:nonzero;stroke:none"
         id="path10569" /><path
         d="m 694.273,54.375 h 8.926 v -8.7695 h 0.153 c 0.449,3.6054 4.57,9.6758 10.574,9.6758 0.972,0 2.023,0 3.07,-0.3008 V 44.8633 c -0.902,0.5195 -2.699,0.8203 -4.496,0.8203 -8.18,0 -8.18,-10.1953 -8.18,-15.7539 V 15.7617 H 694.273 V 54.375"
         style="fill:#231f20;fill-opacity:1;fill-rule:nonzero;stroke:none"
         id="path10571" /><path
         d="m 726.074,52.3633 c 3.899,1.7969 9.153,2.918 13.43,2.918 11.766,0 16.641,-4.8711 16.641,-16.2774 v -4.9414 c 0,-3.9062 0.078,-6.8359 0.156,-9.6875 0.078,-2.918 0.222,-5.625 0.449,-8.6133 h -8.848 c -0.382,2.0196 -0.382,4.5703 -0.449,5.7696 h -0.156 c -2.324,-4.2735 -7.344,-6.668 -11.926,-6.668 -6.824,0 -13.496,4.1211 -13.496,11.4648 0,5.7813 2.773,9.1602 6.594,11.0352 3.828,1.875 8.777,2.2461 12.976,2.2461 h 5.559 c 0,6.2226 -2.774,8.3203 -8.703,8.3203 -4.278,0 -8.555,-1.6406 -11.922,-4.1992 z m 11.77,-30.1563 c 3.086,0 5.476,1.3477 7.051,3.4571 1.66,2.1679 2.109,4.9414 2.109,7.9492 h -4.356 c -4.503,0 -11.171,-0.7617 -11.171,-6.6797 0,-3.3008 2.773,-4.7266 6.367,-4.7266"
         style="fill:#231f20;fill-opacity:1;fill-rule:nonzero;stroke:none"
         id="path10573" /><path
         d="m 770.48,47.0313 h -7.433 v 7.3437 h 7.433 v 7.7344 l 10.04,3.2226 V 54.375 h 8.925 v -7.3437 h -8.925 v -18 c 0,-3.3008 0.898,-6.375 4.726,-6.375 1.797,0 3.535,0.371 4.578,1.0546 l 0.305,-7.9492 c -2.109,-0.6054 -4.434,-0.8984 -7.434,-0.8984 -7.871,0 -12.215,4.8633 -12.215,12.5195 v 19.6485"
         style="fill:#231f20;fill-opacity:1;fill-rule:nonzero;stroke:none"
         id="path10575" /><path
         d="m 797.695,71.0352 h 10.051 v -9.6094 h -10.051 z m 0,-16.6602 h 10.051 V 15.7617 H 797.695 V 54.375"
         style="fill:#231f20;fill-opacity:1;fill-rule:nonzero;stroke:none"
         id="path10577" /><path
         d="m 837.148,55.2813 c 11.477,0 20.247,-7.7227 20.247,-20.4766 0,-11.0938 -7.422,-19.9414 -20.247,-19.9414 -12.742,0 -20.175,8.8476 -20.175,19.9414 0,12.7539 8.781,20.4766 20.175,20.4766 z m 0,-32.625 c 7.727,0 9.758,6.8945 9.758,13.3515 0,5.9258 -3.156,11.4727 -9.758,11.4727 -6.523,0 -9.675,-5.7032 -9.675,-11.4727 0,-6.3789 2.031,-13.3515 9.675,-13.3515"
         style="fill:#231f20;fill-opacity:1;fill-rule:nonzero;stroke:none"
         id="path10579" /><path
         d="m 866.398,54.375 h 9.532 v -5.2422 h 0.136 c 3.153,4.4219 7.43,6.1485 12.676,6.1485 9.16,0 13.125,-6.4532 13.125,-15.1446 v -24.375 h -10.039 v 20.625 c 0,4.7266 -0.078,11.0938 -6.523,11.0938 -7.285,0 -8.86,-7.8711 -8.86,-12.8242 V 15.7617 H 866.398 V 54.375"
         style="fill:#231f20;fill-opacity:1;fill-rule:nonzero;stroke:none"
         id="path10581" /><path
         d="m 964.348,58.5078 c -3.301,1.4219 -6.973,2.2539 -10.645,2.2539 -3.605,0 -8.262,-1.582 -8.262,-7.2851 0,-9.0625 22.957,-5.2461 22.957,-22.793 0,-11.4727 -9.07,-15.8203 -19.656,-15.8203 -5.695,0 -8.242,0.7422 -13.418,2.0117 l 0.977,9.4531 c 3.594,-1.9531 7.722,-3.2226 11.844,-3.2226 3.976,0 9.308,2.0312 9.308,6.7578 0,9.9726 -22.949,5.8398 -22.949,23.164 0,11.6993 9.062,15.9766 18.301,15.9766 4.492,0 8.691,-0.5976 12.519,-1.875 l -0.976,-8.6211"
         style="fill:#231f20;fill-opacity:1;fill-rule:nonzero;stroke:none"
         id="path10583" /><path
         d="m 979.043,68.1055 h 14.328 c 16.059,0 30.219,-5.3985 30.219,-26.1719 0,-20.7813 -14.16,-26.1719 -30.219,-26.1719 h -14.328 z m 10.5,-44.1016 h 5.859 c 8.768,0 17.248,6.5234 17.248,17.9297 0,11.3984 -8.48,17.9297 -17.248,17.9297 h -5.859 V 24.0039"
         style="fill:#231f20;fill-opacity:1;fill-rule:nonzero;stroke:none"
         id="path10585" /><path
         d="m 1072.41,16.5039 c -3.82,-0.8984 -7.95,-1.6406 -11.91,-1.6406 -16.95,0 -28.73,8.4687 -28.73,26.1719 0,17.9218 10.94,27.9687 28.73,27.9687 3.44,0 8.02,-0.6719 11.84,-2.168 l -0.75,-8.8476 c -3.97,2.2461 -7.57,2.7734 -11.32,2.7734 -10.81,0 -17.56,-8.2617 -17.56,-18.9844 0,-10.6445 6.61,-18.6718 17.79,-18.6718 4.12,0 8.99,0.8984 11.46,2.1758 l 0.45,-8.7774"
         style="fill:#231f20;fill-opacity:1;fill-rule:nonzero;stroke:none"
         id="path10587" /><g
         id="g10589"><g
           id="g10591"
           clip-path="url(#clipPath10595)"><g
             id="g10597"
             clip-path="url(#clipPath10601)"><path
               d="m 213.762,689.988 c 0,0 -39.903,17.336 -106.688,17.336 h -0.019 c -66.7855,0 -106.687812,-17.336 -106.687812,-17.336 0,0 -3.574218,-76.722 11.570312,-120.105 26.75,-76.281 95.1095,-97.715 95.1095,-97.715 h 0.019 0.024 c 0,0 68.344,21.434 95.101,97.715 15.145,43.383 11.571,120.105 11.571,120.105"
               style="fill:#ed1c24;fill-opacity:1;fill-rule:nonzero;stroke:none"
               id="path10603" /></g></g></g><path
         d="M 177.969,623.848 V 581.57 H 128.238 V 532.25 H 85.6172 v 49.32 H 35.8906 v 42.278 h 49.7266 v 49.312 h 42.6098 l 0.011,-49.312 h 49.731"
         style="fill:#ffffff;fill-opacity:1;fill-rule:nonzero;stroke:none"
         id="path10605" /></g><g
       id="g10736"
       transform="matrix(0.46174303,0,0,-0.46174303,44.426491,111.01972)"><path
         d="m 100.3186,127.7865 h 27.7141 v 9.9646 h -13.5146 v 9.9647 h 12.2067 v 9.9645 h -12.2067 v 10.2761 h 13.5146 v 9.9645 h -27.7141 z m 70.5401,0 h -14.1996 l -5.9153,21.5788 -5.9154,-21.5788 h -14.1996 l 12.9735,34.0157 v 16.1187 h 0.0834 14.1161 0.0834 v -16.1187 z m 16.4632,19.9293 h 12.2067 v 9.9645 h -12.2067 v 10.2761 h 13.5146 v 9.9645 h -27.7141 v -50.1344 h 27.7141 v 9.9646 h -13.5146 z"
         style="fill:#125d87;fill-rule:evenodd"
         id="path10724" /><path
         d="m 224.9365,147.5044 v 0 -17.0059 0 h 12.4349 v 0 1.0184 1.0184 0 h -10.1373 v 0 5.1872 0 h 9.2608 v 1.0184 1.0184 0 h -9.2608 v 0 5.7083 0 h 10.2555 v 0 1.0184 1.0184 0 z m 14.9863,0 v -12.3872 0 h 0.9831 0.9987 v 0 1.8197 0 0 l 0.4617,-0.6159 c 0.9002,-1.0539 2.029,-1.5829 3.383,-1.5829 1.3659,0 2.4159,0.3712 3.154,1.1133 0.7384,0.742 1.1093,1.796 1.1093,3.1619 v 8.4911 0 h -1.0421 -1.0421 v 0 -7.7886 c 0,-1.0895 -0.2092,-1.875 -0.6278,-2.3566 -0.4222,-0.4855 -1.1011,-0.7263 -2.0368,-0.7263 -1.0026,0 -1.7961,0.3788 -2.3803,1.141 -0.5843,0.7618 -0.8765,1.7921 -0.8765,3.0908 v 0 6.6397 0 h -1.0421 z m 12.8586,0 v -17.0059 0 h 1.0421 1.0421 v 0 6.2883 0 0 l 0.3593,-0.4658 c 0.9002,-1.0539 2.029,-1.5829 3.383,-1.5829 1.3659,0 2.4159,0.3712 3.154,1.1133 0.7384,0.742 1.1093,1.796 1.1093,3.1619 v 8.4911 0 h -1.0421 -1.0421 v 0 -7.974 c 0,-1.0263 -0.1973,-1.7684 -0.5883,-2.2186 -0.3946,-0.4539 -1.0302,-0.6789 -1.9143,-0.6789 -1.0503,0 -1.879,0.3788 -2.4949,1.141 -0.6159,0.7618 -0.9239,1.7921 -0.9239,3.0908 v 0 6.6397 0 h -1.0421 z m 16.1193,0.3317 c -1.2118,0 -2.1712,-0.3238 -2.8817,-0.9713 -0.7107,-0.6473 -1.0658,-1.5237 -1.0658,-2.629 0,-1.1093 0.3356,-1.9934 1.0026,-2.6488 0.6673,-0.6552 1.6422,-1.0658 2.9212,-1.2276 l 2.8382,-0.3593 c 0.2292,-0.0198 0.4502,-0.0593 0.6593,-0.1143 0.2685,-0.0672 0.4776,-0.2095 0.6238,-0.4186 0.146,-0.2092 0.221,-0.4737 0.221,-0.7895 v -0.1064 c 0,-0.6673 -0.2526,-1.1884 -0.7539,-1.5635 -0.5016,-0.3749 -1.2041,-0.5643 -2.1003,-0.5643 -0.8564,0 -1.5237,0.1974 -2.0052,0.5959 -0.4816,0.3949 -0.7737,0.9871 -0.8725,1.7726 v 0 h -1.9186 v 0 c 0.0988,-1.354 0.5764,-2.3724 1.4331,-3.0515 0.8567,-0.6828 2.0803,-1.0224 3.6751,-1.0224 1.5081,0 2.6567,0.3277 3.4422,0.9789 0.7895,0.6515 1.1844,1.6027 1.1844,2.8543 v 6.8093 c 0,0.2052 0.0632,0.3752 0.1933,0.5013 0.1265,0.1304 0.3001,0.1934 0.5172,0.1934 0.0632,0 0.1541,-0.008 0.2723,-0.0237 0.1225,-0.0156 0.2527,-0.0393 0.391,-0.0709 v 1.5039 c -0.2016,0.0791 -0.4147,0.1423 -0.6396,0.1855 -0.225,0.0474 -0.4144,0.0711 -0.5685,0.0711 -0.7895,0 -1.362,-0.217 -1.717,-0.6472 -0.2329,-0.2843 -0.3989,-0.6871 -0.4974,-1.2121 v 0 c -0.1541,0.1934 -0.3317,0.3791 -0.5329,0.5567 -1.0421,0.9317 -2.3174,1.3975 -3.8213,1.3975 z m 4.3186,-5.2386 v -1.3461 0 c -0.3869,0.1857 -0.8132,0.3119 -1.2829,0.383 l -1.9106,0.2763 c -1.0026,0.1381 -1.7371,0.3752 -2.1989,0.7026 -0.4617,0.3317 -0.6946,0.7776 -0.6946,1.3422 0,0.6989 0.1894,1.2357 0.5682,1.6106 0.3751,0.3751 0.912,0.5645 1.6066,0.5645 1.0975,0 2.0213,-0.3 2.7792,-0.8959 0.5171,-0.4186 0.8607,-0.8883 1.0303,-1.4173 0.0277,-0.0987 0.0514,-0.2565 0.0672,-0.4736 0.0237,-0.2252 0.0355,-0.4739 0.0355,-0.7463 z m 5.2792,4.9069 v -12.3872 0 h 0.9832 0.9986 v 0 1.8197 0 0 l 0.4618,-0.6159 c 0.9002,-1.0539 2.0289,-1.5829 3.383,-1.5829 1.3658,0 2.4159,0.3712 3.154,1.1133 0.7384,0.742 1.1093,1.796 1.1093,3.1619 v 8.4911 0 h -1.0421 -1.0421 v 0 -7.7886 c 0,-1.0895 -0.2092,-1.875 -0.6278,-2.3566 -0.4223,-0.4855 -1.1011,-0.7263 -2.0368,-0.7263 -1.0026,0 -1.7961,0.3788 -2.3804,1.141 -0.5843,0.7618 -0.8764,1.7921 -0.8764,3.0908 v 0 6.6397 0 h -1.0421 z m 22.6171,-4.4527 v 0 c -0.2173,1.5552 -0.7661,2.7433 -1.6541,3.5605 -0.8843,0.8171 -2.0644,1.2239 -3.537,1.2239 -1.6383,0 -2.9489,-0.5922 -3.9277,-1.7727 -0.9792,-1.1801 -1.4687,-2.771 -1.4687,-4.7725 0,-1.9973 0.5053,-3.5882 1.52,-4.7765 1.0145,-1.1841 2.3764,-1.7763 4.0855,-1.7763 1.4884,0 2.6725,0.4065 3.5608,1.2157 0.8843,0.8132 1.358,1.9304 1.4212,3.3556 v 0 h -1.9897 v 0 c -0.083,-0.8804 -0.3946,-1.5632 -0.9238,-2.045 -0.5329,-0.4855 -1.2434,-0.7263 -2.1277,-0.7263 -1.0501,0 -1.8709,0.4226 -2.471,1.2671 -0.5961,0.8448 -0.8962,2.0055 -0.8962,3.4857 0,1.575 0.2764,2.7594 0.833,3.5529 0.5566,0.7934 1.3817,1.1922 2.4752,1.1922 0.8092,0 1.4841,-0.2608 2.0289,-0.7779 0.5448,-0.5171 0.9041,-1.2552 1.0816,-2.2064 v 0 z m 1.8407,4.4527 v -12.3872 0 h 1.0421 1.0421 v 0 12.3872 0 h -1.0421 z m -0.0237,-17.0296 h 2.1316 v 2.3685 h -2.1316 z m 4.9001,17.0296 v -12.3872 0 h 0.9831 0.9987 v 0 1.8197 0 0 l 0.4617,-0.6159 c 0.9002,-1.0539 2.029,-1.5829 3.383,-1.5829 1.3659,0 2.4156,0.3712 3.1537,1.1133 0.7385,0.742 1.1093,1.796 1.1093,3.1619 v 8.4911 0 h -1.0421 -1.0421 v 0 -7.7886 c 0,-1.0895 -0.2092,-1.875 -0.6278,-2.3566 -0.4219,-0.4855 -1.1008,-0.7263 -2.0365,-0.7263 -1.0026,0 -1.7961,0.3788 -2.3803,1.141 -0.5843,0.7618 -0.8765,1.7921 -0.8765,3.0908 v 0 6.6397 0 h -1.0421 z m 17.394,3.5054 c 1.1923,0 2.1001,-0.3751 2.7239,-1.129 0.6238,-0.7539 0.9354,-1.8514 0.9354,-3.2924 v -0.4064 l -0.0119,0.0118 c -0.8564,1.0935 -1.9736,1.6423 -3.3513,1.6423 -1.658,0 -2.9765,-0.6199 -3.9554,-1.8593 -0.9789,-1.2397 -1.4686,-2.9133 -1.4686,-5.0212 0,-1.8593 0.4818,-3.3596 1.4449,-4.5041 0.9631,-1.141 2.2265,-1.7134 3.7818,-1.7134 1.4881,0 2.6685,0.6436 3.5371,1.9304 l 0.1498,0.221 v 0 -1.7723 0 h 1.9581 v 11.4752 c -0.008,2.0885 -0.4779,3.6398 -1.4093,4.6424 -0.9318,1.0026 -2.3646,1.5039 -4.2989,1.5039 -1.4015,0 -2.5147,-0.3235 -3.3395,-0.971 -0.8251,-0.6475 -1.3224,-1.5869 -1.4923,-2.8184 v 0 h 2.1316 v 0 c 0.1225,0.6591 0.4186,1.1683 0.8844,1.5237 0.4657,0.359 1.0579,0.5368 1.7802,0.5368 z m 0.4028,-14.3769 c -1.1646,0 -2.0134,0.3709 -2.5503,1.1133 -0.5329,0.7421 -0.8013,1.9222 -0.8013,3.5368 0,1.5239 0.2921,2.6962 0.8725,3.5173 0.5803,0.8251 1.4093,1.2357 2.4791,1.2357 1.0066,0 1.8198,-0.379 2.4357,-1.1369 0.6156,-0.7579 0.9235,-1.7568 0.9235,-3.0042 0,-1.7525 -0.2763,-3.0671 -0.8369,-3.9474 -0.5566,-0.8765 -1.3975,-1.3146 -2.5223,-1.3146 z m 19.7114,4.07 v 0 l -6.4187,-10.2044 v 0 h 1.3382 1.3541 v 0 l 4.8829,8.2622 -0.004,-0.0277 4.8911,-8.2345 v 0 h 1.3303 1.3303 v 0 l -6.4068,10.2397 v 0 6.7662 h -1.1409 -1.1565 z m 15.3138,7.1332 c -1.7131,0 -3.0987,-0.6041 -4.1606,-1.808 -1.0619,-1.2041 -1.5909,-2.787 -1.5909,-4.7412 0,-1.9578 0.529,-3.5407 1.5909,-4.7448 1.0619,-1.2039 2.4475,-1.804 4.1606,-1.804 1.7252,0 3.1187,0.6001 4.1766,1.804 1.054,1.2041 1.583,2.787 1.583,4.7448 0,1.9542 -0.529,3.5371 -1.583,4.7412 -1.0579,1.2039 -2.4514,1.808 -4.1766,1.808 z m 0,-1.8001 c 1.0935,0 1.962,-0.4304 2.6092,-1.2871 0.6475,-0.8564 0.9713,-2.0091 0.9713,-3.462 0,-1.4485 -0.3238,-2.6013 -0.9713,-3.4619 -0.6472,-0.8564 -1.5157,-1.2869 -2.6092,-1.2869 -1.0975,0 -1.9657,0.4305 -2.6093,1.2869 -0.6436,0.8606 -0.9631,2.0134 -0.9631,3.4619 0,1.4529 0.3195,2.6056 0.9631,3.462 0.6436,0.8567 1.5118,1.2871 2.6093,1.2871 z m 9.973,-10.9188 v 7.9819 c 0,1.0382 0.2012,1.7881 0.6001,2.2499 0.3985,0.4578 1.05,0.687 1.9501,0.687 0.9987,0 1.7921,-0.3869 2.3764,-1.1606 0.584,-0.7777 0.8762,-1.8277 0.8762,-3.1541 v 0 -6.6041 0 h 1.0421 1.0421 v 0 12.3872 0 h -0.9828 -0.9987 v 0 -1.887 0 0 c -0.1383,0.225 -0.2921,0.4381 -0.4618,0.6357 -0.8843,1.054 -1.9936,1.583 -3.3239,1.583 -1.4015,0 -2.4515,-0.3515 -3.1541,-1.054 -0.6986,-0.7029 -1.05,-1.7529 -1.05,-3.158 v -8.5069 0 h 1.0421 z m 15.2507,12.3635 c -0.7104,0.1106 -1.2315,0.1657 -1.5552,0.1657 -0.912,0 -1.5553,-0.2013 -1.9304,-0.6038 -0.3749,-0.3988 -0.5646,-1.0935 -0.5646,-2.0724 v -8.1716 0 h -1.7051 v -1.6814 h 1.7051 v 0 -3.458 h 2.0845 v 3.458 0 h 1.9657 v 1.6814 h -1.9657 v 0 8.1677 c 0,0.276 0.1104,0.4973 0.3314,0.6591 0.221,0.1617 0.5171,0.2447 0.8883,0.2447 h 0.746 z m 1.7185,0.0237 v -17.0059 0 h 1.0421 1.0421 v 0 6.2883 0 0 l 0.3593,-0.4658 c 0.9002,-1.0539 2.029,-1.5829 3.383,-1.5829 1.3659,0 2.4159,0.3712 3.154,1.1133 0.7384,0.742 1.1093,1.796 1.1093,3.1619 v 8.4911 0 h -1.0421 -1.0421 v 0 -7.974 c 0,-1.0263 -0.1973,-1.7684 -0.5883,-2.2186 -0.3946,-0.4539 -1.0302,-0.6789 -1.9143,-0.6789 -1.0503,0 -1.879,0.3788 -2.4949,1.141 -0.6159,0.7618 -0.9239,1.7921 -0.9239,3.0908 v 0 6.6397 0 h -1.0421 z m -162.6604,30.6331 v 0 -17.0059 0 h 12.4349 v 0 1.0184 1.0184 0 h -10.1373 v 0 5.1872 0 h 9.2608 v 1.0184 1.0184 0 h -9.2608 v 0 5.7083 0 h 10.2555 v 0 1.0184 1.0184 0 z m 14.9863,0 v -12.3872 0 h 0.9831 0.9987 v 0 1.8395 0 0 l 0.4262,-0.5566 c 0.9317,-1.1093 2.0447,-1.662 3.3397,-1.662 1.113,0 1.9934,0.3277 2.6488,0.9829 0.2922,0.2921 0.5211,0.6277 0.6828,1.0065 v 0 l 0.3356,-0.4262 c 0.892,-1.0421 1.9618,-1.5632 3.2015,-1.5632 1.2947,0 2.2934,0.3514 3.0002,1.0579 0.7065,0.7066 1.0579,1.7094 1.0579,3.0081 v 8.7003 0 h -1.0424 -1.0421 v 0 -7.9977 c 0,-0.9433 -0.1934,-1.658 -0.5761,-2.1435 -0.387,-0.4855 -0.9476,-0.7302 -1.6897,-0.7302 -0.9001,0 -1.6145,0.3514 -2.1474,1.0539 -0.533,0.7026 -0.7974,1.6541 -0.7974,2.8501 v 0 6.9674 0 h -1.0422 -1.0421 v 0 -8.495 c 0,-0.7737 -0.1739,-1.362 -0.525,-1.7684 -0.3514,-0.4068 -0.8606,-0.608 -1.5316,-0.608 -0.9238,0 -1.6817,0.3946 -2.2699,1.1801 -0.5883,0.7895 -0.8844,1.8082 -0.8844,3.0516 v 0 6.6397 0 h -1.0421 z m 19.2496,-12.3872 v 0 h 0.9829 0.9986 v 0 1.7565 0 l 0.1028,-0.1498 c 0.8962,-1.3227 2.0684,-1.9858 3.5252,-1.9858 1.6185,0 2.9014,0.5566 3.8447,1.6738 0.9436,1.117 1.4173,2.6212 1.4173,4.5239 0,2.1514 -0.4776,3.8408 -1.4291,5.0647 -0.9513,1.2236 -2.2697,1.8356 -3.9594,1.8356 -1.3935,0 -2.5065,-0.5369 -3.3276,-1.6067 l -0.0711,-0.0948 v 0 6.2728 0 h -1.0422 -1.0421 v 0 z m 5.3766,10.9189 c 1.0856,0 1.9104,-0.4107 2.471,-1.2358 0.5645,-0.8211 0.8448,-2.021 0.8448,-3.6 0,-1.5513 -0.2685,-2.7041 -0.8093,-3.4501 -0.5369,-0.7463 -1.3698,-1.1172 -2.4946,-1.1172 -1.1489,0 -1.9858,0.4222 -2.5147,1.2631 -0.5251,0.8448 -0.7895,2.1751 -0.7895,3.9988 v 0 0 0 c 0,1.3225 0.2842,2.3448 0.8566,3.0635 0.5685,0.7183 1.3817,1.0777 2.4357,1.0777 z m 7.6951,1.4683 v -17.0059 0 h 1.0421 1.0422 v 0 17.0059 0 h -1.0422 z m 9.9411,0.3317 c -1.7131,0 -3.0987,-0.6041 -4.1606,-1.8079 -1.0619,-1.2042 -1.5908,-2.7871 -1.5908,-4.7412 0,-1.9578 0.5289,-3.5408 1.5908,-4.7449 1.0619,-1.2039 2.4475,-1.804 4.1606,-1.804 1.7252,0 3.1188,0.6001 4.1767,1.804 1.054,1.2041 1.5829,2.7871 1.5829,4.7449 0,1.9541 -0.5289,3.537 -1.5829,4.7412 -1.0579,1.2038 -2.4515,1.8079 -4.1767,1.8079 z m 0,-1.8 c 1.0935,0 1.962,-0.4305 2.6093,-1.2872 0.6475,-0.8564 0.9712,-2.0091 0.9712,-3.4619 0,-1.4486 -0.3237,-2.6014 -0.9712,-3.462 -0.6473,-0.8564 -1.5158,-1.2869 -2.6093,-1.2869 -1.0974,0 -1.9657,0.4305 -2.6092,1.2869 -0.6436,0.8606 -0.9631,2.0134 -0.9631,3.462 0,1.4528 0.3195,2.6055 0.9631,3.4619 0.6435,0.8567 1.5118,1.2872 2.6092,1.2872 z m 17.8485,-10.9189 -4.7057,12.7976 c -0.7262,1.9067 -1.3698,3.1543 -1.9383,3.7383 -0.5642,0.5883 -1.413,0.8804 -2.546,0.8804 -0.3712,0.008 -0.7065,-0.0355 -1.0066,-0.1261 v -1.9384 c 0.3159,0.1183 0.7105,0.1776 1.1881,0.1855 0.4739,0 0.8646,-0.1934 1.1804,-0.5804 0.3159,-0.3867 0.6749,-1.109 1.0777,-2.1672 l 0.0356,-0.1973 v 0.008 l -4.595,-12.6003 v 0 h 1.1804 1.196 v 0 l 3.3042,10.2358 v 0 0 l 3.3513,-10.2358 v 0 h 1.133 z m 1.4971,12.3872 v -12.3872 0 h 0.9832 0.9986 v 0 1.8395 0 0 l 0.4262,-0.5566 c 0.9318,-1.1093 2.0448,-1.662 3.3398,-1.662 1.113,0 1.9933,0.3277 2.6488,0.9829 0.2921,0.2921 0.521,0.6277 0.6828,1.0065 v 0 l 0.3356,-0.4262 c 0.8919,-1.0421 1.9617,-1.5632 3.2014,-1.5632 1.2945,0 2.2932,0.3514 2.9999,1.0579 0.7066,0.7066 1.058,1.7094 1.058,3.0081 v 8.7003 0 h -1.0424 -1.0422 v 0 -7.9977 c 0,-0.9433 -0.1933,-1.658 -0.5761,-2.1435 -0.3869,-0.4855 -0.9472,-0.7302 -1.6893,-0.7302 -0.9002,0 -1.6146,0.3514 -2.1475,1.0539 -0.5329,0.7026 -0.7974,1.6541 -0.7974,2.8501 v 0 6.9674 0 h -1.0421 -1.0421 v 0 -8.495 c 0,-0.7737 -0.1739,-1.362 -0.525,-1.7684 -0.3515,-0.4068 -0.8607,-0.608 -1.5316,-0.608 -0.9239,0 -1.6818,0.3946 -2.27,1.1801 -0.5882,0.7895 -0.8843,1.8082 -0.8843,3.0516 v 0 6.6397 0 h -1.0422 z m 24.456,0.3317 c -1.7486,0 -3.1263,-0.5567 -4.1289,-1.666 -1.0026,-1.1132 -1.5042,-2.6487 -1.5042,-4.6108 0,-2.0842 0.5289,-3.7422 1.5908,-4.9738 1.058,-1.2315 2.4831,-1.8474 4.2713,-1.8474 1.6185,0 2.9251,0.6041 3.9201,1.8079 0.9947,1.2042 1.492,2.7871 1.492,4.7449 l -0.0237,0.7424 v 0 h -9.0319 v 0 c 0.083,1.2354 0.3672,2.1748 0.8448,2.8223 0.5843,0.7856 1.5079,1.1805 2.7713,1.1805 0.7934,0 1.4881,-0.2213 2.0803,-0.6673 0.5919,-0.446 0.9552,-1.0105 1.0856,-1.7015 v 0 h 2.0605 v 0 c -0.3079,1.354 -0.9278,2.3882 -1.8514,3.099 -0.9238,0.7144 -2.1158,1.0698 -3.5766,1.0698 z m 3.4778,-7.4846 v 0 c -0.0592,-1.1488 -0.3471,-2.0408 -0.8566,-2.6804 -0.5603,-0.7065 -1.3854,-1.0618 -2.4749,-1.0618 -1.0935,0 -1.97,0.4064 -2.6251,1.2236 -0.5171,0.6396 -0.829,1.4805 -0.9357,2.5186 v 0 z m 4.3399,7.1529 v -12.3872 0 h 0.9831 0.9986 v 0 1.8198 0 0 l 0.4618,-0.6159 c 0.9002,-1.054 2.029,-1.583 3.383,-1.583 1.3659,0 2.4159,0.3712 3.154,1.1133 0.7384,0.742 1.1093,1.796 1.1093,3.1619 v 8.4911 0 h -1.0421 -1.0421 v 0 -7.7885 c 0,-1.0896 -0.2092,-1.8751 -0.6278,-2.3567 -0.4223,-0.4855 -1.1011,-0.7262 -2.0368,-0.7262 -1.0026,0 -1.7961,0.3788 -2.3804,1.1409 -0.5842,0.7618 -0.8764,1.7921 -0.8764,3.0908 v 0 6.6397 0 h -1.0421 z m 17.4061,-0.0237 c -0.7104,0.1106 -1.2315,0.1657 -1.5552,0.1657 -0.912,0 -1.5553,-0.2013 -1.9305,-0.6038 -0.3748,-0.3988 -0.5645,-1.0935 -0.5645,-2.0724 v -8.1715 0 h -1.7052 v -1.6815 h 1.7052 v 0 -3.458 h 2.0845 v 3.458 0 h 1.9657 v 1.6815 h -1.9657 v 0 8.1676 c 0,0.276 0.1104,0.4973 0.3314,0.6591 0.221,0.1617 0.5171,0.2447 0.8883,0.2447 h 0.746 z"
         style="fill:#a82d32;fill-rule:evenodd"
         id="path10726" /></g></g></svg>
