<?xml version="1.0" encoding="UTF-8" standalone="no"?>
<!-- Generator: Adobe Illustrator 13.0.0, SVG Export Plug-In . SVG Version: 6.00 Build 14948)  -->

<svg
   version="1.1"
   id="Layer_1"
   x="0px"
   y="0px"
   width="403.47604"
   height="98.552528"
   viewBox="0 0 403.47603 98.552531"
   enable-background="new 0 0 603.752 238.706"
   xml:space="preserve"
   sodipodi:docname="Sinergise.svg"
   xmlns:inkscape="http://www.inkscape.org/namespaces/inkscape"
   xmlns:sodipodi="http://sodipodi.sourceforge.net/DTD/sodipodi-0.dtd"
   xmlns="http://www.w3.org/2000/svg"
   xmlns:svg="http://www.w3.org/2000/svg"><defs
   id="defs9252" /><sodipodi:namedview
   id="namedview9250"
   pagecolor="#ffffff"
   bordercolor="#000000"
   borderopacity="0.25"
   inkscape:showpageshadow="2"
   inkscape:pageopacity="0.0"
   inkscape:pagecheckerboard="0"
   inkscape:deskcolor="#d1d1d1"
   showgrid="false" />

<rect
   x="-66.814003"
   y="-49.01873"
   display="none"
   fill="none"
   stroke="#e2001a"
   stroke-width="0.4"
   width="519.83301"
   height="198.168"
   id="rect9188" />
<polyline
   display="none"
   fill="none"
   stroke="#e2001a"
   stroke-width="0.4"
   stroke-dasharray="5"
   points="247.808,237.005   247.808,155.321 566.417,155.321 "
   id="polyline9190"
   transform="translate(-116.622,-89.355733)" />










<linearGradient
   id="SVGID_1_"
   gradientUnits="userSpaceOnUse"
   x1="165.5381"
   y1="89.355003"
   x2="165.5381"
   y2="187.9082">
	<stop
   offset="0"
   style="stop-color:#CECD00"
   id="stop9242" />
	<stop
   offset="1"
   style="stop-color:#989000"
   id="stop9244" />
</linearGradient>
<g
   id="g9373"
   inkscape:export-filename="sinergise.svg"
   inkscape:export-xdpi="96"
   inkscape:export-ydpi="96"
   transform="translate(-116.622,-89.355733)"><path
     fill="#989000"
     d="m 257.298,137.501 c -4.839,-1.896 -6.554,-3.734 -6.554,-7.025 0,-2.108 1.427,-5.679 6.775,-5.679 2.583,0 4.61,0.804 5.562,1.49 l 0.175,0.126 1.005,-2.237 -0.125,-0.081 c -1.151,-0.751 -3.456,-1.553 -6.473,-1.553 -5.508,0 -9.505,3.496 -9.505,8.314 0,4.156 2.669,7.021 8.4,9.018 4.572,1.793 6.356,3.854 6.356,7.356 0,3.941 -2.958,6.488 -7.536,6.488 -2.452,0 -4.984,-0.768 -6.946,-2.111 l -0.172,-0.117 -1.001,2.223 0.114,0.082 c 1.735,1.289 5.001,2.225 7.768,2.225 7.157,0 10.361,-4.531 10.361,-9.027 -0.003,-5.118 -3.281,-7.497 -8.204,-9.492 z m 24.414,-14.434 v 32.432 h 2.587 v -32.432 h -0.175 z m 40.839,0 v 16.12 c 0,5.134 0.061,8.563 0.346,12.501 -1.484,-2.859 -3.244,-5.721 -5.736,-9.599 l -12.57,-19.022 h -2.414 v 32.432 h 2.543 v -16.407 c 0,-4.974 -0.047,-8.467 -0.262,-12.261 1.557,2.993 3.525,6.097 5.635,9.386 l 0.348,0.543 12.285,18.739 h 2.414 v -32.432 h -0.176 z m 23.006,16.485 c 0.342,0 12.854,0 12.854,0 v -2.254 c 0,0 -12.512,0 -12.854,0 0,-0.336 0,-11.642 0,-11.978 0.342,0 13.615,0 13.615,0 v -2.254 h -0.176 -16.027 v 32.432 h 16.965 v -2.256 c 0,0 -14.035,0 -14.377,0 0,-0.335 0,-13.352 0,-13.69 z m 46.832,7.07 c -0.783,-3.668 -2.418,-5.938 -4.83,-6.815 3.963,-1.465 6.168,-4.432 6.168,-8.426 0,-2.271 -0.857,-4.455 -2.293,-5.838 -1.98,-1.877 -4.688,-2.715 -8.783,-2.715 -2.357,0 -5.08,0.264 -6.939,0.672 l -0.139,0.029 v 31.97 h 2.588 c 0,0 0,-14.366 0,-14.708 0.328,0 4.822,0 4.822,0 4.029,0.182 6.064,2.14 7.018,6.763 0.91,4.295 1.604,6.936 2.061,7.85 l 0.049,0.096 h 2.777 l -0.133,-0.256 c -0.626,-1.204 -1.2,-3.3 -2.366,-8.622 z m -14.228,-8.039 c 0,-0.338 0,-12.876 0,-13.152 0.533,-0.117 2.029,-0.396 4.443,-0.396 3.871,0 8.486,1.168 8.486,6.728 0,2.024 -0.752,3.737 -2.176,4.952 -1.43,1.223 -3.449,1.869 -5.836,1.869 0.001,-0.001 -4.589,-0.001 -4.917,-0.001 z m 45.152,2.874 c 0,0 7.139,0 7.473,0 0,0.336 0,10.813 0,11.038 -0.813,0.404 -2.682,1.033 -6.537,1.033 -8.404,0 -13.625,-5.457 -13.625,-14.245 0,-8.789 5.402,-14.248 14.102,-14.248 2.674,0 4.891,0.445 6.777,1.363 l 0.174,0.084 0.838,-2.236 -0.148,-0.068 c -0.521,-0.24 -3.34,-1.443 -7.545,-1.443 -11.662,0 -16.883,8.359 -16.883,16.645 0,4.968 1.617,9.401 4.434,12.167 2.971,2.885 6.732,4.285 11.498,4.285 4.426,0 7.787,-1.111 9.395,-1.773 l 0.109,-0.045 V 139.25 h -10.061 v 2.207 z m 26.844,-18.39 v 32.432 h 2.588 v -32.432 h -0.176 z m 28.564,14.434 c -4.84,-1.896 -6.555,-3.734 -6.555,-7.025 0,-2.108 1.426,-5.679 6.771,-5.679 2.586,0 4.613,0.804 5.563,1.49 l 0.176,0.126 1.006,-2.237 -0.125,-0.081 c -1.152,-0.751 -3.455,-1.553 -6.475,-1.553 -5.508,0 -9.506,3.496 -9.506,8.314 0,4.156 2.67,7.021 8.4,9.018 4.572,1.793 6.357,3.854 6.357,7.356 0,3.941 -2.959,6.488 -7.537,6.488 -2.451,0 -4.982,-0.768 -6.945,-2.111 l -0.174,-0.117 -1,2.223 0.113,0.082 c 1.734,1.289 5.002,2.225 7.768,2.225 7.158,0 10.363,-4.531 10.363,-9.027 0.001,-5.118 -3.278,-7.495 -8.2,-9.492 z m 27,15.742 c 0,-0.336 0,-13.353 0,-13.69 0.34,0 12.854,0 12.854,0 v -2.254 c 0,0 -12.514,0 -12.854,0 0,-0.336 0,-11.642 0,-11.978 0.342,0 13.613,0 13.613,0 v -2.254 h -0.176 -16.025 v 32.432 h 16.965 v -2.256 c 0,0 -14.035,0 -14.377,0 z"
     id="path9186" /><path
     fill="url(#SVGID_1_)"
     d="m 148.905,157.187 c 9.315,-11.029 13.646,-26.551 22.839,-37.446 6.838,-8.099 16.607,-16.743 32.679,-11.283 -8.997,-11.435 -26.769,-14.473 -41.079,-8.755 0,0 -9.271,3.396 -18.639,13.977 -6.982,7.865 -8.754,9.493 -11.322,9.42 l -0.362,-0.061 c -4.125,-1.379 -2.026,-7.134 -0.39,-9.624 13.627,-20.95 39.236,-23.555 55.875,-18.346 -11.791,-6.076 -22.904,-5.709 -22.904,-5.709 -16.94,0 -32.335,9.026 -40.999,22.017 -5.704,8.497 -7.026,16.318 -7.026,16.318 -0.813,4.469 -0.977,10.814 2.602,12.97 5.517,3.517 13.561,-1.04 17.963,-5.624 6.64,-6.931 11.433,-13.327 18.376,-20.568 7.194,-7.506 18.219,-14.604 28.88,-11.605 -13.999,0.412 -24.658,12.556 -32.817,22.677 -8.269,10.265 -23.211,35.142 -35.959,19.014 1.822,18.91 19.504,27.757 32.283,12.628 z m 61.991,-20.586 c -5.515,-3.517 -13.561,1.037 -17.963,5.625 -6.641,6.93 -11.432,13.325 -18.375,20.567 -7.194,7.503 -18.217,14.601 -28.879,11.604 13.997,-0.411 24.657,-12.556 32.816,-22.679 8.27,-10.262 23.21,-35.141 35.959,-19.011 -1.822,-18.913 -19.504,-27.759 -32.283,-12.631 -9.315,11.032 -13.646,26.552 -22.84,37.445 -6.837,8.1 -16.607,16.746 -32.676,11.285 8.996,11.435 26.767,14.474 41.078,8.755 0,0 9.271,-3.396 18.638,-13.979 6.981,-7.865 8.754,-9.492 11.323,-9.418 l 0.361,0.063 c 4.125,1.377 2.026,7.133 0.391,9.622 -13.629,20.949 -39.237,23.554 -55.874,18.345 11.791,6.077 22.903,5.71 22.903,5.71 16.939,0 32.337,-9.025 40.999,-22.018 5.704,-8.493 7.027,-16.317 7.027,-16.317 0.811,-4.467 0.974,-10.813 -2.605,-12.968 z"
     id="path9247"
     style="fill:url(#SVGID_1_)" /></g>
</svg>
