<?xml version="1.0" encoding="utf-8"?>
<svg viewBox="18.24 14.809 215.08 33.131" xmlns="http://www.w3.org/2000/svg">
  <defs>
    <style>.cls-1{fill:blue;}</style>
  </defs>
  <path class="cls-1" d="M29.8,20.89a3.69,3.69,0,0,0-3.93-3.08,3.17,3.17,0,0,0-3.45,2.88,2.6,2.6,0,0,0,2.35,2.58l2.88.59c3.54.71,5.44,2.94,5.44,5.77,0,3.11-2.52,6.08-7.1,6.08-5.1,0-7.44-3.28-7.75-6.16l3.16-.91a4.31,4.31,0,0,0,4.59,4c2.4,0,3.64-1.22,3.64-2.77,0-1.3-1-2.35-2.68-2.72l-2.83-.59C21.06,26,19,24,19,21c0-3.37,3.08-6.14,6.81-6.14,4.73,0,6.57,2.89,7,5.12Z"/>
  <path class="cls-1" d="M40,27.45v7.84h-3.4v-20h7.44c3.85,0,6.39,2.6,6.39,6.1s-2.54,6.11-6.39,6.11Zm3.53-3c2.15,0,3.45-1.19,3.45-3.09s-1.3-3.14-3.45-3.14H40v6.23Z"/>
  <path class="cls-1" d="M63.83,30.25H55.35l-1.87,5H49.89l7.81-20h3.93l7.81,20H65.73Zm-7.29-3.13h6.11l-3.06-8.21Z"/>
  <path class="cls-1" d="M70.06,25.28a10,10,0,0,1,10.1-10.47c5.09,0,8.11,3,9,6.51L86,22.39A5.56,5.56,0,0,0,80.16,18c-3.31,0-6.62,2.4-6.62,7.27,0,4.69,3.22,7.18,6.64,7.18a6,6,0,0,0,6-4.41l3.11,1a9,9,0,0,1-9.08,6.64C74.78,35.71,70.06,31.81,70.06,25.28Z"/>
  <path class="cls-1" d="M92.72,35.29v-20h12.39V18.4h-9v5.32h8.15V26.8H96.11v5.32h9v3.17Z"/>
  <path class="cls-1" d="M119.31,20.89a3.71,3.71,0,0,0-3.94-3.08,3.17,3.17,0,0,0-3.45,2.88,2.6,2.6,0,0,0,2.35,2.58l2.89.59c3.53.71,5.43,2.94,5.43,5.77,0,3.11-2.52,6.08-7.1,6.08-5.1,0-7.44-3.28-7.75-6.16l3.16-.91a4.31,4.31,0,0,0,4.59,4c2.4,0,3.65-1.22,3.65-2.77,0-1.3-1-2.35-2.69-2.72l-2.83-.59C110.56,26,108.53,24,108.53,21c0-3.37,3.08-6.14,6.81-6.14,4.73,0,6.57,2.89,7,5.12Z"/>
  <path class="cls-1" d="M123.58,15.24h4l4.8,8.4,4.84-8.4h3.82L134,26.8v8.49h-3.4V26.8Z"/>
  <path class="cls-1" d="M157,35.29l-9.9-15.19V35.29h-3.39v-20h4.32l9.11,14.22V15.24h3.4v20Z"/>
  <path class="cls-1" d="M173.25,18.43V35.29h-3.4V18.43h-6.5V15.24h16.43v3.19Z"/>
  <path class="cls-1" d="M192.54,30.25h-8.48l-1.87,5H178.6l7.8-20h3.93l7.81,20h-3.7Zm-7.3-3.13h6.11l-3-8.21Z"/>
  <path class="cls-1" d="M206.88,26.61l-2.65,2.91v5.77h-3.4v-20h3.4v9.61l8.62-9.61h4.47l-8.12,8.85,8.21,11.2h-4.27Z"/>
  <path class="cls-1" d="M230,20.89a3.69,3.69,0,0,0-3.93-3.08,3.17,3.17,0,0,0-3.45,2.88A2.6,2.6,0,0,0,225,23.27l2.88.59c3.54.71,5.44,2.94,5.44,5.77,0,3.11-2.52,6.08-7.1,6.08-5.1,0-7.44-3.28-7.75-6.16l3.16-.91a4.31,4.31,0,0,0,4.59,4c2.4,0,3.64-1.22,3.64-2.77,0-1.3-1-2.35-2.68-2.72l-2.83-.59C221.25,26,219.22,24,219.22,21c0-3.37,3.08-6.14,6.81-6.14,4.73,0,6.57,2.89,7,5.12Z"/>
  <path class="cls-1" d="M104.53,43.64a.9.9,0,0,0-.9.9,1.61,1.61,0,1,1-3.22,0,3.4,3.4,0,1,0-6.79,0,1.61,1.61,0,1,1-3.22,0,3.4,3.4,0,1,0-6.79,0,1.62,1.62,0,0,1-3.23,0,3.4,3.4,0,1,0-6.79,0,1.61,1.61,0,1,1-3.22,0,3.4,3.4,0,1,0-6.79,0s0,.07,0,.11a1.61,1.61,0,0,1-3.21-.11,3.4,3.4,0,1,0-6.79,0,1.61,1.61,0,0,1-3.22,0,3.4,3.4,0,0,0-6.8,0,1.61,1.61,0,0,1-3.22,0,3.4,3.4,0,1,0-6.79,0,1.61,1.61,0,0,1-3.22,0,3.4,3.4,0,1,0-6.79,0,1.62,1.62,0,0,1-3.23,0,.89.89,0,1,0-1.78,0,3.4,3.4,0,0,0,6.79,0,1.61,1.61,0,1,1,3.22,0,3.4,3.4,0,0,0,6.8,0,1.61,1.61,0,1,1,3.22,0,3.4,3.4,0,0,0,6.79,0,1.61,1.61,0,1,1,3.22,0,3.4,3.4,0,0,0,6.79,0,1.62,1.62,0,1,1,3.23,0,3.4,3.4,0,0,0,6.79,0,.42.42,0,0,0,0-.12,1.61,1.61,0,0,1,3.21.12,3.4,3.4,0,0,0,6.8,0,1.61,1.61,0,1,1,3.22,0,3.4,3.4,0,0,0,6.79,0,1.61,1.61,0,1,1,3.22,0,3.4,3.4,0,0,0,6.79,0,1.62,1.62,0,1,1,3.23,0,3.4,3.4,0,0,0,6.79,0A.89.89,0,0,0,104.53,43.64Z"/>
</svg>