<?xml version="1.0" encoding="utf-8"?>
<!-- Generator: Adobe Illustrator 23.0.3, SVG Export Plug-In . SVG Version: 6.00 Build 0)  -->
<svg version="1.1" id="Layer_1" xmlns="http://www.w3.org/2000/svg" xmlns:xlink="http://www.w3.org/1999/xlink" x="0px" y="0px"
	 viewBox="0 0 216 84" style="enable-background:new 0 0 216 84;" xml:space="preserve">
<style type="text/css">
	.st0{fill:#FFFFFF;}
</style>
<g>
	<path class="st0" d="M122,23.6v30.5c0,12.7-6.5,19-19.4,19c-3.5,0-6.7-0.4-9.8-1.3c-3.1-0.9-5.7-2.1-7.7-3.8l3.8-6.3
		c1.6,1.3,3.6,2.3,6,3.1c2.4,0.8,4.8,1.2,7.3,1.2c3.9,0,6.8-0.9,8.7-2.7c1.8-1.8,2.8-4.5,2.8-8.2v-1.9c-1.4,1.6-3.2,2.8-5.2,3.6
		c-2.1,0.8-4.3,1.2-6.8,1.2c-3.4,0-6.5-0.7-9.3-2.2c-2.8-1.5-4.9-3.5-6.5-6.2c-1.6-2.6-2.4-5.7-2.4-9.1c0-3.4,0.8-6.4,2.4-9.1
		c1.6-2.6,3.8-4.7,6.5-6.1c2.8-1.4,5.8-2.2,9.3-2.2c2.6,0,5,0.4,7.1,1.3c2.1,0.9,3.9,2.2,5.4,3.9v-4.8H122z M110.6,47.9
		c2-1.9,3.1-4.4,3.1-7.4c0-3-1-5.5-3.1-7.3c-2-1.9-4.7-2.8-7.8-2.8c-3.2,0-5.9,0.9-7.9,2.8c-2,1.9-3.1,4.3-3.1,7.3
		c0,3.1,1,5.5,3.1,7.4c2,1.9,4.7,2.9,7.9,2.9C106,50.8,108.6,49.9,110.6,47.9z"/>
	<path class="st0" d="M166.7,44.3h-28.2c0.5,2.6,1.8,4.7,3.9,6.3c2.1,1.5,4.7,2.3,7.8,2.3c3.9,0,7.2-1.3,9.8-3.9l4.5,5.2
		c-1.6,1.9-3.7,3.4-6.1,4.4c-2.5,1-5.3,1.5-8.3,1.5c-3.9,0-7.4-0.8-10.4-2.4c-3-1.6-5.3-3.8-7-6.6c-1.6-2.8-2.5-6-2.5-9.5
		c0-3.5,0.8-6.7,2.4-9.5c1.6-2.8,3.8-5,6.6-6.6c2.8-1.6,6-2.4,9.6-2.4c3.5,0,6.6,0.8,9.4,2.3c2.8,1.5,4.9,3.7,6.5,6.5
		c1.5,2.8,2.3,6,2.3,9.7C166.8,42.4,166.7,43.2,166.7,44.3z M141.8,32.3c-1.9,1.6-3,3.7-3.4,6.4h20.4c-0.4-2.6-1.5-4.7-3.3-6.3
		c-1.8-1.6-4.1-2.4-6.9-2.4C145.9,29.9,143.6,30.7,141.8,32.3z"/>
	<path class="st0" d="M183.4,57.7c-2.9-1.6-5.2-3.8-6.8-6.6c-1.6-2.8-2.5-6-2.5-9.5c0-3.5,0.8-6.7,2.5-9.5c1.6-2.8,3.9-5,6.8-6.5
		c2.9-1.6,6.2-2.4,9.8-2.4c3.7,0,7,0.8,9.9,2.4c2.9,1.6,5.2,3.7,6.8,6.5c1.6,2.8,2.5,5.9,2.5,9.5c0,3.5-0.8,6.7-2.5,9.5
		c-1.6,2.8-3.9,5-6.8,6.6c-2.9,1.6-6.2,2.4-9.9,2.4C189.6,60,186.3,59.2,183.4,57.7z M200.9,49.7c2-2.1,3-4.8,3-8.1s-1-6.1-3-8.1
		c-2-2.1-4.6-3.1-7.7-3.1c-3.1,0-5.6,1-7.6,3.1c-2,2.1-3,4.8-3,8.1s1,6.1,3,8.1c2,2.1,4.5,3.1,7.6,3.1
		C196.3,52.8,198.9,51.8,200.9,49.7z"/>
	<polygon class="st0" points="65.4,34.7 63.4,29.5 44.1,36.9 59,6 54.1,3.6 39.5,33.7 34.8,13.4 29.4,14.7 34.1,34.8 16.9,21 
		13.4,25.4 33.2,41.1 3.6,52.5 5.6,57.7 33.1,47.1 25.2,63.4 30.2,65.8 37.7,50.2 44.5,79.1 49.8,77.8 43.1,49.1 59.4,62.2 
		62.9,57.8 44.1,42.8 	"/>
</g>
</svg>
