<?xml version="1.0" encoding="utf-8"?>
<!-- Generator: Adobe Illustrator 26.3.1, SVG Export Plug-In . SVG Version: 6.00 Build 0)  -->
<svg version="1.1" id="Layer_1" xmlns="http://www.w3.org/2000/svg" xmlns:xlink="http://www.w3.org/1999/xlink" x="0px" y="0px"
	 viewBox="0 0 448.7 448.7" style="enable-background:new 0 0 448.7 448.7;" xml:space="preserve">
<style type="text/css">
	.st0{fill:#244082;}
	.st1{fill:#FFFFFF;}
	.st2{fill:#DB0B0B;}
</style>
<g>
	<circle class="st0" cx="224.4" cy="224.4" r="186.4"/>
	<g>
		<path class="st0" d="M224.4,29.1c26.4,0,51.9,5.2,76,15.3c23.2,9.8,44.1,23.9,62.1,41.8c17.9,17.9,32,38.8,41.8,62.1
			c10.2,24.1,15.3,49.6,15.3,76s-5.2,51.9-15.3,76c-9.8,23.2-23.9,44.1-41.8,62.1c-17.9,17.9-38.8,32-62.1,41.8
			c-24.1,10.2-49.6,15.3-76,15.3s-51.9-5.2-76-15.3c-23.2-9.8-44.1-23.9-62.1-41.8c-17.9-17.9-32-38.8-41.8-62.1
			c-10.2-24.1-15.3-49.6-15.3-76s5.2-51.9,15.3-76c9.8-23.2,23.9-44.1,41.8-62.1c17.9-17.9,38.8-32,62.1-41.8
			C172.4,34.3,198,29.1,224.4,29.1 M224.4,25.1c-110,0-199.2,89.2-199.2,199.2c0,110,89.2,199.2,199.2,199.2s199.2-89.2,199.2-199.2
			C423.6,114.3,334.4,25.1,224.4,25.1L224.4,25.1z"/>
	</g>
	<path class="st1" d="M172,280.7c0,0-8.3,25.8-32.4,21.5c-24.1-4.3-24.3-41-24.3-41s0-83.6,0-90c0-1.9-0.7-3.3-1.7-4.5
		c-1.7-2-4.3-3.1-6.9-3.1h-2.3v-3.2h42v3.3h-4.1c-4.3,0-7.9,3.4-8,7.7c0,0.1,0,0.1,0,0.2V266c0,0-0.3,21.3,12.9,25.3
		c13.2,4,19.3-12.6,19.3-12.6s2.4-4.5,3.9-12.1l0.5-7.6c0.1-0.9,0.1-1.8,0.1-2.7v-77.7c0,0,1.3-14.8-11.6-14.8v-3.4h28.9v3h-1.8
		c-3.5,0-6.9,1.7-8.9,4.7c-1.2,1.9-2.2,4.4-2.2,7.5V250C175.4,250,176.3,267.9,172,280.7z"/>
	<path class="st1" d="M269.9,237.2c-8-10-20.6-11.9-20.6-11.9s23.3-3.9,23.5-30.6c0.2-26.7-20.4-32.9-20.4-32.9s-6.5-2.1-10.5-2.2
		l-53.7,0.5v3h4.6c1.5,0,2.9,0.4,4.1,1.2c2,1.4,4.4,4.2,4.4,9.7v109.9c0,0,0.8,6.6-5.2,10.3c-0.8,0.5-1.8,0.7-2.7,0.7h-5.1v3.1h54.2
		c0,0,30.1,0.7,34.1-31.9C278.1,253.8,275,243.5,269.9,237.2z M223.9,167.5c26,0.8,24.9,21.2,24.9,21.2v11.1c0,1.8-0.2,3.7-0.5,5.4
		c-4.2,19.5-24.4,17.3-24.4,17.3V167.5z M251.9,266c0,5.1-2.7,13.7-5.5,17.3c-2.7,3.5-7.9,6.5-10.8,7.4c-1.1,0.3-11.9,2.1-11.7-7.6
		v-52.5c6.8,0.2,12,0.2,15.8,2.1c12.2,6.1,12.1,25.1,12.1,25.1V266z"/>
	<path class="st1" d="M252.2,160.3c0,0,14.5,4.2,19.6,19c0,0,1-10.5,23.7-10.8v116.2c0,2.4-0.8,4.7-2.4,6.6
		c-1.9,2.2-5.2,4.4-10.7,4.1v3.9h45.1v-4h-3.6c-1.9,0-3.6-0.8-4.9-2.1c-1.5-1.6-3.1-4-3.5-7.3V168.5h8c2.6,0,5.2-0.1,7.2,1.7
		c3.9,3.4,9.2,11,11,27.3h2.8v-37.1H252.2z"/>
	<rect x="113.3" y="308.3" class="st1" width="222" height="10"/>
	<rect x="99.4" y="326.3" class="st1" width="249.8" height="18.9"/>
	<rect x="102.3" y="133.3" class="st1" width="244.1" height="18.9"/>
	<path class="st2" d="M383.3,123.3"/>
	<path class="st1" d="M358.8,115.4l-133.3-43c-0.8-0.3-1.7-0.3-2.5,0l-133.3,43c-4.4,1.4-3.4,7.9,1.2,7.9h266.6
		C362.2,123.3,363.2,116.8,358.8,115.4z M113.8,116.2l110.5-35.7l110.5,35.7H113.8z"/>
</g>
</svg>
