<?xml version="1.0" encoding="UTF-8"?>
<svg id="Layer_1" data-name="Layer 1" xmlns="http://www.w3.org/2000/svg" viewBox="0 0 445.93 434.52">
  <defs>
    <style>
      .cls-1 {
        fill: #fff;
      }

      .cls-2 {
        fill: #244082;
      }
    </style>
  </defs>
  <g id="g33">
    <ellipse id="circle11" class="cls-2" cx="222.97" cy="217.37" rx="208.64" ry="203.3"/>
    <g id="g15">
      <path id="path13" class="cls-2" d="M222.97,4.36c29.55,0,58.09,5.67,85.07,16.69,25.97,10.69,49.36,26.07,69.51,45.59,20.04,19.52,35.82,42.32,46.79,67.73,11.42,26.29,17.13,54.1,17.13,82.89s-5.82,56.61-17.13,82.89c-10.97,25.3-26.75,48.1-46.79,67.73-20.04,19.52-43.43,34.9-69.51,45.59-26.98,11.12-55.52,16.69-85.07,16.69s-58.09-5.67-85.07-16.69c-25.97-10.69-49.36-26.07-69.51-45.59-20.04-19.52-35.82-42.32-46.79-67.73-11.42-26.29-17.13-54.1-17.13-82.89s5.82-56.61,17.13-82.89c10.97-25.3,26.75-48.1,46.79-67.73,20.04-19.52,43.43-34.9,69.51-45.59,26.86-11.02,55.52-16.69,85.07-16.69m0-4.36C99.84,0,0,97.29,0,217.26s99.84,217.26,222.97,217.26,222.97-97.29,222.97-217.26S346.09,0,222.97,0h0Z"/>
    </g>
    <path id="path17" class="cls-1" d="M164.31,278.78s-9.29,28.14-36.27,23.45c-26.98-4.69-27.2-44.72-27.2-44.72v-98.16c0-2.07-.78-3.6-1.9-4.91-1.9-2.18-4.81-3.38-7.72-3.38h-2.57v-3.49h47.01v3.6h-4.59c-4.81,0-8.84,3.71-8.95,8.4v103.18s-.34,23.23,14.44,27.59,21.6-13.74,21.6-13.74c0,0,2.69-4.91,4.37-13.2l.56-8.29c.11-.98,.11-1.96,.11-2.94v-84.75s1.46-16.14-12.98-16.14v-3.71h32.35v3.27h-2.01c-3.92,0-7.72,1.85-9.96,5.13-1.34,2.07-2.46,4.8-2.46,8.18v81.15s1.01,19.52-3.81,33.48h0Z"/>
    <path id="path19" class="cls-1" d="M273.89,231.33c-8.95-10.91-23.06-12.98-23.06-12.98,0,0,26.08-4.25,26.3-33.37,.22-29.12-22.83-35.88-22.83-35.88,0,0-7.28-2.29-11.75-2.4l-60.11,.55v3.27h5.15c1.68,0,3.25,.44,4.59,1.31,2.24,1.53,4.92,4.58,4.92,10.58v119.86s.9,7.2-5.82,11.23c-.9,.55-2.01,.76-3.02,.76h-5.71v3.38h60.67s33.69,.76,38.17-34.79c1.68-13.42-1.79-24.65-7.5-31.52h0Zm-51.49-76.02c29.1,.87,27.87,23.12,27.87,23.12v12.11c0,1.96-.22,4.04-.56,5.89-4.7,21.27-27.31,18.87-27.31,18.87v-59.99Zm31.34,107.43c0,5.56-3.02,14.94-6.16,18.87-3.02,3.82-8.84,7.09-12.09,8.07-1.23,.33-13.32,2.29-13.1-8.29v-57.26c7.61,.22,13.43,.22,17.69,2.29,13.66,6.65,13.54,27.38,13.54,27.38v8.94h.11Z"/>
    <path id="path21" class="cls-1" d="M254.08,147.46s16.23,4.58,21.94,20.72c0,0,1.12-11.45,26.53-11.78v126.74c0,2.62-.9,5.13-2.69,7.2-2.13,2.4-5.82,4.8-11.98,4.47v4.25h50.48v-4.36h-4.03c-2.13,0-4.03-.87-5.48-2.29-1.68-1.75-3.47-4.36-3.92-7.96V156.4h8.95c2.91,0,5.82-.11,8.06,1.85,4.37,3.71,10.3,12,12.31,29.78h3.13v-40.46h-103.31v-.11Z"/>
    <rect id="rect23" class="cls-1" x="98.61" y="308.88" width="248.49" height="10.91"/>
    <rect id="rect25" class="cls-1" x="83.05" y="328.51" width="279.6" height="20.61"/>
    <rect id="rect27" class="cls-1" x="86.3" y="118.01" width="273.22" height="20.61"/>
    <path id="path31" class="cls-1" d="M373.4,98.49L224.2,51.59c-.9-.33-1.9-.33-2.8,0L72.2,98.49c-4.92,1.53-3.81,8.62,1.34,8.62H371.95c5.26,0,6.38-7.09,1.46-8.62Zm-274.23,.87l123.68-38.94,123.68,38.94H99.17Z"/>
  </g>
</svg>
=======
<?xml version="1.0" encoding="utf-8"?>
<!-- Generator: Adobe Illustrator 26.3.1, SVG Export Plug-In . SVG Version: 6.00 Build 0)  -->
<svg version="1.1" id="Layer_1" xmlns="http://www.w3.org/2000/svg" xmlns:xlink="http://www.w3.org/1999/xlink" x="0px" y="0px"
	 viewBox="0 0 448.7 448.7" style="enable-background:new 0 0 448.7 448.7;" xml:space="preserve">
<style type="text/css">
	.st0{fill:#244082;}
	.st1{fill:#FFFFFF;}
	.st2{fill:#DB0B0B;}
</style>
<g>
	<circle class="st0" cx="224.4" cy="224.4" r="186.4"/>
	<g>
		<path class="st0" d="M224.4,29.1c26.4,0,51.9,5.2,76,15.3c23.2,9.8,44.1,23.9,62.1,41.8c17.9,17.9,32,38.8,41.8,62.1
			c10.2,24.1,15.3,49.6,15.3,76s-5.2,51.9-15.3,76c-9.8,23.2-23.9,44.1-41.8,62.1c-17.9,17.9-38.8,32-62.1,41.8
			c-24.1,10.2-49.6,15.3-76,15.3s-51.9-5.2-76-15.3c-23.2-9.8-44.1-23.9-62.1-41.8c-17.9-17.9-32-38.8-41.8-62.1
			c-10.2-24.1-15.3-49.6-15.3-76s5.2-51.9,15.3-76c9.8-23.2,23.9-44.1,41.8-62.1c17.9-17.9,38.8-32,62.1-41.8
			C172.4,34.3,198,29.1,224.4,29.1 M224.4,25.1c-110,0-199.2,89.2-199.2,199.2c0,110,89.2,199.2,199.2,199.2s199.2-89.2,199.2-199.2
			C423.6,114.3,334.4,25.1,224.4,25.1L224.4,25.1z"/>
	</g>
	<path class="st1" d="M172,280.7c0,0-8.3,25.8-32.4,21.5c-24.1-4.3-24.3-41-24.3-41s0-83.6,0-90c0-1.9-0.7-3.3-1.7-4.5
		c-1.7-2-4.3-3.1-6.9-3.1h-2.3v-3.2h42v3.3h-4.1c-4.3,0-7.9,3.4-8,7.7c0,0.1,0,0.1,0,0.2V266c0,0-0.3,21.3,12.9,25.3
		c13.2,4,19.3-12.6,19.3-12.6s2.4-4.5,3.9-12.1l0.5-7.6c0.1-0.9,0.1-1.8,0.1-2.7v-77.7c0,0,1.3-14.8-11.6-14.8v-3.4h28.9v3h-1.8
		c-3.5,0-6.9,1.7-8.9,4.7c-1.2,1.9-2.2,4.4-2.2,7.5V250C175.4,250,176.3,267.9,172,280.7z"/>
	<path class="st1" d="M269.9,237.2c-8-10-20.6-11.9-20.6-11.9s23.3-3.9,23.5-30.6c0.2-26.7-20.4-32.9-20.4-32.9s-6.5-2.1-10.5-2.2
		l-53.7,0.5v3h4.6c1.5,0,2.9,0.4,4.1,1.2c2,1.4,4.4,4.2,4.4,9.7v109.9c0,0,0.8,6.6-5.2,10.3c-0.8,0.5-1.8,0.7-2.7,0.7h-5.1v3.1h54.2
		c0,0,30.1,0.7,34.1-31.9C278.1,253.8,275,243.5,269.9,237.2z M223.9,167.5c26,0.8,24.9,21.2,24.9,21.2v11.1c0,1.8-0.2,3.7-0.5,5.4
		c-4.2,19.5-24.4,17.3-24.4,17.3V167.5z M251.9,266c0,5.1-2.7,13.7-5.5,17.3c-2.7,3.5-7.9,6.5-10.8,7.4c-1.1,0.3-11.9,2.1-11.7-7.6
		v-52.5c6.8,0.2,12,0.2,15.8,2.1c12.2,6.1,12.1,25.1,12.1,25.1V266z"/>
	<path class="st1" d="M252.2,160.3c0,0,14.5,4.2,19.6,19c0,0,1-10.5,23.7-10.8v116.2c0,2.4-0.8,4.7-2.4,6.6
		c-1.9,2.2-5.2,4.4-10.7,4.1v3.9h45.1v-4h-3.6c-1.9,0-3.6-0.8-4.9-2.1c-1.5-1.6-3.1-4-3.5-7.3V168.5h8c2.6,0,5.2-0.1,7.2,1.7
		c3.9,3.4,9.2,11,11,27.3h2.8v-37.1H252.2z"/>
	<rect x="113.3" y="308.3" class="st1" width="222" height="10"/>
	<rect x="99.4" y="326.3" class="st1" width="249.8" height="18.9"/>
	<rect x="102.3" y="133.3" class="st1" width="244.1" height="18.9"/>
	<path class="st2" d="M383.3,123.3"/>
	<path class="st1" d="M358.8,115.4l-133.3-43c-0.8-0.3-1.7-0.3-2.5,0l-133.3,43c-4.4,1.4-3.4,7.9,1.2,7.9h266.6
		C362.2,123.3,363.2,116.8,358.8,115.4z M113.8,116.2l110.5-35.7l110.5,35.7H113.8z"/>
</g>
</svg>