<svg width="806" height="350" viewBox="0 0 806 350" fill="none" xmlns="http://www.w3.org/2000/svg">
<path d="M7.46985 177.801C11.3102 215.407 44.7551 297.079 142.834 297.079C240.914 297.079 273.417 219.25 278.217 179.722H229.468" stroke="#F03861" stroke-width="11.5875" stroke-miterlimit="10" stroke-linecap="round" stroke-linejoin="round"/>
<path d="M73.7047 245.99C54.5158 225.975 44.91 206.758 41.3031 182.462" stroke="#F03861" stroke-width="11.5875" stroke-miterlimit="10" stroke-linecap="round" stroke-linejoin="round"/>
<path d="M240.633 211.037C232.132 226.937 225.411 234.624 213.525 245.327" stroke="#F03861" stroke-width="11.5875" stroke-miterlimit="10" stroke-linecap="round" stroke-linejoin="round"/>
<path d="M275.787 143.344C275.787 110.229 236.423 24.1985 139.946 24.1985C47.2842 24.1985 13.6808 96.262 6 141.164H112.814" stroke="#F03861" stroke-width="11.5875" stroke-miterlimit="10" stroke-linecap="round" stroke-linejoin="round"/>
<path d="M190.129 183.45C200.468 183.45 208.85 174.97 208.85 164.51C208.85 154.05 200.468 145.571 190.129 145.571C179.791 145.571 171.409 154.05 171.409 164.51C171.409 174.97 179.791 183.45 190.129 183.45Z" stroke="#F03861" stroke-width="9.9303" stroke-miterlimit="10" stroke-linejoin="round"/>
<path d="M44.8494 63.8913C55.6525 71.091 58.6533 85.8084 51.5084 96.7381C44.3636 107.668 29.8453 110.704 19.0422 103.475" stroke="#F03861" stroke-width="11.5875" stroke-miterlimit="10" stroke-linejoin="round"/>
<path d="M270.15 125.017C259.861 129.841 247.598 125.293 242.795 114.875C237.991 104.458 242.452 92.0734 252.741 87.2495" stroke="#F03861" stroke-width="11.5875" stroke-miterlimit="10" stroke-linejoin="round"/>
<path d="M162.653 27.2779C162.653 39.5066 152.86 49.4137 140.773 49.4137C128.686 49.4137 118.894 39.5066 118.894 27.2779" stroke="#F03861" stroke-width="11.5875" stroke-miterlimit="10" stroke-linejoin="round"/>
<path d="M118.894 296.563C118.894 284.334 128.686 274.427 140.773 274.427C152.86 274.427 162.653 284.334 162.653 296.563" stroke="#F03861" stroke-width="11.5875" stroke-miterlimit="10" stroke-linejoin="round"/>
<path d="M189.658 143.677C189.658 111.319 171.645 100.499 141.898 100.499L141.623 179.704L77.3505 179.537C77.3505 216.917 105.373 243.367 142.32 243.367L141.88 277.041" stroke="#F03861" stroke-width="11.5875" stroke-miterlimit="10" stroke-linejoin="round"/>
<path d="M119.914 209.551H166.563V260.081" stroke="#F03861" stroke-width="11.5875" stroke-miterlimit="10" stroke-linecap="round" stroke-linejoin="round"/>
<path d="M189.453 186.784V288.219" stroke="#F03861" stroke-width="11.5875" stroke-miterlimit="10" stroke-linejoin="round"/>
<path d="M114.771 61.6387V111.106" stroke="#F03861" stroke-width="11.5875" stroke-miterlimit="10" stroke-linecap="round" stroke-linejoin="round"/>
<path d="M51.8632 98.343L90.6674 116.291V34.1232" stroke="#F03861" stroke-width="11.5875" stroke-miterlimit="10" stroke-linejoin="round"/>
<path d="M141.898 51.4729L141.642 76.9642C180.286 76.9642 208.86 97.696 210.621 130.12L242.372 115.997" stroke="#F03861" stroke-width="11.5875" stroke-miterlimit="10" stroke-linejoin="round"/>
<path d="M381.975 275.202V279.073H364.783V333.763H360.751V279.073H343.732V275.202H381.975Z" fill="#F03861"/>
<path d="M407.959 327.505L409.935 330.31C408.34 331.573 406.55 332.581 404.551 333.312C402.552 334.053 400.53 334.424 398.508 334.424C395.216 334.424 392.269 333.682 389.67 332.199C387.059 330.704 385.037 328.687 383.581 326.126C382.125 323.565 381.409 320.691 381.409 317.504C381.409 314.432 382.171 311.581 383.708 308.962C385.245 306.355 387.324 304.28 389.959 302.739C392.593 301.197 395.47 300.432 398.589 300.432C402.321 300.432 405.498 301.533 408.121 303.724C410.755 305.926 412.673 308.893 413.875 312.636L386.412 323.275C387.451 325.581 389.057 327.459 391.218 328.884C393.378 330.31 395.839 331.028 398.578 331.028C402.032 331.04 405.163 329.858 407.959 327.505ZM391.68 305.566C389.647 306.772 388.064 308.406 386.908 310.469C385.753 312.532 385.187 314.826 385.187 317.353C385.187 318.512 385.291 319.52 385.51 320.401L409.195 311.083C408.156 308.881 406.7 307.108 404.84 305.763C402.968 304.419 400.807 303.747 398.347 303.747C395.92 303.747 393.702 304.35 391.68 305.566Z" fill="#F03861"/>
<path d="M433.932 303.005C436.566 301.464 439.2 300.664 441.823 300.606L441.661 304.396C439.246 304.396 437.028 304.929 434.995 306.007C432.961 307.085 431.355 308.568 430.188 310.469C429.01 312.358 428.421 314.444 428.421 316.692V333.775H424.562V301.522H427.924L428.259 309.194C429.414 306.598 431.309 304.547 433.932 303.005Z" fill="#F03861"/>
<path d="M462.053 303.005C464.687 301.464 467.322 300.664 469.944 300.606L469.783 304.396C467.368 304.396 465.15 304.929 463.116 306.007C461.083 307.085 459.477 308.568 458.31 310.469C457.131 312.358 456.542 314.444 456.542 316.692V333.775H452.683V301.522H456.045L456.38 309.194C457.536 306.598 459.431 304.547 462.053 303.005Z" fill="#F03861"/>
<path d="M480.851 287.695C481.429 287.174 482.099 286.907 482.861 286.907C483.624 286.907 484.283 287.174 484.837 287.695C485.38 288.217 485.657 288.866 485.657 289.631C485.657 290.454 485.38 291.126 484.837 291.647C484.294 292.169 483.624 292.436 482.861 292.436C482.087 292.436 481.417 292.157 480.851 291.613C480.273 291.068 479.985 290.407 479.985 289.631C479.985 288.866 480.273 288.229 480.851 287.695ZM484.664 301.51V333.763H480.805V301.51H484.664Z" fill="#F03861"/>
<path d="M506.465 287.336V301.939H516.413V305.068H506.465V333.775H502.514V305.068H495.686V301.939H502.514V287.336H506.465Z" fill="#F03861"/>
<path d="M525.171 308.904C526.672 306.297 528.741 304.234 531.375 302.727C534.009 301.209 536.921 300.456 540.098 300.456C543.275 300.456 546.187 301.209 548.809 302.727C551.443 304.234 553.5 306.297 554.979 308.904C556.458 311.512 557.197 314.363 557.197 317.446C557.197 320.575 556.446 323.437 554.933 326.022C553.419 328.606 551.363 330.658 548.763 332.164C546.163 333.682 543.24 334.436 540.005 334.436C536.77 334.436 533.847 333.706 531.248 332.257C528.648 330.808 526.603 328.78 525.113 326.196C523.634 323.611 522.894 320.691 522.894 317.446C522.918 314.351 523.657 311.512 525.171 308.904ZM528.544 324.364C529.723 326.462 531.329 328.108 533.35 329.313C535.384 330.53 537.602 331.133 540.017 331.133C542.432 331.133 544.65 330.53 546.672 329.313C548.705 328.108 550.311 326.462 551.478 324.364C552.657 322.278 553.246 319.995 553.246 317.515C553.246 315.047 552.657 312.752 551.478 310.631C550.3 308.522 548.694 306.853 546.672 305.648C544.638 304.442 542.42 303.828 540.017 303.828C537.544 303.828 535.303 304.477 533.27 305.763C531.236 307.062 529.653 308.754 528.498 310.84C527.343 312.926 526.776 315.151 526.776 317.515C526.776 319.995 527.366 322.278 528.544 324.364Z" fill="#F03861"/>
<path d="M578.086 303.005C580.721 301.464 583.355 300.664 585.978 300.606L585.816 304.396C583.401 304.396 581.183 304.929 579.149 306.007C577.116 307.085 575.51 308.568 574.343 310.469C573.164 312.358 572.575 314.444 572.575 316.692V333.775H568.716V301.522H572.078L572.413 309.194C573.569 306.598 575.452 304.547 578.086 303.005Z" fill="#F03861"/>
<path d="M624.543 301.51L603.816 349.27H599.784L606.693 333.439L591.812 301.51H596.168L608.669 328.977L620.754 301.51H624.543Z" fill="#F03861"/>
<path d="M695.586 322.962L703.893 333.775H699.214L693.703 326.601C692.005 328.965 689.659 330.866 686.667 332.292C683.686 333.717 680.347 334.436 676.673 334.436C673.057 334.436 669.81 333.705 666.933 332.257C664.056 330.808 661.792 328.803 660.151 326.277C658.511 323.75 657.69 320.945 657.69 317.863C657.69 315.012 658.441 312.381 659.955 309.993C661.457 307.606 663.467 305.624 665.963 304.048C668.447 302.483 671.185 301.452 674.143 300.954L668.886 294.104C667.892 292.517 667.118 290.987 666.541 289.527C665.963 288.078 665.674 286.467 665.674 284.705C665.674 282.283 666.252 280.081 667.396 278.111C668.551 276.129 670.145 274.576 672.202 273.44C674.258 272.316 676.604 271.748 679.238 271.748C681.653 271.748 683.917 272.189 686.066 273.07C688.204 273.95 690.121 275.075 691.82 276.454L689.844 279.177C686.228 276.535 682.889 275.225 679.816 275.225C676.916 275.225 674.513 276.118 672.618 277.902C670.723 279.687 669.776 281.959 669.776 284.705C669.776 286.351 670.076 287.869 670.677 289.237C671.278 290.616 671.832 291.659 672.317 292.366L693.125 319.671L700.196 300.699H704.148L695.586 322.962ZM685.639 328.78C688.204 327.436 690.156 325.709 691.473 323.623L676.419 303.99C674.062 304.106 671.774 304.767 669.556 305.972C667.338 307.177 665.512 308.823 664.091 310.874C662.67 312.926 661.954 315.232 661.954 317.758C661.954 320.285 662.635 322.545 664.01 324.527C665.374 326.508 667.211 328.05 669.521 329.151C671.832 330.252 674.351 330.796 677.089 330.796C680.208 330.808 683.062 330.124 685.639 328.78Z" fill="#F03861"/>
<path d="M749.126 275.202V333.763H745.094V275.202H749.126Z" fill="#F03861"/>
<path d="M801.256 275.202V279.073H784.076V333.763H780.044V279.073H763.014V275.202H801.256Z" fill="#F03861"/>
<path d="M377.08 139.8C377.08 140.216 377.578 140.43 377.875 140.133C382.368 135.436 387.121 130.418 392.159 125.067C397.494 119.406 402.722 113.758 407.855 108.098C412.976 102.438 417.848 96.9796 422.471 91.7355C430.153 82.9955 441.19 78.0012 452.807 78.0012H477.287C477.69 78.0012 477.903 78.4649 477.642 78.7741C467.613 90.0589 457.039 101.736 445.931 113.806C434.693 126.03 423.396 137.945 412.051 149.563C411.862 149.753 411.873 150.05 412.075 150.228C418.097 155.306 424.427 161.43 431.042 168.588C437.799 175.89 444.343 183.667 450.685 191.895C457.027 200.124 462.954 208.365 468.491 216.581C473.837 224.549 478.33 231.933 481.945 238.747C482.111 239.056 481.874 239.424 481.531 239.424H439.506C439.34 239.424 439.198 239.341 439.115 239.199C435.452 232.896 431.232 226.273 426.478 219.364C421.653 212.372 416.485 205.582 410.937 198.994C405.401 192.407 399.746 186.187 394.009 180.313C388.52 174.712 383.126 169.908 377.827 165.901C377.519 165.675 377.08 165.901 377.08 166.282V238.949C377.08 239.21 376.879 239.413 376.618 239.413H340.32C340.059 239.413 339.857 239.21 339.857 238.949V43.3858C339.857 21.8627 355.387 3.51459 376.547 0.00668018C376.832 -0.0408847 377.08 0.173157 377.08 0.470438V139.8Z" fill="#F03861"/>
<path d="M560.766 73.9819C573.071 73.9819 583.432 75.5278 591.849 78.6195C600.253 81.6993 606.975 86.0277 612.001 91.5809C617.027 97.1341 620.619 103.876 622.777 111.796C624.934 119.716 626.001 128.408 626.001 137.873V235.714C620.264 236.951 611.586 238.449 600.004 240.185C588.411 241.933 575.335 242.813 560.766 242.813C551.128 242.813 542.309 241.886 534.307 240.031C526.305 238.176 519.489 235.203 513.846 231.077C508.203 226.962 503.793 221.611 500.616 215.024C497.439 208.436 495.851 200.314 495.851 190.635C495.851 181.371 497.641 173.559 501.233 167.173C504.813 160.8 509.697 155.603 515.849 151.584C522.002 147.565 529.126 144.687 537.235 142.939C545.331 141.191 553.796 140.311 562.615 140.311C566.717 140.311 571.02 140.573 575.537 141.084C580.041 141.607 584.866 142.475 589.999 143.712V137.54C589.999 133.224 589.489 129.11 588.458 125.197C587.427 121.297 585.637 117.849 583.076 114.852C580.516 111.879 577.125 109.56 572.929 107.908C568.72 106.267 563.433 105.446 557.079 105.446C548.473 105.446 540.566 106.064 533.394 107.301C526.21 108.538 520.366 109.977 515.861 111.618L514.237 101.011C512.471 89.4762 520.141 78.5719 531.58 76.4791C531.675 76.4672 531.758 76.4434 531.853 76.4315C540.862 74.8143 550.5 73.9819 560.766 73.9819ZM563.836 213.18C575.323 213.18 584.036 212.562 589.987 211.325V169.968C587.937 169.349 584.961 168.731 581.061 168.113C577.161 167.494 572.858 167.185 568.14 167.185C564.038 167.185 559.877 167.494 555.68 168.113C551.472 168.731 547.679 169.861 544.3 171.502C540.922 173.155 538.195 175.462 536.144 178.446C534.093 181.431 533.062 185.189 533.062 189.707C533.062 198.554 535.836 204.678 541.372 208.067C546.92 211.492 554.4 213.18 563.836 213.18Z" fill="#F03861"/>
<path d="M671.534 83.2452C678.718 81.188 688.036 79.2379 699.535 77.3828C711.022 75.5278 723.742 74.6003 737.694 74.6003C750.817 74.6003 761.795 76.4077 770.614 79.9989C779.434 83.6019 786.464 88.6438 791.692 95.1245C796.919 101.605 800.618 109.43 802.764 118.586C804.921 127.742 806 137.778 806 148.683V239.424H800.345C782.907 239.424 768.777 225.25 768.777 207.758V154.545C768.777 145.9 768.208 138.551 767.082 132.475C765.955 126.41 764.106 121.464 761.546 117.658C758.985 113.853 755.5 111.083 751.09 109.323C746.68 107.575 741.286 106.695 734.932 106.695C730.214 106.695 725.295 107.004 720.162 107.622C715.029 108.241 711.235 108.752 708.781 109.168V239.413C688.226 239.413 671.558 222.693 671.558 202.074V83.2452H671.534Z" fill="#F03861"/>
</svg>
