<?xml version="1.0" encoding="UTF-8" standalone="no"?>
<!-- Generator: Adobe Illustrator 16.0.0, SVG Export Plug-In . SVG Version: 6.00 Build 0)  -->

<svg
   xmlns:dc="http://purl.org/dc/elements/1.1/"
   xmlns:cc="http://creativecommons.org/ns#"
   xmlns:rdf="http://www.w3.org/1999/02/22-rdf-syntax-ns#"
   xmlns:svg="http://www.w3.org/2000/svg"
   xmlns="http://www.w3.org/2000/svg"
   xmlns:sodipodi="http://sodipodi.sourceforge.net/DTD/sodipodi-0.dtd"
   xmlns:inkscape="http://www.inkscape.org/namespaces/inkscape"
   version="1.1"
   id="Layer_1"
   x="0px"
   y="0px"
   width="318.78427"
   height="179.18401"
   viewBox="0 0 298.86025 167.98501"
   enable-background="new 0 0 722.569 346.291"
   xml:space="preserve"
   inkscape:version="0.91 r13725"
   sodipodi:docname="qgis_es_2.svg"
   inkscape:export-filename="E:\Google Drive\QGIS_Graphics\Logo candidate 3.0 final files\qgis-logo_anita0.png"
   inkscape:export-xdpi="278"
   inkscape:export-ydpi="278"><metadata
     id="metadata46"><rdf:RDF><cc:Work
         rdf:about=""><dc:format>image/svg+xml</dc:format><dc:type
           rdf:resource="http://purl.org/dc/dcmitype/StillImage" /><dc:title></dc:title></cc:Work></rdf:RDF></metadata><defs
     id="defs44"><linearGradient
       gradientTransform="matrix(1.0666666,0,0,1.0666666,-108.32318,-95.349328)"
       id="SVGID_5_-7"
       gradientUnits="userSpaceOnUse"
       x1="188.7529"
       y1="250.2354"
       x2="186.5125"
       y2="102.9362"><stop
         offset="0"
         style="stop-color:#589632"
         id="stop36-9" /><stop
         offset="1"
         style="stop-color:#93B023"
         id="stop38-0" /></linearGradient><linearGradient
       id="linearGradient4250"
       gradientUnits="userSpaceOnUse"
       x1="234.4702"
       y1="250.03419"
       x2="232.211"
       y2="101.4977"><stop
         offset="0"
         style="stop-color:#589632"
         id="stop27-0" /><stop
         offset="1"
         style="stop-color:#93B023"
         id="stop29-2" /></linearGradient><linearGradient
       id="SVGID_1_-2"
       gradientUnits="userSpaceOnUse"
       x1="350.02249"
       y1="247.7832"
       x2="347.78201"
       y2="100.4837"><stop
         offset="0"
         style="stop-color:#589632"
         id="stop6-6" /><stop
         offset="1"
         style="stop-color:#93B023"
         id="stop8-9" /></linearGradient><linearGradient
       id="SVGID_2_-0"
       gradientUnits="userSpaceOnUse"
       x1="459.22171"
       y1="246.1226"
       x2="456.98129"
       y2="98.822403"><stop
         offset="0"
         style="stop-color:#589632"
         id="stop13-3" /><stop
         offset="1"
         style="stop-color:#93B023"
         id="stop15-5" /></linearGradient><linearGradient
       id="SVGID_3_-5"
       gradientUnits="userSpaceOnUse"
       x1="553.50677"
       y1="244.6875"
       x2="551.26642"
       y2="97.388199"><stop
         offset="0"
         style="stop-color:#589632"
         id="stop20-8" /><stop
         offset="1"
         style="stop-color:#93B023"
         id="stop22-7" /></linearGradient></defs><sodipodi:namedview
     pagecolor="#ffffff"
     bordercolor="#666666"
     borderopacity="1"
     objecttolerance="10"
     gridtolerance="10"
     guidetolerance="10"
     inkscape:pageopacity="0"
     inkscape:pageshadow="2"
     inkscape:window-width="1920"
     inkscape:window-height="1046"
     id="namedview42"
     showgrid="false"
     inkscape:zoom="5.2018043"
     inkscape:cx="170.87429"
     inkscape:cy="38.71122"
     inkscape:window-x="0"
     inkscape:window-y="1050"
     inkscape:window-maximized="1"
     inkscape:current-layer="layer1"
     showguides="true"
     inkscape:guide-bbox="true"
     fit-margin-top="10"
     fit-margin-left="10"
     fit-margin-bottom="10"
     fit-margin-right="10"><sodipodi:guide
       position="1.1112001,160.97979"
       orientation="0,1"
       id="guide4164"
       inkscape:locked="false" /><sodipodi:guide
       position="-36.293591,10.564822"
       orientation="0,1"
       id="guide4166"
       inkscape:locked="false" /><sodipodi:guide
       position="-98.369613,81.395165"
       orientation="0,1"
       id="guide4168"
       inkscape:locked="false" /><sodipodi:guide
       position="282.77419,-114.15423"
       orientation="1,0"
       id="guide4928"
       inkscape:locked="false" /></sodipodi:namedview><linearGradient
     id="SVGID_1_"
     gradientUnits="userSpaceOnUse"
     x1="350.02249"
     y1="247.7832"
     x2="347.78201"
     y2="100.4837"><stop
       offset="0"
       style="stop-color:#589632"
       id="stop6" /><stop
       offset="1"
       style="stop-color:#93B023"
       id="stop8" /></linearGradient><linearGradient
     id="SVGID_2_"
     gradientUnits="userSpaceOnUse"
     x1="459.22171"
     y1="246.1226"
     x2="456.98129"
     y2="98.822403"><stop
       offset="0"
       style="stop-color:#589632"
       id="stop13" /><stop
       offset="1"
       style="stop-color:#93B023"
       id="stop15" /></linearGradient><linearGradient
     id="SVGID_3_"
     gradientUnits="userSpaceOnUse"
     x1="553.50677"
     y1="244.6875"
     x2="551.26642"
     y2="97.388199"><stop
       offset="0"
       style="stop-color:#589632"
       id="stop20" /><stop
       offset="1"
       style="stop-color:#93B023"
       id="stop22" /></linearGradient><linearGradient
     id="SVGID_4_"
     gradientUnits="userSpaceOnUse"
     x1="234.4702"
     y1="250.03419"
     x2="232.211"
     y2="101.4977"
     gradientTransform="matrix(1.0666666,0,0,1.0666666,-108.32318,-95.349328)"><stop
       offset="0"
       style="stop-color:#589632"
       id="stop27" /><stop
       offset="1"
       style="stop-color:#93B023"
       id="stop29" /></linearGradient><linearGradient
     id="SVGID_5_"
     gradientUnits="userSpaceOnUse"
     x1="188.7529"
     y1="250.2354"
     x2="186.5125"
     y2="102.9362"><stop
       offset="0"
       style="stop-color:#589632"
       id="stop36" /><stop
       offset="1"
       style="stop-color:#93B023"
       id="stop38" /></linearGradient><g
     inkscape:groupmode="layer"
     id="layer1"
     inkscape:label="Q"
     style="display:inline"
     transform="translate(-101.553,-89.389995)"><polygon
       transform="translate(0,-4.8925781e-6)"
       style="fill:#ee7913"
       points="216.513,180 198.306,162 176,162 176,183.433 195,202.37 195,180 "
       id="polygon3" /><path
       style="fill:url(#SVGID_4_)"
       d="M 109.27734 106.25 L 109.27734 130.08008 L 148.51172 169.18359 L 173.27734 169.18359 L 173.27734 148.41797 L 160.94727 148.41797 A 3.4271211 3.5751438 0 0 1 157.52148 144.8418 L 157.52148 131.15039 L 132.33398 106.25 L 109.27734 106.25 z "
       transform="matrix(0.93750006,0,0,0.93750006,101.55299,89.389995)"
       id="polygon31" /><polygon
       transform="translate(0,-4.8925781e-6)"
       style="fill:#f0e64a"
       points="225.617,189 216.513,180 195,180 195,202.37 204,211.34 204,189 "
       id="polygon33" /><path
       style="fill:url(#SVGID_5_-7)"
       d="M 91.613281 10 C 44.976484 10 10 42.601687 10 86.646484 C 10 130.90675 44.977551 164.15625 91.613281 164.15625 C 103.65275 164.15625 114.90349 161.94198 124.98242 157.91211 L 102.93164 135.97266 C 99.455374 136.77266 95.840395 137.20703 92.111328 137.20703 C 65.43933 137.20703 42.755859 115.27327 42.755859 86.835938 C 42.755859 58.398606 65.18973 36.949219 92.111328 36.949219 C 119.03293 36.949219 140.4707 58.397539 140.4707 86.835938 C 140.4707 91.461004 139.89372 95.911487 138.82812 100.12695 L 157.52148 118.81641 L 157.52148 90.748047 A 3.4271211 3.5751438 0 0 1 160.94727 87.173828 L 173.43359 87.173828 C 173.43472 86.997566 173.44141 86.823089 173.44141 86.646484 C 173.44141 42.817154 138.46448 10 91.613281 10 z "
       transform="matrix(0.93750006,0,0,0.93750006,101.55299,89.389995)"
       id="path40" /><path
       style="fill:#ffffff;fill-opacity:0.17254902"
       d="M 79.410156 77.451172 L 173.27734 169.18359 L 173.27734 148.41797 L 160.94727 148.41797 A 3.4271211 3.5751438 0 0 1 157.52148 144.8418 L 157.52148 131.15039 L 132.33594 106.25 L 122.625 96.650391 L 103.20312 77.451172 L 79.410156 77.451172 z "
       transform="matrix(0.93750006,0,0,0.93750006,101.55299,89.389995)"
       id="polygon4174" /></g><g
     inkscape:groupmode="layer"
     id="layer5"
     inkscape:label="textos"
     style="display:inline"
     transform="translate(-101.553,-89.389995)"><g
       transform="scale(0.97907952,1.0213675)"
       style="font-style:normal;font-variant:normal;font-weight:bold;font-stretch:normal;font-size:14.07272911px;line-height:0%;font-family:Trueno;-inkscape-font-specification:'Trueno, Bold';text-align:start;letter-spacing:0px;word-spacing:0px;writing-mode:lr-tb;text-anchor:start;display:inline;fill:#86aa26;fill-opacity:1;stroke:none;stroke-width:1.17272735px;stroke-linecap:butt;stroke-linejoin:miter;stroke-opacity:1"
       id="text4170-2"><path
         d="m 275.63654,132.10815 c 0,14.4701 11.42003,25.3936 26.52851,25.3936 6.95132,0 15.32128,-2.69541 20.64117,-6.4548 l 0,-19.36439 -10.92351,0 0,12.83866 c -2.97914,1.48957 -6.242,2.41169 -8.79555,2.41169 -8.22809,0 -14.54103,-6.38387 -14.54103,-14.82476 0,-8.29903 6.24201,-14.68289 14.39917,-14.68289 4.61057,0 9.64673,2.05702 13.26425,5.39082 l 7.09319,-8.58276 c -5.10709,-4.53963 -12.9096,-7.37691 -20.28651,-7.37691 -15.67594,0 -27.37969,10.85257 -27.37969,25.25174 z"
         style="font-size:70.93184662px;line-height:1.25;fill:#86aa26;fill-opacity:1;stroke-width:1.17272735px"
         id="path4180"
         inkscape:connector-curvature="0" /><path
         d="m 331.54413,156.9343 12.62587,0 0,-49.6523 -12.62587,0 0,49.6523 z"
         style="font-size:70.93184662px;line-height:1.25;fill:#86aa26;fill-opacity:1;stroke-width:1.17272735px"
         id="path4182"
         inkscape:connector-curvature="0" /><path
         d="m 350.36656,149.41552 c 5.88735,4.82337 14.39917,7.94437 22.69819,7.94437 11.06537,0 19.86092,-5.24896 19.86092,-15.17942 0,-17.94576 -26.24478,-13.05146 -26.24478,-21.63421 0,-2.41168 2.19888,-3.61753 5.46175,-3.61753 4.04311,0 10.63978,2.12796 15.88873,5.17803 l 4.75244,-9.85953 c -5.1071,-3.33379 -12.41308,-5.53268 -19.57719,-5.53268 -11.91655,0 -19.78999,5.81641 -19.78999,14.96662 0,17.5911 26.24478,12.34214 26.24478,21.13769 0,2.83727 -2.48261,4.32684 -6.45479,4.32684 -5.17803,0 -12.83867,-2.97914 -17.94576,-7.44784 l -4.8943,9.71766 z"
         style="font-size:70.93184662px;line-height:1.25;fill:#86aa26;fill-opacity:1;stroke-width:1.17272735px"
         id="path4184"
         inkscape:connector-curvature="0" /></g><g
       transform="scale(0.97907951,1.0213675)"
       style="font-style:normal;font-variant:normal;font-weight:bold;font-stretch:normal;font-size:14.07272911px;line-height:0%;font-family:Trueno;-inkscape-font-specification:'Trueno, Bold';text-align:start;letter-spacing:0px;word-spacing:0px;writing-mode:lr-tb;text-anchor:start;display:inline;fill:#73a22b;fill-opacity:1;stroke:none;stroke-width:8.79545498;stroke-linecap:butt;stroke-linejoin:round;stroke-miterlimit:4;stroke-dasharray:none;stroke-opacity:1;paint-order:stroke markers fill"
       id="text4170-0"><path
         d="m 257.83634,220.46812 39.6509,0 0,-9.93045 -27.02503,0 0,-10.00139 23.69123,0 0,-9.93046 -23.69123,0 0,-9.85953 26.24478,0 0,-9.93046 -38.87065,0 0,49.65229 z"
         style="font-size:70.93184662px;line-height:1.25;fill:#73a22b;fill-opacity:1;stroke:none;stroke-width:8.79545498;stroke-linejoin:round;stroke-miterlimit:4;stroke-dasharray:none;stroke-opacity:1;paint-order:stroke markers fill"
         id="path4187"
         inkscape:connector-curvature="0" /><path
         d="m 301.87282,212.94935 c 5.88735,4.82336 14.39917,7.94437 22.69819,7.94437 11.06537,0 19.86092,-5.24896 19.86092,-15.17942 0,-17.94576 -26.24478,-13.05146 -26.24478,-21.63421 0,-2.41169 2.19888,-3.61753 5.46175,-3.61753 4.04311,0 10.63978,2.12796 15.88873,5.17803 l 4.75244,-9.85953 c -5.1071,-3.3338 -12.41308,-5.53268 -19.57719,-5.53268 -11.91655,0 -19.78999,5.81641 -19.78999,14.96662 0,17.59109 26.24478,12.34214 26.24478,21.13769 0,2.83727 -2.48261,4.32684 -6.45479,4.32684 -5.17803,0 -12.83867,-2.97914 -17.94576,-7.44784 l -4.8943,9.71766 z"
         style="font-size:70.93184662px;line-height:1.25;fill:#73a22b;fill-opacity:1;stroke:none;stroke-width:8.79545498;stroke-linejoin:round;stroke-miterlimit:4;stroke-dasharray:none;stroke-opacity:1;paint-order:stroke markers fill"
         id="path4189"
         inkscape:connector-curvature="0" /><path
         d="m 351.35,220.46812 12.62587,0 0,-13.97357 9.00835,0 c 12.6968,0 20.00278,-6.73852 20.00278,-18.37135 0,-11.06537 -7.30598,-17.30737 -20.00278,-17.30737 l -21.63422,0 0,49.65229 z m 12.62587,-23.90403 0,-15.8178 8.36996,0 c 5.53268,0 8.72462,2.62448 8.72462,7.8025 0,5.24896 -3.19194,8.0153 -8.72462,8.0153 l -8.36996,0 z"
         style="font-size:70.93184662px;line-height:1.25;fill:#73a22b;fill-opacity:1;stroke:none;stroke-width:8.79545498;stroke-linejoin:round;stroke-miterlimit:4;stroke-dasharray:none;stroke-opacity:1;paint-order:stroke markers fill"
         id="path4191"
         inkscape:connector-curvature="0" /></g></g></svg>