<svg id="Layer_1" data-name="Layer 1" xmlns="http://www.w3.org/2000/svg" xmlns:xlink="http://www.w3.org/1999/xlink" viewBox="0 0 288 67.63"><defs><style>.cls-1{fill:url(#linear-gradient);}.cls-2{fill:url(#linear-gradient-2);}.cls-3{fill:url(#linear-gradient-3);}.cls-4{fill:url(#linear-gradient-4);}.cls-5{fill:url(#linear-gradient-5);}.cls-6{fill:url(#linear-gradient-6);}.cls-7{fill:url(#linear-gradient-7);}</style><linearGradient id="linear-gradient" x1="20.5" y1="24.35" x2="20.5" y2="48.1" gradientUnits="userSpaceOnUse"><stop offset="0" stop-color="#4d9cd3"/><stop offset="1" stop-color="#2d68ae"/></linearGradient><linearGradient id="linear-gradient-2" x1="43.49" y1="24.44" x2="43.49" y2="47.31" xlink:href="#linear-gradient"/><linearGradient id="linear-gradient-3" x1="64.51" y1="25.09" x2="64.51" y2="48.06" xlink:href="#linear-gradient"/><linearGradient id="linear-gradient-4" x1="91.44" y1="24.39" x2="91.44" y2="47.31" xlink:href="#linear-gradient"/><linearGradient id="linear-gradient-5" x1="117.55" y1="24.35" x2="117.55" y2="48.1" xlink:href="#linear-gradient"/><linearGradient id="linear-gradient-6" x1="143.86" y1="13.9" x2="143.86" y2="47.31" xlink:href="#linear-gradient"/><linearGradient id="linear-gradient-7" x1="167.61" y1="25.09" x2="167.61" y2="58.22" xlink:href="#linear-gradient"/></defs><path class="cls-1" d="M31.45,32.47H25.24a4.21,4.21,0,0,0-4.32-2.83c-3.39,0-5.43,2.64-5.43,6.54,0,3.66,2,6.59,5.62,6.59a4.47,4.47,0,0,0,4.4-3.06h6.36C30.62,44.25,27.23,48.1,21,48.1a11.49,11.49,0,0,1-11.87-12c0-6.49,4.5-11.78,11.83-11.78A10.23,10.23,0,0,1,31.45,32.47Z"/><path class="cls-2" d="M50.89,30.47a16.08,16.08,0,0,0-3-.28c-3.71,0-5.57,2.32-5.57,6.31V47.31H36.09V25.09h6.12v3.43h.14a7.57,7.57,0,0,1,6.5-4.08,8.47,8.47,0,0,1,2,.18Z"/><path class="cls-3" d="M75,47.31H68.75V44.53h-.14a7.41,7.41,0,0,1-6.49,3.53c-3.62,0-8.08-2.23-8.08-9.79V25.09h6.27V37.48c0,3.25,1.53,5,3.94,5,2.74,0,4.46-1.9,4.46-5.62V25.09H75Z"/><path class="cls-4" d="M80.72,25.09h6.17v2.78h.18a7.49,7.49,0,0,1,6.59-3.48c5,0,8.5,3.34,8.5,10.16V47.31H95.89V35c0-3.34-1.58-5.06-4.18-5.06S87,31.86,87,35.58V47.31H80.72Z"/><path class="cls-5" d="M128.51,32.47h-6.22A4.21,4.21,0,0,0,118,29.64c-3.38,0-5.43,2.64-5.43,6.54,0,3.66,2,6.59,5.62,6.59a4.5,4.5,0,0,0,4.41-3.06h6.35c-1.25,4.54-4.64,8.39-10.85,8.39a11.5,11.5,0,0,1-11.88-12c0-6.49,4.5-11.78,11.83-11.78A10.25,10.25,0,0,1,128.51,32.47Z"/><path class="cls-6" d="M133.14,13.9h6.27v14h.18a7.45,7.45,0,0,1,6.54-3.48c5,0,8.45,3.3,8.45,10.16V47.31h-6.26V34.93c0-3.3-1.58-5-4.18-5s-4.73,1.91-4.73,5.67V47.31h-6.27Z"/><path class="cls-7" d="M166.5,58.22h-5.94l4.08-11.09-8.07-22h6.49l3.21,9.65a48.12,48.12,0,0,1,1.48,5.48h.19a44.3,44.3,0,0,1,1.44-5.48l3.1-9.65h6.18Z"/><path d="M208.18,47.31h-3.66v-3h-.09a10.6,10.6,0,0,1-8.31,3.75c-6,0-11.23-4.68-11.23-11.92,0-6.73,4.78-11.83,11.23-11.83a9.93,9.93,0,0,1,8.31,3.89h.09V13.9h3.66Zm-11.41-2.45a8.19,8.19,0,0,0,8.07-8.54c0-5.29-3.52-8.77-8-8.77-5.43,0-8.16,4.31-8.16,8.63S191.43,44.86,196.77,44.86Z"/><path d="M236.34,47.31h-3.66v-3h-.1a10.45,10.45,0,0,1-8.12,3.75c-6,0-11.41-4.68-11.41-11.92A11.41,11.41,0,0,1,224.7,24.35a10,10,0,0,1,7.93,3.94h.05v-3.2h3.66ZM225,44.86a8.27,8.27,0,0,0,8-8.54c0-5.29-3.57-8.77-7.93-8.77-5.57,0-8.22,4.36-8.22,8.63S219.5,44.86,225,44.86Z"/><path d="M240.33,25.09h2.92V18h3.67v7.1h5.94v3.06h-5.94V39.89c0,3.62,1.11,4.59,3.48,4.59a9.93,9.93,0,0,0,2.69-.37v3a11.19,11.19,0,0,1-3.44.46c-5.38,0-6.4-3.62-6.4-7.84V28.15h-2.92Z"/><path d="M278.88,47.31h-3.66v-3h-.09A10.48,10.48,0,0,1,267,48.1c-6,0-11.42-4.68-11.42-11.92a11.41,11.41,0,0,1,11.65-11.83,10,10,0,0,1,7.93,3.94h.05v-3.2h3.66Zm-11.36-2.45a8.27,8.27,0,0,0,8-8.54c0-5.29-3.57-8.77-7.93-8.77-5.57,0-8.21,4.36-8.21,8.63S262,44.86,267.52,44.86Z"/></svg>