<?xml version="1.0" encoding="utf-8"?>
<!-- Generator: Adobe Illustrator 25.2.1, SVG Export Plug-In . SVG Version: 6.00 Build 0)  -->
<svg version="1.1" id="Layer_1" xmlns="http://www.w3.org/2000/svg" xmlns:xlink="http://www.w3.org/1999/xlink" x="0px" y="0px"
	 viewBox="0 0 500 140" style="enable-background:new 0 0 500 140;" xml:space="preserve">
<style type="text/css">
	.st0{fill:#EB3323;}
	.st1{fill:#414042;}
</style>
<g>
	<g>
		<polygon class="st0" points="43.04,84.95 70.16,45.55 97.29,84.95 		"/>
		<path class="st0" d="M70.16,15.08c30.78,0,55.73,24.95,55.73,55.73s-24.95,55.73-55.73,55.73c-30.78,0-55.73-24.95-55.73-55.73
			S39.39,15.08,70.16,15.08 M70.16,5.64C34.23,5.64,5,34.87,5,70.8s29.23,65.16,65.16,65.16c35.93,0,65.16-29.23,65.16-65.16
			S106.1,5.64,70.16,5.64L70.16,5.64z"/>
	</g>
	<g>
		<path class="st1" d="M327.81,63.74c-2.67,2.34-5.31,4.66-7.98,7c-0.08-0.09-0.14-0.15-0.2-0.21c-0.69-0.91-1.55-1.64-2.51-2.25
			c-1.5-0.95-3.12-1.6-4.87-1.92c-1.12-0.2-2.24-0.24-3.38-0.13c-1.09,0.1-2.15,0.3-3.17,0.7c-2.21,0.86-4,2.26-5.4,4.16
			c-1.17,1.59-1.96,3.35-2.46,5.26c-0.46,1.78-0.69,3.59-0.62,5.43c0.11,2.8,0.76,5.47,2.14,7.93c1.17,2.08,2.75,3.76,4.82,4.96
			c1.38,0.8,2.87,1.29,4.45,1.48c1.08,0.13,2.17,0.15,3.25,0.05c1.55-0.15,3.04-0.55,4.47-1.16c1.33-0.57,2.52-1.34,3.52-2.39
			c0.16-0.17,0.48-0.52,0.48-0.52l7.36,7.36c0,0-0.21,0.23-0.31,0.33c-1.38,1.4-2.96,2.52-4.71,3.42c-2.09,1.07-4.3,1.8-6.6,2.26
			c-2.29,0.45-4.6,0.61-6.93,0.51c-3.73-0.15-7.31-0.93-10.7-2.51c-5.21-2.44-8.98-6.31-11.35-11.55c-0.9-1.99-1.48-4.07-1.8-6.23
			c-0.25-1.65-0.36-3.31-0.33-4.98c0.06-3.06,0.52-6.04,1.64-8.9c2.49-6.33,6.89-10.81,13.16-13.45c1.93-0.81,3.93-1.36,6-1.68
			c1.99-0.31,4-0.4,6.01-0.27c3.79,0.24,7.38,1.23,10.73,3.02c1.88,1,3.56,2.27,4.97,3.88c0.08,0.09,0.16,0.18,0.23,0.27
			C327.75,63.64,327.76,63.67,327.81,63.74z"/>
		<polygon class="st1" points="211.48,38.76 211.48,28.06 163.54,28.06 163.54,104.67 175.86,104.67 175.86,68.12 203.09,68.12 
			203.09,57.76 175.86,57.76 175.86,38.76 		"/>
		<rect x="265.49" y="28.06" class="st1" width="11.35" height="76.61"/>
		<path class="st1" d="M401.89,97.19c0.02-0.02,0.08,0,0.12,0c0.08,0.16,0.04,0.33,0.04,0.49c0,2.11,0,7,0,7h11.14V57.74h-11.72
			v25.64c0,1.43-0.17,2.84-0.52,4.22c-0.42,1.63-1.07,3.15-2.07,4.51c-1.32,1.79-3.05,3.03-5.17,3.7c-1.57,0.49-3.19,0.54-4.81,0.34
			c-1.63-0.2-3-0.91-4.15-2.07c-1.03-1.03-1.72-2.27-2.19-3.63c-0.43-1.23-0.58-2.51-0.71-3.8c-0.11-1.14-0.13-2.29-0.13-3.43
			c0-0.14,0-25.47,0-25.47h-11.74c0,0,0,27.86,0,29.28c0,2.05,0.23,4.06,0.7,6.05c0.43,1.79,1.05,3.5,1.98,5.09
			c2,3.42,4.89,5.74,8.63,7.01c1.32,0.45,2.68,0.67,4.06,0.78c1.5,0.12,3,0.11,4.5-0.09c1.18-0.16,2.33-0.45,3.45-0.87
			c1.72-0.64,3.24-1.62,4.63-2.8c1.59-1.34,2.9-2.9,3.8-4.78C401.78,97.33,401.83,97.25,401.89,97.19z"/>
		<path class="st1" d="M362.91,56.61c-0.35-0.06-0.7-0.15-1.06-0.17c-1.11-0.05-2.23-0.07-3.34,0.05c-2.25,0.26-4.31,1-6.16,2.29
			c-1.23,0.85-2.32,1.86-3.28,3c-0.9,1.08-1.65,2.25-2.28,3.51c-0.05,0.1-0.08,0.27-0.22,0.25c-0.06-0.01-0.08-0.04-0.1-0.08v-7.73
			h-11.25l0.03,46.92h11.72c0,0-0.03-19.11-0.03-24.71c0-0.36,0.02-0.71,0.04-1.07c0.07-0.97,0.24-1.92,0.48-2.85
			c0.68-2.67,2.04-4.93,4.23-6.65c1.23-0.97,2.58-1.69,4.12-2.04c0.96-0.22,1.93-0.34,2.91-0.38c1.39-0.06,2.76,0.06,4.12,0.39
			c0.09,0.02,0.19,0.04,0.29,0.06V56.67C363.06,56.64,362.99,56.63,362.91,56.61z"/>
		<path class="st1" d="M243.38,97.19c0.02-0.02,0.08,0,0.12,0c0.08,0.16,0.04,0.33,0.04,0.49c0,2.11,0,7,0,7h11.14V57.74h-11.72
			v25.64c0,1.43-0.17,2.84-0.52,4.22c-0.42,1.63-1.07,3.15-2.07,4.51c-1.32,1.79-3.05,3.03-5.17,3.7c-1.57,0.49-3.19,0.54-4.81,0.34
			c-1.63-0.2-3-0.91-4.15-2.07c-1.03-1.03-1.72-2.27-2.19-3.63c-0.43-1.23-0.58-2.51-0.71-3.8c-0.11-1.14-0.13-2.29-0.13-3.43
			c0-0.14,0-25.47,0-25.47h-11.74c0,0,0,27.86,0,29.28c0,2.05,0.23,4.06,0.7,6.05c0.43,1.79,1.05,3.5,1.98,5.09
			c2,3.42,4.89,5.74,8.63,7.01c1.32,0.45,2.68,0.67,4.06,0.78c1.5,0.12,3,0.11,4.5-0.09c1.18-0.16,2.33-0.45,3.45-0.87
			c1.72-0.64,3.24-1.62,4.63-2.8c1.59-1.34,2.9-2.9,3.8-4.78C243.28,97.33,243.33,97.25,243.38,97.19z"/>
		<path class="st1" d="M479.1,67.4c1.07,0.76,1.94,1.71,2.57,2.86c0.64,1.17,1.05,2.42,1.25,3.74c0.25,1.66,0.36,3.34,0.36,5.02
			v25.64h11.72V83.44h0c0-2.72,0-5.44,0-8.16c0-2.08-0.25-4.12-0.75-6.14c-0.44-1.79-1.09-3.49-2.04-5.07
			c-2.17-3.59-5.29-5.93-9.33-7.06c-1.47-0.41-2.98-0.57-4.5-0.61c-1.76-0.04-3.51,0.08-5.23,0.47c-2.66,0.6-5.03,1.78-7.09,3.58
			c-1.42,1.25-2.58,2.71-3.53,4.34c-0.08,0.14-0.17,0.27-0.28,0.46c-0.1-0.19-0.18-0.33-0.25-0.47c-0.91-1.72-2.08-3.25-3.54-4.56
			c-1.62-1.45-3.45-2.53-5.54-3.13c-1.52-0.44-3.08-0.65-4.66-0.69c-1.34-0.03-2.68,0.03-4,0.27c-2.43,0.45-4.64,1.38-6.6,2.88
			c-1.92,1.47-3.46,3.25-4.51,5.44c-0.04,0.08-0.07,0.12-0.12,0.19c-0.02,0.02-0.09,0.05-0.18,0.06v-7.51l-11.16-0.01v21.51v25.42
			h11.72V79.25c0-0.83,0.04-1.66,0.14-2.49c0.17-1.39,0.5-2.75,1.01-4.05c0.52-1.31,1.2-2.52,2.17-3.56c1.24-1.32,2.7-2.28,4.48-2.7
			c1.72-0.41,3.45-0.39,5.17,0.04c1.83,0.45,3.25,1.48,4.25,3.08c0.68,1.08,1.14,2.25,1.41,3.5c0.25,1.14,0.34,2.29,0.34,3.45v28.15
			h11.72V79.48c0-1.12,0.07-2.23,0.25-3.33c0.2-1.22,0.5-2.41,0.99-3.56c0.68-1.59,1.61-3.01,2.93-4.16
			c1.07-0.93,2.26-1.64,3.65-1.97c1.56-0.37,3.12-0.4,4.69-0.1C477.5,66.54,478.35,66.86,479.1,67.4z"/>
	</g>
</g>
</svg>
