<?xml version="1.0" encoding="UTF-8" standalone="no"?>
<svg
   xmlns:dc="http://purl.org/dc/elements/1.1/"
   xmlns:cc="http://creativecommons.org/ns#"
   xmlns:rdf="http://www.w3.org/1999/02/22-rdf-syntax-ns#"
   xmlns:svg="http://www.w3.org/2000/svg"
   xmlns="http://www.w3.org/2000/svg"
   xmlns:sodipodi="http://sodipodi.sourceforge.net/DTD/sodipodi-0.dtd"
   xmlns:inkscape="http://www.inkscape.org/namespaces/inkscape"
   version="1.1"
   id="svg10"
   xml:space="preserve"
   width="347.0332"
   height="127.1352"
   viewBox="0 0 347.0332 127.1352"
   sodipodi:docname="Gaia3D.svg"
   inkscape:version="0.92.5 (2060ec1f9f, 2020-04-08)"><metadata
     id="metadata16"><rdf:RDF><cc:Work
         rdf:about=""><dc:format>image/svg+xml</dc:format><dc:type
           rdf:resource="http://purl.org/dc/dcmitype/StillImage" /><dc:title></dc:title></cc:Work></rdf:RDF></metadata><defs
     id="defs14"><clipPath
       clipPathUnits="userSpaceOnUse"
       id="clipPath26"><path
         d="M 0,198.425 H 425.197 V 0 H 0 Z"
         id="path24"
         inkscape:connector-curvature="0" /></clipPath></defs><sodipodi:namedview
     pagecolor="#ffffff"
     bordercolor="#666666"
     borderopacity="1"
     objecttolerance="10"
     gridtolerance="10"
     guidetolerance="10"
     inkscape:pageopacity="0"
     inkscape:pageshadow="2"
     inkscape:window-width="1920"
     inkscape:window-height="1005"
     id="namedview12"
     showgrid="false"
     inkscape:zoom="0.84985133"
     inkscape:cx="-81.900851"
     inkscape:cy="-68.113773"
     inkscape:window-x="0"
     inkscape:window-y="0"
     inkscape:window-maximized="1"
     inkscape:current-layer="g20"
     fit-margin-top="0"
     fit-margin-left="0"
     fit-margin-right="0"
     fit-margin-bottom="0" /><g
     id="g18"
     inkscape:groupmode="layer"
     inkscape:label="Gaia3D_logo_C"
     transform="matrix(1.3333333,0,0,-1.3333333,-101.1972,232.24479)"><g
       id="g20"><g
         id="g22"
         clip-path="url(#clipPath26)"><g
           id="g28"
           transform="translate(177.7163,41.0225)" /><g
           id="g32"
           transform="translate(198.709,28.9873)" /><g
           id="g36"
           transform="translate(224.9277,40.998)" /><g
           id="g40"
           transform="translate(236.5225,38.8359)" /><g
           id="g44"
           transform="translate(269.5635,28.9873)" /><g
           id="g48"
           transform="translate(293.1826,28.9873)" /><g
           id="g52"
           transform="translate(302.8564,27.9316)" /><g
           id="g56"
           transform="translate(308.9365,41.876)" /><g
           id="g60"
           transform="translate(331.6748,28.1582)" /><g
           id="g64"
           transform="translate(163.0405,92.1191)"><path
             d="M 0,0 H -3.322 V 1.199 H 4.765 V 0 H 1.426 V -9.723 H 0 Z"
             style="fill:#595a5c;fill-opacity:1;fill-rule:nonzero;stroke:none"
             id="path66"
             inkscape:connector-curvature="0" /></g><g
           id="g68"
           transform="translate(168.8608,93.9023)"><path
             d="m 0,0 h 1.427 v -4.91 h 0.032 c 0.227,0.404 0.583,0.777 1.02,1.021 0.422,0.243 0.924,0.389 1.459,0.389 1.053,0 2.739,-0.648 2.739,-3.338 v -4.668 H 5.251 V -7 c 0,1.264 -0.471,2.316 -1.815,2.316 -0.924,0 -1.637,-0.648 -1.913,-1.41 -0.081,-0.209 -0.096,-0.42 -0.096,-0.679 v -4.733 H 0 Z"
             style="fill:#595a5c;fill-opacity:1;fill-rule:nonzero;stroke:none"
             id="path70"
             inkscape:connector-curvature="0" /></g><g
           id="g72"
           transform="translate(182.8335,87.0801)"><path
             d="M 0,0 C 0.016,0.891 -0.373,2.301 -1.978,2.301 -3.436,2.301 -4.052,0.988 -4.165,0 Z m -4.182,-1.021 c 0.034,-1.928 1.248,-2.723 2.691,-2.723 1.02,0 1.653,0.18 2.172,0.406 l 0.258,-1.021 c -0.501,-0.227 -1.377,-0.502 -2.625,-0.502 -2.415,0 -3.856,1.603 -3.856,3.97 0,2.366 1.394,4.213 3.678,4.213 2.577,0 3.241,-2.236 3.241,-3.677 0,-0.293 -0.017,-0.504 -0.049,-0.666 z"
             style="fill:#595a5c;fill-opacity:1;fill-rule:nonzero;stroke:none"
             id="path74"
             inkscape:connector-curvature="0" /></g><g
           id="g76"
           transform="translate(197.7939,82.8828)"><path
             d="m 0,0 c -0.631,-0.242 -1.895,-0.6 -3.369,-0.6 -1.654,0 -3.016,0.422 -4.085,1.444 -0.939,0.906 -1.523,2.365 -1.523,4.066 0,3.258 2.253,5.639 5.914,5.639 1.264,0 2.27,-0.276 2.739,-0.502 L -0.68,8.896 c -0.584,0.276 -1.312,0.471 -2.414,0.471 -2.658,0 -4.392,-1.654 -4.392,-4.392 0,-2.77 1.654,-4.407 4.213,-4.407 0.923,0 1.556,0.129 1.88,0.291 V 4.117 H -3.596 V 5.25 H 0 Z"
             style="fill:#595a5c;fill-opacity:1;fill-rule:nonzero;stroke:none"
             id="path78"
             inkscape:connector-curvature="0" /></g><g
           id="g80"
           transform="translate(204.9463,87.0801)"><path
             d="M 0,0 C 0.016,0.891 -0.373,2.301 -1.979,2.301 -3.436,2.301 -4.053,0.988 -4.166,0 Z m -4.182,-1.021 c 0.034,-1.928 1.248,-2.723 2.69,-2.723 1.021,0 1.654,0.18 2.172,0.406 l 0.259,-1.021 c -0.501,-0.227 -1.377,-0.502 -2.625,-0.502 -2.416,0 -3.857,1.603 -3.857,3.97 0,2.366 1.395,4.213 3.678,4.213 2.578,0 3.242,-2.236 3.242,-3.677 0,-0.293 -0.016,-0.504 -0.049,-0.666 z"
             style="fill:#595a5c;fill-opacity:1;fill-rule:nonzero;stroke:none"
             id="path82"
             inkscape:connector-curvature="0" /></g><g
           id="g84"
           transform="translate(208.9834,86.3027)"><path
             d="m 0,0 c 0,-1.719 0.973,-3.014 2.367,-3.014 1.362,0 2.381,1.28 2.381,3.045 0,1.33 -0.664,2.998 -2.35,2.998 C 0.73,3.029 0,1.475 0,0 m 6.207,0.08 c 0,-2.9 -2.025,-4.164 -3.906,-4.164 -2.106,0 -3.758,1.555 -3.758,4.035 0,2.61 1.732,4.149 3.889,4.149 2.252,0 3.775,-1.637 3.775,-4.02"
             style="fill:#595a5c;fill-opacity:1;fill-rule:nonzero;stroke:none"
             id="path86"
             inkscape:connector-curvature="0" /></g><g
           id="g88"
           transform="translate(216.8643,84.1152)"><path
             d="m 0,0 c 0.631,-0.406 1.539,-0.713 2.512,-0.713 1.441,0 2.283,0.762 2.283,1.863 0,1.004 -0.582,1.604 -2.057,2.155 -1.783,0.648 -2.884,1.588 -2.884,3.111 0,1.701 1.41,2.967 3.533,2.967 1.101,0 1.927,-0.26 2.398,-0.535 L 5.395,7.697 C 5.055,7.908 4.326,8.215 3.338,8.215 1.846,8.215 1.279,7.324 1.279,6.578 1.279,5.559 1.943,5.055 3.451,4.473 5.299,3.76 6.223,2.867 6.223,1.264 c 0,-1.686 -1.233,-3.16 -3.809,-3.16 -1.055,0 -2.205,0.324 -2.787,0.712 z"
             style="fill:#595a5c;fill-opacity:1;fill-rule:nonzero;stroke:none"
             id="path90"
             inkscape:connector-curvature="0" /></g><g
           id="g92"
           transform="translate(226.3955,85.5898)"><path
             d="m 0,0 c 0,-0.211 0.016,-0.406 0.064,-0.584 0.26,-0.988 1.118,-1.67 2.139,-1.67 1.508,0 2.383,1.233 2.383,3.031 0,1.555 -0.826,2.901 -2.334,2.901 -0.973,0 -1.897,-0.68 -2.154,-1.75 C 0.049,1.75 0,1.539 0,1.361 Z m -1.41,2.09 c 0,1.004 -0.033,1.814 -0.065,2.56 h 1.264 l 0.08,-1.345 h 0.033 c 0.567,0.957 1.508,1.508 2.787,1.508 1.913,0 3.338,-1.604 3.338,-3.971 0,-2.819 -1.734,-4.213 -3.58,-4.213 -1.037,0 -1.945,0.453 -2.416,1.232 H 0 v -4.263 h -1.41 z"
             style="fill:#595a5c;fill-opacity:1;fill-rule:nonzero;stroke:none"
             id="path94"
             inkscape:connector-curvature="0" /></g><g
           id="g96"
           transform="translate(238.3408,86.4004)"><path
             d="m 0,0 c -1.555,0.031 -3.322,-0.244 -3.322,-1.768 0,-0.939 0.617,-1.361 1.33,-1.361 1.037,0 1.701,0.649 1.928,1.313 C -0.016,-1.654 0,-1.492 0,-1.361 Z m 1.377,-2.123 c 0,-0.682 0.033,-1.346 0.113,-1.881 H 0.211 L 0.098,-3.016 H 0.049 c -0.438,-0.615 -1.279,-1.166 -2.399,-1.166 -1.588,0 -2.398,1.118 -2.398,2.252 0,1.897 1.685,2.934 4.717,2.918 V 1.15 c 0,0.631 -0.18,1.815 -1.783,1.799 -0.747,0 -1.508,-0.211 -2.059,-0.584 L -4.197,3.32 c 0.648,0.407 1.605,0.682 2.593,0.682 2.399,0 2.981,-1.637 2.981,-3.193 z"
             style="fill:#595a5c;fill-opacity:1;fill-rule:nonzero;stroke:none"
             id="path98"
             inkscape:connector-curvature="0" /></g><g
           id="g100"
           transform="translate(243.6748,92.1191)"><path
             d="M 0,0 V -1.879 H 2.041 V -2.965 H 0 v -4.228 c 0,-0.973 0.275,-1.524 1.068,-1.524 0.391,0 0.618,0.031 0.828,0.096 L 1.961,-9.705 C 1.686,-9.803 1.248,-9.9 0.697,-9.9 c -0.666,0 -1.199,0.226 -1.541,0.599 -0.388,0.438 -0.551,1.135 -0.551,2.059 v 4.277 h -1.214 v 1.086 h 1.214 v 1.459 z"
             style="fill:#595a5c;fill-opacity:1;fill-rule:nonzero;stroke:none"
             id="path102"
             inkscape:connector-curvature="0" /></g><path
           d="m 247.323,90.24 h 1.426 v -7.844 h -1.426 z m 1.588,2.203 c 0,-0.486 -0.34,-0.875 -0.908,-0.875 -0.518,0 -0.857,0.389 -0.857,0.875 0,0.487 0.355,0.893 0.89,0.893 0.518,0 0.875,-0.389 0.875,-0.893"
           style="fill:#595a5c;fill-opacity:1;fill-rule:nonzero;stroke:none"
           id="path104"
           inkscape:connector-curvature="0" /><g
           id="g106"
           transform="translate(255.249,86.4004)"><path
             d="m 0,0 c -1.557,0.031 -3.322,-0.244 -3.322,-1.768 0,-0.939 0.615,-1.361 1.328,-1.361 1.037,0 1.701,0.649 1.928,1.313 C -0.018,-1.654 0,-1.492 0,-1.361 Z m 1.377,-2.123 c 0,-0.682 0.031,-1.346 0.113,-1.881 H 0.209 L 0.096,-3.016 H 0.049 c -0.438,-0.615 -1.281,-1.166 -2.399,-1.166 -1.589,0 -2.398,1.118 -2.398,2.252 0,1.897 1.685,2.934 4.715,2.918 V 1.15 c 0,0.631 -0.178,1.815 -1.783,1.799 -0.745,0 -1.506,-0.211 -2.057,-0.584 L -4.197,3.32 c 0.648,0.407 1.603,0.682 2.592,0.682 2.398,0 2.982,-1.637 2.982,-3.193 z"
             style="fill:#595a5c;fill-opacity:1;fill-rule:nonzero;stroke:none"
             id="path108"
             inkscape:connector-curvature="0" /></g><path
           d="m 258.929,93.902 h 1.428 V 82.396 h -1.428 z"
           style="fill:#595a5c;fill-opacity:1;fill-rule:nonzero;stroke:none"
           id="path110"
           inkscape:connector-curvature="0" /><g
           id="g112"
           transform="translate(273.8564,82.7363)"><path
             d="m 0,0 c -0.502,-0.258 -1.555,-0.518 -2.883,-0.518 -3.08,0 -5.381,1.946 -5.381,5.543 0,3.434 2.317,5.737 5.703,5.737 1.346,0 2.221,-0.293 2.594,-0.487 l -0.357,-1.15 c -0.518,0.258 -1.28,0.453 -2.188,0.453 -2.56,0 -4.261,-1.637 -4.261,-4.506 0,-2.689 1.539,-4.39 4.181,-4.39 0.875,0 1.75,0.177 2.317,0.453 z"
             style="fill:#595a5c;fill-opacity:1;fill-rule:nonzero;stroke:none"
             id="path114"
             inkscape:connector-curvature="0" /></g><g
           id="g116"
           transform="translate(276.3076,86.3027)"><path
             d="m 0,0 c 0,-1.719 0.973,-3.014 2.367,-3.014 1.362,0 2.381,1.28 2.381,3.045 0,1.33 -0.664,2.998 -2.35,2.998 C 0.73,3.029 0,1.475 0,0 m 6.207,0.08 c 0,-2.9 -2.025,-4.164 -3.906,-4.164 -2.106,0 -3.758,1.555 -3.758,4.035 0,2.61 1.732,4.149 3.889,4.149 2.252,0 3.775,-1.637 3.775,-4.02"
             style="fill:#595a5c;fill-opacity:1;fill-rule:nonzero;stroke:none"
             id="path118"
             inkscape:connector-curvature="0" /></g><g
           id="g120"
           transform="translate(284.3174,88.1172)"><path
             d="M 0,0 C 0,0.826 -0.033,1.475 -0.064,2.123 H 1.184 L 1.248,0.842 h 0.049 c 0.437,0.746 1.166,1.443 2.478,1.443 1.053,0 1.864,-0.648 2.204,-1.572 h 0.033 c 0.244,0.453 0.566,0.777 0.89,1.021 0.471,0.356 0.973,0.551 1.719,0.551 1.053,0 2.592,-0.681 2.592,-3.402 V -5.721 H 9.82 v 4.424 C 9.82,0.227 9.252,1.119 8.119,1.119 7.293,1.119 6.676,0.52 6.416,-0.162 6.352,-0.373 6.303,-0.615 6.303,-0.875 V -5.721 H 4.91 v 4.7 c 0,1.248 -0.551,2.14 -1.637,2.14 C 2.398,1.119 1.734,0.404 1.508,-0.309 1.426,-0.502 1.393,-0.762 1.393,-1.004 V -5.721 H 0 Z"
             style="fill:#595a5c;fill-opacity:1;fill-rule:nonzero;stroke:none"
             id="path122"
             inkscape:connector-curvature="0" /></g><g
           id="g124"
           transform="translate(299.2471,85.5898)"><path
             d="m 0,0 c 0,-0.211 0.018,-0.406 0.064,-0.584 0.26,-0.988 1.12,-1.67 2.141,-1.67 1.506,0 2.381,1.233 2.381,3.031 0,1.555 -0.826,2.901 -2.332,2.901 -0.973,0 -1.897,-0.68 -2.156,-1.75 C 0.049,1.75 0,1.539 0,1.361 Z m -1.41,2.09 c 0,1.004 -0.031,1.814 -0.065,2.56 h 1.264 l 0.082,-1.345 h 0.031 c 0.569,0.957 1.508,1.508 2.789,1.508 1.913,0 3.338,-1.604 3.338,-3.971 0,-2.819 -1.734,-4.213 -3.582,-4.213 -1.037,0 -1.945,0.453 -2.414,1.232 H 0 v -4.263 h -1.41 z"
             style="fill:#595a5c;fill-opacity:1;fill-rule:nonzero;stroke:none"
             id="path126"
             inkscape:connector-curvature="0" /></g><g
           id="g128"
           transform="translate(311.1943,86.4004)"><path
             d="m 0,0 c -1.557,0.031 -3.322,-0.244 -3.322,-1.768 0,-0.939 0.615,-1.361 1.328,-1.361 1.037,0 1.701,0.649 1.928,1.313 C -0.018,-1.654 0,-1.492 0,-1.361 Z m 1.377,-2.123 c 0,-0.682 0.031,-1.346 0.113,-1.881 H 0.209 L 0.096,-3.016 H 0.049 c -0.438,-0.615 -1.281,-1.166 -2.399,-1.166 -1.589,0 -2.398,1.118 -2.398,2.252 0,1.897 1.685,2.934 4.715,2.918 V 1.15 c 0,0.631 -0.178,1.815 -1.783,1.799 -0.745,0 -1.506,-0.211 -2.057,-0.584 L -4.197,3.32 c 0.648,0.407 1.603,0.682 2.592,0.682 2.398,0 2.982,-1.637 2.982,-3.193 z"
             style="fill:#595a5c;fill-opacity:1;fill-rule:nonzero;stroke:none"
             id="path130"
             inkscape:connector-curvature="0" /></g><g
           id="g132"
           transform="translate(314.874,88.1172)"><path
             d="M 0,0 C 0,0.826 -0.016,1.475 -0.064,2.123 H 1.199 L 1.281,0.826 h 0.032 c 0.39,0.731 1.296,1.459 2.593,1.459 1.086,0 2.772,-0.648 2.772,-3.338 V -5.721 H 5.252 v 4.522 C 5.252,0.064 4.781,1.119 3.436,1.119 2.512,1.119 1.783,0.453 1.523,-0.34 1.459,-0.518 1.428,-0.762 1.428,-1.004 V -5.721 H 0 Z"
             style="fill:#595a5c;fill-opacity:1;fill-rule:nonzero;stroke:none"
             id="path134"
             inkscape:connector-curvature="0" /></g><g
           id="g136"
           transform="translate(324.1787,90.2402)"><path
             d="M 0,0 1.703,-4.635 C 1.896,-5.152 2.092,-5.77 2.221,-6.238 h 0.033 c 0.144,0.468 0.307,1.068 0.502,1.636 L 4.311,0 H 5.818 L 3.68,-5.59 C 2.658,-8.281 1.961,-9.643 0.99,-10.5 c -0.715,-0.6 -1.394,-0.844 -1.752,-0.908 l -0.355,1.183 c 0.355,0.114 0.826,0.34 1.248,0.696 0.389,0.308 0.859,0.859 1.199,1.588 0.065,0.146 0.113,0.259 0.113,0.341 0,0.08 -0.033,0.194 -0.113,0.373 L -1.555,0 Z"
             style="fill:#595a5c;fill-opacity:1;fill-rule:nonzero;stroke:none"
             id="path138"
             inkscape:connector-curvature="0" /></g><g
           id="g140"
           transform="translate(135.5439,113.8506)"><path
             d="m 0,0 c -6.38,-4.993 -12.77,-7.488 -19.153,-7.488 -7.824,0 -14.638,2.763 -20.438,8.299 -5.801,5.528 -8.701,12.206 -8.701,20.029 0,7.824 2.9,14.502 8.701,20.036 5.8,5.529 12.614,8.293 20.438,8.293 6.383,0 12.048,-1.773 17,-5.313 C 2.79,40.31 6.162,35.614 7.96,29.77 h -9.714 c -1.437,2.874 -3.642,5.439 -6.605,7.69 -2.97,2.248 -6.567,3.369 -10.794,3.369 -5.576,0 -10.211,-2.026 -13.893,-6.08 -3.689,-4.053 -5.532,-8.69 -5.532,-13.909 0,-5.31 1.843,-9.971 5.532,-13.979 3.682,-4.008 8.317,-6.009 13.893,-6.009 5.127,0 9.217,1.547 12.273,4.641 3.062,3.1 5.177,6.339 6.342,9.718 h -21.449 v 8.337 H 9.04 C 9.401,12.842 6.39,4.993 0,0 m -19.564,60.333 c -22.136,0 -40.082,-17.946 -40.082,-40.085 0,-22.139 17.946,-40.085 40.082,-40.085 22.138,0 40.088,17.946 40.088,40.085 0,22.139 -17.95,40.085 -40.088,40.085"
             style="fill:#0d6caf;fill-opacity:1;fill-rule:nonzero;stroke:none"
             id="path142"
             inkscape:connector-curvature="0" /></g><g
           id="g144"
           transform="translate(193.5469,126.7275)"><path
             d="m 0,0 c -0.832,-3.464 -2.947,-6.579 -6.36,-9.328 -3.411,-2.723 -6.83,-4.088 -10.241,-4.088 -3.805,0 -6.718,1.34 -8.739,4.019 -1.997,2.709 -2.494,5.997 -1.487,9.85 0.949,3.66 3.118,6.791 6.5,9.395 3.315,2.545 6.792,3.818 10.432,3.818 3.477,0 6.201,-1.292 8.189,-3.886 C 0.339,7.048 0.912,3.793 0,0 m 3.037,13.149 c -1.406,1.993 -3.338,3.487 -5.785,4.5 -2.058,0.838 -4.195,1.263 -6.421,1.263 -2.736,0 -5.26,-0.421 -7.564,-1.26 -2.318,-0.845 -4.604,-2.172 -6.877,-3.986 -2.24,-1.821 -4.073,-3.818 -5.503,-5.997 -1.501,-2.271 -2.594,-4.699 -3.281,-7.276 -1.444,-5.472 -0.848,-10.009 1.792,-13.609 2.66,-3.622 6.811,-5.439 12.437,-5.439 2.369,0 4.592,0.35 6.652,1.063 2.822,0.931 5.564,2.565 8.23,4.899 l -1.26,-5.235 H 0.928 L 9.411,17.899 H 4.18 Z"
             style="fill:#0d6caf;fill-opacity:1;fill-rule:nonzero;stroke:none"
             id="path146"
             inkscape:connector-curvature="0" /></g><g
           id="g148"
           transform="translate(201.5674,108.7686)"><path
             d="m 0,0 h 5.199 l 8.084,35.829 H 8.214 Z"
             style="fill:#0d6caf;fill-opacity:1;fill-rule:nonzero;stroke:none"
             id="path150"
             inkscape:connector-curvature="0" /></g><g
           id="g152"
           transform="translate(211.2529,151)"><path
             d="M 0,0 H 5.041 L 6.206,5.162 H 1.185 Z"
             style="fill:#0d6caf;fill-opacity:1;fill-rule:nonzero;stroke:none"
             id="path154"
             inkscape:connector-curvature="0" /></g><g
           id="g156"
           transform="translate(248.6943,126.7275)"><path
             d="m 0,0 c -0.681,-3.464 -2.659,-6.579 -5.946,-9.328 -3.293,-2.723 -6.65,-4.088 -10.059,-4.088 -3.807,0 -6.776,1.34 -8.913,4.019 -2.128,2.709 -2.765,5.997 -1.938,9.85 0.792,3.66 2.824,6.791 6.085,9.395 3.205,2.545 6.625,3.818 10.265,3.818 3.474,0 6.26,-1.292 8.36,-3.886 C 0.025,7.048 0.741,3.793 0,0 m 2.448,13.149 c -1.495,1.993 -3.489,3.487 -5.984,4.5 -2.1,0.838 -4.256,1.263 -6.476,1.263 -2.738,0 -5.243,-0.421 -7.513,-1.26 -2.277,-0.845 -4.506,-2.172 -6.697,-3.986 -2.153,-1.821 -3.897,-3.818 -5.237,-5.997 -1.399,-2.271 -2.384,-4.699 -2.951,-7.276 -1.196,-5.472 -0.408,-10.009 2.393,-13.609 2.826,-3.622 7.055,-5.439 12.679,-5.439 2.371,0 4.578,0.35 6.61,1.063 2.778,0.931 5.447,2.565 8.008,4.899 l -1.022,-5.235 h 5.468 l 6.88,35.827 H 3.382 Z"
             style="fill:#0d6caf;fill-opacity:1;fill-rule:nonzero;stroke:none"
             id="path158"
             inkscape:connector-curvature="0" /></g><g
           id="g160"
           transform="translate(274.2334,146.1055)"><path
             d="m 0,0 h -8.175 c 0.472,3.863 1.986,6.931 4.537,9.207 2.556,2.273 5.678,3.41 9.369,3.41 2.296,0 4.367,-0.519 6.212,-1.56 1.843,-1.042 3.319,-2.514 4.427,-4.427 1.102,-1.909 1.659,-3.882 1.659,-5.921 0,-2.061 -0.607,-4.068 -1.824,-6.022 -1.209,-1.951 -3.052,-3.679 -5.516,-5.18 4.269,-2.615 6.407,-6.267 6.407,-10.946 0,-4.309 -1.58,-8.001 -4.735,-11.073 -3.153,-3.071 -6.997,-4.603 -11.521,-4.603 -4.123,0 -7.527,1.43 -10.221,4.284 -2.695,2.855 -4.037,6.64 -4.037,11.363 h 8.365 c 0.238,-2.406 0.804,-4.154 1.71,-5.25 1.241,-1.478 2.871,-2.216 4.889,-2.216 2.124,0 3.808,0.791 5.053,2.378 1.245,1.589 1.868,3.477 1.868,5.664 0,1.248 -0.339,2.411 -1.016,3.496 -0.675,1.083 -1.567,1.91 -2.67,2.476 -1.104,0.57 -2.796,0.918 -5.069,1.048 l 1.061,7.4 c 2.723,0 4.8,0.62 6.228,1.856 1.428,1.231 2.141,2.792 2.141,4.679 0,1.292 -0.403,2.339 -1.206,3.157 C 7.131,4.033 6.118,4.445 4.896,4.445 3.648,4.445 2.584,4.056 1.691,3.283 0.799,2.511 0.234,1.418 0,0"
             style="fill:#0d6caf;fill-opacity:1;fill-rule:nonzero;stroke:none"
             id="path162"
             inkscape:connector-curvature="0" /></g><g
           id="g164"
           transform="translate(309.1768,149.1953)"><path
             d="m 0,0 -4.167,-30.738 h 2.923 c 4.503,0 7.761,0.374 9.774,1.124 2.831,1.073 5.101,2.907 6.818,5.507 1.713,2.595 2.574,5.803 2.574,9.625 0,3.131 -0.609,5.756 -1.812,7.868 -1.203,2.112 -2.906,3.746 -5.104,4.891 C 8.809,-0.572 5.89,0 2.242,0 Z m -7.802,8.337 h 7.505 c 7.035,0 12.266,-0.833 15.698,-2.495 3.432,-1.662 6.222,-4.275 8.371,-7.836 2.151,-3.563 3.224,-7.672 3.224,-12.33 0,-4.784 -1.14,-9.182 -3.429,-13.181 -2.283,-4.003 -5.165,-6.919 -8.641,-8.755 -3.477,-1.834 -8.305,-2.752 -14.486,-2.752 h -14.711 z"
             style="fill:#0d6caf;fill-opacity:1;fill-rule:nonzero;stroke:none"
             id="path166"
             inkscape:connector-curvature="0" /></g></g></g></g></svg>