<?xml version="1.0" encoding="utf-8"?>
<!-- Generator: Adobe Illustrator 19.0.0, SVG Export Plug-In . SVG Version: 6.00 Build 0)  -->
<svg version="1.1" id="GoogleLogo_x5F_FullColor_x5F_rgb_21_"
	 xmlns="http://www.w3.org/2000/svg" xmlns:xlink="http://www.w3.org/1999/xlink" x="0px" y="0px" width="207.15px"
	 height="67.64px" viewBox="0 0 207.15 67.64" enable-background="new 0 0 207.15 67.64" xml:space="preserve">
<g id="_x32_08x68px">
	<path fill="#4285F4" d="M26.62,52.48C12.16,52.48,0,40.7,0,26.24C0,11.77,12.16,0,26.62,0c8,0,13.69,3.14,17.98,7.23l-5.06,5.06
		c-3.07-2.88-7.23-5.12-12.93-5.12c-10.56,0-18.81,8.51-18.81,19.07c0,10.56,8.25,19.07,18.81,19.07c6.85,0,10.75-2.75,13.25-5.25
		c2.05-2.05,3.39-4.99,3.9-9.02H26.62v-7.17h24.13c0.26,1.28,0.38,2.82,0.38,4.48c0,5.38-1.47,12.03-6.21,16.77
		C40.32,49.92,34.43,52.48,26.62,52.48z"/>
	<path fill="#E94235" d="M87.52,35.58c0,9.73-7.62,16.89-16.96,16.89c-9.34,0-16.96-7.17-16.96-16.89c0-9.79,7.62-16.89,16.96-16.89
		C79.91,18.69,87.52,25.79,87.52,35.58z M80.1,35.58c0-6.08-4.42-10.24-9.54-10.24c-5.12,0-9.54,4.16-9.54,10.24
		c0,6.02,4.42,10.24,9.54,10.24C75.69,45.82,80.1,41.6,80.1,35.58z"/>
	<path fill="#FABB05" d="M124.52,35.58c0,9.73-7.62,16.89-16.96,16.89c-9.34,0-16.96-7.17-16.96-16.89
		c0-9.79,7.62-16.89,16.96-16.89C116.91,18.69,124.52,25.79,124.52,35.58z M117.1,35.58c0-6.08-4.42-10.24-9.54-10.24
		c-5.12,0-9.54,4.16-9.54,10.24c0,6.02,4.42,10.24,9.54,10.24C112.69,45.82,117.1,41.6,117.1,35.58z"/>
	<path fill="#4285F4" d="M160.08,19.71v30.33c0,12.48-7.36,17.6-16.06,17.6c-8.19,0-13.12-5.5-14.97-9.98l6.46-2.69
		c1.15,2.75,3.97,6.02,8.51,6.02c5.57,0,9.02-3.46,9.02-9.92v-2.43h-0.26c-1.66,2.05-4.86,3.84-8.9,3.84
		c-8.45,0-16.19-7.36-16.19-16.83c0-9.54,7.74-16.96,16.19-16.96c4.03,0,7.23,1.79,8.9,3.78h0.26v-2.75H160.08z M153.55,35.65
		c0-5.95-3.97-10.3-9.02-10.3c-5.12,0-9.41,4.35-9.41,10.3c0,5.89,4.29,10.17,9.41,10.17C149.58,45.82,153.55,41.53,153.55,35.65z"
		/>
	<path fill="#34A853" d="M172.53,1.92v49.66h-7.42V1.92H172.53z"/>
	<path fill="#E94235" d="M201.08,41.15l5.76,3.84c-1.86,2.75-6.34,7.49-14.08,7.49c-9.6,0-16.77-7.42-16.77-16.89
		c0-10.05,7.23-16.89,15.93-16.89c8.77,0,13.05,6.98,14.46,10.75l0.77,1.92l-22.59,9.34c1.73,3.39,4.42,5.12,8.19,5.12
		S199.16,43.96,201.08,41.15z M183.35,35.07l15.1-6.27c-0.83-2.11-3.33-3.58-6.27-3.58C188.4,25.21,183.16,28.54,183.35,35.07z"/>
</g>
</svg>
