<?xml version="1.0" encoding="utf-8"?>
<!-- Generator: Adobe Illustrator 22.1.0, SVG Export Plug-In . SVG Version: 6.00 Build 0)  -->
<svg version="1.1" id="Layer_1" xmlns="http://www.w3.org/2000/svg" xmlns:xlink="http://www.w3.org/1999/xlink" x="0px" y="0px"
	 viewBox="0 0 514.6 116.3" style="enable-background:new 0 0 514.6 116.3;" xml:space="preserve">
<style type="text/css">
	.st0{fill:#373A3B;}
	.st1{fill:#0BBBEF;}
</style>
<g>
	<g>
		<path class="st0" d="M9.1,44.5c0-5.2,0-10.3-0.1-15.5h15.9c0.2,1.5,0.6,4.9,0.7,7.2c3-4.4,7.9-8.6,16.7-8.6
			c8.6,0,13.3,4.5,15.4,9.2c3.6-4.9,8.7-9.2,18.6-9.2c10.4,0,19,6.5,19,22V89H79V51.6c0-5.5-2-10.8-8.8-10.8c-7,0-9.7,4.6-9.7,13.8
			V89H44.1V52.2c0-6.1-1.5-11.3-8.6-11.3c-6.7,0-10,4.2-10,14.5V89H9.1V44.5z"/>
		<path class="st0" d="M155.8,73.5c0,5.8,0.5,14.2,0.8,15.5h-15.9c-0.5-1.2-0.8-4.4-0.8-5.9c-2.2,3.4-6.3,7.3-16.9,7.3
			c-14.5,0-20.5-9.5-20.5-18.8c0-13.7,10.9-20.1,28.5-20.1h8.6v-3.6c0-4.3-1.5-8.5-9.3-8.5c-7,0-8.6,2.9-9.3,7.3h-15.8
			c0.8-10.7,7.4-19.3,25.8-19.3c16,0.1,24.8,6.4,24.8,20.8V73.5z M139.6,61.6h-6.7c-10.1,0-13.8,3.1-13.8,8.9c0,4.3,2.7,8,8.7,8
			c10.6,0,11.8-7.4,11.8-15.3V61.6z"/>
		<path class="st0" d="M184,54.3c4.4-6,12.3-15.3,20.6-25.4h19l-20.9,22.7L225.6,89h-18.8l-15.2-26.7l-7.7,7.4V89h-16.7V4.3H184
			V54.3z"/>
		<path class="st0" d="M240.1,62.6c0,7.5,3.8,14.8,12.1,14.8c7,0,8.9-2.8,10.6-6.4h16.6c-2.1,7.3-8.7,19.4-27.5,19.4
			c-19.8,0-28.4-14.7-28.4-30.5c0-18.9,9.6-32.4,29-32.4c20.5,0,27.6,15,27.6,29.9c0,2.1,0,3.4-0.2,5.1H240.1z M263.3,52.3
			c-0.1-7-2.9-12.9-11-12.9c-7.9,0-11.1,5.5-11.8,12.9H263.3z"/>
	</g>
	<g>
		<path class="st1" d="M288.2,112V43.4c0-4.9,0-9.6-0.1-14.5h16.1c0.2,1.6,0.6,5.3,0.6,7.5c2.6-4.4,7.9-8.9,17.4-8.9
			c13.6,0,23.9,11.4,23.9,29.9c0,21.2-11.6,32.9-26.1,32.9c-8.5,0-12.9-3.2-15.2-6.7V112H288.2z M316.8,40.9
			c-9.4,0-12.8,6.1-12.8,18.2c0,11.5,3.1,18.1,12.1,18.1c8.8,0,13.1-6.8,13.1-19C329.2,47.1,324.8,40.9,316.8,40.9z"/>
		<path class="st1" d="M403.6,73.5c0,5.8,0.5,14.2,0.8,15.5h-15.9c-0.5-1.2-0.8-4.4-0.8-5.9c-2.2,3.4-6.3,7.3-16.9,7.3
			c-14.5,0-20.5-9.5-20.5-18.8c0-13.7,10.9-20.1,28.5-20.1h8.6v-3.6c0-4.3-1.5-8.5-9.3-8.5c-7,0-8.6,2.9-9.3,7.3H353
			c0.8-10.7,7.4-19.3,25.8-19.3c16,0.1,24.8,6.4,24.8,20.8V73.5z M387.3,61.6h-6.7c-10.1,0-13.8,3.1-13.8,8.9c0,4.3,2.7,8,8.7,8
			c10.6,0,11.8-7.4,11.8-15.3V61.6z"/>
		<path class="st1" d="M408.1,28.9h9.3V12.7H434v16.2h11.8v12.5H434v29.7c0,4.5,1.4,6.3,6.4,6.3c0.9,0,2.6,0,3.7-0.1v11.4
			c-3.2,1.2-7.8,1.2-11.1,1.2c-11.7,0-15.5-6.3-15.5-16.8V41.4h-9.3V28.9z"/>
		<path class="st1" d="M468.4,4.3v31.8c2.6-3.9,7.4-8.6,17.2-8.6c11.1,0,20.1,6.7,20.1,23V89h-16.5V52.9c0-7.8-2.8-11.9-9.7-11.9
			c-9.3,0-11,7-11,16.1V89h-16.7V4.3H468.4z"/>
	</g>
</g>
</svg>
