<?xml version="1.0" encoding="UTF-8" standalone="no"?>
<svg
   xmlns:dc="http://purl.org/dc/elements/1.1/"
   xmlns:cc="http://creativecommons.org/ns#"
   xmlns:rdf="http://www.w3.org/1999/02/22-rdf-syntax-ns#"
   xmlns:svg="http://www.w3.org/2000/svg"
   xmlns="http://www.w3.org/2000/svg"
   xml:space="preserve"
   enable-background="new 0 0 722.569 346.291"
   viewBox="0 0 171.97599 167.985"
   height="179.18399"
   width="183.44106"
   y="0px"
   x="0px"
   id="Layer_1"
   version="1.1"><metadata
     id="metadata46"><rdf:RDF><cc:Work
         rdf:about=""><dc:format>image/svg+xml</dc:format><dc:type
           rdf:resource="http://purl.org/dc/dcmitype/StillImage" /><dc:title></dc:title></cc:Work></rdf:RDF></metadata><defs
     id="defs44"><linearGradient
       y2="102.9362"
       x2="186.5125"
       y1="250.2354"
       x1="188.7529"
       gradientUnits="userSpaceOnUse"
       id="SVGID_5_-7"
       gradientTransform="translate(0,-4.8925781e-6)"><stop
         id="stop36-9"
         style="stop-color:#589632"
         offset="0" /><stop
         id="stop38-0"
         style="stop-color:#93B023"
         offset="1" /></linearGradient><linearGradient
       y2="101.4977"
       x2="232.211"
       y1="250.03419"
       x1="234.4702"
       gradientUnits="userSpaceOnUse"
       id="linearGradient4250"><stop
         id="stop27-0"
         style="stop-color:#589632"
         offset="0" /><stop
         id="stop29-2"
         style="stop-color:#93B023"
         offset="1" /></linearGradient><linearGradient
       y2="100.4837"
       x2="347.78201"
       y1="247.7832"
       x1="350.02249"
       gradientUnits="userSpaceOnUse"
       id="SVGID_1_-2"><stop
         id="stop6-6"
         style="stop-color:#589632"
         offset="0" /><stop
         id="stop8-9"
         style="stop-color:#93B023"
         offset="1" /></linearGradient><linearGradient
       y2="98.822403"
       x2="456.98129"
       y1="246.1226"
       x1="459.22171"
       gradientUnits="userSpaceOnUse"
       id="SVGID_2_-0"><stop
         id="stop13-3"
         style="stop-color:#589632"
         offset="0" /><stop
         id="stop15-5"
         style="stop-color:#93B023"
         offset="1" /></linearGradient><linearGradient
       y2="97.388199"
       x2="551.26642"
       y1="244.6875"
       x1="553.50677"
       gradientUnits="userSpaceOnUse"
       id="SVGID_3_-5"><stop
         id="stop20-8"
         style="stop-color:#589632"
         offset="0" /><stop
         id="stop22-7"
         style="stop-color:#93B023"
         offset="1" /></linearGradient></defs><linearGradient
     y2="100.4837"
     x2="347.78201"
     y1="247.7832"
     x1="350.02249"
     gradientUnits="userSpaceOnUse"
     id="SVGID_1_"><stop
       id="stop6"
       style="stop-color:#589632"
       offset="0" /><stop
       id="stop8"
       style="stop-color:#93B023"
       offset="1" /></linearGradient><linearGradient
     y2="98.822403"
     x2="456.98129"
     y1="246.1226"
     x1="459.22171"
     gradientUnits="userSpaceOnUse"
     id="SVGID_2_"><stop
       id="stop13"
       style="stop-color:#589632"
       offset="0" /><stop
       id="stop15"
       style="stop-color:#93B023"
       offset="1" /></linearGradient><linearGradient
     y2="97.388199"
     x2="551.26642"
     y1="244.6875"
     x1="553.50677"
     gradientUnits="userSpaceOnUse"
     id="SVGID_3_"><stop
       id="stop20"
       style="stop-color:#589632"
       offset="0" /><stop
       id="stop22"
       style="stop-color:#93B023"
       offset="1" /></linearGradient><linearGradient
     y2="101.4977"
     x2="232.211"
     y1="250.03419"
     x1="234.4702"
     gradientUnits="userSpaceOnUse"
     id="SVGID_4_"><stop
       id="stop27"
       style="stop-color:#589632"
       offset="0" /><stop
       id="stop29"
       style="stop-color:#93B023"
       offset="1" /></linearGradient><linearGradient
     y2="102.9362"
     x2="186.5125"
     y1="250.2354"
     x1="188.7529"
     gradientUnits="userSpaceOnUse"
     id="SVGID_5_"><stop
       id="stop36"
       style="stop-color:#589632"
       offset="0" /><stop
       id="stop38"
       style="stop-color:#93B023"
       offset="1" /></linearGradient><g
     transform="translate(-101.55301,-89.389994)"
     style="display:inline"
     id="layer1"><polygon
       id="polygon3"
       points="195,180 216.513,180 198.306,162 176,162 176,183.433 195,202.37 "
       style="fill:#ee7913"
       transform="translate(0,-4.8925781e-6)" /><polygon
       id="polygon31"
       points="264,226.946 225.617,189 204,189 204,211.34 240.782,248 264,248 "
       style="fill:url(#SVGID_4_)"
       transform="translate(0,-4.8925781e-6)" /><polygon
       id="polygon33"
       points="204,189 225.617,189 216.513,180 195,180 195,202.37 204,211.34 "
       style="fill:#f0e64a"
       transform="translate(0,-4.8925781e-6)" /><path
       id="path40"
       d="m 198.052,216.864 c -3.259,0.75 -6.648,1.157 -10.144,1.157 -25.005,0 -46.271,-20.562 -46.271,-47.222 0,-26.66 21.032,-46.769 46.271,-46.769 25.239,0 45.336,20.108 45.336,46.769 0,4.336 -0.54,8.508 -1.539,12.46 l 23.144,23.14 c 5.967,-10.455 9.305,-22.611 9.305,-35.778 0,-41.09 -32.791,-71.856005 -76.714,-71.856005 -43.722,0 -76.512,30.564005 -76.512,71.856005 0,41.494 32.791,72.666 76.512,72.666 11.287,0 21.835,-2.076 31.284,-5.854 z"
       style="fill:url(#SVGID_5_-7)" /><path
       style="fill:#ffffff;fill-opacity:0.17254902"
       id="polygon4174"
       d="m 176,162 88,86 0,-21.05469 L 225.61719,189 l -9.10352,-9 -18.20703,-18 z" /></g><g
     transform="translate(-101.55301,-89.389994)"
     style="display:inline"
     id="layer5"><g
       id="text4170-0"
       style="font-style:normal;font-variant:normal;font-weight:bold;font-stretch:normal;font-size:4.38779306px;line-height:0%;font-family:Trueno;-inkscape-font-specification:'Trueno, Bold';text-align:start;letter-spacing:0px;word-spacing:0px;writing-mode:lr-tb;text-anchor:start;display:inline;fill:#ffffff;fill-opacity:1;stroke:none;stroke-width:8.79545498;stroke-linecap:butt;stroke-linejoin:round;stroke-miterlimit:4;stroke-dasharray:none;stroke-opacity:1;paint-order:stroke markers fill"
       transform="matrix(0.69231376,0.69231376,-0.72221589,0.72221589,0,0)"><path
         id="path4235"
         style="font-size:22.11612511px;line-height:1.25;fill:#ffffff;fill-opacity:1;stroke:none;stroke-width:8.79545498;stroke-linejoin:round;stroke-miterlimit:4;stroke-dasharray:none;stroke-opacity:1;paint-order:stroke markers fill"
         d="m 306.96265,-2.6433764 12.36291,0 0,-3.0962575 -8.42624,0 0,-3.1183736 7.38679,0 0,-3.0962575 -7.38679,0 0,-3.074141 8.18297,0 0,-3.096258 -12.11964,0 0,15.4812876 z" /><path
         id="path4237"
         style="font-size:22.11612511px;line-height:1.25;fill:#ffffff;fill-opacity:1;stroke:none;stroke-width:8.79545498;stroke-linejoin:round;stroke-miterlimit:4;stroke-dasharray:none;stroke-opacity:1;paint-order:stroke markers fill"
         d="m 320.69296,-4.9876856 c 1.83564,1.5038965 4.48957,2.477006 7.07716,2.477006 3.45012,0 6.19252,-1.6365933 6.19252,-4.7328508 0,-5.5953796 -8.18297,-4.0693666 -8.18297,-6.7454186 0,-0.751948 0.6856,-1.127922 1.70294,-1.127922 1.26062,0 3.31742,0.663484 4.95401,1.614477 l 1.48178,-3.074141 c -1.59236,-1.039458 -3.87032,-1.725058 -6.10405,-1.725058 -3.71551,0 -6.1704,1.813522 -6.1704,4.666502 0,5.4847995 8.18297,3.8482062 8.18297,6.5906058 0,0.884645 -0.77406,1.3490836 -2.01257,1.3490836 -1.61447,0 -4.00302,-0.9288773 -5.59538,-2.3221932 l -1.52601,3.0299092 z" /><path
         id="path4239"
         style="font-size:22.11612511px;line-height:1.25;fill:#ffffff;fill-opacity:1;stroke:none;stroke-width:8.79545498;stroke-linejoin:round;stroke-miterlimit:4;stroke-dasharray:none;stroke-opacity:1;paint-order:stroke markers fill"
         d="m 336.11965,-2.6433764 3.93667,0 0,-4.3568766 2.80875,0 c 3.95879,0 6.23675,-2.1010319 6.23675,-5.728076 0,-3.450116 -2.27796,-5.396335 -6.23675,-5.396335 l -6.74542,0 0,15.4812876 z m 3.93667,-7.4531346 0,-4.931895 2.6097,0 c 1.72506,0 2.72029,0.818296 2.72029,2.432773 0,1.636594 -0.99523,2.499122 -2.72029,2.499122 l -2.6097,0 z" /></g></g></svg>