<svg id="Layer_1" data-name="Layer 1" xmlns="http://www.w3.org/2000/svg" viewBox="0 0 1200 1200"><title>logot_vektor</title><path d="M457,603.12H445.54V651.5h-15V603.12h-8.89V590h8.89v-7.37a23.19,23.19,0,0,1,1.84-10,14.65,14.65,0,0,1,4.76-5.84,16.16,16.16,0,0,1,6.6-2.66,42.66,42.66,0,0,1,7.37-.64h7.23v13.84h-7.49a9.75,9.75,0,0,0-3.55.7,2.77,2.77,0,0,0-1.78,2.86V590H457Z"/><path d="M469.28,651.62V563.5h15v88.12Z"/><path d="M522.61,652.64q-12.32,0-19.55-5.91t-7.24-17.58V608.7q0-11.93,7.24-17.9t19.55-6q12.32,0,19.5,6t7.17,17.9v20.45q0,11.69-7.17,17.58T522.61,652.64Zm0-13.46a19.43,19.43,0,0,0,4.07-.44,12.58,12.58,0,0,0,3.74-1.47,8.29,8.29,0,0,0,2.8-2.66,7.52,7.52,0,0,0,1.08-4.19v-23a8.12,8.12,0,0,0-1.08-4.38,8.78,8.78,0,0,0-2.8-2.79,11.47,11.47,0,0,0-3.74-1.52,18.8,18.8,0,0,0-4.07-.45,19.53,19.53,0,0,0-4.12.45,11.4,11.4,0,0,0-3.81,1.52,8.88,8.88,0,0,0-2.8,2.79,8.12,8.12,0,0,0-1.08,4.38v23a7.52,7.52,0,0,0,1.08,4.19,8.38,8.38,0,0,0,2.8,2.66,12.48,12.48,0,0,0,3.81,1.47A20.19,20.19,0,0,0,522.61,639.18Z"/><path d="M572.64,631.18a15.4,15.4,0,0,0,4.7,5.59,13.25,13.25,0,0,0,8.25,2.41,19.69,19.69,0,0,0,3.81-.38,11.58,11.58,0,0,0,3.37-1.21,7.66,7.66,0,0,0,2.41-2.1,4.74,4.74,0,0,0,1-2.93v-1.27a3.2,3.2,0,0,0-1-2.36,8.5,8.5,0,0,0-2.48-1.65,17.64,17.64,0,0,0-3.49-1.15c-1.31-.29-2.64-.57-4-.82a65.83,65.83,0,0,1-7.93-1.59,26.53,26.53,0,0,1-7.62-3.31,17.42,17.42,0,0,1-5.72-6,19.29,19.29,0,0,1-2.22-9.8,20.13,20.13,0,0,1,1.84-9,16.24,16.24,0,0,1,5.08-6.11,22.39,22.39,0,0,1,7.68-3.5,38.8,38.8,0,0,1,9.65-1.15,38.25,38.25,0,0,1,14,2.65,20.24,20.24,0,0,1,10.47,9q-3.42,2.4-5.44,3.86c-1.35,1-3.12,2.31-5.31,4a13.78,13.78,0,0,0-5.5-4.32,18.82,18.82,0,0,0-8.16-1.78,16.3,16.3,0,0,0-3,.32,13,13,0,0,0-3,1,7.16,7.16,0,0,0-2.34,1.65,3.6,3.6,0,0,0-.95,2.54v.77c0,1.87,1.06,3.2,3.17,4a41.52,41.52,0,0,0,7.46,2c2.62.42,5.34,1,8.16,1.59a24.11,24.11,0,0,1,7.72,3.18,17,17,0,0,1,5.69,6.24q2.22,4,2.22,10.76a19.53,19.53,0,0,1-2,9.29,18,18,0,0,1-5.52,6.3,23.72,23.72,0,0,1-8.13,3.62,40.58,40.58,0,0,1-9.84,1.15A43,43,0,0,1,578,652a30,30,0,0,1-7.3-2.27,25.46,25.46,0,0,1-6.23-4,18.08,18.08,0,0,1-4.44-6Z"/><path d="M630.42,631.18a15.3,15.3,0,0,0,4.7,5.59,13.23,13.23,0,0,0,8.25,2.41,19.69,19.69,0,0,0,3.81-.38,11.41,11.41,0,0,0,3.36-1.21,7.7,7.7,0,0,0,2.42-2.1,4.8,4.8,0,0,0,.95-2.93v-1.27a3.24,3.24,0,0,0-.95-2.36,8.64,8.64,0,0,0-2.48-1.65,17.86,17.86,0,0,0-3.49-1.15c-1.32-.29-2.65-.57-4-.82a66,66,0,0,1-7.94-1.59,26.78,26.78,0,0,1-7.62-3.31,17.39,17.39,0,0,1-5.71-6,19.29,19.29,0,0,1-2.22-9.8,20.13,20.13,0,0,1,1.84-9,16.14,16.14,0,0,1,5.08-6.11,22.39,22.39,0,0,1,7.68-3.5,38.74,38.74,0,0,1,9.65-1.15,38.23,38.23,0,0,1,14,2.65,20.26,20.26,0,0,1,10.48,9q-3.42,2.4-5.44,3.86c-1.35,1-3.12,2.31-5.32,4a13.71,13.71,0,0,0-5.5-4.32,18.82,18.82,0,0,0-8.16-1.78,16.12,16.12,0,0,0-3,.32,13,13,0,0,0-3,1,7.16,7.16,0,0,0-2.34,1.65,3.6,3.6,0,0,0-.95,2.54v.77c0,1.87,1,3.2,3.16,4a41.87,41.87,0,0,0,7.47,2c2.61.42,5.33,1,8.16,1.59a24.15,24.15,0,0,1,7.71,3.18,17.07,17.07,0,0,1,5.7,6.24q2.21,4,2.21,10.76a19.65,19.65,0,0,1-2,9.29,18.1,18.1,0,0,1-5.52,6.3,23.72,23.72,0,0,1-8.13,3.62,40.58,40.58,0,0,1-9.84,1.15,43,43,0,0,1-7.56-.69,30.11,30.11,0,0,1-7.3-2.27,25.41,25.41,0,0,1-6.22-4,18.08,18.08,0,0,1-4.44-6Z"/><path d="M697.59,651.5h-15V563.75l15-.25v49.4q2.53-2.92,5-5.59c1.65-1.78,3.33-3.6,5-5.46q3.3-3.81,6.92-7.87t7.05-8h18.66l-23.36,26.28q2.93,4.44,5.84,8.83t5.84,8.82q1.53,2.42,3.37,5.21t3.68,5.65c1.22,1.9,2.45,3.79,3.68,5.65l3.37,5.08H724.76L707,621.91c-.67.85-1.33,1.63-2,2.35l-2,2.22-2.73,3-2.73,3Z"/><path d="M805,594.7v4.74L770.67,586l-3.92,13.46H765L762,584a30.91,30.91,0,0,1-9.24-7.84,22.08,22.08,0,0,1-4.58-11.65c-.8-8.09-7.92-8.74-7.92-8.74V554.4s12.78-11.24,21.19-.69a78.51,78.51,0,0,0,5.83,6.63s21.11,19.27,24.71,22.73Z"/></svg>