<?xml version="1.0" encoding="UTF-8" standalone="no"?>
<svg
   id="Layer_1"
   data-name="Layer 1"
   viewBox="0 0 1200 330"
   version="1.1"
   width="1200"
   height="330"
   xmlns="http://www.w3.org/2000/svg"
   xmlns:svg="http://www.w3.org/2000/svg"
   xmlns:rdf="http://www.w3.org/1999/02/22-rdf-syntax-ns#"
   xmlns:cc="http://creativecommons.org/ns#"
   xmlns:dc="http://purl.org/dc/elements/1.1/">
  <defs
     id="defs21" />
  <title
     id="title2">logot_vektor</title>
  <g
     id="g227"
     transform="translate(-1.0364902,-0.89083718)">
    <path
       d="M 118.16812,172.64885 H 82.769604 V 322.08862 H 36.43648 V 172.64885 H 8.9763804 V 132.1228 H 36.43648 V 109.35779 A 71.631016,71.631016 0 0 1 42.120011,78.46905 45.252021,45.252021 0 0 1 56.823058,60.43001 49.916222,49.916222 0 0 1 77.209631,52.21361 131.77141,131.77141 0 0 1 99.974639,50.23673 H 122.30721 V 92.98675 H 99.171529 a 30.116532,30.116532 0 0 0 -10.965497,2.16222 8.5561842,8.5561842 0 0 0 -5.498206,8.83419 v 28.13964 h 35.460294 z"
       id="path4"
       style="stroke-width:0.999999" />
    <path
       d="M 156.0995,322.4593 V 50.26762 h 46.33313 V 322.4593 Z"
       id="path6"
       style="stroke-width:0.999999" />
    <path
       d="m 320.82922,325.60995 q -38.05494,0 -60.38752,-18.25526 -22.33256,-18.25524 -22.36346,-54.30241 v -63.16751 q 0,-36.85028 22.36346,-55.29086 22.36346,-18.4406 60.38752,-18.53325 38.05494,0 60.23306,18.53325 22.17813,18.53325 22.14723,55.29086 v 63.16751 q 0,36.10895 -22.14723,54.30241 -22.14723,18.19348 -60.23306,18.25526 z m 0,-41.57626 a 60.016844,60.016844 0 0 0 12.57172,-1.3591 38.858049,38.858049 0 0 0 11.55239,-4.54065 25.606775,25.606775 0 0 0 8.64885,-8.21642 23.228341,23.228341 0 0 0 3.33599,-12.94238 v -71.04412 a 25.081666,25.081666 0 0 0 -3.33599,-13.52929 27.120323,27.120323 0 0 0 -8.64885,-8.61796 35.429397,35.429397 0 0 0 -11.55239,-4.69509 58.070854,58.070854 0 0 0 -12.57172,-1.38998 60.325731,60.325731 0 0 0 -12.72617,1.38998 35.213177,35.213177 0 0 0 -11.76861,4.69509 27.429211,27.429211 0 0 0 -8.64885,8.61796 25.081666,25.081666 0 0 0 -3.33599,13.52929 v 71.04412 a 23.228341,23.228341 0 0 0 3.33599,12.94238 25.884774,25.884774 0 0 0 8.64885,8.21642 38.549161,38.549161 0 0 0 11.76861,4.54065 62.36439,62.36439 0 0 0 12.72617,1.3591 z"
       id="path8"
       style="stroke-width:0.999999" />
    <path
       d="m 475.36563,259.32268 a 47.568677,47.568677 0 0 0 14.51772,17.26681 40.927597,40.927597 0 0 0 25.48321,7.4442 60.819951,60.819951 0 0 0 11.76862,-1.17377 35.769175,35.769175 0 0 0 10.40952,-3.73754 23.660784,23.660784 0 0 0 7.44419,-6.48664 14.641268,14.641268 0 0 0 3.08888,-9.05041 v -3.92286 a 9.8844004,9.8844004 0 0 0 -3.08888,-7.28975 26.255439,26.255439 0 0 0 -7.66042,-5.09664 54.487758,54.487758 0 0 0 -10.78017,-3.55221 c -4.04643,-0.89577 -8.15463,-1.76067 -12.35549,-2.53288 a 203.34065,203.34065 0 0 1 -24.49479,-4.9113 81.947857,81.947857 0 0 1 -23.53722,-10.22419 53.808206,53.808206 0 0 1 -17.66837,-18.53325 59.584402,59.584402 0 0 1 -6.8573,-30.27098 62.179056,62.179056 0 0 1 5.68352,-27.79988 50.163333,50.163333 0 0 1 15.69149,-18.87302 69.159915,69.159915 0 0 1 23.72257,-10.81106 119.84835,119.84835 0 0 1 29.80763,-3.55221 118.14948,118.14948 0 0 1 43.24426,8.18552 62.518833,62.518833 0 0 1 32.34052,27.79987 q -10.56396,7.41331 -16.80349,11.92306 c -4.16997,3.08887 -9.63728,7.1353 -16.40191,12.35551 a 42.5647,42.5647 0 0 0 -16.98881,-13.34395 58.13263,58.13263 0 0 0 -25.20522,-5.4982 50.348665,50.348665 0 0 0 -9.26664,0.98844 40.155377,40.155377 0 0 0 -9.26663,3.08888 22.116347,22.116347 0 0 0 -7.22795,5.09664 11.11995,11.11995 0 0 0 -2.93444,7.84575 v 2.37844 c 0,5.7762 3.2742,9.88439 9.79173,12.35549 a 128.25009,128.25009 0 0 0 23.04302,6.17775 c 8.09284,1.29733 16.49459,3.08888 25.2052,4.9113 a 74.47278,74.47278 0 0 1 23.84613,9.82263 52.510878,52.510878 0 0 1 17.5757,19.27458 q 6.85729,12.35551 6.85729,33.2363 a 60.325731,60.325731 0 0 1 -6.17773,28.69566 55.599753,55.599753 0 0 1 -17.05061,19.45992 73.268119,73.268119 0 0 1 -25.11254,11.18172 125.34656,125.34656 0 0 1 -30.39455,3.55221 132.82163,132.82163 0 0 1 -23.69165,-2.06955 92.666255,92.666255 0 0 1 -22.5488,-7.01174 78.642761,78.642761 0 0 1 -19.24369,-12.35552 55.846863,55.846863 0 0 1 -13.7146,-18.53325 z"
       id="path10"
       style="stroke-width:0.999999" />
    <path
       d="m 653.84084,259.32268 a 47.259789,47.259789 0 0 0 14.51772,17.26681 40.865817,40.865817 0 0 0 25.48321,7.4442 60.819951,60.819951 0 0 0 11.76862,-1.17377 35.244065,35.244065 0 0 0 10.37863,-3.73754 23.784339,23.784339 0 0 0 7.47508,-6.48664 14.826601,14.826601 0 0 0 2.93441,-9.05041 v -3.92286 a 10.007956,10.007956 0 0 0 -2.93441,-7.28975 26.687882,26.687882 0 0 0 -7.66042,-5.09664 55.167311,55.167311 0 0 0 -10.78017,-3.55221 c -4.07731,-0.89577 -8.18552,-1.76067 -12.35549,-2.53288 a 203.86576,203.86576 0 0 1 -24.52568,-4.9113 82.720077,82.720077 0 0 1 -23.53723,-10.22419 53.715539,53.715539 0 0 1 -17.63747,-18.53325 59.584402,59.584402 0 0 1 -6.85732,-30.27098 62.179056,62.179056 0 0 1 5.68354,-27.79988 49.854445,49.854445 0 0 1 15.69149,-18.87302 69.159915,69.159915 0 0 1 23.72256,-10.81106 119.66302,119.66302 0 0 1 29.80764,-3.55221 118.0877,118.0877 0 0 1 43.24426,8.18552 62.580611,62.580611 0 0 1 32.3714,27.79987 q -10.56394,7.41331 -16.80348,11.92306 c -4.16998,3.08887 -9.63728,7.1353 -16.4328,12.35551 a 42.348478,42.348478 0 0 0 -16.98883,-13.34395 58.13263,58.13263 0 0 0 -25.2052,-5.4982 49.792667,49.792667 0 0 0 -9.26664,0.98844 40.155377,40.155377 0 0 0 -9.26663,3.08888 22.116347,22.116347 0 0 0 -7.22795,5.09664 11.11995,11.11995 0 0 0 -2.93444,7.84575 v 2.37844 c 0,5.7762 3.08888,9.88439 9.76084,12.35549 a 129.3312,129.3312 0 0 0 23.07389,6.17775 c 8.06198,1.29733 16.46371,3.08888 25.20522,4.9113 a 74.596335,74.596335 0 0 1 23.81523,9.82263 52.727099,52.727099 0 0 1 17.6066,19.27458 q 6.82641,12.35551 6.82641,33.2363 a 60.696397,60.696397 0 0 1 -6.17775,28.69566 55.90864,55.90864 0 0 1 -17.05059,19.45992 73.268119,73.268119 0 0 1 -25.11256,11.18172 125.34656,125.34656 0 0 1 -30.39452,3.55221 132.82163,132.82163 0 0 1 -23.35191,-2.13133 93.006031,93.006031 0 0 1 -22.54878,-7.01174 78.488317,78.488317 0 0 1 -19.21281,-12.35551 55.846863,55.846863 0 0 1 -13.7146,-18.53324 z"
       id="path12"
       style="stroke-width:0.999999" />
    <path
       d="M 861.32059,322.08862 H 814.98746 V 51.03983 l 46.33313,-0.77221 v 152.59042 q 7.81485,-9.01951 15.44437,-17.26681 c 5.09665,-5.4982 10.28596,-11.11993 15.44439,-16.86526 q 10.19328,-11.76861 21.37501,-24.30943 11.18174,-12.54085 21.77657,-24.71101 h 57.6384 l -72.15612,81.17565 q 9.05041,13.71459 18.03903,27.27476 8.98863,13.56015 18.03904,27.24388 4.72597,7.47507 10.4095,16.09303 5.68354,8.61795 11.36706,17.45214 c 3.76843,5.86887 7.56776,11.70685 11.36708,17.45215 l 10.40948,15.69148 h -55.22907 l -54.85843,-91.3998 c -2.06954,2.62553 -4.10819,5.03485 -6.17775,7.25885 l -6.17774,6.8573 -8.43263,9.26663 -8.43263,9.26663 z"
       id="path14"
       style="stroke-width:0.999999" />
    <path
       d="m 1193.0966,146.64052 v 14.64127 l -106.041,-41.51448 -12.1084,41.57627 h -5.4055 l -9.2666,-47.75403 A 95.477131,95.477131 0 0 1 1031.7339,89.37278 68.202363,68.202363 0 0 1 1017.5868,53.38737 C 1015.1157,28.39838 993.1229,26.39061 993.1229,26.39061 v -4.23175 c 0,0 39.4758,-34.71897 65.4533,-2.13133 a 242.50759,242.50759 0 0 0 18.0081,20.47923 c 0,0 65.2061,59.52262 76.3261,70.21015 z"
       id="path16"
       style="stroke-width:0.999999" />
  </g>
  <metadata
     id="metadata218">
    <rdf:RDF>
      <cc:Work
         rdf:about="">
        <dc:title>logot_vektor</dc:title>
      </cc:Work>
    </rdf:RDF>
  </metadata>
</svg>
