<?xml version="1.0" encoding="UTF-8"?><svg id="Layer_1" xmlns="http://www.w3.org/2000/svg" xmlns:xlink="http://www.w3.org/1999/xlink" viewBox="0 0 1076 485.67"><defs><style>.cls-1{fill:none;}.cls-2,.cls-3,.cls-4{stroke:#fff;stroke-width:1.72px;}.cls-2,.cls-5,.cls-6{fill:#0049ff;}.cls-3,.cls-7,.cls-4{fill:#ef5b5b;}.cls-8{letter-spacing:-.02em;}.cls-9{clip-path:url(#clippath);}.cls-10{letter-spacing:-.02em;}.cls-4{stroke-linejoin:round;}.cls-11{clip-path:url(#clippath-1);}.cls-12{letter-spacing:0em;}.cls-6{font-size:60px;isolation:isolate;}.cls-6,.cls-13{font-family:Alfabeti-DemiBold, Alfabeti;}.cls-13{fill:#ed5d5d;font-size:160px;}.cls-14{letter-spacing:0em;}</style><clipPath id="clippath"><polygon class="cls-1" points="210.65 25.89 234.02 47.88 285.23 56.51 319.53 126.37 358.54 139.95 351.29 176.77 443.13 192.31 449.23 207.73 385.93 313.27 400.2 335.48 372.58 343.07 339.44 356.89 329.7 384.62 309.17 392.1 285.69 357.46 196.61 414.43 196.61 462.77 155.79 462.92 157.02 447.8 136.42 350.21 99.94 332.03 96.83 315.57 62.19 304.98 50.91 263.2 31 247.09 36.07 233.28 14.2 192.77 27.78 171.25 70.71 182.53 77.38 159.51 131.82 133.39 122.5 109.22 153.22 85.16 170.26 56.97 148.51 19.22 204.32 1.84 210.65 25.89"/></clipPath><clipPath id="clippath-1"><rect class="cls-1" x="-208.61" y="-14.85" width="772" height="514.67"/></clipPath></defs><text class="cls-13" transform="translate(486.38 243.6)"><tspan class="cls-10" x="0" y="0">F</tspan><tspan x="88" y="0">O</tspan><tspan class="cls-14" x="196.16" y="0">S</tspan><tspan x="294.4" y="0">S4G</tspan></text><text class="cls-6" transform="translate(493.08 337.35)"><tspan x="0" y="0">Priz</tspan><tspan class="cls-8" x="106.62" y="0">r</tspan><tspan class="cls-12" x="129.54" y="0">en, 2023</tspan></text><g><g class="cls-9"><g class="cls-11"><g><path class="cls-7" d="M-190.66-27.16c-8.75,7.71-17.61,15.65-25.32,24.28-5.06,5.64-6.56,13.7-3.11,20.6,2.07,4.03,5.87,7.48,8.98,10.82,2.99,3.34,6.21,6.68,9.09,10.13,2.53,2.88,4.26,5.87,3.11,9.78-.81,2.76-2.42,5.06-3.57,7.71-1.38,3.34-2.3,6.79-2.76,10.36-.92,7.6,.58,15.42,3.57,22.44,3.22,7.37,8.06,13.93,14.39,18.87,6.91,5.52,16.11,7.14,22.21,13.7,2.65,2.99,4.95,5.29,8.52,7.37,3.8,2.19,7.83,4.03,11.51,6.56,8.17,5.64,9.21,16.11,16.46,22.44,13.35,11.51,33.95,1.96,49.03,.46,22.79-2.3,43.73,8.75,65.6,13.12,14.96,2.99,32.34,2.42,45.69-5.87,6.21-3.91,10.82-9.44,13.58-16.23,1.73-4.26,2.76-8.98,5.18-13,3.11-5.18,8.17-7.37,14.16-7.37,5.41,0,10.59,1.38,15.88,2.07,5.29,.69,10.7,1.04,16.11,.81,11.39-.46,21.52-3.68,32.45-6.68,5.75-1.61,11.28-2.07,17.15-.46,4.83,1.38,9.32,3.57,13.81,5.52,7.25,2.99,15.08,5.52,22.67,2.3,8.29-3.57,13.24-11.85,18.64-18.53,6.68-8.06,14.5-15.19,22.9-21.52,16.46-12.31,35.1-21.64,53.52-30.61,19.68-9.55,41.32-20.72,63.99-18.07,9.44,1.15,18.76,4.49,26.12,10.7,7.48,6.33,11.05,14.62,13.24,24.05,1.96,8.4,3.11,17.49,8.52,24.51,5.64,7.48,16.92,9.9,20.03,19.33,1.61,5.18,1.04,10.93,1.5,16.23,.35,4.37,1.04,8.75,2.07,13,2.19,8.86,11.72,17.76,16.44,25.47,12.4,10.16,18.55,26.47,35.35,35.75,9.78,4.37,20.03,7.94,29.46,13.24,9.21,5.29,16.92,12.54,22.56,21.52,2.76,4.37,4.95,9.09,6.68,13.93,1.38,4.03,2.65,7.83,5.29,11.28,4.6,6.21,11.62,10.36,19.33,11.51,5.29,.81,10.59-.23,15.88-.92,1.5-.23,1.5-2.53,0-2.3-5.75,.81-11.51,1.96-17.38,.69-9.67-2.07-17.03-9.09-20.14-18.41-5.98-18.07-17.61-32.22-34.64-41.09-9.21-4.72-18.99-8.06-28.31-12.54-9.09-4.26-12.57-13.39-19.71-20.53-13.47-13.35-27.48-27.46-30.12-46.22-1.27-8.86,.81-19.56-5.18-26.93-5.75-7.14-14.96-9.44-19.56-17.84-4.37-8.29-4.83-18.07-7.6-26.93-2.42-7.6-6.68-14.04-12.89-18.99-32.45-25.89-76.19-.58-107.03,15.19-17.95,9.09-35.56,19.33-50.52,33.03-7.02,6.44-12.54,13.93-18.64,21.18-2.76,3.34-5.98,6.56-9.9,8.52-5.18,2.53-10.93,1.84-16.23,.12-8.17-2.65-15.65-7.6-24.28-8.63-10.7-1.38-21.06,4.37-31.42,6.33-11.51,2.3-23.13,2.07-34.64,.12-7.94-1.38-17.26-3.11-23.94,2.76-6.21,5.52-6.79,14.5-10.59,21.29-4.14,7.48-11.39,12.54-19.45,15.31-17.84,6.1-36.14,1.96-53.52-3.22-10.36-3.11-20.72-6.44-31.42-7.94-9.67-1.27-18.87-.35-28.31,1.5-8.98,1.84-18.87,4.6-27.97,2.19-10.36-2.76-12.54-12.2-17.72-20.14-4.72-7.14-13-9.67-19.91-14.16-3.57-2.3-5.64-5.64-8.75-8.29-3.57-2.99-7.6-4.6-11.74-6.44-15.54-7.14-26.12-24.4-25.55-41.43,.12-3.91,.92-7.83,2.42-11.51,1.61-4.26,4.95-8.29,4.49-13.12-.46-5.06-5.06-8.86-8.29-12.43-3.45-3.8-7.02-7.71-10.47-11.51-6.33-7.25-6.1-16.11,.58-23.13,7.71-8.17,15.88-15.88,24.28-23.25,.92-1.27-.69-2.88-1.84-1.84h0Z"/><path class="cls-7" d="M-172.82-19.56c-5.75,2.99-12.08,6.33-14.85,12.54-1.15,2.65-1.73,5.64-1.04,8.4,.69,2.99,2.65,5.18,4.72,7.37,2.99,3.11,4.14,6.44,3.34,10.7-.69,3.68-2.3,7.02-3.57,10.59-2.65,7.14-2.76,14.39-1.61,21.87,1.38,8.63,4.03,17.15,6.21,25.55,1.84,7.02,2.99,15.08,7.48,21.06,5.18,6.79,13.47,9.44,21.06,12.77,2.3,1.04,4.49,2.07,6.91,2.65,3.34,.81,6.68,.81,10.01,1.73,6.56,1.84,12.31,5.87,16.46,11.16,1.96,2.42,3.45,5.06,5.87,7.02,2.19,1.84,4.72,3.34,7.48,4.26,2.76,.92,5.75,1.15,8.52,.46,3.22-.69,4.6-3.11,5.87-5.98,2.19-4.83,3.91-15.65,11.28-14.96,4.26,.35,6.33,4.37,7.71,7.94,1.04,2.88,2.53,5.52,4.37,7.94,7.83,10.13,20.83,14.73,33.26,14.5,7.83-.12,15.65-1.73,23.02-4.14,3.8-1.27,7.6-2.76,11.51-3.91,3.8-1.15,7.48-1.73,11.39-2.3,6.91-.92,13.24-3.22,18.87-7.6,5.18-4.03,8.29-9.78,12.89-14.27,2.3-2.19,5.06-4.03,8.4-3.45,3.34,.46,6.1,2.88,9.55,2.76,3.22-.12,5.64-2.76,8.86-2.99,3.11-.35,6.21,1.04,8.98,2.3,5.18,2.53,10.47,5.75,16.46,5.41,4.72-.23,8.98-2.42,12.89-4.83,4.26-2.76,8.17-6.1,12.43-8.86,3.8-2.53,8.06-5.06,12.77-4.95,6.21,.12,10.01,5.75,15.88,7.14,6.68,1.61,13.24-2.88,18.53-6.44,10.59-7.37,19.56-16.69,29.58-24.86,4.95-4.03,10.36-7.83,16.11-10.59,2.99-1.5,6.21-2.65,9.44-3.45,3.57-.92,7.25-1.5,10.59-2.99,5.41-2.3,9.78-7.71,7.83-13.81-.46-1.38-1.15-2.76-1.38-4.26-.46-2.65,1.38-4.37,3.68-5.06,.69-.23,1.5-.46,2.3-.58,6.56-1.73,13-3.45,19.56-5.29,1.96-.58,4.03-1.27,4.72-3.34,1.15-2.88-.58-6.79-1.04-9.67-1.5-8.06-1.96-16.34-1.38-24.51,.58-8.06,2.19-16,4.72-23.71,.46-1.38-1.73-2.07-2.19-.58-4.83,14.73-6.21,30.38-4.03,45.69,.23,1.84,.58,3.57,.92,5.41,.35,1.73,1.15,3.8,.92,5.64-.23,2.19-2.53,2.53-4.26,2.99-3.34,.92-6.68,1.84-10.01,2.65-3.34,.92-6.56,1.73-9.9,2.65-3.68,.92-7.02,3.34-6.44,7.6,.46,3.45,2.76,6.21,1.38,9.78-1.38,3.68-5.06,5.87-8.75,7.02-3.45,1.15-7.02,1.61-10.47,2.65-2.88,.92-5.64,1.96-8.29,3.34-11.16,5.52-20.26,14.16-29.35,22.33-4.83,4.37-9.78,8.63-15.08,12.43-5.75,4.03-13.12,9.21-20.14,5.52-4.83-2.53-8.52-6.21-14.27-6.1-4.37,.12-8.4,2.19-11.97,4.49-7.83,4.95-15.42,13.58-25.09,14.27-6.21,.46-11.62-3.34-17.03-5.75-2.42-1.04-5.06-1.96-7.71-1.96-2.88,0-5.06,1.38-7.6,2.42-3.8,1.61-7.02-1.27-10.59-2.07-2.42-.58-4.95-.23-7.14,.92-5.18,2.65-8.17,8.29-11.85,12.54-4.72,5.41-11.05,9.32-18.07,10.93-3.57,.81-7.37,1.04-10.93,1.73-3.8,.81-7.48,2.07-11.16,3.45-14.16,5.06-29.92,8.86-44.54,3.22-5.87-2.3-11.28-5.98-15.08-11.05-1.96-2.65-3.11-5.41-4.26-8.52-1.04-2.76-2.88-5.29-5.41-6.79-5.06-2.99-10.13,0-13,4.6-1.61,2.65-2.42,5.64-3.45,8.63-.58,1.61-1.27,3.11-2.19,4.6-1.15,1.73-2.65,2.19-4.6,2.3-6.68,.58-12.77-3.8-16.34-9.09-3.45-5.06-8.06-9.21-13.58-11.85-2.65-1.27-5.41-2.3-8.29-2.88-3.57-.69-7.02-.81-10.47-2.07-3.45-1.27-6.68-2.88-10.01-4.37-3.68-1.61-7.48-3.11-10.47-5.87-3.68-3.22-5.98-7.48-7.25-12.08-1.84-6.91-3.57-13.7-5.41-20.6-2.99-11.28-6.68-23.36-2.88-34.99,1.96-6.1,5.98-12.66,4.37-19.22-.81-3.11-2.76-5.18-4.95-7.48-2.65-2.88-4.03-5.98-2.99-9.9,1.73-7.14,8.75-10.7,14.73-13.7,1.03-.92-.23-2.88-1.5-2.19h0Z"/><path class="cls-7" d="M-.19-26.12c1.61,3.91,2.3,8.29,1.73,12.43C.96-9.44-.99-5.75-2.83-2.07-3.75-.23-4.67,1.73-5.37,3.68c-.69,2.19-1.04,4.37-1.27,6.68s-.23,4.6-.69,6.91c-.35,1.96-.92,3.8-1.61,5.52-2.88,7.25-8.4,13.12-12.77,19.45-4.6,6.79-7.94,14.39-9.78,22.33-1.84,8.06-2.07,16.46-.69,24.51,.12,1.04,.35,2.07,.58,3.11,.12,.35,.46,.69,.81,.81,7.94,2.19,16.34,2.53,24.4,1.15,4.03-.69,7.94-1.84,11.74-3.45,3.68-1.5,7.02-3.57,10.47-5.52,3.34-1.84,6.68-3.8,10.36-5.06s7.48-1.61,11.39-1.15c4.03,.58,7.94,1.61,11.97,2.19,3.91,.46,7.71,.12,11.16-1.73,3.11-1.61,5.64-3.91,8.4-5.87,1.38-.92,2.76-1.73,4.26-2.19,1.84-.58,3.8-.69,5.75-.58,3.91,.12,8.06,.81,11.51-1.5,2.88-1.96,4.49-5.18,5.52-8.29,1.27-4.03,2.07-8.17,3.11-12.2,.58-2.19,1.04-4.37,1.61-6.68,.58-2.07,1.15-4.26,1.15-6.44,.12-4.37-2.65-7.6-5.29-10.7-2.65-3.11-5.41-6.1-8.17-9.21-5.41-5.98-10.7-12.2-14.16-19.45-3.11-6.68-4.72-14.62-2.65-21.87,.46-1.73,1.15-3.45,2.07-4.95,.69-1.27-1.27-2.42-1.96-1.15-3.68,6.68-3.91,14.62-2.07,21.87,1.96,7.71,6.33,14.39,11.28,20.49,5.06,6.33,10.93,11.97,16,18.3,1.15,1.5,2.3,3.11,2.65,4.95,.46,2.19-.12,4.49-.69,6.56-1.04,4.37-2.19,8.86-3.22,13.24-.81,3.45-1.5,7.02-3.22,10.24-.81,1.38-1.73,2.65-3.11,3.57-1.61,1.04-3.34,1.27-5.18,1.27-3.8,0-7.71-.81-11.51,.46-3.22,1.15-5.98,3.34-8.75,5.41-2.76,2.07-5.64,3.91-9.21,4.37-3.91,.46-7.94-.46-11.74-1.27-3.91-.81-7.83-1.5-11.74-1.04-3.8,.46-7.37,1.84-10.82,3.45-3.45,1.73-6.79,3.68-10.13,5.52-3.45,1.84-7.02,3.57-10.7,4.72-7.71,2.42-15.88,2.99-23.82,1.73-1.96-.35-3.91-.81-5.87-1.27,.23,.23,.58,.58,.81,.81-1.73-7.94-1.84-16.23-.35-24.28,1.5-8.06,4.6-15.77,9.09-22.56,4.26-6.56,9.78-12.31,13.12-19.45,.81-1.73,1.5-3.57,1.96-5.41,.58-2.19,.81-4.37,.92-6.56,.12-2.3,.23-4.6,.69-6.91C-3.29,4.49-2.49,2.53-1.57,.69,.27-3.11,2.46-6.68,3.5-10.82c.92-4.14,.92-8.63-.23-12.77-.23-1.04-.69-2.07-1.04-3.11-.23-.58-.81-1.04-1.38-.81-.81,.12-1.27,.81-1.04,1.38H-.19Z"/><path class="cls-7" d="M80.72-24.17c-3.8,6.33-1.73,14.5,2.42,20.03,4.72,6.21,11.39,10.13,17.26,15.19,2.65,2.3,5.29,4.83,7.14,7.94,2.07,3.34,3.11,7.02,2.99,10.93-.12,4.37-1.04,8.52-1.61,12.89-.58,4.49-1.04,9.09-1.27,13.58-.12,2.3-.23,4.49-.23,6.79,0,1.96-.12,3.91,.35,5.75,.35,1.61,1.38,3.11,2.99,3.8,1.5,.69,3.22,.69,4.83,.23,3.68-1.15,5.64-4.49,8.17-7.02,2.42-2.42,5.41-4.03,7.94-6.1,1.27-1.04,2.53-2.3,3.45-3.68,1.04-1.61,1.73-3.57,2.07-5.41,.69-3.8,.69-7.6,1.15-11.39,.35-3.8,.92-7.6,2.19-11.16,1.15-3.57,2.99-6.79,5.41-9.67,2.53-2.99,5.06-5.98,6.33-9.78,1.27-3.57,1.38-7.48,.92-11.16-1.04-7.94-5.29-14.85-9.9-21.18-1.15-1.61-2.42-3.11-3.57-4.72-.35-.46-1.27-.35-1.61,0-.46,.46-.35,1.15,0,1.61,4.72,5.98,9.55,12.31,11.85,19.68,1.04,3.45,1.5,7.02,1.15,10.59-.35,3.57-1.73,6.91-3.91,9.78-2.3,2.99-4.95,5.64-6.79,8.98-1.73,3.22-2.76,6.79-3.45,10.36-.69,3.68-1.04,7.37-1.27,11.05-.23,3.57-.35,7.6-2.19,10.82-1.61,2.76-4.49,4.49-7.02,6.21-1.38,.92-2.76,1.96-3.91,3.11-1.27,1.15-2.3,2.65-3.45,3.91-1.04,1.15-2.3,2.42-3.8,2.88-1.27,.46-2.76,.58-3.91-.23-1.27-.92-1.38-2.65-1.5-4.14-.12-2.07,0-4.26,0-6.33,.12-4.37,.46-8.75,.92-13,.46-4.26,1.27-8.52,1.84-12.77,.46-4.03,.58-8.17-.81-11.97-1.15-3.34-3.22-6.33-5.52-8.86-4.95-5.41-11.39-9.09-16.8-14.04-4.95-4.49-9.21-10.93-8.29-17.95,.23-1.61,.81-3.11,1.61-4.37,.58-1.27-1.5-2.42-2.19-1.15h0Z"/><path class="cls-7" d="M90.96-21.87c-.81,4.6,.92,9.09,3.8,12.66,2.99,3.68,7.14,6.21,11.28,8.4,2.07,1.15,4.03,2.19,5.18,4.26s1.73,4.49,2.53,6.79c1.73,5.18,3.34,10.36,5.06,15.54,.46,1.27,.81,2.53,1.27,3.8,.35,1.15,.58,2.42,1.38,3.22,1.5,1.73,4.03,1.04,5.75-.12,3.22-2.19,5.29-5.64,6.79-9.32,1.5-3.68,2.53-7.48,3.91-11.16,1.73-4.26,4.37-8.06,5.64-12.54,2.53-9.21-3.34-17.84-8.98-24.51-.69-.81-1.5-1.73-2.19-2.53-1.04-1.15-2.65,.58-1.61,1.61,5.29,5.98,11.62,13.35,11.05,21.98-.35,4.37-2.76,8.17-4.6,12.08-1.73,3.45-2.76,7.25-4.03,10.93-1.15,3.34-2.42,6.79-4.83,9.44-1.04,1.15-2.65,2.76-4.26,2.76-.92,0-1.15-.69-1.38-1.38-.46-1.27-.81-2.53-1.27-3.8-1.61-4.83-3.11-9.67-4.72-14.5-.81-2.3-1.5-4.72-2.3-6.91-.81-2.07-1.84-4.03-3.57-5.41-1.73-1.38-3.8-2.3-5.64-3.34-1.96-1.15-3.8-2.3-5.52-3.68-3.22-2.65-5.98-6.33-6.44-10.59-.12-1.04-.12-2.07,0-2.99,.12-.58-.12-1.27-.81-1.38-.58-.23-1.38,.12-1.5,.69h0Z"/><path class="cls-7" d="M197.99-24.4c-1.04,4.83,1.73,9.32,5.06,12.66,3.11,3.11,7.02,5.52,9.44,9.21,.58,.92,1.04,1.84,1.38,2.88,.46,1.04,1.04,1.96,2.19,2.19,2.3,.58,4.37-2.07,5.52-3.68,2.53-3.68,3.22-8.4,2.65-12.77-.81-5.41-3.8-10.13-7.37-14.04-1.04-1.04-2.65,.58-1.61,1.61,5.41,5.87,9.21,14.5,5.52,22.21-.46,.81-.92,1.73-1.5,2.42s-1.27,1.61-2.07,1.96c-.81,.46-1.04-.58-1.27-1.15-.35-.92-.81-1.84-1.38-2.65-2.19-3.34-5.41-5.75-8.4-8.4-3.22-2.88-6.91-7.02-5.87-11.74,.23-1.5-1.96-2.07-2.3-.69h0Z"/><path class="cls-7" d="M9.14-18.41c.81,7.94-.69,15.77-3.22,23.25C3.27,12.66-.19,20.03-3.29,27.62c-3.11,7.48-5.75,15.31-6.68,23.36-.81,7.71,.69,16.46,7.71,20.95,6.21,4.03,14.5,3.45,21.41,1.84,8.86-2.19,17.26-6.91,26.59-6.33,2.42,.12,4.6,.92,6.91,1.15,1.15,.12,2.3-.12,3.34-.58s1.96-1.27,2.76-2.07c3.8-3.34,7.71-6.79,11.51-10.13,.92-.81,1.84-1.61,2.76-2.42,.81-.69,1.61-1.38,2.3-2.3,1.5-1.96,1.04-4.37,.81-6.68-.46-4.95-1.04-9.78-1.73-14.73-1.38-9.67-3.22-19.33-5.41-28.89-1.15-4.83-2.42-9.55-3.68-14.27-1.27-4.6-3.11-9.21-3.68-14.04-.23-2.3-.23-4.49,.46-6.79,.46-1.38-1.84-2.07-2.19-.58-1.27,4.6-.46,9.32,.81,13.81,1.27,4.6,2.76,9.09,3.91,13.7,2.53,9.32,4.49,18.76,6.21,28.2,.81,4.72,1.5,9.55,2.07,14.27,.35,2.42,.58,4.72,.81,7.14,.12,1.15,.23,2.42,.35,3.57,.12,1.04,.35,2.3-.12,3.22-.35,.81-1.15,1.5-1.84,2.07-.92,.81-1.96,1.73-2.88,2.53-1.84,1.61-3.68,3.34-5.64,4.95-1.84,1.61-3.68,3.34-5.64,4.95-.81,.69-1.61,1.61-2.65,2.07-.92,.58-1.96,.58-2.99,.46-1.15-.12-2.19-.46-3.34-.69s-2.42-.35-3.57-.35c-2.3-.12-4.6,.12-6.79,.58-4.6,.81-8.98,2.42-13.35,3.91-6.91,2.3-14.62,4.37-21.87,2.42-3.34-.92-6.33-2.88-8.17-5.75-2.19-3.22-2.88-7.14-2.88-10.93-.12-7.83,2.42-15.77,5.18-23.02C.39,24.74,3.84,17.49,6.72,9.9c2.76-7.25,4.95-14.85,5.18-22.67,0-1.96,0-3.8-.23-5.75-.12-.58-.46-1.15-1.15-1.15-.81,.12-1.5,.69-1.38,1.27h0Z"/><path class="cls-7" d="M14.2-18.07c4.6,11.05,1.38,23.13,1.27,34.64,0,5.87,.81,11.74,2.99,17.15,1.04,2.76,2.3,5.41,3.8,7.83,1.5,2.3,3.22,4.49,5.52,5.98,4.6,2.99,10.36,2.88,15.54,2.53,4.49-.35,10.01-.69,13-4.49,3.68-4.6,1.27-10.7,.81-16-.46-6.33,.69-12.66,1.15-18.99,.58-6.33,.12-12.54-.92-18.76-1.15-6.21-2.88-12.31-4.72-18.41-.46-1.5-.92-2.99-1.38-4.49-.46-1.38-2.65-.81-2.19,.58,3.57,11.51,7.25,23.36,7.25,35.56,0,6.1-1.15,12.2-1.5,18.3-.12,3.11-.12,6.1,.46,9.21,.35,2.53,1.04,5.06,.81,7.71-.23,2.3-1.38,4.26-3.45,5.41-1.84,1.04-4.14,1.5-6.21,1.73-2.42,.23-4.95,.46-7.48,.46s-5.06-.23-7.48-1.04c-5.06-1.84-7.94-6.79-10.01-11.51-2.3-5.18-3.57-10.7-3.68-16.34-.35-11.16,2.76-22.67-.12-33.72-.35-1.38-.81-2.65-1.27-3.91-.23-.58-.81-1.04-1.38-.81-.58,.12-1.04,.81-.81,1.38h0Z"/><path class="cls-7" d="M19.61-20.14c3.11,5.29,1.27,11.97,.92,17.84-.23,2.99,0,6.1,1.04,8.98,1.15,2.88,3.22,5.29,5.75,6.91,5.52,3.45,13.24,2.88,17.15-2.65,4.14-5.64,2.65-13.12,1.38-19.45-.92-4.03-1.5-8.06-1.15-12.2,.35-4.03,1.38-8.06,2.99-11.74,.23-.58,.12-1.27-.46-1.61-.46-.35-1.27-.12-1.61,.46-2.99,6.44-4.03,13.58-2.99,20.6,.92,6.44,3.68,13.12,1.38,19.68-.92,2.76-2.88,5.06-5.64,6.1-2.76,1.04-5.87,.81-8.63-.46-2.53-1.15-4.6-3.11-5.87-5.64s-1.38-5.52-1.27-8.29c.23-6.56,2.3-13.58-1.27-19.56-.46-1.38-2.42-.23-1.73,1.04h0Z"/><path class="cls-7" d="M25.71-20.49c.23,7.14,2.3,14.04,5.75,20.26,.35,.58,1.04,.69,1.61,.46,3.22-1.84,4.6-5.29,4.95-8.86,.46-4.14-.81-8.06-1.27-12.08-.35-2.53-.35-5.18,.69-7.48,.23-.58,.12-1.27-.46-1.61-.46-.23-1.38-.12-1.61,.46-1.84,4.26-1.04,8.75-.23,13.24,.69,3.45,1.15,7.14-.12,10.47-.58,1.61-1.61,3.11-3.22,3.91,.58,.12,1.04,.23,1.61,.46-3.34-5.87-5.18-12.43-5.41-19.1-.12-1.61-2.42-1.61-2.3-.12h0Z"/><path class="cls-7" d="M188.56-23.94c-1.73,5.52-3.45,11.28-2.88,17.15,.23,2.88,1.38,5.64,1.84,8.52,.58,2.99,0,6.1-.35,9.09s-.69,6.1-1.04,9.09c-.23,1.5-.35,2.99-.46,4.49-.12,1.38,.12,2.65,1.04,3.8,.81,.92,1.84,1.5,2.88,2.07,1.27,.69,2.42,1.38,3.68,1.96,2.42,1.15,4.95,1.96,7.6,1.84,2.3,0,4.6-.69,6.33-2.19,1.84-1.5,2.65-3.57,3.34-5.64,.58-1.84,1.27-3.8,3.11-4.83,1.61-.92,3.68-1.04,5.41-1.27,1.84-.35,3.68-.81,5.06-2.07,1.61-1.61,1.5-4.03,2.99-5.64,1.27-1.5,2.99-2.42,4.49-3.8,1.73-1.61,2.76-3.57,2.53-5.87-.12-1.38-.46-2.76-.81-4.14-.46-1.5-.81-2.99-1.27-4.37-.81-2.88-1.73-5.75-2.3-8.63-.92-4.6-.92-10.36,3.22-13.47,.81-.58,1.73-1.04,2.76-1.27,1.5-.35,.81-2.53-.58-2.19-4.37,.92-7.37,5.18-7.94,9.44-.92,5.75,1.27,11.51,2.76,17.03,.46,1.5,.81,2.99,1.27,4.37,.35,1.27,.69,2.53,.69,3.91,0,2.07-1.5,3.45-2.99,4.6-1.5,1.15-3.11,2.3-4.26,3.91-1.04,1.61-1.04,4.03-2.88,5.06-1.5,.92-3.45,1.04-5.06,1.27-1.84,.35-3.8,.69-5.29,1.96-3.45,2.65-2.65,8.06-6.33,10.36-4.26,2.65-9.44,.46-13.35-1.73-1.04-.58-2.19-1.04-2.99-1.84-1.04-.92-.92-1.96-.81-3.22,.35-2.99,.69-5.98,1.04-8.98,.35-2.88,.81-5.87,.92-8.75,.23-2.99-.35-5.75-1.15-8.63-.69-2.76-1.15-5.41-.92-8.29,.23-2.88,.81-5.64,1.61-8.4,.35-1.38,.81-2.76,1.27-4.03,.46-1.5-1.84-2.19-2.19-.69h0Z"/><path class="cls-7" d="M308.82,74c-18.53,2.99-34.07,14.5-47.07,27.51-6.68,6.68-12.89,13.93-18.99,21.18-3.34,4.03-6.56,8.17-7.71,13.47-1.15,5.18-.81,10.47-.35,15.65,2.07,23.82,4.14,47.65,6.44,71.35,.46,5.29,1.27,10.47,3.34,15.31,2.07,4.72,5.29,8.63,8.86,12.31,7.14,7.48,14.73,14.73,22.9,20.95,8.17,6.33,17.26,11.39,27.16,14.5,10.36,3.22,21.29,4.37,32.11,4.72,5.52,.12,10.93,.12,16.46,0,4.49-.12,10.59,.69,13.81-3.22,1.38-1.73,2.19-3.8,2.76-5.98,.92-2.88,1.73-5.75,2.53-8.63l5.18-17.26c6.79-22.9,13.81-45.8,20.49-68.71,1.61-5.52,2.76-10.93,1.96-16.69-.81-5.64-2.99-11.05-4.95-16.34-4.03-10.7-8.63-21.29-13.35-31.65-2.42-5.29-4.83-10.59-7.37-15.88-2.3-4.83-4.49-9.78-7.02-14.39-4.72-8.4-11.51-16.23-21.18-18.87-2.19-.58-4.6-.92-6.91-.81-1.27,.12-2.65,.46-3.91,.58-1.61,.12-3.34,.12-5.06,.12-5.52,.12-10.93,.23-16.46,.35-1.15,0-2.3,0-3.45,.12-1.5,0-1.5,2.3,0,2.3,8.29-.23,16.57-.23,24.74-.58,.92,0,1.73-.35,2.65-.46,2.3-.35,4.6-.12,6.79,.35,4.49,1.04,8.63,3.45,12.08,6.56,7.48,7.02,11.51,16.92,15.77,26.01,4.83,10.24,9.55,20.49,14.04,30.84,2.19,5.18,4.37,10.47,6.33,15.77,1.96,5.06,4.03,10.24,4.95,15.65,.92,5.75-.35,11.16-1.96,16.69s-3.34,11.05-4.95,16.57c-3.34,11.16-6.68,22.33-10.01,33.61-3.34,11.16-6.68,22.21-9.9,33.38-.81,2.76-1.73,5.64-2.53,8.4-.69,2.3-1.15,4.83-2.53,6.79-1.38,2.07-3.68,2.65-6.1,2.76-2.53,.12-5.06,.12-7.6,.23-20.95,.35-42.58-.46-61.34-10.93-8.75-4.95-16.57-11.28-23.82-18.18-3.68-3.45-7.37-7.02-10.82-10.7-3.45-3.68-6.79-7.71-8.63-12.54-1.84-4.83-2.42-10.01-2.88-15.19-.58-5.87-1.04-11.62-1.61-17.49-1.04-11.62-2.07-23.13-3.11-34.76-.58-5.87-1.04-11.62-1.61-17.49-.46-5.06-.92-10.36,.35-15.42,1.27-5.06,4.49-9.09,7.83-13,2.99-3.57,5.98-7.14,9.09-10.59,11.85-13.35,25.43-26.59,42.47-33.15,4.03-1.5,8.29-2.65,12.54-3.34,1.61,.35,1.04-1.96-.46-1.73Z"/><path class="cls-7" d="M300.65,86.89c-6.91,3.22-13.47,7.25-19.56,11.74-3.11,2.3-5.98,4.6-8.86,7.14-2.76,2.42-5.64,5.06-7.83,7.94-1.04,1.38-1.96,2.88-2.65,4.49-.81,1.84-1.27,3.91-1.5,5.87-.46,4.14-.35,8.4-.58,12.66-.23,8.63-.58,17.26-.81,25.78-.23,8.06-.69,16.11-.69,24.17,0,6.44,.35,13.12,2.3,19.22,1.96,5.98,5.64,11.28,11.16,14.62,5.29,3.11,11.62,3.91,17.72,3.22,6.44-.69,12.66-2.99,18.41-5.98,6.1-3.34,11.51-7.6,16.92-11.85,5.52-4.26,11.16-8.4,17.49-11.39,3.22-1.5,6.56-2.65,9.9-3.45,3.45-.81,7.02-1.61,10.13-3.68,5.64-3.68,7.83-10.47,8.75-16.8,1.15-7.71,1.5-15.65,1.04-23.48-.92-14.73-4.95-29.46-13.47-41.66-3.8-5.52-8.4-10.47-13.81-14.5-5.64-4.26-12.43-8.17-19.68-8.52-3.34-.12-6.79,.92-10.13,1.61-3.91,.81-7.71,1.61-11.62,2.53-.81,.12-1.5,.35-2.3,.46-1.5,.35-.81,2.53,.58,2.19,6.1-1.27,12.08-2.53,18.18-3.91,1.61-.35,3.11-.58,4.72-.58,3.68,.12,7.37,1.38,10.59,2.99,5.87,2.88,11.05,7.02,15.54,11.74,9.44,10.13,15.19,23.13,17.61,36.6,1.38,7.6,1.73,15.42,1.38,23.13-.12,3.68-.46,7.37-1.04,11.05-.46,3.11-1.15,6.21-2.53,9.09-1.38,2.88-3.34,5.18-6.1,6.79-3.11,1.73-6.56,2.3-9.9,3.22-6.68,1.73-12.77,4.95-18.41,8.75-10.93,7.37-20.72,17.03-33.38,21.41-5.64,1.96-11.85,2.99-17.84,2.07-5.87-.92-11.05-4.03-14.5-8.86-3.45-5.06-4.83-11.16-5.41-17.15-.58-6.91-.12-13.93,0-20.95,.23-8.4,.58-16.8,.81-25.2,.12-4.26,.23-8.4,.46-12.66,.12-4.14,.12-8.29,.46-12.31,.46-3.68,1.96-6.91,4.26-9.78,2.3-2.76,4.95-5.18,7.71-7.48,5.52-4.83,11.51-9.21,17.84-12.89,3.11-1.84,6.33-3.57,9.55-5.06,1.5-.92,.35-2.88-.92-2.3Z"/><path class="cls-7" d="M282.81,108.18c-7.48,2.53-12.54,9.09-15.31,16.34-3.34,8.86-2.76,18.3-1.84,27.62,.58,5.41,1.27,10.7,1.38,16.11,.12,5.29-.46,10.59-.81,15.88-.35,5.29-.58,10.47,.12,15.77,.58,4.37,1.61,9.9,6.68,10.93,2.19,.46,4.6,.35,6.79,.23,2.3-.12,4.6-.46,6.91-.92,4.49-.92,8.75-2.3,12.89-4.26,4.14-1.96,7.94-4.49,11.39-7.37,3.45-2.99,6.79-6.44,8.63-10.7,2.07-4.72,1.96-10.01,2.07-15.08,.12-5.52,.23-10.93,.12-16.46,0-5.52-.12-10.93-.35-16.46-.12-4.37-.35-8.63-1.04-12.89-.69-3.91-1.84-7.71-3.91-11.16-2.19-3.57-5.41-6.33-9.32-7.94-4.03-1.73-8.63-2.07-13-1.96-1.15,0-2.3,0-3.34,.12-.46,0-1.04,0-1.5,.12-.58,0-1.27,0-1.84,.12-.92,.23-1.84,.81-2.76,1.15-.81,.35-1.61,.69-2.42,1.04-.58,.23-.69,1.04-.46,1.61,.35,.58,1.04,.69,1.61,.46,1.61-.69,3.22-1.5,4.95-2.19-.23,0-.35,.12-.58,.12,7.6-.46,16.57-1.15,22.79,4.03,5.64,4.6,7.37,12.2,8.06,19.1,.35,4.26,.46,8.63,.58,12.89,.12,4.95,.23,10.01,.12,14.96,0,4.95-.12,10.01-.23,14.96-.12,4.49-.23,9.21-2.3,13.35-1.96,3.68-4.95,6.68-8.06,9.32-3.11,2.65-6.68,4.83-10.36,6.68-3.68,1.84-7.6,3.11-11.62,4.03-3.91,.81-8.17,1.38-12.2,1.04-2.07-.12-3.57-1.04-4.49-2.88-.92-1.84-1.27-4.03-1.61-6.1-.69-4.72-.58-9.55-.23-14.27,.35-4.83,.81-9.67,.92-14.5,.12-4.83-.35-9.78-.92-14.62-.92-8.75-2.19-17.95-.12-26.7,1.61-6.56,4.95-13.35,10.7-17.15,1.38-.92,2.88-1.61,4.37-2.19,1.5-.46,.92-2.76-.46-2.19Z"/><path class="cls-7" d="M285.11,115.2c-3.45,4.26-5.87,9.09-7.02,14.39-1.27,5.41-1.27,10.93-1.15,16.34,.12,5.52,.58,11.16,.23,16.69-.12,2.76-.58,5.41-1.27,8.06-.58,2.07-1.15,4.14-.92,6.33,.23,2.07,1.5,4.03,3.68,4.49,2.3,.46,4.37-.92,5.87-2.53,1.73-1.96,2.88-4.26,4.03-6.56,1.27-2.53,2.42-5.06,3.45-7.6,4.26-10.36,6.91-21.29,7.83-32.45,.46-5.29,.23-10.93-3.34-15.19-1.38-1.73-3.45-3.11-5.64-3.57-.81-.23-1.73-.35-2.53,0-.58,.35-1.15,.58-1.73,.92-.46,.23-.81,.46-1.27,.58-1.38,.69-.12,2.65,1.15,1.96,1.04-.58,2.19-1.04,3.22-1.61-.23,0-.35,.12-.58,.12,4.03,.12,6.91,3.8,7.94,7.37,.69,2.42,.69,4.83,.58,7.37-.12,2.42-.35,4.83-.69,7.25-1.27,9.55-3.91,19.1-7.71,27.97-.92,2.19-1.96,4.37-3.11,6.56-1.04,1.96-1.96,3.91-3.45,5.52-1.04,1.04-2.88,2.3-4.37,1.27-1.27-.92-1.15-2.65-.92-4.03,.23-2.07,1.04-4.03,1.38-6.1,.46-2.42,.69-4.72,.81-7.14,.23-4.83-.12-9.67-.23-14.5-.12-4.83-.23-9.67,.58-14.39,.81-4.6,2.3-8.98,4.95-13,.58-.92,1.27-1.84,1.96-2.76,.35-.46,.46-1.15,0-1.61-.46-.58-1.27-.69-1.73-.12Z"/><path class="cls-7" d="M47.69,205.43c-20.37-1.38-39.36,7.83-55.93,18.87-4.26,2.88-8.4,5.87-12.54,8.86-4.03,2.99-8.29,5.87-11.97,9.32-7.71,7.25-8.52,17.95-9.9,27.85-1.61,11.85-3.22,23.59-4.83,35.45-.81,5.87-1.61,11.74-2.42,17.61-.81,5.75-1.73,11.39-2.19,17.15-.46,5.64-.12,11.16,1.96,16.46,1.84,4.95,4.72,9.32,7.48,13.81,5.41,8.52,11.16,16.92,17.95,24.51,6.79,7.48,14.73,13.7,23.59,18.3,8.98,4.6,18.64,7.71,28.43,10.13,4.95,1.27,10.01,2.3,15.08,3.34,4.72,1.04,10.24,2.76,14.04-1.27,1.73-1.73,2.76-4.03,3.91-6.1,1.5-2.53,2.88-5.06,4.37-7.6,2.99-5.18,5.87-10.47,8.86-15.65,5.87-10.36,11.62-20.72,17.49-30.96,5.87-10.36,11.85-20.6,17.61-31.07,2.53-4.72,4.49-9.55,4.83-14.96,.35-5.64-.58-11.39-1.38-17.03-1.61-11.51-3.68-22.9-6.1-34.3-1.15-5.75-2.42-11.51-3.68-17.26-1.15-5.18-2.19-10.47-3.8-15.54-2.88-9.09-7.94-18.07-16.8-22.44-1.96-.92-4.03-1.61-6.21-1.96-1.15-.23-2.42-.12-3.57-.23-1.61-.23-3.34-.69-4.95-1.04-5.41-1.15-10.7-2.19-16.11-3.34-1.15-.23-2.19-.46-3.34-.69-1.5-.35-2.07,1.96-.58,2.19,8.06,1.61,16.11,3.34,24.17,4.95,.81,.12,1.61,.12,2.42,.12,2.19,.12,4.37,.69,6.33,1.61,4.03,1.84,7.6,4.83,10.24,8.4,6.1,8.29,7.83,18.87,10.01,28.66,2.42,11.16,4.83,22.33,6.91,33.49,1.04,5.52,1.96,11.05,2.65,16.57,.81,5.52,1.73,11.16,1.5,16.8-.23,5.41-2.19,10.24-4.83,14.96-2.76,5.06-5.64,10.01-8.52,15.08-5.64,10.13-11.39,20.14-17.03,30.27-5.64,10.13-11.39,20.14-17.03,30.27-1.5,2.53-2.88,5.06-4.37,7.6-1.27,2.19-2.3,4.49-3.8,6.44-1.61,2.19-3.57,3.11-6.33,2.88-2.53-.23-5.06-.92-7.6-1.38-19.22-4.03-39.13-8.86-54.78-21.29-7.71-6.1-14.16-13.7-19.91-21.64-2.88-4.03-5.64-8.29-8.29-12.43-2.76-4.26-5.52-8.63-7.25-13.47-1.96-5.29-1.96-10.82-1.5-16.34,.58-5.64,1.5-11.28,2.19-16.8,1.5-11.39,3.11-22.9,4.6-34.3,.81-5.75,1.61-11.62,2.3-17.38,.69-4.95,1.15-9.9,2.42-14.73,1.27-4.83,3.57-8.98,7.37-12.43,3.68-3.34,7.83-6.21,11.85-9.09,15.65-11.51,32.8-22.79,52.25-26.01,4.6-.81,9.44-.92,14.04-.69,2.19-.12,2.19-2.42,.69-2.53Z"/><path class="cls-7" d="M-12.5,267.81c-4.6,6.1-8.63,12.54-12.08,19.33-1.73,3.45-3.22,6.91-4.6,10.47-1.38,3.68-2.88,7.48-3.45,11.39-.35,2.07-.35,4.03-.12,6.1,.35,1.96,1.04,3.8,1.73,5.64,1.61,3.8,3.57,7.6,5.41,11.39,3.68,7.71,7.37,15.42,11.05,23.25,3.34,7.14,6.56,14.39,10.24,21.29,2.88,5.52,6.1,11.05,10.59,15.54,4.49,4.37,10.13,7.37,16.46,7.83,6.44,.35,12.77-2.07,18.07-5.75,5.64-3.91,10.24-9.21,13.93-14.96,3.68-5.87,6.44-12.2,9.44-18.41,2.99-6.1,6.1-12.31,10.47-17.61,2.19-2.65,4.72-5.06,7.25-7.25,2.53-2.3,5.18-4.6,6.79-7.83,3.34-6.91,1.04-14.73-1.5-21.41-2.65-6.79-5.75-13.35-9.55-19.56-7.48-12.2-17.72-22.9-30.38-29.69-6.33-3.34-13.12-5.75-20.14-6.79-6.79-1.04-14.27-1.15-20.49,1.96-2.88,1.38-5.29,3.8-7.71,5.75-3.11,2.53-6.1,4.95-9.21,7.48-.58,.46-1.15,.92-1.84,1.5-.46,.35-.46,1.27,0,1.61,.46,.46,1.15,.35,1.61,0,4.83-3.91,9.55-7.83,14.39-11.74,1.15-.92,2.19-1.73,3.45-2.42,2.88-1.5,6.21-2.19,9.44-2.42,6.79-.46,13.7,.81,20.14,2.99,13.24,4.49,24.51,13.47,33.03,24.4,4.26,5.52,7.94,11.62,10.93,17.84,1.5,3.22,2.88,6.44,4.14,9.67,1.27,3.34,2.53,6.79,2.88,10.36,.46,3.45,0,7.02-1.73,10.01-1.73,2.88-4.37,5.06-6.91,7.25-5.06,4.37-8.98,9.67-12.31,15.42-6.68,11.62-10.7,24.86-19.91,34.87-4.26,4.72-9.55,8.86-15.65,10.82-5.75,1.96-11.97,1.61-17.38-1.27-5.29-2.76-9.21-7.48-12.31-12.43-3.57-5.64-6.33-11.85-9.21-17.84-3.57-7.48-7.14-15.08-10.7-22.56-1.84-3.8-3.57-7.6-5.41-11.39-1.73-3.68-3.57-7.37-5.29-11.16-.69-1.73-1.38-3.57-1.61-5.41-.23-1.96-.12-4.03,.23-5.87,.69-3.8,2.19-7.48,3.57-10.93,2.76-6.79,6.1-13.35,10.01-19.56,1.96-3.11,4.03-6.1,6.21-8.98,.35-.46,.12-1.27-.46-1.61-.58-.12-1.15,.11-1.5,.69Z"/><path class="cls-7" d="M195.46,387.96c4.03-4.72,10.82-5.52,16.69-5.87,7.02-.35,14.16,.35,21.18-.12,5.52-.35,11.97-1.5,15.08-6.56,1.27-2.07,2.07-4.49,2.88-6.68,.92-2.53,1.61-5.29,1.73-8.06,0-2.76-.81-5.29-1.96-7.83-1.27-2.65-2.76-5.18-4.14-7.71-5.98-10.93-11.97-21.75-17.84-32.68-2.53-4.6-4.95-9.32-7.71-13.93-2.07-3.45-4.37-6.91-7.14-9.9-2.76-2.99-5.98-5.64-9.78-7.25-4.14-1.84-8.63-2.76-13.24-2.53-9.67,.35-18.76,4.6-26.47,10.13-8.29,5.87-15.65,13.24-21.64,21.41-6.1,8.17-10.93,17.26-16.23,25.89-5.41,8.98-11.39,17.61-18.99,24.86-3.8,3.68-8.06,6.91-11.74,10.82-3.68,4.03-6.21,8.75-6.44,14.27-.23,4.95,1.38,9.78,3.34,14.27,1.84,4.37,4.03,8.75,6.56,12.77,5.18,8.17,11.85,15.42,19.91,20.95,8.06,5.52,17.38,9.09,27.05,10.82,5.18,.92,10.59,1.38,15.88,1.27,2.76,0,5.52-.23,8.29-.58,1.38-.12,2.76-.35,4.14-.58,.92-.12,1.84-.23,2.65-.46,1.38-.46,2.42-1.84,3.11-2.99,1.15-1.73,1.96-3.68,2.76-5.64,2.19-5.29,3.68-10.93,5.18-16.46,1.61-5.98,2.99-11.97,4.26-17.95,.92-4.03,1.73-8.17,2.53-12.2,.12-.58,.23-1.15,.35-1.73,.23-1.5-1.96-2.07-2.19-.58-.46,2.19-.81,4.49-1.27,6.68-1.04,5.18-2.19,10.36-3.34,15.54-1.38,5.98-2.88,11.85-4.6,17.72-.81,2.53-1.61,5.18-2.65,7.71-.69,1.84-1.5,3.68-2.53,5.52-.23,.35-.46,.69-.69,1.04,0,.12-.12,.12-.12,.23-.12,.23,.12-.12,0,0s-.23,.23-.35,.46c-.23,.23-.35,.46-.58,.58,.35-.23,0,0-.12,.12s-.46,.12-.12,.12c-.69,.23-1.5,.35-2.19,.46-1.38,.23-2.76,.46-4.14,.58-2.76,.35-5.41,.46-8.17,.58-10.01,.23-20.03-1.5-29.35-5.18-8.75-3.45-16.69-8.86-23.13-15.77-6.44-6.79-11.28-14.96-14.96-23.48-1.84-4.37-3.45-9.09-2.99-13.93,.46-5.29,3.34-9.67,7.02-13.24,3.68-3.68,7.94-6.91,11.62-10.59,3.68-3.68,6.91-7.6,10.01-11.74,5.87-8.17,10.82-16.92,16-25.55,2.53-4.26,5.18-8.4,8.06-12.43,2.88-3.91,6.1-7.6,9.55-11.16,6.91-6.91,14.96-13.12,24.17-16.8,8.17-3.22,17.61-4.26,25.66-.23,7.14,3.57,11.97,10.36,15.88,17.03,2.65,4.6,5.18,9.44,7.71,14.04,2.88,5.29,5.75,10.59,8.75,15.88,2.88,5.29,5.87,10.7,8.75,16,2.53,4.72,5.98,9.44,5.52,15.08-.23,2.76-1.15,5.41-2.19,7.94-.69,1.73-1.38,3.68-2.53,5.18-1.5,1.84-3.68,2.99-5.98,3.68-2.88,.81-5.87,1.04-8.86,1.15-3.45,.12-6.91,0-10.36,0-6.56-.12-13.58-.35-19.91,1.96-2.65,.92-5.18,2.42-7.02,4.6-1.27,.46,.34,2.07,1.38,1.04Z"/><path class="cls-7" d="M-9.85,307.05c-2.88,3.22-5.06,7.02-6.1,11.16-1.04,3.91-1.04,7.94-.35,11.85,1.5,8.75,7.14,15.65,12.66,22.21,2.99,3.57,5.87,7.02,8.4,10.93,2.3,3.68,4.14,7.71,6.1,11.51,1.96,3.8,4.14,7.6,6.91,10.82,1.38,1.61,2.99,3.22,4.83,4.37,1.96,1.27,4.37,1.61,6.56,.81,2.3-.81,4.37-2.19,6.44-3.57,1.96-1.27,3.8-2.76,5.52-4.14,3.45-2.88,6.68-6.1,9.55-9.55,2.76-3.34,5.29-7.02,7.37-10.93,2.19-4.14,4.14-8.63,4.83-13.24,.35-2.42,.35-4.95-.35-7.25-.69-2.3-1.73-4.49-2.99-6.56-2.65-4.6-5.29-9.09-8.17-13.47-2.76-4.49-5.75-8.86-8.75-13.24-2.3-3.45-4.72-6.91-7.6-9.9-2.76-2.88-5.98-5.29-9.78-6.56-4.26-1.5-8.75-1.27-13,0-4.72,1.38-9.09,3.91-13.24,6.56-1.04,.69-2.07,1.38-3.11,2.19-.69,.46-1.5,.92-2.07,1.5-.69,.81-1.38,1.73-2.07,2.53-.58,.69-1.15,1.38-1.61,1.96-.35,.46-.46,1.15,0,1.61,.35,.35,1.27,.46,1.61,0,1.15-1.5,2.3-2.99,3.57-4.49,.35-.46,1.04-.81,1.61-1.15,1.04-.69,1.96-1.38,2.99-2.07,1.96-1.27,4.03-2.53,6.21-3.68,4.03-2.07,8.4-3.8,12.89-3.8,3.8,0,7.37,1.27,10.47,3.57,2.99,2.07,5.52,4.95,7.71,7.94,2.88,3.8,5.41,7.83,8.06,11.74,2.76,4.26,5.52,8.52,8.06,12.89,1.27,2.19,2.65,4.37,3.91,6.56,1.15,1.96,2.19,3.91,2.88,6.1,1.38,4.6,.12,9.44-1.61,13.81-1.5,3.8-3.45,7.48-5.75,10.82-4.72,7.14-10.93,13.35-18.07,18.18-1.84,1.27-3.8,2.65-5.87,3.45-1.04,.35-2.19,.58-3.22,.35-.92-.23-1.84-.69-2.65-1.38-3.22-2.53-5.64-5.87-7.71-9.32-2.07-3.57-3.91-7.37-5.75-11.05-1.96-3.91-4.26-7.48-7.02-10.93-2.76-3.45-5.75-6.79-8.4-10.36-2.53-3.22-5.06-6.79-6.56-10.7-2.76-6.91-2.88-15.08,.81-21.75,.92-1.84,2.19-3.45,3.57-4.95,.92-.81-.81-2.42-1.73-1.38Z"/><path class="cls-7" d="M-6.63,333.29c.81,4.49,3.11,8.63,6.79,11.28,1.5,1.04,3.22,1.84,4.95,2.19,2.76,.58,5.64,.23,8.52-.12,2.88-.35,5.75-.81,8.63-.58,2.88,.23,5.75,.92,8.63,1.04,2.53,.12,5.75-.12,7.71-1.84,2.07-1.84,1.96-5.06,1.96-7.6,0-5.64-.69-11.28-2.3-16.69-.69-2.42-1.61-4.95-2.76-7.25-1.15-2.3-2.53-4.72-4.6-6.33-2.3-1.73-5.29-1.73-7.94-1.96-3.11-.23-6.33-.35-9.44-.35-4.49,0-9.55-.35-13.58,1.84-4.37,2.42-6.21,7.25-6.91,11.97-.35,2.76-.46,5.52-.46,8.29,0,.92-.12,1.84,.12,2.76,.12,.69,.35,1.38,.46,2.07,0,.35,.12,.81,.23,1.27,.35,1.5,2.53,.81,2.19-.58-.23-1.04-.46-2.07-.81-3.11-.12-.69-.12-1.27-.12-2.07,0-1.27,0-2.53,.12-3.8,.23-4.37,.69-9.67,3.91-13,2.65-2.76,6.44-3.11,10.01-3.22,2.88-.12,5.87,0,8.75,0,2.76,.12,5.64,.12,8.52,.46,1.15,.12,2.3,.46,3.34,1.15,.92,.58,1.61,1.5,2.3,2.42,1.38,1.96,2.42,4.14,3.22,6.33,1.84,4.72,2.88,9.78,3.22,14.85,.23,2.65,.35,5.29,0,7.94-.12,1.04-.35,2.19-1.27,2.88-.92,.69-2.19,.92-3.22,1.04-2.65,.35-5.29-.12-7.83-.58-2.76-.46-5.29-.69-8.06-.35-4.6,.46-9.67,1.96-14.27,.12-3.34-1.38-5.87-4.37-7.14-7.83-.35-1.04-.69-2.19-.92-3.34-.12-.58-.81-.92-1.38-.81-.46,.23-.69,.81-.58,1.5Z"/><path class="cls-7" d="M299.73-35.56c-2.3,8.52-4.83,17.38-3.8,26.35,.81,6.79,3.68,13.81,9.09,18.18,2.99,2.42,6.44,3.8,10.13,4.72,4.37,1.15,8.98,1.84,13.47,2.65,8.98,1.5,18.07,2.65,27.28,3.45,8.63,.69,17.61,1.04,25.66,4.37,6.44,2.65,12.77,7.6,15.08,14.5,2.88,8.17-1.04,16.69-.12,24.97,.69,6.21,4.03,11.51,7.83,16.23,3.91,4.83,8.4,9.21,11.51,14.62,1.5,2.53,2.53,5.29,2.88,8.29,.46,4.26-.46,8.52,.92,12.66,2.19,6.56,8.06,10.59,12.08,16,4.83,6.44,5.29,14.73,7.37,22.21,3.8,13.24,11.74,25.32,22.1,34.3,5.18,4.49,11.05,8.29,17.38,11.05,6.44,2.88,13.93,5.52,21.06,4.49,3.57-.46,6.68-2.19,9.21-4.72,2.53-2.65,4.26-5.98,6.56-8.86,4.37-5.64,11.16-8.29,18.07-8.98,15.08-1.61,29.92,4.6,45,1.96,3.68-.69,7.14-1.96,10.36-3.8,1.27-.81,.12-2.76-1.15-1.96-13.7,8.17-30.27,2.07-45,1.38-6.68-.35-13.58,.23-19.79,2.99-2.99,1.38-5.64,3.22-7.94,5.64-2.3,2.53-4.03,5.64-6.21,8.4-2.42,3.11-5.29,5.29-9.21,5.87-3.91,.58-7.94-.23-11.62-1.27-6.56-1.96-12.77-4.95-18.53-8.75-11.51-7.71-20.72-18.99-25.89-31.76-1.27-3.22-2.3-6.56-3.11-9.9-.92-3.91-1.5-7.83-2.76-11.51-1.15-3.45-2.88-6.56-5.18-9.32-2.19-2.65-4.6-4.95-6.79-7.48-2.3-2.76-4.14-5.75-4.49-9.32-.35-3.8,.23-7.71-.69-11.51-1.27-5.75-4.95-10.59-8.75-14.96-3.91-4.6-8.17-8.98-10.93-14.5-1.5-3.11-2.3-6.33-2.3-9.78,0-4.26,.92-8.52,1.15-12.77,.35-3.91,0-7.83-1.5-11.39-1.27-3.11-3.22-5.75-5.64-8.06-5.41-5.18-12.43-7.94-19.68-9.44-8.52-1.61-17.15-1.73-25.78-2.65-9.09-1.04-18.18-2.42-27.16-4.14-4.03-.81-8.17-1.61-11.74-3.8-2.99-1.84-5.41-4.49-7.02-7.6-3.91-7.02-4.03-15.31-2.65-23.02,.81-4.37,1.96-8.75,3.11-13,.81-1.84-1.5-2.42-1.84-1.04h0Z"/><path class="cls-7" d="M470.41-31.42c-12.66,3.57-23.48,12.77-29.12,24.74-6.79,14.39-4.37,30.61-6.21,45.92-.46,3.91-1.38,7.83-2.65,11.62-1.27,3.68-2.88,7.25-4.26,10.82-1.38,3.57-2.53,7.14-2.99,10.93-.46,3.68-.12,7.37,1.04,10.93,2.3,7.02,6.91,12.89,9.9,19.56,3.22,7.37,4.49,15.42,7.14,23.02,4.37,12.31,12.43,23.13,22.67,31.07,9.9,7.71,22.44,13.35,35.1,14.16,5.87,.35,11.97-.46,17.26-2.99,5.18-2.53,8.98-6.91,10.47-12.43,1.5-5.41,1.27-11.16,2.88-16.57,.69-2.3,1.84-4.49,3.8-5.98,2.76-1.96,6.33-1.73,8.86-4.03,2.65-2.42,2.99-6.44,3.22-9.78,.35-4.03,.23-8.06,.35-12.08,.12-4.03,.35-8.17,1.38-12.08,.92-3.57,2.65-6.79,4.6-9.78,8.17-11.97,21.87-19.8,26.59-34.07,1.15-3.34,1.5-6.79,1.15-10.24-.12-1.5-2.42-1.5-2.3,0,1.73,15.08-11.97,25.66-21.06,35.45-4.72,5.06-9.09,10.7-11.05,17.38-2.3,7.6-1.5,15.65-1.84,23.48-.12,1.96-.23,3.8-.58,5.75-.35,1.5-.81,3.11-1.96,4.26-1.27,1.15-2.99,1.61-4.6,2.07-1.5,.46-2.88,1.04-4.03,1.84-4.37,3.11-5.29,8.75-5.98,13.7-.69,5.41-1.04,11.16-4.26,15.77-3.22,4.49-8.75,6.79-14.04,7.71-5.87,1.04-11.85,.46-17.49-.92-6.1-1.5-11.97-3.91-17.49-7.02-10.93-6.33-20.14-15.77-26.01-27.05-3.34-6.33-5.18-13.12-7.02-20.03-1.04-3.8-2.19-7.48-3.68-11.05-1.38-3.34-3.22-6.44-5.06-9.67-1.73-3.11-3.57-6.21-4.72-9.55-1.15-3.45-1.61-7.14-1.04-10.82,1.04-7.37,4.83-14.04,7.14-21.06,5.18-14.96,2.19-30.96,5.29-46.27,1.38-6.68,4.03-12.89,8.06-18.3,3.8-5.06,8.75-9.32,14.39-12.31,2.76-1.5,5.64-2.65,8.63-3.57,1.61-.69,1.04-2.88-.46-2.53h0Z"/><path class="cls-7" d="M481.68-27.05c-6.79,11.62-13.24,23.48-19.1,35.56-2.99,6.1-5.87,12.2-8.63,18.3-2.65,5.98-5.52,11.97-7.37,18.3-.92,3.11-1.5,6.33-1.61,9.67-.12,3.22,.35,6.44,1.04,9.55,1.38,6.21,3.8,12.2,4.95,18.41,1.15,5.98,1.27,12.08,2.42,18.07,.58,2.88,1.38,5.75,2.53,8.52,1.15,2.76,2.88,5.18,4.72,7.48,1.84,2.3,3.91,4.6,5.75,6.91,1.84,2.42,3.57,5.06,4.72,7.83,1.27,2.76,2.19,5.75,2.65,8.75,.46,2.53,.46,5.06,1.15,7.48,.58,2.3,1.61,4.49,3.57,5.87,2.42,1.73,5.75,1.5,8.63,1.5h10.59c3.11,0,6.44,.12,9.32-1.15,4.72-2.07,7.02-7.25,8.52-11.97,2.19-6.56,4.14-13.12,6.1-19.68,4.14-13.24,8.17-26.59,12.43-39.82,1.96-5.98,4.14-11.85,8.29-16.57,3.91-4.6,8.75-8.4,12.77-12.89,7.6-8.75,12.77-19.45,14.96-30.84,.46-2.76,.81-5.52,1.04-8.4,.12-1.5-2.19-1.5-2.3,0-.69,11.28-4.49,22.33-10.82,31.76-3.22,4.83-7.14,8.86-11.39,12.77-4.37,4.14-8.4,8.52-11.05,14.04-2.76,5.64-4.37,11.85-6.21,17.84-2.07,6.56-4.14,13.12-6.21,19.8-2.07,6.56-4.14,13.12-6.21,19.8-1.04,3.22-2.07,6.56-3.11,9.78-.69,2.42-1.5,4.83-2.65,7.02-1.15,2.07-2.53,4.03-4.72,5.18-2.76,1.5-6.1,1.15-9.09,1.15h-10.36c-2.65,0-5.87,.35-7.94-1.61-1.61-1.5-2.07-3.91-2.42-6.1-.46-2.65-.58-5.29-1.27-7.94-1.38-5.87-4.26-11.16-8.06-15.77-3.68-4.49-7.83-8.63-10.01-14.16-2.19-5.52-2.65-11.39-3.22-17.15-.35-2.88-.69-5.87-1.27-8.75-.58-3.11-1.5-6.1-2.42-9.21-1.84-5.98-3.68-12.08-3.22-18.41,.46-6.44,2.88-12.54,5.29-18.41,2.53-5.98,5.29-11.97,8.06-17.84,5.64-11.85,11.74-23.59,18.18-35.1,1.61-2.76,3.22-5.52,4.83-8.29,.92-1.38-1.15-2.53-1.84-1.27h0Z"/><path class="cls-7" d="M496.18-26.7c-5.75,10.01-10.01,20.95-13,32.11s-4.83,22.67-6.1,34.18c-1.27,11.62-2.07,23.25-2.65,34.87-.23,4.83-.35,9.78,.23,14.62,.58,4.72,1.61,9.44,4.14,13.58,1.15,1.96,2.65,3.8,4.37,5.29,2.19,1.84,4.83,3.45,7.71,2.3,2.19-.92,4.03-2.76,5.52-4.49,1.38-1.61,2.65-3.22,3.68-5.06,4.49-7.25,7.02-15.42,10.7-23.13,1.73-3.57,3.8-7.14,6.44-10.01,2.99-3.22,6.56-5.18,10.7-6.56,4.95-1.61,10.01-2.99,13.35-7.25,1.73-2.19,2.76-4.83,3.8-7.48,1.27-3.11,2.42-6.21,3.68-9.32,4.95-12.43,9.78-24.97,14.73-37.4,4.03-10.24,10.47-23.02,3.91-33.49-1.27-1.96-2.99-3.68-4.95-4.83-1.27-.69-2.42,1.27-1.15,1.96,4.03,2.3,6.21,6.91,6.68,11.51,.58,5.87-1.61,11.62-3.68,17.03-4.72,12.08-9.55,24.28-14.27,36.37-2.42,6.1-4.72,12.2-7.14,18.18-.92,2.42-2.07,4.95-3.8,6.91-1.61,1.84-3.8,2.99-5.98,3.8-4.49,1.73-9.21,2.65-13.12,5.41-3.22,2.19-5.75,5.18-7.94,8.52-4.49,7.02-6.91,14.96-10.36,22.44-1.73,3.68-3.68,7.25-6.33,10.24-1.38,1.61-2.99,3.45-4.83,4.37-2.53,1.27-4.83-.81-6.44-2.42-6.68-6.56-7.48-16.8-7.37-25.66,.12-5.29,.46-10.47,.81-15.77,.35-5.64,.81-11.39,1.27-17.03,1.04-11.28,2.53-22.56,4.95-33.61,2.42-10.93,5.87-21.64,10.7-31.76,1.15-2.53,2.53-4.95,3.91-7.25,.57-1.27-1.5-2.42-2.19-1.15h0Z"/><path class="cls-7" d="M499.98-24.51c4.72,7.48,7.14,16.23,6.79,24.97-.23,4.72-1.27,9.44-.12,14.04,.92,3.8,3.34,7.25,7.25,8.52,4.03,1.27,8.29-.12,11.85-1.73,1.96-.92,3.91-2.07,5.75-3.22,2.19-1.27,4.37-2.65,6.56-3.91,2.19-1.27,4.37-2.65,6.56-3.91,1.84-1.15,3.8-2.19,5.64-3.45,1.73-1.27,3.22-2.65,4.26-4.49,1.04-1.84,1.5-3.91,1.73-6.1,.23-2.19,.12-4.37,.12-6.44,0-2.53-.12-5.06-.12-7.6-.12-5.06-.12-10.13-.23-15.08,0-1.27,0-2.42-.12-3.68,0-1.5-2.3-1.5-2.3,0,.12,9.55,.46,19.22,.46,28.89,0,3.91-.23,8.06-3.11,11.05-1.38,1.38-2.99,2.42-4.72,3.45-2.07,1.27-4.03,2.42-6.1,3.68-4.14,2.42-8.17,4.95-12.31,7.25-3.34,1.84-7.14,3.8-11.05,3.57-3.8-.12-6.44-2.88-7.6-6.33-1.38-4.26-.46-8.75-.23-13.12,.58-8.52-1.27-17.26-5.29-24.74-.46-.92-1.04-1.84-1.61-2.76-.92-1.27-2.88-.12-2.07,1.15h0Z"/><path class="cls-7" d="M154.61,166.07c-38.55-1.61-77.22,5.75-112.56,21.18-8.86,3.91-17.61,8.29-26.59,11.85-9.32,3.68-18.87,6.44-28.89,7.71-9.78,1.27-19.79,1.15-29.69-.35-4.14-.58-8.63-1.38-12.66,.46-3.45,1.61-5.87,4.72-7.48,8.06-7.48,15.54-2.99,33.84,.92,49.72,2.19,8.86,4.49,17.61,5.29,26.7,.46,4.49,.58,9.21-.12,13.81s-2.53,8.52-5.64,11.85c-2.88,3.22-6.21,5.98-9.09,9.09-2.76,3.11-5.29,6.44-7.37,10.01-4.03,7.02-6.56,15.19-5.98,23.36,.58,8.4,4.72,15.77,9.9,22.33,5.29,6.68,11.51,12.77,17.95,18.3,12.66,10.82,27.05,19.45,42.47,25.78,16.34,6.56,33.38,9.78,50.98,10.93,10.13,.69,20.26,.92,30.27,2.19,9.78,1.27,19.33,3.91,28.54,7.14,9.32,3.34,18.53,7.25,27.85,10.47s18.76,5.98,28.43,8.06c9.44,2.07,19.1,4.03,28.66,4.72,8.06,.58,16.69-.46,22.56-6.56,11.74-12.2,6.91-30.73,9.78-45.8,1.38-7.37,5.06-13.47,10.82-18.3,5.06-4.14,10.93-7.25,16.69-10.36,11.28-6.21,23.25-13.7,25.09-27.62,1.15-8.75-1.73-17.61-5.41-25.43-3.91-8.52-8.98-16.46-14.04-24.28-5.29-8.17-10.93-16-16.8-23.71-5.41-6.91-11.16-13.47-16.69-20.37-5.29-6.68-10.47-13.7-14.04-21.52-1.73-3.8-3.11-7.83-3.91-11.97-.92-4.37-.92-8.86-.81-13.35,.23-8.29,.92-17.15-3.68-24.63-4.14-6.68-11.16-10.93-16.34-16.69-2.53-2.88-4.6-5.87-7.71-8.17-3.11-2.3-6.56-3.91-10.36-4.83-1.38-.35-2.07,1.84-.58,2.19,4.14,1.04,7.94,2.99,11.16,5.87,2.88,2.53,4.83,5.75,7.6,8.52,5.41,5.29,12.31,9.67,15.54,16.8,3.8,8.17,1.84,17.72,2.07,26.35,.23,7.94,2.3,15.54,5.75,22.67,7.48,15.08,19.68,27.28,29.92,40.4,5.98,7.6,11.62,15.54,16.92,23.71,4.95,7.71,9.9,15.54,13.81,23.82,3.8,7.94,6.79,17.03,5.06,25.89-1.27,6.68-5.29,12.08-10.47,16.23-9.78,7.83-22.21,11.62-31.65,20.14-5.18,4.72-8.63,10.7-10.01,17.61-1.73,8.4-.92,17.03-1.73,25.55-.69,7.14-2.65,14.96-7.83,20.14-6.33,6.33-15.77,6.21-24.05,5.18-19.33-2.3-38.44-7.02-56.74-13.7-8.86-3.22-17.61-6.91-26.59-10.01-9.21-3.11-18.41-5.41-28.08-6.56-18.64-2.19-37.4-1.5-55.82-5.52-16.11-3.57-31.65-9.9-45.69-18.53-13.93-8.52-26.93-19.45-37.17-32.34-5.52-6.91-9.55-14.85-9.32-23.82,.23-8.17,3.45-16.11,8.06-22.79,2.42-3.57,5.29-6.68,8.4-9.55,2.99-2.88,6.1-5.64,8.29-9.09,4.6-7.14,4.26-16.57,3.45-24.74-1.84-17.15-8.63-33.49-9.9-50.75-.58-8.17,0-17.38,4.14-24.63,2.19-3.8,5.41-6.44,10.01-6.68,4.6-.12,9.21,1.04,13.81,1.5,19.22,1.73,37.98-2.07,55.7-9.44,8.52-3.57,16.92-7.71,25.43-11.39,8.86-3.8,17.95-7.14,27.16-9.9,18.18-5.41,36.94-8.86,55.82-10.13,9.09-.58,18.18-.69,27.28-.35,1.27-.12,1.27-2.42-.12-2.42Z"/><path class="cls-7" d="M129.98,192.43c-7.02,1.38-14.73,4.49-16.8,12.08-2.3,8.4,2.65,16.23,7.25,22.79,2.42,3.57,4.83,7.14,6.56,11.16,1.73,3.8,2.99,7.94,3.8,12.08,.81,4.14,1.15,8.4,.92,12.54-.12,3.8-.58,8.29,2.53,11.16,2.42,2.3,6.1,2.76,9.21,1.84,3.57-1.04,6.21-3.8,7.83-7.02,1.96-3.8,2.53-7.94,3.11-12.2,.58-4.37,1.5-8.63,3.45-12.77,3.57-7.37,9.32-13.24,13.12-20.37,1.84-3.34,3.22-6.91,3.34-10.82,.23-3.91-1.04-7.71-3.34-10.93-4.26-6.21-11.39-10.36-18.64-11.97-3.57-.81-7.37-1.04-11.05-.58-1.84,.23-3.68,.58-5.52,1.15-1.15,.35-2.19,.81-3.34,1.15-.81,.23-1.61,.46-2.42,.69-1.38,.35-.81,2.65,.58,2.19,.81-.23,1.73-.46,2.53-.69,1.04-.23,2.07-.69,3.22-1.04,3.34-1.04,6.79-1.5,10.13-1.27,6.91,.23,13.81,2.88,18.99,7.6,2.76,2.42,5.06,5.52,6.1,9.09,.92,3.34,.58,6.91-.58,10.13-2.53,7.14-7.83,12.77-11.97,18.99-2.19,3.45-4.14,7.14-5.29,11.05-1.27,4.14-1.5,8.52-2.3,12.77-.69,3.57-1.84,7.25-4.37,9.9-2.07,2.19-5.06,3.45-8.06,2.88-1.38-.23-2.65-.92-3.57-1.96-1.15-1.38-1.5-3.11-1.5-4.83-.12-1.96,.12-3.91,.12-5.87,0-2.07-.12-4.14-.35-6.33-.81-8.06-3.34-15.88-7.37-22.9-4.03-6.91-10.13-13-11.28-21.18-.46-3.45,.12-7.25,2.42-10.01,2.07-2.53,5.06-4.14,8.17-5.18,1.61-.58,3.22-.92,4.95-1.27,1.5-.12,.92-2.42-.58-2.07Z"/><path class="cls-7" d="M138.72,337.32c-3.57,5.98-9.32,10.01-14.39,14.5-5.06,4.49-9.32,9.67-12.08,16-5.29,12.2-4.95,26.47,1.61,38.09,6.21,10.93,17.61,19.45,30.15,21.41,5.06,.81,12.31,0,14.16-5.75,.58-1.96,.23-4.03,0-5.98-.23-1.84-.35-3.57-.12-5.41,.35-3.57,1.73-7.02,3.45-10.13,1.84-3.22,3.91-6.33,6.21-9.21,2.53-3.34,5.18-6.68,7.71-10.01,2.65-3.45,5.29-6.79,7.94-10.24,2.19-2.88,4.26-6.1,8.06-6.79,1.96-.35,4.03-.35,5.98-.35,2.19,0,4.26-.12,6.44-.12,4.37-.12,8.63-.12,13-.35,1.84-.12,3.68-.35,5.18-1.27,1.15-.81,2.07-1.84,2.65-3.11,1.27-2.76,1.15-5.87,.81-8.86-.46-3.22-1.15-6.33-1.96-9.44-.81-3.22-1.61-6.56-2.65-9.78-2.07-6.33-4.83-12.54-8.75-17.95-1.96-2.65-4.14-5.06-6.68-7.25-2.88-2.42-6.1-4.37-9.78-4.72-6.68-.58-12.54,4.6-15.42,10.24-3.45,6.91-3.45,14.85-5.29,22.21-.81,3.11-1.84,6.21-3.68,8.98-1.61,2.42-3.8,4.83-6.68,5.75-4.26,1.61-10.7,.69-12.66-4.03-1.04-2.42-.92-5.41-2.88-7.37-.81-.81-1.96-1.27-3.11-1.04-.69,.12-1.38,.23-1.96,.35-1.5,.23-2.99,.58-4.49,.81-1.5,.23-.81,2.53,.58,2.19,1.5-.35,3.11-.58,4.6-.92,.58-.12,1.27-.35,1.84-.35,0,0-.23,0,0,0,.23,.12,.35,.12,.58,.23,.35,.23,.58,.69,.81,1.15,1.15,2.3,1.04,4.95,2.53,7.14,1.5,2.19,3.8,3.68,6.33,4.26,2.53,.69,5.29,.58,7.83-.12,2.88-.92,5.29-2.76,7.14-5.06,4.37-5.41,5.64-12.31,6.68-18.99,1.15-6.91,2.3-14.39,7.6-19.56,2.19-2.07,5.06-3.68,8.06-3.91,3.45-.23,6.56,1.5,9.09,3.68,10.24,8.29,14.85,21.29,17.84,33.72,.81,3.11,1.5,6.33,1.96,9.55,.35,2.53,.58,5.41-.58,7.83-.46,1.04-1.27,1.96-2.42,2.53-1.61,.81-3.68,.58-5.52,.69-4.26,.12-8.63,.23-12.89,.35-2.07,0-4.26,.12-6.33,.12-1.84,0-3.68,.12-5.52,.69-3.57,1.04-5.75,4.14-7.94,6.91-5.18,6.68-10.36,13.35-15.42,20.03-4.37,5.64-8.86,11.85-10.36,18.99-.35,1.73-.58,3.45-.46,5.18,0,1.96,.58,3.8,.58,5.64,.12,1.38-.23,2.76-1.04,3.91-.69,.92-1.73,1.5-2.76,1.96-2.42,.92-5.29,1.04-7.83,.69-2.99-.46-5.98-1.38-8.75-2.53-5.64-2.42-10.82-6.1-14.85-10.7-4.14-4.6-7.14-10.13-8.75-16-1.73-6.21-1.73-12.77-.46-19.1,1.38-6.21,4.03-12.2,8.06-17.15,4.26-5.29,9.9-9.09,14.73-13.7,2.3-2.19,4.49-4.72,6.21-7.48,.81-1.15-1.15-2.3-1.96-1.04Z"/><path class="cls-7" d="M137.8,355.73c-4.37,2.65-8.86,5.52-12.54,9.21-3.57,3.34-6.56,7.6-7.6,12.43-1.27,5.98,.81,11.74,3.57,17.03,1.38,2.53,2.76,5.18,4.49,7.6,1.73,2.3,4.03,4.03,6.91,4.49,2.88,.46,5.64,0,8.4-.81,1.38-.35,2.76-.92,4.03-1.38,1.38-.46,2.65-1.04,3.8-1.96,2.19-1.61,3.11-4.14,3.68-6.79,.46-2.65,.69-5.29,1.5-7.83,.81-2.65,2.07-5.18,3.68-7.48,1.61-2.19,3.57-4.03,5.64-5.75,1.84-1.61,3.91-3.45,4.37-5.98,.46-2.53-.81-4.83-2.88-6.44-2.3-1.84-5.06-2.88-7.71-4.14-3.11-1.5-6.21-2.99-9.32-4.37-.81-.46-1.96-1.27-2.88-.92-.58,.23-1.04,.46-1.61,.58-1.5,.58-2.99,1.15-4.49,1.73-.35,.12-.58,.23-.92,.35-.58,.23-1.04,.81-.81,1.38,.12,.58,.81,1.04,1.38,.81,2.42-.92,4.72-1.84,7.14-2.76-.35,0-.58-.12-.92-.12,5.06,2.42,10.24,4.72,15.31,7.25,1.73,.81,3.57,1.84,4.6,3.45,1.04,1.61,.69,3.45-.58,4.95-1.38,1.61-3.22,2.88-4.72,4.37-1.73,1.61-3.22,3.34-4.49,5.29-1.27,1.96-2.3,4.14-3.11,6.33-.69,2.19-1.04,4.37-1.38,6.56-.35,2.07-.58,4.26-1.73,5.98-1.27,1.96-3.45,2.65-5.52,3.34-4.14,1.5-9.32,3.11-13.35,.58-1.96-1.27-3.11-3.22-4.26-5.18-1.27-2.19-2.65-4.49-3.68-6.79-2.07-4.26-3.22-8.98-2.07-13.7,1.96-8.17,9.67-13.7,16.34-18.07,.92-.58,1.84-1.15,2.65-1.73,1.5-.35,.35-2.3-.92-1.5Z"/><path class="cls-7" d="M478.23,321.32c8.29,.35,18.3,.35,24.74-5.87,3.57-3.45,4.95-8.29,5.41-13.12,.23-2.53,.46-5.18,.35-7.71-.12-2.53-.69-4.95-2.42-6.91-1.38-1.61-3.34-2.65-5.29-3.45-2.07-.81-4.37-1.5-6.68-1.84-1.38-.23-2.76-.35-4.03,.12-1.15,.35-2.07,.92-2.99,1.61-1.73,1.38-3.11,3.34-4.72,4.95-3.45,3.45-8.17,5.52-13,6.1-2.07,.23-4.37,.35-6.21,1.5-2.19,1.27-2.88,3.68-2.42,6.1,.58,2.65,2.42,5.06,3.91,7.37,1.61,2.53,3.22,5.18,4.95,7.71,.46,.81,.92,1.84,1.84,2.19l1.38,.35c1.38,.35,2.76,.58,4.14,.92,.23,.12,.58,.12,.81,.23,1.5,.35,2.07-1.96,.58-2.19-2.19-.46-4.37-.92-6.44-1.38,.23,.23,.46,.35,.69,.58-2.65-4.26-5.41-8.4-8.06-12.66-.92-1.5-2.19-3.68-1.38-5.52,.58-1.5,2.42-1.96,3.91-2.19,1.84-.35,3.8-.35,5.64-.81,2.07-.46,4.03-1.27,5.87-2.19,1.84-.92,3.57-2.19,5.06-3.57,1.38-1.27,2.53-2.76,3.8-4.14,1.27-1.27,2.65-2.42,4.49-2.53,1.96-.12,4.14,.58,5.98,1.15,3.11,.92,6.79,2.42,7.94,5.75,.69,2.07,.58,4.26,.46,6.44-.12,2.07-.23,4.14-.46,6.21-.58,3.91-1.96,7.48-4.95,10.13-2.53,2.19-5.75,3.34-9.09,4.03-3.57,.69-7.25,.81-10.93,.81-.92,0-1.73,0-2.65-.12-1.73-.46-1.73,1.84-.23,1.96Z"/><path class="cls-7" d="M492.85,454.94c3.45-21.06-4.49-41.55-14.39-59.73-2.53-4.72-5.29-9.32-8.06-13.93-2.65-4.37-5.18-9.21-8.86-12.77-3.34-3.34-7.71-5.29-12.08-6.79-5.18-1.61-10.47-2.65-15.65-3.91-11.51-2.76-23.02-5.41-34.53-8.17-5.75-1.38-11.51-2.76-17.26-4.14-5.52-1.27-11.16-2.88-16.8-3.57-5.52-.69-10.93-.23-16.23,1.61-4.95,1.73-9.67,4.26-14.39,6.56-8.98,4.6-17.72,9.67-25.66,15.88-7.83,6.21-14.5,13.58-19.68,22.21-5.18,8.52-8.98,17.84-12.2,27.28-1.61,4.72-3.11,9.44-4.6,14.27-.81,2.42-1.73,4.95-1.61,7.6,.12,2.42,1.27,4.49,3.11,6.1,1.96,1.73,4.26,3.22,6.44,4.72,2.42,1.73,4.72,3.34,7.14,5.06,4.95,3.45,9.78,6.91,14.73,10.36,9.67,6.79,19.33,13.58,29,20.37,4.72,3.34,9.55,6.68,14.27,10.01,4.72,3.34,9.44,6.79,14.27,10.01,4.49,2.99,9.09,5.06,14.5,5.75,5.52,.69,11.16,.35,16.69,.12,11.74-.46,23.36-1.5,34.99-2.76,5.87-.69,11.74-1.27,17.72-1.96,5.18-.58,10.47-1.15,15.65-2.3,9.21-1.96,18.3-6.33,23.25-14.62,1.15-1.96,2.07-4.03,2.53-6.21,.23-1.04,.23-2.19,.46-3.11,.46-1.61,1.04-3.22,1.5-4.95,1.61-5.18,3.22-10.47,4.83-15.65,.23-1.15,.58-2.3,.92-3.34,.46-1.38-1.73-2.07-2.19-.58-2.42,7.83-4.83,15.77-7.37,23.59-.23,.69-.23,1.5-.35,2.19-.35,2.07-1.04,4.03-2.07,5.87-2.07,3.8-5.29,6.91-8.86,9.32-8.63,5.52-19.45,6.33-29.35,7.48-11.39,1.38-22.67,2.65-34.07,3.57-5.64,.46-11.39,.81-17.03,1.15-5.41,.23-10.93,.58-16.46,0-5.29-.58-9.9-2.76-14.27-5.64-4.72-3.11-9.32-6.44-13.93-9.67-9.32-6.56-18.76-13.12-28.08-19.8-9.32-6.56-18.76-13.12-28.08-19.8-4.6-3.22-9.32-6.44-13.81-9.78-1.96-1.38-3.68-3.11-3.8-5.64-.12-2.65,1.04-5.29,1.73-7.71,5.75-18.3,11.97-37.4,24.97-51.9,6.56-7.37,14.39-13.24,22.79-18.3,4.26-2.53,8.63-4.95,13.12-7.25,4.6-2.3,9.09-4.83,14.04-6.44,5.29-1.84,10.59-2.19,16.11-1.38s11.05,2.42,16.57,3.68c11.28,2.65,22.44,5.29,33.72,7.94,5.52,1.27,11.05,2.65,16.69,3.91,5.06,1.15,10.13,2.19,15.08,3.68,4.6,1.38,8.98,3.34,12.43,6.79,3.45,3.57,5.87,8.17,8.4,12.43,10.47,17.38,21.18,36.25,22.56,56.97,.35,4.83,.12,9.78-.58,14.62-.46,1.5,1.84,2.19,2.07,.69Z"/><path class="cls-7" d="M311.24,394.98c-4.72,3.91-8.4,9.21-9.44,15.42-1.04,6.56,.69,13.12,3.91,18.76,3.34,5.98,8.17,11.16,13.58,15.42,5.41,4.26,11.51,7.6,17.38,11.28,5.75,3.57,11.51,7.25,16.46,12.08,2.42,2.42,4.49,4.95,6.44,7.71,2.07,2.88,4.14,5.75,7.14,7.6,6.21,4.03,14.04,2.65,20.72,.81,7.14-1.96,14.16-4.37,20.83-7.6,13-6.21,24.63-15.31,32.68-27.39,3.8-5.75,6.79-12.2,8.63-18.87,1.73-6.56,2.76-14.27,.46-20.83-1.15-3.11-3.22-5.87-5.06-8.52-2.19-3.34-4.37-6.56-6.56-9.9-.46-.69-.81-1.27-1.27-1.96-.81-1.27-2.76-.12-1.96,1.15l10.36,15.54c.81,1.27,1.61,2.53,2.19,3.91,1.27,3.22,1.5,6.79,1.38,10.24-.35,6.68-2.19,13.24-5.06,19.33-5.87,12.54-15.65,22.79-27.28,30.15-6.1,3.8-12.66,6.91-19.45,9.44-3.34,1.27-6.79,2.3-10.24,3.22-3.34,.92-6.79,1.73-10.24,1.73s-6.68-.69-9.44-2.65c-2.65-1.96-4.49-4.72-6.44-7.37-1.96-2.76-4.14-5.41-6.56-7.71-2.42-2.3-4.95-4.37-7.71-6.21-10.93-7.71-23.71-13.12-32.8-23.13-4.26-4.72-7.83-10.36-9.32-16.57-1.38-5.98-.46-12.2,2.99-17.38,3.22-4.95,8.29-8.29,13.58-10.93,5.98-2.99,12.31-5.18,18.64-7.37,7.83-2.88,15.77-5.64,23.59-8.52,3.91-1.38,7.94-2.88,11.85-4.26,3.8-1.38,7.6-2.88,11.51-4.14,1.84-.58,3.8-1.04,5.75-1.04s3.8,.35,5.64,.92c3.57,1.04,6.91,2.76,10.24,4.49,6.56,3.34,12.89,7.37,18.76,11.97,2.88,2.19,5.52,4.49,8.17,7.02,1.03,.58,2.65-1.04,1.5-2.07-5.52-5.18-11.62-9.9-18.07-13.93-3.22-2.07-6.56-3.91-10.01-5.64-3.45-1.73-6.91-3.45-10.59-4.49-1.96-.58-4.03-.81-5.98-.81-1.96,.12-3.91,.46-5.87,1.04-4.03,1.27-7.94,2.76-11.97,4.26-8.06,2.88-16.23,5.87-24.28,8.75"/><path class="cls-7" d="M296.85,583.95c4.37,4.49,4.37,11.51,4.14,17.26-.35,7.02-1.73,14.04-1.84,21.18-.12,5.52,.46,12.08,5.41,15.54,2.07,1.5,4.49,2.65,6.91,3.68,2.53,1.15,5.06,1.96,7.83,2.19,2.76,.12,5.52-.58,8.06-1.61,2.76-1.15,5.52-2.3,8.29-3.57,11.51-4.95,23.02-9.78,34.53-14.73,8.4-3.57,17.26-6.79,24.51-12.43,3.11-2.53,5.98-5.52,7.83-9.09,2.19-3.91,3.22-8.4,3.45-12.89,.46-9.67-3.22-19.22-7.94-27.51-5.06-8.75-11.74-16.69-19.33-23.36-7.6-6.79-16.11-12.43-24.28-18.53-8.29-6.21-16.23-13-22.56-21.18-3.34-4.26-6.1-8.86-9.67-12.77-3.57-3.91-8.06-6.68-13.35-7.37-4.83-.58-9.55,.46-14.16,1.84-4.72,1.5-9.32,3.22-13.7,5.52-8.75,4.37-16.8,10.59-23.02,18.18-5.98,7.37-10.36,16-12.89,25.09-1.38,4.95-2.3,10.13-2.76,15.19-.23,2.65-.35,5.41-.35,8.06,0,1.38,0,2.76,.12,4.14,.12,1.15,.12,2.42,.23,3.57,.23,1.38,1.38,2.42,2.42,3.22,1.61,1.38,3.45,2.42,5.29,3.34,5.18,2.65,10.59,4.83,16,6.91,5.87,2.19,11.74,4.14,17.61,6.1,4.03,1.27,8.06,2.53,12.08,3.68,.58,.23,1.15,.35,1.73,.46,1.38,.46,2.07-1.84,.58-2.19-2.19-.58-4.37-1.27-6.68-1.96-5.06-1.61-10.24-3.22-15.31-4.95-5.87-1.96-11.62-4.03-17.38-6.44-4.26-1.73-8.75-3.68-12.43-6.44,.23,.12-.23-.23-.35-.23-.12-.12-.23-.23-.46-.35-.23-.23-.46-.46-.69-.69q-.12-.12,0,0l-.12-.12c-.12-.12-.12-.23-.23-.35,0,0,0-.12-.12-.12-.12-.12,.12,.23,0,.12,0-.12-.12-.23-.12-.35s0,.46,0,0c0-.35,0-.69-.12-1.04,0-.69-.12-1.38-.12-2.07-.12-1.38-.12-2.76-.12-4.14,0-2.65,.12-5.29,.35-7.94,.81-9.67,3.45-19.22,7.83-27.74,4.26-8.4,10.36-15.77,17.84-21.52,7.6-5.87,16.34-10.01,25.43-12.77,4.37-1.38,9.09-2.42,13.81-1.61,5.18,.92,9.21,4.14,12.43,8.17,3.34,4.03,6.1,8.4,9.32,12.43,3.22,4.03,6.91,7.71,10.7,11.16,7.48,6.68,15.65,12.31,23.71,18.3,3.91,2.99,7.94,5.98,11.62,9.21,3.68,3.22,7.14,6.79,10.24,10.59,6.21,7.48,11.74,16.11,14.5,25.55,2.53,8.4,2.76,17.84-1.84,25.55-4.03,6.79-11.05,10.93-17.95,14.16-4.72,2.19-9.55,4.14-14.39,6.21-5.64,2.42-11.28,4.83-16.92,7.25-5.64,2.42-11.28,4.83-16.92,7.25-2.65,1.15-5.29,2.3-7.94,3.34-2.53,.92-5.06,1.5-7.71,1.15-2.65-.46-5.29-1.5-7.71-2.76-1.84-.92-3.91-1.84-5.29-3.22-1.84-1.61-2.76-3.91-3.22-6.33-.58-2.88-.46-5.98-.35-8.98,.23-3.45,.58-6.91,1.04-10.24,.69-6.56,1.61-13.58,0-20.14-.69-2.76-1.96-5.41-4.03-7.48-.81-1.04-2.42,.58-1.5,1.61Z"/><path class="cls-7" d="M397.21,387.38c-5.52-6.1-13.47-9.21-21.64-8.63-3.91,.23-7.6,1.27-11.16,2.88-4.26,1.96-8.29,4.6-12.08,7.14-3.91,2.65-7.71,5.29-11.85,7.48-3.91,1.96-8.06,3.45-12.2,5.06-4.03,1.61-8.17,3.34-11.74,5.87-1.73,1.27-3.57,2.65-4.83,4.26-1.5,1.84-2.07,4.14-1.61,6.44,.46,2.3,1.73,4.49,2.88,6.68,1.04,1.96,2.3,4.03,3.57,5.87,2.53,3.8,5.41,7.25,8.63,10.47,3.11,3.11,6.44,5.87,10.13,8.4,3.8,2.53,8.06,4.95,12.54,6.1,2.42,.69,4.95,.92,7.48,.58,2.42-.35,4.72-1.27,7.02-2.3,4.83-2.19,9.67-4.49,14.5-6.91,4.72-2.42,9.55-4.83,14.16-7.48,3.57-1.96,7.14-4.03,10.47-6.56,2.99-2.3,5.64-5.18,7.25-8.63,1.96-4.03,2.3-8.52,1.5-12.89-.81-4.95-2.99-9.67-5.29-14.16-.58-1.15-1.27-2.3-1.84-3.45-.46-.69-.81-1.61-1.38-2.3-.69-.81-1.5-1.5-2.3-2.3-1.04-.46-1.61-1.04-2.19-1.61-1.04-1.04-2.65,.58-1.61,1.61,1.38,1.27,2.88,2.53,4.03,3.91,.35,.46,.69,1.27,1.04,1.84,.58,1.04,1.15,2.19,1.84,3.34,1.15,2.19,2.19,4.37,3.11,6.56,1.61,4.26,2.88,8.86,2.19,13.35-.46,3.68-2.19,7.02-4.6,9.67-2.42,2.65-5.41,4.83-8.52,6.68-4.03,2.42-8.17,4.6-12.43,6.79-4.6,2.42-9.21,4.72-13.81,6.91-2.3,1.04-4.6,2.19-6.91,3.22-2.19,.92-4.37,1.84-6.68,2.3-4.72,.81-9.44-1.15-13.58-3.22-3.57-1.96-7.02-4.26-10.13-6.79-6.68-5.52-12.08-12.31-16.23-19.91-1.04-1.96-2.3-4.03-2.76-6.21-.46-2.07,.35-3.91,1.84-5.41,2.88-2.99,6.56-5.06,10.36-6.79,3.8-1.73,7.83-3.11,11.74-4.72,4.14-1.73,7.94-3.68,11.62-6.1,7.14-4.6,14.16-10.47,22.56-12.66,7.02-1.84,14.85-.92,20.95,3.22,1.61,1.15,3.11,2.42,4.37,3.91,.92,1.27,2.65-.35,1.61-1.5Z"/><path class="cls-7" d="M371.2,388.07c-4.49,.35-9.09,2.07-11.97,5.64-1.27,1.5-2.19,3.11-2.76,4.95-.81,2.76-.81,5.64-.58,8.52,.12,2.88,.35,5.87-.23,8.75-.58,2.76-1.5,5.41-1.84,8.17-.35,2.42-.46,5.52,1.04,7.71,1.61,2.3,4.83,2.53,7.37,2.76,5.64,.58,11.51,.46,17.15-.69,2.53-.46,5.06-1.15,7.48-2.19,2.42-.92,4.95-2.07,6.68-4.03,1.84-2.19,2.07-4.95,2.53-7.6,.46-3.11,.92-6.1,1.27-9.21,.46-4.6,1.38-9.67-.58-13.93-2.07-4.6-6.91-6.79-11.51-7.83-2.65-.58-5.29-.92-7.94-1.15-.92-.12-1.84-.23-2.65-.12-.69,.12-1.38,.23-2.07,.23-.46,.12-.92,.12-1.38,.23-.58,.12-.92,.92-.81,1.38,.23,.69,.81,.92,1.38,.81,1.04-.12,2.19-.35,3.22-.46,.12,0,.35-.12,.46-.12-.23,0,.35,.12,.23,.12h.35c.35,0,.69,.12,1.04,.12,1.15,.12,2.42,.23,3.57,.46,4.37,.58,9.44,1.61,12.54,5.06,2.65,2.99,2.65,7.02,2.3,10.7-.46,5.52-1.04,11.28-2.19,16.69-.23,1.15-.58,2.19-1.27,3.11-.69,.92-1.61,1.61-2.65,2.07-2.07,1.15-4.37,1.96-6.68,2.65-4.95,1.38-10.13,1.96-15.19,1.84-2.65,0-5.29-.23-7.94-.69-1.04-.23-2.19-.58-2.76-1.5-.58-.92-.69-2.07-.69-3.11-.12-2.53,.58-5.06,1.15-7.48,.69-2.65,1.27-5.18,1.27-7.94,.12-4.72-1.04-9.9,1.15-14.27,1.73-3.34,4.95-5.64,8.52-6.56,1.04-.35,2.19-.46,3.34-.58,1.04-.35,1.04-2.65-.35-2.53Z"/><path class="cls-7" d="M521.62,565.08c5.41-38.9,1.84-78.72-10.59-116.01-3.11-9.21-6.56-18.41-9.21-27.74-2.76-9.67-4.26-19.68-4.37-29.69-.12-10.13,1.5-19.8,3.8-29.69,1.04-4.14,1.5-8.4-.58-12.31-1.84-3.34-5.06-5.75-8.29-7.37-15.42-7.83-33.38-4.95-49.72-2.53-8.86,1.27-17.84,2.53-26.93,2.3-4.49-.12-9.09-.58-13.35-1.84-4.49-1.38-7.94-4.14-10.93-7.71-2.76-3.22-5.18-6.79-8.17-9.9-2.88-2.99-5.98-5.64-9.44-7.94-6.68-4.49-14.5-7.48-22.67-7.37-8.75,.12-16.8,4.14-23.82,8.98-6.79,4.6-13.12,9.9-18.87,15.65-11.74,11.51-21.75,24.97-29.23,39.59-7.94,15.42-12.66,31.76-15.42,48.8-1.61,9.67-2.76,19.33-4.83,28.89-2.07,9.67-5.41,18.76-9.67,27.74-4.03,8.75-8.63,17.26-12.77,26.01s-7.83,17.84-10.93,27.05c-3.11,9.09-5.87,18.41-7.83,27.85-1.73,8.06-2.42,17.03,2.53,24.05,9.44,13.58,28.31,11.85,42.47,14.96,7.71,1.73,14.39,5.29,19.22,11.62,3.91,5.18,6.44,11.16,8.98,17.03,4.95,11.74,10.47,24.86,23.48,29.23,8.17,2.76,17.03,1.38,25.09-1.04,8.86-2.76,17.26-6.91,25.55-11.05,8.63-4.37,17.15-9.09,25.32-14.16,7.83-4.83,15.19-10.13,22.9-15.19,7.37-4.83,14.96-9.55,23.25-12.66,8.52-3.22,17.03-4.14,26.12-2.99,8.86,1.04,18.3,2.99,26.59-1.38,7.02-3.68,11.74-10.24,18.07-14.73,3.11-2.19,6.1-3.91,8.75-6.79,2.42-2.88,4.26-6.1,5.52-9.67,.46-1.38-1.73-1.96-2.19-.58-1.38,3.91-3.68,7.48-6.68,10.24-2.76,2.53-6.1,4.26-8.98,6.56-6.1,4.95-11.28,11.74-18.99,14.16-8.86,2.76-18.18-.23-27.16-.81-8.4-.46-16.69,1.38-24.28,4.6-16,6.68-29.69,18.07-44.31,27.16-8.17,5.06-16.57,9.67-25.09,14.04-8.06,4.03-16.34,8.17-24.97,10.82-8.17,2.53-17.49,3.91-25.55,.35-5.98-2.65-10.24-7.48-13.47-13.12-6.33-10.82-9.09-23.59-17.26-33.38-4.83-5.75-11.39-9.09-18.64-10.7-7.83-1.84-16-1.96-23.82-3.8-7.02-1.61-14.39-4.72-18.41-11.05-4.83-7.71-2.76-17.38-.81-25.66,4.49-18.76,11.05-36.83,19.45-54.09,4.03-8.29,8.4-16.46,12.2-24.86,3.91-8.63,6.91-17.49,8.86-26.7,3.8-17.95,4.95-36.25,10.59-53.75,4.95-15.42,12.54-29.92,22.1-42.93,9.67-13.12,21.64-24.86,35.1-34.07,7.14-4.83,15.19-8.63,24.05-8.17,8.29,.46,16.23,4.26,22.67,9.44,3.11,2.53,5.98,5.29,8.52,8.4,2.76,3.34,5.18,7.02,8.4,9.9,6.21,5.64,14.73,6.79,22.79,7.02,17.38,.46,34.41-4.72,51.79-4.83,8.17,0,16.8,1.15,24.17,4.95,3.57,1.84,7.02,4.6,7.94,8.63,1.15,4.72-1.04,9.78-1.96,14.39-3.91,18.76-2.76,37.98,2.53,56.28,2.76,9.32,6.21,18.53,9.32,27.74,2.88,8.98,5.29,18.07,7.25,27.28,3.91,18.99,5.64,38.44,5.06,57.77-.23,9.32-1.04,18.64-2.3,27.85-.35,1.73,1.84,2.42,2.07,.92Z"/><path class="cls-7" d="M443.01,310.16c6.56,2.42,11.62,7.37,16.92,11.62,2.65,2.07,5.41,4.03,8.52,5.52,3.11,1.5,6.33,2.65,9.67,3.45,13.24,2.99,27.51-.35,37.75-9.32,4.83-4.26,8.63-9.55,11.16-15.54,1.27-2.99,2.3-6.1,2.88-9.32,.58-2.99,.92-6.21,.69-9.32-.46-5.41-3.45-12.43-10.13-11.62-1.84,.23-3.57,1.04-5.41,1.5-1.73,.46-3.57,.69-5.41,.69-3.8,0-7.6-1.04-11.16-2.42-3.68-1.38-7.14-3.22-10.59-5.06-3.8-1.96-7.48-3.91-11.28-5.87-3.8-1.96-7.48-3.91-11.28-5.87-1.5-.81-2.99-1.61-4.14-2.88-1.27-1.27-1.84-2.99-2.19-4.72-1.04-4.03-1.73-8.17-2.53-12.2-.46-2.07-.92-4.26-1.38-6.33-.46-1.96-.69-3.91-1.27-5.87-1.04-3.11-3.45-5.06-6.68-5.41-2.88-.35-5.98,.46-8.63,1.5-6.21,2.3-12.31,5.06-18.07,8.29-5.64,3.11-11.05,7.02-15.42,11.74-2.19,2.3-4.03,4.95-5.64,7.71-1.84,3.22-3.11,6.91-2.53,10.7,1.04,6.21,6.79,10.82,12.54,12.54,7.6,2.42,15.65,.81,23.48,1.38,5.87,.35,13,2.07,16.11,7.6,2.3,3.91,2.53,10.24-1.73,13-2.19,1.38-5.18,1.96-6.79,4.14-.58,.81-.81,1.96-.58,2.99,.23,.69,.58,1.38,.81,1.96,.58,1.38,1.04,2.76,1.61,4.14,.23,.58,.81,1.04,1.38,.81,.58-.12,1.04-.81,.81-1.38-.58-1.38-1.15-2.88-1.61-4.26-.23-.58-.58-1.27-.69-1.84-.23-.69,.23-1.27,.92-1.73,1.96-1.61,4.6-2.07,6.56-3.68,1.96-1.73,2.99-4.26,3.22-6.79,.35-2.65-.23-5.41-1.38-7.71-1.27-2.65-3.57-4.72-5.98-6.1-5.98-3.45-13.12-3.57-19.79-3.34-7.02,.12-14.62,.46-20.72-3.68-2.3-1.61-4.37-3.91-5.29-6.68-1.04-3.34-.23-6.68,1.38-9.67,5.87-11.51,17.49-18.53,28.77-23.71,2.88-1.38,5.87-2.53,8.86-3.8,2.65-1.04,5.52-1.96,8.29-1.61,1.15,.12,2.3,.46,3.11,1.27,1.15,1.04,1.61,2.65,1.96,4.14,.92,4.03,1.73,8.17,2.53,12.2,.46,2.07,.92,4.14,1.27,6.21,.35,1.84,.69,3.8,1.27,5.64,.58,1.73,1.27,3.22,2.53,4.49,1.15,1.27,2.65,2.07,4.14,2.88,7.25,3.91,14.73,7.6,22.1,11.39,6.79,3.45,13.7,7.25,21.29,8.06,1.84,.23,3.68,.23,5.52,0,1.96-.23,3.68-.81,5.52-1.38,1.5-.58,3.22-1.04,4.83-.58,1.04,.35,1.96,.92,2.65,1.73,1.73,1.96,2.42,4.72,2.65,7.25,.35,2.99,0,6.1-.58,9.09-1.15,6.1-3.68,11.97-7.37,16.92-3.68,5.06-8.52,9.21-14.16,12.08-5.87,2.99-12.43,4.37-18.99,4.26-6.56-.12-13-1.73-18.76-4.83-5.98-3.22-10.82-8.17-16.34-12.08-2.65-1.96-5.41-3.57-8.52-4.6-1.38-.46-2.07,1.73-.69,2.3Z"/><path class="cls-5" d="M192.81,323.74c-2.65,5.29-2.65,11.62-.35,17.03,1.15,2.76,2.76,5.29,4.95,7.25,2.42,2.19,5.52,4.26,8.98,4.14,3.57-.12,6.1-2.65,7.14-5.87,1.27-3.8,0-7.83-1.04-11.51-.58-1.96-1.15-4.03-1.73-5.98-.46-1.84-.92-3.57-1.61-5.41-1.04-2.88-2.99-5.75-6.33-6.33-1.5-.23-3.22-.12-4.49,.92-.35,.23-.58,.46-.81,.81-.12,.12-.23,.35-.35,.46q.12-.12,.12,0c-.23,.23-.46,.46-.58,.58-1.27,1.27-2.53,2.53-3.8,3.8-1.04,1.04,.58,2.65,1.61,1.61,.92-.92,1.96-1.96,2.88-2.88,.46-.46,.92-.92,1.38-1.38,.58-.58,.81-1.15,1.61-1.38,2.42-.81,4.6,.92,5.75,2.99,.69,1.27,1.15,2.76,1.5,4.14,.46,1.73,1.04,3.57,1.5,5.41,.46,1.84,1.04,3.68,1.5,5.41,.46,1.84,.92,3.57,.92,5.41,0,2.65-1.04,5.64-3.57,6.79-2.76,1.15-6.1-.58-8.17-2.3-1.96-1.61-3.57-3.68-4.72-5.87-2.53-4.95-2.88-11.28-.46-16.34,.81-1.73-1.15-2.88-1.84-1.5Z"/><path class="cls-7" d="M569.84,313.96c-18.64,2.65-34.41,18.53-37.63,36.94-.92,5.18-.58,10.47,0,15.65,.58,5.64,1.38,11.62,.23,17.26-.58,2.88-1.84,5.52-3.45,7.94-1.61,2.42-3.45,4.6-5.06,7.02-2.42,3.91-3.91,8.29-4.49,12.89-1.15,9.32,1.73,18.99,6.68,26.82,2.53,4.03,5.75,7.71,9.44,10.82s7.48,5.98,10.93,9.44c2.99,2.99,5.87,6.68,6.44,11.05,.81,5.64-2.65,10.47-5.18,15.19-5.64,10.47-9.55,21.98-11.39,33.72-.81,5.29-.92,10.82,3.34,14.73,3.45,3.11,8.06,4.49,12.54,5.29,12.54,2.42,25.43,3.57,38.21,3.57,3.22,0,6.44,0,9.67-.23,1.5-.12,1.5-2.42,0-2.3-12.77,.58-25.66-.12-38.44-1.84-5.18-.69-10.7-1.38-15.65-3.34-1.96-.81-3.91-1.84-5.41-3.45-1.84-1.96-2.53-4.49-2.53-7.14,0-2.88,.58-5.75,1.15-8.52,.58-2.88,1.27-5.87,2.07-8.63,1.61-5.64,3.68-11.16,6.21-16.46,1.27-2.65,2.65-5.18,4.14-7.83,1.27-2.3,2.53-4.72,3.22-7.37,1.04-4.37,.23-8.75-2.19-12.54-4.95-7.94-13.58-12.43-19.79-19.22-6.21-6.79-10.47-15.77-11.28-24.97-.35-4.49,.12-8.98,1.61-13.24,1.73-4.95,5.29-8.63,8.06-13,6.33-9.9,2.99-21.52,2.65-32.34-.69-18.76,12.2-36.6,30.04-42.24,2.07-.69,4.26-1.15,6.56-1.5,1.38-.23,.81-2.42-.69-2.19h0Z"/><path class="cls-7" d="M566.96,324.78c-4.49-.23-8.06,3.11-10.01,6.91-2.42,4.83-1.96,10.36-2.76,15.54-.81,4.72-3.11,8.75-5.87,12.66-2.65,3.8-5.52,7.48-7.37,11.85-4.26,10.13-1.15,21.41,1.84,31.3,.69,2.3,1.38,4.72,2.65,6.91,1.15,1.96,2.99,3.57,5.06,4.6,4.37,1.96,9.32,1.73,13.93,2.42,10.47,1.5,20.6,4.95,29.69,10.24,1.15,.69,2.3,1.38,3.34,2.07,1.27,.81,2.42-1.15,1.15-1.96-8.63-5.52-18.18-9.44-28.2-11.51-2.53-.58-5.06-.92-7.6-1.27-2.3-.23-4.49-.35-6.79-.69-2.19-.35-4.26-.92-6.1-2.07-1.84-1.27-2.99-3.22-3.8-5.29-.92-2.3-1.61-4.72-2.3-7.14-.69-2.53-1.38-5.06-1.96-7.71-1.04-4.95-1.38-10.13-.23-15.19,2.07-9.09,9.78-15.19,13.24-23.59,1.96-4.95,1.61-10.36,2.53-15.54,.69-3.8,2.65-8.29,6.56-9.78,.92-.35,1.84-.46,2.76-.35,1.73,0,1.73-2.3,.23-2.42h0Z"/><path class="cls-7" d="M-7.32,507.19c2.76-5.98,5.52-11.85,8.4-17.84,1.27-2.53,2.3-5.29,3.8-7.71,1.38-2.3,3.34-3.8,5.98-4.26,1.38-.23,2.76-.23,4.14-.23h5.06c3.34,0,6.56,.12,9.9,.12,6.56,.12,13.12,.12,19.79,.23,13.24,.12,26.47,.35,39.71,.46,6.68,.12,13.24,.12,19.91,.23,2.76,0,5.64,.12,7.83,1.84,1.96,1.5,3.11,3.68,4.26,5.87,2.88,5.75,5.64,11.51,8.4,17.26,2.88,5.87,5.75,11.85,8.52,17.72,.69,1.5,1.38,2.99,2.19,4.37,.69,1.38,2.65,.12,1.96-1.15-5.87-12.2-11.74-24.28-17.61-36.48-2.19-4.6-4.72-10.01-10.24-11.28-3.11-.69-6.56-.46-9.67-.46-3.34,0-6.79-.12-10.13-.12-13.58-.12-27.05-.35-40.63-.46-6.79-.12-13.58-.12-20.37-.23-6.68-.12-13.35-.23-20.03-.23-2.88,0-5.75,.46-8.17,2.3-2.07,1.61-3.45,4.03-4.49,6.44-2.88,5.98-5.64,11.97-8.4,17.95-.69,1.5-1.38,2.99-2.19,4.6-.58,1.15,1.5,2.42,2.07,1.04h0Z"/></g></g></g><path class="cls-5" d="M161.51,485.67l5.87-37.98-20.49-96.9-36.48-18.18-3.11-16.34-34.64-10.59-11.39-42.01-20.14-16.46,5.18-14.04-21.98-40.74,14.39-22.79,42.7,11.16,6.44-22.33,53.98-26.01-9.21-23.94,31.19-24.51,16.57-27.39-22.1-38.44L216.64,0l6.56,24.86,22.9,21.64,51.44,8.63,34.3,69.97,39.47,13.7-7.14,36.71,91.26,15.54,6.56,16.57-63.3,105.42,14.85,22.9-29.12,8.06-32.45,13.58-7.37,30.84-24.51,4.72-23.13-34.41-87.7,56.05,.12,48.45-47.88,22.44Zm-49.03-154.68l36.37,18.18,.12,.58,20.72,97.82-5.29,34.18,42.58-19.91-.12-48.22,90.57-57.89,23.59,34.99,21.52-4.14,7.25-30.5,33.84-14.16,26.12-7.25-13.93-21.41,63.41-105.65-5.64-14.27-92.3-15.65,7.25-37.06-38.55-13.35-34.18-69.74-50.98-8.52-23.82-22.56-6.1-23.13-53.29,16.57,21.29,37.06-17.49,28.89-.12,.12-30.04,23.59,9.44,24.4-55.01,26.47-6.79,23.59-43.27-11.39-12.77,20.26,21.87,40.4-4.95,13.47,19.45,15.88,11.16,41.55,34.76,10.59,3.34,16.23Z"/><path class="cls-5" d="M138.49,485.67l5.87-37.98-20.49-96.9-36.48-18.18-3.11-16.34-34.64-10.59-11.39-42.01-20.14-16.46,5.18-14.04L1.31,192.43l14.39-22.79,42.7,11.16,6.44-22.33,53.98-26.01-9.21-23.94,31.19-24.51,16.57-27.39-22.1-38.44L193.62,0l6.56,24.86,22.9,21.64,51.44,8.63,34.3,69.97,39.47,13.7-7.14,36.71,91.26,15.54,6.56,16.57-63.3,105.42,14.85,22.9-29.12,8.06-32.45,13.58-7.37,30.84-24.51,4.72-23.13-34.41-87.7,56.05,.12,48.45-47.88,22.44Zm-49.03-154.68l36.37,18.18,.12,.58,20.72,97.82-5.29,34.18,42.58-19.91-.12-48.22,90.57-57.89,23.59,34.99,21.52-4.14,7.25-30.5,33.84-14.16,26.12-7.25-13.93-21.41,63.41-105.65-5.64-14.27-92.3-15.65,7.25-37.06-38.55-13.35-34.18-69.74-50.98-8.52-23.82-22.56-6.1-23.13-53.29,16.57,21.29,37.06-17.49,28.89-.12,.12-30.04,23.59,9.44,24.4-55.01,26.47-6.79,23.59-43.27-11.39-12.77,20.26,21.87,40.4-4.95,13.47,19.45,15.88,11.16,41.55,34.76,10.59,3.34,16.23Z"/></g><g><path class="cls-4" d="M1042.5,204.92c2.92,8.01,12.65,7.41,18.42,5.99,8.83-2.17,13.78-9.73,13.78-9.73l-1.8-5.09-2.4-6.96c-.3,1.5-2.62,8.46-8.54,11.16-8.98,4.12-11.53-.67-11.53-.67l-8.46,.82,.52,4.49Z"/><path class="cls-2" d="M1029.02,182.01l17.07,16.4c-.6,.6-13.78,11.98-13.78,11.98-2.17-.75-10.71-11.01-10.71-11.01-3.52-3.89-1.72-6.29-1.72-6.29l9.13-11.08"/><path class="cls-3" d="M1041.6,197.73s-12.28-12.8-12.73-14.97c-.3-1.65,1.57-.82,2.25-.45s9.43,5.02,13.55,4.19"/><path class="cls-2" d="M1042.5,204.92s-2.62-14.38,.6-17.22c3.82-3.37,9.28-2.92,9.28-2.92,0,0,1.65,13.55,1.5,13.85-.07,.3-8.69,.52-11.38,6.29Z"/></g></svg>